<?xml version="1.0" encoding="UTF-8"?>
<svg width="70px" height="67px" viewBox="0 0 70 67" version="1.1" xmlns="http://www.w3.org/2000/svg" xmlns:xlink="http://www.w3.org/1999/xlink">
    <!-- Generator: Sketch 52.5 (67469) - http://www.bohemiancoding.com/sketch -->
    <title>Fill 11</title>
    <desc>Created with Sketch.</desc>
    <g id="WEB" stroke="none" stroke-width="1" fill="none" fill-rule="evenodd">
        <g id="BURGER-MENU" transform="translate(-123.000000, -145.000000)" fill="#FFFFFF">
            <path d="M192.934319,186.425809 C192.841907,186.052929 188.128868,170.143368 187.122058,166.746014 C187.066124,166.558355 187.012622,166.370696 186.954256,166.187912 C186.942096,166.136732 186.929937,166.100175 186.929937,166.100175 L186.929937,166.112361 C184.967387,159.88794 181.04715,154.533573 175.889072,150.780399 L175.891504,150.780399 C174.43479,149.347369 177.715435,147.495152 179.546662,147.146643 C180.855029,146.900494 180.998512,145.650248 179.507752,145.547889 C179.077304,145.518643 158.369602,145.021469 158.369602,145.021469 C151.591873,144.987349 145.327276,147.20026 140.276202,150.958309 C138.603049,151.570028 137.919683,148.067877 138.150714,146.279026 C138.318516,144.95323 137.182815,144.434122 136.618612,145.81841 C136.489721,146.149859 131.747499,159.668599 130.13028,164.299139 C128.836504,167.635565 128.114227,171.257135 128.09234,175.044429 C128.075317,178.356484 128.600609,181.541808 129.568509,184.529725 L129.536894,184.488294 C129.872497,186.503797 126.132222,186.052929 124.451773,185.251114 C123.247978,184.675953 122.39681,185.594749 123.537375,186.562288 C123.8365,186.81575 137.588943,197.388004 139.984373,199.230471 C140.028148,199.262154 140.06949,199.293837 140.110832,199.327956 C140.259179,199.440064 140.344296,199.508304 140.344296,199.508304 L140.329704,199.483932 C145.288366,203.156682 151.414344,205.347659 158.053454,205.384215 C158.092365,205.384215 158.128843,205.381778 158.170186,205.381778 C160.130304,205.730287 158.539836,209.113019 157.260652,210.453438 C156.336527,211.416103 156.93964,212.517684 158.218824,211.73293 C158.525244,211.545271 170.915819,203.044574 174.66339,200.47828 C174.98197,200.273561 175.290822,200.056657 175.599675,199.837316 C175.677496,199.783699 175.730998,199.749579 175.730998,199.749579 L175.723702,199.749579 C180.89394,196.040273 184.843359,190.734649 186.852116,184.541911 L186.852116,184.595527 C187.756786,182.767683 190.531593,185.321791 191.426536,186.957103 C192.070992,188.126924 193.296674,187.880774 192.934319,186.425809" id="Fill-11"></path>
        </g>
    </g>
</svg>