<?xml version="1.0" encoding="UTF-8"?>
<svg width="211px" height="43px" viewBox="0 0 211 43" version="1.1" xmlns="http://www.w3.org/2000/svg" xmlns:xlink="http://www.w3.org/1999/xlink">
    <!-- Generator: Sketch 60.1 (88133) - https://sketch.com -->
    <title>Group 22</title>
    <desc>Created with Sketch.</desc>
    <g id="Symbols" stroke="none" stroke-width="1" fill="none" fill-rule="evenodd">
        <g id="Group-22" fill="#FFFFFF">
            <path d="M53.1474,24.0662 C51.7966,24.0662 50.5567,23.7027 49.4276,22.9758 C48.2986,22.2488 47.4144,21.2512 46.7751,19.983 C46.1358,18.7147 45.8162,17.3072 45.8162,15.7606 L45.8162,15.0646 C45.8162,13.5179 46.1255,12.1001 46.7442,10.8112 C47.3628,9.5224 48.2135,8.517 49.2962,7.7952 C50.3788,7.0735 51.5595,6.7126 52.838,6.7126 C54.7044,6.7126 56.2304,7.3776 57.4162,8.7078 C58.602,10.0379 59.1948,11.7856 59.1948,13.951 L59.1948,14.8326 L46.6514,14.8326 L46.6514,15.7451 C46.6514,17.1062 46.9375,18.3667 47.5098,19.5267 C48.082,20.6867 48.8708,21.5967 49.8762,22.2566 C50.8815,22.9165 51.9719,23.2464 53.1474,23.2464 C54.2713,23.2464 55.2276,23.0583 56.0164,22.6819 C56.8052,22.3055 57.5038,21.7255 58.1122,20.9419 L58.6999,21.3595 C57.4523,23.1639 55.6014,24.0662 53.1474,24.0662 Z M52.838,7.5478 C51.2089,7.5478 49.8272,8.1536 48.693,9.3651 C47.5588,10.5767 46.8937,12.1208 46.6978,13.9974 L58.3596,13.9974 L58.3596,13.7963 C58.3596,12.6621 58.1199,11.6078 57.6404,10.6334 C57.161,9.659 56.5011,8.9011 55.6607,8.3598 C54.8204,7.8184 53.8795,7.5478 52.838,7.5478 Z" id="Fill-1"></path>
            <path d="M73.9036,23.7568 C73.6974,23.0454 73.5943,22.0246 73.5943,20.6944 C72.9344,21.7668 72.0322,22.5968 70.8876,23.1846 C69.7431,23.7723 68.4491,24.0662 67.0055,24.0662 C65.4588,24.0662 64.2138,23.646 63.2703,22.8056 C62.3268,21.9653 61.8551,20.8697 61.8551,19.519 C61.8551,17.9826 62.5485,16.753 63.9354,15.8302 C65.3222,14.9073 67.1653,14.4356 69.4647,14.415 L73.5943,14.415 L73.5943,11.9712 C73.5943,10.5689 73.1535,9.4811 72.2719,8.7078 C71.3903,7.9344 70.1298,7.5478 68.4903,7.5478 C66.9643,7.5478 65.6908,7.9396 64.67,8.7232 C63.6492,9.5069 63.1388,10.4761 63.1388,11.631 L62.3036,11.6 C62.3036,10.239 62.9017,9.0841 64.0978,8.1355 C65.2939,7.1869 66.758,6.7126 68.4903,6.7126 C70.2947,6.7126 71.728,7.1637 72.79,8.0659 C73.8521,8.9681 74.3986,10.239 74.4295,11.8784 L74.4295,19.8747 C74.4295,21.7101 74.5739,22.9577 74.8626,23.6176 L74.8626,23.7568 L73.9036,23.7568 Z M67.0055,23.2464 C68.5728,23.2464 69.921,22.8959 71.05,22.1947 C72.1791,21.4935 73.0272,20.5088 73.5943,19.2406 L73.5943,15.2656 L69.7276,15.2656 C67.3355,15.2656 65.5052,15.74 64.237,16.6886 C63.2059,17.4619 62.6903,18.426 62.6903,19.5808 C62.6903,20.6016 63.0976,21.4678 63.9122,22.1792 C64.7267,22.8907 65.7579,23.2464 67.0055,23.2464 Z" id="Fill-2"></path>
            <path d="M90.1282,19.6582 C90.1282,17.6269 88.3959,16.2452 84.9314,15.5131 C82.8485,15.0697 81.3998,14.5 80.5852,13.804 C79.7707,13.108 79.3634,12.1517 79.3634,10.935 C79.3634,9.708 79.8815,8.6975 80.9178,7.9035 C81.954,7.1096 83.3022,6.7126 84.9623,6.7126 C86.7667,6.7126 88.2155,7.1431 89.3084,8.004 C90.4014,8.865 90.9479,10.0276 90.9479,11.4918 L90.0972,11.4918 C90.0972,10.3679 89.6229,9.4296 88.6743,8.6768 C87.7257,7.9241 86.4883,7.5478 84.9623,7.5478 C83.4981,7.5478 82.3381,7.8674 81.4823,8.5067 C80.6265,9.146 80.1986,9.9451 80.1986,10.904 C80.1986,11.6568 80.3584,12.2471 80.678,12.675 C80.9977,13.1029 81.5184,13.4896 82.2402,13.835 C82.9619,14.1804 84.0137,14.5129 85.3954,14.8326 C86.7771,15.1522 87.87,15.5286 88.6743,15.9616 C89.4786,16.3947 90.0611,16.9077 90.422,17.5006 C90.7829,18.0935 90.9634,18.8178 90.9634,19.6736 C90.9634,20.9935 90.422,22.0555 89.3394,22.8598 C88.2567,23.664 86.8389,24.0662 85.086,24.0662 C83.2094,24.0662 81.6963,23.6408 80.5466,22.7902 C79.3969,21.9395 78.822,20.8439 78.822,19.5035 L79.6572,19.5035 C79.7397,20.679 80.2579,21.5941 81.2116,22.2488 C82.1654,22.9036 83.4569,23.231 85.086,23.231 C86.5811,23.231 87.7953,22.883 88.7284,22.187 C89.6616,21.491 90.1282,20.648 90.1282,19.6582 Z" id="Fill-3"></path>
            <path d="M100.692,22.4576 L100.8,22.1483 L106.585,7.0219 L107.513,7.0219 L100.027,26.6646 L99.6556,27.5926 C98.8514,29.5414 97.5212,30.5158 95.6652,30.5158 C95.0672,30.5158 94.6547,30.4591 94.4279,30.3456 L94.4124,29.5568 C94.7424,29.6496 95.1187,29.696 95.5415,29.696 C96.4179,29.696 97.1449,29.4408 97.7223,28.9304 C98.2997,28.42 98.7998,27.5874 99.2226,26.4326 L100.243,23.664 L93.5772,7.0219 L94.4898,7.0219 L100.692,22.4576 Z" id="Fill-4"></path>
            <path d="M109.106,15.2656 C109.106,12.6982 109.717,10.6308 110.939,9.0635 C112.16,7.4962 113.808,6.7126 115.88,6.7126 C117.716,6.7126 119.144,7.3416 120.164,8.5995 L120.35,7.0219 L124.402,7.0219 L124.402,23.2 C124.402,24.6642 124.07,25.9376 123.405,27.0203 C122.74,28.103 121.804,28.9279 120.597,29.495 C119.391,30.0621 117.978,30.3456 116.36,30.3456 C115.133,30.3456 113.937,30.1007 112.771,29.611 C111.606,29.1212 110.725,28.4896 110.127,27.7163 L112.106,24.9942 C113.22,26.2418 114.571,26.8656 116.159,26.8656 C117.344,26.8656 118.267,26.5486 118.927,25.9144 C119.587,25.2803 119.917,24.3807 119.917,23.2155 L119.917,22.3184 C118.886,23.4836 117.53,24.0662 115.849,24.0662 C113.839,24.0662 112.212,23.2799 110.969,21.7075 C109.727,20.1351 109.106,18.0496 109.106,15.4512 L109.106,15.2656 Z M113.576,15.5904 C113.576,17.1062 113.88,18.2945 114.488,19.1555 C115.097,20.0165 115.932,20.447 116.994,20.447 C118.355,20.447 119.329,19.9366 119.917,18.9158 L119.917,11.8784 C119.319,10.8576 118.355,10.3472 117.025,10.3472 C115.952,10.3472 115.109,10.7855 114.496,11.6619 C113.882,12.5384 113.576,13.8479 113.576,15.5904 Z" id="Fill-5"></path>
            <path d="M127.14,15.2347 C127.14,13.5746 127.46,12.095 128.099,10.7958 C128.738,9.4966 129.658,8.4912 130.86,7.7798 C132.061,7.0683 133.455,6.7126 135.043,6.7126 C137.301,6.7126 139.145,7.4034 140.573,8.7851 C142.001,10.1668 142.797,12.0434 142.962,14.415 L142.993,15.5595 C142.993,18.127 142.277,20.1866 140.843,21.7384 C139.41,23.2903 137.487,24.0662 135.074,24.0662 C132.661,24.0662 130.736,23.2928 129.297,21.7462 C127.859,20.1995 127.14,18.096 127.14,15.4358 L127.14,15.2347 Z M131.61,15.5595 C131.61,17.1474 131.909,18.3616 132.507,19.2019 C133.105,20.0423 133.961,20.4624 135.074,20.4624 C136.157,20.4624 137.002,20.0474 137.611,19.2174 C138.219,18.3873 138.523,17.0598 138.523,15.2347 C138.523,13.6777 138.219,12.4713 137.611,11.6155 C137.002,10.7597 136.147,10.3318 135.043,10.3318 C133.95,10.3318 133.105,10.7571 132.507,11.6078 C131.909,12.4584 131.61,13.7757 131.61,15.5595 Z" id="Fill-6"></path>
            <path d="M159.481,15.544 C159.481,18.1528 158.919,20.2253 157.795,21.7616 C156.671,23.298 155.14,24.0662 153.201,24.0662 C151.943,24.0662 150.819,23.8058 149.829,23.2851 C148.84,22.7644 148.061,22.04 147.494,21.112 L147.494,23.7568 L146.659,23.7568 L146.659,0 L147.494,0 L147.494,10.0688 C148.082,8.9656 148.858,8.1304 149.822,7.5632 C150.786,6.9961 151.902,6.7126 153.17,6.7126 C155.129,6.7126 156.671,7.4627 157.795,8.963 C158.919,10.4632 159.481,12.5693 159.481,15.2811 L159.481,15.544 Z M158.615,15.2192 C158.615,12.8168 158.138,10.9376 157.184,9.5816 C156.23,8.2257 154.897,7.5478 153.186,7.5478 C151.783,7.5478 150.595,7.9087 149.621,8.6304 C148.646,9.3522 147.937,10.4246 147.494,11.8475 L147.494,19.519 C147.937,20.7047 148.646,21.6199 149.621,22.2643 C150.595,22.9087 151.794,23.231 153.217,23.231 C154.939,23.231 156.269,22.5453 157.207,21.1739 C158.145,19.8025 158.615,17.8176 158.615,15.2192 Z" id="Fill-7"></path>
            <path d="M174.839,23.7568 C174.633,23.0454 174.53,22.0246 174.53,20.6944 C173.87,21.7668 172.968,22.5968 171.823,23.1846 C170.679,23.7723 169.384,24.0662 167.941,24.0662 C166.394,24.0662 165.149,23.646 164.206,22.8056 C163.262,21.9653 162.791,20.8697 162.791,19.519 C162.791,17.9826 163.484,16.753 164.871,15.8302 C166.258,14.9073 168.101,14.4356 170.4,14.415 L174.53,14.415 L174.53,11.9712 C174.53,10.5689 174.089,9.4811 173.207,8.7078 C172.326,7.9344 171.065,7.5478 169.426,7.5478 C167.9,7.5478 166.626,7.9396 165.605,8.7232 C164.585,9.5069 164.074,10.4761 164.074,11.631 L163.239,11.6 C163.239,10.239 163.837,9.0841 165.033,8.1355 C166.229,7.1869 167.693,6.7126 169.426,6.7126 C171.23,6.7126 172.663,7.1637 173.725,8.0659 C174.788,8.9681 175.334,10.239 175.365,11.8784 L175.365,19.8747 C175.365,21.7101 175.509,22.9577 175.798,23.6176 L175.798,23.7568 L174.839,23.7568 Z M167.941,23.2464 C169.508,23.2464 170.856,22.8959 171.985,22.1947 C173.115,21.4935 173.963,20.5088 174.53,19.2406 L174.53,15.2656 L170.663,15.2656 C168.271,15.2656 166.441,15.74 165.172,16.6886 C164.141,17.4619 163.626,18.426 163.626,19.5808 C163.626,20.6016 164.033,21.4678 164.848,22.1792 C165.662,22.8907 166.693,23.2464 167.941,23.2464 Z" id="Fill-8"></path>
            <path d="M181.583,10.9195 C182.129,9.6203 182.933,8.5944 183.995,7.8416 C185.057,7.0889 186.233,6.7126 187.522,6.7126 C189.316,6.7126 190.649,7.2204 191.52,8.236 C192.391,9.2517 192.832,10.7855 192.842,12.8374 L192.842,23.7568 L192.007,23.7568 L192.007,12.8064 C191.997,11.0123 191.631,9.6848 190.909,8.8238 C190.187,7.9628 189.043,7.5323 187.475,7.5323 C186.032,7.5323 184.782,8.0453 183.725,9.0712 C182.668,10.0972 181.954,11.4196 181.583,13.0384 L181.583,23.7568 L180.747,23.7568 L180.747,7.0219 L181.583,7.0219 L181.583,10.9195 Z" id="Fill-9"></path>
            <path d="M197.312,15.2192 C197.312,12.5487 197.874,10.4632 198.998,8.963 C200.122,7.4627 201.663,6.7126 203.623,6.7126 C204.88,6.7126 205.991,6.9961 206.956,7.5632 C207.92,8.1304 208.701,8.9759 209.299,10.0998 L209.299,0 L210.134,0 L210.134,23.7568 L209.299,23.7568 L209.299,21.0811 C208.732,22.0297 207.953,22.7644 206.963,23.2851 C205.973,23.8058 204.85,24.0662 203.592,24.0662 C201.653,24.0662 200.122,23.298 198.998,21.7616 C197.874,20.2253 197.312,18.1167 197.312,15.4358 L197.312,15.2192 Z M198.178,15.544 C198.178,17.9156 198.647,19.7896 199.586,21.1662 C200.524,22.5427 201.854,23.231 203.576,23.231 C204.958,23.231 206.138,22.9242 207.118,22.3107 C208.098,21.6972 208.824,20.7975 209.299,19.6118 L209.299,11.7702 C208.34,8.9552 206.443,7.5478 203.607,7.5478 C201.895,7.5478 200.563,8.2232 199.609,9.5739 C198.655,10.9247 198.178,12.9147 198.178,15.544 Z" id="Fill-10"></path>
            <path d="M155.794,37.4153 L155.814,38.3032 C156.016,37.9736 156.268,37.7264 156.571,37.5616 C156.874,37.3968 157.21,37.3144 157.58,37.3144 C158.441,37.3144 158.987,37.6675 159.22,38.3738 C159.415,38.0341 159.675,37.7726 160.001,37.5894 C160.328,37.4061 160.688,37.3144 161.081,37.3144 C162.251,37.3144 162.848,37.9534 162.872,39.2314 L162.872,42.8736 L162.266,42.8736 L162.266,39.2768 C162.263,38.7891 162.158,38.4276 161.951,38.1922 C161.744,37.9568 161.407,37.8391 160.94,37.8391 C160.506,37.8458 160.139,37.9862 159.84,38.2603 C159.541,38.5344 159.374,38.8682 159.341,39.2616 L159.341,42.8736 L158.735,42.8736 L158.735,39.2314 C158.732,38.7639 158.622,38.415 158.405,38.1846 C158.188,37.9542 157.854,37.8391 157.403,37.8391 C157.023,37.8391 156.697,37.9475 156.425,38.1644 C156.152,38.3814 155.951,38.7034 155.819,39.1305 L155.819,42.8736 L155.214,42.8736 L155.214,37.4153 L155.794,37.4153 Z" id="Fill-11"></path>
            <path d="M167.911,42.1825 C167.548,42.7105 166.968,42.9745 166.171,42.9745 C165.589,42.9745 165.147,42.8055 164.844,42.4675 C164.542,42.1295 164.387,41.6293 164.38,40.9667 L164.38,37.4153 L164.981,37.4153 L164.981,40.8911 C164.981,41.9303 165.401,42.4499 166.242,42.4499 C167.116,42.4499 167.669,42.0883 167.901,41.3653 L167.901,37.4153 L168.507,37.4153 L168.507,42.8736 L167.922,42.8736 L167.911,42.1825 Z" id="Fill-12"></path>
            <path d="M172.093,42.465 C172.514,42.465 172.866,42.3464 173.15,42.1093 C173.434,41.8722 173.588,41.5654 173.612,41.1887 L174.192,41.1887 C174.175,41.5216 174.071,41.8252 173.879,42.0993 C173.688,42.3733 173.433,42.5877 173.115,42.7424 C172.797,42.8971 172.457,42.9745 172.093,42.9745 C171.377,42.9745 170.81,42.7256 170.391,42.2279 C169.972,41.7302 169.763,41.0609 169.763,40.2201 L169.763,40.0385 C169.763,39.5004 169.857,39.0246 170.045,38.6109 C170.234,38.1972 170.504,37.8777 170.855,37.6524 C171.206,37.4271 171.618,37.3144 172.088,37.3144 C172.687,37.3144 173.181,37.4927 173.569,37.8492 C173.957,38.2056 174.165,38.6748 174.192,39.2566 L173.612,39.2566 C173.585,38.8295 173.431,38.4848 173.15,38.2225 C172.869,37.9601 172.516,37.829 172.088,37.829 C171.544,37.829 171.121,38.0257 170.82,38.4192 C170.519,38.8127 170.368,39.3642 170.368,40.0738 L170.368,40.2504 C170.368,40.9466 170.519,41.4897 170.82,41.8798 C171.121,42.2699 171.545,42.465 172.093,42.465 Z" id="Fill-13"></path>
            <path d="M175.998,38.3385 C176.196,38.0123 176.45,37.76 176.76,37.5818 C177.069,37.4035 177.407,37.3144 177.774,37.3144 C178.359,37.3144 178.794,37.4792 179.08,37.8088 C179.366,38.1384 179.511,38.6328 179.514,39.2919 L179.514,42.8736 L178.914,42.8736 L178.914,39.2869 C178.91,38.7992 178.807,38.436 178.604,38.1972 C178.4,37.9585 178.075,37.8391 177.627,37.8391 C177.254,37.8391 176.924,37.9559 176.636,38.1897 C176.349,38.4234 176.136,38.7387 175.998,39.1355 L175.998,42.8736 L175.398,42.8736 L175.398,35.125 L175.998,35.125 L175.998,38.3385 Z" id="Fill-14"></path>
            <path d="M185.694,42.9745 C185.23,42.9745 184.81,42.8602 184.435,42.6315 C184.06,42.4028 183.768,42.0841 183.56,41.6755 C183.351,41.2669 183.247,40.8087 183.247,40.3008 L183.247,40.0839 C183.247,39.5593 183.349,39.0868 183.552,38.6664 C183.756,38.246 184.039,37.9156 184.402,37.6751 C184.766,37.4347 185.159,37.3144 185.583,37.3144 C186.245,37.3144 186.771,37.5406 187.159,37.9929 C187.548,38.4453 187.742,39.0632 187.742,39.8468 L187.742,40.1848 L183.847,40.1848 L183.847,40.3008 C183.847,40.9197 184.025,41.435 184.38,41.847 C184.734,42.259 185.181,42.465 185.719,42.465 C186.042,42.465 186.327,42.4061 186.574,42.2884 C186.821,42.1707 187.046,41.9824 187.248,41.7234 L187.626,42.011 C187.182,42.6533 186.538,42.9745 185.694,42.9745 Z M185.583,37.829 C185.129,37.829 184.746,37.9954 184.435,38.3284 C184.124,38.6613 183.935,39.1086 183.868,39.6703 L187.142,39.6703 L187.142,39.6047 C187.125,39.08 186.975,38.6529 186.693,38.3233 C186.41,37.9938 186.04,37.829 185.583,37.829 Z" id="Fill-15"></path>
            <path d="M192.363,42.8736 C192.302,42.7021 192.264,42.4482 192.247,42.1119 C192.035,42.3876 191.765,42.6004 191.437,42.75 C191.109,42.8997 190.762,42.9745 190.395,42.9745 C189.871,42.9745 189.446,42.8282 189.122,42.5356 C188.797,42.243 188.635,41.8731 188.635,41.4258 C188.635,40.8944 188.856,40.474 189.298,40.1646 C189.74,39.8552 190.357,39.7005 191.147,39.7005 L192.242,39.7005 L192.242,39.08 C192.242,38.6899 192.121,38.383 191.881,38.1594 C191.641,37.9358 191.29,37.8239 190.829,37.8239 C190.409,37.8239 190.061,37.9315 189.785,38.1468 C189.509,38.362 189.371,38.621 189.371,38.9237 L188.766,38.9186 C188.766,38.4848 188.968,38.109 189.371,37.7911 C189.775,37.4733 190.271,37.3144 190.859,37.3144 C191.468,37.3144 191.948,37.4666 192.3,37.771 C192.651,38.0753 192.832,38.4999 192.842,39.0447 L192.842,41.6276 C192.842,42.1556 192.898,42.5508 193.008,42.8131 L193.008,42.8736 L192.363,42.8736 Z M190.466,42.4398 C190.87,42.4398 191.23,42.3422 191.548,42.1472 C191.866,41.9521 192.097,41.6915 192.242,41.3653 L192.242,40.1646 L191.162,40.1646 C190.56,40.1714 190.089,40.2815 189.75,40.4951 C189.41,40.7086 189.24,41.002 189.24,41.3754 C189.24,41.6814 189.354,41.9353 189.581,42.1371 C189.808,42.3389 190.103,42.4398 190.466,42.4398 Z" id="Fill-16"></path>
            <path d="M197.72,41.4863 C197.72,41.187 197.6,40.9466 197.359,40.765 C197.119,40.5833 196.757,40.4413 196.272,40.3387 C195.788,40.2361 195.412,40.1184 195.145,39.9856 C194.878,39.8527 194.679,39.6904 194.55,39.4987 C194.42,39.3071 194.355,39.075 194.355,38.8026 C194.355,38.3721 194.535,38.0165 194.895,37.7356 C195.255,37.4548 195.716,37.3144 196.277,37.3144 C196.886,37.3144 197.375,37.4649 197.743,37.7659 C198.111,38.0669 198.295,38.4596 198.295,38.9438 L197.69,38.9438 C197.69,38.6243 197.556,38.3587 197.289,38.1468 C197.021,37.9349 196.684,37.829 196.277,37.829 C195.881,37.829 195.562,37.9173 195.321,38.0938 C195.081,38.2704 194.961,38.4999 194.961,38.7824 C194.961,39.0548 195.061,39.2659 195.261,39.4155 C195.461,39.5652 195.826,39.7022 196.356,39.8266 C196.885,39.9511 197.282,40.0839 197.546,40.2252 C197.81,40.3664 198.006,40.5363 198.134,40.7347 C198.262,40.9331 198.326,41.1736 198.326,41.4561 C198.326,41.9168 198.14,42.2851 197.768,42.5608 C197.396,42.8366 196.911,42.9745 196.313,42.9745 C195.677,42.9745 195.162,42.8206 194.767,42.5129 C194.371,42.2052 194.174,41.8159 194.174,41.3451 L194.779,41.3451 C194.803,41.6982 194.952,41.9731 195.226,42.1699 C195.5,42.3666 195.862,42.465 196.313,42.465 C196.733,42.465 197.073,42.3725 197.332,42.1875 C197.591,42.0026 197.72,41.7688 197.72,41.4863 Z" id="Fill-17"></path>
            <path d="M200.359,42.8736 L199.753,42.8736 L199.753,37.4153 L200.359,37.4153 L200.359,42.8736 Z M199.647,35.8363 C199.647,35.722 199.684,35.6253 199.758,35.5463 C199.832,35.4672 199.933,35.4277 200.061,35.4277 C200.189,35.4277 200.29,35.4672 200.366,35.5463 C200.442,35.6253 200.48,35.722 200.48,35.8363 C200.48,35.9507 200.442,36.0465 200.366,36.1239 C200.29,36.2012 200.189,36.2399 200.061,36.2399 C199.933,36.2399 199.832,36.2012 199.758,36.1239 C199.684,36.0465 199.647,35.9507 199.647,35.8363 Z" id="Fill-18"></path>
            <path d="M204.112,42.9745 C203.648,42.9745 203.228,42.8602 202.853,42.6315 C202.478,42.4028 202.186,42.0841 201.978,41.6755 C201.769,41.2669 201.665,40.8087 201.665,40.3008 L201.665,40.0839 C201.665,39.5593 201.767,39.0868 201.97,38.6664 C202.174,38.246 202.457,37.9156 202.82,37.6751 C203.184,37.4347 203.577,37.3144 204.001,37.3144 C204.663,37.3144 205.189,37.5406 205.577,37.9929 C205.966,38.4453 206.16,39.0632 206.16,39.8468 L206.16,40.1848 L202.265,40.1848 L202.265,40.3008 C202.265,40.9197 202.443,41.435 202.798,41.847 C203.152,42.259 203.599,42.465 204.137,42.465 C204.46,42.465 204.745,42.4061 204.992,42.2884 C205.239,42.1707 205.464,41.9824 205.665,41.7234 L206.044,42.011 C205.6,42.6533 204.956,42.9745 204.112,42.9745 Z M204.001,37.829 C203.547,37.829 203.164,37.9954 202.853,38.3284 C202.542,38.6613 202.353,39.1086 202.286,39.6703 L205.56,39.6703 L205.56,39.6047 C205.543,39.08 205.393,38.6529 205.111,38.3233 C204.828,37.9938 204.458,37.829 204.001,37.829 Z" id="Fill-19"></path>
            <path d="M209.858,37.9299 C209.73,37.9063 209.594,37.8946 209.449,37.8946 C209.072,37.8946 208.754,37.9997 208.493,38.2098 C208.232,38.42 208.047,38.7252 207.936,39.1254 L207.936,42.8736 L207.335,42.8736 L207.335,37.4153 L207.925,37.4153 L207.936,38.283 C208.255,37.6373 208.768,37.3144 209.474,37.3144 C209.642,37.3144 209.775,37.3363 209.873,37.38 L209.858,37.9299 Z" id="Fill-20"></path>
            <path d="M38.8219,27.0112 C38.7706,26.8046 36.1543,17.9918 35.5954,16.1099 C35.5644,16.006 35.5347,15.902 35.5023,15.8008 C35.4955,15.7724 35.4888,15.7522 35.4888,15.7522 L35.4888,15.7589 C34.3993,12.311 32.2231,9.3451 29.3598,7.2661 L29.3611,7.2661 C28.5525,6.4723 30.3736,5.4463 31.3902,5.2532 C32.1165,5.1169 32.1961,4.4243 31.3686,4.3676 C31.1296,4.3514 19.6344,4.076 19.6344,4.076 C15.8719,4.0571 12.3943,5.2829 9.5904,7.3646 C8.6616,7.7035 8.2822,5.7635 8.4105,4.7726 C8.5036,4.0382 7.8732,3.7507 7.56,4.5175 C7.4884,4.7011 4.8559,12.1895 3.9582,14.7545 C3.24,16.6027 2.839,18.6088 2.8269,20.7067 C2.8174,22.5413 3.109,24.3058 3.6463,25.9609 L3.6288,25.9379 C3.8151,27.0544 1.7388,26.8046 0.8059,26.3605 C0.1377,26.0419 -0.3348,26.5508 0.2983,27.0868 C0.4644,27.2272 8.0986,33.0835 9.4284,34.1041 C9.4527,34.1216 9.4756,34.1392 9.4986,34.1581 C9.5809,34.2202 9.6282,34.258 9.6282,34.258 L9.6201,34.2445 C12.3727,36.2789 15.7734,37.4926 19.4589,37.5128 C19.4805,37.5128 19.5007,37.5115 19.5237,37.5115 C20.6118,37.7045 19.7289,39.5783 19.0188,40.3208 C18.5058,40.8541 18.8406,41.4643 19.5507,41.0296 C19.7208,40.9256 26.599,36.2168 28.6794,34.7953 C28.8562,34.6819 29.0277,34.5617 29.1991,34.4402 C29.2423,34.4105 29.272,34.3916 29.272,34.3916 L29.268,34.3916 C32.1381,32.3369 34.3305,29.398 35.4456,25.9676 L35.4456,25.9973 C35.9478,24.9848 37.4881,26.3996 37.9849,27.3055 C38.3427,27.9535 39.0231,27.8171 38.8219,27.0112 Z" id="Fill-21"></path>
        </g>
    </g>
</svg>
