<?xml version="1.0" encoding="UTF-8"?>
<svg width="210px" height="44px" viewBox="0 0 210 44" version="1.1" xmlns="http://www.w3.org/2000/svg" xmlns:xlink="http://www.w3.org/1999/xlink">
    <!-- Generator: Sketch 60.1 (88133) - https://sketch.com -->
    <title>Group 22</title>
    <desc>Created with Sketch.</desc>
    <g id="Symbols" stroke="none" stroke-width="1" fill="none" fill-rule="evenodd">
        <g id="Group-22" fill="#000000">
            <path d="M52.8325,23.8879 C51.4918,23.8879 50.261,23.5271 49.1403,22.8056 C48.0196,22.084 47.142,21.0938 46.5075,19.8349 C45.8729,18.5761 45.5556,17.179 45.5556,15.6438 L45.5556,14.953 C45.5556,13.4178 45.8627,12.0105 46.4768,10.7312 C47.0908,9.4518 47.9352,8.4539 49.0099,7.7375 C50.0845,7.0211 51.2564,6.6628 52.5255,6.6628 C54.378,6.6628 55.8927,7.323 57.0697,8.6433 C58.2467,9.9635 58.8352,11.6983 58.8352,13.8476 L58.8352,14.7227 L46.3846,14.7227 L46.3846,15.6285 C46.3846,16.9795 46.6687,18.2306 47.2367,19.3821 C47.8047,20.5335 48.5877,21.4367 49.5856,22.0917 C50.5834,22.7467 51.6658,23.0742 52.8325,23.0742 C53.9481,23.0742 54.8974,22.8875 55.6803,22.5139 C56.4633,22.1403 57.1567,21.5646 57.7605,20.7868 L58.3439,21.2013 C57.1055,22.9924 55.2684,23.8879 52.8325,23.8879 Z M52.5255,7.4919 C50.9084,7.4919 49.5369,8.0931 48.4111,9.2957 C47.2853,10.4983 46.6252,12.031 46.4307,13.8937 L58.0062,13.8937 L58.0062,13.6941 C58.0062,12.5683 57.7682,11.5218 57.2923,10.5546 C56.8164,9.5874 56.1614,8.8352 55.3272,8.2978 C54.4931,7.7605 53.5592,7.4919 52.5255,7.4919 Z" id="Fill-1"></path>
            <path d="M73.435,23.5809 C73.2303,22.8747 73.128,21.8614 73.128,20.5411 C72.473,21.6056 71.5774,22.4294 70.4414,23.0128 C69.3053,23.5962 68.0209,23.8879 66.588,23.8879 C65.0528,23.8879 63.8169,23.4708 62.8805,22.6367 C61.944,21.8026 61.4758,20.7151 61.4758,19.3744 C61.4758,17.8494 62.164,16.6289 63.5406,15.7129 C64.9172,14.7969 66.7466,14.3287 69.029,14.3082 L73.128,14.3082 L73.128,11.8826 C73.128,10.4906 72.6905,9.4109 71.8154,8.6433 C70.9403,7.8757 69.6891,7.4919 68.0618,7.4919 C66.5471,7.4919 65.2831,7.8808 64.2698,8.6586 C63.2566,9.4365 62.75,10.3985 62.75,11.5448 L61.921,11.5141 C61.921,10.1631 62.5146,9.0168 63.7018,8.0752 C64.889,7.1336 66.3424,6.6628 68.0618,6.6628 C69.8529,6.6628 71.2755,7.1106 72.3297,8.0062 C73.3839,8.9017 73.9263,10.1631 73.957,11.7904 L73.957,19.7275 C73.957,21.5493 74.1003,22.7877 74.3869,23.4427 L74.3869,23.5809 L73.435,23.5809 Z M66.588,23.0742 C68.1437,23.0742 69.4819,22.7263 70.6026,22.0303 C71.7233,21.3343 72.5651,20.3569 73.128,19.098 L73.128,15.1526 L69.29,15.1526 C66.9155,15.1526 65.0988,15.6234 63.84,16.5649 C62.8165,17.3326 62.3048,18.2895 62.3048,19.4358 C62.3048,20.449 62.709,21.3087 63.5176,22.0149 C64.3261,22.7211 65.3496,23.0742 66.588,23.0742 Z" id="Fill-2"></path>
            <path d="M89.5394,19.5125 C89.5394,17.4963 87.8199,16.1249 84.3811,15.3982 C82.3137,14.9581 80.8757,14.3926 80.0671,13.7018 C79.2586,13.0109 78.8543,12.0617 78.8543,10.854 C78.8543,9.636 79.3686,8.633 80.3972,7.845 C81.4258,7.0569 82.764,6.6628 84.4118,6.6628 C86.2029,6.6628 87.6408,7.0901 88.7257,7.9447 C89.8106,8.7993 90.353,9.9533 90.353,11.4066 L89.5087,11.4066 C89.5087,10.2911 89.0379,9.3597 88.0963,8.6126 C87.1547,7.8654 85.9265,7.4919 84.4118,7.4919 C82.9585,7.4919 81.807,7.8091 80.9576,8.4437 C80.1081,9.0782 79.6833,9.8714 79.6833,10.8233 C79.6833,11.5704 79.842,12.1563 80.1593,12.5811 C80.4765,13.0058 80.9934,13.3896 81.7098,13.7325 C82.4262,14.0753 83.4702,14.4054 84.8416,14.7227 C86.2131,15.04 87.298,15.4135 88.0963,15.8434 C88.8946,16.2733 89.4729,16.7824 89.8311,17.3709 C90.1893,17.9594 90.3684,18.6784 90.3684,19.5279 C90.3684,20.8379 89.8311,21.8921 88.7564,22.6904 C87.6818,23.4887 86.2745,23.8879 84.5346,23.8879 C82.6719,23.8879 81.1699,23.4657 80.0288,22.6213 C78.8876,21.777 78.317,20.6895 78.317,19.359 L79.146,19.359 C79.2279,20.5258 79.7422,21.4341 80.6889,22.084 C81.6356,22.7339 82.9175,23.0589 84.5346,23.0589 C86.0186,23.0589 87.2238,22.7135 88.15,22.0226 C89.0763,21.3318 89.5394,20.4951 89.5394,19.5125 Z" id="Fill-3"></path>
            <path d="M100.025,22.2913 L100.132,21.9842 L105.874,6.9699 L106.795,6.9699 L99.3647,26.467 L98.9963,27.3882 C98.198,29.3225 96.8777,30.2897 95.0354,30.2897 C94.4418,30.2897 94.0324,30.2334 93.8073,30.1208 L93.7919,29.3379 C94.1194,29.43 94.493,29.4761 94.9126,29.4761 C95.7826,29.4761 96.5041,29.2227 97.0773,28.7161 C97.6504,28.2095 98.1468,27.3831 98.5664,26.2368 L99.5797,23.4887 L92.9629,6.9699 L93.8687,6.9699 L100.025,22.2913 Z" id="Fill-4"></path>
            <path d="M108.276,15.1526 C108.276,12.6041 108.883,10.552 110.096,8.9964 C111.308,7.4407 112.943,6.6628 115.001,6.6628 C116.822,6.6628 118.24,7.2872 119.253,8.5358 L119.437,6.9699 L123.46,6.9699 L123.46,23.0282 C123.46,24.4815 123.13,25.7455 122.469,26.8201 C121.809,27.8948 120.88,28.7136 119.683,29.2765 C118.486,29.8394 117.083,30.1208 115.477,30.1208 C114.259,30.1208 113.071,29.8778 111.915,29.3916 C110.758,28.9055 109.883,28.2786 109.29,27.511 L111.255,24.809 C112.36,26.0474 113.701,26.6666 115.277,26.6666 C116.454,26.6666 117.37,26.3519 118.025,25.7225 C118.68,25.093 119.008,24.2001 119.008,23.0435 L119.008,22.1531 C117.984,23.3096 116.638,23.8879 114.97,23.8879 C112.974,23.8879 111.36,23.1075 110.126,21.5467 C108.893,19.9859 108.276,17.9159 108.276,15.3368 L108.276,15.1526 Z M112.713,15.4749 C112.713,16.9795 113.015,18.159 113.619,19.0136 C114.223,19.8682 115.052,20.2955 116.106,20.2955 C117.457,20.2955 118.424,19.7889 119.008,18.7756 L119.008,11.7904 C118.414,10.7772 117.457,10.2706 116.137,10.2706 C115.072,10.2706 114.236,10.7056 113.627,11.5755 C113.018,12.4455 112.713,13.7453 112.713,15.4749 Z" id="Fill-5"></path>
            <path d="M126.177,15.1219 C126.177,13.4741 126.494,12.0054 127.129,10.7158 C127.763,9.4262 128.677,8.4283 129.869,7.7221 C131.061,7.0159 132.446,6.6628 134.022,6.6628 C136.263,6.6628 138.093,7.3486 139.51,8.72 C140.928,10.0915 141.718,11.9542 141.882,14.3082 L141.913,15.4442 C141.913,17.9927 141.202,20.0371 139.779,21.5774 C138.356,23.1177 136.447,23.8879 134.053,23.8879 C131.658,23.8879 129.746,23.1203 128.319,21.5851 C126.891,20.0499 126.177,17.962 126.177,15.3214 L126.177,15.1219 Z M130.614,15.4442 C130.614,17.0204 130.911,18.2255 131.504,19.0597 C132.098,19.8938 132.947,20.3109 134.053,20.3109 C135.127,20.3109 135.966,19.8989 136.57,19.075 C137.174,18.2511 137.476,16.9334 137.476,15.1219 C137.476,13.5764 137.174,12.3789 136.57,11.5295 C135.966,10.68 135.117,10.2552 134.022,10.2552 C132.937,10.2552 132.098,10.6774 131.504,11.5218 C130.911,12.3661 130.614,13.6736 130.614,15.4442 Z" id="Fill-6"></path>
            <path d="M158.278,15.4289 C158.278,18.0183 157.72,20.0755 156.605,21.6004 C155.489,23.1254 153.969,23.8879 152.045,23.8879 C150.797,23.8879 149.681,23.6295 148.698,23.1126 C147.716,22.5958 146.943,21.8768 146.38,20.9556 L146.38,23.5809 L145.551,23.5809 L145.551,-7.10542736e-15 L146.38,-7.10542736e-15 L146.38,9.9943 C146.964,8.8991 147.734,8.0701 148.691,7.5072 C149.648,6.9443 150.756,6.6628 152.015,6.6628 C153.959,6.6628 155.489,7.4074 156.605,8.8966 C157.72,10.3857 158.278,12.4762 158.278,15.1679 L158.278,15.4289 Z M157.418,15.1065 C157.418,12.7218 156.945,10.8565 155.998,9.5107 C155.052,8.1648 153.729,7.4919 152.03,7.4919 C150.638,7.4919 149.458,7.8501 148.491,8.5665 C147.524,9.2829 146.82,10.3473 146.38,11.7597 L146.38,19.3744 C146.82,20.5514 147.524,21.4597 148.491,22.0994 C149.458,22.739 150.648,23.0589 152.061,23.0589 C153.77,23.0589 155.09,22.3783 156.021,21.0171 C156.953,19.6558 157.418,17.6857 157.418,15.1065 Z" id="Fill-7"></path>
            <path d="M173.523,23.5809 C173.318,22.8747 173.216,21.8614 173.216,20.5411 C172.561,21.6056 171.665,22.4294 170.529,23.0128 C169.393,23.5962 168.109,23.8879 166.676,23.8879 C165.141,23.8879 163.905,23.4708 162.968,22.6367 C162.032,21.8026 161.564,20.7151 161.564,19.3744 C161.564,17.8494 162.252,16.6289 163.628,15.7129 C165.005,14.7969 166.834,14.3287 169.117,14.3082 L173.216,14.3082 L173.216,11.8826 C173.216,10.4906 172.778,9.4109 171.903,8.6433 C171.028,7.8757 169.777,7.4919 168.15,7.4919 C166.635,7.4919 165.371,7.8808 164.358,8.6586 C163.344,9.4365 162.838,10.3985 162.838,11.5448 L162.009,11.5141 C162.009,10.1631 162.602,9.0168 163.79,8.0752 C164.977,7.1336 166.43,6.6628 168.15,6.6628 C169.941,6.6628 171.363,7.1106 172.417,8.0062 C173.472,8.9017 174.014,10.1631 174.045,11.7904 L174.045,19.7275 C174.045,21.5493 174.188,22.7877 174.475,23.4427 L174.475,23.5809 L173.523,23.5809 Z M166.676,23.0742 C168.231,23.0742 169.57,22.7263 170.69,22.0303 C171.811,21.3343 172.653,20.3569 173.216,19.098 L173.216,15.1526 L169.378,15.1526 C167.003,15.1526 165.187,15.6234 163.928,16.5649 C162.904,17.3326 162.393,18.2895 162.393,19.4358 C162.393,20.449 162.797,21.3087 163.605,22.0149 C164.414,22.7211 165.437,23.0742 166.676,23.0742 Z" id="Fill-8"></path>
            <path d="M180.216,10.8386 C180.759,9.549 181.557,8.5307 182.611,7.7835 C183.665,7.0364 184.832,6.6628 186.112,6.6628 C187.892,6.6628 189.215,7.1669 190.08,8.175 C190.945,9.1831 191.382,10.7056 191.393,12.7423 L191.393,23.5809 L190.564,23.5809 L190.564,12.7116 C190.553,10.9307 190.19,9.613 189.474,8.7584 C188.757,7.9038 187.621,7.4765 186.065,7.4765 C184.633,7.4765 183.392,7.9857 182.343,9.004 C181.294,10.0224 180.585,11.335 180.216,12.9419 L180.216,23.5809 L179.387,23.5809 L179.387,6.9699 L180.216,6.9699 L180.216,10.8386 Z" id="Fill-9"></path>
            <path d="M195.829,15.1065 C195.829,12.4557 196.387,10.3857 197.503,8.8966 C198.618,7.4074 200.148,6.6628 202.093,6.6628 C203.342,6.6628 204.444,6.9443 205.401,7.5072 C206.358,8.0701 207.134,8.9094 207.727,10.025 L207.727,-7.10542736e-15 L208.556,-7.10542736e-15 L208.556,23.5809 L207.727,23.5809 L207.727,20.9249 C207.164,21.8665 206.392,22.5958 205.409,23.1126 C204.427,23.6295 203.311,23.8879 202.062,23.8879 C200.138,23.8879 198.618,23.1254 197.503,21.6004 C196.387,20.0755 195.829,17.9825 195.829,15.3214 L195.829,15.1065 Z M196.689,15.4289 C196.689,17.7829 197.155,19.643 198.086,21.0094 C199.018,22.3757 200.338,23.0589 202.047,23.0589 C203.418,23.0589 204.59,22.7544 205.563,22.1454 C206.535,21.5365 207.256,20.6435 207.727,19.4665 L207.727,11.683 C206.775,8.8889 204.892,7.4919 202.078,7.4919 C200.379,7.4919 199.056,8.1622 198.109,9.503 C197.162,10.8437 196.689,12.819 196.689,15.4289 Z" id="Fill-10"></path>
            <path d="M155.427,38.023 L155.447,38.9043 C155.647,38.5771 155.898,38.3318 156.198,38.1682 C156.498,38.0046 156.832,37.9228 157.2,37.9228 C158.054,37.9228 158.597,38.2734 158.827,38.9744 C159.02,38.6372 159.279,38.3777 159.603,38.1957 C159.927,38.0138 160.284,37.9228 160.675,37.9228 C161.836,37.9228 162.429,38.5571 162.452,39.8256 L162.452,43.4409 L161.851,43.4409 L161.851,39.8707 C161.848,39.3866 161.744,39.0278 161.538,38.7941 C161.333,38.5604 160.998,38.4436 160.534,38.4436 C160.104,38.4503 159.74,38.5896 159.443,38.8617 C159.146,39.1338 158.98,39.4651 158.947,39.8556 L158.947,43.4409 L158.346,43.4409 L158.346,39.8256 C158.343,39.3616 158.234,39.0153 158.018,38.7866 C157.803,38.5579 157.472,38.4436 157.024,38.4436 C156.647,38.4436 156.323,38.5513 156.053,38.7666 C155.782,38.9819 155.582,39.3015 155.452,39.7255 L155.452,43.4409 L154.851,43.4409 L154.851,38.023 L155.427,38.023 Z" id="Fill-11"></path>
            <path d="M167.454,42.7549 C167.094,43.279 166.518,43.541 165.727,43.541 C165.149,43.541 164.71,43.3733 164.41,43.0378 C164.11,42.7023 163.956,42.2057 163.949,41.5481 L163.949,38.023 L164.545,38.023 L164.545,41.473 C164.545,42.5045 164.962,43.0202 165.797,43.0202 C166.665,43.0202 167.214,42.6614 167.444,41.9437 L167.444,38.023 L168.045,38.023 L168.045,43.4409 L167.464,43.4409 L167.454,42.7549 Z" id="Fill-12"></path>
            <path d="M171.605,43.0353 C172.023,43.0353 172.372,42.9176 172.654,42.6823 C172.937,42.4469 173.089,42.1423 173.113,41.7684 L173.688,41.7684 C173.672,42.0989 173.568,42.4002 173.378,42.6722 C173.188,42.9443 172.935,43.1571 172.619,43.3107 C172.304,43.4642 171.966,43.541 171.605,43.541 C170.894,43.541 170.331,43.294 169.915,42.7999 C169.5,42.3059 169.292,41.6416 169.292,40.807 L169.292,40.6268 C169.292,40.0927 169.386,39.6203 169.572,39.2097 C169.759,38.7991 170.027,38.482 170.376,38.2583 C170.725,38.0347 171.133,37.9228 171.6,37.9228 C172.195,37.9228 172.684,38.0998 173.07,38.4536 C173.456,38.8075 173.662,39.2731 173.688,39.8506 L173.113,39.8506 C173.086,39.4267 172.933,39.0845 172.654,38.8242 C172.376,38.5638 172.024,38.4336 171.6,38.4336 C171.06,38.4336 170.64,38.6289 170.341,39.0194 C170.042,39.41 169.893,39.9575 169.893,40.6618 L169.893,40.8371 C169.893,41.5281 170.042,42.0672 170.341,42.4544 C170.64,42.8417 171.061,43.0353 171.605,43.0353 Z" id="Fill-13"></path>
            <path d="M175.481,38.9393 C175.678,38.6155 175.93,38.3652 176.237,38.1882 C176.544,38.0113 176.88,37.9228 177.244,37.9228 C177.824,37.9228 178.257,38.0864 178.54,38.4136 C178.824,38.7407 178.968,39.2314 178.971,39.8857 L178.971,43.4409 L178.375,43.4409 L178.375,39.8807 C178.372,39.3966 178.269,39.0361 178.067,38.7991 C177.865,38.5621 177.542,38.4436 177.098,38.4436 C176.728,38.4436 176.4,38.5596 176.114,38.7916 C175.829,39.0236 175.618,39.3366 175.481,39.7305 L175.481,43.4409 L174.885,43.4409 L174.885,35.7497 L175.481,35.7497 L175.481,38.9393 Z" id="Fill-14"></path>
            <path d="M185.105,43.541 C184.644,43.541 184.228,43.4275 183.856,43.2005 C183.483,42.9735 183.194,42.6572 182.987,42.2516 C182.78,41.846 182.676,41.3912 182.676,40.8871 L182.676,40.6718 C182.676,40.1511 182.777,39.6821 182.979,39.2648 C183.181,38.8475 183.463,38.5195 183.823,38.2809 C184.184,38.0422 184.574,37.9228 184.995,37.9228 C185.652,37.9228 186.174,38.1473 186.56,38.5963 C186.945,39.0453 187.138,39.6587 187.138,40.4365 L187.138,40.772 L183.272,40.772 L183.272,40.8871 C183.272,41.5014 183.448,42.0129 183.801,42.4219 C184.153,42.8308 184.596,43.0353 185.13,43.0353 C185.451,43.0353 185.733,42.9768 185.979,42.86 C186.224,42.7432 186.447,42.5562 186.647,42.2992 L187.023,42.5846 C186.582,43.2222 185.943,43.541 185.105,43.541 Z M184.995,38.4336 C184.544,38.4336 184.164,38.5988 183.856,38.9293 C183.547,39.2598 183.359,39.7038 183.292,40.2612 L186.542,40.2612 L186.542,40.1961 C186.525,39.6754 186.377,39.2514 186.096,38.9243 C185.816,38.5972 185.449,38.4336 184.995,38.4336 Z" id="Fill-15"></path>
            <path d="M191.725,43.4409 C191.665,43.2706 191.626,43.0186 191.609,42.6848 C191.399,42.9585 191.131,43.1696 190.806,43.3182 C190.48,43.4667 190.136,43.541 189.772,43.541 C189.251,43.541 188.83,43.3958 188.507,43.1054 C188.185,42.8149 188.024,42.4477 188.024,42.0038 C188.024,41.4763 188.244,41.0591 188.683,40.752 C189.122,40.4448 189.733,40.2913 190.518,40.2913 L191.604,40.2913 L191.604,39.6754 C191.604,39.2882 191.485,38.9835 191.246,38.7616 C191.008,38.5396 190.66,38.4286 190.202,38.4286 C189.785,38.4286 189.44,38.5354 189.166,38.749 C188.892,38.9627 188.755,39.2197 188.755,39.5202 L188.154,39.5152 C188.154,39.0845 188.355,38.7115 188.755,38.396 C189.156,38.0806 189.648,37.9228 190.232,37.9228 C190.837,37.9228 191.313,38.0739 191.662,38.376 C192.011,38.6781 192.19,39.0996 192.2,39.6403 L192.2,42.2041 C192.2,42.7282 192.255,43.1204 192.366,43.3808 L192.366,43.4409 L191.725,43.4409 Z M189.842,43.0102 C190.242,43.0102 190.6,42.9134 190.916,42.7198 C191.231,42.5262 191.461,42.2675 191.604,41.9437 L191.604,40.752 L190.533,40.752 C189.935,40.7586 189.468,40.868 189.131,41.0799 C188.794,41.2919 188.625,41.5832 188.625,41.9537 C188.625,42.2575 188.738,42.5095 188.963,42.7098 C189.188,42.9101 189.481,43.0102 189.842,43.0102 Z" id="Fill-16"></path>
            <path d="M197.042,42.0639 C197.042,41.7668 196.923,41.5281 196.684,41.3478 C196.446,41.1676 196.086,41.0265 195.605,40.9247 C195.125,40.8229 194.752,40.7061 194.486,40.5742 C194.221,40.4423 194.024,40.2813 193.895,40.091 C193.767,39.9007 193.703,39.6704 193.703,39.4 C193.703,38.9727 193.881,38.6197 194.238,38.3409 C194.595,38.0622 195.053,37.9228 195.61,37.9228 C196.214,37.9228 196.699,38.0722 197.065,38.371 C197.43,38.6698 197.613,39.0595 197.613,39.5402 L197.012,39.5402 C197.012,39.2231 196.88,38.9593 196.614,38.749 C196.349,38.5387 196.014,38.4336 195.61,38.4336 C195.216,38.4336 194.9,38.5212 194.661,38.6965 C194.423,38.8717 194.303,39.0996 194.303,39.38 C194.303,39.6504 194.403,39.8598 194.601,40.0084 C194.8,40.1569 195.162,40.293 195.688,40.4165 C196.214,40.54 196.608,40.6718 196.87,40.812 C197.132,40.9522 197.326,41.1208 197.453,41.3178 C197.58,41.5147 197.643,41.7534 197.643,42.0338 C197.643,42.4911 197.459,42.8567 197.09,43.1304 C196.721,43.4041 196.24,43.541 195.645,43.541 C195.014,43.541 194.503,43.3883 194.111,43.0828 C193.718,42.7774 193.522,42.391 193.522,41.9237 L194.123,41.9237 C194.146,42.2742 194.294,42.5471 194.566,42.7423 C194.838,42.9376 195.198,43.0353 195.645,43.0353 C196.063,43.0353 196.4,42.9435 196.657,42.7599 C196.914,42.5763 197.042,42.3443 197.042,42.0639 Z" id="Fill-17"></path>
            <path d="M199.661,43.4409 L199.06,43.4409 L199.06,38.023 L199.661,38.023 L199.661,43.4409 Z M198.955,36.4557 C198.955,36.3422 198.992,36.2462 199.065,36.1678 C199.139,36.0893 199.239,36.0501 199.366,36.0501 C199.493,36.0501 199.594,36.0893 199.669,36.1678 C199.744,36.2462 199.781,36.3422 199.781,36.4557 C199.781,36.5692 199.744,36.6643 199.669,36.7411 C199.594,36.8179 199.493,36.8563 199.366,36.8563 C199.239,36.8563 199.139,36.8179 199.065,36.7411 C198.992,36.6643 198.955,36.5692 198.955,36.4557 Z" id="Fill-18"></path>
            <path d="M203.387,43.541 C202.926,43.541 202.509,43.4275 202.137,43.2005 C201.765,42.9735 201.475,42.6572 201.268,42.2516 C201.062,41.846 200.958,41.3912 200.958,40.8871 L200.958,40.6718 C200.958,40.1511 201.059,39.6821 201.261,39.2648 C201.463,38.8475 201.744,38.5195 202.105,38.2809 C202.465,38.0422 202.856,37.9228 203.276,37.9228 C203.934,37.9228 204.456,38.1473 204.841,38.5963 C205.227,39.0453 205.42,39.6587 205.42,40.4365 L205.42,40.772 L201.554,40.772 L201.554,40.8871 C201.554,41.5014 201.73,42.0129 202.082,42.4219 C202.434,42.8308 202.877,43.0353 203.412,43.0353 C203.732,43.0353 204.015,42.9768 204.26,42.86 C204.506,42.7432 204.729,42.5562 204.929,42.2992 L205.304,42.5846 C204.864,43.2222 204.224,43.541 203.387,43.541 Z M203.276,38.4336 C202.826,38.4336 202.446,38.5988 202.137,38.9293 C201.828,39.2598 201.641,39.7038 201.574,40.2612 L204.824,40.2612 L204.824,40.1961 C204.807,39.6754 204.658,39.2514 204.378,38.9243 C204.098,38.5972 203.73,38.4336 203.276,38.4336 Z" id="Fill-19"></path>
            <path d="M209.09,38.5337 C208.963,38.5104 208.828,38.4987 208.684,38.4987 C208.31,38.4987 207.994,38.603 207.735,38.8116 C207.477,39.0203 207.292,39.3232 207.182,39.7205 L207.182,43.4409 L206.586,43.4409 L206.586,38.023 L207.172,38.023 L207.182,38.8842 C207.499,38.2433 208.008,37.9228 208.709,37.9228 C208.876,37.9228 209.008,37.9445 209.105,37.9879 L209.09,38.5337 Z" id="Fill-20"></path>
            <path d="M38.8235,27.6708 C38.7722,27.4694 36.1558,18.8783 35.5969,17.0437 C35.5659,16.9424 35.5362,16.841 35.5038,16.7423 C35.497,16.7147 35.4903,16.6949 35.4903,16.6949 L35.4903,16.7015 C34.4008,13.3403 32.2245,10.449 29.361,8.4223 L29.3623,8.4223 C28.5537,7.6484 30.3749,6.6482 31.3915,6.46 C32.1178,6.3271 32.1975,5.652 31.3699,5.5967 C31.1309,5.5809 19.6352,5.3124 19.6352,5.3124 C15.8726,5.294 12.3948,6.489 9.5908,8.5183 C8.6619,8.8487 8.2826,6.9575 8.4108,5.9915 C8.504,5.2756 7.8735,4.9953 7.5603,5.7428 C7.4887,5.9218 4.8561,13.2219 3.9583,15.7224 C3.2401,17.5241 2.8391,19.4797 2.827,21.5248 C2.8175,23.3134 3.1091,25.0334 3.6465,26.6469 L3.6289,26.6245 C3.8152,27.7129 1.7388,27.4694 0.8059,27.0365 C0.1377,26.7259 -0.3349,27.222 0.2983,27.7445 C0.4644,27.8814 8.0989,33.5904 9.4288,34.5853 C9.4531,34.6024 9.476,34.6195 9.499,34.638 C9.5813,34.6985 9.6286,34.7353 9.6286,34.7353 L9.6205,34.7222 C12.3732,36.7055 15.774,37.8886 19.4597,37.9083 C19.4813,37.9083 19.5015,37.907 19.5245,37.907 C20.6126,38.0952 19.7297,39.9219 19.0182,40.6457 C18.5065,41.1656 18.8414,41.7604 19.5515,41.3366 C19.7216,41.2353 26.6001,36.6449 28.6806,35.2591 C28.8574,35.1486 29.0289,35.0314 29.2003,34.913 C29.2435,34.8841 29.2732,34.8656 29.2732,34.8656 L29.2692,34.8656 C32.1394,32.8626 34.3319,29.9976 35.4471,26.6535 L35.4471,26.6824 C35.9493,25.6954 37.4897,27.0746 37.9865,27.9577 C38.3443,28.5894 39.0247,28.4565 38.8235,27.6708 Z" id="Fill-21"></path>
        </g>
    </g>
</svg>
