<?xml version="1.0" encoding="UTF-8"?>
<svg width="73px" height="85px" viewBox="0 0 73 85" version="1.1" xmlns="http://www.w3.org/2000/svg" xmlns:xlink="http://www.w3.org/1999/xlink">
    <!-- Generator: Sketch 52.5 (67469) - http://www.bohemiancoding.com/sketch -->
    <title>Group</title>
    <desc>Created with Sketch.</desc>
    <g id="CAMBIOS-MAYO-2020" stroke="none" stroke-width="1" fill="none" fill-rule="evenodd">
        <g id="LANDING-GOSAFE-A" transform="translate(-550.000000, -803.000000)">
            <g id="Group-7" transform="translate(502.000000, 756.000000)">
                <g id="Group-46" transform="translate(1.000000, 0.000000)">
                    <g id="Group" transform="translate(47.000000, 47.000000)">
                        <path d="M73,24.0109874 L72.5592287,24.0109874 L72.5592287,11.9693659 C72.5592311,8.12029427 69.4303485,5.00000304 65.5706734,5 L39.9885773,5 C38.1350953,4.99999534 36.3575253,5.73426126 35.0469127,7.04126753 C33.7363,8.3482738 33.0000035,10.1209572 33,11.9693472 L33,78.0306341 C32.9999988,79.8790239 33.7362905,81.6517089 35.0468993,82.9587185 C36.3575081,84.2657282 38.1350757,84.9999991 39.9885575,85 L65.5706403,85 C69.4303143,85.0000085 72.5592061,81.8797288 72.5592177,78.0306583 L72.5592177,32.5824188 L72.9999956,32.5824188 L73,24.0109874 Z" id="Path-Copy-2" fill="#A5A7BF" fill-rule="nonzero"></path>
                        <path d="M62.4756268,7.00000438 C62.7862372,7.75872786 62.6973875,8.62172158 62.238643,9.30181733 C61.7798984,9.98191308 61.0114567,10.389867 60.1890231,10.3899292 L45.5914625,10.3899292 C44.7690271,10.3898694 44.000583,9.98191522 43.541838,9.30181759 C43.083093,8.62171996 42.9942454,7.75872374 43.30486,7 L40.1982985,7 C37.3273611,6.99999819 35.0000042,9.31879242 35,12.1791735 L35,77.8208156 C34.9999991,79.1944198 35.5476742,80.5117652 36.5225431,81.4830507 C37.4974119,82.4543361 38.8196183,82.9999991 40.1982919,83 L65.8017015,83 C67.1803751,83.0000009 68.5025822,82.4543395 69.4774523,81.4830553 C70.4523223,80.511771 70.9999991,79.1944264 71,77.8208222 L71,12.1791735 C70.999998,10.8055704 70.4523205,9.48822732 69.4774504,8.51694471 C68.5025804,7.54566209 67.1803739,7.00000234 65.8017015,7.00000438 L62.4756268,7.00000438 Z" id="Path-Copy-7" fill="#FFFFFF" fill-rule="nonzero"></path>
                        <rect id="Rectangle-Copy-21" fill="#DDDEEE" fill-rule="nonzero" x="40" y="17" width="25" height="3"></rect>
                        <rect id="Rectangle-Copy-22" fill="#DDDEEE" fill-rule="nonzero" x="57" y="74" width="8" height="3"></rect>
                        <rect id="Rectangle" fill="#E5E7F4" x="0" y="26" width="56" height="52.7" rx="0.85"></rect>
                        <rect id="Rectangle" stroke="#FFFFFF" stroke-width="2" x="7" y="33" width="10" height="10"></rect>
                        <rect id="Rectangle-Copy-3" stroke="#FFFFFF" stroke-width="2" x="7" y="62" width="10" height="10"></rect>
                        <rect id="Rectangle-Copy-2" stroke="#FFFFFF" stroke-width="2" x="39" y="33" width="10" height="10"></rect>
                        <rect id="Rectangle-Copy-4" stroke="#FFFFFF" stroke-width="2" x="39" y="62" width="10" height="10"></rect>
                        <rect id="Rectangle" fill="#DDDEEE" x="13.825" y="6.375" width="14.025" height="15.725" rx="0.85"></rect>
                        <path d="M23.7993282,13.8151394 L20.4688157,10.4519019 C20.1383782,10.1182769 19.6003282,10.1157269 19.2667032,10.4461644 C18.9332907,10.7763894 18.9305282,11.3146519 19.2609657,11.6480644 L21.1617782,13.5675769 L10.8478782,13.5920144 C10.3784657,13.5932894 9.9987282,13.9745144 10.0000032,14.4439269 C10.0010657,14.9129144 10.3812282,15.2920144 10.8500032,15.2920144 L10.8519157,15.2920144 L21.1530657,15.2677894 L19.2609657,17.1785894 C18.9305282,17.5120019 18.9332907,18.0502644 19.2667032,18.3804894 C19.4324532,18.5447519 19.6487782,18.6265644 19.8648907,18.6265644 C20.0837657,18.6265644 20.3026407,18.5426269 20.4688157,18.3747519 L23.7993282,15.0113019 C24.1274282,14.6800144 24.1274282,14.1464269 23.7993282,13.8151394" id="Path-Copy-2" fill="#241DBA"></path>
                        <polygon id="lock-open-copy" fill="#EEEFF7" points="11.7 9.35 16.8 9.35 16.8 4.25 11.7 4.25"></polygon>
                        <path d="M11.7274194,8.90611111 L16.7725806,8.90611111 L16.7725806,4.34444444 L11.7274194,4.34444444 L11.7274194,8.90611111 Z M17.2112903,3.47555556 L12.4951613,3.47555556 L12.4951613,2.72831111 C12.4951613,1.61613333 13.2035677,0.868888889 14.2334387,0.868888889 C14.9836323,0.868888889 15.568871,1.25402389 15.8246387,1.92556639 C15.9102968,2.15006556 16.1674903,2.26345556 16.3940839,2.17873889 C16.6207871,2.09402222 16.7373742,1.84345639 16.6518258,1.61895722 C16.2657613,0.605181111 15.3516,4.52970994e-14 14.2324516,4.52970994e-14 C12.7020129,4.52970994e-14 11.6177419,1.12195278 11.6177419,2.72831111 L11.6177419,3.47555556 L11.2887097,3.47555556 C11.0464323,3.47555556 10.85,3.67170722 10.85,3.91162917 L10.85,9.34055556 C10.85,9.5804775 11.0464323,9.775 11.2887097,9.775 L17.2112903,9.775 C17.4535677,9.775 17.65,9.5804775 17.65,9.34055556 L17.65,3.91162917 C17.65,3.67170722 17.4535677,3.47555556 17.2112903,3.47555556 L17.2112903,3.47555556 Z" id="lock-open" fill="#A5A7BF"></path>
                    </g>
                </g>
            </g>
        </g>
    </g>
</svg>