<?xml version="1.0" encoding="UTF-8"?>
<svg width="70px" height="48px" viewBox="0 0 70 48" version="1.1" xmlns="http://www.w3.org/2000/svg" xmlns:xlink="http://www.w3.org/1999/xlink">
    <!-- Generator: Sketch 52.5 (67469) - http://www.bohemiancoding.com/sketch -->
    <title>Group 38</title>
    <desc>Created with Sketch.</desc>
    <g id="WEB" stroke="none" stroke-width="1" fill="none" fill-rule="evenodd">
        <g id="HOME" transform="translate(-394.000000, -4147.000000)">
            <g id="Group-9" transform="translate(314.000000, 3688.000000)">
                <g id="Group-5" transform="translate(0.000000, 458.000000)">
                    <g id="Group-38" transform="translate(80.000000, 0.000000)">
                        <path d="M15.5173072,9.19277591 L54.6928072,1.17399868 C57.277752,0.644890022 59.802191,2.31147447 60.3312997,4.89641924 C60.3958302,5.21168129 60.4283432,5.53265659 60.4283432,5.85445521 L60.4283432,33.5975681 C60.4283432,35.9502719 58.7154837,37.9527604 56.3912017,38.3173536 L17.2157017,44.4625301 C14.6090361,44.8714188 12.1644464,43.0897687 11.7555576,40.4831031 C11.7171396,40.2381881 11.6978432,39.9906544 11.6978432,39.7427446 L11.6978432,13.8732324 C11.6978432,11.6039753 13.2941446,9.6478319 15.5173072,9.19277591 Z" id="Path-9" fill="#EEEFF7"></path>
                        <path d="M11.9482952,10.4759598 L63.9466214,5.30014519 C66.572187,5.03880137 68.9124895,6.95538183 69.1738333,9.58094744 C69.1894856,9.73819677 69.1973262,9.89612587 69.1973262,10.0541523 L69.1973262,36.6169876 C69.1973262,39.0417923 67.380844,41.0820249 64.9723075,41.362435 L12.9739813,47.416259 C10.3531431,47.721386 7.98117964,45.8441312 7.67605264,43.223293 C7.65470216,43.0399066 7.644,42.8554367 7.644,42.6708117 L7.644,15.2299669 C7.644,12.7746829 9.50508475,10.7191524 11.9482952,10.4759598 Z" id="Path-8" fill="#E5E7F4"></path>
                        <g id="Group-37" transform="translate(0.000000, 10.510500)">
                            <rect id="Rectangle" fill="#DDDEEE" x="0" y="0" width="66.885" height="38.22" rx="4.7775"></rect>
                            <path d="M11.6978432,7.644 L56.3745,7.644 L60.1965,11.466 L60.1965,27.7095 L56.3745,31.5315 L11.6978432,31.5315 L7.644,27.4776568 L7.644,11.6978432 L11.6978432,7.644 Z" id="Combined-Shape" fill="#EEEFF7"></path>
                            <circle id="Oval" stroke="#EEEFF7" stroke-width="0.9555" fill="#241DBA" cx="34.398" cy="19.11" r="7.644"></circle>
                            <text id="€" font-family="Helvetica" font-size="11.466" font-weight="normal" line-spacing="7.644" fill="#FFFFFF">
                                <tspan x="30.576" y="26.288">€</tspan>
                            </text>
                            <circle id="Oval" fill="#DDDEEE" cx="18.1545" cy="20.0655" r="1.911"></circle>
                            <circle id="Oval-Copy-8" fill="#DDDEEE" cx="50.6415" cy="20.0655" r="1.911"></circle>
                        </g>
                    </g>
                </g>
            </g>
        </g>
    </g>
</svg>
