<?xml version="1.0" encoding="UTF-8"?>
<svg width="71px" height="46px" viewBox="0 0 71 46" version="1.1" xmlns="http://www.w3.org/2000/svg" xmlns:xlink="http://www.w3.org/1999/xlink">
    <!-- Generator: Sketch 52.5 (67469) - http://www.bohemiancoding.com/sketch -->
    <title>Group 14 Copy</title>
    <desc>Created with Sketch.</desc>
    <g id="WEB" stroke="none" stroke-width="1" fill="none" fill-rule="evenodd">
        <g id="HOME" transform="translate(-394.000000, -3907.000000)">
            <g id="Group-9" transform="translate(314.000000, 3688.000000)">
                <g id="Group-8" transform="translate(1.000000, 220.000000)">
                    <g id="Group-14-Copy" transform="translate(80.000000, 0.000000)">
                        <g id="Group">
                            <path d="M19.2258808,29.6146051 C13.3922939,29.6146051 8.64628898,34.36061 8.64628898,40.1941969 L8.64628898,44.4260336 L34.0373094,44.4260336 L34.0373094,40.1941969 C34.0373094,34.36061 29.2913045,29.6146051 23.4577176,29.6146051 L19.2258808,29.6146051 Z" id="Fill-190" fill="#DDDEEE"></path>
                            <path d="M13.6045205,26.4984921 C10.9617384,22.7808235 11.2791262,17.5904758 14.6095817,14.2600202 C18.3187866,10.5465835 24.3618495,10.5465835 28.0752862,14.2600202 C31.4057417,17.5904758 31.7231295,22.7808235 29.0803474,26.4984921 C30.4112601,27.0465149 31.6427246,27.7828545 32.747234,28.6736562 C36.348527,23.3288464 35.7920405,15.9971892 31.0671948,11.2681117 C25.7054576,5.90425861 16.9794103,5.90849045 11.6155572,11.2681117 C6.89282743,15.9971892 6.3363409,23.3288464 9.93763396,28.6736562 C11.0400274,27.7828545 12.2736078,27.0465149 13.6045205,26.4984921" id="Fill-191" stroke="#241DBA" stroke-width="0.6" fill="#241DBA" stroke-linecap="round" stroke-linejoin="round"></path>
                            <path d="M7.614144,31.0280385 C5.54689176,28.165201 4.41487543,24.7501087 4.41487543,21.1509316 C4.41487543,16.629214 6.17743543,12.378334 9.37458808,9.18118139 C15.9720216,2.581632 26.7103073,2.581632 33.3119726,9.18118139 C39.2555873,15.126912 39.8290011,24.4157936 35.0681848,31.0259226 C36.0097685,32.2171847 36.7672673,33.5523291 37.3110583,34.9996173 C44.5178762,26.6988696 44.1962567,14.0816483 36.3038811,6.1871569 C28.0560313,-2.0606929 14.6305293,-2.0606929 6.38267951,6.1871569 C2.38570971,10.1841267 0.183038694,15.5014296 0.183038694,21.1509316 C0.183038694,26.3010769 2.02811951,31.1571096 5.37127053,35.0017332 C5.91506155,33.556561 6.67256033,32.2171847 7.614144,31.0280385" id="Fill-192" stroke="#241DBA" stroke-width="0.6" fill="#241DBA" stroke-linecap="round" stroke-linejoin="round"></path>
                            <path d="M21.3417992,14.8031765 C17.8420702,14.8031765 14.9940441,17.6512026 14.9940441,21.1509316 C14.9940441,24.6527765 17.8420702,27.4986867 21.3417992,27.4986867 C24.8415282,27.4986867 27.6895543,24.6527765 27.6895543,21.1509316 C27.6895543,17.6512026 24.8415282,14.8031765 21.3417992,14.8031765" id="Fill-193" fill="#DDDEEE"></path>
                        </g>
                        <g id="Group-Copy-5" transform="translate(43.163265, 14.326531)" fill="#DDDEEE">
                            <path d="M15.5597584,15.2880744 L11.3279216,15.2880744 C5.49433469,15.2880744 0.748329796,20.0340793 0.748329796,25.8676663 L0.748329796,30.099503 L26.1393502,30.099503 L26.1393502,25.8676663 C26.1393502,20.0340793 21.3933453,15.2880744 15.5597584,15.2880744" id="Fill-190"></path>
                            <path d="M13.44384,0.476645878 C9.94411102,0.476645878 7.0960849,3.324672 7.0960849,6.82440098 C7.0960849,10.3262459 9.94411102,13.1721561 13.44384,13.1721561 C16.943569,13.1721561 19.7915951,10.3262459 19.7915951,6.82440098 C19.7915951,3.324672 16.943569,0.476645878 13.44384,0.476645878" id="Fill-193"></path>
                        </g>
                    </g>
                </g>
            </g>
        </g>
    </g>
</svg>
