<?xml version="1.0" encoding="UTF-8"?>
<svg width="38px" height="55px" viewBox="0 0 38 55" version="1.1" xmlns="http://www.w3.org/2000/svg" xmlns:xlink="http://www.w3.org/1999/xlink">
    <!-- Generator: Sketch 52.5 (67469) - http://www.bohemiancoding.com/sketch -->
    <title>Group 17 Copy 3</title>
    <desc>Created with Sketch.</desc>
    <g id="WEB" stroke="none" stroke-width="1" fill="none" fill-rule="evenodd">
        <g id="HOME" transform="translate(-996.000000, -3903.000000)">
            <g id="Group-9" transform="translate(314.000000, 3688.000000)">
                <g id="Group-6" transform="translate(586.000000, 215.000000)">
                    <g id="Group-17-Copy-3" transform="translate(96.000000, 0.000000)">
                        <path d="M33.6484983,19.3869732 L35.483871,19.3869732 C36.835317,19.3869732 37.9310345,20.4811255 37.9310345,21.8194325 L37.9310345,52.1024904 C37.9310345,53.4407974 36.835317,54.5258621 35.483871,54.5258621 L2.44716352,54.5258621 C1.09571746,54.5258621 0,53.4407974 0,52.1024904 L0,21.8194325 C0,20.4811255 1.09571746,19.3869732 2.44716352,19.3869732 L4.28253615,19.3869732 L4.28253615,15.2187739 C4.28253615,6.25835728 10.4285873,0 18.9649055,0 C27.5024472,0 33.6484983,6.25835728 33.6484983,15.2187739 L33.6484983,19.3869732 Z M9.17686318,15.2187739 L9.17686318,19.3869732 L28.7541713,19.3869732 L28.7541713,15.2187739 C28.7541713,9.01494253 24.7102336,4.8467433 18.9649055,4.8467433 C13.2201891,4.8467433 9.17686318,9.01494253 9.17686318,15.2187739 Z" id="Combined-Shape" fill="#DDDEEE"></path>
                        <polygon id="lock-open-copy-2" fill="#EEEFF7" points="4.74137931 50.2586207 33.1896552 50.2586207 33.1896552 23.7068966 4.74137931 23.7068966"></polygon>
                        <polygon id="lock-open-copy-2" fill="#241DBA" points="8.53448276 46.4655172 29.3965517 46.4655172 29.3965517 27.5 8.53448276 27.5"></polygon>
                    </g>
                </g>
            </g>
        </g>
    </g>
</svg>
