<?xml version="1.0" encoding="UTF-8"?>
<svg width="60px" height="60px" viewBox="0 0 60 60" version="1.1" xmlns="http://www.w3.org/2000/svg" xmlns:xlink="http://www.w3.org/1999/xlink">
    <!-- Generator: Sketch 52.5 (67469) - http://www.bohemiancoding.com/sketch -->
    <title>Group Copy 6</title>
    <desc>Created with Sketch.</desc>
    <defs>
        <circle id="path-1" cx="28.81008" cy="28.81008" r="28.81008"></circle>
        <linearGradient x1="72.3427929%" y1="100%" x2="50%" y2="23.5453408%" id="linearGradient-3">
            <stop stop-color="#EEEFF7" offset="0%"></stop>
            <stop stop-color="#DDDEEE" offset="100%"></stop>
        </linearGradient>
        <circle id="path-4" cx="28.93328" cy="28.95792" r="28.81008"></circle>
    </defs>
    <g id="WEB" stroke="none" stroke-width="1" fill="none" fill-rule="evenodd">
        <g id="HOME" transform="translate(-692.000000, -4141.000000)">
            <g id="Group-9" transform="translate(314.000000, 3688.000000)">
                <g id="Group-4" transform="translate(293.000000, 454.000000)">
                    <g id="Group-Copy-6" transform="translate(86.000000, 0.000000)">
                        <mask id="mask-2" fill="white">
                            <use xlink:href="#path-1"></use>
                        </mask>
                        <use id="Mask" stroke="#EEEFF7" stroke-width="1.51632" fill="#FFFFFF" xlink:href="#path-1"></use>
                        <g id="Group-Copy-2" mask="url(#mask-2)">
                            <g transform="translate(-0.123200, -0.147840)">
                                <polygon id="Fill-3" stroke="none" fill="url(#linearGradient-3)" fill-rule="evenodd" points="36.061809 35.8192421 37.6290616 49.0706957 24.1039299 49.0706957 25.111842 38.8782677"></polygon>
                                <path d="M24.433774,43.8442578 C24.433774,43.8442578 26.2206331,46.8792065 31.4503016,46.280916 C36.6799701,45.6826254 36.9970649,43.5106738 36.9865471,43.143203 C48.4266147,43.6694137 55.2299529,52.3280186 57.3965618,69.1190175 L47.0333266,69.1190175 C48.0799881,83.7670164 48.0799881,94.0554023 47.0333266,99.9841754 L16.4558666,99.9841754 L18.8026602,73.4410561 L12.1163644,69.1190175 C11.2441275,66.8526139 13.5256058,43.0592083 24.433774,43.8442578 Z" id="Fill-4" stroke="none" fill="#241DBA" fill-rule="evenodd"></path>
                                <path d="M36.6695941,35.2971867 C36.2000844,36.8721391 33.6096886,38.7862857 32.0759848,39.4459248 C28.8169802,40.8461666 24.6016761,41.8569314 21.5218775,38.0320471 C18.7008572,34.5523229 17.8256472,29.77974 17.547313,26.6954583 C17.3338842,24.8418212 18.1868409,23.1015329 19.6125659,21.9169097 C22.8475471,19.3823273 28.8501915,15.0852982 30.2162373,15.6426677 C31.4457291,16.1437889 35.182167,19.9158339 37.5549193,22.3293972 C38.8227642,23.7296389 39.2687563,25.5977642 38.8806732,27.3661766 L36.6695941,35.2971867 Z" id="Fill-8" stroke="none" fill="url(#linearGradient-3)" fill-rule="evenodd"></path>
                                <path d="M31.8443742,18.6798318 C31.8443742,18.6798318 33.4085052,25.0370931 33.7936315,24.8714593 C34.1788425,24.7066794 35.6189167,22.6883386 36.9717702,24.1722118 C38.5344616,25.8857524 36.5555662,29.534817 36.5555662,29.534817 C36.5555662,29.534817 35.9864295,35.4412814 37.1563734,34.7104439 C38.3263173,33.9796065 45.9041936,22.4509872 38.7637761,11.8512828 C38.7637761,11.8512828 33.0440409,5.33265665 27.3784165,7.76935068 C24.2688689,9.10722719 16.2864399,10.7354968 13.396098,13.233192 C10.5057561,15.7308872 9.54134482,17.7440866 11.1788937,21.6279413 C12.8163579,25.5109421 17.4009527,26.580731 19.3633355,26.2426333 C25.0833247,25.2565151 30.7107582,21.1148182 31.8443742,18.6798318 Z" id="Fill-9" stroke="none" fill="#A5A7BF" fill-rule="evenodd"></path>
                                <mask id="mask-5" fill="white">
                                    <use xlink:href="#path-4"></use>
                                </mask>
                                <use id="Mask" stroke="#DDDEEE" stroke-width="3.07632" fill="none" xlink:href="#path-4"></use>
                            </g>
                        </g>
                    </g>
                </g>
            </g>
        </g>
    </g>
</svg>
