<?xml version="1.0" encoding="UTF-8"?>
<svg width="74px" height="83px" viewBox="0 0 74 83" version="1.1" xmlns="http://www.w3.org/2000/svg" xmlns:xlink="http://www.w3.org/1999/xlink">
    <!-- Generator: Sketch 52.5 (67469) - http://www.bohemiancoding.com/sketch -->
    <title>Group 34</title>
    <desc>Created with Sketch.</desc>
    <defs>
        <circle id="path-1" cx="20.52" cy="20.52" r="20.52"></circle>
        <linearGradient x1="72.3427929%" y1="100%" x2="50%" y2="23.5453408%" id="linearGradient-3">
            <stop stop-color="#EEEFF7" offset="0%"></stop>
            <stop stop-color="#DDDEEE" offset="100%"></stop>
        </linearGradient>
    </defs>
    <g id="CAMBIOS-MAYO-2020" stroke="none" stroke-width="1" fill="none" fill-rule="evenodd">
        <g id="LANDING-GOSAFE-A" transform="translate(-548.000000, -1035.000000)">
            <g id="Group-7" transform="translate(502.000000, 756.000000)">
                <g id="Group-47" transform="translate(0.000000, 244.000000)">
                    <g id="Group-34" transform="translate(47.000000, 35.000000)">
                        <g id="Group-5-Copy" transform="translate(18.000000, 3.000000)" fill-rule="nonzero">
                            <path d="M40,19.0109874 L39.5592287,19.0109874 L39.5592287,6.96936593 C39.5592311,3.12029427 36.4303485,3.03545614e-06 32.5706734,0 L6.98857732,0 C5.13509528,-4.66457475e-06 3.35752526,0.73426126 2.04691265,2.04126753 C0.736300044,3.3482738 3.50806018e-06,5.12095717 0,6.96934725 L0,73.0306341 C-1.16935521e-06,74.8790239 0.736290543,76.6517089 2.04689933,77.9587185 C3.35750813,79.2657282 5.13507572,79.9999991 6.98855748,80 L32.5706403,80 C36.4303143,80.0000085 39.5592061,76.8797288 39.5592177,73.0306583 L39.5592177,27.5824188 L39.9999956,27.5824188 L40,19.0109874 Z" id="Path-Copy-4" fill="#A5A7BF"></path>
                            <path d="M29.4756268,2.00000438 C29.7862372,2.75872786 29.6973875,3.62172158 29.238643,4.30181733 C28.7798984,4.98191308 28.0114567,5.38986704 27.1890231,5.38992919 L12.5914625,5.38992919 C11.7690271,5.38986944 11.000583,4.98191522 10.541838,4.30181759 C10.083093,3.62171996 9.99424535,2.75872374 10.30486,2 L7.19829852,2 C4.32736106,1.99999819 2.00000424,4.31879242 2,7.17917346 L2,72.8208156 C1.99999913,74.1944198 2.54767425,75.5117652 3.52254309,76.4830507 C4.49741193,77.4543361 5.81961832,77.9999991 7.19829193,78 L32.8017015,78 C34.1803751,78.0000009 35.5025822,77.4543395 36.4774523,76.4830553 C37.4523223,75.511771 37.9999991,74.1944264 38,72.8208222 L38,7.17917346 C37.999998,5.80557038 37.4523205,4.48822732 36.4774504,3.51694471 C35.5025804,2.54566209 34.1803739,2.00000234 32.8017015,2.00000438 L29.4756268,2.00000438 Z" id="Path-Copy-8" fill="#FFFFFF"></path>
                            <rect id="Rectangle-Copy-23" fill="#DDDEEE" x="7" y="12" width="25" height="3"></rect>
                            <rect id="Rectangle-Copy-24" fill="#DDDEEE" x="24" y="69" width="8" height="3"></rect>
                        </g>
                        <circle id="Oval-Copy-28" fill="#FFFFFF" fill-rule="nonzero" cx="69.5" cy="0.5" r="1"></circle>
                        <g id="Group-Copy-7" transform="translate(0.000000, 26.000000)">
                            <g id="Group-Copy-6">
                                <mask id="mask-2" fill="white">
                                    <use xlink:href="#path-1"></use>
                                </mask>
                                <use id="Mask" stroke="#DDDEEE" stroke-width="1.08" fill="#FFFFFF" xlink:href="#path-1"></use>
                                <g id="Group-Copy-2" mask="url(#mask-2)">
                                    <g transform="translate(7.200000, 5.040000)">
                                        <path d="M3.64670435,70.4119653 C3.64670435,70.4119653 1.69321752,53.8300749 1.27508604,49.5424875 C1.09374085,47.6832574 1.5870456,42.177847 1.5870456,42.177847 C2.36748555,40.6879119 2.2231223,43.3197459 3.7840022,43.9405016 L8.5968107,45.678253 L7.29607745,70.4119653 C7.29607745,70.4119653 6.9815718,74.4824705 8.5968107,76.2457324 C11.7013844,79.6348641 4.71084227,86.9237019 3.7840022,80.2176577 C3.51125241,78.2442985 3.25645255,74.0624582 3.64670435,73.441824 C4.0368925,72.9453409 3.64670435,70.4119653 3.64670435,70.4119653 Z" id="Fill-1" fill="#F6B690"></path>
                                        <path d="M26.6183832,66.4379202 C26.6183832,66.4379202 24.6648963,49.8560297 24.2467649,45.5684423 C24.0654197,43.7092122 24.5587244,38.2038018 24.5587244,38.2038018 C25.3391644,36.7138667 25.1948011,39.3457007 26.755681,39.9664564 L31.5684895,41.7042078 L30.2677563,66.4379202 C30.2677563,66.4379202 29.9532506,70.5084253 31.5684895,72.2716873 C34.6730632,75.6608189 27.6825211,82.9496567 26.755681,76.2436125 C26.4829312,74.2702533 26.2281314,70.088413 26.6183832,69.4677788 C27.0085713,68.9712957 26.6183832,66.4379202 26.6183832,66.4379202 Z" id="Fill-1-Copy" fill="#F6B690"></path>
                                        <polygon id="Fill-3" fill="url(#linearGradient-3)" points="18.3972999 20.3669815 19.5135766 29.8053388 9.88029197 29.8053388 10.5981781 22.5457747"></polygon>
                                        <path d="M10.1152237,26.0828047 C10.1152237,26.0828047 11.3879153,28.2444491 15.1127504,27.8183162 C18.8375855,27.3921833 19.0634365,25.8452093 19.0559452,25.583478 C27.2041415,25.9582719 32.049824,32.1253693 33.5929927,44.0847703 L26.2117711,44.0847703 C26.9572565,54.5178179 26.9572565,61.8457282 26.2117711,66.068501 L4.43295344,66.068501 L6.10445882,47.1631454 L1.34213986,44.0847703 C0.720888513,42.4705227 2.34587311,25.5236527 10.1152237,26.0828047 Z" id="Fill-4" fill="#DDDEEE"></path>
                                        <path d="M18.8301953,19.9951472 C18.4957866,21.1169082 16.6507754,22.4802605 15.5583938,22.9500889 C13.2371654,23.9474121 10.234812,24.6673301 8.04122329,21.9430535 C6.03194956,19.4646174 5.4085806,16.0653419 5.2103369,13.86856 C5.05832205,12.5483057 5.66584112,11.3087841 6.68131475,10.4650354 C8.98543244,8.65977726 13.2608201,5.59921523 14.2337872,5.99620205 C15.1094937,6.35312599 17.7707742,9.03976771 19.4607687,10.7588299 C20.3637922,11.7561531 20.6814504,13.0867267 20.4050379,14.3462797 L18.8301953,19.9951472 Z" id="Fill-8" fill="url(#linearGradient-3)"></path>
                                        <path d="M15.3934289,8.15942433 C15.3934289,8.15942433 16.5074823,12.6873882 16.7817888,12.5694155 C17.0561556,12.4520509 18.0818495,11.0144862 19.0454204,12.0713759 C20.1584485,13.2918465 18.7489788,15.8908953 18.7489788,15.8908953 C18.7489788,15.8908953 18.3436108,20.0977788 19.1769041,19.5772393 C20.0101975,19.0566998 25.4075453,10.8454325 20.3217778,3.29578544 C20.3217778,3.29578544 16.2478924,-1.34711065 12.2125474,0.388426411 C9.99776989,1.34132991 4.31227916,2.50106612 2.25363105,4.28005128 C0.194982947,6.05903644 -0.491919641,7.49293919 0.674425704,10.2592174 C1.84071074,13.0248875 5.10609169,13.7868455 6.5038002,13.5460351 C10.5778666,12.8436717 14.5860101,9.89374518 15.3934289,8.15942433 Z" id="Fill-9" fill="#A5A7BF"></path>
                                    </g>
                                </g>
                            </g>
                        </g>
                        <g id="Group-6" transform="translate(47.000000, 8.000000)">
                            <rect id="Rectangle" fill="#DDDEEE" x="0" y="0" width="26" height="29.25" rx="4.05"></rect>
                            <polyline id="Path-14" stroke="#241DBA" stroke-width="3" stroke-linecap="round" stroke-linejoin="round" points="9 13.875 12.2497172 18.875 20.1538462 8.875"></polyline>
                        </g>
                    </g>
                </g>
            </g>
        </g>
    </g>
</svg>