<?xml version="1.0" encoding="UTF-8"?>
<svg width="100px" height="95px" viewBox="0 0 100 95" version="1.1" xmlns="http://www.w3.org/2000/svg" xmlns:xlink="http://www.w3.org/1999/xlink">
    <!-- Generator: Sketch 52.5 (67469) - http://www.bohemiancoding.com/sketch -->
    <title>Group 100 Copy 2</title>
    <desc>Created with Sketch.</desc>
    <defs>
        <circle id="path-1" cx="15.685488" cy="15.685488" r="15.685488"></circle>
        <linearGradient x1="45.166306%" y1="-1.69870728%" x2="59.6076601%" y2="51.8765724%" id="linearGradient-3">
            <stop stop-color="#5DBBF7" offset="0%"></stop>
            <stop stop-color="#4499CE" offset="100%"></stop>
        </linearGradient>
        <linearGradient x1="72.3427929%" y1="100%" x2="50%" y2="23.5453408%" id="linearGradient-4">
            <stop stop-color="#EEEFF7" offset="0%"></stop>
            <stop stop-color="#DDDEEE" offset="100%"></stop>
        </linearGradient>
        <circle id="path-5" cx="15.685488" cy="15.685488" r="15.685488"></circle>
        <circle id="path-7" cx="19.60686" cy="19.60686" r="19.60686"></circle>
    </defs>
    <g id="CAMBIOS-MAYO-2020" stroke="none" stroke-width="1" fill="none" fill-rule="evenodd">
        <g id="LANDING-GOSAFE-A" transform="translate(-739.000000, -776.000000)">
            <g id="Group-7" transform="translate(502.000000, 756.000000)">
                <g id="Group-43" transform="translate(204.000000, 0.000000)">
                    <g id="Group-100-Copy-2" transform="translate(33.000000, 21.000000)">
                        <g id="Group-101" transform="translate(7.800000, 0.000000)">
                            <g id="Group-Copy-23" opacity="0.733096168" transform="translate(0.000000, 4.680000)">
                                <g id="Group-Copy-6" opacity="0.784435454">
                                    <mask id="mask-2" fill="white">
                                        <use xlink:href="#path-1"></use>
                                    </mask>
                                    <use id="Mask" stroke="#DDDEEE" stroke-width="0.825552" fill="#FFFFFF" xlink:href="#path-1"></use>
                                    <g id="Group-Copy-2" mask="url(#mask-2)">
                                        <g transform="translate(5.503680, 3.852576)">
                                            <path d="M2.7875408,53.8229063 C2.7875408,53.8229063 1.29429547,41.1477092 0.974675768,37.8702774 C0.836055503,36.449082 1.21313766,32.2407462 1.21313766,32.2407462 C1.80970595,31.1018398 1.69935469,33.1136138 2.89249128,33.5881194 L6.5714021,34.9164566 L5.5771216,53.8229063 C5.5771216,53.8229063 5.33671348,56.9344004 6.5714021,58.2822379 C8.94453823,60.8728901 3.60096783,66.4444777 2.89249128,61.3183775 C2.68400134,59.8099417 2.48923233,56.613343 2.7875408,56.1389303 C3.08580062,55.7594186 2.7875408,53.8229063 2.7875408,53.8229063 Z" id="Fill-1" fill="#F6B690"></path>
                                            <path d="M20.3470921,50.7851462 C20.3470921,50.7851462 18.8538468,38.1099491 18.5342271,34.8325173 C18.3956068,33.4113218 18.772689,29.2029861 18.772689,29.2029861 C19.3692573,28.0640797 19.258906,30.0758536 20.4520426,30.5503593 L24.1309534,31.8786965 L23.1366729,50.7851462 C23.1366729,50.7851462 22.8962648,53.8966403 24.1309534,55.2444777 C26.5040895,57.83513 21.1605191,63.4067176 20.4520426,58.2806174 C20.2435526,56.7721816 20.0487836,53.5755829 20.3470921,53.1011701 C20.6453519,52.7216585 20.3470921,50.7851462 20.3470921,50.7851462 Z" id="Fill-1-Copy" fill="#F6B690"></path>
                                            <path d="M22.8462979,92.461824 L18.4373415,92.461824 L10.8729595,62.1389329 L10.9162024,92.461824 L6.20468557,92.461824 C6.20468557,92.461824 -0.155699048,57.2066343 4.12357536,48.4143021 L19.9934794,48.4143021 C20.0366757,48.4572093 20.641843,54.8906141 22.8462979,92.461824 Z" id="Fill-2" fill="url(#linearGradient-3)"></path>
                                            <polygon id="Fill-3" fill="url(#linearGradient-4)" points="14.062896 15.5685207 14.916178 22.783201 7.55249518 22.783201 8.10124732 17.2339902"></polygon>
                                            <path d="M7.73207697,19.9376959 C7.73207697,19.9376959 8.70492247,21.5900569 11.5521864,21.2643209 C14.3994504,20.9385849 14.5720909,19.756078 14.5663645,19.5560105 C20.7948458,19.842503 24.4988855,24.5566323 25.6784836,33.6983984 L20.0362778,33.6983984 C20.6061268,41.67342 20.6061268,47.2748746 20.0362778,50.5027622 L3.38854961,50.5027622 L4.66624832,36.0515083 L1.02593171,33.6983984 C0.551047179,32.4644676 1.7931854,19.5102801 7.73207697,19.9376959 Z" id="Fill-4" fill="#DDDEEE"></path>
                                            <path d="M14.3938013,15.2842905 C14.1381793,16.1417646 12.7278527,17.1839111 11.8928362,17.543048 C10.1184892,18.3054018 7.8234903,18.8557071 6.14671108,16.7732701 C4.61082225,14.8787536 4.13431901,12.2803473 3.98278153,10.6011273 C3.86658138,9.59192487 4.33096896,8.6444346 5.10719699,7.99947305 C6.86846456,6.61953374 10.1365709,4.28004012 10.880307,4.58349685 C11.549697,4.8563295 13.5839798,6.90999843 14.8758116,8.22404959 C15.5660827,8.98640342 15.8089007,10.0034939 15.597611,10.9662962 L14.3938013,15.2842905 Z" id="Fill-8" fill="url(#linearGradient-4)"></path>
                                            <path d="M11.7667371,6.23706396 C11.7667371,6.23706396 12.6183195,9.69823956 12.8279994,9.6080612 C13.0377253,9.51834768 13.8217658,8.41947323 14.5583193,9.22735977 C15.409118,10.1602874 14.3317194,12.1470004 14.3317194,12.1470004 C14.3317194,12.1470004 14.0218561,15.3627421 14.6588255,14.9648417 C15.295795,14.5669413 19.4215277,8.29024857 15.533967,2.51929839 C15.533967,2.51929839 12.4198889,-1.02973138 9.33527123,0.296913149 C7.6422953,1.02531258 3.29630619,1.91181494 1.72267558,3.2716712 C0.149044965,4.63152746 -0.376023374,5.72760271 0.515531008,7.8421458 C1.40703929,9.95622404 3.90309649,10.5386647 4.97150487,10.3545893 C8.0857212,9.81770264 11.1495461,7.56277882 11.7667371,6.23706396 Z" id="Fill-9" fill="#A5A7BF"></path>
                                        </g>
                                    </g>
                                </g>
                            </g>
                            <g id="Group-Copy-24" opacity="0.733096168" transform="translate(51.480000, 4.680000)">
                                <g id="Group-Copy-6" opacity="0.784435454">
                                    <mask id="mask-6" fill="white">
                                        <use xlink:href="#path-5"></use>
                                    </mask>
                                    <use id="Mask" stroke="#DDDEEE" stroke-width="0.825552" fill="#FFFFFF" xlink:href="#path-5"></use>
                                    <g id="Group-Copy-2" mask="url(#mask-6)">
                                        <g transform="translate(5.503680, 3.852576)">
                                            <path d="M2.7875408,53.8229063 C2.7875408,53.8229063 1.29429547,41.1477092 0.974675768,37.8702774 C0.836055503,36.449082 1.21313766,32.2407462 1.21313766,32.2407462 C1.80970595,31.1018398 1.69935469,33.1136138 2.89249128,33.5881194 L6.5714021,34.9164566 L5.5771216,53.8229063 C5.5771216,53.8229063 5.33671348,56.9344004 6.5714021,58.2822379 C8.94453823,60.8728901 3.60096783,66.4444777 2.89249128,61.3183775 C2.68400134,59.8099417 2.48923233,56.613343 2.7875408,56.1389303 C3.08580062,55.7594186 2.7875408,53.8229063 2.7875408,53.8229063 Z" id="Fill-1" fill="#F6B690"></path>
                                            <path d="M20.3470921,50.7851462 C20.3470921,50.7851462 18.8538468,38.1099491 18.5342271,34.8325173 C18.3956068,33.4113218 18.772689,29.2029861 18.772689,29.2029861 C19.3692573,28.0640797 19.258906,30.0758536 20.4520426,30.5503593 L24.1309534,31.8786965 L23.1366729,50.7851462 C23.1366729,50.7851462 22.8962648,53.8966403 24.1309534,55.2444777 C26.5040895,57.83513 21.1605191,63.4067176 20.4520426,58.2806174 C20.2435526,56.7721816 20.0487836,53.5755829 20.3470921,53.1011701 C20.6453519,52.7216585 20.3470921,50.7851462 20.3470921,50.7851462 Z" id="Fill-1-Copy" fill="#F6B690"></path>
                                            <path d="M22.8462979,92.461824 L18.4373415,92.461824 L10.8729595,62.1389329 L10.9162024,92.461824 L6.20468557,92.461824 C6.20468557,92.461824 -0.155699048,57.2066343 4.12357536,48.4143021 L19.9934794,48.4143021 C20.0366757,48.4572093 20.641843,54.8906141 22.8462979,92.461824 Z" id="Fill-2" fill="url(#linearGradient-3)"></path>
                                            <polygon id="Fill-3" fill="url(#linearGradient-4)" points="14.062896 15.5685207 14.916178 22.783201 7.55249518 22.783201 8.10124732 17.2339902"></polygon>
                                            <path d="M7.73207697,19.9376959 C7.73207697,19.9376959 8.70492247,21.5900569 11.5521864,21.2643209 C14.3994504,20.9385849 14.5720909,19.756078 14.5663645,19.5560105 C20.7948458,19.842503 24.4988855,24.5566323 25.6784836,33.6983984 L20.0362778,33.6983984 C20.6061268,41.67342 20.6061268,47.2748746 20.0362778,50.5027622 L3.38854961,50.5027622 L4.66624832,36.0515083 L1.02593171,33.6983984 C0.551047179,32.4644676 1.7931854,19.5102801 7.73207697,19.9376959 Z" id="Fill-4" fill="#DDDEEE"></path>
                                            <path d="M14.3938013,15.2842905 C14.1381793,16.1417646 12.7278527,17.1839111 11.8928362,17.543048 C10.1184892,18.3054018 7.8234903,18.8557071 6.14671108,16.7732701 C4.61082225,14.8787536 4.13431901,12.2803473 3.98278153,10.6011273 C3.86658138,9.59192487 4.33096896,8.6444346 5.10719699,7.99947305 C6.86846456,6.61953374 10.1365709,4.28004012 10.880307,4.58349685 C11.549697,4.8563295 13.5839798,6.90999843 14.8758116,8.22404959 C15.5660827,8.98640342 15.8089007,10.0034939 15.597611,10.9662962 L14.3938013,15.2842905 Z" id="Fill-8" fill="url(#linearGradient-4)"></path>
                                            <path d="M11.7667371,6.23706396 C11.7667371,6.23706396 12.6183195,9.69823956 12.8279994,9.6080612 C13.0377253,9.51834768 13.8217658,8.41947323 14.5583193,9.22735977 C15.409118,10.1602874 14.3317194,12.1470004 14.3317194,12.1470004 C14.3317194,12.1470004 14.0218561,15.3627421 14.6588255,14.9648417 C15.295795,14.5669413 19.4215277,8.29024857 15.533967,2.51929839 C15.533967,2.51929839 12.4198889,-1.02973138 9.33527123,0.296913149 C7.6422953,1.02531258 3.29630619,1.91181494 1.72267558,3.2716712 C0.149044965,4.63152746 -0.376023374,5.72760271 0.515531008,7.8421458 C1.40703929,9.95622404 3.90309649,10.5386647 4.97150487,10.3545893 C8.0857212,9.81770264 11.1495461,7.56277882 11.7667371,6.23706396 Z" id="Fill-9" fill="#A5A7BF"></path>
                                        </g>
                                    </g>
                                </g>
                            </g>
                            <g id="Group-Copy-7" transform="translate(21.840000, 0.000000)">
                                <g id="Group-Copy-6">
                                    <mask id="mask-8" fill="white">
                                        <use xlink:href="#path-7"></use>
                                    </mask>
                                    <use id="Mask" stroke="#DDDEEE" stroke-width="1.03194" fill="#FFFFFF" xlink:href="#path-7"></use>
                                    <g id="Group-Copy-2" mask="url(#mask-8)">
                                        <g transform="translate(6.879600, 4.815720)">
                                            <path d="M3.484426,67.2786329 C3.484426,67.2786329 1.61786934,51.4346365 1.21834471,47.3378468 C1.04506938,45.5613525 1.51642207,40.3009328 1.51642207,40.3009328 C2.26213244,38.8772998 2.12419336,41.3920172 3.6156141,41.9851492 L8.21425262,43.6455708 L6.971402,67.2786329 C6.971402,67.2786329 6.67089185,71.1680005 8.21425262,72.8527973 C11.1806728,76.0911126 4.50120979,83.0555972 3.6156141,76.6479719 C3.35500168,74.7624272 3.11154041,70.7666788 3.484426,70.1736628 C3.85725078,69.6992733 3.484426,67.2786329 3.484426,67.2786329 Z" id="Fill-1" fill="#F6B690"></path>
                                            <path d="M25.4338651,63.4814327 C25.4338651,63.4814327 23.5673085,47.6374364 23.1677838,43.5406466 C22.9945085,41.7641523 23.4658612,36.5037326 23.4658612,36.5037326 C24.2115716,35.0800996 24.0736325,37.594817 25.5650532,38.1879491 L30.1636917,39.8483706 L28.9208411,63.4814327 C28.9208411,63.4814327 28.620331,67.3708004 30.1636917,69.0555972 C33.1301119,72.2939124 26.4506489,79.258397 25.5650532,72.8507717 C25.3044408,70.965227 25.0609795,66.9694786 25.4338651,66.3764627 C25.8066899,65.9020731 25.4338651,63.4814327 25.4338651,63.4814327 Z" id="Fill-1-Copy" fill="#F6B690"></path>
                                            <path d="M28.5578724,115.57728 L23.0466768,115.57728 L13.5911994,77.6736662 L13.645253,115.57728 L7.75585696,115.57728 C7.75585696,115.57728 -0.19462381,71.5082929 5.1544692,60.5178776 L24.9918492,60.5178776 C25.0458446,60.5715117 25.8023037,68.6132677 28.5578724,115.57728 Z" id="Fill-2" fill="url(#linearGradient-3)"></path>
                                            <polygon id="Fill-3" fill="url(#linearGradient-4)" points="17.57862 19.4606508 18.6452225 28.4790012 9.44061898 28.4790012 10.1265591 21.5424878"></polygon>
                                            <path d="M9.66509622,24.9221199 C9.66509622,24.9221199 10.8811531,26.9875711 14.440233,26.5804011 C17.999313,26.1732312 18.2151136,24.6950975 18.2079557,24.4450132 C25.9935572,24.8031288 30.6236069,30.6957904 32.0981045,42.1229981 L25.0453472,42.1229981 C25.7576585,52.091775 25.7576585,59.0935933 25.0453472,63.1284527 L4.23568702,63.1284527 L5.8328104,45.0643854 L1.28241463,42.1229981 C0.688808974,40.5805845 2.24148175,24.3878501 9.66509622,24.9221199 Z" id="Fill-4" fill="#DDDEEE"></path>
                                            <path d="M17.9922516,19.1053632 C17.6727241,20.1772057 15.9098159,21.4798889 14.8660452,21.92881 C12.6481115,22.8817522 9.77936288,23.5696339 7.68338885,20.9665876 C5.76352781,18.598442 5.16789877,15.3504342 4.97847691,13.2514091 C4.83322672,11.9899061 5.41371119,10.8055432 6.38399624,9.99934131 C8.5855807,8.27441717 12.6707137,5.35005015 13.6003837,5.72937106 C14.4371212,6.07041188 16.9799748,8.63749804 18.5947645,10.280062 C19.4576034,11.2330043 19.7611258,12.5043673 19.4970137,13.7078702 L17.9922516,19.1053632 Z" id="Fill-8" fill="url(#linearGradient-4)"></path>
                                            <path d="M14.7084213,7.79632995 C14.7084213,7.79632995 15.7728994,12.1227994 16.0349992,12.0100765 C16.2971567,11.8979346 17.2772072,10.5243415 18.1978992,11.5341997 C19.2613975,12.7003593 17.9146492,15.1837505 17.9146492,15.1837505 C17.9146492,15.1837505 17.5273201,19.2034276 18.3235319,18.7060521 C19.1197437,18.2086766 24.2769096,10.3628107 19.4174587,3.14912299 C19.4174587,3.14912299 15.5248612,-1.28716422 11.669089,0.371141436 C9.55286913,1.28164072 4.12038273,2.38976868 2.15334447,4.089589 C0.186306206,5.78940932 -0.470029217,7.15950339 0.64441376,9.80268224 C1.75879911,12.4452801 4.87887061,13.1733309 6.21438109,12.9432366 C10.1071515,12.2721283 13.9369327,9.45347352 14.7084213,7.79632995 Z" id="Fill-9" fill="#A5A7BF"></path>
                                        </g>
                                    </g>
                                </g>
                            </g>
                        </g>
                        <path d="M18.3920262,73.3248657 L13.9530512,68.9664401 C13.5126374,68.5340949 12.7955133,68.5307903 12.3508511,68.9590049 C11.9064721,69.386944 11.9027902,70.0844794 12.3432041,70.5165492 L14.8766458,73.004049 L1.13006937,73.0357176 C0.50442681,73.0373698 -0.00169507925,73.5314 4.26677154e-06,74.1397125 C0.00142038845,74.7474743 0.508108726,75.2387506 1.13290161,75.2387506 L1.13545063,75.2387506 L14.8650336,75.2073574 L12.3432041,77.6835666 C11.9027902,78.1156364 11.9064721,78.8131718 12.3508511,79.241111 C12.5717661,79.453979 12.8600885,79.56 13.1481276,79.56 C13.4398487,79.56 13.7315698,79.4512252 13.9530512,79.2336757 L18.3920262,74.8749748 C18.8293246,74.4456587 18.8293246,73.7541817 18.3920262,73.3248657" id="Path-Copy-9" fill="#241DBA"></path>
                        <path d="M99.5120262,73.3248657 L95.0730512,68.9664401 C94.6326374,68.5340949 93.9155133,68.5307903 93.4708511,68.9590049 C93.0264721,69.386944 93.0227902,70.0844794 93.4632041,70.5165492 L95.9966458,73.004049 L82.2500694,73.0357176 C81.6244268,73.0373698 81.1183049,73.5314 81.1200043,74.1397125 C81.1214204,74.7474743 81.6281087,75.2387506 82.2529016,75.2387506 L82.2554506,75.2387506 L95.9850336,75.2073574 L93.4632041,77.6835666 C93.0227902,78.1156364 93.0264721,78.8131718 93.4708511,79.241111 C93.6917661,79.453979 93.9800885,79.56 94.2681276,79.56 C94.5598487,79.56 94.8515698,79.4512252 95.0730512,79.2336757 L99.5120262,74.8749748 C99.9493246,74.4456587 99.9493246,73.7541817 99.5120262,73.3248657" id="Path-Copy-10" fill="#241DBA"></path>
                        <path d="M18.3920262,57.7248657 L13.9530512,53.3664401 C13.5126374,52.9340949 12.7955133,52.9307903 12.3508511,53.3590049 C11.9064721,53.786944 11.9027902,54.4844794 12.3432041,54.9165492 L14.8766458,57.404049 L1.13006937,57.4357176 C0.50442681,57.4373698 -0.00169507925,57.9314 4.26677154e-06,58.5397125 C0.00142038845,59.1474743 0.508108726,59.6387506 1.13290161,59.6387506 L1.13545063,59.6387506 L14.8650336,59.6073574 L12.3432041,62.0835666 C11.9027902,62.5156364 11.9064721,63.2131718 12.3508511,63.641111 C12.5717661,63.853979 12.8600885,63.96 13.1481276,63.96 C13.4398487,63.96 13.7315698,63.8512252 13.9530512,63.6336757 L18.3920262,59.2749748 C18.8293246,58.8456587 18.8293246,58.1541817 18.3920262,57.7248657" id="Path-Copy-11" fill="#A5A7BF"></path>
                        <path d="M99.5120262,57.7248657 L95.0730512,53.3664401 C94.6326374,52.9340949 93.9155133,52.9307903 93.4708511,53.3590049 C93.0264721,53.786944 93.0227902,54.4844794 93.4632041,54.9165492 L95.9966458,57.404049 L82.2500694,57.4357176 C81.6244268,57.4373698 81.1183049,57.9314 81.1200043,58.5397125 C81.1214204,59.1474743 81.6281087,59.6387506 82.2529016,59.6387506 L82.2554506,59.6387506 L95.9850336,59.6073574 L93.4632041,62.0835666 C93.0227902,62.5156364 93.0264721,63.2131718 93.4708511,63.641111 C93.6917661,63.853979 93.9800885,63.96 94.2681276,63.96 C94.5598487,63.96 94.8515698,63.8512252 95.0730512,63.6336757 L99.5120262,59.2749748 C99.9493246,58.8456587 99.9493246,58.1541817 99.5120262,57.7248657" id="Path-Copy-12" fill="#A5A7BF"></path>
                        <path d="M18.3920262,87.3648657 L13.9530512,83.0064401 C13.5126374,82.5740949 12.7955133,82.5707903 12.3508511,82.9990049 C11.9064721,83.426944 11.9027902,84.1244794 12.3432041,84.5565492 L14.8766458,87.044049 L1.13006937,87.0757176 C0.50442681,87.0773698 -0.00169507925,87.5714 4.26677154e-06,88.1797125 C0.00142038845,88.7874743 0.508108726,89.2787506 1.13290161,89.2787506 L1.13545063,89.2787506 L14.8650336,89.2473574 L12.3432041,91.7235666 C11.9027902,92.1556364 11.9064721,92.8531718 12.3508511,93.281111 C12.5717661,93.493979 12.8600885,93.6 13.1481276,93.6 C13.4398487,93.6 13.7315698,93.4912252 13.9530512,93.2736757 L18.3920262,88.9149748 C18.8293246,88.4856587 18.8293246,87.7941817 18.3920262,87.3648657" id="Path-Copy-13" fill="#A5A7BF"></path>
                        <path d="M99.5120262,87.3648657 L95.0730512,83.0064401 C94.6326374,82.5740949 93.9155133,82.5707903 93.4708511,82.9990049 C93.0264721,83.426944 93.0227902,84.1244794 93.4632041,84.5565492 L95.9966458,87.044049 L82.2500694,87.0757176 C81.6244268,87.0773698 81.1183049,87.5714 81.1200043,88.1797125 C81.1214204,88.7874743 81.6281087,89.2787506 82.2529016,89.2787506 L82.2554506,89.2787506 L95.9850336,89.2473574 L93.4632041,91.7235666 C93.0227902,92.1556364 93.0264721,92.8531718 93.4708511,93.281111 C93.6917661,93.493979 93.9800885,93.6 94.2681276,93.6 C94.5598487,93.6 94.8515698,93.4912252 95.0730512,93.2736757 L99.5120262,88.9149748 C99.9493246,88.4856587 99.9493246,87.7941817 99.5120262,87.3648657" id="Path-Copy-14" fill="#A5A7BF"></path>
                        <g id="Fill-537-Copy" transform="translate(26.520000, 46.800000)" fill="#DDDEEE">
                            <path d="M42.12,32.76 L37.44,32.76 L37.44,28.08 L42.12,28.08 L42.12,32.76 Z M42.12,42.12 L37.44,42.12 L37.44,37.44 L42.12,37.44 L42.12,42.12 Z M30.42,14.04 L25.74,14.04 L25.74,9.36 L30.42,9.36 L30.42,14.04 Z M30.42,23.4 L25.74,23.4 L25.74,18.72 L30.42,18.72 L30.42,23.4 Z M30.42,32.76 L25.74,32.76 L25.74,28.08 L30.42,28.08 L30.42,32.76 Z M21.06,14.04 L16.38,14.04 L16.38,9.36 L21.06,9.36 L21.06,14.04 Z M21.06,23.4 L16.38,23.4 L16.38,18.72 L21.06,18.72 L21.06,23.4 Z M21.06,32.76 L16.38,32.76 L16.38,28.08 L21.06,28.08 L21.06,32.76 Z M9.36,32.76 L4.68,32.76 L4.68,28.08 L9.36,28.08 L9.36,32.76 Z M9.36,42.12 L4.68,42.12 L4.68,37.44 L9.36,37.44 L9.36,42.12 Z M44.46,23.4 L35.1,23.4 L35.1,7.02 C35.1,5.73066 34.05402,4.68 32.76,4.68 L30.42,4.68 L30.42,2.34 C30.42,1.05066 29.37402,0 28.08,0 L18.72,0 C17.42832,0 16.38,1.05066 16.38,2.34 L16.38,4.68 L14.04,4.68 C12.74832,4.68 11.7,5.73066 11.7,7.02 L11.7,23.4 L2.34,23.4 C1.04832,23.4 0,24.45066 0,25.74 L0,44.46 C0,45.75402 1.04832,46.8 2.34,46.8 L18.72,46.8 L18.72,37.44 L28.08,37.44 L28.08,46.8 L44.46,46.8 C45.75402,46.8 46.8,45.75402 46.8,44.46 L46.8,25.74 C46.8,24.45066 45.75402,23.4 44.46,23.4 L44.46,23.4 Z" id="Fill-537"></path>
                        </g>
                    </g>
                </g>
            </g>
        </g>
    </g>
</svg>