<?xml version="1.0" encoding="utf-8"?>
<!-- Generator: Adobe Illustrator 18.1.1, SVG Export Plug-In . SVG Version: 6.00 Build 0)  -->
<svg version="1.1" xmlns="http://www.w3.org/2000/svg" xmlns:xlink="http://www.w3.org/1999/xlink" x="0px" y="0px"
	 viewBox="0 0 1500 1207.9" enable-background="new 0 0 1500 1207.9" xml:space="preserve">
<g id="Layer_1">
	<rect x="-12.3" y="0" fill="#241DBA" width="1512.3" height="1207.9"/>
	<g opacity="0.19">
		<defs>
			<rect id="SVGID_467_" x="1176.1" y="490.2" opacity="0.19" width="323.9" height="619.9"/>
		</defs>
		<clipPath id="SVGID_68_">
			<use xlink:href="#SVGID_467_"  overflow="visible"/>
		</clipPath>
		<path clip-path="url(#SVGID_68_)" fill="#000230" d="M1543.8,532.2c-54.6-14.4-83.9,29.3-83.1,86.3c0.5,35.2,20.6,98.5-37.7,152.3
			c-74.9,69-241.7,34.3-226.6,214c11.4,136.2,228.3,130.2,270.9,98.6c81.5-60.4,35.2-156.3,87.3-213.6
			c52.1-57.3,101.6-207.1,74.3-259.2C1601.6,558.4,1590.4,544.5,1543.8,532.2z"/>
	</g>
	<g opacity="0.19">
		<defs>
			<rect id="SVGID_469_" x="0" y="362.9" opacity="0.19" width="651.7" height="845"/>
		</defs>
		<clipPath id="SVGID_69_">
			<use xlink:href="#SVGID_469_"  overflow="visible"/>
		</clipPath>
		<path clip-path="url(#SVGID_69_)" fill="#000230" d="M-32.6,1094c45.5,21.5,89.2,47.6,129.8,77.7c30.5,22.6,59.5,47.6,86.4,74.4
			c17.2,17.2,33.8,35.4,49.3,54c26.2,31.6,63.9,47.9,101.9,47.9c29.7,0,59.7-10,84.3-30.4c56.2-46.6,64-130,17.4-186.2
			c-20.7-25-43-49.4-66.1-72.5c-36.1-36-75-69.5-115.9-99.8c-54.5-40.3-113.1-75.4-174.3-104.3c-66.1-31.2-144.9-2.9-176.1,63.2
			C-126.9,984-98.7,1062.8-32.6,1094z"/>
	</g>
	<g opacity="0.3">
		<defs>
			<rect id="SVGID_471_" x="1365.9" y="0" opacity="0.3" width="134.1" height="185.5"/>
		</defs>
		<clipPath id="SVGID_71_">
			<use xlink:href="#SVGID_471_"  overflow="visible"/>
		</clipPath>

			<circle opacity="0.33" clip-path="url(#SVGID_71_)" fill="none" stroke="#DADAF7" stroke-width="35.7411" stroke-miterlimit="10" cx="1477.4" cy="19.8" r="67.3"/>
	</g>
	<g opacity="0.14">
		<defs>
			<rect id="SVGID_473_" x="0" y="0" opacity="0.14" width="408.1" height="564.6"/>
		</defs>
		<clipPath id="SVGID_72_">
			<use xlink:href="#SVGID_473_"  overflow="visible"/>
		</clipPath>

			<circle opacity="0.33" clip-path="url(#SVGID_72_)" fill="none" stroke="#DADAF7" stroke-width="108.8116" stroke-miterlimit="10" cx="68.7" cy="60.4" r="204.9"/>
	</g>
</g>
<g id="Default">
</g>
<g id="Capa_1">
</g>
<g id="INTERIOR">
</g>
</svg>
