<?xml version="1.0" encoding="UTF-8"?>
<svg width="359px" height="344px" viewBox="0 0 359 344" version="1.1" xmlns="http://www.w3.org/2000/svg" xmlns:xlink="http://www.w3.org/1999/xlink">
    <title>Group 8 Copy 4</title>
    <defs>
        <linearGradient x1="0.220352717%" y1="70.3163002%" x2="97.0781829%" y2="29.5910494%" id="linearGradient-1">
            <stop stop-color="#000230" offset="0%"></stop>
            <stop stop-color="#49C6A7" offset="88.7570509%"></stop>
            <stop stop-color="#58EEBF" offset="100%"></stop>
        </linearGradient>
        <polygon id="path-2" points="0 0.06824664 27.3745811 0.06824664 27.3745811 27.4428 0 27.4428"></polygon>
    </defs>
    <g id="CAMBIOS-MAYO-2020" stroke="none" stroke-width="1" fill="none" fill-rule="evenodd">
        <g id="COMBI-PRODUCTOS-SECTORES-HOTELES-RESORTS-+-GOSAFE" transform="translate(-231.000000, -3014.000000)">
            <g id="Group-8-Copy-4" transform="translate(231.000000, 3014.000000)">
                <g id="Group-Copy-17" transform="translate(0.000000, 44.400000)" fill-rule="nonzero">
                    <ellipse id="Oval" fill="#DDDEEE" opacity="0.3125" style="mix-blend-mode: multiply;" cx="77.3420218" cy="287.241985" rx="77.3420218" ry="11.5538642"></ellipse>
                    <ellipse id="Oval" fill="#F2F2F2" cx="86.2304105" cy="84.5315224" rx="2.8520916" ry="2.84752377"></ellipse>
                    <polygon id="Path" fill="#DDDEEE" points="45.8044408 265.567398 46.4779544 271.621623 40.4144806 270.948726 40.4144806 263.549169"></polygon>
                    <polygon id="Path" fill="#DDDEEE" points="109.138325 265.567398 108.464348 271.621623 114.528285 270.948726 114.528285 263.549169"></polygon>
                    <path d="M45.1306171,135.06628 L42.4355537,204.352955 C42.4355537,204.352955 33.6766092,256.149792 35.6979044,257.495184 C37.7191996,258.840576 35.6979044,266.240105 35.6979044,266.240105 L47.1519123,267.585502 C47.1519123,267.585502 47.1519123,262.203989 49.8469757,260.185922 C52.5420391,258.167855 77.4713502,163.319111 77.4713502,163.319111 L103.07443,254.804456 C103.07443,254.804456 102.400666,260.185945 104.421961,260.185945 C106.443256,260.185945 107.117025,267.585502 107.117025,267.585502 L118.571033,267.585502 L118.571033,260.185945 C118.571033,260.185945 121.93986,259.513261 119.918564,254.131771 C117.897269,248.750282 110.485847,135.06628 110.485847,135.06628 L45.1306171,135.06628 Z" id="Path" fill="#155153"></path>
                    <path d="M41.7617901,265.567398 C41.7617901,265.567398 38.3929632,263.54934 37.0454315,264.894713 C35.6978998,266.240087 24.91766,279.693827 24.91766,279.693827 C24.91766,279.693827 10.0948066,289.111433 23.5701283,291.80218 C37.04545,294.492927 47.1518984,281.711885 47.8256759,280.366511 C48.4994533,279.021138 47.1519123,268.258159 46.4781488,269.603532 C45.8043852,270.948906 43.7830854,270.276221 43.1093218,269.603532 C42.4355583,268.930843 41.7617901,265.567398 41.7617901,265.567398 Z" id="Path" fill="#6C6C6C"></path>
                    <path d="M113.18091,265.567398 C113.18091,265.567398 116.549737,263.54934 117.897269,264.894713 C119.244801,266.240087 130.02504,279.693827 130.02504,279.693827 C130.02504,279.693827 144.847894,289.111433 131.372572,291.80218 C117.897251,294.492927 107.790802,281.711885 107.117025,280.366511 C106.443247,279.021138 107.790788,268.258159 108.464552,269.603532 C109.138315,270.948906 111.159615,270.276221 111.833379,269.603532 C112.507142,268.930843 113.18091,265.567398 113.18091,265.567398 Z" id="Path" fill="#6C6C6C"></path>
                    <ellipse id="Oval" fill="#FCE5C6" cx="85.8934176" cy="21.718658" rx="13.8121896" ry="13.7900684"></ellipse>
                    <polygon id="Path" fill="#FCE5C6" points="76.7976376 29.4544784 74.7761711 50.3078167 90.9465146 53.6713777 94.9894476 28.7820435"></polygon>
                    <path d="M93.6417168,45.5990163 C93.6417168,45.5990163 89.5991263,54.3439374 74.7762868,44.9263318 L47.1519308,135.06628 C47.1519308,135.06628 84.2090227,157.264923 107.790807,140.44777 L99.7056026,49.6351323 L93.6417168,45.5990163 Z" id="Path" fill="#808080"></path>
                    <path d="M77.4713502,35.5087032 L64.6698106,33.4906452 L63.3222743,42.2355848 C63.3222743,42.2355848 45.804376,44.2536428 43.7830807,50.9805058 L45.804376,100.759285 C45.804376,100.759285 39.7404903,111.522264 45.1306125,118.249127 C45.1306125,118.249127 36.3716633,136.411654 43.1093172,139.775085 C43.1093172,139.775085 58.6059156,132.375529 68.0386329,134.393596 C68.0386329,134.393596 73.4287551,133.048222 73.4287551,129.012106 C73.4287551,124.97599 77.4713502,35.5087032 77.4713502,35.5087032 Z" id="Path" fill="#808080"></path>
                    <path d="M92.9679533,36.8540952 L100.37938,38.8721532 L101.053144,48.2897587 C101.053144,48.2897587 119.244805,59.7254269 119.918574,66.45229 C120.592342,73.179153 106.443266,105.468086 106.443266,105.468086 C106.443266,105.468086 111.833388,114.885696 109.812093,120.93987 C109.812093,120.93987 118.571042,138.429712 113.18092,143.138517 C113.18092,143.138517 103.074439,145.829259 101.726912,141.793143 C100.379385,137.757027 88.2516039,91.3416796 93.6417261,69.1430324 C93.6417168,69.1430324 88.2515946,40.8902112 92.9679533,36.8540952 Z" id="Path" fill="#808080"></path>
                    <path d="M100.716253,58.7612662 L100.462655,58.7612662 L100.462655,51.8251256 C100.462657,50.7604233 100.039028,49.7393277 99.2849619,48.9864698 C98.5308955,48.233612 97.5081615,47.8106662 96.4417512,47.8106662 L81.7230493,47.8106662 C80.656639,47.8106662 79.633905,48.233612 78.8798386,48.9864698 C78.1257722,49.7393277 77.7021455,50.7604233 77.7021455,51.8251256 L77.7021455,89.8773429 C77.7021455,90.9420444 78.1257739,91.9631388 78.8798402,92.7159957 C79.6339065,93.4688525 80.6566398,93.8917977 81.7230493,93.8917977 L96.4417512,93.8917977 C97.5081607,93.8917977 98.530894,93.4688525 99.2849603,92.7159957 C100.039027,91.9631388 100.462656,90.9420444 100.462655,89.8773429 L100.462655,63.6985281 L100.716253,63.6985281 L100.716253,58.7612662 Z" id="Path" fill="#000230"></path>
                    <path d="M107.117025,85.9601901 C107.117025,85.9601901 101.726898,68.4703479 93.6417168,73.851819 C85.5565359,79.23329 99.031839,94.0324036 99.031839,94.0324036 L107.117025,85.9601901 Z" id="Path" fill="#FCE5C6"></path>
                    <path d="M70.0599328,73.1791484 C70.0599328,73.1791484 79.4926455,61.7434849 84.2090041,67.1249744 C88.9253628,72.5064639 76.1238185,84.6148165 76.1238185,84.6148165 L70.0599328,73.1791484 Z" id="Path" fill="#FCE5C6"></path>
                    <path d="M45.8043806,50.3078167 C45.8043806,50.3078167 42.4355537,49.6351277 40.4142584,55.6893063 C38.3929632,61.7434849 30.9815457,84.6148119 30.9815457,88.6509279 C30.9815457,92.6870439 33.6766092,108.831512 48.499444,106.14077 C63.3222789,103.450028 80.8401772,84.6148119 80.8401772,84.6148119 L71.4074645,70.4884013 L51.1945028,82.5967539 L45.8043806,50.3078167 Z" id="Path" fill="#808080"></path>
                    <polygon id="Path" fill="#000000" opacity="0.1" points="48.7155933 67.7472193 51.5313892 82.2602592 72.4181793 70.1522717 52.8788793 77.5518285 48.5711698 66.8811417"></polygon>
                    <polygon id="Path" fill="#000000" opacity="0.1" points="108.127823 82.2602592 110.822803 84.2784882 112.170293 74.8607024"></polygon>
                    <path d="M45.4674989,107.82249 C45.4674989,107.82249 65.2578319,102.447254 74.5649748,90.6721193 C74.5649748,90.6721193 65.0066924,106.477117 45.4674989,107.82249 Z" id="Path" fill="#000000" opacity="0.1"></path>
                    <path d="M95.3261303,95.7141378 C95.3261303,95.7141378 99.4934296,116.076423 110.211322,116.658257 C110.211322,116.658257 97.3474394,120.603527 95.3261303,95.7141378 Z" id="Path" fill="#000000" opacity="0.1"></path>
                    <path d="M117.223501,63.7615429 C117.223501,63.7615429 119.244796,65.1069164 120.592328,71.1610996 C121.93986,77.2152829 130.698809,100.086605 127.329982,105.468095 C123.961155,110.849584 118.571033,122.957937 107.117025,114.885705 L95.6630121,94.0324313 L107.117025,83.2694522 L111.833379,86.6328838 L117.223501,63.7615429 Z" id="Path" fill="#808080"></path>
                    <path d="M72.6336805,25.216142 C72.6336805,25.216142 61.0497099,6.47217417 73.3882008,5.49728684 C77.5057092,5.20975707 81.5262877,4.11599441 85.2207465,2.27834794 C89.3106681,0.200468652 94.4589179,-1.37892147 97.198549,1.81971036 C98.3941054,3.28231525 99.7879334,4.57148656 101.339838,5.65004741 C103.746402,7.24349628 106.530892,9.82663529 104.989013,12.5975754 L102.461254,17.1402498 L98.9223688,26.2256078 C99.7464809,22.3068421 99.7672094,19.016565 97.6584824,17.3926185 C97.6584824,17.3926185 85.8934176,22.3913285 79.9642485,13.3546863 C73.3269365,8.38269342 71.2152516,24.0323193 72.6336805,25.216142 Z" id="Path" fill="#000230"></path>
                </g>
                <g id="Group-2" transform="translate(191.000000, 0.000000)">
                    <path d="M168,79.8461471 L166.14876,79.8461471 L166.14876,29.2713369 C166.148771,13.1052359 153.007464,0 136.796828,0 L29.3520247,0 C21.5674002,0 14.1016061,3.08389729 8.59703314,8.57332362 C3.09246019,14.06275 0,21.5080201 0,29.2712584 L0,306.728663 C0,314.4919 3.09242028,321.937177 8.5969772,327.426618 C14.1015341,332.916059 21.567318,336 29.3519414,336 L136.796689,336 C153.00732,336 166.148666,322.894861 166.148714,306.728765 L166.148714,115.846159 L168,115.846159 L168,79.8461471 Z" id="Path-Copy-4" fill="#000230" fill-rule="nonzero"></path>
                    <path d="M123.797632,4.2 C125.102196,7.386657 124.729027,11.0112306 122.8023,13.8676328 C120.875573,16.7240349 117.648118,18.4374416 114.193897,18.4377026 L52.8841426,18.4377026 C49.4299138,18.4374516 46.2024484,16.7240439 44.2757195,13.8676339 C42.3489907,11.0112238 41.9758305,7.38663971 43.280412,4.2 L30.2328538,4.2 C18.1749164,4.2 8.4,13.9389282 8.4,25.9525285 L8.4,301.647426 C8.4,307.416563 10.7002318,312.949414 14.794681,317.028813 C18.8891301,321.108212 24.4423969,323.4 30.2328261,323.4 L137.767146,323.4 C143.557575,323.4 149.110845,321.108226 153.205299,317.028832 C157.299754,312.949438 159.6,307.416591 159.6,301.647453 L159.6,25.9525285 C159.6,20.1833956 157.299746,14.6505547 153.205292,10.5711678 C149.110837,6.49178079 143.557571,4.2 137.767146,4.2 L123.797632,4.2 Z" id="Path-Copy-8" fill="#FFFFFF" fill-rule="nonzero"></path>
                    <rect id="Rectangle" fill="url(#linearGradient-1)" x="8.4" y="96.6" width="151.2" height="96.6"></rect>
                    <text id="Pre-check-in" font-family="Gilroy-ExtraBold, Gilroy" font-size="18.9" font-weight="600" letter-spacing="0.378000021" fill="#FFFFFF">
                        <tspan x="26.7046499" y="169.2">Pre check-in</tspan>
                    </text>
                    <text id="Reserva-de-servicios" font-family="Gilroy-ExtraBold, Gilroy" font-size="18.9" font-weight="600" letter-spacing="0.378000021" fill="#000067">
                        <tspan x="33.4046999" y="232.2">Reserva de </tspan>
                        <tspan x="44.1020999" y="255.2">servicios</tspan>
                    </text>
                    <text id="Encuestas" font-family="Gilroy-ExtraBold, Gilroy" font-size="18.9" font-weight="600" letter-spacing="0.378000021" fill="#000067">
                        <tspan x="37.9879499" y="307.8">Encuestas</tspan>
                    </text>
                    <text id="Room-service" font-family="Gilroy-ExtraBold, Gilroy" font-size="18.9" font-weight="600" letter-spacing="0.378000021" fill="#000067">
                        <tspan x="23.3593499" y="68.4">Room service</tspan>
                    </text>
                    <g id="Group-8-Copy-10" transform="translate(71.400000, 117.600000)">
                        <g id="Group-3" transform="translate(0.000000, 0.070409)">
                            <mask id="mask-3" fill="white">
                                <use xlink:href="#path-2"></use>
                            </mask>
                            <g id="Clip-2"></g>
                            <path d="M13.6872767,0.06824664 C21.2465207,0.06824664 27.3745811,6.19630704 27.3745811,13.755551 C27.3745811,21.314795 21.2465207,27.4428554 13.6872767,27.4428554 C6.12803268,27.4428554 -2.772e-05,21.314795 -2.772e-05,13.755551 C-2.772e-05,6.19630704 6.12803268,0.06824664 13.6872767,0.06824664" id="Fill-1" fill="#FFFFFF" mask="url(#mask-3)"></path>
                        </g>
                        <path d="M13.6872767,2.41987284 C19.9866467,2.41987284 25.0933637,7.52658984 25.0933637,13.8259598 C25.0933637,20.1253298 19.9866467,25.2320468 13.6872767,25.2320468 C7.38790668,25.2320468 2.28118968,20.1253298 2.28118968,13.8259598 C2.28118968,7.52658984 7.38790668,2.41987284 13.6872767,2.41987284" id="Fill-4" fill="#FFFFFF"></path>
                        <polygon id="Fill-6" fill="#147767" points="12.6293706 18.512303 9.3064356 14.239958 11.2387968 12.736841 12.812184 14.7598466 18.1273554 9.14918004 19.9046232 10.8330314"></polygon>
                    </g>
                </g>
                <line x1="92.2274368" y1="123" x2="217.772563" y2="123" id="Line-17-Copy-12" stroke="#241DBA" stroke-width="2.1" stroke-linecap="square" stroke-dasharray="4.619999694824219,4.619999694824219"></line>
            </g>
        </g>
    </g>
</svg>