
<svg width="1091px" height="577px" viewBox="0 0 1091 577" version="1.1" xmlns="http://www.w3.org/2000/svg" xmlns:xlink="http://www.w3.org/1999/xlink">
    <defs>
        <path d="M1083.323,0.468106033 C1083.323,77.225872 1069.095,151.685375 1041.039,221.778706 C1013.939,289.482899 975.141,350.289133 925.724,402.506731 C876.306,454.723272 818.763,495.720062 754.689,524.356951 C688.356,554.002962 617.888,569.036245 545.248,569.036245 C472.607,569.036245 402.14,554.002962 335.806,524.356951 C271.732,495.720062 214.189,454.723272 164.772,402.506731 C115.354,350.289133 76.556,289.482899 49.456,221.778706 C21.399,151.685375 7.173,77.225872 7.173,0.468106033 L0.173,0.468106033 C0.173,78.2212578 14.585,153.649729 43.009,224.660252 C70.462,293.245711 109.765,354.842336 159.822,407.736205 C209.879,460.63113 268.172,502.160483 333.079,531.16932 C400.281,561.204186 471.665,576.432954 545.248,576.432954 C618.831,576.432954 690.215,561.204186 757.416,531.16932 C822.324,502.160483 880.616,460.63113 930.673,407.736205 C980.731,354.842336 1020.032,293.245711 1047.486,224.660252 C1075.91,153.649729 1090.322,78.2212578 1090.322,0.468106033 L1083.323,0.468106033 Z" id="path-1"></path>
        <linearGradient x1="50.0000054%" y1="31.92704%" x2="50.0000054%" y2="107.560882%" id="linearGradient-3">
            <stop stop-color="#170017" offset="0%"></stop>
            <stop stop-color="#750ECD" offset="100%"></stop>
        </linearGradient>
        <path d="M1043.059,0.468106033 C1043.059,74.3348154 1029.368,145.990965 1002.368,213.445784 C976.288,278.600227 938.951,337.115594 891.396,387.365667 C843.839,437.616797 788.462,477.069788 726.802,504.626757 C662.966,533.156921 595.153,547.623828 525.248,547.623828 C455.343,547.623828 387.53,533.156921 323.693,504.626757 C262.034,477.069788 206.657,437.616797 159.101,387.365667 C111.545,337.115594 74.208,278.600227 48.128,213.445784 C21.128,145.990965 7.437,74.3348154 7.437,0.468106033 L0.668,0.468106033 C0.668,75.2974442 14.538,147.890863 41.894,216.231174 C68.314,282.238351 106.138,341.51875 154.313,392.425016 C202.49,443.32917 258.59,483.296761 321.056,511.216168 C385.731,540.121452 454.432,554.777503 525.248,554.777503 C596.064,554.777503 664.764,540.121452 729.44,511.216168 C791.906,483.296761 848.006,443.32917 896.182,392.425016 C944.358,341.51875 982.18,282.238351 1008.602,216.231174 C1035.958,147.890863 1049.828,75.2974442 1049.828,0.468106033 L1043.059,0.468106033 Z" id="path-4"></path>
        <linearGradient x1="50.0000045%" y1="33.1743479%" x2="50.0000045%" y2="111.763011%" id="linearGradient-6">
            <stop stop-color="#170017" offset="0%"></stop>
            <stop stop-color="#750ECD" offset="100%"></stop>
        </linearGradient>
        <path d="M1001.794,0.468106033 C1001.794,71.4437587 988.639,140.295499 962.696,205.11075 C937.636,267.715441 901.761,323.940998 856.067,372.224603 C810.371,420.509265 757.161,458.418457 697.914,484.89762 C636.576,512.311938 571.418,526.212468 504.248,526.212468 C437.078,526.212468 371.919,512.311938 310.581,484.89762 C251.334,458.418457 198.124,420.509265 152.429,372.224603 C106.735,323.940998 70.858,267.715441 45.798,205.11075 C19.856,140.295499 6.701,71.4437587 6.701,0.468106033 L0.162,0.468106033 C0.162,72.3736307 13.49,142.13094 39.777,207.801038 C65.166,271.228878 101.513,328.194106 147.805,377.110658 C194.099,426.02721 248.008,464.434095 308.034,491.26196 C370.183,519.036603 436.199,533.122051 504.248,533.122051 C572.297,533.122051 638.313,519.036603 700.462,491.26196 C760.488,464.434095 814.397,426.02721 860.689,377.110658 C906.983,328.194106 943.329,271.228878 968.718,207.801038 C995.005,142.13094 1008.333,72.3736307 1008.333,0.468106033 L1001.794,0.468106033 Z" id="path-7"></path>
        <linearGradient x1="50.0000058%" y1="34.5230762%" x2="50.0000058%" y2="116.306821%" id="linearGradient-9">
            <stop stop-color="#170017" offset="0%"></stop>
            <stop stop-color="#750ECD" offset="100%"></stop>
        </linearGradient>
        <path d="M961.53,0.468106033 C961.53,68.5537587 948.912,134.60109 924.024,196.774658 C899.986,256.830654 865.571,310.766402 821.739,357.084596 C777.904,403.40279 726.862,439.766069 670.027,465.168483 C611.187,491.466954 548.682,504.800051 484.248,504.800051 C419.814,504.800051 357.309,491.466954 298.469,465.168483 C241.634,439.766069 190.591,403.40279 146.757,357.084596 C102.924,310.766402 68.509,256.830654 44.471,196.774658 C19.583,134.60109 6.965,68.5537587 6.965,0.468106033 L0.656,0.468106033 C0.656,69.4508739 13.443,136.372073 38.661,199.37196 C63.018,260.221517 97.886,314.869463 142.297,361.797356 C186.708,408.72525 238.425,445.570373 296.012,471.307751 C355.633,497.953868 418.965,511.465543 484.248,511.465543 C549.531,511.465543 612.863,497.953868 672.484,471.307751 C730.07,445.570373 781.787,408.72525 826.198,361.797356 C870.609,314.869463 905.477,260.221517 929.834,199.37196 C955.052,136.372073 967.839,69.4508739 967.839,0.468106033 L961.53,0.468106033 Z" id="path-10"></path>
        <linearGradient x1="50.0000061%" y1="35.9861937%" x2="50.0000061%" y2="121.236003%" id="linearGradient-12">
            <stop stop-color="#170017" offset="0%"></stop>
            <stop stop-color="#750ECD" offset="100%"></stop>
        </linearGradient>
        <path d="M920.268,0.468106033 C920.268,65.662702 908.184,128.905623 884.353,188.44068 C861.335,245.945868 828.382,297.591806 786.409,341.943532 C744.436,386.294201 695.56,421.115795 641.14,445.438289 C584.798,470.619857 524.946,483.388691 463.248,483.388691 C401.55,483.388691 341.698,470.619857 285.356,445.438289 C230.934,421.115795 182.059,386.294201 140.085,341.943532 C98.113,297.591806 65.16,245.945868 42.141,188.44068 C18.312,128.905623 6.228,65.662702 6.228,0.468106033 L0.152,0.468106033 C0.152,66.5270603 12.395,130.61215 36.545,190.942881 C59.869,249.213101 93.259,301.545876 135.789,346.484055 C178.318,391.423291 227.844,426.706651 282.989,451.352486 C340.084,476.870077 400.732,489.807978 463.248,489.807978 C525.764,489.807978 586.412,476.870077 643.507,451.352486 C698.652,426.706651 748.178,391.423291 790.707,346.484055 C833.235,301.545876 866.626,249.213101 889.95,190.942881 C914.1,130.61215 926.344,66.5270603 926.344,0.468106033 L920.268,0.468106033 Z" id="path-13"></path>
        <linearGradient x1="49.9999523%" y1="37.5788972%" x2="49.9999523%" y2="126.601756%" id="linearGradient-15">
            <stop stop-color="#170017" offset="0%"></stop>
            <stop stop-color="#750ECD" offset="100%"></stop>
        </linearGradient>
        <path d="M880.004,0.468106033 C880.004,62.7716453 868.456,123.212271 845.683,180.105645 C823.685,235.063196 792.192,284.418267 752.081,326.803525 C711.969,369.187726 665.26,402.464464 613.252,425.710208 C559.408,449.772761 502.211,461.975218 443.248,461.975218 C384.285,461.975218 327.087,449.772761 273.244,425.710208 C221.236,402.464464 174.527,369.187726 134.415,326.803525 C94.304,284.418267 62.811,235.063196 40.813,180.105645 C18.04,123.212271 6.492,62.7716453 6.492,0.468106033 L0.646,0.468106033 C0.646,63.6043035 12.348,124.852227 35.43,182.512746 C57.722,238.204684 89.635,288.221232 130.282,331.17181 C170.927,374.121331 218.262,407.842929 270.967,431.398278 C325.534,455.787342 383.498,468.153583 443.248,468.153583 C502.997,468.153583 560.961,455.787342 615.529,431.398278 C668.234,407.842929 715.568,374.121331 756.214,331.17181 C796.861,288.221232 828.774,238.204684 851.066,182.512746 C874.148,124.852227 885.85,63.6043035 885.85,0.468106033 L880.004,0.468106033 Z" id="path-16"></path>
        <linearGradient x1="50.0000053%" y1="39.3188449%" x2="50.0000053%" y2="132.463568%" id="linearGradient-18">
            <stop stop-color="#170017" offset="0%"></stop>
            <stop stop-color="#750ECD" offset="100%"></stop>
        </linearGradient>
        <path d="M838.739,0.468106033 C838.739,59.8816453 827.727,117.516804 806.01,171.772724 C785.033,224.17841 755.002,271.244728 716.752,311.663517 C678.501,352.08125 633.959,383.81419 584.365,405.980015 C533.019,428.927777 478.476,440.563857 422.248,440.563857 C366.02,440.563857 311.477,428.927777 260.131,405.980015 C210.536,383.81419 165.994,352.08125 127.743,311.663517 C89.493,271.244728 59.462,224.17841 38.484,171.772724 C16.768,117.516804 5.755,59.8816453 5.755,0.468106033 L0.14,0.468106033 C0.14,60.6804899 11.302,119.092303 33.313,174.083667 C54.573,227.197324 85.008,274.897645 123.772,315.859565 C162.537,356.819371 207.679,388.980263 257.944,411.446183 C309.985,434.70355 365.265,446.497075 422.248,446.497075 C479.23,446.497075 534.511,434.70355 586.552,411.446183 C636.817,388.980263 681.958,356.819371 720.723,315.859565 C759.487,274.896589 789.922,227.197324 811.183,174.083667 C833.193,119.092303 844.355,60.6804899 844.355,0.468106033 L838.739,0.468106033 Z" id="path-19"></path>
        <linearGradient x1="50.0000069%" y1="41.2279337%" x2="50.0000069%" y2="138.895209%" id="linearGradient-21">
            <stop stop-color="#170017" offset="0%"></stop>
            <stop stop-color="#750ECD" offset="100%"></stop>
        </linearGradient>
        <path d="M798.475,0.468106033 C798.475,56.9905887 788,111.821338 767.339,163.436633 C747.383,213.293623 718.813,258.070132 682.423,296.521397 C646.033,334.973718 603.659,365.162859 556.476,386.250878 C507.63,408.081737 455.739,419.151441 402.248,419.151441 C348.756,419.151441 296.867,408.081737 248.018,386.250878 C200.836,365.162859 158.462,334.973718 122.072,296.521397 C85.682,258.070132 57.112,213.293623 37.156,163.436633 C16.495,111.821338 6.02,56.9905887 6.02,0.468106033 L0.635,0.468106033 C0.635,57.7566764 11.254,113.333437 32.196,165.653532 C52.425,216.18785 81.381,261.571945 118.264,300.545207 C155.147,339.518468 198.097,370.116541 245.921,391.490918 C295.436,413.620815 348.032,424.841623 402.248,424.841623 C456.464,424.841623 509.06,413.620815 558.574,391.490918 C606.398,370.116541 649.349,339.518468 686.23,300.545207 C723.113,261.571945 752.07,216.18785 772.299,165.653532 C793.241,113.333437 803.86,57.7566764 803.86,0.468106033 L798.475,0.468106033 Z" id="path-22"></path>
        <linearGradient x1="50.0000073%" y1="43.3317632%" x2="50.0000073%" y2="145.982924%" id="linearGradient-24">
            <stop stop-color="#170017" offset="0%"></stop>
            <stop stop-color="#750ECD" offset="100%"></stop>
        </linearGradient>
        <path d="M757.212,0.468106033 C757.212,54.099532 747.272,106.125872 727.667,155.102654 C708.732,202.408837 681.624,244.895536 647.095,281.380333 C612.566,317.867243 572.358,346.511528 527.589,366.520684 C481.24,387.235697 432.004,397.739024 381.248,397.739024 C330.492,397.739024 281.256,387.235697 234.906,366.520684 C190.137,346.511528 149.93,317.867243 115.4,281.380333 C80.872,244.895536 53.763,202.408837 34.827,155.102654 C15.223,106.125872 5.283,54.099532 5.283,0.468106033 L0.129,0.468106033 C0.129,54.8328629 10.206,107.573514 30.08,157.223397 C49.276,205.179433 76.756,248.247302 111.757,285.231905 C146.757,322.215452 187.515,351.251762 232.899,371.536709 C279.887,392.537024 329.799,403.185115 381.248,403.185115 C432.697,403.185115 482.609,392.537024 529.596,371.536709 C574.981,351.251762 615.738,322.215452 650.739,285.231905 C685.739,248.247302 713.219,205.179433 732.415,157.223397 C752.289,107.573514 762.366,54.8328629 762.366,0.468106033 L757.212,0.468106033 Z" id="path-25"></path>
        <linearGradient x1="50.0000077%" y1="45.6619719%" x2="50.0000077%" y2="153.833301%" id="linearGradient-27">
            <stop stop-color="#170017" offset="0%"></stop>
            <stop stop-color="#750ECD" offset="100%"></stop>
        </linearGradient>
        <path d="M716.948,0.468106033 C716.948,100.863642 679.949,195.249879 612.767,266.240325 C545.583,337.229715 456.259,376.32555 361.248,376.32555 C266.237,376.32555 176.913,337.229715 109.729,266.240325 C42.547,195.249879 5.548,100.863642 5.548,0.468106033 L0.624,0.468106033 C0.624,51.9090494 10.159,101.814647 28.965,148.795375 C47.128,194.171016 73.13,234.922658 106.249,269.917547 C139.367,304.914548 177.934,332.389097 220.876,351.582501 C265.337,371.454289 312.566,381.528607 361.248,381.528607 C409.93,381.528607 457.159,371.454289 501.62,351.582501 C544.562,332.389097 583.129,304.914548 616.247,269.917547 C649.366,234.922658 675.368,194.171016 693.531,148.795375 C712.337,101.814647 721.872,51.9090494 721.872,0.468106033 L716.948,0.468106033 Z" id="path-28"></path>
        <linearGradient x1="50.0000065%" y1="48.2570424%" x2="50.0000065%" y2="162.575987%" id="linearGradient-30">
            <stop stop-color="#170017" offset="0%"></stop>
            <stop stop-color="#750ECD" offset="100%"></stop>
        </linearGradient>
        <path d="M675.685,0.468106033 C675.685,95.143872 640.793,184.153759 577.437,251.099261 C514.082,318.046878 429.847,354.91419 340.248,354.91419 C250.649,354.91419 166.414,318.046878 103.059,251.099261 C39.702,184.153759 4.811,95.143872 4.811,0.468106033 L0.119,0.468106033 C0.119,96.467883 35.498,186.72253 99.741,254.606358 C163.983,322.48913 249.396,359.873155 340.248,359.873155 C431.1,359.873155 516.513,322.48913 580.755,254.606358 C644.998,186.72253 680.376,96.467883 680.376,0.468106033 L675.685,0.468106033 Z" id="path-31"></path>
        <linearGradient x1="50.0000804%" y1="51.1647034%" x2="50.0000804%" y2="172.371777%" id="linearGradient-33">
            <stop stop-color="#170017" offset="0%"></stop>
            <stop stop-color="#750ECD" offset="100%"></stop>
        </linearGradient>
        <path d="M635.421,0.468106033 C635.421,89.425159 602.637,173.057638 543.108,235.959254 C483.581,298.86087 404.434,333.50283 320.248,333.50283 C236.062,333.50283 156.915,298.86087 97.387,235.959254 C37.858,173.057638 5.074,89.425159 5.074,0.468106033 L0.613,0.468106033 C0.613,90.6825996 33.86,175.500665 94.232,239.293057 C154.603,303.085448 234.87,338.217704 320.248,338.217704 C405.625,338.217704 485.893,303.085448 546.264,239.293057 C606.635,175.500665 639.882,90.6825996 639.882,0.468106033 L635.421,0.468106033 Z" id="path-34"></path>
        <linearGradient x1="50.0000092%" y1="54.4452247%" x2="50.0000092%" y2="183.423718%" id="linearGradient-36">
            <stop stop-color="#170017" offset="0%"></stop>
            <stop stop-color="#750ECD" offset="100%"></stop>
        </linearGradient>
        <path d="M594.157,0.468106033 C594.157,83.7053894 563.481,161.959404 507.78,220.81819 C452.079,279.67592 378.022,312.090413 299.248,312.090413 C220.474,312.090413 146.416,279.67592 90.715,220.81819 C35.014,161.959404 4.338,83.7053894 4.338,0.468106033 L0.107,0.468106033 C0.107,84.8994296 31.224,164.276687 87.723,223.978698 C144.224,283.680709 219.345,316.560139 299.248,316.560139 C379.151,316.560139 454.272,283.680709 510.772,223.978698 C567.271,164.276687 598.388,84.8994296 598.388,0.468106033 L594.157,0.468106033 Z" id="path-37"></path>
        <linearGradient x1="50.0000098%" y1="58.1756288%" x2="50.0000098%" y2="195.991295%" id="linearGradient-39">
            <stop stop-color="#170017" offset="0%"></stop>
            <stop stop-color="#750ECD" offset="100%"></stop>
        </linearGradient>
        <path d="M553.893,0.468106033 C553.893,77.9856197 525.326,150.86434 473.452,205.677126 C421.578,260.490969 352.608,290.677996 279.248,290.677996 C205.888,290.677996 136.918,260.490969 85.044,205.677126 C33.171,150.86434 4.603,77.9856197 4.603,0.468106033 L0.602,0.468106033 C0.602,79.1152029 29.587,153.054823 82.216,208.666453 C134.844,264.278084 204.819,294.904687 279.248,294.904687 C353.677,294.904687 423.652,264.278084 476.28,208.666453 C528.909,153.054823 557.894,79.1152029 557.894,0.468106033 L553.893,0.468106033 Z" id="path-40"></path>
        <linearGradient x1="50.0000084%" y1="62.4543753%" x2="50.0000084%" y2="210.406216%" id="linearGradient-42">
            <stop stop-color="#170017" offset="0%"></stop>
            <stop stop-color="#750ECD" offset="100%"></stop>
        </linearGradient>
        <path d="M512.63,0.468106033 C512.63,72.2669068 486.17,139.768219 438.123,190.537119 C390.077,241.307075 326.197,269.266636 258.248,269.266636 C190.299,269.266636 126.419,241.307075 78.373,190.537119 C30.326,139.768219 3.866,72.2669068 3.866,0.468106033 L0.097,0.468106033 C0.097,73.3309762 26.949,141.831901 75.708,193.352095 C124.466,244.875459 189.293,273.249236 258.248,273.249236 C327.203,273.249236 392.03,244.875459 440.788,193.352095 C489.547,141.831901 516.399,73.3309762 516.399,0.468106033 L512.63,0.468106033 Z" id="path-43"></path>
        <linearGradient x1="50.0000091%" y1="67.4124811%" x2="50.0000091%" y2="227.10987%" id="linearGradient-45">
            <stop stop-color="#170017" offset="0%"></stop>
            <stop stop-color="#750ECD" offset="100%"></stop>
        </linearGradient>
        <path d="M472.365,0.468106033 C472.365,66.5471371 448.012,128.672099 403.794,175.397112 C359.575,222.121068 300.783,247.854219 238.248,247.854219 C175.713,247.854219 116.919,222.121068 72.702,175.397112 C28.483,128.672099 4.13,66.5471371 4.13,0.468106033 L0.591,0.468106033 C0.591,67.5456929 25.311,130.60898 70.2,178.040907 C115.087,225.471777 174.768,251.593784 238.248,251.593784 C301.728,251.593784 361.409,225.471777 406.296,178.040907 C451.184,130.60898 475.904,67.5456929 475.904,0.468106033 L472.365,0.468106033 Z" id="path-46"></path>
        <linearGradient x1="50.0000123%" y1="73.2256967%" x2="50.0000123%" y2="246.694354%" id="linearGradient-48">
            <stop stop-color="#170017" offset="0%"></stop>
            <stop stop-color="#750ECD" offset="100%"></stop>
        </linearGradient>
        <path d="M431.101,0.468106033 C431.101,60.8273675 408.858,117.574921 368.466,160.256048 C328.074,202.936117 274.37,226.440746 217.248,226.440746 C160.125,226.440746 106.422,202.936117 66.03,160.256048 C25.638,117.574921 3.393,60.8273675 3.393,0.468106033 L0.086,0.468106033 C0.086,61.7614662 22.674,119.386059 63.69,162.727605 C104.707,206.068095 159.243,229.936219 217.248,229.936219 C275.253,229.936219 329.788,206.068095 370.805,162.727605 C411.821,119.386059 434.41,61.7614662 434.41,0.468106033 L431.101,0.468106033 Z" id="path-49"></path>
        <linearGradient x1="50.0000108%" y1="80.1368543%" x2="50.0000108%" y2="269.977759%" id="linearGradient-51">
            <stop stop-color="#170017" offset="0%"></stop>
            <stop stop-color="#750ECD" offset="100%"></stop>
        </linearGradient>
        <path d="M390.839,0.468106033 C390.839,113.263697 303.994,205.030442 197.248,205.030442 C90.501,205.030442 3.656,113.263697 3.656,0.468106033 L0.581,0.468106033 C0.581,115.055814 88.805,208.280768 197.248,208.280768 C305.69,208.280768 393.915,115.055814 393.915,0.468106033 L390.839,0.468106033 Z" id="path-52"></path>
        <linearGradient x1="49.9998878%" y1="88.4876436%" x2="49.9998878%" y2="298.111224%" id="linearGradient-54">
            <stop stop-color="#170017" offset="0%"></stop>
            <stop stop-color="#750ECD" offset="100%"></stop>
        </linearGradient>
        <path d="M349.575,0.468106033 C349.575,101.457492 271.821,183.618026 176.248,183.618026 C80.675,183.618026 2.921,101.457492 2.921,0.468106033 L0.075,0.468106033 C0.075,103.115411 79.105,186.625316 176.248,186.625316 C273.391,186.625316 352.421,103.115411 352.421,0.468106033 L349.575,0.468106033 Z" id="path-55"></path>
        <linearGradient x1="50.0000133%" y1="98.7813082%" x2="50.0000133%" y2="332.790155%" id="linearGradient-57">
            <stop stop-color="#170017" offset="0%"></stop>
            <stop stop-color="#750ECD" offset="100%"></stop>
        </linearGradient>
        <path d="M309.311,0.468106033 C309.311,89.6502303 240.647,162.206665 156.248,162.206665 C71.848,162.206665 3.185,89.6502303 3.185,0.468106033 L0.569,0.468106033 C0.569,91.1750091 70.406,164.968808 156.248,164.968808 C242.089,164.968808 311.926,91.1750091 311.926,0.468106033 L309.311,0.468106033 Z" id="path-58"></path>
        <linearGradient x1="50.0000188%" y1="111.785862%" x2="50.0000188%" y2="376.601961%" id="linearGradient-60">
            <stop stop-color="#170017" offset="0%"></stop>
            <stop stop-color="#750ECD" offset="100%"></stop>
        </linearGradient>
        <path d="M268.047,0.468106033 C268.047,77.8429689 208.473,140.792135 135.248,140.792135 C62.022,140.792135 2.448,77.8429689 2.448,0.468106033 L0.063,0.468106033 C0.063,79.2314369 60.707,143.3123 135.248,143.3123 C209.788,143.3123 270.431,79.2314369 270.431,0.468106033 L268.047,0.468106033 Z" id="path-61"></path>
        <linearGradient x1="50.0002066%" y1="128.733638%" x2="50.0002066%" y2="433.69832%" id="linearGradient-63">
            <stop stop-color="#170017" offset="0%"></stop>
            <stop stop-color="#750ECD" offset="100%"></stop>
        </linearGradient>
        <path d="M227.784,0.468106033 C227.784,66.0357075 177.3,119.380775 115.248,119.380775 C53.195,119.380775 2.712,66.0357075 2.712,0.468106033 L0.558,0.468106033 C0.558,67.2920914 52.008,121.656848 115.248,121.656848 C178.488,121.656848 229.937,67.2920914 229.937,0.468106033 L227.784,0.468106033 Z" id="path-64"></path>
        <linearGradient x1="50.0000255%" y1="151.737302%" x2="50.0000255%" y2="511.196715%" id="linearGradient-66">
            <stop stop-color="#170017" offset="0%"></stop>
            <stop stop-color="#750ECD" offset="100%"></stop>
        </linearGradient>
        <path d="M186.519,0.468106033 C186.519,54.2295027 145.127,97.9683583 94.248,97.9683583 C43.369,97.9683583 1.977,54.2295027 1.977,0.468106033 L0.053,0.468106033 C0.053,55.3516892 42.309,100.001397 94.248,100.001397 C146.187,100.001397 188.443,55.3516892 188.443,0.468106033 L186.519,0.468106033 Z" id="path-67"></path>
        <linearGradient x1="50.0000249%" y1="184.750777%" x2="50.0000249%" y2="622.417751%" id="linearGradient-69">
            <stop stop-color="#170017" offset="0%"></stop>
            <stop stop-color="#750ECD" offset="100%"></stop>
        </linearGradient>
        <path d="M146.256,0.468106033 C146.256,42.423298 113.953,76.5580548 74.248,76.5580548 C34.543,76.5580548 2.24,42.423298 2.24,0.468106033 L0.547,0.468106033 C0.547,43.4091737 33.609,78.3448885 74.248,78.3448885 C114.885,78.3448885 147.947,43.4091737 147.947,0.468106033 L146.256,0.468106033 Z" id="path-70"></path>
        <linearGradient x1="50.000379%" y1="236.127536%" x2="50.000379%" y2="795.503936%" id="linearGradient-72">
            <stop stop-color="#170017" offset="0%"></stop>
            <stop stop-color="#750ECD" offset="100%"></stop>
        </linearGradient>
        <path d="M104.992,0.468106033 C104.992,30.6160366 81.779,55.1445814 53.248,55.1445814 C24.716,55.1445814 1.503,30.6160366 1.503,0.468106033 L0.042,0.468106033 C0.042,31.4687715 23.91,56.6883803 53.248,56.6883803 C82.586,56.6883803 106.453,31.4687715 106.453,0.468106033 L104.992,0.468106033 Z" id="path-73"></path>
        <linearGradient x1="50.0000551%" y1="327.085789%" x2="50.0000551%" y2="1101.93854%" id="linearGradient-75">
            <stop stop-color="#170017" offset="0%"></stop>
            <stop stop-color="#750ECD" offset="100%"></stop>
        </linearGradient>
        <path d="M64.729,0.468106033 C64.729,18.8098318 50.607,33.7321645 33.248,33.7321645 C15.889,33.7321645 1.766,18.8098318 1.766,0.468106033 L0.536,0.468106033 C0.536,19.5262559 15.211,35.0329287 33.248,35.0329287 C51.285,35.0329287 65.959,19.5262559 65.959,0.468106033 L64.729,0.468106033 Z" id="path-76"></path>
        <linearGradient x1="50.0000896%" y1="532.010621%" x2="50.0000896%" y2="1792.32185%" id="linearGradient-78">
            <stop stop-color="#170017" offset="0%"></stop>
            <stop stop-color="#750ECD" offset="100%"></stop>
        </linearGradient>
        <path d="M23.465,0.468106033 C23.465,7.00257038 18.432,12.3197477 12.248,12.3197477 C6.064,12.3197477 1.031,7.00257038 1.031,0.468106033 L0.031,0.468106033 C0.031,7.58585375 5.512,13.3764205 12.248,13.3764205 C18.984,13.3764205 24.465,7.58585375 24.465,0.468106033 L23.465,0.468106033 Z" id="path-79"></path>
        <linearGradient x1="50.0001919%" y1="1424.57428%" x2="50.0001919%" y2="4799.33203%" id="linearGradient-81">
            <stop stop-color="#170017" offset="0%"></stop>
            <stop stop-color="#750ECD" offset="100%"></stop>
        </linearGradient>
    </defs>
    <g id="ideas" stroke="none" stroke-width="1" fill="none" fill-rule="evenodd" opacity="0.25">
        <g id="HOME-1" transform="translate(-70.000000, -4117.000000)">
            <g id="Group-83" transform="translate(70.000000, 4116.000000)">
                <g id="Group-82">
                    <g id="Group-3" transform="translate(0.000000, 0.588567)">
                        <mask id="mask-2" fill="white">
                            <use xlink:href="#path-1"></use>
                        </mask>
                        <g id="Clip-2"></g>
                        <path d="M1083.323,0.468106033 C1083.323,77.225872 1069.095,151.685375 1041.039,221.778706 C1013.939,289.482899 975.141,350.289133 925.724,402.506731 C876.306,454.723272 818.763,495.720062 754.689,524.356951 C688.356,554.002962 617.888,569.036245 545.248,569.036245 C472.607,569.036245 402.14,554.002962 335.806,524.356951 C271.732,495.720062 214.189,454.723272 164.772,402.506731 C115.354,350.289133 76.556,289.482899 49.456,221.778706 C21.399,151.685375 7.173,77.225872 7.173,0.468106033 L0.173,0.468106033 C0.173,78.2212578 14.585,153.649729 43.009,224.660252 C70.462,293.245711 109.765,354.842336 159.822,407.736205 C209.879,460.63113 268.172,502.160483 333.079,531.16932 C400.281,561.204186 471.665,576.432954 545.248,576.432954 C618.831,576.432954 690.215,561.204186 757.416,531.16932 C822.324,502.160483 880.616,460.63113 930.673,407.736205 C980.731,354.842336 1020.032,293.245711 1047.486,224.660252 C1075.91,153.649729 1090.322,78.2212578 1090.322,0.468106033 L1083.323,0.468106033 Z" id="Fill-1" fill="url(#linearGradient-3)" mask="url(#mask-2)"></path>
                    </g>
                    <g id="Group-6" transform="translate(20.000000, 0.588567)">
                        <mask id="mask-5" fill="white">
                            <use xlink:href="#path-4"></use>
                        </mask>
                        <g id="Clip-5"></g>
                        <path d="M1043.059,0.468106033 C1043.059,74.3348154 1029.368,145.990965 1002.368,213.445784 C976.288,278.600227 938.951,337.115594 891.396,387.365667 C843.839,437.616797 788.462,477.069788 726.802,504.626757 C662.966,533.156921 595.153,547.623828 525.248,547.623828 C455.343,547.623828 387.53,533.156921 323.693,504.626757 C262.034,477.069788 206.657,437.616797 159.101,387.365667 C111.545,337.115594 74.208,278.600227 48.128,213.445784 C21.128,145.990965 7.437,74.3348154 7.437,0.468106033 L0.668,0.468106033 C0.668,75.2974442 14.538,147.890863 41.894,216.231174 C68.314,282.238351 106.138,341.51875 154.313,392.425016 C202.49,443.32917 258.59,483.296761 321.056,511.216168 C385.731,540.121452 454.432,554.777503 525.248,554.777503 C596.064,554.777503 664.764,540.121452 729.44,511.216168 C791.906,483.296761 848.006,443.32917 896.182,392.425016 C944.358,341.51875 982.18,282.238351 1008.602,216.231174 C1035.958,147.890863 1049.828,75.2974442 1049.828,0.468106033 L1043.059,0.468106033 Z" id="Fill-4" fill="url(#linearGradient-6)" mask="url(#mask-5)"></path>
                    </g>
                    <g id="Group-9" transform="translate(41.000000, 0.588567)">
                        <mask id="mask-8" fill="white">
                            <use xlink:href="#path-7"></use>
                        </mask>
                        <g id="Clip-8"></g>
                        <path d="M1001.794,0.468106033 C1001.794,71.4437587 988.639,140.295499 962.696,205.11075 C937.636,267.715441 901.761,323.940998 856.067,372.224603 C810.371,420.509265 757.161,458.418457 697.914,484.89762 C636.576,512.311938 571.418,526.212468 504.248,526.212468 C437.078,526.212468 371.919,512.311938 310.581,484.89762 C251.334,458.418457 198.124,420.509265 152.429,372.224603 C106.735,323.940998 70.858,267.715441 45.798,205.11075 C19.856,140.295499 6.701,71.4437587 6.701,0.468106033 L0.162,0.468106033 C0.162,72.3736307 13.49,142.13094 39.777,207.801038 C65.166,271.228878 101.513,328.194106 147.805,377.110658 C194.099,426.02721 248.008,464.434095 308.034,491.26196 C370.183,519.036603 436.199,533.122051 504.248,533.122051 C572.297,533.122051 638.313,519.036603 700.462,491.26196 C760.488,464.434095 814.397,426.02721 860.689,377.110658 C906.983,328.194106 943.329,271.228878 968.718,207.801038 C995.005,142.13094 1008.333,72.3736307 1008.333,0.468106033 L1001.794,0.468106033 Z" id="Fill-7" fill="url(#linearGradient-9)" mask="url(#mask-8)"></path>
                    </g>
                    <g id="Group-12" transform="translate(61.000000, 0.588567)">
                        <mask id="mask-11" fill="white">
                            <use xlink:href="#path-10"></use>
                        </mask>
                        <g id="Clip-11"></g>
                        <path d="M961.53,0.468106033 C961.53,68.5537587 948.912,134.60109 924.024,196.774658 C899.986,256.830654 865.571,310.766402 821.739,357.084596 C777.904,403.40279 726.862,439.766069 670.027,465.168483 C611.187,491.466954 548.682,504.800051 484.248,504.800051 C419.814,504.800051 357.309,491.466954 298.469,465.168483 C241.634,439.766069 190.591,403.40279 146.757,357.084596 C102.924,310.766402 68.509,256.830654 44.471,196.774658 C19.583,134.60109 6.965,68.5537587 6.965,0.468106033 L0.656,0.468106033 C0.656,69.4508739 13.443,136.372073 38.661,199.37196 C63.018,260.221517 97.886,314.869463 142.297,361.797356 C186.708,408.72525 238.425,445.570373 296.012,471.307751 C355.633,497.953868 418.965,511.465543 484.248,511.465543 C549.531,511.465543 612.863,497.953868 672.484,471.307751 C730.07,445.570373 781.787,408.72525 826.198,361.797356 C870.609,314.869463 905.477,260.221517 929.834,199.37196 C955.052,136.372073 967.839,69.4508739 967.839,0.468106033 L961.53,0.468106033 Z" id="Fill-10" fill="url(#linearGradient-12)" mask="url(#mask-11)"></path>
                    </g>
                    <g id="Group-15" transform="translate(82.000000, 0.588567)">
                        <mask id="mask-14" fill="white">
                            <use xlink:href="#path-13"></use>
                        </mask>
                        <g id="Clip-14"></g>
                        <path d="M920.268,0.468106033 C920.268,65.662702 908.184,128.905623 884.353,188.44068 C861.335,245.945868 828.382,297.591806 786.409,341.943532 C744.436,386.294201 695.56,421.115795 641.14,445.438289 C584.798,470.619857 524.946,483.388691 463.248,483.388691 C401.55,483.388691 341.698,470.619857 285.356,445.438289 C230.934,421.115795 182.059,386.294201 140.085,341.943532 C98.113,297.591806 65.16,245.945868 42.141,188.44068 C18.312,128.905623 6.228,65.662702 6.228,0.468106033 L0.152,0.468106033 C0.152,66.5270603 12.395,130.61215 36.545,190.942881 C59.869,249.213101 93.259,301.545876 135.789,346.484055 C178.318,391.423291 227.844,426.706651 282.989,451.352486 C340.084,476.870077 400.732,489.807978 463.248,489.807978 C525.764,489.807978 586.412,476.870077 643.507,451.352486 C698.652,426.706651 748.178,391.423291 790.707,346.484055 C833.235,301.545876 866.626,249.213101 889.95,190.942881 C914.1,130.61215 926.344,66.5270603 926.344,0.468106033 L920.268,0.468106033 Z" id="Fill-13" fill="url(#linearGradient-15)" mask="url(#mask-14)"></path>
                    </g>
                    <g id="Group-18" transform="translate(102.000000, 0.588567)">
                        <mask id="mask-17" fill="white">
                            <use xlink:href="#path-16"></use>
                        </mask>
                        <g id="Clip-17"></g>
                        <path d="M880.004,0.468106033 C880.004,62.7716453 868.456,123.212271 845.683,180.105645 C823.685,235.063196 792.192,284.418267 752.081,326.803525 C711.969,369.187726 665.26,402.464464 613.252,425.710208 C559.408,449.772761 502.211,461.975218 443.248,461.975218 C384.285,461.975218 327.087,449.772761 273.244,425.710208 C221.236,402.464464 174.527,369.187726 134.415,326.803525 C94.304,284.418267 62.811,235.063196 40.813,180.105645 C18.04,123.212271 6.492,62.7716453 6.492,0.468106033 L0.646,0.468106033 C0.646,63.6043035 12.348,124.852227 35.43,182.512746 C57.722,238.204684 89.635,288.221232 130.282,331.17181 C170.927,374.121331 218.262,407.842929 270.967,431.398278 C325.534,455.787342 383.498,468.153583 443.248,468.153583 C502.997,468.153583 560.961,455.787342 615.529,431.398278 C668.234,407.842929 715.568,374.121331 756.214,331.17181 C796.861,288.221232 828.774,238.204684 851.066,182.512746 C874.148,124.852227 885.85,63.6043035 885.85,0.468106033 L880.004,0.468106033 Z" id="Fill-16" fill="url(#linearGradient-18)" mask="url(#mask-17)"></path>
                    </g>
                    <g id="Group-21" transform="translate(123.000000, 0.588567)">
                        <mask id="mask-20" fill="white">
                            <use xlink:href="#path-19"></use>
                        </mask>
                        <g id="Clip-20"></g>
                        <path d="M838.739,0.468106033 C838.739,59.8816453 827.727,117.516804 806.01,171.772724 C785.033,224.17841 755.002,271.244728 716.752,311.663517 C678.501,352.08125 633.959,383.81419 584.365,405.980015 C533.019,428.927777 478.476,440.563857 422.248,440.563857 C366.02,440.563857 311.477,428.927777 260.131,405.980015 C210.536,383.81419 165.994,352.08125 127.743,311.663517 C89.493,271.244728 59.462,224.17841 38.484,171.772724 C16.768,117.516804 5.755,59.8816453 5.755,0.468106033 L0.14,0.468106033 C0.14,60.6804899 11.302,119.092303 33.313,174.083667 C54.573,227.197324 85.008,274.897645 123.772,315.859565 C162.537,356.819371 207.679,388.980263 257.944,411.446183 C309.985,434.70355 365.265,446.497075 422.248,446.497075 C479.23,446.497075 534.511,434.70355 586.552,411.446183 C636.817,388.980263 681.958,356.819371 720.723,315.859565 C759.487,274.896589 789.922,227.197324 811.183,174.083667 C833.193,119.092303 844.355,60.6804899 844.355,0.468106033 L838.739,0.468106033 Z" id="Fill-19" fill="url(#linearGradient-21)" mask="url(#mask-20)"></path>
                    </g>
                    <g id="Group-24" transform="translate(143.000000, 0.588567)">
                        <mask id="mask-23" fill="white">
                            <use xlink:href="#path-22"></use>
                        </mask>
                        <g id="Clip-23"></g>
                        <path d="M798.475,0.468106033 C798.475,56.9905887 788,111.821338 767.339,163.436633 C747.383,213.293623 718.813,258.070132 682.423,296.521397 C646.033,334.973718 603.659,365.162859 556.476,386.250878 C507.63,408.081737 455.739,419.151441 402.248,419.151441 C348.756,419.151441 296.867,408.081737 248.018,386.250878 C200.836,365.162859 158.462,334.973718 122.072,296.521397 C85.682,258.070132 57.112,213.293623 37.156,163.436633 C16.495,111.821338 6.02,56.9905887 6.02,0.468106033 L0.635,0.468106033 C0.635,57.7566764 11.254,113.333437 32.196,165.653532 C52.425,216.18785 81.381,261.571945 118.264,300.545207 C155.147,339.518468 198.097,370.116541 245.921,391.490918 C295.436,413.620815 348.032,424.841623 402.248,424.841623 C456.464,424.841623 509.06,413.620815 558.574,391.490918 C606.398,370.116541 649.349,339.518468 686.23,300.545207 C723.113,261.571945 752.07,216.18785 772.299,165.653532 C793.241,113.333437 803.86,57.7566764 803.86,0.468106033 L798.475,0.468106033 Z" id="Fill-22" fill="url(#linearGradient-24)" mask="url(#mask-23)"></path>
                    </g>
                    <g id="Group-27" transform="translate(164.000000, 0.588567)">
                        <mask id="mask-26" fill="white">
                            <use xlink:href="#path-25"></use>
                        </mask>
                        <g id="Clip-26"></g>
                        <path d="M757.212,0.468106033 C757.212,54.099532 747.272,106.125872 727.667,155.102654 C708.732,202.408837 681.624,244.895536 647.095,281.380333 C612.566,317.867243 572.358,346.511528 527.589,366.520684 C481.24,387.235697 432.004,397.739024 381.248,397.739024 C330.492,397.739024 281.256,387.235697 234.906,366.520684 C190.137,346.511528 149.93,317.867243 115.4,281.380333 C80.872,244.895536 53.763,202.408837 34.827,155.102654 C15.223,106.125872 5.283,54.099532 5.283,0.468106033 L0.129,0.468106033 C0.129,54.8328629 10.206,107.573514 30.08,157.223397 C49.276,205.179433 76.756,248.247302 111.757,285.231905 C146.757,322.215452 187.515,351.251762 232.899,371.536709 C279.887,392.537024 329.799,403.185115 381.248,403.185115 C432.697,403.185115 482.609,392.537024 529.596,371.536709 C574.981,351.251762 615.738,322.215452 650.739,285.231905 C685.739,248.247302 713.219,205.179433 732.415,157.223397 C752.289,107.573514 762.366,54.8328629 762.366,0.468106033 L757.212,0.468106033 Z" id="Fill-25" fill="url(#linearGradient-27)" mask="url(#mask-26)"></path>
                    </g>
                    <g id="Group-30" transform="translate(184.000000, 0.588567)">
                        <mask id="mask-29" fill="white">
                            <use xlink:href="#path-28"></use>
                        </mask>
                        <g id="Clip-29"></g>
                        <path d="M716.948,0.468106033 C716.948,100.863642 679.949,195.249879 612.767,266.240325 C545.583,337.229715 456.259,376.32555 361.248,376.32555 C266.237,376.32555 176.913,337.229715 109.729,266.240325 C42.547,195.249879 5.548,100.863642 5.548,0.468106033 L0.624,0.468106033 C0.624,51.9090494 10.159,101.814647 28.965,148.795375 C47.128,194.171016 73.13,234.922658 106.249,269.917547 C139.367,304.914548 177.934,332.389097 220.876,351.582501 C265.337,371.454289 312.566,381.528607 361.248,381.528607 C409.93,381.528607 457.159,371.454289 501.62,351.582501 C544.562,332.389097 583.129,304.914548 616.247,269.917547 C649.366,234.922658 675.368,194.171016 693.531,148.795375 C712.337,101.814647 721.872,51.9090494 721.872,0.468106033 L716.948,0.468106033 Z" id="Fill-28" fill="url(#linearGradient-30)" mask="url(#mask-29)"></path>
                    </g>
                    <g id="Group-33" transform="translate(205.000000, 0.588567)">
                        <mask id="mask-32" fill="white">
                            <use xlink:href="#path-31"></use>
                        </mask>
                        <g id="Clip-32"></g>
                        <path d="M675.685,0.468106033 C675.685,95.143872 640.793,184.153759 577.437,251.099261 C514.082,318.046878 429.847,354.91419 340.248,354.91419 C250.649,354.91419 166.414,318.046878 103.059,251.099261 C39.702,184.153759 4.811,95.143872 4.811,0.468106033 L0.119,0.468106033 C0.119,96.467883 35.498,186.72253 99.741,254.606358 C163.983,322.48913 249.396,359.873155 340.248,359.873155 C431.1,359.873155 516.513,322.48913 580.755,254.606358 C644.998,186.72253 680.376,96.467883 680.376,0.468106033 L675.685,0.468106033 Z" id="Fill-31" fill="url(#linearGradient-33)" mask="url(#mask-32)"></path>
                    </g>
                    <g id="Group-36" transform="translate(225.000000, 0.588567)">
                        <mask id="mask-35" fill="white">
                            <use xlink:href="#path-34"></use>
                        </mask>
                        <g id="Clip-35"></g>
                        <path d="M635.421,0.468106033 C635.421,89.425159 602.637,173.057638 543.108,235.959254 C483.581,298.86087 404.434,333.50283 320.248,333.50283 C236.062,333.50283 156.915,298.86087 97.387,235.959254 C37.858,173.057638 5.074,89.425159 5.074,0.468106033 L0.613,0.468106033 C0.613,90.6825996 33.86,175.500665 94.232,239.293057 C154.603,303.085448 234.87,338.217704 320.248,338.217704 C405.625,338.217704 485.893,303.085448 546.264,239.293057 C606.635,175.500665 639.882,90.6825996 639.882,0.468106033 L635.421,0.468106033 Z" id="Fill-34" fill="url(#linearGradient-36)" mask="url(#mask-35)"></path>
                    </g>
                    <g id="Group-39" transform="translate(246.000000, 0.588567)">
                        <mask id="mask-38" fill="white">
                            <use xlink:href="#path-37"></use>
                        </mask>
                        <g id="Clip-38"></g>
                        <path d="M594.157,0.468106033 C594.157,83.7053894 563.481,161.959404 507.78,220.81819 C452.079,279.67592 378.022,312.090413 299.248,312.090413 C220.474,312.090413 146.416,279.67592 90.715,220.81819 C35.014,161.959404 4.338,83.7053894 4.338,0.468106033 L0.107,0.468106033 C0.107,84.8994296 31.224,164.276687 87.723,223.978698 C144.224,283.680709 219.345,316.560139 299.248,316.560139 C379.151,316.560139 454.272,283.680709 510.772,223.978698 C567.271,164.276687 598.388,84.8994296 598.388,0.468106033 L594.157,0.468106033 Z" id="Fill-37" fill="url(#linearGradient-39)" mask="url(#mask-38)"></path>
                    </g>
                    <g id="Group-42" transform="translate(266.000000, 0.588567)">
                        <mask id="mask-41" fill="white">
                            <use xlink:href="#path-40"></use>
                        </mask>
                        <g id="Clip-41"></g>
                        <path d="M553.893,0.468106033 C553.893,77.9856197 525.326,150.86434 473.452,205.677126 C421.578,260.490969 352.608,290.677996 279.248,290.677996 C205.888,290.677996 136.918,260.490969 85.044,205.677126 C33.171,150.86434 4.603,77.9856197 4.603,0.468106033 L0.602,0.468106033 C0.602,79.1152029 29.587,153.054823 82.216,208.666453 C134.844,264.278084 204.819,294.904687 279.248,294.904687 C353.677,294.904687 423.652,264.278084 476.28,208.666453 C528.909,153.054823 557.894,79.1152029 557.894,0.468106033 L553.893,0.468106033 Z" id="Fill-40" fill="url(#linearGradient-42)" mask="url(#mask-41)"></path>
                    </g>
                    <g id="Group-45" transform="translate(287.000000, 0.588567)">
                        <mask id="mask-44" fill="white">
                            <use xlink:href="#path-43"></use>
                        </mask>
                        <g id="Clip-44"></g>
                        <path d="M512.63,0.468106033 C512.63,72.2669068 486.17,139.768219 438.123,190.537119 C390.077,241.307075 326.197,269.266636 258.248,269.266636 C190.299,269.266636 126.419,241.307075 78.373,190.537119 C30.326,139.768219 3.866,72.2669068 3.866,0.468106033 L0.097,0.468106033 C0.097,73.3309762 26.949,141.831901 75.708,193.352095 C124.466,244.875459 189.293,273.249236 258.248,273.249236 C327.203,273.249236 392.03,244.875459 440.788,193.352095 C489.547,141.831901 516.399,73.3309762 516.399,0.468106033 L512.63,0.468106033 Z" id="Fill-43" fill="url(#linearGradient-45)" mask="url(#mask-44)"></path>
                    </g>
                    <g id="Group-48" transform="translate(307.000000, 0.588567)">
                        <mask id="mask-47" fill="white">
                            <use xlink:href="#path-46"></use>
                        </mask>
                        <g id="Clip-47"></g>
                        <path d="M472.365,0.468106033 C472.365,66.5471371 448.012,128.672099 403.794,175.397112 C359.575,222.121068 300.783,247.854219 238.248,247.854219 C175.713,247.854219 116.919,222.121068 72.702,175.397112 C28.483,128.672099 4.13,66.5471371 4.13,0.468106033 L0.591,0.468106033 C0.591,67.5456929 25.311,130.60898 70.2,178.040907 C115.087,225.471777 174.768,251.593784 238.248,251.593784 C301.728,251.593784 361.409,225.471777 406.296,178.040907 C451.184,130.60898 475.904,67.5456929 475.904,0.468106033 L472.365,0.468106033 Z" id="Fill-46" fill="url(#linearGradient-48)" mask="url(#mask-47)"></path>
                    </g>
                    <g id="Group-51" transform="translate(328.000000, 0.588567)">
                        <mask id="mask-50" fill="white">
                            <use xlink:href="#path-49"></use>
                        </mask>
                        <g id="Clip-50"></g>
                        <path d="M431.101,0.468106033 C431.101,60.8273675 408.858,117.574921 368.466,160.256048 C328.074,202.936117 274.37,226.440746 217.248,226.440746 C160.125,226.440746 106.422,202.936117 66.03,160.256048 C25.638,117.574921 3.393,60.8273675 3.393,0.468106033 L0.086,0.468106033 C0.086,61.7614662 22.674,119.386059 63.69,162.727605 C104.707,206.068095 159.243,229.936219 217.248,229.936219 C275.253,229.936219 329.788,206.068095 370.805,162.727605 C411.821,119.386059 434.41,61.7614662 434.41,0.468106033 L431.101,0.468106033 Z" id="Fill-49" fill="url(#linearGradient-51)" mask="url(#mask-50)"></path>
                    </g>
                    <g id="Group-54" transform="translate(348.000000, 0.588567)">
                        <mask id="mask-53" fill="white">
                            <use xlink:href="#path-52"></use>
                        </mask>
                        <g id="Clip-53"></g>
                        <path d="M390.839,0.468106033 C390.839,113.263697 303.994,205.030442 197.248,205.030442 C90.501,205.030442 3.656,113.263697 3.656,0.468106033 L0.581,0.468106033 C0.581,115.055814 88.805,208.280768 197.248,208.280768 C305.69,208.280768 393.915,115.055814 393.915,0.468106033 L390.839,0.468106033 Z" id="Fill-52" fill="url(#linearGradient-54)" mask="url(#mask-53)"></path>
                    </g>
                    <g id="Group-57" transform="translate(369.000000, 0.588567)">
                        <mask id="mask-56" fill="white">
                            <use xlink:href="#path-55"></use>
                        </mask>
                        <g id="Clip-56"></g>
                        <path d="M349.575,0.468106033 C349.575,101.457492 271.821,183.618026 176.248,183.618026 C80.675,183.618026 2.921,101.457492 2.921,0.468106033 L0.075,0.468106033 C0.075,103.115411 79.105,186.625316 176.248,186.625316 C273.391,186.625316 352.421,103.115411 352.421,0.468106033 L349.575,0.468106033 Z" id="Fill-55" fill="url(#linearGradient-57)" mask="url(#mask-56)"></path>
                    </g>
                    <g id="Group-60" transform="translate(389.000000, 0.588567)">
                        <mask id="mask-59" fill="white">
                            <use xlink:href="#path-58"></use>
                        </mask>
                        <g id="Clip-59"></g>
                        <path d="M309.311,0.468106033 C309.311,89.6502303 240.647,162.206665 156.248,162.206665 C71.848,162.206665 3.185,89.6502303 3.185,0.468106033 L0.569,0.468106033 C0.569,91.1750091 70.406,164.968808 156.248,164.968808 C242.089,164.968808 311.926,91.1750091 311.926,0.468106033 L309.311,0.468106033 Z" id="Fill-58" fill="url(#linearGradient-60)" mask="url(#mask-59)"></path>
                    </g>
                    <g id="Group-63" transform="translate(410.000000, 0.588567)">
                        <mask id="mask-62" fill="white">
                            <use xlink:href="#path-61"></use>
                        </mask>
                        <g id="Clip-62"></g>
                        <path d="M268.047,0.468106033 C268.047,77.8429689 208.473,140.792135 135.248,140.792135 C62.022,140.792135 2.448,77.8429689 2.448,0.468106033 L0.063,0.468106033 C0.063,79.2314369 60.707,143.3123 135.248,143.3123 C209.788,143.3123 270.431,79.2314369 270.431,0.468106033 L268.047,0.468106033 Z" id="Fill-61" fill="url(#linearGradient-63)" mask="url(#mask-62)"></path>
                    </g>
                    <g id="Group-66" transform="translate(430.000000, 0.588567)">
                        <mask id="mask-65" fill="white">
                            <use xlink:href="#path-64"></use>
                        </mask>
                        <g id="Clip-65"></g>
                        <path d="M227.784,0.468106033 C227.784,66.0357075 177.3,119.380775 115.248,119.380775 C53.195,119.380775 2.712,66.0357075 2.712,0.468106033 L0.558,0.468106033 C0.558,67.2920914 52.008,121.656848 115.248,121.656848 C178.488,121.656848 229.937,67.2920914 229.937,0.468106033 L227.784,0.468106033 Z" id="Fill-64" fill="url(#linearGradient-66)" mask="url(#mask-65)"></path>
                    </g>
                    <g id="Group-69" transform="translate(451.000000, 0.588567)">
                        <mask id="mask-68" fill="white">
                            <use xlink:href="#path-67"></use>
                        </mask>
                        <g id="Clip-68"></g>
                        <path d="M186.519,0.468106033 C186.519,54.2295027 145.127,97.9683583 94.248,97.9683583 C43.369,97.9683583 1.977,54.2295027 1.977,0.468106033 L0.053,0.468106033 C0.053,55.3516892 42.309,100.001397 94.248,100.001397 C146.187,100.001397 188.443,55.3516892 188.443,0.468106033 L186.519,0.468106033 Z" id="Fill-67" fill="url(#linearGradient-69)" mask="url(#mask-68)"></path>
                    </g>
                    <g id="Group-72" transform="translate(471.000000, 0.588567)">
                        <mask id="mask-71" fill="white">
                            <use xlink:href="#path-70"></use>
                        </mask>
                        <g id="Clip-71"></g>
                        <path d="M146.256,0.468106033 C146.256,42.423298 113.953,76.5580548 74.248,76.5580548 C34.543,76.5580548 2.24,42.423298 2.24,0.468106033 L0.547,0.468106033 C0.547,43.4091737 33.609,78.3448885 74.248,78.3448885 C114.885,78.3448885 147.947,43.4091737 147.947,0.468106033 L146.256,0.468106033 Z" id="Fill-70" fill="url(#linearGradient-72)" mask="url(#mask-71)"></path>
                    </g>
                    <g id="Group-75" transform="translate(492.000000, 0.588567)">
                        <mask id="mask-74" fill="white">
                            <use xlink:href="#path-73"></use>
                        </mask>
                        <g id="Clip-74"></g>
                        <path d="M104.992,0.468106033 C104.992,30.6160366 81.779,55.1445814 53.248,55.1445814 C24.716,55.1445814 1.503,30.6160366 1.503,0.468106033 L0.042,0.468106033 C0.042,31.4687715 23.91,56.6883803 53.248,56.6883803 C82.586,56.6883803 106.453,31.4687715 106.453,0.468106033 L104.992,0.468106033 Z" id="Fill-73" fill="url(#linearGradient-75)" mask="url(#mask-74)"></path>
                    </g>
                    <g id="Group-78" transform="translate(512.000000, 0.588567)">
                        <mask id="mask-77" fill="white">
                            <use xlink:href="#path-76"></use>
                        </mask>
                        <g id="Clip-77"></g>
                        <path d="M64.729,0.468106033 C64.729,18.8098318 50.607,33.7321645 33.248,33.7321645 C15.889,33.7321645 1.766,18.8098318 1.766,0.468106033 L0.536,0.468106033 C0.536,19.5262559 15.211,35.0329287 33.248,35.0329287 C51.285,35.0329287 65.959,19.5262559 65.959,0.468106033 L64.729,0.468106033 Z" id="Fill-76" fill="url(#linearGradient-78)" mask="url(#mask-77)"></path>
                    </g>
                    <g id="Group-81" transform="translate(533.000000, 0.588567)">
                        <mask id="mask-80" fill="white">
                            <use xlink:href="#path-79"></use>
                        </mask>
                        <g id="Clip-80"></g>
                        <path d="M23.465,0.468106033 C23.465,7.00257038 18.432,12.3197477 12.248,12.3197477 C6.064,12.3197477 1.031,7.00257038 1.031,0.468106033 L0.031,0.468106033 C0.031,7.58585375 5.512,13.3764205 12.248,13.3764205 C18.984,13.3764205 24.465,7.58585375 24.465,0.468106033 L23.465,0.468106033 Z" id="Fill-79" fill="url(#linearGradient-81)" mask="url(#mask-80)"></path>
                    </g>
                </g>
            </g>
        </g>
    </g>
</svg>