<?xml version="1.0" encoding="UTF-8"?>
<svg width="254px" height="48px" viewBox="0 0 254 48" version="1.1" xmlns="http://www.w3.org/2000/svg" xmlns:xlink="http://www.w3.org/1999/xlink">
  <title>GRUPO PI&amp;NTILDE;ERO</title>
  <g id="DESK" stroke="none" stroke-width="1" fill="none" fill-rule="evenodd">
    <g id="UNIDADES-DE-NEGOCIO" transform="translate(-72.000000, -72.000000)">
      <g id="logopinero" transform="translate(72.000000, 72.000000)">
        <path d="M23.5454961,15.8765299 C23.3379117,16.5048935 23.707574,16.4612571 24.0211325,16.2493091 C24.6713143,15.8098286 25.2304831,14.8473351 25.5471584,14.1628675 C26.2989506,12.5371013 26.2297558,10.6950234 25.7011325,9.01252987 C24.4612364,5.06156883 22.3492364,4.12525714 23.4326649,0.95227013 C23.6601974,0.286503896 23.3223273,0.251594805 23.1421714,0.502192208 C22.8834701,0.862503896 19.938639,4.51486753 21.360561,8.29065974 C22.7176519,11.8944 24.7573403,12.2029714 23.5454961,15.8765299" id="Fill-1279" fill="#B3A16A"></path>
        <path d="M19.5244052,16.9645714 C19.6590545,17.6122597 19.9570286,17.3897143 20.1228468,17.049974 C20.4663273,16.3436883 20.4688208,15.2303377 20.4008727,14.4797922 C20.2394182,12.6956883 19.2582234,11.1353766 17.9591065,9.94223377 C14.9101714,7.14077922 12.6130286,7.38576623 11.9647169,4.09558442 C11.8288208,3.40612987 11.5183792,3.54451948 11.4878338,3.85184416 C11.443574,4.29319481 10.7204571,8.92862338 13.8392104,11.4875844 C16.8164571,13.929974 18.7377039,13.1769351 19.5244052,16.9645714" id="Fill-1281" fill="#B3A16A"></path>
        <path d="M16.5861195,19.9173195 C17.0262234,20.4110338 17.1739636,20.0694234 17.1471584,19.6916571 C17.0910545,18.9086961 16.5368727,17.9430857 16.1030026,17.3271896 C15.0706909,15.8628779 13.4411844,15.0019948 11.7194182,14.6179948 C7.67806753,13.7165922 5.81105455,15.0774234 3.60492468,12.5527481 C3.14175584,12.0228779 2.9428987,12.2984104 3.07006753,12.5795532 C3.25209351,12.9835013 4.94331429,17.3602286 8.9241974,18.0166442 C12.7230545,18.6431377 14.0109506,17.0310857 16.5861195,19.9173195" id="Fill-1283" fill="#B3A16A"></path>
        <path d="M15.5179013,23.9436468 C16.1462649,24.1506078 16.1026286,23.7815688 15.8906805,23.4680104 C15.4512,22.8178286 14.4887065,22.2586597 13.804239,21.9419844 C12.1784727,21.1901922 10.3363948,21.259387 8.6539013,21.7880104 C4.70294026,23.0279065 3.76662857,25.1399065 0.593018182,24.0564779 C-0.0721246753,23.8289455 -0.107033766,24.1668156 0.143563636,24.3469714 C0.503875325,24.6056727 4.15623896,27.5505039 7.93203117,26.1285818 C11.5357714,24.7714909 11.8443429,22.7318026 15.5179013,23.9436468" id="Fill-1285" fill="#B3A16A"></path>
        <path d="M16.6059429,27.9646753 C17.2536312,27.830026 17.0310857,27.5320519 16.6907221,27.3662338 C15.9850597,27.0233766 14.8717091,27.0202597 14.1211636,27.0882078 C12.3370597,27.2502857 10.7767481,28.2308571 9.58360519,29.529974 C6.78215065,32.5789091 7.02713766,34.8766753 3.73695584,35.5243636 C3.0475013,35.6602597 3.18589091,35.9707013 3.49321558,36.0012468 C3.93456623,36.0455065 8.56999481,36.7686234 11.1289558,33.6498701 C13.5713455,30.6726234 12.8183065,28.752 16.6059429,27.9646753" id="Fill-1287" fill="#B3A16A"></path>
        <path d="M19.5586909,30.902961 C20.0524052,30.4628571 19.7107948,30.3151169 19.3330286,30.3419221 C18.5500675,30.398026 17.5844571,30.9522078 16.968561,31.3860779 C15.5042494,32.4183896 14.6433662,34.0478961 14.2593662,35.7696623 C13.3579636,39.811013 14.7187948,41.678026 12.1941195,43.8841558 C11.6642494,44.3473247 11.9397818,44.5461818 12.2209247,44.419013 C12.6248727,44.236987 17.0016,42.5457662 17.6580156,38.5648831 C18.2845091,34.766026 16.6724571,33.4781299 19.5586909,30.902961" id="Fill-1289" fill="#B3A16A"></path>
        <path d="M23.5849558,31.9712416 C23.7919169,31.3428779 23.4228779,31.3865143 23.1093195,31.5984623 C22.4591377,32.0379429 21.8999688,33.0004364 21.5832935,33.6849039 C20.8315013,35.3106701 20.9006961,37.1527481 21.4293195,38.8352416 C22.6692156,42.7862026 24.7812156,43.7225143 23.697787,46.8961247 C23.4702545,47.5612675 23.8081247,47.5961766 23.9882805,47.3455792 C24.2469818,46.9852675 27.191813,43.3329039 25.7698909,39.5571117 C24.4128,35.9533714 22.3731117,35.6448 23.5849558,31.9712416" id="Fill-1291" fill="#B3A16A"></path>
        <path d="M27.6059221,30.8832623 C27.4712727,30.235574 27.1732987,30.4581195 27.0074805,30.7978597 C26.6646234,31.5041455 26.6615065,32.6174961 26.7294545,33.3680416 C26.8915325,35.1521455 27.8721039,36.7124571 29.1712208,37.9056 C32.2201558,40.7070545 34.5179221,40.4620675 35.1656104,43.7522494 C35.3015065,44.4417039 35.6119481,44.3033143 35.6424935,43.9959896 C35.6867532,43.554639 36.4098701,38.9192104 33.2911169,36.3602494 C30.3138701,33.9178597 28.3932468,34.6708987 27.6059221,30.8832623" id="Fill-1293" fill="#B3A16A"></path>
        <path d="M30.5442701,27.9305143 C30.1041662,27.4368 29.956426,27.7784104 29.9838545,28.1561766 C30.0393351,28.9391377 30.5935169,29.9047481 31.027387,30.5206442 C32.0596987,31.9849558 33.6892052,32.845839 35.4109714,33.229839 C39.4523221,34.1312416 41.3193351,32.7704104 43.5254649,35.2950857 C43.9886338,35.8249558 44.1874909,35.5494234 44.0603221,35.2682805 C43.8782961,34.8643325 42.1870753,30.4876052 38.2061922,29.8311896 C34.4073351,29.2046961 33.119439,30.8167481 30.5442701,27.9305143" id="Fill-1295" fill="#B3A16A"></path>
        <path d="M31.6125506,23.904187 C30.984187,23.6966026 31.0278234,24.0662649 31.2397714,24.3798234 C31.6792519,25.0300052 32.6417455,25.589174 33.326213,25.9058494 C34.9519792,26.6576416 36.7940571,26.5884468 38.4765506,26.0598234 C42.4275117,24.8199273 43.3638234,22.7079273 46.5374338,23.7913558 C47.2025766,24.0188883 47.2374857,23.6810182 46.9868883,23.5008623 C46.6265766,23.242161 42.974213,20.2973299 39.1984208,21.7192519 C35.5946805,23.0763429 35.2861091,25.1160312 31.6125506,23.904187" id="Fill-1297" fill="#B3A16A"></path>
        <path d="M30.5245091,19.8831584 C29.8768208,20.0178078 30.0993662,20.3157818 30.4397299,20.4816 C31.1453922,20.8244571 32.2587429,20.827574 33.0092883,20.759626 C34.7933922,20.5981714 36.3537039,19.6169766 37.5468468,18.3178597 C40.3483013,15.2689247 40.1033143,12.9711584 43.3934961,12.3234701 C44.0829506,12.187574 43.944561,11.8771325 43.6372364,11.846587 C43.1958857,11.8023273 38.5604571,11.0792104 36.0014961,14.1979636 C33.5591065,17.1752104 34.3121455,19.0958338 30.5245091,19.8831584" id="Fill-1299" fill="#B3A16A"></path>
        <path d="M27.571761,16.9448727 C27.0780468,17.3849766 27.4196571,17.5327169 27.7974234,17.5052883 C28.5803844,17.4498078 29.5459948,16.895626 30.1618909,16.4617558 C31.6262026,15.4294442 32.4870857,13.7999377 32.8710857,12.0781714 C33.7724883,8.03682078 32.4116571,6.16980779 34.9363325,3.96367792 C35.4662026,3.50050909 35.1906701,3.30165195 34.9095273,3.42882078 C34.5055792,3.61084675 30.1288519,5.30206753 29.4724364,9.28295065 C28.8459429,13.0818078 30.4579948,14.3697039 27.571761,16.9448727" id="Fill-1301" fill="#B3A16A"></path>
        <path d="M70.3204987,25.5897974 L74.4123429,25.5897974 L74.4123429,31.2855896 C73.4828883,31.7948883 72.4162909,32.0535896 71.2406026,32.0535896 C69.8461091,32.0535896 68.6529662,31.6963948 67.6935896,30.9913558 C66.7317195,30.2844468 65.9998753,29.3232 65.5186286,28.1344208 C65.0348883,26.9400312 64.7892779,25.6028883 64.7892779,24.1585247 C64.7892779,22.656187 65.054213,21.2941091 65.577226,20.1103169 C66.0977455,18.9321351 66.8688623,17.9958234 67.8700052,17.328187 C68.8711481,16.6617974 70.0960831,16.3233039 71.5111481,16.3233039 C73.1655896,16.3233039 74.7240312,16.8232519 76.1428364,17.8088104 L76.2363429,17.8736416 L77.3727584,16.0346805 L77.2879792,15.9767065 C75.6927584,14.8864208 73.6879792,14.3334857 71.3303688,14.3334857 C69.336187,14.3334857 67.5421091,14.7629922 65.9992519,15.610161 C64.4539013,16.4585766 63.230213,17.6673039 62.3618494,19.2014338 C61.4941091,20.7349403 61.0540052,22.4941091 61.0540052,24.4290701 C61.0540052,26.4045506 61.4535896,28.1375377 62.2409143,29.5800312 C63.0294857,31.0262649 64.152187,32.1489662 65.5784727,32.9175896 C67.0016416,33.6849662 68.6841351,34.0739532 70.5785766,34.0739532 C71.9051221,34.0739532 73.2054857,33.9000312 74.4428883,33.5584208 C75.6834078,33.2155636 76.733174,32.7237195 77.5628883,32.0966026 L77.6052779,32.064187 L77.6052779,23.6897455 L70.3204987,23.6897455 L70.3204987,25.5897974 Z" id="Fill-1303" fill="#55565A"></path>
        <path d="M93.2347013,23.4289247 C93.969039,22.5212883 94.3418182,21.4509506 94.3418182,20.2472104 C94.3418182,18.3540156 93.6324156,16.9071584 92.2341818,15.9471584 C90.8484156,14.9958857 88.8081039,14.5140156 86.1712208,14.5140156 C85.531013,14.5140156 84.7542857,14.544561 83.8628571,14.6044052 C82.9720519,14.6642494 82.233974,14.7459117 81.6698182,14.8468987 L81.5812987,14.8624831 L81.5812987,33.6223792 L85.0753247,33.6223792 L85.0753247,25.9860156 C85.8146494,26.0227948 86.385039,26.0408727 86.7734026,26.0408727 L87.0127792,26.0408727 L91.5254026,33.6223792 L95.6029091,33.6223792 L90.3952208,25.4168727 C91.5734026,24.9705351 92.5284156,24.3022753 93.2347013,23.4289247 M90.7268571,20.1574442 C90.7268571,21.4048208 90.3378701,22.416561 89.5711169,23.1639896 C88.8031169,23.9120416 87.6187013,24.2916779 86.0509091,24.2916779 C85.7273766,24.2916779 85.3994805,24.2667429 85.0753247,24.2168727 L85.0753247,16.2831584 C85.627013,16.2301714 86.0864416,16.2033662 86.4423896,16.2033662 C87.9098182,16.2033662 89.0025974,16.5474701 89.6908052,17.2250805 C90.3783896,17.9039377 90.7268571,18.8901195 90.7268571,20.1574442" id="Fill-1305" fill="#55565A"></path>
        <path d="M110.598047,25.722826 C110.598047,27.7163844 110.229631,29.2598649 109.504021,30.3096312 C108.786514,31.3469299 107.550982,31.8730597 105.831709,31.8730597 C104.256436,31.8730597 103.10319,31.2534234 102.405008,30.0316052 C101.696229,28.7904623 101.33654,27.0979948 101.33654,25.0009558 L101.33654,14.7844364 L97.8119688,14.7844364 L97.8119688,25.9634494 C97.8119688,28.4862545 98.4484364,30.4891636 99.7039169,31.9160727 C100.963138,33.3479688 102.903086,34.0735792 105.470774,34.0735792 C107.95867,34.0735792 109.858722,33.3323844 111.117943,31.8699429 C112.3728,30.4124883 113.009268,28.3946182 113.009268,25.8730597 L113.009268,14.7844364 L110.598047,14.7844364 L110.598047,25.722826 Z" id="Fill-1307" fill="#55565A"></path>
        <path d="M127.929912,15.9920416 C126.504249,15.0114701 124.453964,14.5140156 121.837029,14.5140156 C119.994327,14.5140156 118.468925,14.6262234 117.304457,14.8468987 L117.216561,14.8637299 L117.216561,33.6223792 L120.741132,33.6223792 L120.741132,26.9192104 C121.472977,26.9553662 121.972925,26.9734442 122.227886,26.9734442 C123.780094,26.9734442 125.16586,26.7122494 126.347158,26.1973403 C127.534068,25.680561 128.465392,24.9287688 129.116197,23.9625351 C129.767626,22.9969247 130.097392,21.8480416 130.097392,20.5483013 C130.097392,18.5148468 129.368042,16.9819636 127.929912,15.9920416 Z M120.741132,16.2812883 C121.171886,16.2295481 121.51973,16.2033662 121.776561,16.2033662 C123.384249,16.2033662 124.583626,16.5823792 125.341652,17.3304312 C126.098431,18.0784831 126.482431,19.1506909 126.482431,20.5183792 C126.482431,21.9677299 126.092821,23.1222234 125.322951,23.9500675 C124.555574,24.7754182 123.352457,25.1943273 121.746639,25.1943273 C121.311522,25.1943273 120.973652,25.1787429 120.741132,25.1488208 L120.741132,16.2812883 Z" id="Fill-1309" fill="#55565A"></path>
        <path d="M146.57841,15.4896623 C145.155242,14.7222857 143.452177,14.3332987 141.518462,14.3332987 C139.742462,14.3332987 138.094255,14.7634286 136.620592,15.6112208 C135.14693,16.4596364 133.964384,17.6621299 133.105995,19.1869091 C132.248229,20.7098182 131.813735,22.4534026 131.813735,24.369039 C131.813735,26.3831688 132.197112,28.1361039 132.953891,29.5785974 C133.71254,31.0254545 134.820904,32.1487792 136.24719,32.9174026 C137.670982,33.6847792 139.373423,34.0737662 141.307761,34.0737662 C143.083138,34.0737662 144.730722,33.6436364 146.205008,32.7958442 C147.679294,31.9474286 148.861839,30.7443117 149.719605,29.2201558 C150.577371,27.6966234 151.012488,25.953039 151.012488,24.038026 C151.012488,22.0245195 150.628488,20.2715844 149.871709,18.8284675 C149.11306,17.3822338 148.005319,16.2589091 146.57841,15.4896623 M144.45893,31.0697143 C143.560021,31.8021818 142.499657,32.1737143 141.307761,32.1737143 C140.075345,32.1737143 139.014982,31.8127792 138.157216,31.1002597 C137.293839,30.3846234 136.6368,29.4084156 136.204177,28.1984416 C135.76906,26.9828571 135.548384,25.6338701 135.548384,24.1882597 C135.548384,22.8037403 135.793995,21.4865455 136.278358,20.2722078 C136.760229,19.0616104 137.462774,18.0741818 138.367294,17.3373506 C139.265579,16.6048831 140.325319,16.2333506 141.518462,16.2333506 C142.749631,16.2333506 143.809371,16.5942857 144.669008,17.3068052 C145.531761,18.0230649 146.1888,18.9998961 146.621423,20.2086234 C147.05654,21.4254545 147.277216,22.7744416 147.277216,24.2188052 C147.277216,25.6020779 147.031605,26.9192727 146.547865,28.1348571 C146.065371,29.3454545 145.362203,30.3328831 144.45893,31.0697143" id="Fill-1311" fill="#55565A"></path>
        <path d="M172.400478,15.9920416 C170.974816,15.0114701 168.92453,14.5140156 166.307595,14.5140156 C164.464894,14.5140156 162.939491,14.6262234 161.775023,14.8468987 L161.687127,14.8637299 L161.687127,33.6223792 L165.211699,33.6223792 L165.211699,26.9192104 C165.943543,26.9553662 166.443491,26.9734442 166.699075,26.9734442 C168.25066,26.9734442 169.636426,26.7122494 170.818348,26.1973403 C172.004634,25.680561 172.936582,24.9281455 173.587387,23.9625351 C174.238192,22.9963013 174.567958,21.8474182 174.567958,20.5483013 C174.567958,18.5148468 173.838608,16.9819636 172.400478,15.9920416 Z M165.211699,16.2812883 C165.642452,16.2295481 165.990296,16.2033662 166.247127,16.2033662 C167.854816,16.2033662 169.054192,16.5823792 169.812218,17.3304312 C170.569621,18.0778597 170.953621,19.1506909 170.953621,20.5183792 C170.953621,21.9671065 170.563387,23.1216 169.79414,23.9500675 C169.02614,24.7754182 167.823023,25.1943273 166.217205,25.1943273 C165.782088,25.1943273 165.444218,25.1787429 165.211699,25.1488208 L165.211699,16.2812883 Z" id="Fill-1313" fill="#55565A"></path>
        <polygon id="Fill-1316" fill="#55565A" points="177.054545 33.6224416 180.579117 33.6224416 180.579117 14.7846234 177.054545 14.7846234"></polygon>
        <path d="M189.437174,13.0190961 C189.732655,12.4867325 189.982005,12.1033558 190.176499,11.8789403 C190.455148,11.5585247 190.766213,11.4843429 191.212551,11.6669922 C191.376499,11.7355636 191.538577,11.8184727 191.691304,11.9138494 L192.893797,12.6955636 C193.140655,12.8607584 193.377538,12.9810701 193.596343,13.0540052 C193.815771,13.1275636 194.08507,13.1649662 194.397382,13.1649662 C195.005797,13.1649662 195.563719,12.9106286 196.053694,12.4100571 C196.53307,11.9207065 196.950732,11.2200312 197.29546,10.3279792 L197.330369,10.238213 L196.159668,9.63478442 L196.108551,9.72517403 C195.833642,10.2163948 195.586784,10.5723429 195.374213,10.7849143 C195.172862,10.9862649 194.971512,11.0841351 194.758317,11.0841351 C194.652966,11.0841351 194.525797,11.0517195 194.379927,10.9881351 C194.224706,10.920187 194.067616,10.8366545 193.909901,10.738161 L192.673122,10.0137974 C192.372031,9.85358961 192.12081,9.73078442 191.92694,9.6484987 C191.723096,9.5630961 191.471252,9.52008312 191.178265,9.52008312 C190.589797,9.52008312 190.048083,9.7632 189.568083,10.2432 C189.098681,10.7126026 188.665434,11.4226286 188.28081,12.3539532 L188.245278,12.4399792 L189.383564,13.1157195 L189.437174,13.0190961 Z" id="Fill-1317" fill="#55565A"></path>
        <polygon id="Fill-1319" fill="#55565A" points="198.110587 28.0737039 187.016977 14.784561 185.083886 14.784561 185.083886 33.6223792 187.374795 33.6223792 187.374795 20.4809766 198.467158 33.5843532 198.499574 33.6223792 200.431418 33.6223792 200.431418 14.784561 198.110587 14.784561"></polygon>
        <path d="M210.829465,31.6622961 L208.41014,31.6622961 L208.41014,25.0482701 L209.204945,25.0482701 C211.335647,25.0482701 213.175855,25.0987636 214.673205,25.1985039 L214.787906,25.2059844 L214.787906,22.9905039 L214.673205,22.9979844 C213.183335,23.0977247 211.343751,23.1482182 209.204945,23.1482182 L208.41014,23.1482182 L208.41014,16.7448935 L210.679231,16.7448935 C212.650348,16.7448935 214.499283,16.8253091 216.174296,16.9848935 L216.292114,16.9961143 L216.292114,14.7849974 L204.946036,14.7849974 L204.946036,33.6221922 L216.442348,33.6221922 L216.442348,31.3792831 L216.323283,31.392374 C214.709984,31.5712831 212.861673,31.6622961 210.829465,31.6622961" id="Fill-1320" fill="#55565A"></path>
        <path d="M230.937164,23.4289247 C231.671501,22.5212883 232.044281,21.4509506 232.044281,20.2472104 C232.044281,18.3540156 231.334878,16.9071584 229.936644,15.9471584 C228.550255,14.9958857 226.510566,14.5140156 223.873683,14.5140156 C223.233475,14.5140156 222.456748,14.544561 221.565319,14.6044052 C220.674514,14.6642494 219.936436,14.7459117 219.372281,14.8468987 L219.283761,14.8624831 L219.283761,33.6223792 L222.777787,33.6223792 L222.777787,25.9860156 C223.516488,26.0227948 224.087501,26.0408727 224.475865,26.0408727 L224.715242,26.0408727 L229.227865,33.6223792 L233.305371,33.6223792 L228.097683,25.4168727 C229.275865,24.9705351 230.230878,24.3022753 230.937164,23.4289247 M228.429319,20.1574442 C228.429319,21.4048208 228.040332,22.416561 227.273579,23.1639896 C226.505579,23.9120416 225.321164,24.2916779 223.753371,24.2916779 C223.429839,24.2916779 223.101943,24.2667429 222.777787,24.2168727 L222.777787,16.2831584 C223.329475,16.2301714 223.788904,16.2033662 224.144852,16.2033662 C225.612281,16.2033662 226.70506,16.5474701 227.393268,17.2250805 C228.080852,17.9033143 228.429319,18.8901195 228.429319,20.1574442" id="Fill-1322" fill="#55565A"></path>
        <path d="M252.643013,18.8285299 C251.884364,17.3822961 250.776,16.2589714 249.349714,15.4897247 C247.925922,14.7223481 246.223481,14.333361 244.289143,14.333361 C242.513143,14.333361 240.865558,14.7634909 239.391896,15.6112831 C237.91761,16.4596987 236.735065,17.6621922 235.877299,19.1869714 C235.019532,20.7098805 234.585039,22.4534649 234.585039,24.3691013 C234.585039,26.3832312 234.968416,28.1355429 235.725195,29.5786597 C236.483844,31.0255169 237.592208,32.1488416 239.018494,32.9174649 C240.442286,33.6848416 242.144727,34.0738286 244.079065,34.0738286 C245.854442,34.0738286 247.502026,33.6436987 248.976312,32.7959065 C250.450597,31.9474909 251.633143,30.744374 252.490909,29.2202182 C253.348675,27.6966857 253.783792,25.9531013 253.783792,24.0380883 C253.783792,22.0245818 253.399792,20.2716468 252.643013,18.8285299 M247.230234,31.0697766 C246.331325,31.8022442 245.270961,32.1737766 244.079065,32.1737766 C242.846649,32.1737766 241.786286,31.8128416 240.928519,31.1003221 C240.065143,30.3846857 239.407481,29.4078545 238.975481,28.1985039 C238.540364,26.9829195 238.319688,25.6333091 238.319688,24.1883221 C238.319688,22.804426 238.565299,21.4866078 239.049039,20.2722701 C239.531532,19.0616727 240.234078,18.0742442 241.138597,17.337413 C242.036883,16.6049455 243.097247,16.233413 244.289143,16.233413 C245.520935,16.233413 246.580675,16.5943481 247.439688,17.3068675 C248.303065,18.0231273 248.960104,18.9999584 249.392727,20.2086857 C249.827844,21.4255169 250.048519,22.7745039 250.048519,24.2188675 C250.048519,25.6015169 249.802909,26.9193351 249.319169,28.1349195 C248.836052,29.3455169 248.133506,30.3329455 247.230234,31.0697766" id="Fill-1324" fill="#55565A"></path>
      </g>
    </g>
  </g>
</svg>
