<?xml version="1.0" encoding="UTF-8"?>
<svg width="109px" height="58px" viewBox="0 0 109 58" version="1.1" xmlns="http://www.w3.org/2000/svg" xmlns:xlink="http://www.w3.org/1999/xlink">
    <title>Logotipo Gofun-01 Copy 2</title>
    <defs>
        <linearGradient x1="-271.725459%" y1="225.319362%" x2="70.1050945%" y2="39.1730094%" id="linearGradient-1">
            <stop stop-color="#C700AB" offset="2.433434%"></stop>
            <stop stop-color="#67009E" offset="51.12%"></stop>
            <stop stop-color="#6003A1" offset="55.65%"></stop>
            <stop stop-color="#3516B3" offset="85.03%"></stop>
            <stop stop-color="#241DBA" offset="100%"></stop>
        </linearGradient>
        <linearGradient x1="-5.64426319%" y1="84.5886981%" x2="89.4515573%" y2="25.4604861%" id="linearGradient-2">
            <stop stop-color="#C700AB" offset="2.433434%"></stop>
            <stop stop-color="#67009E" offset="51.12%"></stop>
            <stop stop-color="#6003A1" offset="55.65%"></stop>
            <stop stop-color="#3516B3" offset="85.03%"></stop>
            <stop stop-color="#241DBA" offset="100%"></stop>
        </linearGradient>
    </defs>
    <g id="CAMBIOS-MAYO-2020" stroke="none" stroke-width="1" fill="none" fill-rule="evenodd">
        <g id="HOME-B" transform="translate(-790.000000, -1664.000000)" fill-rule="nonzero">
            <g id="Logotipo-Gofun-01-Copy-2" transform="translate(790.000000, 1664.000000)">
                <g id="Group">
                    <path d="M38.3,9.9 C39.6,10.5 40.8,11.2 41.9,12 C42.7,12.6 43.5,13.3 44.3,14.1 C44.8,14.6 45.2,15.1 45.7,15.6 C46.4,16.5 47.5,16.9 48.5,16.9 C49.3,16.9 50.1,16.6 50.8,16.1 C52.4,14.8 52.6,12.5 51.3,11 C50.7,10.3 50.1,9.6 49.5,9 C48.5,8 47.4,7.1 46.3,6.2 C44.8,5.1 43.2,4.1 41.5,3.3 C39.7,2.4 37.5,3.2 36.6,5 C35.7,6.9 36.5,9.1 38.3,9.9 Z" id="Path" fill="url(#linearGradient-1)"></path>
                    <path d="M57.8,29.1 C57.8,27.1 56.1,25.5 54.1,25.5 L50.2,25.5 C50.2,25.5 50.2,25.5 50.2,25.5 L43,25.5 C41.4,19.5 35.8,15 29.3,15 C21.5,15 15.1,21.4 15.1,29.2 C15.1,37 21.5,43.4 29.3,43.4 C35.9,43.4 41.4,38.9 43,32.9 L50.3,32.9 C48.5,43.2 39.3,51 28.3,50.5 C17.2,50 8.3,40.9 8,29.8 C7.7,17.8 17.3,8 29.2,7.9 C31.2,7.9 32.9,6.3 32.9,4.4 C33,2.3 31.3,0.6 29.3,0.6 C13,0.6 -0.1,14.3 0.8,30.7 C1.6,45.2 13.3,56.9 27.8,57.7 C44.2,58.6 57.8,45.4 57.8,29.1 C57.8,29.2 57.8,29.1 57.8,29.1 Z M29.3,36.1 C25.5,36.1 22.4,33 22.4,29.2 C22.4,25.4 25.5,22.3 29.3,22.3 C33.1,22.3 36.2,25.4 36.2,29.2 C36.2,33 33.1,36.1 29.3,36.1 Z" id="Shape" fill="url(#linearGradient-2)"></path>
                </g>
                <g id="Group" transform="translate(65.000000, 5.000000)" fill="#000230">
                    <path d="M21.4,39.7 C21.4,41.8 20.3,42.8 18.6,42.8 C17.2,42.8 16,41.9 16,40.1 L16,31.6 L11.5,31.6 L11.5,40.8 C11.5,44.8 14.1,47 17.1,47 C19.1,47 20.6,46.3 21.4,45.2 L21.4,46.6 L25.9,46.6 L25.9,31.6 L21.4,31.6 L21.4,39.7 Z" id="Path"></path>
                    <path d="M38,31.1 C36,31.1 34.5,31.8 33.7,32.9 L33.7,31.5 L29.2,31.5 L29.2,46.5 L33.7,46.5 L33.7,38.3 C33.7,36.2 34.8,35.2 36.5,35.2 C37.9,35.2 39.1,36.1 39.1,37.9 L39.1,46.4 L43.6,46.4 L43.6,37.2 C43.6,33.3 41,31.1 38,31.1 Z" id="Path"></path>
                    <path d="M1.8,31.3 C1.8,31.4 1.8,31.4 1.8,31.5 L0.5,31.5 L0.5,35.8 L1.8,35.8 L1.8,46.5 L6.3,46.5 L6.3,35.9 L9,35.9 L9,31.6 L6.2,31.6 C6.2,31.5 6.2,31.4 6.2,31.4 C6.3,29.8 7.4,29.4 9,29.5 L9,25.2 C4.1,24.8 1.8,27.3 1.8,31.3 Z" id="Path"></path>
                    <path d="M31.8,22.3 C36.2,22.3 39.7,18.8 39.7,14.4 C39.7,10 36.2,6.5 31.8,6.5 C27.4,6.5 23.9,9.9 23.9,14.4 C23.9,18.9 27.4,22.3 31.8,22.3 Z M31.8,10.9 C33.8,10.9 35.2,12.3 35.2,14.4 C35.2,16.5 33.7,17.9 31.8,17.9 C29.9,17.9 28.4,16.5 28.4,14.4 C28.4,12.3 29.8,10.9 31.8,10.9 Z" id="Shape"></path>
                    <path d="M22,12 L22,10.2 L13.4,10.2 L13.4,14.4 L17.1,14.4 C16.3,16.4 14.5,17.6 11.7,17.6 C7.6,17.6 5.1,15 5.1,11.4 C5.1,7.7 7.7,5.1 11.3,5.1 C12.7,5.1 14,5.5 14.9,6.1 L18.1,2.6 C16.3,1.2 13.9,0.4 11.3,0.4 C5.1,0.4 0.3,5.3 0.3,11.3 C0.3,17.3 5,22.2 11.6,22.2 C17.6,22.3 22,18.4 22,12 Z" id="Path"></path>
                </g>
            </g>
        </g>
    </g>
</svg>