<?xml version="1.0" encoding="UTF-8"?>
<svg width="143px" height="58px" viewBox="0 0 143 58" version="1.1" xmlns="http://www.w3.org/2000/svg" xmlns:xlink="http://www.w3.org/1999/xlink">
    <title>Logotipo Goguest-01 Copy 2</title>
    <defs>
        <linearGradient x1="-271.725459%" y1="225.367292%" x2="70.1050945%" y2="39.2214909%" id="linearGradient-1">
            <stop stop-color="#00D7D7" offset="0%"></stop>
            <stop stop-color="#241DBA" offset="100%"></stop>
        </linearGradient>
        <linearGradient x1="-5.64366848%" y1="84.6034708%" x2="89.4511356%" y2="25.4755748%" id="linearGradient-2">
            <stop stop-color="#00D7D7" offset="0%"></stop>
            <stop stop-color="#241DBA" offset="100%"></stop>
        </linearGradient>
    </defs>
    <g id="CAMBIOS-MAYO-2020" stroke="none" stroke-width="1" fill="none" fill-rule="evenodd">
        <g id="HOME-B" transform="translate(-888.000000, -1055.000000)" fill-rule="nonzero">
            <g id="Logotipo-Goguest-01-Copy-2" transform="translate(888.000000, 1055.000000)">
                <g id="Group">
                    <path d="M38.3,9.8 C39.6,10.4 40.8,11.1 41.9,11.9 C42.7,12.5 43.5,13.2 44.3,14 C44.8,14.5 45.2,15 45.7,15.5 C46.4,16.4 47.5,16.8 48.5,16.8 C49.3,16.8 50.1,16.5 50.8,16 C52.4,14.7 52.6,12.4 51.3,10.9 C50.7,10.2 50.1,9.5 49.5,8.9 C48.5,7.9 47.4,7 46.3,6.1 C44.8,5 43.2,4 41.5,3.2 C39.7,2.3 37.5,3.1 36.6,4.9 C35.7,6.8 36.5,9 38.3,9.8 Z" id="Path" fill="url(#linearGradient-1)"></path>
                    <path d="M57.8,29 C57.8,27 56.1,25.4 54.1,25.4 L50.2,25.4 C50.2,25.4 50.2,25.4 50.2,25.4 L43,25.4 C41.4,19.3 35.9,14.9 29.3,14.9 C21.5,14.9 15.1,21.3 15.1,29.1 C15.1,36.9 21.5,43.3 29.3,43.3 C35.9,43.3 41.4,38.8 43,32.8 L50.3,32.8 C48.5,43.1 39.3,50.9 28.3,50.4 C17.2,49.9 8.3,40.8 8,29.7 C7.7,17.7 17.3,7.9 29.2,7.8 C31.2,7.8 32.9,6.2 32.9,4.3 C33,2.2 31.3,0.5 29.3,0.5 C13,0.5 -0.1,14.2 0.8,30.6 C1.6,45.1 13.3,56.8 27.8,57.6 C44.2,58.5 57.8,45.4 57.8,29 C57.8,29.1 57.8,29.1 57.8,29 Z M29.3,36 C25.5,36 22.4,32.9 22.4,29.1 C22.4,25.3 25.5,22.2 29.3,22.2 C33.1,22.2 36.2,25.3 36.2,29.1 C36.2,32.9 33.1,36 29.3,36 Z" id="Shape" fill="url(#linearGradient-2)"></path>
                </g>
                <g id="Group" transform="translate(65.000000, 5.000000)" fill="#000230">
                    <path d="M29.6,34.7 C29.6,36.8 28.5,37.8 26.8,37.8 C25.4,37.8 24.2,36.9 24.2,35.1 L24.2,26.6 L19.7,26.6 L19.7,35.8 C19.7,39.8 22.3,42 25.3,42 C27.3,42 28.8,41.3 29.6,40.2 L29.6,41.6 L34.1,41.6 L34.1,26.6 L29.6,26.6 L29.6,34.7 Z" id="Path"></path>
                    <path d="M44.6,26.1 C39.9,26.1 36.6,29.5 36.6,34 C36.6,38.5 39.8,41.9 44.9,41.9 C47.7,41.9 50,40.9 51.4,38.8 L47.8,36.7 C47.2,37.4 46.2,37.8 44.9,37.8 C43.3,37.8 41.9,37.3 41.3,35.7 L52,35.7 C52.1,35.1 52.2,34.5 52.2,33.9 C52.2,29.5 48.9,26.1 44.6,26.1 Z M41.3,32.5 C41.7,31 42.9,30.1 44.6,30.1 C45.9,30.1 47.3,30.7 47.8,32.5 L41.3,32.5 Z" id="Shape"></path>
                    <path d="M58.8,30.9 C58.8,30.4 59.3,30.1 60.1,30.1 C61.1,30.1 61.7,30.6 62.1,31.4 L65.9,29.3 C64.6,27.2 62.5,26.1 60.1,26.1 C57,26.1 54.2,27.7 54.2,31 C54.2,36.2 61.6,35.3 61.6,37 C61.6,37.6 61.1,37.9 60,37.9 C58.7,37.9 57.8,37.3 57.5,36.1 L53.6,38.3 C54.8,40.7 57.1,41.9 60.1,41.9 C63.3,41.9 66.3,40.4 66.3,37 C66.1,31.5 58.8,32.6 58.8,30.9 Z" id="Path"></path>
                    <path d="M77.3,30.9 L77.3,26.6 L74.2,26.6 L74.2,22.4 L69.7,23.7 L69.7,26.6 L67.3,26.6 L67.3,30.9 L69.7,30.9 L69.7,36.2 C69.7,40.4 71.4,42.2 77.3,41.6 L77.3,37.5 C75.3,37.6 74.2,37.5 74.2,36.2 L74.2,30.9 L77.3,30.9 Z" id="Path"></path>
                    <path d="M31.8,22.3 C36.2,22.3 39.7,18.8 39.7,14.4 C39.7,10 36.2,6.5 31.8,6.5 C27.4,6.5 23.9,9.9 23.9,14.4 C23.9,18.9 27.4,22.3 31.8,22.3 Z M31.8,10.9 C33.8,10.9 35.2,12.3 35.2,14.4 C35.2,16.5 33.7,17.9 31.8,17.9 C29.9,17.9 28.4,16.5 28.4,14.4 C28.4,12.3 29.9,10.9 31.8,10.9 Z" id="Shape"></path>
                    <path d="M12.2,28.1 C11.2,26.9 9.8,26.2 7.8,26.2 C3.5,26.2 0.4,29.7 0.4,33.8 C0.4,37.9 3.5,41.4 7.8,41.4 C9.7,41.4 11.2,40.7 12.2,39.4 L12.2,40.8 C12.2,42.9 10.9,44 8.8,44 C7.4,44 6.6,43.6 6,43 C6,43 6,43 6,43 L1.2,43 C1.2,43.4 1.4,44 1.5,44.3 C2.7,47.2 5.5,47.9 8.6,47.9 C12.6,47.9 16.5,45.8 16.5,40.7 L16.5,26.5 L12.1,26.5 L12.1,28.1 L12.2,28.1 Z M8.5,37.2 C6.4,37.2 4.9,35.8 4.9,33.7 C4.9,31.6 6.4,30.2 8.5,30.2 C10.6,30.2 12.1,31.6 12.1,33.7 C12.2,35.8 10.7,37.2 8.5,37.2 Z" id="Shape"></path>
                    <path d="M22.1,10.2 L13.5,10.2 L13.5,14.4 L17.2,14.4 C16.4,16.4 14.6,17.6 11.8,17.6 C7.7,17.6 5.2,15 5.2,11.4 C5.2,7.7 7.8,5.1 11.4,5.1 C12.8,5.1 14.1,5.5 15,6.1 L18.2,2.6 C16.4,1.2 14,0.4 11.4,0.4 C5.2,0.4 0.4,5.3 0.4,11.3 C0.4,17.3 5.1,22.2 11.7,22.2 C17.6,22.2 22,18.3 22,11.9 L22,10.2 L22.1,10.2 Z" id="Path"></path>
                </g>
            </g>
        </g>
    </g>
</svg>