<?xml version="1.0" encoding="UTF-8"?>
<svg width="124px" height="58px" viewBox="0 0 124 58" version="1.1" xmlns="http://www.w3.org/2000/svg" xmlns:xlink="http://www.w3.org/1999/xlink">
    <!-- Generator: Sketch 52.5 (67469) - http://www.bohemiancoding.com/sketch -->
    <title>Logo Gosafe-88 2 Copy</title>
    <desc>Created with Sketch.</desc>
    <defs>
        <linearGradient x1="-235.801728%" y1="207.615984%" x2="112.187126%" y2="16.1344566%" id="linearGradient-1">
            <stop stop-color="#1ED49B" offset="0%"></stop>
            <stop stop-color="#1CC998" offset="4.301178%"></stop>
            <stop stop-color="#107483" offset="39.46%"></stop>
            <stop stop-color="#083574" offset="68.2%"></stop>
            <stop stop-color="#020F6B" offset="89.09%"></stop>
            <stop stop-color="#000067" offset="100%"></stop>
        </linearGradient>
        <linearGradient x1="4.77876214%" y1="71.7953168%" x2="101.757157%" y2="25.0529435%" id="linearGradient-2">
            <stop stop-color="#1ED49B" offset="0%"></stop>
            <stop stop-color="#1CC998" offset="4.301178%"></stop>
            <stop stop-color="#107483" offset="39.46%"></stop>
            <stop stop-color="#083574" offset="68.2%"></stop>
            <stop stop-color="#020F6B" offset="89.09%"></stop>
            <stop stop-color="#000067" offset="100%"></stop>
        </linearGradient>
    </defs>
    <g id="CAMBIOS-MAYO-2020" stroke="none" stroke-width="1" fill="none" fill-rule="evenodd">
        <g id="LANDING-GOSAFE-A" transform="translate(-205.000000, -224.000000)" fill-rule="nonzero">
            <g id="Logo-Gosafe-88-2-Copy" transform="translate(205.000000, 224.000000)">
                <g id="Logo-Gosafe-88">
                    <g id="Group">
                        <path d="M38.5,10.1 C39.8,10.7 41,11.4 42.1,12.2 C42.9,12.8 43.7,13.5 44.5,14.3 C45,14.8 45.4,15.3 45.9,15.8 C46.6,16.7 47.7,17.1 48.7,17.1 C49.5,17.1 50.3,16.8 51,16.3 C52.6,15 52.8,12.7 51.5,11.2 C50.9,10.5 50.3,9.8 49.7,9.2 C48.7,8.2 47.6,7.3 46.5,6.4 C45,5.3 43.4,4.3 41.7,3.5 C39.9,2.6 37.7,3.4 36.8,5.2 C35.9,7.1 36.7,9.3 38.5,10.1 Z" id="Path" fill="url(#linearGradient-1)"></path>
                        <path d="M58,29.4 C58,27.4 56.3,25.8 54.3,25.8 L50.4,25.8 L43.1,25.8 C41.5,19.7 36,15.3 29.4,15.3 C21.6,15.3 15.2,21.7 15.2,29.5 C15.2,37.3 21.6,43.7 29.4,43.7 C36,43.7 41.5,39.2 43.1,33.2 L50.4,33.2 C48.6,43.5 39.4,51.3 28.4,50.8 C17.4,50.1 8.5,41 8.2,30 C7.9,18 17.5,8.2 29.4,8.1 C31.4,8.1 33.1,6.5 33.1,4.6 C33.2,2.5 31.5,0.8 29.5,0.8 C13.2,0.8 0,14.5 0.9,31 C1.7,45.5 13.4,57.2 27.9,58 C44.4,58.8 58,45.7 58,29.4 C58,29.4 58,29.4 58,29.4 Z M29.5,36.3 C25.7,36.3 22.6,33.2 22.6,29.4 C22.6,25.6 25.7,22.5 29.5,22.5 C33.3,22.5 36.4,25.6 36.4,29.4 C36.4,33.2 33.3,36.3 29.5,36.3 Z" id="Shape" fill="url(#linearGradient-2)"></path>
                    </g>
                    <path d="M97,11.8 C92.6,11.8 89.1,15.2 89.1,19.7 C89.1,24.2 92.6,27.6 97,27.6 C101.4,27.6 104.9,24.1 104.9,19.7 C104.9,15.3 101.4,11.8 97,11.8 Z M97,23.3 C95.1,23.3 93.6,21.9 93.6,19.8 C93.6,17.7 95.1,16.3 97,16.3 C99,16.3 100.4,17.7 100.4,19.8 C100.4,21.9 98.9,23.3 97,23.3 Z" id="Shape" fill="#000230"></path>
                    <path d="M76.9,27.7 C82.8,27.7 87.2,23.8 87.2,17.4 L87.2,15.6 L78.6,15.6 L78.6,19.8 L82.3,19.8 C81.5,21.8 79.7,23 76.9,23 C72.8,23 70.3,20.4 70.3,16.8 C70.3,13.1 72.9,10.5 76.5,10.5 C77.9,10.5 79.2,10.9 80.1,11.5 L83.3,8 C81.5,6.6 79.1,5.8 76.5,5.8 C70.3,5.8 65.5,10.7 65.5,16.7 C65.5,22.8 70.3,27.7 76.9,27.7 Z" id="Path" fill="#000230"></path>
                    <g id="Group" transform="translate(65.000000, 26.000000)" fill="#000230">
                        <path d="M13,17.5 C13,21 10,22.4 6.8,22.4 C3.8,22.4 1.5,21.3 0.3,18.8 L4.2,16.6 C4.6,17.7 5.4,18.4 6.7,18.4 C7.8,18.4 8.3,18.1 8.3,17.5 C8.3,15.9 0.9,16.7 0.9,11.5 C0.9,8.2 3.7,6.6 6.8,6.6 C9.2,6.6 11.4,7.7 12.6,9.8 L8.8,11.9 C8.4,11.1 7.8,10.6 6.8,10.6 C6,10.6 5.5,10.9 5.5,11.4 C5.7,13.1 13,12 13,17.5 Z" id="Path"></path>
                        <path d="M30.7,7 L30.7,22 L26.2,22 L26.2,20.6 C25.2,21.7 23.7,22.4 21.7,22.4 C17.8,22.4 14.5,18.9 14.5,14.5 C14.5,10.1 17.7,6.6 21.7,6.6 C23.7,6.6 25.2,7.3 26.2,8.4 L26.2,7 L30.7,7 Z M26.2,14.5 C26.2,12.3 24.7,10.8 22.6,10.8 C20.5,10.8 19,12.2 19,14.5 C19,16.8 20.5,18.2 22.6,18.2 C24.7,18.2 26.2,16.8 26.2,14.5 Z" id="Shape"></path>
                        <path d="M39.5,7 L42.3,7 L42.3,11.3 L39.5,11.3 L39.5,22 L35,22 L35,11.3 L33,11.3 L33,7 L35,7 C35,2.8 37.3,0.3 42.3,0.6 L42.3,4.9 C40.6,4.8 39.5,5.3 39.5,7 Z" id="Path"></path>
                        <path d="M51.7,18.4 C52.9,18.4 54,17.9 54.6,17.3 L58.2,19.4 C56.7,21.4 54.5,22.5 51.7,22.5 C46.6,22.5 43.4,19 43.4,14.6 C43.4,10.2 46.6,6.7 51.4,6.7 C55.8,6.7 59,10.1 59,14.6 C59,15.2 58.9,15.8 58.8,16.4 L48.2,16.4 C48.6,17.9 50,18.4 51.7,18.4 Z M54.4,12.9 C53.9,11.2 52.6,10.5 51.2,10.5 C49.5,10.5 48.3,11.3 47.9,12.9 L54.4,12.9 Z" id="Shape"></path>
                    </g>
                </g>
            </g>
        </g>
    </g>
</svg>