<?xml version="1.0" encoding="UTF-8"?>
<svg width="273px" height="290px" viewBox="0 0 273 290" version="1.1" xmlns="http://www.w3.org/2000/svg" xmlns:xlink="http://www.w3.org/1999/xlink">
    <title>Group 44</title>
    <defs>
        <rect id="path-1" x="-1.42108547e-14" y="0" width="272" height="290"></rect>
        <ellipse id="path-3" cx="23.4514286" cy="23.4283465" rx="23.4514286" ry="23.4283465"></ellipse>
        <linearGradient x1="48.9811271%" y1="-1.69870728%" x2="52.025156%" y2="51.8765724%" id="linearGradient-5">
            <stop stop-color="#5DBBF7" offset="0%"></stop>
            <stop stop-color="#4499CE" offset="100%"></stop>
        </linearGradient>
    </defs>
    <g id="CAMBIOS-MAYO-2020" stroke="none" stroke-width="1" fill="none" fill-rule="evenodd">
        <g id="COMBI-PRODUCTOS-SECTORES-HOTELES-RESORTS-+-GOSAFE" transform="translate(-249.000000, -4141.000000)">
            <g id="Group-44" transform="translate(250.000000, 4141.000000)">
                <mask id="mask-2" fill="white">
                    <use xlink:href="#path-1"></use>
                </mask>
                <g id="Mask"></g>
                <path d="M241.587142,115.284836 L239.297314,115.284836 L239.297314,52.7491104 C239.297327,32.7597353 223.042635,16.5551181 202.991441,16.5551181 L70.0912505,16.5551181 C60.4623243,16.5551181 51.2277646,20.3683555 44.4190705,27.1560282 C37.6103765,33.9437008 33.7852632,43.1497734 33.7852632,52.7490134 L33.7852632,395.824945 C33.7852632,405.424183 37.6103271,414.630264 44.4190013,421.417955 C51.2276756,428.205645 60.4622227,432.018937 70.0911475,432.018937 L202.991269,432.018937 C223.042457,432.018937 239.297197,415.81444 239.297257,395.82507 L239.297257,159.798831 L241.587142,159.798831 L241.587142,115.284836 Z" id="Path" fill="#58EEBF" fill-rule="nonzero" mask="url(#mask-2)"></path>
                <path d="M204.456261,25.9715323 L187.108388,25.9715323 C188.728445,29.9312034 188.265029,34.4350202 185.872347,37.9843238 C183.479664,41.5336273 179.471687,43.6626694 175.182104,43.6629937 L99.0453184,43.6629937 C94.7557256,43.6626819 90.7477364,41.5336385 88.3550512,37.9843251 C85.962366,34.4350118 85.4989614,29.9311819 87.1190403,25.9715323 L70.9160862,25.9715323 C55.9420809,25.9715323 43.8032179,38.0729139 43.8032179,53.0007539 L43.8032179,395.573273 C43.8032179,402.741879 46.6597333,409.616879 51.744376,414.685852 C56.8290187,419.754825 63.7252766,422.602551 70.9160519,422.602551 L204.456261,422.602551 C211.647037,422.602551 218.543298,419.754843 223.627947,414.685876 C228.712597,409.616909 231.56913,402.741913 231.56913,395.573307 L231.56913,395.573307 L231.56913,53.0007539 C231.56913,45.8321541 228.712587,38.9571657 223.627938,33.8882076 C218.543289,28.8192496 211.647031,25.9715323 204.456261,25.9715323 L204.456261,25.9715323 Z" id="Path" fill="#000067" fill-rule="nonzero" mask="url(#mask-2)"></path>
                <ellipse id="Oval" fill="#FFFFFF" fill-rule="nonzero" mask="url(#mask-2)" cx="139.994059" cy="47.2460407" rx="2.15425718" ry="2.14761555"></ellipse>
                <g id="Group-47" mask="url(#mask-2)" fill="#1ED49B" fill-rule="nonzero">
                    <g transform="translate(72.151579, 242.047244)">
                        <rect id="Rectangle" x="-1.42108547e-14" y="0" width="132.37475" height="7.42125984"></rect>
                        <rect id="Rectangle-Copy-13" x="-1.42108547e-14" y="11.4173228" width="132.37475" height="7.42125984"></rect>
                        <rect id="Rectangle-Copy-14" x="-1.42108547e-14" y="22.8346457" width="132.37475" height="7.42125984"></rect>
                    </g>
                </g>
                <g id="Group-72" mask="url(#mask-2)">
                    <g transform="translate(162.627368, 53.661417)">
                        <rect id="Rectangle" stroke="none" fill="#58EEBF" fill-rule="evenodd" opacity="0.319661458" x="0" y="4.92372047" width="99.6378947" height="50.0935039" rx="6.9255"></rect>
                        <rect id="Rectangle" stroke="none" fill="#58EEBF" fill-rule="evenodd" x="5.15368421" y="0" width="99.6378947" height="50.0935039" rx="6.9255"></rect>
                        <polyline id="Path-14" stroke="#000067" stroke-width="5.13" fill="none" stroke-linecap="round" stroke-linejoin="round" points="75.5873684 23.7623031 81.1700406 32.3252953 94.748502 15.199311"></polyline>
                        <rect id="Rectangle" stroke="none" fill="#1ED49B" fill-rule="evenodd" x="25.4677895" y="17.5541339" width="24.0934737" height="26.9306102" rx="1.4535"></rect>
                        <path d="M42.6026354,30.2961049 L36.8811655,24.5362296 C36.3135087,23.964864 35.3891954,23.9604968 34.8160628,24.5264036 C34.2432952,25.0919464 34.2385495,26.0137739 34.8062063,26.5847756 L38.0716021,29.8721297 L20.3534076,29.9139813 C19.5470063,29.9161649 18.8946573,30.5690502 18.8968476,31.3729653 C18.8986729,32.1761526 19.551752,32.8253986 20.3570581,32.8253986 L20.3603436,32.8253986 L38.056635,32.783911 L34.8062063,36.056344 C34.2385495,36.6273457 34.2432952,37.5491733 34.8160628,38.1147161 C35.1008038,38.3960318 35.4724274,38.5361437 35.8436859,38.5361437 C36.2196901,38.5361437 36.5956943,38.3923925 36.8811655,38.10489 L42.6026354,32.3446509 C43.1662767,31.7772884 43.1662767,30.8634673 42.6026354,30.2961049" id="Path-Copy-2" stroke="none" fill="#000067" fill-rule="evenodd"></path>
                        <path d="M21.8643667,21.8889108 L30.5314228,21.8889108 L30.5314228,14.0766076 L21.8643667,14.0766076 L21.8643667,21.8889108 Z M31.2850798,12.5885499 L23.1832666,12.5885499 L23.1832666,11.3088202 C23.1832666,9.4041063 24.4002343,8.12437664 26.1694442,8.12437664 C27.4581977,8.12437664 28.4635762,8.78395823 28.9029583,9.93404086 C29.0501098,10.3185178 29.4919413,10.5127093 29.8812051,10.3676237 C30.2706574,10.2225381 30.4709418,9.79341941 30.3239786,9.40894249 C29.6607604,7.67275112 28.0903276,6.6363189 26.1677485,6.6363189 C23.5386159,6.6363189 21.6759525,8.55777346 21.6759525,11.3088202 L21.6759525,12.5885499 L21.1107097,12.5885499 C20.6945026,12.5885499 20.3570526,12.9244789 20.3570526,13.3353688 L20.3570526,22.6329396 C20.3570526,23.0438296 20.6945026,23.3769685 21.1107097,23.3769685 L31.2850798,23.3769685 C31.7012869,23.3769685 32.0387368,23.0438296 32.0387368,22.6329396 L32.0387368,13.3353688 C32.0387368,12.9244789 31.7012869,12.5885499 31.2850798,12.5885499 L31.2850798,12.5885499 Z" id="lock-open" stroke="none" fill="#147767" fill-rule="evenodd"></path>
                    </g>
                </g>
                <g id="Group-31" transform="translate(99.428571, 113.303194)">
                    <path d="M34.5325762,1.30526842 L41.7788591,1.30526842 C42.3455032,1.30526842 42.8048591,1.76462427 42.8048591,2.33126842 L42.8048591,13.4194728 L42.8048591,13.4194728 C42.8048591,18.993594 46.1657747,26.7781226 50.6396911,37.3660287 C55.1136075,47.9539349 53.9640849,53.2036111 53.9640849,64.15483 L53.9640849,104.425212 C53.9640849,107.825077 51.2079498,110.581212 47.8080849,110.581212 L28.5033504,110.581212 C25.1034855,110.581212 22.3473504,107.825077 22.3473504,104.425212 L22.3473504,64.15483 L22.3473504,64.15483 C22.3473504,53.332449 21.2247163,48.0782458 25.5161653,37.7375209 L27.7549621,32.4239601 C31.0985486,24.4276752 33.4359761,18.2738557 33.5050052,13.6295397 L33.5065762,13.4194728 L33.5065762,2.33126842 C33.5065762,1.76462427 33.9659321,1.30526842 34.5325762,1.30526842 Z M41.5379318,0.513 L41.5379318,1.30526842 L41.5379318,1.30526842 L38.1557177,1.30526842 L34.7735036,1.30526842 L34.7735036,0.513 C34.7735036,0.229677923 35.0031815,-1.26267015e-14 35.2865036,-1.27897692e-14 L41.0249318,-1.27897692e-14 C41.3082538,-1.27307924e-14 41.5379318,0.229677923 41.5379318,0.513 Z" id="Shape" fill="#9FFFE1"></path>
                    <path d="M6.02296266,84.5004115 L8.2483317,105.891008 C8.52023734,108.504608 10.7230879,110.490174 13.3507934,110.490174 L24.7277759,110.490174 C27.3633319,110.490174 29.5700867,108.493077 29.8323195,105.870599 L31.9704413,84.4881662 C32.1395814,82.7966692 30.9054673,81.2883249 29.2139704,81.1191848 C29.1122024,81.1090086 29.0099906,81.103911 28.9077151,81.103911 L9.08443966,81.103911 C7.3845072,81.103911 6.00643966,82.4819785 6.00643966,84.181911 C6.00643966,84.288292 6.01195473,84.3946015 6.02296266,84.5004115 Z" id="Path-11" fill="#58EEBF"></path>
                    <path d="M3.31387657,77.2948668 C7.73238098,72.8807133 14.8961905,72.8807133 19.3146939,77.2948678 L19.3146939,77.2948678 L15.387,81.217252 L9.1985213,81.2178803 C7.49858884,81.2178803 6.1205213,82.5959479 6.1205213,84.2958803 C6.1205213,84.4022614 6.12603637,84.5085709 6.1370443,84.6143809 L6.688,89.908252 L3.31387657,93.2799363 C-1.02844478,88.9418869 -1.10331239,81.9549918 3.08927374,77.525603 Z" id="Combined-Shape" fill="#FFFFFF"></path>
                    <path d="M39.8325162,84.2598425 L84.677577,84.2598425 C85.35755,84.2598425 85.908777,84.8110695 85.908777,85.4910425 C85.908777,85.6266203 85.8863836,85.7612672 85.842501,85.8895467 L79.5394753,104.314812 C78.176462,108.299228 74.4311859,110.976378 70.2200836,110.976378 L54.8863611,110.976378 C50.7782355,110.976378 47.1015439,108.426637 45.6616179,104.57913 L38.6794233,85.9225865 C38.4410881,85.2857509 38.7641366,84.5762848 39.4009722,84.3379496 C39.5389867,84.2862978 39.685153,84.2598425 39.8325162,84.2598425 Z" id="Rectangle" fill="#1ED49B"></path>
                    <path d="M55.5504499,69.8466116 C56.6913557,68.5117219 58.4211145,68.5117219 59.5620203,69.8466116 L59.6437156,69.9421973 C60.7381525,71.2227171 62.3974584,71.2227171 63.4918953,69.9421973 L63.5667015,69.854672 C64.618588,68.6239372 66.2133822,68.6239372 67.2652687,69.854672 C68.3171552,71.0854068 69.9119493,71.0854068 70.9638358,69.854672" id="Path" stroke="#E5E7F4" stroke-width="1.8468" stroke-linecap="round" transform="translate(63.257143, 69.874016) rotate(-90.000000) translate(-63.257143, -69.874016) "></path>
                    <path d="M62.7489314,60.5985801 C63.9498187,59.2636904 65.770517,59.2636904 66.9714043,60.5985801 L67.0573947,60.6941658 C68.20937,61.9746856 69.9559116,61.9746856 71.1078869,60.6941658 L71.186626,60.6066405 C72.293814,59.3759057 73.9724521,59.3759057 75.07964,60.6066405" id="Path" stroke="#E5E7F4" stroke-width="1.8468" stroke-linecap="round" transform="translate(68.914286, 60.625984) rotate(-90.000000) translate(-68.914286, -60.625984) "></path>
                    <path d="M63.7754781,78.0209136 L63.8626587,78.1206786 C65.0305801,79.4571866 66.8012978,79.4571866 67.9692191,78.1206786 L68.0490482,78.0293264 C69.1715622,76.7447802 70.8734365,76.7447802 71.9959505,78.0293264" id="Path" stroke="#DDDEEE" stroke-width="1.8468" stroke-linecap="round" transform="translate(67.885714, 78.094488) rotate(-90.000000) translate(-67.885714, -78.094488) "></path>
                </g>
                <g id="Group-34" transform="translate(0.000000, 74.212598)">
                    <g id="Group-5-Copy" transform="translate(20.571429, 3.425197)" fill-rule="nonzero">
                        <path d="M45.7142857,21.7054581 L45.2105471,21.7054581 L45.2105471,7.95715008 C45.2105498,3.5625407 41.634684,0 37.2236268,0 L7.9869455,0 C5.86868033,0 3.83717172,0.838329786 2.33932874,2.33058104 C0.841485765,3.82283229 0,5.84676213 0,7.95712875 L0,83.3814326 C0,85.4917989 0.841474906,87.5157306 2.33931352,89.0079857 C3.83715214,90.5002409 5.86865797,91.3385827 7.98692283,91.3385827 L37.223589,91.3385827 C41.634645,91.3385827 45.2105212,87.7760683 45.2105345,83.3814602 L45.2105345,31.491738 L45.7142857,31.491738 L45.7142857,21.7054581 Z" id="Path-Copy-4" fill="#147767"></path>
                        <path d="M33.6864306,2.28346457 C34.041414,3.14972866 33.9398714,4.13503645 33.415592,4.91152372 C32.8913125,5.688011 32.0130934,6.1537852 31.0731693,6.15385616 L14.3902429,6.15385616 C13.4503167,6.15378794 12.5720948,5.68801344 12.0478148,4.91152402 C11.5235349,4.1350346 11.4219947,3.14972396 11.7769828,2.28346457 L8.22662688,2.28346457 C4.94555549,2.28346457 2.28571429,4.93090473 2.28571429,8.1966941 L2.28571429,83.1418761 C2.28571429,84.7101644 2.91162771,86.2142201 4.02576353,87.3231681 C5.13989935,88.4321161 6.65099236,89.0551181 8.22661935,89.0551181 L37.4876588,89.0551181 C39.0632858,89.0551181 40.5743796,88.43212 41.6885169,87.3231734 C42.8026541,86.2142268 43.4285714,84.7101719 43.4285714,83.1418836 L43.4285714,8.1966941 C43.4285714,6.62840713 42.802652,5.12435403 41.6885148,4.01540931 C40.5743775,2.9064646 39.0632845,2.28346457 37.4876588,2.28346457 L33.6864306,2.28346457 Z" id="Path-Copy-8" fill="#FFFFFF"></path>
                        <rect id="Rectangle-Copy-23" fill="#1ED49B" x="8" y="13.7007874" width="28.5714286" height="3.42519685"></rect>
                        <rect id="Rectangle-Copy-24" fill="#1ED49B" x="27.4285714" y="78.7795276" width="9.14285714" height="3.42519685"></rect>
                    </g>
                    <ellipse id="Oval-Copy-28" fill="#FFFFFF" fill-rule="nonzero" cx="79.4285714" cy="0.570866142" rx="1" ry="1"></ellipse>
                    <g id="Group-Copy-7" transform="translate(0.000000, 29.685039)">
                        <g id="Group-Copy-6">
                            <mask id="mask-4" fill="white">
                                <use xlink:href="#path-3"></use>
                            </mask>
                            <use id="Mask" stroke="#58EEBF" stroke-width="1.2312" fill="#58EEBF" opacity="0.72609747" xlink:href="#path-3"></use>
                            <g id="Group-Copy-2" mask="url(#mask-4)">
                                <g transform="translate(8.228571, 5.754331)">
                                    <path d="M4.16766211,80.391614 C4.16766211,80.391614 1.93510573,61.4595343 1.45724119,56.5642574 C1.24998954,54.4415144 1.8137664,48.1558095 1.8137664,48.1558095 C2.70569777,46.4547025 2.5407112,49.4595524 4.32457394,50.1682892 L9.82492651,52.1523361 L8.33837423,80.391614 C8.33837423,80.391614 7.9789392,85.0390411 9.82492651,87.0522142 C13.3730107,90.9216952 5.38381974,99.2435967 4.32457394,91.5870895 C4.0128599,89.3340415 3.72166005,84.5594995 4.16766211,83.8509014 C4.61359142,83.2840507 4.16766211,80.391614 4.16766211,80.391614 Z" id="Fill-1" fill="#F6B690"></path>
                                    <path d="M30.4210093,75.8543183 C30.4210093,75.8543183 28.188453,56.9222386 27.7105884,52.0269617 C27.5033368,49.9042187 28.0671136,43.6185139 28.0671136,43.6185139 C28.959045,41.9174069 28.7940584,44.9222567 30.5779212,45.6309935 L36.0782737,47.6150405 L34.5917215,75.8543183 C34.5917215,75.8543183 34.2322864,80.5017454 36.0782737,82.5149185 C39.626358,86.3843995 31.637167,94.706301 30.5779212,87.0497938 C30.2662071,84.7967459 29.9750073,80.0222038 30.4210093,79.3136057 C30.8669387,78.746755 30.4210093,75.8543183 30.4210093,75.8543183 Z" id="Fill-1-Copy" fill="#F6B690"></path>
                                    <path d="M34.1575808,138.103937 L27.5657344,138.103937 L16.2562002,92.8126973 L16.3208528,138.103937 L9.27664733,138.103937 C9.27664733,138.103937 -0.232786197,85.4456584 6.16517211,72.3131498 L29.8923217,72.3131498 C29.9569046,72.3772374 30.8616925,81.9863765 34.1575808,138.103937 Z" id="Fill-2" fill="url(#linearGradient-5)"></path>
                                    <polygon id="Fill-3" fill="#58EEBF" points="21.0254856 23.2536403 22.3012304 34.0297175 11.2917623 34.0297175 12.1122035 25.7412389"></polygon>
                                    <path d="M11.5602556,29.7795802 C11.5602556,29.7795802 13.0147604,32.2475994 17.2717148,31.7610697 C21.5286692,31.27454 21.7867846,29.5083098 21.7782231,29.2094827 C31.0904475,29.637397 36.6283703,36.6785713 38.3919917,50.3330055 L29.9563098,50.3330055 C30.8082931,62.2447527 30.8082931,70.6112644 29.9563098,75.4325405 L5.06623251,75.4325405 L6.97652436,53.8476857 L1.53387412,50.3330055 C0.823872586,48.4899669 2.68099784,29.1411782 11.5602556,29.7795802 Z" id="Fill-4" fill="#1ED49B"></path>
                                    <path d="M21.5202232,22.8291051 C21.1380418,24.1098558 19.0294576,25.6664391 17.7810214,26.2028574 C15.128189,27.3415335 11.696928,28.1634871 9.18996947,25.0530926 C6.89365664,22.2233821 6.18123497,18.3423195 5.95467075,15.8341827 C5.78093949,14.3268057 6.475247,12.9116039 7.63578828,11.9482687 C10.2690656,9.88714726 15.155223,6.39280479 16.2671854,6.84605746 C17.2679928,7.25356904 20.3094562,10.3209946 22.2408785,12.2837034 C23.2729053,13.4223795 23.6359433,14.9415383 23.3200433,16.3796106 L21.5202232,22.8291051 Z" id="Fill-8" fill="#58EEBF"></path>
                                    <path d="M17.5924902,9.31587818 C17.5924902,9.31587818 18.8656941,14.4856007 19.1791872,14.3509074 C19.4927493,14.2169085 20.6649709,12.5755945 21.7661947,13.7822796 C23.0382268,15.1757302 21.4274043,18.1431482 21.4274043,18.1431482 C21.4274043,18.1431482 20.9641266,22.9462828 21.9164619,22.3519661 C22.8687972,21.7576493 29.0371947,12.3825804 23.2248889,3.76290464 C23.2248889,3.76290464 18.5690199,-1.53803972 13.957197,0.443478974 C11.4260227,1.53143966 4.92831903,2.85554793 2.57557834,4.88667272 C0.222837654,6.91779751 -0.562193876,8.55493057 0.770772233,11.7132797 C2.10366941,14.8709346 5.83553336,15.7408866 7.43291451,15.4659456 C12.0889904,14.6640346 16.6697258,11.2960083 17.5924902,9.31587818 Z" id="Fill-9" fill="#147767"></path>
                                </g>
                            </g>
                        </g>
                    </g>
                    <g id="Group-6" transform="translate(53.714286, 9.133858)">
                        <rect id="Rectangle" fill="#9FFFE1" x="0" y="0" width="29.7142857" height="33.3956693" rx="4.617"></rect>
                        <polyline id="Path-14" stroke="#241DBA" stroke-width="3.42" stroke-linecap="round" stroke-linejoin="round" points="10.2857143 15.8415354 13.9996769 21.5501969 23.032967 10.132874"></polyline>
                    </g>
                </g>
            </g>
        </g>
    </g>
</svg>