<?xml version="1.0" encoding="UTF-8"?>
<svg width="314px" height="288px" viewBox="0 0 314 288" version="1.1" xmlns="http://www.w3.org/2000/svg" xmlns:xlink="http://www.w3.org/1999/xlink">
    <!-- Generator: Sketch 52.5 (67469) - http://www.bohemiancoding.com/sketch -->
    <title>Group 9</title>
    <desc>Created with Sketch.</desc>
    <defs>
        <polygon id="path-1" points="0 0.0620424 24.8859828 0.0620424 24.8859828 24.948 0 24.948"></polygon>
        <linearGradient x1="-2.31387508e-13%" y1="50.000002%" x2="100%" y2="50.000002%" id="linearGradient-3">
            <stop stop-color="#808080" stop-opacity="0.25" offset="0%"></stop>
            <stop stop-color="#808080" stop-opacity="0.12" offset="53.514%"></stop>
            <stop stop-color="#808080" stop-opacity="0.1" offset="100%"></stop>
        </linearGradient>
        <polygon id="path-4" points="0 0.0620424 24.8859828 0.0620424 24.8859828 24.948 0 24.948"></polygon>
        <polygon id="path-6" points="7.90028765e-06 0.000192510396 32.66256 0.000192510396 32.66256 42.74256 7.90028765e-06 42.74256"></polygon>
        <polygon id="path-8" points="0 0.36372 15.458478 0.36372 15.458478 13.02 0 13.02"></polygon>
        <linearGradient x1="49.9990129%" y1="100%" x2="49.9990129%" y2="0%" id="linearGradient-10">
            <stop stop-color="#808080" stop-opacity="0.25" offset="1%"></stop>
            <stop stop-color="#808080" stop-opacity="0.12" offset="54%"></stop>
            <stop stop-color="#808080" stop-opacity="0.1" offset="100%"></stop>
        </linearGradient>
        <linearGradient x1="49.9938748%" y1="100%" x2="49.9938748%" y2="0%" id="linearGradient-11">
            <stop stop-color="#B3B3B3" stop-opacity="0.25" offset="0%"></stop>
            <stop stop-color="#B3B3B3" stop-opacity="0.1" offset="54%"></stop>
            <stop stop-color="#B3B3B3" stop-opacity="0.05" offset="100%"></stop>
        </linearGradient>
        <polygon id="path-12" points="0 0.0620424 24.8859828 0.0620424 24.8859828 24.948 0 24.948"></polygon>
        <polygon id="path-14" points="0 0.0620424 24.8859828 0.0620424 24.8859828 24.948 0 24.948"></polygon>
    </defs>
    <g id="CAMBIOS-MAYO-2020" stroke="none" stroke-width="1" fill="none" fill-rule="evenodd">
        <g id="LANDING-GOWORK" transform="translate(-578.000000, -924.000000)">
            <g id="Group-9" transform="translate(578.000000, 924.000000)">
                <g id="Group-20-Copy-2" transform="translate(168.000000, 101.000000)">
                    <polygon id="lock-open-copy-2" fill="#EFEFEF" points="3.4 37.4 23.8 37.4 23.8 17 3.4 17"></polygon>
                    <path d="M3.50967742,35.6244444 L23.6903226,35.6244444 L23.6903226,17.3777778 L3.50967742,17.3777778 L3.50967742,35.6244444 Z M6.58064516,10.9132444 C6.58064516,6.46453333 9.48007742,3.47555556 13.5995613,3.47555556 C17.7194839,3.47555556 20.6193548,6.46453333 20.6193548,10.9132444 L20.6193548,13.9022222 L6.58064516,13.9022222 L6.58064516,10.9132444 Z M24.1290323,13.9022222 L24.1290323,10.9132444 C24.1290323,4.48781111 19.7217548,1.81188398e-13 13.5995613,1.81188398e-13 C7.47824516,1.81188398e-13 3.07096774,4.48781111 3.07096774,10.9132444 L3.07096774,13.9022222 L1.75483871,13.9022222 C0.785729032,13.9022222 3.64153152e-13,14.6868289 3.64153152e-13,15.6465167 L3.64153152e-13,37.3622222 C3.64153152e-13,38.32191 0.785729032,39.1 1.75483871,39.1 L25.4451613,39.1 C26.414271,39.1 27.2,38.32191 27.2,37.3622222 L27.2,15.6465167 C27.2,14.6868289 26.414271,13.9022222 25.4451613,13.9022222 L24.1290323,13.9022222 Z" id="lock" fill="#EF1249"></path>
                </g>
                <g id="Group-8-Copy-8" transform="translate(289.000000, 109.000000)">
                    <g id="Group-3" transform="translate(0.000000, 0.064008)">
                        <mask id="mask-2" fill="white">
                            <use xlink:href="#path-1"></use>
                        </mask>
                        <g id="Clip-2"></g>
                        <path d="M12.4429788,0.0620424 C19.3150188,0.0620424 24.8859828,5.6330064 24.8859828,12.5050464 C24.8859828,19.3770864 19.3150188,24.9480504 12.4429788,24.9480504 C5.5709388,24.9480504 -2.52e-05,19.3770864 -2.52e-05,12.5050464 C-2.52e-05,5.6330064 5.5709388,0.0620424 12.4429788,0.0620424" id="Fill-1" fill="#E6E6E6" mask="url(#mask-2)"></path>
                    </g>
                    <path d="M12.4429788,2.1998844 C18.1696788,2.1998844 22.8121488,6.8423544 22.8121488,12.5690544 C22.8121488,18.2957544 18.1696788,22.9382244 12.4429788,22.9382244 C6.7162788,22.9382244 2.0738088,18.2957544 2.0738088,12.5690544 C2.0738088,6.8423544 6.7162788,2.1998844 12.4429788,2.1998844" id="Fill-4" fill="#61CA24"></path>
                    <polygon id="Fill-6" fill="#FFFFFF" points="11.481246 16.8293664 8.460396 12.9454164 10.217088 11.5789464 11.64744 13.4180424 16.479414 8.3174364 18.095112 9.8482104"></polygon>
                </g>
                <path d="M147,272 C214.378739,272 269,217.378739 269,150 C269,82.6212605 214.378739,28 147,28 C79.6212605,28 25,82.6212605 25,150 C25,217.378739 79.6212605,272 147,272 Z" id="Oval-Copy-2" stroke="#FFFFFF" stroke-dasharray="15,15"></path>
                <g id="Group-4" transform="translate(114.000000, 0.000000)">
                    <g id="Group-18-Copy-4" transform="translate(0.000000, 11.900000)" fill-rule="nonzero">
                        <g id="Group">
                            <ellipse id="Oval" fill="#E0E0E0" transform="translate(1.949156, 20.613328) rotate(-63.610790) translate(-1.949156, -20.613328) " cx="1.94915582" cy="20.6133277" rx="3.24275582" ry="1"></ellipse>
                            <ellipse id="Oval" fill="#E0E0E0" transform="translate(42.468372, 40.736840) rotate(-63.610790) translate(-42.468372, -40.736840) " cx="42.4683718" cy="40.7368404" rx="3.24275582" ry="1"></ellipse>
                            <rect id="Rectangle" fill="#F55F44" transform="translate(18.250730, 34.654519) rotate(39.547320) translate(-18.250730, -34.654519) " x="17.2779034" y="31.4117637" width="1.94565294" height="6.48551072"></rect>
                            <rect id="Rectangle" fill="#000000" opacity="0.05" transform="translate(19.423240, 35.267228) rotate(-166.768900) translate(-19.423240, -35.267228) " x="18.3286536" y="32.0244728" width="2.18917222" height="6.48551072"></rect>
                            <rect id="Rectangle" fill="#F55F44" transform="translate(19.541767, 35.295097) rotate(-166.768900) translate(-19.541767, -35.295097) " x="18.5689409" y="32.0523414" width="1.94565294" height="6.48551072"></rect>
                            <rect id="Rectangle" fill="url(#linearGradient-3)" transform="translate(22.210455, 30.666369) rotate(-63.610790) translate(-22.210455, -30.666369) " x="18.8055613" y="8.04814954" width="6.80978668" height="45.2364399"></rect>
                            <path d="M41.0304582,43.6242585 C40.2372966,43.2438006 -0.0731089082,23.2299153 0.507860712,23.5181756 C2.74520752,20.1033128 3.39045335,17.708484 3.39045335,17.708484 L43.9130508,37.8145669 C43.9130508,37.8145669 42.4899864,40.3120484 41.0304582,43.6242585 Z" id="Path" fill="#F5F5F5"></path>
                            <rect id="Rectangle" fill="#000000" opacity="0.05" transform="translate(21.339004, 30.233981) rotate(26.389210) translate(-21.339004, -30.233981) " x="19.4744198" y="26.9912259" width="3.72916883" height="6.48551072"></rect>
                            <rect id="Rectangle" fill="#F55F44" transform="translate(21.339004, 30.233981) rotate(26.389210) translate(-21.339004, -30.233981) " x="19.6365569" y="26.9912257" width="3.4048938" height="6.48551072"></rect>
                            <rect id="Rectangle" fill="#000000" opacity="0.05" transform="translate(21.266383, 30.197949) rotate(26.389210) translate(-21.266383, -30.197949) " x="20.1314183" y="26.9551933" width="2.26992889" height="6.48551072"></rect>
                            <rect id="Rectangle" fill="#F55F44" transform="translate(21.266383, 30.197949) rotate(26.389210) translate(-21.266383, -30.197949) " x="20.2935563" y="26.9551933" width="1.94565294" height="6.48551072"></rect>
                            <path d="M18.1320381,27.1194009 L15.9144381,30.4458009 C15.9144381,30.4458009 16.6536381,33.8646009 33.0084381,33.7722009 C49.3632381,33.6798009 50.6568381,30.4458009 50.6568381,30.4458009 L47.6076381,26.0106009 L38.2752381,19.6350009 L18.1320381,27.1194009 Z" id="Path" fill="#EF1249"></path>
                            <path d="M18.1320381,27.1194009 L15.9144381,30.4458009 C15.9144381,30.4458009 16.6536381,33.8646009 33.0084381,33.7722009 C49.3632381,33.6798009 50.6568381,30.4458009 50.6568381,30.4458009 L47.6076381,26.0106009 L38.2752381,19.6350009 L18.1320381,27.1194009 Z" id="Path" fill="#000000" opacity="0.15"></path>
                            <polygon id="Path" fill="#EF1249" points="65.3022085 14.784 36.1962085 27.6276 0.714608484 14.784 33.2394085 0 49.2052045 7.361508 49.7771605 7.625772"></polygon>
                            <polygon id="Path" fill="#000000" opacity="0.15" points="65.3022085 14.784 36.1962085 27.6276 0.714608484 14.784 33.2394085 0 49.2052045 7.361508 49.7771605 7.625772"></polygon>
                            <polygon id="Path" fill="#F5F5F5" points="50.3796085 17.862768 49.8252085 17.896032 49.2052045 7.361508 49.7771605 7.625772"></polygon>
                            <path d="M18.5016381,14.7378009 L15.9144381,30.4458009 C15.9144381,30.4458009 34.4868381,24.4398009 50.6568381,30.4458009 L48.2544381,13.8138009 C48.2544381,13.8138009 26.5404381,11.1342009 18.5016381,14.7378009 Z" id="Path" fill="#EF1249"></path>
                            <ellipse id="Oval" fill="#F5F5F5" cx="50.3334371" cy="19.2192" rx="2.6796" ry="1.848"></ellipse>
                        </g>
                    </g>
                    <g id="Group-8-Copy-8" transform="translate(40.600000, 0.000000)">
                        <g id="Group-3" transform="translate(0.000000, 0.064008)">
                            <mask id="mask-5" fill="white">
                                <use xlink:href="#path-4"></use>
                            </mask>
                            <g id="Clip-2"></g>
                            <path d="M12.4429788,0.0620424 C19.3150188,0.0620424 24.8859828,5.6330064 24.8859828,12.5050464 C24.8859828,19.3770864 19.3150188,24.9480504 12.4429788,24.9480504 C5.5709388,24.9480504 -2.52e-05,19.3770864 -2.52e-05,12.5050464 C-2.52e-05,5.6330064 5.5709388,0.0620424 12.4429788,0.0620424" id="Fill-1" fill="#E6E6E6" mask="url(#mask-5)"></path>
                        </g>
                        <path d="M12.4429788,2.1998844 C18.1696788,2.1998844 22.8121488,6.8423544 22.8121488,12.5690544 C22.8121488,18.2957544 18.1696788,22.9382244 12.4429788,22.9382244 C6.7162788,22.9382244 2.0738088,18.2957544 2.0738088,12.5690544 C2.0738088,6.8423544 6.7162788,2.1998844 12.4429788,2.1998844" id="Fill-4" fill="#61CA24"></path>
                        <polygon id="Fill-6" fill="#FFFFFF" points="11.481246 16.8293664 8.460396 12.9454164 10.217088 11.5789464 11.64744 13.4180424 16.479414 8.3174364 18.095112 9.8482104"></polygon>
                    </g>
                </g>
                <path d="M174,158 L168,158 L168,152 L174,152 L174,158 Z M174,170 L168,170 L168,164 L174,164 L174,170 Z M157,130 L151,130 L151,124 L157,124 L157,130 Z M157,144 L151,144 L151,138 L157,138 L157,144 Z M157,158 L151,158 L151,152 L157,152 L157,158 Z M145,130 L139,130 L139,124 L145,124 L145,130 Z M145,144 L139,144 L139,138 L145,138 L145,144 Z M145,158 L139,158 L139,152 L145,152 L145,158 Z M128,158 L122,158 L122,152 L128,152 L128,158 Z M128,170 L122,170 L122,164 L128,164 L128,170 Z M178.6,144 L165,144 L165,120.2 C165,118.3266 163.4802,116.8 161.6,116.8 L158.2,116.8 L158.2,113.4 C158.2,111.5266 156.6802,110 154.8,110 L141.2,110 C139.3232,110 137.8,111.5266 137.8,113.4 L137.8,116.8 L134.4,116.8 C132.5232,116.8 131,118.3266 131,120.2 L131,144 L117.4,144 C115.5232,144 114,145.5266 114,147.4 L114,174.6 C114,176.4802 115.5232,178 117.4,178 L141.2,178 L141.2,164.4 L154.8,164.4 L154.8,178 L178.6,178 C180.4802,178 182,176.4802 182,174.6 L182,147.4 C182,145.5266 180.4802,144 178.6,144 L178.6,144 Z" id="Fill-537-Copy-7" fill="#A1A1B2" opacity="0.815429688"></path>
                <g id="Group-9-Copy-3" transform="translate(251.000000, 102.000000)">
                    <g id="Group-7">
                        <g id="Group-3" transform="translate(0.000000, 20.300000)">
                            <mask id="mask-7" fill="white">
                                <use xlink:href="#path-6"></use>
                            </mask>
                            <g id="Clip-2"></g>
                            <path d="M15.050574,20.049918 L12.921174,15.404718 C12.609114,14.760858 12.339474,14.097258 12.114774,13.418118 C11.871174,12.607518 11.753574,11.767518 11.526774,10.952718 C10.779174,8.239518 8.893374,5.979918 7.973574,3.321318 C7.915614,3.081078 7.796754,2.860158 7.629174,2.678718 C7.357434,2.486358 7.014294,2.425038 6.692574,2.510718 C5.407374,2.733318 4.403574,3.711918 3.227574,4.266318 C2.681574,4.518318 2.093574,4.686318 1.547574,4.976118 C0.995274,5.237778 0.584514,5.726658 0.421974,6.315918 C0.291774,6.958518 0.610974,7.575918 0.879774,8.201718 C2.022174,10.780518 2.282574,13.661718 2.332974,16.484118 C2.370774,18.382518 2.274174,20.419518 1.152774,21.944118 C-1.001826,24.884118 0.375774,29.201718 1.182174,32.759118 C1.278774,33.179118 1.392174,33.632718 1.459374,34.077918 C1.530354,34.634838 1.562694,35.196378 1.555974,35.757918 C1.555974,37.643718 1.450974,39.588318 0.661374,41.297718 C1.440894,41.712678 2.300214,41.955858 3.181374,42.011718 C5.620314,42.322518 8.068914,42.540918 10.527174,42.666918 C11.297454,42.739158 12.074034,42.699678 12.832974,42.549318 C14.686854,42.048258 15.964914,40.353558 15.936774,38.433318 C16.071174,39.596718 16.318974,40.860918 17.163174,41.667318 C18.007374,42.473718 19.237974,42.595518 20.384574,42.658518 C23.620674,42.830298 26.865174,42.738738 30.086574,42.385518 C30.292374,42.376278 30.494394,42.329238 30.682974,42.246918 C31.304574,41.936118 31.338174,41.079318 31.287774,40.390518 C31.195374,39.101118 31.098774,37.811718 30.943374,36.530718 C30.811494,35.714238 30.744294,34.888098 30.741774,34.061118 C30.806034,33.210198 30.946314,32.366838 31.161774,31.541118 C31.724574,28.920318 32.169774,26.244918 31.980774,23.561118 C31.906014,22.907178 31.879554,22.249038 31.900974,21.591318 C32.010174,20.108718 32.791374,18.697518 32.644374,17.223318 C32.224374,12.888918 31.884174,8.441118 30.674574,4.257918 C30.456174,3.510318 30.178974,2.708118 29.527974,2.279718 C28.687974,1.716918 27.507774,2.010918 26.545974,1.653918 C26.094474,1.443918 25.665654,1.189398 25.264974,0.893718 C24.394734,0.349398 23.396814,0.042378 22.371174,0.003318 C21.598374,-0.026082 20.737374,0.146118 20.271174,0.767718 C20.055294,1.117578 19.912494,1.507758 19.851174,1.914318 C19.242174,4.476318 18.528174,7.008918 17.814174,9.541518 L17.129574,11.969118 L15.294174,18.487518 C15.113574,19.180518 15.235374,19.394718 15.050574,20.049918" id="Fill-1" fill="#EF1249" mask="url(#mask-7)"></path>
                        </g>
                        <g id="Group-8" transform="translate(5.600000, 0.000000)">
                            <g id="Group-3" transform="translate(0.000000, 0.056448)">
                                <mask id="mask-9" fill="white">
                                    <use xlink:href="#path-8"></use>
                                </mask>
                                <g id="Clip-2"></g>
                                <path d="M15.458478,8.1018 C15.227478,6.1236 13.816278,4.4898 12.316878,3.1752 C11.108538,2.03532 9.668778,1.16886 8.095878,0.6342 C6.512478,0.168 4.689678,0.2688 3.333078,1.2138 C2.241078,1.974 1.548078,3.1836 1.014678,4.4016 C0.314118,5.83884 -0.033222,7.42308 0.002478,9.0216 C0.107478,10.6092 0.880278,12.2178 2.257878,13.02 C2.753478,12.2892 3.614478,11.9112 4.441878,11.613 C8.047998,10.24464 11.725518,9.07284 15.458478,8.1018" id="Fill-1" fill="#FED253" mask="url(#mask-9)"></path>
                            </g>
                            <path d="M2.719878,7.335048 C2.854278,7.335048 2.942478,7.473648 3.009678,7.587048 C3.351558,8.120028 3.645558,8.681988 3.887478,9.267048 C3.396078,9.372048 2.551878,9.489648 2.308278,9.057048 C2.178078,8.838648 2.333478,7.314048 2.719878,7.335048" id="Fill-4" fill="#EDB043"></path>
                            <path d="M12.291678,6.385848 C12.190878,6.482448 12.073278,6.285048 12.073278,6.142248 L12.073278,4.512648 C12.070338,4.467288 12.080838,4.422348 12.102678,4.382448 C12.137958,4.342128 12.187938,4.317768 12.241278,4.315248 C12.581478,4.277448 12.862878,4.567248 13.081278,4.844448 C13.412658,5.293848 13.701198,5.773068 13.942278,6.276648 L12.165678,6.222048" id="Fill-6" fill="#EDB043"></path>
                        </g>
                    </g>
                    <g id="Group-5" transform="translate(37.100000, 41.300000)" fill="#EF1249">
                        <polygon id="Fill-7" points="-1.64881442e-13 16.4164 24.2515 16.4164 24.2515 2.7755 -1.64881442e-13 2.7755"></polygon>
                        <polygon id="Fill-9" points="7.0798 1.48716595e-13 7.0798 3.5399 8.3447 3.5399 8.3447 1.0101 15.925 1.0101 15.925 3.5399 17.1808 3.5399 17.1808 1.48716595e-13"></polygon>
                    </g>
                </g>
                <g id="Group" transform="translate(0.000000, 107.000000)" fill-rule="nonzero">
                    <rect id="Rectangle" fill="#F5F5F5" x="5.306" y="18.337" width="8.887" height="4.025"></rect>
                    <rect id="Rectangle" fill="#F5F5F5" x="5.306" y="24.599" width="8.887" height="4.025"></rect>
                    <rect id="Rectangle" fill="#F5F5F5" x="20.848" y="12.747" width="8.887" height="4.025"></rect>
                    <rect id="Rectangle" fill="#F5F5F5" x="20.848" y="19.008" width="8.887" height="4.025"></rect>
                    <polygon id="Path" fill="url(#linearGradient-10)" points="50.651 67.312 0 67.312 0 8.487 7.652 0 50.651 0"></polygon>
                    <polygon id="Path" fill="#FFFFFF" points="49.868 65.523 0.894 65.523 0.894 8.945 8.294 0.783 49.868 0.783"></polygon>
                    <rect id="Rectangle" fill="#E0E0E0" x="5.676" y="7.771" width="23.859" height="4.025"></rect>
                    <rect id="Rectangle" fill="#E0E0E0" x="5.724" y="18.785" width="17.484" height="4.025"></rect>
                    <rect id="Rectangle" fill="#EF1249" x="5.724" y="35.333" width="39.218" height="14.759"></rect>
                    <rect id="Rectangle" fill="#E0E0E0" x="36.055" y="7.827" width="8.887" height="4.025"></rect>
                    <rect id="Rectangle" fill="#E0E0E0" x="36.055" y="14.088" width="8.887" height="4.025"></rect>
                    <rect id="Rectangle" fill="#E0E0E0" x="36.055" y="20.35" width="8.887" height="4.025"></rect>
                    <polygon id="Path" fill="url(#linearGradient-11)" points="9.057 0.783 9.057 9.728 0.894 9.728 0.894 8.945 8.274 0.783"></polygon>
                    <polygon id="Path" fill="#EEEEEE" points="0.874 8.945 8.274 0.783 8.274 8.945"></polygon>
                </g>
                <g id="Group-6" transform="translate(136.000000, 240.000000)">
                    <g id="Group-2-Copy">
                        <rect id="Rectangle" fill="#D9D9D9" x="0" y="6.86" width="32.06" height="38.22"></rect>
                        <g id="Group-14" transform="translate(5.460000, 0.000000)">
                            <polygon id="Fill-1" fill="#EFEFEF" points="0 40.79292 32.63442 40.79292 32.63442 0 0 0"></polygon>
                            <polygon id="Fill-2" fill="#FFFFFF" points="2.27276 8.10026 9.2659 8.10026 9.2659 3.43826 2.27276 3.43826"></polygon>
                            <polygon id="Fill-3" fill="#FFFFFF" points="2.331 14.161 29.37088 14.161 29.37088 12.5293 2.331 12.5293"></polygon>
                            <polygon id="Fill-4" fill="#FFFFFF" points="2.331 18.47342 29.37088 18.47342 29.37088 16.84172 2.331 16.84172"></polygon>
                            <polygon id="Fill-5" fill="#FFFFFF" points="2.331 22.7857 29.37088 22.7857 29.37088 21.154 2.331 21.154"></polygon>
                            <polygon id="Fill-6" fill="#FFFFFF" points="2.331 27.09812 29.37088 27.09812 29.37088 25.46642 2.331 25.46642"></polygon>
                            <polygon id="Fill-7" fill="#FFFFFF" points="2.331 31.41054 29.37088 31.41054 29.37088 29.77884 2.331 29.77884"></polygon>
                        </g>
                    </g>
                    <g id="Group-8-Copy-8" transform="translate(21.000000, 23.000000)">
                        <g id="Group-3" transform="translate(0.000000, 0.064008)">
                            <mask id="mask-13" fill="white">
                                <use xlink:href="#path-12"></use>
                            </mask>
                            <g id="Clip-2"></g>
                            <path d="M12.4429788,0.0620424 C19.3150188,0.0620424 24.8859828,5.6330064 24.8859828,12.5050464 C24.8859828,19.3770864 19.3150188,24.9480504 12.4429788,24.9480504 C5.5709388,24.9480504 -2.52e-05,19.3770864 -2.52e-05,12.5050464 C-2.52e-05,5.6330064 5.5709388,0.0620424 12.4429788,0.0620424" id="Fill-1" fill="#E6E6E6" mask="url(#mask-13)"></path>
                        </g>
                        <path d="M12.4429788,2.1998844 C18.1696788,2.1998844 22.8121488,6.8423544 22.8121488,12.5690544 C22.8121488,18.2957544 18.1696788,22.9382244 12.4429788,22.9382244 C6.7162788,22.9382244 2.0738088,18.2957544 2.0738088,12.5690544 C2.0738088,6.8423544 6.7162788,2.1998844 12.4429788,2.1998844" id="Fill-4" fill="#61CA24"></path>
                        <polygon id="Fill-6" fill="#FFFFFF" points="11.481246 16.8293664 8.460396 12.9454164 10.217088 11.5789464 11.64744 13.4180424 16.479414 8.3174364 18.095112 9.8482104"></polygon>
                    </g>
                </g>
                <g id="Group-3" transform="translate(36.000000, 159.064008)">
                    <mask id="mask-15" fill="white">
                        <use xlink:href="#path-14"></use>
                    </mask>
                    <g id="Clip-2"></g>
                    <path d="M12.4429788,0.0620424 C19.3150188,0.0620424 24.8859828,5.6330064 24.8859828,12.5050464 C24.8859828,19.3770864 19.3150188,24.9480504 12.4429788,24.9480504 C5.5709388,24.9480504 -2.52e-05,19.3770864 -2.52e-05,12.5050464 C-2.52e-05,5.6330064 5.5709388,0.0620424 12.4429788,0.0620424" id="Fill-1" fill="#E6E6E6" mask="url(#mask-15)"></path>
                </g>
                <path d="M48.4429788,161.199884 C54.1696788,161.199884 58.8121488,165.842354 58.8121488,171.569054 C58.8121488,177.295754 54.1696788,181.938224 48.4429788,181.938224 C42.7162788,181.938224 38.0738088,177.295754 38.0738088,171.569054 C38.0738088,165.842354 42.7162788,161.199884 48.4429788,161.199884" id="Fill-4" fill="#EF1249"></path>
                <g id="Group-6" transform="translate(45.000000, 168.000000)" stroke="#FFFFFF" stroke-linecap="square" stroke-width="2.3">
                    <path d="M0.4,0.4 L6.8,6.8" id="Line"></path>
                    <path d="M0.4,0.4 L6.8,6.8" id="Line-Copy" transform="translate(3.600000, 3.600000) scale(-1, 1) translate(-3.600000, -3.600000) "></path>
                </g>
            </g>
        </g>
    </g>
</svg>