<?xml version="1.0" encoding="UTF-8"?>
<svg width="292px" height="310px" viewBox="0 0 292 310" version="1.1" xmlns="http://www.w3.org/2000/svg" xmlns:xlink="http://www.w3.org/1999/xlink">
    <!-- Generator: Sketch 52.5 (67469) - http://www.bohemiancoding.com/sketch -->
    <title>Group 10</title>
    <desc>Created with Sketch.</desc>
    <g id="CAMBIOS-MAYO-2020" stroke="none" stroke-width="1" fill="none" fill-rule="evenodd">
        <g id="LANDING-GOWORK" transform="translate(-1025.000000, -914.000000)">
            <g id="Group-10" transform="translate(1025.000000, 915.000000)">
                <g id="Group-20-Copy-3" transform="translate(238.000000, 113.000000)">
                    <circle id="Oval" fill="#FFFFFF" cx="12.6" cy="13.16" r="3.08"></circle>
                    <circle id="Oval-Copy-19" fill="#FFFFFF" cx="12.6" cy="49" r="3.08"></circle>
                    <circle id="Oval-Copy-11" fill="#FFFFFF" cx="44.8" cy="21.28" r="2.24"></circle>
                    <circle id="Oval-Copy-17" fill="#FFFFFF" cx="24.08" cy="50.96" r="2.24"></circle>
                    <circle id="Oval-Copy-15" fill="#FFFFFF" cx="33.6" cy="44.8" r="2.24"></circle>
                    <circle id="Oval-Copy-22" fill="#FFFFFF" cx="2.24" cy="19.6" r="2.24"></circle>
                    <circle id="Oval-Copy-14" fill="#FFFFFF" cx="12.32" cy="26.32" r="2.24"></circle>
                    <circle id="Oval-Copy-5" fill="#FFFFFF" cx="28" cy="19.04" r="5.6"></circle>
                    <circle id="Oval-Copy-16" fill="#FFFFFF" cx="48.16" cy="50.4" r="5.6"></circle>
                    <circle id="Oval-Copy-6" fill="#FFFFFF" cx="25.48" cy="3.08" r="3.08"></circle>
                    <circle id="Oval-Copy-18" fill="#FFFFFF" cx="35.56" cy="57.4" r="3.08"></circle>
                    <circle id="Oval-Copy-13" fill="#FFFFFF" cx="50.12" cy="35" r="3.08"></circle>
                    <circle id="Oval-Copy-21" fill="#FFFFFF" cx="5.32" cy="37.8" r="3.08"></circle>
                    <circle id="Oval-Copy-10" fill="#FFFFFF" cx="36.68" cy="32.2" r="3.08"></circle>
                    <circle id="Oval-Copy-7" fill="#EF1249" cx="41.16" cy="9.8" r="3.64"></circle>
                    <circle id="Oval-Copy-20" fill="#FFFFFF" cx="17.64" cy="63.56" r="3.64"></circle>
                    <circle id="Oval-Copy-9" fill="#EF1249" cx="21.84" cy="35.28" r="6.72"></circle>
                </g>
                <path d="M173,168 L166,168 L166,161 L173,161 L173,168 Z M173,182 L166,182 L166,175 L173,175 L173,182 Z M155,140 L148,140 L148,133 L155,133 L155,140 Z M155,154 L148,154 L148,147 L155,147 L155,154 Z M155,168 L148,168 L148,161 L155,161 L155,168 Z M142,140 L135,140 L135,133 L142,133 L142,140 Z M142,154 L135,154 L135,147 L142,147 L142,154 Z M142,168 L135,168 L135,161 L142,161 L142,168 Z M124,168 L117,168 L117,161 L124,161 L124,168 Z M124,182 L117,182 L117,175 L124,175 L124,182 Z M175.6,154 L162,154 L162,130.2 C162,128.3266 160.4802,126.8 158.6,126.8 L155.2,126.8 L155.2,123.4 C155.2,121.5266 153.6802,120 151.8,120 L138.2,120 C136.3232,120 134.8,121.5266 134.8,123.4 L134.8,126.8 L131.4,126.8 C129.5232,126.8 128,128.3266 128,130.2 L128,154 L114.4,154 C112.5232,154 111,155.5266 111,157.4 L111,184.6 C111,186.4802 112.5232,188 114.4,188 L138.2,188 L138.2,174.4 L151.8,174.4 L151.8,188 L175.6,188 C177.4802,188 179,186.4802 179,184.6 L179,157.4 C179,155.5266 177.4802,154 175.6,154 L175.6,154 Z" id="Fill-537-Copy-8" fill="#FFFFFF" opacity="0.632161458"></path>
                <path d="M143,281 C210.378739,281 265,226.378739 265,159 C265,91.6212605 210.378739,37 143,37 C75.6212605,37 21,91.6212605 21,159 C21,226.378739 75.6212605,281 143,281 Z" id="Oval" stroke="#FFFFFF" stroke-dasharray="15,15"></path>
                <g id="Group-26" transform="translate(121.000000, 0.000000)" fill="#EF1249" fill-rule="nonzero" stroke="#EF1249" stroke-width="0.56">
                    <rect id="Rectangle" x="0" y="18.8853" width="1.1109" height="36.6597" rx="0.55545"></rect>
                    <rect id="Rectangle" x="3.3327" y="23.3289" width="1.1109" height="26.6616" rx="0.55545"></rect>
                    <rect id="Rectangle" x="7.7763" y="27.7725" width="1.1109" height="17.7744" rx="0.55545"></rect>
                    <rect id="Rectangle" x="11.109" y="23.3289" width="1.1109" height="26.6616" rx="0.55545"></rect>
                    <rect id="Rectangle" x="15.5526" y="13.3308" width="1.1109" height="47.7687" rx="0.55545"></rect>
                    <rect id="Rectangle" x="18.8853" y="0" width="1.1109" height="74.4303" rx="0.55545"></rect>
                    <rect id="Rectangle" x="22.218" y="4.4436" width="1.1109" height="64.4322" rx="0.55545"></rect>
                    <rect id="Rectangle" x="25.5507" y="13.3308" width="1.1109" height="47.7687" rx="0.55545"></rect>
                    <rect id="Rectangle" x="28.8834" y="18.8853" width="1.1109" height="36.6597" rx="0.55545"></rect>
                    <rect id="Rectangle" x="33.327" y="23.3289" width="1.1109" height="26.6616" rx="0.55545"></rect>
                    <rect id="Rectangle" x="36.6597" y="27.7725" width="1.1109" height="17.7744" rx="0.55545"></rect>
                    <rect id="Rectangle" x="41.1033" y="23.3289" width="1.1109" height="26.6616" rx="0.55545"></rect>
                    <rect id="Rectangle" x="44.436" y="18.8853" width="1.1109" height="36.6597" rx="0.55545"></rect>
                    <rect id="Rectangle" x="47.7687" y="13.3308" width="1.1109" height="47.7687" rx="0.55545"></rect>
                    <rect id="Rectangle" x="51.1014" y="18.8853" width="1.1109" height="36.6597" rx="0.55545"></rect>
                    <rect id="Rectangle" x="55.545" y="27.7725" width="1.1109" height="17.7744" rx="0.55545"></rect>
                    <rect id="Rectangle" x="58.8777" y="23.3289" width="1.1109" height="26.6616" rx="0.55545"></rect>
                    <rect id="Rectangle" x="63.3213" y="18.8853" width="1.1109" height="36.6597" rx="0.55545"></rect>
                </g>
                <g id="Group-28" transform="translate(116.000000, 254.000000)" fill="#EF1249">
                    <circle id="Oval" opacity="0.544154576" cx="27.3" cy="27.3" r="27.3"></circle>
                    <circle id="Oval" opacity="0.46391369" cx="27.3" cy="27.3" r="18.9"></circle>
                    <circle id="Oval" cx="27.3" cy="27.3" r="12.6"></circle>
                </g>
                <circle id="Oval" fill="#FFFFFF" cx="56" cy="242" r="7"></circle>
                <circle id="Oval-Copy-26" fill="#FFFFFF" cx="61" cy="68" r="7"></circle>
                <circle id="Oval-Copy-27" fill="#FFFFFF" cx="239" cy="233" r="7"></circle>
                <g id="Group-27-Copy" transform="translate(0.000000, 127.000000)">
                    <path d="M7.938,28.1232 C12.3220363,28.1232 15.876,24.5572723 15.876,20.1584776 C15.876,17.2259479 13.23,12.9256553 7.938,7.2576 C2.646,12.9256553 0,17.2259479 0,20.1584776 C0,24.5572723 3.55396366,28.1232 7.938,28.1232 Z" id="Oval" fill="#FFFFFF"></path>
                    <path d="M27.8964,53.9784 C34.5350836,53.9784 39.9168,48.6295085 39.9168,42.0313165 C39.9168,37.6325218 35.91,31.182083 27.8964,22.68 C19.8828,31.182083 15.876,37.6325218 15.876,42.0313165 C15.876,48.6295085 21.2577164,53.9784 27.8964,53.9784 Z" id="Oval-Copy-3" fill="#FFFFFF"></path>
                    <path d="M28.1232,14.0616 C31.1293964,14.0616 33.5664,11.6584748 33.5664,8.69406972 C33.5664,6.71779964 31.752,3.8197764 28.1232,-4.99568387e-14 C24.4944,3.8197764 22.68,6.71779964 22.68,8.69406972 C22.68,11.6584748 25.1170036,14.0616 28.1232,14.0616 Z" id="Oval-Copy-4" fill="#EF1249"></path>
                </g>
            </g>
        </g>
    </g>
</svg>