<?xml version="1.0" encoding="UTF-8"?>
<svg width="279px" height="282px" viewBox="0 0 279 282" version="1.1" xmlns="http://www.w3.org/2000/svg" xmlns:xlink="http://www.w3.org/1999/xlink">
    <!-- Generator: Sketch 52.5 (67469) - http://www.bohemiancoding.com/sketch -->
    <title>Group 11</title>
    <desc>Created with Sketch.</desc>
    <defs>
        <polygon id="path-1" points="0 0.0827232 33.1813104 0.0827232 33.1813104 33.264 0 33.264"></polygon>
        <polygon id="path-3" points="0 0.029544 11.850468 0.029544 11.850468 11.88 0 11.88"></polygon>
    </defs>
    <g id="CAMBIOS-MAYO-2020" stroke="none" stroke-width="1" fill="none" fill-rule="evenodd">
        <g id="LANDING-GOWORK" transform="translate(-137.000000, -929.000000)">
            <g id="Group-11" transform="translate(137.000000, 929.000000)">
                <path d="M136,281 C203.378739,281 258,226.378739 258,159 C258,91.6212605 203.378739,37 136,37 C68.6212605,37 14,91.6212605 14,159 C14,226.378739 68.6212605,281 136,281 Z" id="Oval-Copy" stroke="#FFFFFF" stroke-dasharray="15,15"></path>
                <g id="Group-2" transform="translate(94.000000, 102.000000)">
                    <rect id="Rectangle" stroke="#EF1249" stroke-width="0.832" x="58.304" y="37.816" width="9.984" height="59.072" rx="4.992"></rect>
                    <path d="M68.5419356,74.9112829 C73.5061766,76.844953 77.024,81.6716607 77.024,87.32 C77.024,94.6720146 71.0640146,100.632 63.712,100.632 C56.3599854,100.632 50.4,94.6720146 50.4,87.32 C50.4,81.9576 53.5706688,77.3357494 58.1395301,75.2269247 C57.9761397,74.7111285 57.888,74.1618573 57.888,73.592 L57.888,48.216 L68.704,48.216 L68.704,73.592 C68.704,74.0470774 68.6477905,74.4890264 68.5419356,74.9112829 Z" id="Combined-Shape" fill="#EF1249"></path>
                    <g id="Group-8-Copy-3" transform="translate(42.000000, 0.000000)">
                        <g id="Group-3" transform="translate(0.000000, 0.085344)">
                            <mask id="mask-2" fill="white">
                                <use xlink:href="#path-1"></use>
                            </mask>
                            <g id="Clip-2"></g>
                            <path d="M16.5906384,0.0827232 C25.7533584,0.0827232 33.1813104,7.5106752 33.1813104,16.6733952 C33.1813104,25.8361152 25.7533584,33.2640672 16.5906384,33.2640672 C7.4279184,33.2640672 -3.36e-05,25.8361152 -3.36e-05,16.6733952 C-3.36e-05,7.5106752 7.4279184,0.0827232 16.5906384,0.0827232" id="Fill-1" fill="#FFFFFF" mask="url(#mask-2)"></path>
                        </g>
                        <path d="M16.5906384,2.9331792 C24.2262384,2.9331792 30.4161984,9.1231392 30.4161984,16.7587392 C30.4161984,24.3943392 24.2262384,30.5842992 16.5906384,30.5842992 C8.9550384,30.5842992 2.7650784,24.3943392 2.7650784,16.7587392 C2.7650784,9.1231392 8.9550384,2.9331792 16.5906384,2.9331792" id="Fill-4" fill="#61CA24"></path>
                        <polygon id="Fill-6" fill="#FFFFFF" points="15.308328 22.4391552 11.280528 17.2605552 13.622784 15.4385952 15.52992 17.8907232 21.972552 11.0899152 24.126816 13.1309472"></polygon>
                    </g>
                    <g id="Group-Copy-4" transform="translate(0.000000, 17.400000)" fill-rule="nonzero">
                        <ellipse id="Oval" fill="#000230" opacity="0.321196057" cx="26.7332736" cy="99.4444736" rx="26.7332736" ry="4"></ellipse>
                        <circle id="Oval" fill="#F2F2F2" cx="29.8055456" cy="29.2651952" r="1"></circle>
                        <polygon id="Path" fill="#FFB8B8" points="15.8323072 91.9406336 16.0651072 94.0366336 13.9692672 93.8036736 13.9692672 91.2419136"></polygon>
                        <polygon id="Path" fill="#FFB8B8" points="37.7236672 91.9406336 37.4907072 94.0366336 39.5867072 93.8036736 39.5867072 91.2419136"></polygon>
                        <path d="M15.5994,46.7605568 L14.6678512,70.7479168 C14.6678512,70.7479168 11.6403216,88.680216 12.3389824,89.1459968 C13.0376432,89.6117776 12.3389824,92.173528 12.3389824,92.173528 L16.2980608,92.6393024 C16.2980608,92.6393024 16.2980608,90.7762064 17.2296096,90.0775424 C18.1611584,89.3788784 26.777976,56.5418144 26.777976,56.5418144 L35.6276816,88.2144544 C35.6276816,88.2144544 35.3947952,90.0775504 36.093456,90.0775504 C36.7921168,90.0775504 37.0250048,92.6393104 37.0250048,92.6393104 L40.9840832,92.6393104 L40.9840832,90.0775504 C40.9840832,90.0775504 42.1485184,89.844664 41.4498576,87.981568 C40.7511968,86.118472 38.1894384,46.760568 38.1894384,46.760568 L15.5994,46.7605568 Z" id="Path" fill="#A5A7BF"></path>
                        <path d="M14.4349648,91.9406336 C14.4349648,91.9406336 13.2705296,91.2419728 12.8047552,91.7077472 C12.3389808,92.1735216 8.6127904,96.8312672 8.6127904,96.8312672 C8.6127904,96.8312672 3.4892704,100.091685 8.147016,101.023234 C12.8047616,101.954782 16.298056,97.529928 16.5309472,97.0641536 C16.7638384,96.5983792 16.2980608,92.8721872 16.0651744,93.3379616 C15.832288,93.803736 15.1336256,93.5708496 14.9007392,93.3379616 C14.6678528,93.1050736 14.4349648,91.9406336 14.4349648,91.9406336 Z" id="Path" fill="#FC3579"></path>
                        <path d="M39.1209872,91.9406336 C39.1209872,91.9406336 40.2854224,91.2419728 40.7511968,91.7077472 C41.2169712,92.1735216 44.9431616,96.8312672 44.9431616,96.8312672 C44.9431616,96.8312672 50.0666816,100.091685 45.408936,101.023234 C40.7511904,101.954782 37.257896,97.529928 37.0250048,97.0641536 C36.7921136,96.5983792 37.2578912,92.8721872 37.4907776,93.3379616 C37.723664,93.803736 38.4223264,93.5708496 38.6552128,93.3379616 C38.8880992,93.1050736 39.1209872,91.9406336 39.1209872,91.9406336 Z" id="Path" fill="#FC3579"></path>
                        <circle id="Oval" fill="#FFB8B8" cx="29.689064" cy="7.51909755" r="4.774184"></circle>
                        <polygon id="Path" fill="#FFB8B8" points="26.5451072 10.1972736 25.8463872 17.4167936 31.4356672 18.5812736 32.8331072 9.96447355"></polygon>
                        <path d="M32.367264,15.7865856 C32.367264,15.7865856 30.9699424,18.8141168 25.8464272,15.5536992 L16.2980672,46.7605568 C16.2980672,46.7605568 29.1068528,54.4458272 37.2578976,48.6236528 L34.4632464,17.1839072 L32.367264,15.7865856 Z" id="Path" fill="#EF1249"></path>
                        <path d="M26.777976,12.2932736 L22.3531232,11.5946128 L21.8873472,14.6221504 C21.8873472,14.6221504 15.8322848,15.3208112 15.133624,17.6496816 L15.8322848,34.88332 C15.8322848,34.88332 13.7363024,38.609512 15.5993984,40.9383824 C15.5993984,40.9383824 12.5718672,47.2263312 14.9007376,48.3907664 C14.9007376,48.3907664 20.2571376,45.8290064 23.5175568,46.5276704 C23.5175568,46.5276704 25.3806528,46.061896 25.3806528,44.6645744 C25.3806528,43.2672528 26.777976,12.2932736 26.777976,12.2932736 Z" id="Path" fill="#A5A7BF"></path>
                        <path d="M32.1343776,12.7590544 L34.6961376,13.4577152 L34.929024,16.7181328 C34.929024,16.7181328 41.2169728,20.6772128 41.4498608,23.0060832 C41.6827488,25.3349536 36.79212,36.513528 36.79212,36.513528 C36.79212,36.513528 38.655216,39.7739472 37.9565552,41.8699296 C37.9565552,41.8699296 40.9840864,47.924992 39.1209904,49.5552016 C39.1209904,49.5552016 35.6276848,50.4867488 35.161912,49.0894272 C34.6961392,47.6921056 30.5041712,31.6229024 32.3672672,23.9376304 C32.367264,23.9376304 30.504168,14.156376 32.1343776,12.7590544 Z" id="Path" fill="#A5A7BF"></path>
                        <path d="M34.8125776,20.343416 L34.7249216,20.343416 L34.7249216,17.9420928 C34.7249224,17.573488 34.578495,17.2199801 34.3178519,16.9593373 C34.0572089,16.6986945 33.7037008,16.5522675 33.335096,16.5522688 L28.247576,16.5522688 C27.8789712,16.5522675 27.5254631,16.6986945 27.2648201,16.9593373 C27.004177,17.2199801 26.8577496,17.573488 26.8577504,17.9420928 L26.8577504,31.1159424 C26.85775,31.4845469 27.0041776,31.8380544 27.2648206,32.0986968 C27.5254637,32.3593392 27.8789715,32.505766 28.247576,32.5057648 L33.335096,32.5057648 C33.7037005,32.505766 34.0572083,32.3593392 34.3178514,32.0986968 C34.5784944,31.8380544 34.724922,31.4845469 34.7249216,31.1159424 L34.7249216,22.0527184 L34.8125776,22.0527184 L34.8125776,20.343416 Z" id="Path" fill="#FFFFFF"></path>
                        <path d="M37.0250048,29.7598064 C37.0250048,29.7598064 35.1619072,23.704744 32.367264,25.5678336 C29.5726208,27.4309232 34.23036,32.5544432 34.23036,32.5544432 L37.0250048,29.7598064 Z" id="Path" fill="#FFB8B8"></path>
                        <path d="M24.2162192,25.334952 C24.2162192,25.334952 27.4766368,21.3758736 29.1068464,23.2389696 C30.737056,25.1020656 26.3122016,29.294032 26.3122016,29.294032 L24.2162192,25.334952 Z" id="Path" fill="#FFB8B8"></path>
                        <path d="M15.8322864,17.4167936 C15.8322864,17.4167936 14.6678512,17.1839056 13.9691904,19.2798896 C13.2705296,21.3758736 10.7087728,29.2940304 10.7087728,30.691352 C10.7087728,32.0886736 11.6403216,37.6779616 16.7638352,36.7464144 C21.8873488,35.8148672 27.9424112,29.2940304 27.9424112,29.2940304 L24.6819936,24.4034032 L17.6953824,28.5953696 L15.8322864,17.4167936 Z" id="Path" fill="#A5A7BF"></path>
                        <polygon id="Path" fill="#000000" opacity="0.1" points="16.8385472 23.4543936 17.8118272 28.4788736 25.0313472 24.2870336 18.2775872 26.8487936 16.7886272 23.1545536"></polygon>
                        <polygon id="Path" fill="#000000" opacity="0.1" points="37.3743872 28.4788736 38.3059072 29.1775936 38.7716672 25.9171136"></polygon>
                        <path d="M15.7158432,37.3286336 C15.7158432,37.3286336 22.5563728,35.4677024 25.7733872,31.3910976 C25.7733872,31.3910976 22.4695664,36.8628592 15.7158432,37.3286336 Z" id="Path" fill="#000000" opacity="0.1"></path>
                        <path d="M32.9494816,33.1366672 C32.9494816,33.1366672 34.3899088,40.1861824 38.0945488,40.387616 C38.0945472,40.387616 33.6481472,41.7534864 32.9494816,33.1366672 Z" id="Path" fill="#000000" opacity="0.1"></path>
                        <path d="M40.5183088,22.0745344 C40.5183088,22.0745344 41.2169696,22.5403088 41.682744,24.6362944 C42.1485184,26.73228 45.1760496,34.6504352 44.0116144,36.5135312 C42.8471792,38.3766272 40.9840832,42.5685936 37.0250048,39.7739504 L33.0659248,32.5544528 L37.0250048,28.8282608 L38.6552128,29.992696 L40.5183088,22.0745344 Z" id="Path" fill="#A5A7BF"></path>
                        <path d="M25.1058352,8.72994235 C25.1058352,8.72994235 21.1018352,2.24069595 25.3666352,1.90318555 C26.7898522,1.80364145 28.1795653,1.42497587 29.4565552,0.788774354 C30.8702368,0.0694031536 32.6497296,-0.477388846 33.5966832,0.629991954 C34.0099273,1.13635238 34.4917041,1.58266931 35.02812,1.95607195 C35.8599488,2.50773115 36.822408,3.40202555 36.2894576,4.36133755 L35.4157376,5.93403195 L34.1925216,9.07942395 C34.477376,7.72272955 34.4845408,6.58362075 33.7556592,6.02140315 C33.7556592,6.02140315 29.689064,7.75197915 27.6396464,4.62345275 C25.3454592,2.90212635 24.6155552,8.32009755 25.1058352,8.72994235 Z" id="Path" fill="#FB6A49"></path>
                    </g>
                    <path d="M67.872,53.208 L65.376,53.208" id="Line-17-Copy" stroke="#FFFFFF" stroke-width="1.664" stroke-linecap="square"></path>
                    <path d="M67.872,57.784 L62.048,57.784" id="Line-17-Copy-2" stroke="#FFFFFF" stroke-width="1.664" stroke-linecap="square"></path>
                    <path d="M67.872,61.944 L65.376,61.944" id="Line-17-Copy-3" stroke="#FFFFFF" stroke-width="1.664" stroke-linecap="square"></path>
                    <path d="M67.872,66.104 L62.048,66.104" id="Line-17-Copy-4" stroke="#FFFFFF" stroke-width="1.664" stroke-linecap="square"></path>
                </g>
                <g id="Group-16-Copy-5" transform="translate(0.000000, 134.000000)">
                    <polygon id="lock-open-copy" fill="#EFEFEF" points="3.4 35.4 23.8 35.4 23.8 15 3.4 15"></polygon>
                    <path d="M3.50967742,35.6244444 L23.6903226,35.6244444 L23.6903226,17.3777778 L3.50967742,17.3777778 L3.50967742,35.6244444 Z M25.4451613,13.9022222 L6.58064516,13.9022222 L6.58064516,10.9132444 C6.58064516,6.46453333 9.41427097,3.47555556 13.5337548,3.47555556 C16.534529,3.47555556 18.8754839,5.01609556 19.8985548,7.70226556 C20.2411871,8.60026222 21.2699613,9.05382222 22.1763355,8.71495556 C23.0831484,8.37608889 23.5494968,7.37382556 23.2073032,6.47582889 C21.6630452,2.42072444 18.0064,1.81188398e-13 13.5298065,1.81188398e-13 C7.40805161,1.81188398e-13 3.07096774,4.48781111 3.07096774,10.9132444 L3.07096774,13.9022222 L1.75483871,13.9022222 C0.785729032,13.9022222 3.64153152e-13,14.6868289 3.64153152e-13,15.6465167 L3.64153152e-13,37.3622222 C3.64153152e-13,38.32191 0.785729032,39.1 1.75483871,39.1 L25.4451613,39.1 C26.414271,39.1 27.2,38.32191 27.2,37.3622222 L27.2,15.6465167 C27.2,14.6868289 26.414271,13.9022222 25.4451613,13.9022222 L25.4451613,13.9022222 Z" id="lock-open" fill="#EF1249"></path>
                </g>
                <path d="M274.534351,158.603053 L270.068702,158.603053 L270.068702,154.137405 L274.534351,154.137405 L274.534351,158.603053 Z M274.534351,167.534351 L270.068702,167.534351 L270.068702,163.068702 L274.534351,163.068702 L274.534351,167.534351 Z M263.198473,140.396947 L258.732824,140.396947 L258.732824,135.931298 L263.198473,135.931298 L263.198473,140.396947 Z M263.198473,149.328244 L258.732824,149.328244 L258.732824,144.862595 L263.198473,144.862595 L263.198473,149.328244 Z M263.198473,158.603053 L258.732824,158.603053 L258.732824,154.137405 L263.198473,154.137405 L263.198473,158.603053 Z M254.267176,140.396947 L249.801527,140.396947 L249.801527,135.931298 L254.267176,135.931298 L254.267176,140.396947 Z M254.267176,149.328244 L249.801527,149.328244 L249.801527,144.862595 L254.267176,144.862595 L254.267176,149.328244 Z M254.267176,158.603053 L249.801527,158.603053 L249.801527,154.137405 L254.267176,154.137405 L254.267176,158.603053 Z M242.931298,158.603053 L238.465649,158.603053 L238.465649,154.137405 L242.931298,154.137405 L242.931298,158.603053 Z M242.931298,167.534351 L238.465649,167.534351 L238.465649,163.068702 L242.931298,163.068702 L242.931298,167.534351 Z M276.75,149.5 L267.75,149.5 L267.75,133.75 C267.75,132.51025 266.74425,131.5 265.5,131.5 L263.25,131.5 L263.25,129.25 C263.25,128.01025 262.24425,127 261,127 L252,127 C250.758,127 249.75,128.01025 249.75,129.25 L249.75,131.5 L247.5,131.5 C246.258,131.5 245.25,132.51025 245.25,133.75 L245.25,149.5 L236.25,149.5 C235.008,149.5 234,150.51025 234,151.75 L234,169.75 C234,170.99425 235.008,172 236.25,172 L252,172 L252,163 L261,163 L261,172 L276.75,172 C277.99425,172 279,170.99425 279,169.75 L279,151.75 C279,150.51025 277.99425,149.5 276.75,149.5 L276.75,149.5 Z" id="Fill-537" fill="#A1A1B2"></path>
                <g id="Group-32" transform="translate(118.000000, 0.000000)">
                    <path d="M36.288931,17.294723 L35.889053,17.294723 L35.889053,6.340189 C35.8890552,2.8386019 33.0504601,2.76142275e-06 29.548873,5.68434189e-15 L6.3402,5.68434189e-15 C4.65867796,-4.24346859e-06 3.04602506,0.66797399 1.8570068,1.856987 C0.667988538,3.04600001 3.18259386e-06,4.65864996 1.98951966e-14,6.340172 L1.98951966e-14,66.437611 C-1.06086624e-06,68.1191328 0.667979918,69.7317842 1.85699472,70.9208003 C3.04600952,72.1098164 4.65866022,72.7777992 6.340182,72.7778 L29.548843,72.7778 C33.0504291,72.7778077 35.8890325,69.9392191 35.889043,66.437633 L35.889043,25.092347 L36.288927,25.092347 L36.288931,17.294723 Z" id="Path" fill="#FFFFFF" fill-rule="nonzero"></path>
                    <path d="M29.804678,1.6495 L26.775178,1.6495 C27.0580924,2.34312114 26.9771651,3.13206561 26.5593252,3.75380568 C26.1414854,4.37554576 25.441563,4.74849518 24.692463,4.748552 L11.396517,4.748552 C10.6474153,4.74849738 9.94749073,4.37554771 9.52965048,3.75380592 C9.11181023,3.13206413 9.03088481,2.34311738 9.313803,1.649496 L6.484243,1.649496 C3.86929722,1.64949434 1.74946287,3.76932422 1.749459,6.38427 L1.749459,66.393525 C1.7494582,67.649267 2.24829901,68.8535774 3.13624213,69.7415216 C4.02418525,70.6294659 5.228495,71.1283082 6.484237,71.128309 L29.804678,71.128309 C31.06042,71.1283098 32.2647304,70.629469 33.1526746,69.7415259 C34.0406189,68.8535828 34.5394612,67.649273 34.539462,66.393531 L34.539462,6.38427 C34.5394601,5.12852906 34.0406172,3.92422074 33.152673,3.03627913 C32.2647287,2.14833751 31.0604189,1.64949814 29.804678,1.6495 Z" id="Path" fill="#000230" fill-rule="nonzero"></path>
                    <rect id="Rectangle" fill="#EF1249" fill-rule="nonzero" x="6.6" y="11.204762" width="23.116914" height="2.297312"></rect>
                    <rect id="Rectangle" fill="#EF1249" fill-rule="nonzero" x="22.444476" y="63" width="7.3" height="2.4"></rect>
                    <g id="Group-8" transform="translate(13.000000, 30.000000)">
                        <g id="Group-3" transform="translate(0.000000, 0.030480)">
                            <mask id="mask-4" fill="white">
                                <use xlink:href="#path-3"></use>
                            </mask>
                            <g id="Clip-2"></g>
                            <path d="M5.925228,0.029544 C9.197628,0.029544 11.850468,2.682384 11.850468,5.954784 C11.850468,9.227184 9.197628,11.880024 5.925228,11.880024 C2.652828,11.880024 -1.2e-05,9.227184 -1.2e-05,5.954784 C-1.2e-05,2.682384 2.652828,0.029544 5.925228,0.029544" id="Fill-1" fill="#E6E6E6" mask="url(#mask-4)"></path>
                        </g>
                        <path d="M5.925228,1.047564 C8.652228,1.047564 10.862928,3.258264 10.862928,5.985264 C10.862928,8.712264 8.652228,10.922964 5.925228,10.922964 C3.198228,10.922964 0.987528,8.712264 0.987528,5.985264 C0.987528,3.258264 3.198228,1.047564 5.925228,1.047564" id="Fill-4" fill="#61CA24"></path>
                        <polygon id="Fill-6" fill="#FFFFFF" points="5.46726 8.013984 4.02876 6.164484 4.86528 5.513784 5.5464 6.389544 7.84734 3.960684 8.61672 4.689624"></polygon>
                    </g>
                </g>
            </g>
        </g>
    </g>
</svg>