<?xml version="1.0" encoding="UTF-8"?>
<svg width="132px" height="58px" viewBox="0 0 132 58" version="1.1" xmlns="http://www.w3.org/2000/svg" xmlns:xlink="http://www.w3.org/1999/xlink">
    <!-- Generator: Sketch 52.5 (67469) - http://www.bohemiancoding.com/sketch -->
    <title>:LOGO GOWORK-85</title>
    <desc>Created with Sketch.</desc>
    <defs>
        <linearGradient x1="-272.065808%" y1="278.00412%" x2="69.7647459%" y2="36.1702%" id="linearGradient-1">
            <stop stop-color="#FDC07F" offset="0%"></stop>
            <stop stop-color="#F8856D" offset="29.05%"></stop>
            <stop stop-color="#F3475A" offset="62.55%"></stop>
            <stop stop-color="#F0214E" offset="87.15%"></stop>
            <stop stop-color="#EF1249" offset="100%"></stop>
        </linearGradient>
        <linearGradient x1="-5.74855722%" y1="84.5111838%" x2="89.5131154%" y2="25.4773357%" id="linearGradient-2">
            <stop stop-color="#FDC07F" offset="0%"></stop>
            <stop stop-color="#F8856D" offset="29.05%"></stop>
            <stop stop-color="#F3475A" offset="62.55%"></stop>
            <stop stop-color="#F0214E" offset="87.15%"></stop>
            <stop stop-color="#EF1249" offset="100%"></stop>
        </linearGradient>
    </defs>
    <g id="CAMBIOS-MAYO-2020" stroke="none" stroke-width="1" fill="none" fill-rule="evenodd">
        <g id="LANDING-GOWORK" transform="translate(-211.000000, -229.000000)" fill-rule="nonzero">
            <g id=":LOGO-GOWORK-85" transform="translate(211.000000, 229.000000)">
                <g id="Group">
                    <path d="M37.7,10.1 C39,10.7 40.2,11.4 41.3,12.2 C42.1,12.8 42.9,13.5 43.7,14.3 C44.2,14.8 44.6,15.3 45.1,15.8 C45.8,16.7 46.9,17.1 47.9,17.1 C48.7,17.1 49.5,16.8 50.2,16.3 C51.8,15 52,12.7 50.7,11.2 C50.1,10.5 49.5,9.8 48.9,9.2 C47.9,8.2 46.8,7.3 45.7,6.4 C44.2,5.3 42.6,4.3 40.9,3.5 C39.1,2.6 36.9,3.4 36,5.2 C35.1,7.1 35.9,9.3 37.7,10.1 Z" id="Path" fill="url(#linearGradient-1)"></path>
                    <path d="M57.2,29.4 C57.2,27.4 55.5,25.8 53.5,25.8 L49.6,25.8 L42.3,25.8 C40.7,19.7 35.2,15.3 28.6,15.3 C20.8,15.3 14.4,21.7 14.4,29.5 C14.4,37.3 20.8,43.7 28.6,43.7 C35.2,43.7 40.7,39.2 42.3,33.2 L49.6,33.2 C47.8,43.5 38.6,51.3 27.6,50.8 C16.5,50.1 7.6,41 7.3,30 C7,18 16.6,8.2 28.5,8.1 C30.5,8.1 32.2,6.5 32.2,4.6 C32.3,2.5 30.6,0.8 28.6,0.8 C12.3,0.8 -0.8,14.5 0.1,31 C0.9,45.5 12.6,57.2 27.1,58 C43.5,58.8 57.2,45.7 57.2,29.4 C57.2,29.4 57.2,29.4 57.2,29.4 Z M28.6,36.3 C24.8,36.3 21.7,33.2 21.7,29.4 C21.7,25.6 24.8,22.5 28.6,22.5 C32.4,22.5 35.5,25.6 35.5,29.4 C35.5,33.2 32.4,36.3 28.6,36.3 Z" id="Shape" fill="url(#linearGradient-2)"></path>
                </g>
                <g id="Group" transform="translate(64.000000, 5.000000)" fill="#000230">
                    <path d="M32.2,6.8 C27.8,6.8 24.3,10.2 24.3,14.7 C24.3,19.2 27.8,22.6 32.2,22.6 C36.6,22.6 40.1,19.1 40.1,14.7 C40.1,10.3 36.6,6.8 32.2,6.8 Z M32.2,18.3 C30.3,18.3 28.8,16.9 28.8,14.8 C28.8,12.7 30.3,11.3 32.2,11.3 C34.2,11.3 35.6,12.7 35.6,14.8 C35.6,16.9 34.1,18.3 32.2,18.3 Z" id="Shape"></path>
                    <path d="M12.1,22.7 C18,22.7 22.4,18.8 22.4,12.4 L22.4,10.6 L13.8,10.6 L13.8,14.8 L17.5,14.8 C16.7,16.8 14.9,18 12.1,18 C8,18 5.5,15.4 5.5,11.8 C5.5,8.1 8.1,5.5 11.7,5.5 C13.1,5.5 14.4,5.9 15.3,6.5 L18.5,3 C16.7,1.6 14.3,0.8 11.7,0.8 C5.5,0.8 0.7,5.7 0.7,11.7 C0.7,17.8 5.5,22.7 12.1,22.7 Z" id="Path"></path>
                    <polygon id="Path" points="16.3 34.9 14 26.9 9.8 26.9 7.5 34.9 5.3 26.9 0.5 26.9 5.3 41.9 9.5 41.9 11.9 33.9 14.3 41.9 18.5 41.9 23.3 26.9 18.5 26.9"></polygon>
                    <path d="M31.7,26.5 C27.3,26.5 23.7,29.9 23.7,34.4 C23.7,38.9 27.2,42.3 31.7,42.3 C36.1,42.3 39.6,38.8 39.6,34.4 C39.6,30 36.1,26.5 31.7,26.5 Z M31.7,37.9 C29.7,37.9 28.2,36.5 28.2,34.4 C28.2,32.3 29.7,30.9 31.7,30.9 C33.6,30.9 35.1,32.3 35.1,34.4 C35.1,36.5 33.7,37.9 31.7,37.9 Z" id="Shape"></path>
                    <path d="M46.7,29.5 L46.7,26.8 L42.2,26.8 L42.2,41.8 L46.7,41.8 L46.7,35 C46.7,32 49.3,31.3 51.2,31.6 L51.2,26.5 C49.3,26.6 47.3,27.5 46.7,29.5 Z" id="Path"></path>
                    <polygon id="Path" points="62.1 34.4 67.6 26.9 62.3 26.9 57.8 33.4 57.8 20.9 53.3 20.9 53.3 41.9 57.8 41.9 57.8 35.2 62.6 41.9 67.7 41.9"></polygon>
                </g>
            </g>
        </g>
    </g>
</svg>