<?xml version="1.0" encoding="UTF-8"?>
<svg width="104px" height="85px" viewBox="0 0 104 85" version="1.1" xmlns="http://www.w3.org/2000/svg" xmlns:xlink="http://www.w3.org/1999/xlink">
    <!-- Generator: Sketch 52.5 (67469) - http://www.bohemiancoding.com/sketch -->
    <title>Group 2</title>
    <desc>Created with Sketch.</desc>
    <defs>
        <circle id="path-1" cx="14.4749189" cy="14.4749189" r="14.4749189"></circle>
        <linearGradient x1="72.3427929%" y1="100%" x2="50%" y2="23.5453408%" id="linearGradient-3">
            <stop stop-color="#EEEFF7" offset="0%"></stop>
            <stop stop-color="#B3B3B3" offset="100%"></stop>
        </linearGradient>
        <linearGradient x1="72.3427929%" y1="100%" x2="50%" y2="23.5453408%" id="linearGradient-4">
            <stop stop-color="#EEEFF7" offset="0%"></stop>
            <stop stop-color="#E7E3E3" offset="100%"></stop>
        </linearGradient>
        <circle id="path-5" cx="15.0392432" cy="15.1521081" r="14.4749189"></circle>
    </defs>
    <g id="CAMBIOS-MAYO-2020" stroke="none" stroke-width="1" fill="none" fill-rule="evenodd">
        <g id="LANDING-GOSAFE-A" transform="translate(-941.000000, -1037.000000)">
            <g id="Group-7" transform="translate(502.000000, 756.000000)">
                <g id="Group-55" transform="translate(406.000000, 245.000000)">
                    <g id="Group-2" transform="translate(33.000000, 37.000000)">
                        <rect id="Rectangle" fill="#EEEFF7" x="0" y="23" width="89" height="61" rx="6"></rect>
                        <g id="Group-8" transform="translate(62.000000, 0.000000)" stroke-width="1.95">
                            <path d="M23.3723313,0.250655727 C29.3717536,1.20324136 34.4907113,4.79943805 37.4980449,9.80808614 C39.3183413,12.8397499 40.365,16.3888948 40.365,20.1825 C40.365,24.6260647 38.9289689,28.7342263 36.4956739,32.0682178 M34.6753917,34.2284966 C31.0069491,38.0129174 25.8694037,40.365 20.1825,40.365 C9.03601304,40.365 0,31.328987 0,20.1825 C0,9.03601304 9.03601304,0 20.1825,0" id="Shape" stroke="#B3B3B3"></path>
                            <path d="M5.266973,14.9724079 C4.69721698,16.6036484 4.3875,18.356905 4.3875,20.1825 C4.3875,28.9058376 11.4591624,35.9775 20.1825,35.9775 C23.3789949,35.9775 26.3537175,35.0279798 28.839999,33.3956083 M30.6177104,32.0397611 C33.9040709,29.1452813 35.9775,24.9060283 35.9775,20.1825 C35.9775,15.8119531 34.2023799,11.8560076 31.3337837,8.99630763 M29.1763963,7.19648084 C26.6240218,5.42541357 23.5244698,4.3875 20.1825,4.3875 C14.487171,4.3875 9.49588127,7.40185082 6.71699672,11.9221867" id="Shape" stroke="#B3B3B3"></path>
                            <path d="M20.1825,8.775 C25.402802,8.775 29.8041119,12.281522 31.159557,17.0676932 M31.59,20.1825 C31.59,25.510415 27.9374188,29.985224 22.9997039,31.2394792 M20.1825,31.59 C13.8823117,31.59 8.775,26.4826883 8.775,20.1825 C8.775,14.771602 12.5422461,10.2405916 17.596939,9.06926795" id="Shape" stroke="#B3B3B3"></path>
                            <path d="M22.5329944,26.79933 C25.2540613,25.832676 27.2025,23.2351291 27.2025,20.1825 C27.2025,16.3054611 24.0595389,13.1625 20.1825,13.1625 C16.9971714,13.1625 14.3073504,15.2840201 13.4489493,18.1911479 M13.1625,20.1825 C13.1625,24.0595389 16.3054611,27.2025 20.1825,27.2025" id="Shape" stroke="#241DBA"></path>
                        </g>
                        <path d="M51.5,49.5 L73.5,49.5" id="Line-7" stroke="#241DBA" stroke-width="2" stroke-linecap="round" stroke-linejoin="round"></path>
                        <path d="M51.5,53.5 L73.5,53.5" id="Line-7-Copy" stroke="#241DBA" stroke-width="2" stroke-linecap="round" stroke-linejoin="round"></path>
                        <g id="Group-Copy-11" transform="translate(13.000000, 38.000000)" opacity="0.784435454">
                            <g id="Group-Copy-6">
                                <mask id="mask-2" fill="white">
                                    <use xlink:href="#path-1"></use>
                                </mask>
                                <use id="Mask" stroke="#EEEFF7" stroke-width="0.972" fill="#FFFFFF" xlink:href="#path-1"></use>
                                <g id="Group-Copy-2" mask="url(#mask-2)">
                                    <g transform="translate(-0.564324, -0.677189)">
                                        <path d="M8.2156482,53.9014134 C8.2156482,53.9014134 6.83764803,42.2044582 6.54269583,39.1799709 C6.41477395,37.86846 6.76275379,33.9849137 6.76275379,33.9849137 C7.31328035,32.9339054 7.21144573,34.7904153 8.31249885,35.2282997 L11.70748,36.454119 L10.7899357,53.9014134 C10.7899357,53.9014134 10.5680817,56.7727697 11.70748,58.0165842 C13.897463,60.407296 8.96629684,65.5488816 8.31249885,60.8184018 C8.12009967,59.4263835 7.94036247,56.4764908 8.2156482,56.0386921 C8.49088903,55.6884702 8.2156482,53.9014134 8.2156482,53.9014134 Z" id="Fill-1" stroke="none" fill="#F6B690" fill-rule="evenodd"></path>
                                        <path d="M24.4199946,51.0981004 C24.4199946,51.0981004 23.0419945,39.4011453 22.7470422,36.3766579 C22.6191204,35.065147 22.9671002,31.1816007 22.9671002,31.1816007 C23.5176268,30.1305925 23.4157922,31.9871024 24.5168453,32.4249868 L27.9118264,33.6508061 L26.9942821,51.0981004 C26.9942821,51.0981004 26.7724281,53.9694568 27.9118264,55.2132713 C30.1018095,57.6039831 25.1706433,62.7455687 24.5168453,58.0150888 C24.3244461,56.6230706 24.1447089,53.6731778 24.4199946,53.2353791 C24.6952354,52.8851573 24.4199946,51.0981004 24.4199946,51.0981004 Z" id="Fill-1-Copy" stroke="none" fill="#F6B690" fill-rule="evenodd"></path>
                                        <polygon id="Fill-3" stroke="none" fill="url(#linearGradient-3)" fill-rule="evenodd" points="18.620798 18.5994113 19.4082257 25.2572795 12.6128546 25.2572795 13.1192553 20.1363438"></polygon>
                                        <path d="M12.7785767,22.6313839 C12.7785767,22.6313839 13.6763403,24.1562195 16.3038591,23.8556231 C18.9313779,23.5550266 19.0906944,22.4637828 19.08541,22.2791561 C24.8331917,22.5435377 28.2513624,26.8938416 29.3399219,35.3300677 L24.1331682,35.3300677 C24.6590377,42.6895959 24.6590377,47.8587434 24.1331682,50.8375102 L8.77027256,50.8375102 L9.94936149,37.5015701 L6.58999595,35.3300677 C6.1517619,34.1913687 7.29803481,22.236955 12.7785767,22.6313839 Z" id="Fill-4" stroke="none" fill="#B3B3B3" fill-rule="evenodd"></path>
                                        <path d="M18.9261648,18.3371174 C18.6902711,19.1284136 17.3887902,20.0901297 16.6182183,20.4215492 C14.9808113,21.1250664 12.862935,21.6329004 11.3155656,19.711181 C9.89821307,17.9628788 9.45848524,15.5650114 9.31864306,14.0153897 C9.21141096,13.0840751 9.6399582,12.2097099 10.3562788,11.614525 C11.9816159,10.3410861 14.9974975,8.18214912 15.6838337,8.46218577 C16.3015617,8.71396184 18.1788434,10.6091334 19.3709747,11.8217692 C20.0079723,12.5252864 20.2320501,13.4638802 20.0370673,14.3523757 L18.9261648,18.3371174 Z" id="Fill-8" stroke="none" fill="url(#linearGradient-4)" fill-rule="evenodd"></path>
                                        <path d="M16.5018512,9.98813446 C16.5018512,9.98813446 17.2877105,13.1821847 17.4812078,13.0989661 C17.6747476,13.0161764 18.3982776,12.0021105 19.0779857,12.7476463 C19.8631217,13.6085728 18.8688742,15.4419559 18.8688742,15.4419559 C18.8688742,15.4419559 18.5829254,18.4095142 19.1707351,18.0423228 C19.7585447,17.6751315 23.5658631,11.8828591 19.9783352,6.5572973 C19.9783352,6.5572973 17.1045944,3.2821733 14.2580402,4.50643052 C12.6957242,5.1786138 8.68514827,5.99669799 7.23296677,7.25160374 C5.78078527,8.50650949 5.29624047,9.51799224 6.11898678,11.4693399 C6.94169055,13.4202585 9.24510792,13.9577478 10.2310591,13.7878788 C13.1049275,13.2924279 15.9322936,11.2115338 16.5018512,9.98813446 Z" id="Fill-9" stroke="none" fill="#B3B3B3" fill-rule="evenodd"></path>
                                        <mask id="mask-6" fill="white">
                                            <use xlink:href="#path-5"></use>
                                        </mask>
                                        <use id="Mask" stroke="#EEEFF7" stroke-width="0.972" fill="none" xlink:href="#path-5"></use>
                                    </g>
                                </g>
                            </g>
                        </g>
                    </g>
                </g>
            </g>
        </g>
    </g>
</svg>