<?xml version="1.0" encoding="UTF-8"?>
<svg width="27px" height="28px" viewBox="0 0 27 28" version="1.1" xmlns="http://www.w3.org/2000/svg" xmlns:xlink="http://www.w3.org/1999/xlink">
    <!-- Generator: Sketch 52.5 (67469) - http://www.bohemiancoding.com/sketch -->
    <title>Fill 804 + Fill 805</title>
    <desc>Created with Sketch.</desc>
    <g id="COMBI-SOLUCIONES-EGO-HOST-SECTORES" stroke="none" stroke-width="1" fill="none" fill-rule="evenodd">
        <g id="COMBI-PRODUCTOS-SECTORES-EGO---FESTIVALES" transform="translate(-409.000000, -841.000000)" fill="#241DBA">
            <g id="Fill-804-+-Fill-805" transform="translate(409.000000, 841.000000)">
                <path d="M19.464335,3.59096059 C18.2182266,1.25908867 16.1337438,0.000763546798 13.4368966,0.000763546798 C10.7400493,0.000763546798 8.6555665,1.25908867 7.41098522,3.5894335 C6.76807882,3.27485222 5.98773399,3.05495074 5.03788177,3.05495074 C2.68310345,3.05495074 0.456600985,5.2814532 0.456600985,7.63623153 C0.456600985,10.4766256 2.40669951,12.8711084 5.03788177,13.5521921 L5.03788177,27.5231518 L8.09206897,27.5231518 L8.09206897,20.3562417 C8.09206897,20.0782981 8.31739688,19.8529803 8.59209652,19.8529803 L9.119135,19.8529803 C9.3952926,19.8529803 9.61916256,20.0742617 9.61916256,20.3562417 L9.61916256,27.5231518 L12.6733498,27.5231518 L12.6733498,17.301667 C12.6733498,17.0239374 12.8986777,16.7987931 13.1733773,16.7987931 L13.7004158,16.7987931 C13.9765734,16.7987931 14.2004433,17.0227866 14.2004433,17.301667 L14.2004433,27.5231518 L17.2546305,27.5231518 L17.2546305,20.3562417 C17.2546305,20.0782981 17.4799585,19.8529803 17.7546581,19.8529803 L18.2816966,19.8529803 C18.5578542,19.8529803 18.7817241,20.0742617 18.7817241,20.3562417 L18.7817241,27.5231518 L21.8359113,27.5231518 L21.8359113,13.5521921 C24.4670936,12.8711084 26.4171921,10.4766256 26.4171921,7.63623153 C26.4171921,5.2814532 24.1906897,3.05495074 21.8359113,3.05495074 C20.9746305,3.05495074 20.1927586,3.22903941 19.464335,3.59096059 Z" id="Fill-805"></path>
            </g>
        </g>
    </g>
</svg>
