<?xml version="1.0" encoding="UTF-8"?>
<svg width="45px" height="45px" viewBox="0 0 45 45" version="1.1" xmlns="http://www.w3.org/2000/svg" xmlns:xlink="http://www.w3.org/1999/xlink">
    <!-- Generator: Sketch 52.5 (67469) - http://www.bohemiancoding.com/sketch -->
    <title>Group 3</title>
    <desc>Created with Sketch.</desc>
    <g id="COMBI-SOLUCIONES-EGO-HOST-SECTORES" stroke="none" stroke-width="1" fill="none" fill-rule="evenodd">
        <g id="COMBI-PRODUCTOS-SECTORES-HOST--CAMPINGS" transform="translate(-1010.000000, -3915.000000)">
            <g id="Group-4-Copy" transform="translate(829.000000, 3882.000000)">
                <g id="Group-3" transform="translate(182.000000, 34.000000)">
                    <path d="M25.6160151,17.2162492 L31.6824573,25.5359414 C32.3332389,26.4284419 32.137287,27.6795192 31.2447865,28.3303008 C30.9025704,28.5798334 30.4899731,28.7142857 30.0664422,28.7142857 L17.9335578,28.7142857 C16.8289883,28.7142857 15.9335578,27.8188552 15.9335578,26.7142857 C15.9335578,26.2907549 16.0680101,25.8781575 16.3175427,25.5359414 L22.3839849,17.2162492 C23.0347665,16.3237488 24.2858438,16.1277969 25.1783443,16.7785785 C25.3460625,16.900873 25.4937206,17.0485311 25.6160151,17.2162492 Z" id="Triangle" fill="#000230" transform="translate(24.000000, 21.857143) rotate(-270.000000) translate(-24.000000, -21.857143) "></path>
                    <circle id="Oval" stroke="#000230" stroke-width="2" cx="21.5" cy="21.5" r="21.5"></circle>
                </g>
            </g>
        </g>
    </g>
</svg>
