<?xml version="1.0" encoding="UTF-8"?>
<svg width="28px" height="28px" viewBox="0 0 28 28" version="1.1" xmlns="http://www.w3.org/2000/svg" xmlns:xlink="http://www.w3.org/1999/xlink">
    <!-- Generator: Sketch 52.5 (67469) - http://www.bohemiancoding.com/sketch -->
    <title>Combined Shape 2</title>
    <desc>Created with Sketch.</desc>
    <g id="COMBI-SOLUCIONES-EGO-HOST-SECTORES" stroke="none" stroke-width="1" fill="none" fill-rule="evenodd">
        <g id="COMBI-PRODUCTOS-SECTORES-EGO---FESTIVALES" transform="translate(-615.000000, -848.000000)" fill="#241DBA">
            <g id="Combined-Shape-2" transform="translate(615.000000, 848.000000)">
                <path d="M18.6531006,17.7860167 C19.3020521,21.4308775 21.2833151,23.8560919 22.6078569,25.1194559 C20.5944053,26.6858791 18.1480728,27.7191701 15.47975,28 L15.47975,17.9468085 C16.6070905,17.9201334 17.6670939,17.8653012 18.6531006,17.7860167 Z M9.34615944,17.7860167 C10.3325361,17.8653012 11.3921696,17.9201334 12.51988,17.9468085 L12.51988,28 C9.85155724,27.7191701 7.4052247,26.6858791 5.39177315,25.1194559 C6.71631496,23.8560919 8.69757793,21.430507 9.34615944,17.7860167 Z M0.0799164894,15.9609929 C1.44145668,16.4518895 3.51854544,17.0435588 6.39072926,17.4566529 C5.82354418,20.3279348 4.21744473,22.1825977 3.25622696,23.067323 C1.58834023,21.0885466 0.455080009,18.6451784 0.0799164894,15.9609929 Z M27.9197135,15.9609929 C27.54455,18.6451784 26.4116598,21.0881761 24.743773,23.0669525 L24.47892,22.8136805 C23.5088072,21.8501544 22.1263954,20.0762285 21.6085308,17.4566529 C24.4807146,17.0435588 26.5581733,16.4518895 27.9197135,15.9609929 Z M12.51988,1.13686838e-13 L12.51988,14.9821636 C11.4561767,14.9554885 10.4624004,14.9013973 9.538181,14.8258177 C9.287702,9.35815603 5.74362769,5.17571716 4.37172796,3.75489573 C6.55130221,1.69942839 9.38241784,0.330104795 12.51988,1.13686838e-13 Z M15.47975,-1.13686838e-13 C18.6172122,0.330104795 21.4483278,1.69942839 23.6279021,3.75489573 L23.2649461,4.14242466 C21.7163544,5.84471942 18.6904203,9.79181222 18.461079,14.8295226 C17.5383396,14.9039907 16.5441932,14.9566 15.47975,14.9825341 L15.47975,-1.13686838e-13 Z M25.5714267,6.01672489 C26.9137277,7.96178681 27.7794897,10.2595533 28,12.7410818 L27.6596733,12.8909405 C26.6589468,13.3128807 24.6464958,14.0118984 21.4527676,14.4894146 C21.8260812,10.4948132 24.4048679,7.28194136 25.5714267,6.01672489 Z M2.43005325,6.01413147 L2.68106722,6.29109962 C3.93041299,7.70131235 6.20090294,10.737384 6.54760237,14.4808934 C2.96874959,13.93924 0.848742716,13.120091 0,12.735895 C0.221620265,10.2551074 1.08738223,7.95845242 2.43005325,6.01413147 Z" id="Combined-Shape"></path>
            </g>
        </g>
    </g>
</svg>
