<?xml version="1.0" encoding="UTF-8"?>
<svg width="31px" height="31px" viewBox="0 0 31 31" version="1.1" xmlns="http://www.w3.org/2000/svg" xmlns:xlink="http://www.w3.org/1999/xlink">
    <!-- Generator: Sketch 52.5 (67469) - http://www.bohemiancoding.com/sketch -->
    <title>Group 12</title>
    <desc>Created with Sketch.</desc>
    <g id="COMBI-SOLUCIONES-EGO-HOST-SECTORES" stroke="none" stroke-width="1" fill="none" fill-rule="evenodd">
        <g id="COMBI-PRODUCTOS-SECTORES-EGO---FESTIVALES" transform="translate(-155.000000, -835.000000)">
            <g id="Group-12" transform="translate(155.000000, 835.000000)">
                <path d="M23.3278855,27.7526942 L23.3085031,19.9067222 C23.2454224,19.621978 22.8398029,18.3526108 20.635502,18.0058431 L20.6640469,29.6581546 C22.8894921,29.2987003 23.2729101,28.011008 23.3278855,27.7526942 L23.3278855,27.7526942 Z" id="Path" fill="#000000"></path>
                <path d="M25.7753466,18.1863926 L25.794729,26.197643 C25.7950814,26.2448655 25.7922621,26.2550853 25.786976,26.3026601 C25.6209927,27.7612694 24.0802727,30.4596438 19.4369684,30.4596438 L19.4341492,30.4596438 C18.7540052,30.4596438 18.2024895,29.9905911 18.2007274,29.3107995 L18.1654868,15.092266 C18.164782,14.7648806 18.2937627,14.4646305 18.5245888,14.2327473 C18.7554148,14.000864 19.0690564,13.8965517 19.3960893,13.8965517 L19.4242818,13.8965517 C24.0460893,13.8965517 25.5942098,16.6192421 25.7665365,18.0764418 C25.7725274,18.1236643 25.7749942,18.1388177 25.7753466,18.1863926 L25.7753466,18.1863926 Z" id="Path" fill="#241DBA"></path>
                <path d="M9.71725265,18.0054907 C7.48969296,18.3550777 7.1002841,19.6452368 7.04425151,19.903903 L7.02486917,27.7495225 C7.08724507,28.0339144 7.4861689,29.3018719 9.68835534,29.6578022 L9.71725265,18.0054907 Z" id="Path" fill="#000000"></path>
                <path d="M11.8281659,14.2140697 C12.0589919,14.445953 12.188325,14.7141341 12.1872678,15.0411671 L12.1520272,29.3037514 C12.1502652,29.9838954 11.598397,30.4596438 10.9186054,30.4596438 L10.9157862,30.4596438 C6.2724819,30.4596438 4.73176193,27.7647935 4.5657786,26.3058318 C4.56049251,26.2586093 4.55767326,26.2889163 4.55802567,26.2416938 L4.57776041,18.2050701 C4.57776041,18.1574953 4.58057966,18.1236643 4.58621816,18.0764418 C4.75889721,16.6192421 6.30772252,13.8965517 10.9284728,13.8965517 L10.9570177,13.8965517 C11.2840507,13.8965517 11.5973398,13.9821864 11.8281659,14.2140697 L11.8281659,14.2140697 Z" id="Path" fill="#241DBA"></path>
                <path d="M30.3069381,15.0798143 L30.2854414,24.010845 C30.2833269,24.7879007 29.6525198,25.3732474 28.8758165,25.3732474 L28.8722924,25.3732474 C28.0938271,25.3732474 27.4640772,24.7822622 27.4661916,24.0037969 L27.4876884,15.0946154 C27.4957938,11.8253429 26.2225501,8.74813187 23.9023076,6.43000379 C21.580303,4.10976127 18.4875861,2.82735506 15.19435,2.81924972 L15.1640431,2.81924972 C8.38269031,2.81924972 2.85766568,8.28788935 2.841455,15.030125 L2.8192534,23.9773664 C2.81749137,24.7547745 2.18668425,25.3732474 1.40962855,25.3732474 L1.40610448,25.3732474 C0.627991563,25.3732474 -0.00175834247,24.749136 3.68859893e-06,23.9706707 L0.0222052801,15.028363 C0.0422924343,6.73413035 6.83175056,9.9475983e-14 15.1636907,9.9475983e-14 L15.2010457,9.9475983e-14 C19.2445547,0.00986737401 23.0424364,1.58512315 25.8951647,4.43573702 C28.7500075,7.28846533 30.3168055,11.0542781 30.3069381,15.0798143 L30.3069381,15.0798143 Z" id="Path" fill="#241DBA"></path>
                <path d="M23.5172414,21.9137931 L27.7931034,21.9137931" id="Line-5" stroke="#241DBA" stroke-width="3" stroke-linecap="round"></path>
                <path d="M2.13793103,21.9137931 L6.4137931,21.9137931" id="Line-5-Copy" stroke="#241DBA" stroke-width="3" stroke-linecap="round"></path>
            </g>
        </g>
    </g>
</svg>
