<?xml version="1.0" encoding="UTF-8"?>
<svg width="34px" height="35px" viewBox="0 0 34 35" version="1.1" xmlns="http://www.w3.org/2000/svg" xmlns:xlink="http://www.w3.org/1999/xlink">
    <!-- Generator: Sketch 59.1 (86144) - https://sketch.com -->
    <title>Group 55</title>
    <desc>Created with Sketch.</desc>
    <defs>
        <polygon id="path-1" points="0.05586875 0.8085 5.2614625 0.8085 5.2614625 6.013875 0.05586875 6.013875"></polygon>
        <polygon id="path-3" points="0.111125 0.86393125 5.3165 0.86393125 5.3165 6.069525 0.111125 6.069525"></polygon>
    </defs>
    <g id="WEB" stroke="none" stroke-width="1" fill="none" fill-rule="evenodd">
        <g id="COMBI-PRODUCTOS-SECTORES-HOST" transform="translate(-420.000000, -846.000000)">
            <g id="Group-9" transform="translate(133.000000, 831.000000)">
                <g id="Group-11" transform="translate(237.500000, 15.000000)">
                    <g id="Group-55" transform="translate(50.000000, 0.000000)">
                        <path d="M16.283925,16.88855 L16.283925,8.480675 C13.987925,8.550675 11.9063,9.472925 10.340925,10.94555 L16.283925,16.88855 Z" id="Fill-1" fill="#241DBA"></path>
                        <path d="M16.283925,26.656 L16.283925,18.248125 L10.340925,24.191125 C11.9063,25.662875 13.987925,26.585125 16.283925,26.656" id="Fill-3" fill="#241DBA"></path>
                        <path d="M9.9428875,11.3435875 C8.4702625,12.9089625 7.5480125,14.9905875 7.4780125,17.2865875 L15.8858875,17.2865875 L9.9428875,11.3435875 Z" id="Fill-5" fill="#241DBA"></path>
                        <path d="M16.8469875,8.480325 L16.8469875,16.8882 L22.7899875,10.9452 C21.2246125,9.47345 19.1429875,8.5512 16.8469875,8.480325" id="Fill-7" fill="#241DBA"></path>
                        <path d="M7.4776625,17.84965 C7.5485375,20.14565 8.4707875,22.227275 9.9425375,23.79265 L15.8855375,17.84965 L7.4776625,17.84965 Z" id="Fill-9" fill="#241DBA"></path>
                        <path d="M16.8469875,26.656 C19.1429875,26.585125 21.2246125,25.662875 22.7899875,24.191125 L16.8469875,18.248125 L16.8469875,26.656 Z" id="Fill-11" fill="#241DBA"></path>
                        <path d="M17.245025,17.286675 L25.6529,17.286675 C25.5829,14.990675 24.66065,12.90905 23.188025,11.343675 L17.245025,17.286675 Z" id="Fill-13" fill="#241DBA"></path>
                        <path d="M23.1881125,23.7927375 C24.6607375,22.2273625 25.5829875,20.1457375 25.6529875,17.8497375 L17.2451125,17.8497375 L23.1881125,23.7927375 Z" id="Fill-15" fill="#241DBA"></path>
                        <path d="M30.4457125,17.5335125 C30.4457125,9.9192625 24.2725875,3.7461375 16.6583375,3.7461375 C9.0440875,3.7461375 2.8709625,9.9192625 2.8709625,17.5335125 C2.8709625,25.1477625 9.0440875,31.3208875 16.6583375,31.3208875 C24.2725875,31.3208875 30.4457125,25.1477625 30.4457125,17.5335125 Z" id="Stroke-17" stroke="#241DBA"></path>
                        <path d="M25.790975,17.5335125 C25.790975,12.4900125 21.7021,8.4011375 16.6586,8.4011375 C11.6151,8.4011375 7.526225,12.4900125 7.526225,17.5335125 C7.526225,22.5770125 11.6151,26.6658875 16.6586,26.6658875 C21.7021,26.6658875 25.790975,22.5770125 25.790975,17.5335125 Z" id="Stroke-19" stroke="#241DBA" stroke-width="0.473"></path>
                        <g id="Group-23" transform="translate(14.000000, 0.066938)">
                            <mask id="mask-2" fill="white">
                                <use xlink:href="#path-1"></use>
                            </mask>
                            <g id="Clip-22"></g>
                            <path d="M4.4989,5.2513125 C5.51565,4.2345625 5.51565,2.5869375 4.4989,1.5701875 C3.48215,0.5543125 1.834525,0.5543125 0.817775,1.5701875 C-0.1981,2.5869375 -0.1981,4.2345625 0.817775,5.2513125 C1.834525,6.2680625 3.48215,6.2680625 4.4989,5.2513125" id="Fill-21" fill="#241DBA" mask="url(#mask-2)"></path>
                        </g>
                        <line x1="16.56795" y1="8.699075" x2="16.56795" y2="5.080075" id="Stroke-24" stroke="#241DBA"></line>
                        <circle id="Oval" fill="#241DBA" cx="16.5" cy="17.5" r="1.5"></circle>
                        <path d="M26.5972875,10.197425 C28.0349125,10.197425 29.2004125,9.031925 29.2004125,7.5943 C29.2004125,6.15755 28.0349125,4.99205 26.5972875,4.99205 C25.1596625,4.99205 23.9941625,6.15755 23.9941625,7.5943 C23.9941625,9.031925 25.1596625,10.197425 26.5972875,10.197425" id="Fill-26" fill="#241DBA"></path>
                        <line x1="22.84135" y1="11.2226625" x2="25.400725" y2="8.6632875" id="Stroke-28" stroke="#241DBA"></line>
                        <g id="Group-32" transform="translate(28.000000, 14.066937)">
                            <mask id="mask-4" fill="white">
                                <use xlink:href="#path-3"></use>
                            </mask>
                            <g id="Clip-31"></g>
                            <path d="M0.8736875,5.3069625 C1.8904375,6.3237125 3.5380625,6.3237125 4.5548125,5.3069625 C5.5706875,4.2902125 5.5706875,2.6425875 4.5548125,1.6258375 C3.5380625,0.6099625 1.8904375,0.6099625 0.8736875,1.6258375 C-0.1430625,2.6425875 -0.1430625,4.2902125 0.8736875,5.3069625" id="Fill-30" fill="#241DBA" mask="url(#mask-4)"></path>
                        </g>
                        <line x1="25.4928625" y1="17.4430375" x2="29.1118625" y2="17.4430375" id="Stroke-33" stroke="#241DBA"></line>
                        <path d="M23.9945125,27.4722875 C23.9945125,28.9099125 25.1600125,30.0754125 26.5976375,30.0754125 C28.0343875,30.0754125 29.1998875,28.9099125 29.1998875,27.4722875 C29.1998875,26.0346625 28.0343875,24.8691625 26.5976375,24.8691625 C25.1600125,24.8691625 23.9945125,26.0346625 23.9945125,27.4722875" id="Fill-35" fill="#241DBA"></path>
                        <line x1="22.969275" y1="23.71635" x2="25.52865" y2="26.275725" id="Stroke-37" stroke="#241DBA"></line>
                        <path d="M14.8180375,29.7486875 C13.8012875,30.7654375 13.8012875,32.4130625 14.8180375,33.4298125 C15.8347875,34.4456875 17.4824125,34.4456875 18.4991625,33.4298125 C19.5150375,32.4130625 19.5150375,30.7654375 18.4991625,29.7486875 C17.4824125,28.7319375 15.8347875,28.7319375 14.8180375,29.7486875" id="Fill-39" fill="#241DBA"></path>
                        <line x1="16.7489" y1="26.3678625" x2="16.7489" y2="29.9868625" id="Stroke-41" stroke="#241DBA"></line>
                        <path d="M6.71965,24.8695125 C5.282025,24.8695125 4.116525,26.0350125 4.116525,27.4726375 C4.116525,28.9093875 5.282025,30.0748875 6.71965,30.0748875 C8.157275,30.0748875 9.322775,28.9093875 9.322775,27.4726375 C9.322775,26.0350125 8.157275,24.8695125 6.71965,24.8695125" id="Fill-43" fill="#241DBA"></path>
                        <line x1="10.4755875" y1="23.844275" x2="7.9162125" y2="26.40365" id="Stroke-45" stroke="#241DBA"></line>
                        <path d="M4.44325,15.6930375 C3.4265,14.6762875 1.778875,14.6762875 0.762125,15.6930375 C-0.25375,16.7097875 -0.25375,18.3574125 0.762125,19.3741625 C1.778875,20.3900375 3.4265,20.3900375 4.44325,19.3741625 C5.46,18.3574125 5.46,16.7097875 4.44325,15.6930375" id="Fill-47" fill="#241DBA"></path>
                        <line x1="7.824075" y1="17.6239875" x2="4.205075" y2="17.6239875" id="Stroke-49" stroke="#241DBA"></line>
                        <path d="M9.322425,7.59465 C9.322425,6.157025 8.156925,4.991525 6.7193,4.991525 C5.28255,4.991525 4.11705,6.157025 4.11705,7.59465 C4.11705,9.032275 5.28255,10.197775 6.7193,10.197775 C8.156925,10.197775 9.322425,9.032275 9.322425,7.59465" id="Fill-51" fill="#241DBA"></path>
                        <line x1="10.3476625" y1="11.3505875" x2="7.7882875" y2="8.7912125" id="Stroke-53" stroke="#241DBA"></line>
                    </g>
                </g>
            </g>
        </g>
    </g>
</svg>
