<?xml version="1.0" encoding="utf-8"?>
<!-- Generator: Adobe Illustrator 18.1.1, SVG Export Plug-In . SVG Version: 6.00 Build 0)  -->
<svg version="1.1" xmlns="http://www.w3.org/2000/svg" xmlns:xlink="http://www.w3.org/1999/xlink" x="0px" y="0px"
	 viewBox="0 0 75.1 74.8" enable-background="new 0 0 75.1 74.8" xml:space="preserve">
<g id="Layer_1">
	<g>
		<path fill="#FFFFFF" d="M45.9,19.2c1.1,0.5,2.1,1.1,3.1,1.9c0.7,0.5,1.4,1.1,2.1,1.8c0.4,0.4,0.8,0.9,1.2,1.3
			c0.6,0.8,1.5,1.2,2.5,1.2c0.7,0,1.4-0.2,2-0.7c1.4-1.1,1.5-3.1,0.4-4.5c-0.5-0.6-1-1.2-1.6-1.7c-0.9-0.9-1.8-1.7-2.8-2.4
			c-1.3-1-2.7-1.8-4.2-2.5c-1.6-0.8-3.5-0.1-4.2,1.5C43.7,16.6,44.4,18.5,45.9,19.2z"/>
		<path fill="#FFFFFF" d="M63,36c0-1.8-1.4-3.2-3.2-3.2h-3.4c0,0,0,0,0,0H50c-1.4-5.3-6.2-9.2-12-9.2c-6.8,0-12.4,5.6-12.4,12.4
			c0,6.8,5.6,12.4,12.4,12.4c5.7,0,10.6-3.9,12-9.2h6.3c-1.6,9-9.6,15.8-19.2,15.4c-9.7-0.5-17.4-8.4-17.7-18.1
			c-0.3-10.4,8.1-19,18.5-19.1c1.7,0,3.2-1.4,3.3-3.1c0.1-1.8-1.4-3.3-3.2-3.3c-14.2,0-25.7,11.9-24.9,26.3
			C13.8,50.1,24,60.3,36.7,61C51,61.8,63,50.3,63,36C63,36.1,63,36,63,36z M38,42.1c-3.3,0-6-2.7-6-6c0-3.3,2.7-6,6-6
			c3.3,0,6,2.7,6,6C44,39.4,41.3,42.1,38,42.1z"/>
	</g>
</g>
<g id="Default">
</g>
<g id="Capa_1">
	<g>
		<defs>
			<path id="SVGID_663_" d="M-1524.7-927.8c0,10.8-8.8,19.5-19.5,19.5c-7.2,0-13.5-3.9-16.9-9.8h7.1v-3.9h-11.7h-2v2v11.7h3.9v-6.6
				c4.2,6.3,11.4,10.5,19.5,10.5c12.9,0,23.4-10.5,23.4-23.4H-1524.7z M-1544.2-951.3c-12.9,0-23.4,10.5-23.4,23.4h3.9
				c0-10.8,8.8-19.5,19.5-19.5c7.2,0,13.5,3.9,16.9,9.8h-7.1v3.9h11.7h2v-2v-11.7h-3.9v6.6C-1528.9-947.1-1536.1-951.3-1544.2-951.3
				z"/>
		</defs>
		<clipPath id="SVGID_2_">
			<use xlink:href="#SVGID_663_"  overflow="visible"/>
		</clipPath>
		<g clip-path="url(#SVGID_2_)">
			<defs>
				<rect id="SVGID_665_" x="-2902.3" y="-1739.5" width="4866.4" height="3666.4"/>
			</defs>
			<clipPath id="SVGID_4_">
				<use xlink:href="#SVGID_665_"  overflow="visible"/>
			</clipPath>
		</g>
	</g>
	<g>
		<g>
			<defs>
				<path id="SVGID_671_" d="M-1940.2-1134.1c3.8,0,7.4,0.5,10.9,1.4l-10.7,43.5l-43.5,10.7c-0.9-3.5-1.4-7.2-1.4-10.9
					C-1984.8-1114.2-1964.8-1134.1-1940.2-1134.1z"/>
			</defs>
			<clipPath id="SVGID_6_">
				<use xlink:href="#SVGID_671_"  overflow="visible"/>
			</clipPath>
			<g clip-path="url(#SVGID_6_)">
				<defs>
					<rect id="SVGID_673_" x="-3434.6" y="-1557.5" width="5150.6" height="3880.5"/>
				</defs>
				<clipPath id="SVGID_7_">
					<use xlink:href="#SVGID_673_"  overflow="visible"/>
				</clipPath>
			</g>
		</g>
		<g>
			<defs>
				<path id="SVGID_675_" d="M-1928.7-1132.3c19.3,4.9,33.7,22.4,33.7,43.3c0,24.6-20,44.6-44.6,44.6c-20.9,0-38.4-14.3-43.3-33.7
					l43.5-10.7L-1928.7-1132.3z"/>
			</defs>
			<clipPath id="SVGID_8_">
				<use xlink:href="#SVGID_675_"  overflow="visible"/>
			</clipPath>
			<g clip-path="url(#SVGID_8_)">
				<defs>
					<rect id="SVGID_677_" x="-3434.6" y="-1557.5" width="5150.6" height="3880.5"/>
				</defs>
				<clipPath id="SVGID_10_">
					<use xlink:href="#SVGID_677_"  overflow="visible"/>
				</clipPath>
			</g>
		</g>
		<g>
			<defs>
				<circle id="SVGID_683_" cx="-1940.2" cy="-1089.5" r="5.6"/>
			</defs>
			<clipPath id="SVGID_12_">
				<use xlink:href="#SVGID_683_"  overflow="visible"/>
			</clipPath>
			<g clip-path="url(#SVGID_12_)">
				<defs>
					<rect id="SVGID_685_" x="-3434.6" y="-1557.5" width="5150.6" height="3880.5"/>
				</defs>
				<clipPath id="SVGID_14_">
					<use xlink:href="#SVGID_685_"  overflow="visible"/>
				</clipPath>
			</g>
		</g>
	</g>
	<g>
		<g>
			<defs>
				<path id="SVGID_689_" d="M-1329.4-984.1c-0.7,0-1.3,0.6-1.3,1.3v0.6c0,1-0.8,1.9-1.9,1.9h-27.2c-1,0-1.9-0.8-1.9-1.9v-0.8
					c0-0.6-0.5-1.1-1.1-1.1h-2.2c-4.6,0-8.3,3.7-8.3,8.3v95.9c0,4.6,3.7,8.3,8.3,8.3h37.5c4.6,0,8.3-3.7,8.3-8.3v-95.9
					c0-4.6-3.7-8.3-8.3-8.3H-1329.4z"/>
			</defs>
			<clipPath id="SVGID_16_">
				<use xlink:href="#SVGID_689_"  overflow="visible"/>
			</clipPath>
			<g clip-path="url(#SVGID_16_)">
				<defs>
					<rect id="SVGID_691_" x="-1905.6" y="-1663.3" width="2862.9" height="2156.9"/>
				</defs>
				<clipPath id="SVGID_18_">
					<use xlink:href="#SVGID_691_"  overflow="visible"/>
				</clipPath>
			</g>
		</g>
		<g>
			<defs>
				<rect id="SVGID_693_" x="-1375.1" y="-986" width="57.9" height="116.4"/>
			</defs>
			<clipPath id="SVGID_20_">
				<use xlink:href="#SVGID_693_"  overflow="visible"/>
			</clipPath>
			<g clip-path="url(#SVGID_20_)">
				<defs>
					<rect id="SVGID_695_" x="-1905.6" y="-1663.3" width="2862.9" height="2156.9"/>
				</defs>
				<clipPath id="SVGID_22_">
					<use xlink:href="#SVGID_695_"  overflow="visible"/>
				</clipPath>
			</g>
		</g>
	</g>
	<g>
		<defs>
			<path id="SVGID_703_" d="M-2117.7-880.2c1.5,0,2.6,1.2,2.6,2.6v13.2c0,1.5-1.2,2.6-2.6,2.6h-13.2c-1.5,0-2.6-1.2-2.6-2.6v-13.2
				c0-1.5,1.2-2.6,2.6-2.6H-2117.7z"/>
		</defs>
		<clipPath id="SVGID_24_">
			<use xlink:href="#SVGID_703_"  overflow="visible"/>
		</clipPath>
		<g clip-path="url(#SVGID_24_)">
			<defs>
				<rect id="SVGID_705_" x="-2538.5" y="-1682.1" width="3300.3" height="2486.5"/>
			</defs>
			<clipPath id="SVGID_26_">
				<use xlink:href="#SVGID_705_"  overflow="visible"/>
			</clipPath>
		</g>
	</g>
	<g>
		<defs>
			<path id="SVGID_716_" d="M72.5-927.8c0,10.8-8.8,19.5-19.5,19.5c-7.2,0-13.5-3.9-16.9-9.8h7.1v-3.9H31.5h-2v2v11.7h3.9v-6.6
				c4.2,6.3,11.4,10.5,19.5,10.5c12.9,0,23.4-10.5,23.4-23.4H72.5z M53-951.3c-12.9,0-23.4,10.5-23.4,23.4h3.9
				c0-10.8,8.8-19.5,19.5-19.5c7.2,0,13.5,3.9,16.9,9.8h-7.1v3.9h11.7h2v-2v-11.7h-3.9v6.6C68.3-947.1,61.1-951.3,53-951.3z"/>
		</defs>
		<clipPath id="SVGID_28_">
			<use xlink:href="#SVGID_716_"  overflow="visible"/>
		</clipPath>
		<g clip-path="url(#SVGID_28_)">
			<defs>
				<rect id="SVGID_718_" x="-1305.1" y="-1739.5" width="4866.4" height="3666.4"/>
			</defs>
			<clipPath id="SVGID_30_">
				<use xlink:href="#SVGID_718_"  overflow="visible"/>
			</clipPath>
		</g>
	</g>
	<g>
		<g>
			<defs>
				<path id="SVGID_720_" d="M-343-1134.1c3.8,0,7.4,0.5,10.9,1.4l-10.7,43.5l-43.5,10.7c-0.9-3.5-1.4-7.2-1.4-10.9
					C-387.6-1114.2-367.6-1134.1-343-1134.1z"/>
			</defs>
			<clipPath id="SVGID_32_">
				<use xlink:href="#SVGID_720_"  overflow="visible"/>
			</clipPath>
			<g clip-path="url(#SVGID_32_)">
				<defs>
					<rect id="SVGID_722_" x="-1837.4" y="-1557.5" width="5150.6" height="3880.5"/>
				</defs>
				<clipPath id="SVGID_34_">
					<use xlink:href="#SVGID_722_"  overflow="visible"/>
				</clipPath>
			</g>
		</g>
		<g>
			<defs>
				<path id="SVGID_724_" d="M-331.5-1132.3c19.3,4.9,33.7,22.4,33.7,43.3c0,24.6-20,44.6-44.6,44.6c-20.9,0-38.4-14.3-43.3-33.7
					l43.5-10.7L-331.5-1132.3z"/>
			</defs>
			<clipPath id="SVGID_36_">
				<use xlink:href="#SVGID_724_"  overflow="visible"/>
			</clipPath>
			<g clip-path="url(#SVGID_36_)">
				<defs>
					<rect id="SVGID_726_" x="-1837.4" y="-1557.5" width="5150.6" height="3880.5"/>
				</defs>
				<clipPath id="SVGID_38_">
					<use xlink:href="#SVGID_726_"  overflow="visible"/>
				</clipPath>
			</g>
		</g>
		<g>
			<defs>
				<circle id="SVGID_732_" cx="-343" cy="-1089.5" r="5.6"/>
			</defs>
			<clipPath id="SVGID_40_">
				<use xlink:href="#SVGID_732_"  overflow="visible"/>
			</clipPath>
			<g clip-path="url(#SVGID_40_)">
				<defs>
					<rect id="SVGID_734_" x="-1837.4" y="-1557.5" width="5150.6" height="3880.5"/>
				</defs>
				<clipPath id="SVGID_41_">
					<use xlink:href="#SVGID_734_"  overflow="visible"/>
				</clipPath>
			</g>
		</g>
	</g>
	<g>
		<g>
			<defs>
				<path id="SVGID_738_" d="M267.8-984.1c-0.7,0-1.3,0.6-1.3,1.3v0.6c0,1-0.8,1.9-1.9,1.9h-27.2c-1,0-1.9-0.8-1.9-1.9v-0.8
					c0-0.6-0.5-1.1-1.1-1.1h-2.2c-4.6,0-8.3,3.7-8.3,8.3v95.9c0,4.6,3.7,8.3,8.3,8.3h37.5c4.6,0,8.3-3.7,8.3-8.3v-95.9
					c0-4.6-3.7-8.3-8.3-8.3H267.8z"/>
			</defs>
			<clipPath id="SVGID_43_">
				<use xlink:href="#SVGID_738_"  overflow="visible"/>
			</clipPath>
			<g clip-path="url(#SVGID_43_)">
				<defs>
					<rect id="SVGID_740_" x="-308.4" y="-1663.3" width="2862.9" height="2156.9"/>
				</defs>
				<clipPath id="SVGID_45_">
					<use xlink:href="#SVGID_740_"  overflow="visible"/>
				</clipPath>
			</g>
		</g>
		<g>
			<defs>
				<rect id="SVGID_742_" x="222.1" y="-986" width="57.9" height="116.4"/>
			</defs>
			<clipPath id="SVGID_47_">
				<use xlink:href="#SVGID_742_"  overflow="visible"/>
			</clipPath>
			<g clip-path="url(#SVGID_47_)">
				<defs>
					<rect id="SVGID_744_" x="-308.4" y="-1663.3" width="2862.9" height="2156.9"/>
				</defs>
				<clipPath id="SVGID_49_">
					<use xlink:href="#SVGID_744_"  overflow="visible"/>
				</clipPath>
			</g>
		</g>
	</g>
	<g>
		<defs>
			<path id="SVGID_752_" d="M-520.5-880.2c1.5,0,2.6,1.2,2.6,2.6v13.2c0,1.5-1.2,2.6-2.6,2.6h-13.2c-1.5,0-2.6-1.2-2.6-2.6v-13.2
				c0-1.5,1.2-2.6,2.6-2.6H-520.5z"/>
		</defs>
		<clipPath id="SVGID_51_">
			<use xlink:href="#SVGID_752_"  overflow="visible"/>
		</clipPath>
		<g clip-path="url(#SVGID_51_)">
			<defs>
				<rect id="SVGID_754_" x="-941.3" y="-1682.1" width="3300.3" height="2486.5"/>
			</defs>
			<clipPath id="SVGID_53_">
				<use xlink:href="#SVGID_754_"  overflow="visible"/>
			</clipPath>
		</g>
	</g>
	<g>
		<g>
			<defs>
				<path id="SVGID_763_" d="M-3521.2-1706.3c3.8,0,7.4,0.5,10.9,1.4l-10.7,43.5l-43.5,10.7c-0.9-3.5-1.4-7.2-1.4-10.9
					C-3565.8-1686.4-3545.8-1706.3-3521.2-1706.3z"/>
			</defs>
			<clipPath id="SVGID_55_">
				<use xlink:href="#SVGID_763_"  overflow="visible"/>
			</clipPath>
			<g clip-path="url(#SVGID_55_)">
				<defs>
					<rect id="SVGID_765_" x="-5015.6" y="-2129.7" width="5150.6" height="3880.5"/>
				</defs>
				<clipPath id="SVGID_57_">
					<use xlink:href="#SVGID_765_"  overflow="visible"/>
				</clipPath>
			</g>
		</g>
		<g>
			<defs>
				<path id="SVGID_767_" d="M-3509.7-1704.5c19.3,4.9,33.7,22.4,33.7,43.3c0,24.6-20,44.6-44.6,44.6c-20.9,0-38.4-14.3-43.3-33.7
					l43.5-10.7L-3509.7-1704.5z"/>
			</defs>
			<clipPath id="SVGID_59_">
				<use xlink:href="#SVGID_767_"  overflow="visible"/>
			</clipPath>
			<g clip-path="url(#SVGID_59_)">
				<defs>
					<rect id="SVGID_769_" x="-5015.6" y="-2129.7" width="5150.6" height="3880.5"/>
				</defs>
				<clipPath id="SVGID_61_">
					<use xlink:href="#SVGID_769_"  overflow="visible"/>
				</clipPath>
			</g>
		</g>
		<g>
			<defs>
				<circle id="SVGID_775_" cx="-3521.2" cy="-1661.7" r="5.6"/>
			</defs>
			<clipPath id="SVGID_63_">
				<use xlink:href="#SVGID_775_"  overflow="visible"/>
			</clipPath>
			<g clip-path="url(#SVGID_63_)">
				<defs>
					<rect id="SVGID_777_" x="-5015.6" y="-2129.7" width="5150.6" height="3880.5"/>
				</defs>
				<clipPath id="SVGID_64_">
					<use xlink:href="#SVGID_777_"  overflow="visible"/>
				</clipPath>
			</g>
		</g>
	</g>
</g>
</svg>
