<?xml version="1.0" encoding="UTF-8"?>
<svg width="118px" height="107px" viewBox="0 0 118 107" version="1.1" xmlns="http://www.w3.org/2000/svg" xmlns:xlink="http://www.w3.org/1999/xlink">
    <!-- Generator: Sketch 59.1 (86144) - https://sketch.com -->
    <title>Group 43</title>
    <desc>Created with Sketch.</desc>
    <g id="WEB" stroke="none" stroke-width="1" fill="none" fill-rule="evenodd">
        <g id="Planes-HOST-opcion-2" transform="translate(-987.000000, -284.000000)">
            <g id="Group-8" transform="translate(157.000000, 212.000000)">
                <g id="Group-4" transform="translate(787.000000, 19.000000)">
                    <g id="Group-43" transform="translate(44.000000, 54.000000)">
                        <g id="Group-40" transform="translate(22.000000, 16.000000)">
                            <g id="Group-38">
                                <path d="M21.1119826,12.5071781 L74.4119826,1.59727711 C77.9289142,0.87740139 81.3635252,3.14486323 82.083401,6.66179488 C82.1711976,7.09072284 82.2154329,7.52742393 82.2154329,7.96524518 L82.2154329,45.710977 C82.2154329,48.9119346 79.8850119,51.6364087 76.7227234,52.1324539 L23.4227234,60.4932383 C19.8762396,61.0495494 16.5502672,58.6255356 15.993956,55.0790518 C15.9416865,54.7458342 15.9154329,54.4090536 15.9154329,54.0717613 L15.9154329,18.8751462 C15.9154329,15.7877215 18.0872715,13.1263019 21.1119826,12.5071781 Z" id="Path-9" fill="#EEEFF7"></path>
                                <path d="M16.2561839,14.2530066 L87.002206,7.21108189 C90.5744041,6.85551207 93.7584891,9.46310452 94.1140589,13.0353026 C94.1353546,13.2492473 94.1460221,13.4641168 94.1460221,13.6791188 L94.1460221,49.8190308 C94.1460221,53.1180847 91.6746177,55.8939114 88.3976973,56.2754218 L17.6516752,64.511917 C14.085909,64.9270558 10.8587478,62.3729676 10.443609,58.8072013 C10.4145608,58.557696 10.4,58.3067166 10.4,58.0555261 L10.4,20.7210435 C10.4,17.380521 12.9320881,14.5838808 16.2561839,14.2530066 Z" id="Path-8" fill="#DDDEEE"></path>
                                <g id="Group-37" transform="translate(0.000000, 14.300000)">
                                    <rect id="Rectangle" fill="#EEEFF7" x="0" y="0" width="91" height="52" rx="6.5"></rect>
                                    <path d="M76.7,10.4 L81.9,15.6 L81.9,37.699 L76.7,42.9 L76.701,42.9 L15.914,42.9 L15.9154329,42.9 L10.4,37.3845671 L10.4,15.9154329 L15.9154329,10.4 L76.7,10.4 Z" id="Combined-Shape" fill="#DDDEEE"></path>
                                    <circle id="Oval" stroke="#EEEFF7" stroke-width="1.3" fill="#E5E7F4" cx="46.8" cy="26" r="10.4"></circle>
                                    <text id="€" font-family=".AppleSystemUIFont" font-size="15.6" font-weight="normal" line-spacing="10.4" fill="#241DBA">
                                        <tspan x="41.6" y="35.8">€</tspan>
                                    </text>
                                    <circle id="Oval" fill="#E5E7F4" cx="24.7" cy="27.3" r="2.6"></circle>
                                    <circle id="Oval-Copy-8" fill="#E5E7F4" cx="68.9" cy="27.3" r="2.6"></circle>
                                </g>
                            </g>
                            <line x1="3.9" y1="81.9" x2="91" y2="81.9" id="Line-3" stroke="#DDDEEE" stroke-width="3.9" stroke-linecap="round"></line>
                            <circle id="Oval" fill="#241DBA" cx="71.5" cy="81.9" r="7.8"></circle>
                        </g>
                        <g id="Fill-537" transform="translate(8.000000, 6.000000)"></g>
                        <g id="Group-41">
                            <circle id="Oval" stroke="#E5E7F4" stroke-width="2" fill="#DDDEEE" cx="24.5" cy="24.5" r="24.5"></circle>
                            <path d="M34.5,27.5 L32,27.5 L32,25 L34.5,25 L34.5,27.5 Z M34.5,32.5 L32,32.5 L32,30 L34.5,30 L34.5,32.5 Z M28.25,17.5 L25.75,17.5 L25.75,15 L28.25,15 L28.25,17.5 Z M28.25,22.5 L25.75,22.5 L25.75,20 L28.25,20 L28.25,22.5 Z M28.25,27.5 L25.75,27.5 L25.75,25 L28.25,25 L28.25,27.5 Z M23.25,17.5 L20.75,17.5 L20.75,15 L23.25,15 L23.25,17.5 Z M23.25,22.5 L20.75,22.5 L20.75,20 L23.25,20 L23.25,22.5 Z M23.25,27.5 L20.75,27.5 L20.75,25 L23.25,25 L23.25,27.5 Z M17,27.5 L14.5,27.5 L14.5,25 L17,25 L17,27.5 Z M17,32.5 L14.5,32.5 L14.5,30 L17,30 L17,32.5 Z M30.75,22.5 L30.75,13.75 C30.75,13.06125 30.19125,12.5 29.5,12.5 L28.25,12.5 L28.25,11.25 C28.25,10.56125 27.69125,10 27,10 L22,10 C21.31,10 20.75,10.56125 20.75,11.25 L20.75,12.5 L19.5,12.5 C18.81,12.5 18.25,13.06125 18.25,13.75 L18.25,22.5 L13.25,22.5 C12.56,22.5 12,23.06125 12,23.75 L12,33.75 C12,34.44125 12.56,35 13.25,35 L22,35 L22,30 L27,30 L27,35 L35.75,35 C36.44125,35 37,34.44125 37,33.75 L37,23.75 C37,23.06125 36.44125,22.5 35.75,22.5 L30.75,22.5 Z" id="Fill-537" fill="#EEEFF7"></path>
                        </g>
                    </g>
                </g>
            </g>
        </g>
    </g>
</svg>
