<?xml version="1.0" encoding="UTF-8"?>
<svg width="30px" height="30px" viewBox="0 0 30 30" version="1.1" xmlns="http://www.w3.org/2000/svg" xmlns:xlink="http://www.w3.org/1999/xlink">
    <!-- Generator: Sketch 59.1 (86144) - https://sketch.com -->
    <title>Fill 537 Copy</title>
    <desc>Created with Sketch.</desc>
    <g id="WEB" stroke="none" stroke-width="1" fill="none" fill-rule="evenodd">
        <g id="COMBI-PRODUCTOS-SECTORES-HOST" transform="translate(-188.000000, -839.000000)" fill="#241DBA">
            <g id="Group-9" transform="translate(133.000000, 831.000000)">
                <g id="Group-13" transform="translate(32.000000, 8.000000)">
                    <g id="Fill-537-Copy" transform="translate(23.000000, 0.000000)">
                        <path d="M27,21 L24,21 L24,18 L27,18 L27,21 Z M27,27 L24,27 L24,24 L27,24 L27,27 Z M19.5,9 L16.5,9 L16.5,6 L19.5,6 L19.5,9 Z M19.5,15 L16.5,15 L16.5,12 L19.5,12 L19.5,15 Z M19.5,21 L16.5,21 L16.5,18 L19.5,18 L19.5,21 Z M13.5,9 L10.5,9 L10.5,6 L13.5,6 L13.5,9 Z M13.5,15 L10.5,15 L10.5,12 L13.5,12 L13.5,15 Z M13.5,21 L10.5,21 L10.5,18 L13.5,18 L13.5,21 Z M6,21 L3,21 L3,18 L6,18 L6,21 Z M6,27 L3,27 L3,24 L6,24 L6,27 Z M28.5,15 L22.5,15 L22.5,4.5 C22.5,3.6735 21.8295,3 21,3 L19.5,3 L19.5,1.5 C19.5,0.6735 18.8295,0 18,0 L12,0 C11.172,0 10.5,0.6735 10.5,1.5 L10.5,3 L9,3 C8.172,3 7.5,3.6735 7.5,4.5 L7.5,15 L1.5,15 C0.672,15 0,15.6735 0,16.5 L0,28.5 C0,29.3295 0.672,30 1.5,30 L12,30 L12,24 L18,24 L18,30 L28.5,30 C29.3295,30 30,29.3295 30,28.5 L30,16.5 C30,15.6735 29.3295,15 28.5,15 L28.5,15 Z" id="Fill-537"></path>
                    </g>
                </g>
            </g>
        </g>
    </g>
</svg>
