<?xml version="1.0" encoding="UTF-8"?>
<svg width="28px" height="29px" viewBox="0 0 28 29" version="1.1" xmlns="http://www.w3.org/2000/svg" xmlns:xlink="http://www.w3.org/1999/xlink">
    <!-- Generator: Sketch 59.1 (86144) - https://sketch.com -->
    <title>Fill 606</title>
    <desc>Created with Sketch.</desc>
    <g id="WEB" stroke="none" stroke-width="1" fill="none" fill-rule="evenodd">
        <g id="COMBI-PRODUCTOS-SECTORES-HOST" transform="translate(-607.000000, -849.000000)" fill="#241DBA">
            <g id="Group-9" transform="translate(133.000000, 831.000000)">
                <g id="Group-10" transform="translate(452.000000, 18.000000)">
                    <g id="Fill-606" transform="translate(22.000000, 0.000000)">
                        <path d="M27.4080381,26.887419 L15.0568,8.89222857 L19.1361333,2.09241905 L16.7678,0.671419048 L13.808419,5.60141905 L10.850419,0.671419048 L8.48208571,2.09241905 L12.561419,8.89084762 L0.2088,26.887419 C-0.0563428571,27.3141333 -0.070152381,27.8499429 0.172895238,28.2890857 C0.415942857,28.7282286 0.878561905,29.0002762 1.37984762,29.0002762 L9.6655619,29.0002762 L9.6655619,26.2383714 C9.6655619,23.9515143 11.5215619,22.0955143 13.808419,22.0955143 C16.0966571,22.0955143 17.9512762,23.9515143 17.9512762,26.2383714 L17.9512762,29.0002762 L26.2369905,29.0002762 C26.7396571,29.0002762 27.2022762,28.7282286 27.4453238,28.2890857 C27.6883714,27.8499429 27.6745619,27.3141333 27.4080381,26.887419"></path>
                    </g>
                </g>
            </g>
        </g>
    </g>
</svg>
