<?xml version="1.0" encoding="UTF-8"?>
<svg width="114px" height="86px" viewBox="0 0 114 86" version="1.1" xmlns="http://www.w3.org/2000/svg" xmlns:xlink="http://www.w3.org/1999/xlink">
    <!-- Generator: Sketch 52.5 (67469) - http://www.bohemiancoding.com/sketch -->
    <title>Group 30</title>
    <desc>Created with Sketch.</desc>
    <defs>
        <circle id="path-1" cx="15" cy="15" r="15"></circle>
        <linearGradient x1="45.166306%" y1="-1.69870728%" x2="59.6076601%" y2="51.8765724%" id="linearGradient-3">
            <stop stop-color="#5DBBF7" offset="0%"></stop>
            <stop stop-color="#4499CE" offset="100%"></stop>
        </linearGradient>
        <linearGradient x1="72.3427929%" y1="100%" x2="50%" y2="23.5453408%" id="linearGradient-4">
            <stop stop-color="#EEEFF7" offset="0%"></stop>
            <stop stop-color="#DDDEEE" offset="100%"></stop>
        </linearGradient>
        <linearGradient x1="123.430804%" y1="5.59912484%" x2="27.7122459%" y2="90.2372213%" id="linearGradient-5">
            <stop stop-color="#FFFFFF" offset="0%"></stop>
            <stop stop-color="#DDDEEE" offset="100%"></stop>
        </linearGradient>
        <circle id="path-6" cx="15.25" cy="15" r="15"></circle>
    </defs>
    <g id="COMBI-SOLUCIONES-EGO-HOST-SECTORES" stroke="none" stroke-width="1" fill="none" fill-rule="evenodd">
        <g id="COMBI-PRODUCTOS-SECTORES-HOST--HOTELES-RESORTS" transform="translate(-257.000000, -2385.000000)">
            <g id="Group-30" transform="translate(258.000000, 2386.000000)">
                <g id="Group-24" transform="translate(15.000000, 5.000000)">
                    <g id="Group-21">
                        <g id="Group-18" transform="translate(5.000000, 0.000000)">
                            <path d="M31.3675744,1.34570246 C30.8724414,1.34570246 30.4711803,1.74696355 30.4711803,2.2418601 L30.4711803,2.62538719 C30.4711803,3.33190936 29.8982542,3.90483547 29.191732,3.90483547 L10.5325005,3.90483547 C9.82574187,3.90483547 9.25305222,3.33190936 9.25305222,2.62538719 L9.25305222,2.10566305 C9.25305222,1.68595862 8.91279606,1.34570246 8.49309163,1.34570246 L6.97222463,1.34570246 C3.83614581,1.34570246 1.29403744,3.88781084 1.29403744,7.0236532 L1.29403744,72.8973872 C1.29403744,76.0332296 3.83614581,78.5753379 6.97222463,78.5753379 L32.7520079,78.5753379 C35.8878502,78.5753379 38.4301951,76.0332296 38.4301951,72.8973872 L38.4301951,7.0236532 C38.4301951,3.88781084 35.8878502,1.34570246 32.7520079,1.34570246 L31.3675744,1.34570246 Z" id="Fill-1-Copy-2" fill="#EEEFF7"></path>
                            <path d="M38.3054187,72.7923547 C38.3054187,75.928197 35.8020887,78.5024631 32.6662463,78.5024631 L6.8862266,78.5024631 C3.75038424,78.5024631 1.18226601,75.928197 1.18226601,72.7923547 L1.18226601,6.91862069 C1.18226601,3.78277833 3.75038424,1.18226601 6.8862266,1.18226601 L8.4070936,1.18226601 C8.82679803,1.18226601 9.22167488,1.58092611 9.22167488,2.00063054 L9.22167488,2.52035468 C9.22167488,3.22687685 9.7399803,3.78325123 10.4467389,3.78325123 L29.105734,3.78325123 C29.8124926,3.78325123 30.5024631,3.22687685 30.5024631,2.52035468 L30.5024631,2.13706404 C30.5024631,1.64193103 30.7866798,1.18226601 31.2815764,1.18226601 L32.6662463,1.18226601 C35.8020887,1.18226601 38.3054187,3.78277833 38.3054187,6.91862069 L38.3054187,72.7923547 Z M39.7241379,6.52185222 C39.7241379,2.91996059 36.8041773,-2.84217094e-14 33.2022857,-2.84217094e-14 L6.52185222,-2.84217094e-14 C2.91996059,-2.84217094e-14 9.23705556e-14,2.91996059 9.23705556e-14,6.52185222 L9.23705556e-14,73.39933 C9.23705556e-14,77.0012217 2.91996059,79.9211823 6.52185222,79.9211823 L33.2022857,79.9211823 C36.8041773,79.9211823 39.7241379,77.0012217 39.7241379,73.39933 L39.7241379,6.52185222 Z" id="Fill-3" fill="#DDDEEE"></path>
                        </g>
                        <g id="Group-15" transform="translate(0.000000, 29.000000)" stroke="#A5A7BF" stroke-linecap="round" stroke-linejoin="round" stroke-width="2.16">
                            <path d="M7.10542736e-15,2.66453526e-14 C3.888,6.25488718 12.238499,8.91367778 25.0514969,7.9763718" id="Path-4"></path>
                            <polygon id="Path-5" fill="#232526" points="17.665857 0.771193845 25.0514969 7.96369195 17.665857 15.9527436 23.3726849 7.9763718"></polygon>
                        </g>
                        <g id="Fill-590-Copy-2" transform="translate(68.000000, 24.000000)" fill="#EEEFF7">
                            <path d="M3,16.5 L27,16.5 L27,18 L3,18 L3,16.5 Z M6,6 L13.5,6 L13.5,10.5375 C10.9995,10.638 8.5005,10.9875 6,11.5875 L6,6 Z M24,6 L24,11.5875 C21.501,10.9875 19.002,10.638 16.5,10.5375 L16.5,6 L24,6 Z M27,12.432 L27,0 L24,0 L24,3 L6,3 L6.0015,0 L3,0 L3,12.432 C1.9995,12.7515 1.002,13.0995 0,13.5 L0,24 L3,24 L3,21 L27,21 L27,24 L30,24 L30,13.5 C28.9995,13.0995 28.002,12.7515 27,12.432 L27,12.432 Z" id="Fill-590"></path>
                        </g>
                        <g id="Group-20-Copy-3" transform="translate(79.000000, 10.000000)">
                            <polygon id="lock-open-copy" fill="#EEEFF7" points="1 11 7 11 7 5 1 5"></polygon>
                            <path d="M1.03225806,10.4777778 L6.96774194,10.4777778 L6.96774194,5.11111111 L1.03225806,5.11111111 L1.03225806,10.4777778 Z M7.48387097,4.08888889 L1.93548387,4.08888889 L1.93548387,3.20977778 C1.93548387,1.90133333 2.76890323,1.02222222 3.98051613,1.02222222 C4.86309677,1.02222222 5.5516129,1.47532222 5.85251613,2.26537222 C5.95329032,2.52948889 6.25587097,2.66288889 6.52245161,2.56322222 C6.78916129,2.46355556 6.92632258,2.16877222 6.82567742,1.90465556 C6.37148387,0.711977778 5.296,0 3.97935484,0 C2.17883871,0 0.903225806,1.31994444 0.903225806,3.20977778 L0.903225806,4.08888889 L0.516129032,4.08888889 C0.231096774,4.08888889 0,4.31965556 0,4.60191667 L0,10.9888889 C0,11.27115 0.231096774,11.5 0.516129032,11.5 L7.48387097,11.5 C7.76890323,11.5 8,11.27115 8,10.9888889 L8,4.60191667 C8,4.31965556 7.76890323,4.08888889 7.48387097,4.08888889 L7.48387097,4.08888889 Z" id="lock-open" fill="#A5A7BF"></path>
                        </g>
                        <text id="R107" font-family="Lato-Bold, Lato" font-size="10" font-weight="bold" line-spacing="19" fill="#A5A7BF">
                            <tspan x="71.585" y="56">R107</tspan>
                        </text>
                    </g>
                    <g id="Group-12" transform="translate(10.000000, 13.000000)">
                        <g id="Group-8-Copy-5">
                            <g id="Group-13">
                                <rect id="Rectangle" fill="#E5E7F4" x="0" y="0" width="28.8" height="13.5" rx="1.8"></rect>
                                <g id="Group-11" transform="translate(3.150000, 3.600000)" stroke="#FFFFFF" stroke-linecap="round" stroke-width="0.9">
                                    <path d="M0.45,0.9 L14.85,0.9" id="Line-2"></path>
                                    <path d="M0.45,2.7 L14.85,2.7" id="Line-2-Copy"></path>
                                    <path d="M0.45,4.5 L14.85,4.5" id="Line-2-Copy-2"></path>
                                    <path d="M0.45,6.3 L14.85,6.3" id="Line-2-Copy-3"></path>
                                </g>
                            </g>
                        </g>
                        <circle id="Oval" fill="#241DBA" cx="23" cy="7" r="2"></circle>
                    </g>
                    <g id="Group-12-Copy-2" transform="translate(31.000000, 30.000000)">
                        <g id="Group-8-Copy-5">
                            <g id="Group-13">
                                <rect id="Rectangle" fill="#E5E7F4" x="0" y="0" width="28.8" height="13.5" rx="1.8"></rect>
                                <g id="Group-11" transform="translate(3.150000, 3.600000)" stroke="#FFFFFF" stroke-linecap="round" stroke-width="0.9">
                                    <path d="M0.45,0.9 L14.85,0.9" id="Line-2"></path>
                                    <path d="M0.45,2.7 L14.85,2.7" id="Line-2-Copy"></path>
                                    <path d="M0.45,4.5 L14.85,4.5" id="Line-2-Copy-2"></path>
                                    <path d="M0.45,6.3 L14.85,6.3" id="Line-2-Copy-3"></path>
                                </g>
                            </g>
                        </g>
                        <circle id="Oval" fill="#241DBA" cx="23" cy="7" r="2"></circle>
                    </g>
                    <g id="Group-12-Copy-3" transform="translate(10.000000, 47.000000)">
                        <g id="Group-8-Copy-5">
                            <g id="Group-13">
                                <rect id="Rectangle" fill="#E5E7F4" x="0" y="0" width="28.8" height="13.5" rx="1.8"></rect>
                                <g id="Group-11" transform="translate(3.150000, 3.600000)" stroke="#FFFFFF" stroke-linecap="round" stroke-width="0.9">
                                    <path d="M0.45,0.9 L14.85,0.9" id="Line-2"></path>
                                    <path d="M0.45,2.7 L14.85,2.7" id="Line-2-Copy"></path>
                                    <path d="M0.45,4.5 L14.85,4.5" id="Line-2-Copy-2"></path>
                                    <path d="M0.45,6.3 L14.85,6.3" id="Line-2-Copy-3"></path>
                                </g>
                            </g>
                        </g>
                        <circle id="Oval" fill="#241DBA" cx="23" cy="7" r="2"></circle>
                    </g>
                </g>
                <g id="Group-12-Copy">
                    <g id="Group-5">
                        <mask id="mask-2" fill="white">
                            <use xlink:href="#path-1"></use>
                        </mask>
                        <use id="Mask" fill="#FFFFFF" xlink:href="#path-1"></use>
                        <g id="Group-7" mask="url(#mask-2)">
                            <g transform="translate(5.250000, 4.000000)">
                                <g transform="translate(0.078907, 0.000000)">
                                    <path d="M2.58823023,51.3711635 C2.58823023,51.3711635 1.15948322,39.2733475 0.853668972,36.1452093 C0.721036184,34.7887522 1.08183089,30.7721147 1.08183089,30.7721147 C1.65263138,29.6850878 1.54704656,31.6052213 2.68864755,32.0581123 L6.20865376,33.325941 L5.2573196,51.3711635 C5.2573196,51.3711635 5.02729552,54.3409228 6.20865376,55.6273635 C8.47928612,58.1000062 3.3665226,63.4177967 2.68864755,58.5252008 C2.48916299,57.0854773 2.30280671,54.0344902 2.58823023,53.5816879 C2.8736072,53.2194638 2.58823023,51.3711635 2.58823023,51.3711635 Z" id="Fill-1" fill="#F6B690"></path>
                                    <path d="M19.3893251,48.4717795 C19.3893251,48.4717795 17.9605781,36.3739635 17.6547639,33.2458253 C17.5221311,31.8893682 17.8829258,27.8727307 17.8829258,27.8727307 C18.4537263,26.7857038 18.3481414,28.7058374 19.4897424,29.1587283 L23.0097487,30.4265571 L22.0584145,48.4717795 C22.0584145,48.4717795 21.8283904,51.4415388 23.0097487,52.7279795 C25.280381,55.2006222 20.1676175,60.5184127 19.4897424,55.6258168 C19.2902579,54.1860934 19.1039016,51.1351062 19.3893251,50.6823039 C19.6747021,50.3200798 19.3893251,48.4717795 19.3893251,48.4717795 Z" id="Fill-1-Copy" fill="#F6B690"></path>
                                    <path d="M21.7805818,88.25 L17.5620631,88.25 L10.3244124,59.3083782 L10.3657874,88.25 L5.85777696,88.25 C5.85777696,88.25 -0.227881133,54.6007559 3.86655694,46.2089322 L19.0509861,46.2089322 C19.0923166,46.249885 19.6713447,52.3902351 21.7805818,88.25 Z" id="Fill-2" fill="url(#linearGradient-3)"></path>
                                    <polygon id="Fill-3" fill="url(#linearGradient-4)" points="13.3765647 14.8593429 14.1929906 21.7453799 7.14737012 21.7453799 7.67241979 16.4489469"></polygon>
                                    <path d="M7.31919517,19.0294933 C7.31919517,19.0294933 8.25002017,20.6065859 10.9743012,20.2956879 C13.6985822,19.9847898 13.8637657,18.8561485 13.8582867,18.6651945 C19.8177388,18.9386367 23.3617885,23.4380278 24.4904358,32.1633679 L19.0919359,32.1633679 C19.6371713,39.775111 19.6371713,45.121408 19.0919359,48.2022587 L3.16327944,48.2022587 L4.38579002,34.4092889 L0.902710992,32.1633679 C0.448338335,30.9856451 1.63682441,18.6215472 7.31919517,19.0294933 Z" id="Fill-4" fill="#A5A7BF"></path>
                                    <path d="M13.693177,14.58806 C13.4485962,15.4064744 12.0991864,16.401149 11.3002371,16.7439265 C9.6025302,17.4715535 7.40666005,17.9967913 5.80230659,16.0092136 C4.33275799,14.2009961 3.87683654,11.7209525 3.73184447,10.1182244 C3.6206634,9.1549932 4.06499251,8.25066303 4.80769263,7.63508079 C6.49288509,6.31800052 9.61983089,4.08507559 10.3314425,4.37470925 C10.9719192,4.63511383 12.9183345,6.59523396 14.1543677,7.84942742 C14.8148237,8.57705448 15.0471535,9.54781438 14.8449902,10.4667591 L13.693177,14.58806 Z" id="Fill-8" fill="url(#linearGradient-5)"></path>
                                    <path d="M11.1795846,5.95295302 C11.1795846,5.95295302 11.9943844,9.25646504 12.1950074,9.17039448 C12.3956746,9.08476759 13.1458497,8.03594911 13.850589,8.80703478 C14.6646388,9.6974657 13.6337767,11.5936798 13.6337767,11.5936798 C13.6337767,11.5936798 13.3372974,14.662938 13.946754,14.2831627 C14.5562106,13.9033875 18.5037389,7.9126109 14.7840951,2.40453923 C14.7840951,2.40453923 11.8045247,-0.982825022 8.85314204,0.283388151 C7.23329147,0.978607508 3.07502032,1.82472789 1.56936014,3.12263993 C0.0636999551,4.42055197 -0.438688906,5.46669877 0.414356227,7.48492012 C1.26735725,9.5026978 3.6556013,10.0586071 4.67786151,9.88291668 C7.6575643,9.37048633 10.5890523,7.21827887 11.1795846,5.95295302 Z" id="Fill-9" fill="#A5A7BF"></path>
                                </g>
                            </g>
                        </g>
                    </g>
                    <mask id="mask-7" fill="white">
                        <use xlink:href="#path-6"></use>
                    </mask>
                    <use id="Mask" stroke="#A5A7BF" stroke-width="0.6" xlink:href="#path-6"></use>
                </g>
            </g>
        </g>
    </g>
</svg>
