<?xml version="1.0" encoding="UTF-8"?>
<svg width="115px" height="109px" viewBox="0 0 115 109" version="1.1" xmlns="http://www.w3.org/2000/svg" xmlns:xlink="http://www.w3.org/1999/xlink">
    <!-- Generator: Sketch 52.5 (67469) - http://www.bohemiancoding.com/sketch -->
    <title>Group 100 Copy 2</title>
    <desc>Created with Sketch.</desc>
    <defs>
        <circle id="path-1" cx="18.0383112" cy="18.0383112" r="18.0383112"></circle>
        <linearGradient x1="45.166306%" y1="-1.69870728%" x2="59.6076601%" y2="51.8765724%" id="linearGradient-3">
            <stop stop-color="#5DBBF7" offset="0%"></stop>
            <stop stop-color="#4499CE" offset="100%"></stop>
        </linearGradient>
        <linearGradient x1="72.3427929%" y1="100%" x2="50%" y2="23.5453408%" id="linearGradient-4">
            <stop stop-color="#EEEFF7" offset="0%"></stop>
            <stop stop-color="#DDDEEE" offset="100%"></stop>
        </linearGradient>
        <circle id="path-5" cx="18.0383112" cy="18.0383112" r="18.0383112"></circle>
        <circle id="path-7" cx="22.547889" cy="22.547889" r="22.547889"></circle>
    </defs>
    <g id="STYLE-GUIDES-" stroke="none" stroke-width="1" fill="none" fill-rule="evenodd">
        <g id="iconos-DESPLEGADOS" transform="translate(-645.000000, -3246.000000)">
            <g id="Group-100-Copy-2" transform="translate(645.000000, 3247.000000)">
                <g id="Group-101" transform="translate(8.970000, 0.000000)">
                    <g id="Group-Copy-23" opacity="0.733096168" transform="translate(0.000000, 5.382000)">
                        <g id="Group-Copy-6" opacity="0.784435454">
                            <mask id="mask-2" fill="white">
                                <use xlink:href="#path-1"></use>
                            </mask>
                            <use id="Mask" stroke="#DDDEEE" stroke-width="0.9493848" fill="#FFFFFF" xlink:href="#path-1"></use>
                            <g id="Group-Copy-2" mask="url(#mask-2)">
                                <g transform="translate(6.329232, 4.430462)">
                                    <path d="M3.20567192,61.8963422 C3.20567192,61.8963422 1.48843979,47.3198656 1.12087713,43.550819 C0.961463828,41.9164443 1.39510831,37.0768582 1.39510831,37.0768582 C2.08116185,35.7671158 1.95425789,38.0806558 3.32636497,38.6263373 L7.55711241,40.1539251 L6.41368984,61.8963422 C6.41368984,61.8963422 6.1372205,65.4745605 7.55711241,67.0245736 C10.286219,70.0038236 4.14111301,76.4111494 3.32636497,70.5161342 C3.08660154,68.781433 2.86261718,65.1053445 3.20567192,64.5597698 C3.54867072,64.1233314 3.20567192,61.8963422 3.20567192,61.8963422 Z" id="Fill-1" fill="#F6B690"></path>
                                    <path d="M23.3991559,58.4029181 C23.3991559,58.4029181 21.6819238,43.8264415 21.3143611,40.0573949 C21.1549478,38.4230201 21.5885923,33.583434 21.5885923,33.583434 C22.2746458,32.2736917 22.1477419,34.5872317 23.519849,35.1329131 L27.7505964,36.6605009 L26.6071738,58.4029181 C26.6071738,58.4029181 26.3307045,61.9811363 27.7505964,63.5311494 C30.479703,66.5103994 24.334597,72.9177252 23.519849,67.02271 C23.2800855,65.2880089 23.0561012,61.6119203 23.3991559,61.0663456 C23.7421547,60.6299072 23.3991559,58.4029181 23.3991559,58.4029181 Z" id="Fill-1-Copy" fill="#F6B690"></path>
                                    <path d="M26.2732426,106.331098 L21.2029427,106.331098 L12.5039034,71.4597729 L12.5536327,106.331098 L7.1353884,106.331098 C7.1353884,106.331098 -0.179053905,65.7876295 4.74211167,55.6764474 L22.9925013,55.6764474 C23.042177,55.7257907 23.7381194,63.1242063 26.2732426,106.331098 Z" id="Fill-2" fill="url(#linearGradient-3)"></path>
                                    <polygon id="Fill-3" fill="url(#linearGradient-4)" points="16.1723304 17.9037988 17.1536047 26.2006811 8.68536946 26.2006811 9.31643442 19.8190887"></polygon>
                                    <path d="M8.89188852,22.9283503 C8.89188852,22.9283503 10.0106608,24.8285654 13.2850144,24.4539691 C16.5593679,24.0793727 16.7579045,22.7194897 16.7513192,22.4894121 C23.9140727,22.8188785 28.1737183,28.2401272 29.5302562,38.7531582 L23.0417195,38.7531582 C23.6970459,47.924433 23.6970459,54.3661058 23.0417195,58.0781765 L3.89683205,58.0781765 L5.36618557,41.4592346 L1.17982146,38.7531582 C0.633704256,37.3341377 2.06216321,22.4368221 8.89188852,22.9283503 Z" id="Fill-4" fill="#DDDEEE"></path>
                                    <path d="M16.5528714,17.5769341 C16.2589062,18.5630293 14.6370306,19.7614978 13.6767616,20.1745052 C11.6362626,21.0512121 8.99701385,21.6840632 7.06871774,19.2892606 C5.30244558,17.1105666 4.75446686,14.1223994 4.58019876,12.1912964 C4.44656858,11.0307136 4.9806143,9.94109979 5.87327654,9.19939401 C7.89873424,7.6124638 11.6570566,4.92204614 12.512353,5.27102138 C13.2821515,5.58477893 15.6215768,7.9464982 17.1071833,9.45765703 C17.9009951,10.3343639 18.1802358,11.5040179 17.9372526,12.6112406 L16.5528714,17.5769341 Z" id="Fill-8" fill="url(#linearGradient-4)"></path>
                                    <path d="M13.5317476,7.17262356 C13.5317476,7.17262356 14.5110674,11.1529755 14.7521993,11.0492704 C14.9933841,10.9460998 15.8950306,9.68239422 16.7420672,10.6114637 C17.7204857,11.6843306 16.4814773,13.9690504 16.4814773,13.9690504 C16.4814773,13.9690504 16.1251345,17.6671534 16.8576493,17.2095679 C17.5901642,16.7519825 22.3347568,9.53378586 17.864062,2.89719315 C17.864062,2.89719315 14.2828723,-1.18419109 10.7355619,0.341450121 C8.7886396,1.17910947 3.79075211,2.19858718 1.98107691,3.76242188 C0.171401709,5.32625658 -0.43242688,6.58674312 0.592860659,9.01846766 C1.61809518,11.4496576 4.48856096,12.1194644 5.7172306,11.9077777 C9.29857938,11.290358 12.821978,8.69719564 13.5317476,7.17262356 Z" id="Fill-9" fill="#A5A7BF"></path>
                                </g>
                            </g>
                        </g>
                    </g>
                    <g id="Group-Copy-24" opacity="0.733096168" transform="translate(59.202000, 5.382000)">
                        <g id="Group-Copy-6" opacity="0.784435454">
                            <mask id="mask-6" fill="white">
                                <use xlink:href="#path-5"></use>
                            </mask>
                            <use id="Mask" stroke="#DDDEEE" stroke-width="0.9493848" fill="#FFFFFF" xlink:href="#path-5"></use>
                            <g id="Group-Copy-2" mask="url(#mask-6)">
                                <g transform="translate(6.329232, 4.430462)">
                                    <path d="M3.20567192,61.8963422 C3.20567192,61.8963422 1.48843979,47.3198656 1.12087713,43.550819 C0.961463828,41.9164443 1.39510831,37.0768582 1.39510831,37.0768582 C2.08116185,35.7671158 1.95425789,38.0806558 3.32636497,38.6263373 L7.55711241,40.1539251 L6.41368984,61.8963422 C6.41368984,61.8963422 6.1372205,65.4745605 7.55711241,67.0245736 C10.286219,70.0038236 4.14111301,76.4111494 3.32636497,70.5161342 C3.08660154,68.781433 2.86261718,65.1053445 3.20567192,64.5597698 C3.54867072,64.1233314 3.20567192,61.8963422 3.20567192,61.8963422 Z" id="Fill-1" fill="#F6B690"></path>
                                    <path d="M23.3991559,58.4029181 C23.3991559,58.4029181 21.6819238,43.8264415 21.3143611,40.0573949 C21.1549478,38.4230201 21.5885923,33.583434 21.5885923,33.583434 C22.2746458,32.2736917 22.1477419,34.5872317 23.519849,35.1329131 L27.7505964,36.6605009 L26.6071738,58.4029181 C26.6071738,58.4029181 26.3307045,61.9811363 27.7505964,63.5311494 C30.479703,66.5103994 24.334597,72.9177252 23.519849,67.02271 C23.2800855,65.2880089 23.0561012,61.6119203 23.3991559,61.0663456 C23.7421547,60.6299072 23.3991559,58.4029181 23.3991559,58.4029181 Z" id="Fill-1-Copy" fill="#F6B690"></path>
                                    <path d="M26.2732426,106.331098 L21.2029427,106.331098 L12.5039034,71.4597729 L12.5536327,106.331098 L7.1353884,106.331098 C7.1353884,106.331098 -0.179053905,65.7876295 4.74211167,55.6764474 L22.9925013,55.6764474 C23.042177,55.7257907 23.7381194,63.1242063 26.2732426,106.331098 Z" id="Fill-2" fill="url(#linearGradient-3)"></path>
                                    <polygon id="Fill-3" fill="url(#linearGradient-4)" points="16.1723304 17.9037988 17.1536047 26.2006811 8.68536946 26.2006811 9.31643442 19.8190887"></polygon>
                                    <path d="M8.89188852,22.9283503 C8.89188852,22.9283503 10.0106608,24.8285654 13.2850144,24.4539691 C16.5593679,24.0793727 16.7579045,22.7194897 16.7513192,22.4894121 C23.9140727,22.8188785 28.1737183,28.2401272 29.5302562,38.7531582 L23.0417195,38.7531582 C23.6970459,47.924433 23.6970459,54.3661058 23.0417195,58.0781765 L3.89683205,58.0781765 L5.36618557,41.4592346 L1.17982146,38.7531582 C0.633704256,37.3341377 2.06216321,22.4368221 8.89188852,22.9283503 Z" id="Fill-4" fill="#DDDEEE"></path>
                                    <path d="M16.5528714,17.5769341 C16.2589062,18.5630293 14.6370306,19.7614978 13.6767616,20.1745052 C11.6362626,21.0512121 8.99701385,21.6840632 7.06871774,19.2892606 C5.30244558,17.1105666 4.75446686,14.1223994 4.58019876,12.1912964 C4.44656858,11.0307136 4.9806143,9.94109979 5.87327654,9.19939401 C7.89873424,7.6124638 11.6570566,4.92204614 12.512353,5.27102138 C13.2821515,5.58477893 15.6215768,7.9464982 17.1071833,9.45765703 C17.9009951,10.3343639 18.1802358,11.5040179 17.9372526,12.6112406 L16.5528714,17.5769341 Z" id="Fill-8" fill="url(#linearGradient-4)"></path>
                                    <path d="M13.5317476,7.17262356 C13.5317476,7.17262356 14.5110674,11.1529755 14.7521993,11.0492704 C14.9933841,10.9460998 15.8950306,9.68239422 16.7420672,10.6114637 C17.7204857,11.6843306 16.4814773,13.9690504 16.4814773,13.9690504 C16.4814773,13.9690504 16.1251345,17.6671534 16.8576493,17.2095679 C17.5901642,16.7519825 22.3347568,9.53378586 17.864062,2.89719315 C17.864062,2.89719315 14.2828723,-1.18419109 10.7355619,0.341450121 C8.7886396,1.17910947 3.79075211,2.19858718 1.98107691,3.76242188 C0.171401709,5.32625658 -0.43242688,6.58674312 0.592860659,9.01846766 C1.61809518,11.4496576 4.48856096,12.1194644 5.7172306,11.9077777 C9.29857938,11.290358 12.821978,8.69719564 13.5317476,7.17262356 Z" id="Fill-9" fill="#A5A7BF"></path>
                                </g>
                            </g>
                        </g>
                    </g>
                    <g id="Group-Copy-7" transform="translate(25.116000, 0.000000)">
                        <g id="Group-Copy-6">
                            <mask id="mask-8" fill="white">
                                <use xlink:href="#path-7"></use>
                            </mask>
                            <use id="Mask" stroke="#DDDEEE" stroke-width="1.186731" fill="#FFFFFF" xlink:href="#path-7"></use>
                            <g id="Group-Copy-2" mask="url(#mask-8)">
                                <g transform="translate(7.911540, 5.538078)">
                                    <path d="M4.0070899,77.3704278 C4.0070899,77.3704278 1.86054974,59.149832 1.40109642,54.4385238 C1.20182979,52.3955553 1.74388538,46.3460727 1.74388538,46.3460727 C2.60145231,44.7088948 2.44282236,47.6008198 4.15795622,48.2829216 L9.44639052,50.1924064 L8.0171123,77.3704278 C8.0171123,77.3704278 7.67152563,81.8432006 9.44639052,83.7807169 C12.8577737,87.5047795 5.17639126,95.5139367 4.15795622,88.1451677 C3.85825193,85.9767913 3.57827147,81.3816806 4.0070899,80.6997122 C4.4358384,80.1541642 4.0070899,77.3704278 4.0070899,77.3704278 Z" id="Fill-1" fill="#F6B690"></path>
                                    <path d="M29.2489449,73.0036476 C29.2489449,73.0036476 27.1024047,54.7830518 26.6429514,50.0717436 C26.4436848,48.0287751 26.9857404,41.9792925 26.9857404,41.9792925 C27.8433073,40.3421146 27.6846774,43.2340396 29.3998112,43.9161414 L34.6882455,45.8256262 L33.2589673,73.0036476 C33.2589673,73.0036476 32.9133806,77.4764204 34.6882455,79.4139367 C38.0996287,83.1379993 30.4182462,91.1471566 29.3998112,83.7783875 C29.1001069,81.6100111 28.8201265,77.0149004 29.2489449,76.3329321 C29.6776934,75.7873841 29.2489449,73.0036476 29.2489449,73.0036476 Z" id="Fill-1-Copy" fill="#F6B690"></path>
                                    <path d="M32.8415533,132.913872 L26.5036784,132.913872 L15.6298793,89.3247161 L15.6920409,132.913872 L8.9192355,132.913872 C8.9192355,132.913872 -0.223817382,82.2345369 5.92763959,69.5955593 L28.7406266,69.5955593 C28.8027213,69.6572384 29.6726493,78.9052578 32.8415533,132.913872 Z" id="Fill-2" fill="url(#linearGradient-3)"></path>
                                    <polygon id="Fill-3" fill="url(#linearGradient-4)" points="20.2154131 22.3797485 21.4420059 32.7508514 10.8567118 32.7508514 11.645543 24.7738609"></polygon>
                                    <path d="M11.1148606,28.6604379 C11.1148606,28.6604379 12.5133261,31.0357068 16.606268,30.5674613 C20.6992099,30.0992159 20.9473807,28.3993621 20.939149,28.1117652 C29.8925908,28.5235981 35.2171479,35.300159 36.9128202,48.4414478 L28.8021493,48.4414478 C29.6213073,59.9055413 29.6213073,67.9576322 28.8021493,72.5977206 L4.87104007,72.5977206 L6.70773196,51.8240432 L1.47477683,48.4414478 C0.79213032,46.6676721 2.57770402,28.0460276 11.1148606,28.6604379 Z" id="Fill-4" fill="#DDDEEE"></path>
                                    <path d="M20.6910893,21.9711676 C20.3236327,23.2037866 18.2962882,24.7018722 17.095952,25.2181314 C14.5453283,26.3140151 11.2462673,27.105079 8.83589718,24.1115758 C6.62805698,21.3882082 5.94308358,17.6529993 5.72524845,15.2391205 C5.55821073,13.788392 6.22576787,12.4263747 7.34159568,11.4992425 C9.8734178,9.51557975 14.5713207,6.15255767 15.6404413,6.58877672 C16.6026894,6.98097366 19.526971,9.93312275 21.3839792,11.8220713 C22.3762439,12.9179549 22.7252947,14.3800224 22.4215658,15.7640507 L20.6910893,21.9711676 Z" id="Fill-8" fill="url(#linearGradient-4)"></path>
                                    <path d="M16.9146845,8.96577944 C16.9146845,8.96577944 18.1388343,13.9412194 18.4402491,13.811588 C18.7417302,13.6826248 19.8687883,12.1029928 20.927584,13.2643297 C22.1506071,14.6054132 20.6018466,17.461313 20.6018466,17.461313 C20.6018466,17.461313 20.1564181,22.0839417 21.0720617,21.5119599 C21.9877053,20.9399781 27.918446,11.9172323 22.3300775,3.62149144 C22.3300775,3.62149144 17.8535904,-1.48023886 13.4194524,0.426812651 C10.9857995,1.47388683 4.73844014,2.74823398 2.47634614,4.70302735 C0.214252137,6.65782072 -0.5405336,8.2334289 0.741075824,11.2730846 C2.02261897,14.3120721 5.61070121,15.1493305 7.14653825,14.8847221 C11.6232242,14.1129475 16.0274726,10.8714945 16.9146845,8.96577944 Z" id="Fill-9" fill="#A5A7BF"></path>
                                </g>
                            </g>
                        </g>
                    </g>
                </g>
                <path d="M21.1508302,84.3235955 L16.0460089,79.3114061 C15.539533,78.8142091 14.7148403,78.8104089 14.2034788,79.3028556 C13.692443,79.7949856 13.6882088,80.5971513 14.1946847,81.0940316 L17.1081426,83.9546563 L1.29957977,83.9910752 C0.580090831,83.9929753 -0.00194934113,84.56111 4.90678727e-06,85.2606694 C0.00163344672,85.9595954 0.584325035,86.5245632 1.30283685,86.5245632 L1.30576823,86.5245632 L17.0947886,86.488461 L14.1946847,89.3361016 C13.6882088,89.8329819 13.692443,90.6351476 14.2034788,91.1272776 C14.457531,91.3720759 14.7891018,91.494 15.1203468,91.494 C15.455826,91.494 15.7913052,91.368909 16.0460089,91.1187271 L21.1508302,86.106221 C21.6537233,85.6125075 21.6537233,84.817309 21.1508302,84.3235955" id="Path-Copy-9" fill="#241DBA"></path>
                <path d="M114.43883,84.3235955 L109.334009,79.3114061 C108.827533,78.8142091 108.00284,78.8104089 107.491479,79.3028556 C106.980443,79.7949856 106.976209,80.5971513 107.482685,81.0940316 L110.396143,83.9546563 L94.5875798,83.9910752 C93.8680908,83.9929753 93.2860507,84.56111 93.2880049,85.2606694 C93.2896334,85.9595954 93.872325,86.5245632 94.5908369,86.5245632 L94.5937682,86.5245632 L110.382789,86.488461 L107.482685,89.3361016 C106.976209,89.8329819 106.980443,90.6351476 107.491479,91.1272776 C107.745531,91.3720759 108.077102,91.494 108.408347,91.494 C108.743826,91.494 109.079305,91.368909 109.334009,91.1187271 L114.43883,86.106221 C114.941723,85.6125075 114.941723,84.817309 114.43883,84.3235955" id="Path-Copy-10" fill="#241DBA"></path>
                <path d="M21.1508302,66.3835955 L16.0460089,61.3714061 C15.539533,60.8742091 14.7148403,60.8704089 14.2034788,61.3628556 C13.692443,61.8549856 13.6882088,62.6571513 14.1946847,63.1540316 L17.1081426,66.0146563 L1.29957977,66.0510752 C0.580090831,66.0529753 -0.00194934113,66.62111 4.90678727e-06,67.3206694 C0.00163344672,68.0195954 0.584325035,68.5845632 1.30283685,68.5845632 L1.30576823,68.5845632 L17.0947886,68.548461 L14.1946847,71.3961016 C13.6882088,71.8929819 13.692443,72.6951476 14.2034788,73.1872776 C14.457531,73.4320759 14.7891018,73.554 15.1203468,73.554 C15.455826,73.554 15.7913052,73.428909 16.0460089,73.1787271 L21.1508302,68.166221 C21.6537233,67.6725075 21.6537233,66.877309 21.1508302,66.3835955" id="Path-Copy-11" fill="#A5A7BF"></path>
                <path d="M114.43883,66.3835955 L109.334009,61.3714061 C108.827533,60.8742091 108.00284,60.8704089 107.491479,61.3628556 C106.980443,61.8549856 106.976209,62.6571513 107.482685,63.1540316 L110.396143,66.0146563 L94.5875798,66.0510752 C93.8680908,66.0529753 93.2860507,66.62111 93.2880049,67.3206694 C93.2896334,68.0195954 93.872325,68.5845632 94.5908369,68.5845632 L94.5937682,68.5845632 L110.382789,68.548461 L107.482685,71.3961016 C106.976209,71.8929819 106.980443,72.6951476 107.491479,73.1872776 C107.745531,73.4320759 108.077102,73.554 108.408347,73.554 C108.743826,73.554 109.079305,73.428909 109.334009,73.1787271 L114.43883,68.166221 C114.941723,67.6725075 114.941723,66.877309 114.43883,66.3835955" id="Path-Copy-12" fill="#A5A7BF"></path>
                <path d="M21.1508302,100.469596 L16.0460089,95.4574061 C15.539533,94.9602091 14.7148403,94.9564089 14.2034788,95.4488556 C13.692443,95.9409856 13.6882088,96.7431513 14.1946847,97.2400316 L17.1081426,100.100656 L1.29957977,100.137075 C0.580090831,100.138975 -0.00194934113,100.70711 4.90678727e-06,101.406669 C0.00163344672,102.105595 0.584325035,102.670563 1.30283685,102.670563 L1.30576823,102.670563 L17.0947886,102.634461 L14.1946847,105.482102 C13.6882088,105.978982 13.692443,106.781148 14.2034788,107.273278 C14.457531,107.518076 14.7891018,107.64 15.1203468,107.64 C15.455826,107.64 15.7913052,107.514909 16.0460089,107.264727 L21.1508302,102.252221 C21.6537233,101.758508 21.6537233,100.963309 21.1508302,100.469596" id="Path-Copy-13" fill="#A5A7BF"></path>
                <path d="M114.43883,100.469596 L109.334009,95.4574061 C108.827533,94.9602091 108.00284,94.9564089 107.491479,95.4488556 C106.980443,95.9409856 106.976209,96.7431513 107.482685,97.2400316 L110.396143,100.100656 L94.5875798,100.137075 C93.8680908,100.138975 93.2860507,100.70711 93.2880049,101.406669 C93.2896334,102.105595 93.872325,102.670563 94.5908369,102.670563 L94.5937682,102.670563 L110.382789,102.634461 L107.482685,105.482102 C106.976209,105.978982 106.980443,106.781148 107.491479,107.273278 C107.745531,107.518076 108.077102,107.64 108.408347,107.64 C108.743826,107.64 109.079305,107.514909 109.334009,107.264727 L114.43883,102.252221 C114.941723,101.758508 114.941723,100.963309 114.43883,100.469596" id="Path-Copy-14" fill="#A5A7BF"></path>
                <g id="Fill-537-Copy" transform="translate(30.498000, 53.820000)" fill="#DDDEEE">
                    <path d="M48.438,37.674 L43.056,37.674 L43.056,32.292 L48.438,32.292 L48.438,37.674 Z M48.438,48.438 L43.056,48.438 L43.056,43.056 L48.438,43.056 L48.438,48.438 Z M34.983,16.146 L29.601,16.146 L29.601,10.764 L34.983,10.764 L34.983,16.146 Z M34.983,26.91 L29.601,26.91 L29.601,21.528 L34.983,21.528 L34.983,26.91 Z M34.983,37.674 L29.601,37.674 L29.601,32.292 L34.983,32.292 L34.983,37.674 Z M24.219,16.146 L18.837,16.146 L18.837,10.764 L24.219,10.764 L24.219,16.146 Z M24.219,26.91 L18.837,26.91 L18.837,21.528 L24.219,21.528 L24.219,26.91 Z M24.219,37.674 L18.837,37.674 L18.837,32.292 L24.219,32.292 L24.219,37.674 Z M10.764,37.674 L5.382,37.674 L5.382,32.292 L10.764,32.292 L10.764,37.674 Z M10.764,48.438 L5.382,48.438 L5.382,43.056 L10.764,43.056 L10.764,48.438 Z M51.129,26.91 L40.365,26.91 L40.365,8.073 C40.365,6.590259 39.162123,5.382 37.674,5.382 L34.983,5.382 L34.983,2.691 C34.983,1.208259 33.780123,0 32.292,0 L21.528,0 C20.042568,0 18.837,1.208259 18.837,2.691 L18.837,5.382 L16.146,5.382 C14.660568,5.382 13.455,6.590259 13.455,8.073 L13.455,26.91 L2.691,26.91 C1.205568,26.91 0,28.118259 0,29.601 L0,51.129 C0,52.617123 1.205568,53.82 2.691,53.82 L21.528,53.82 L21.528,43.056 L32.292,43.056 L32.292,53.82 L51.129,53.82 C52.617123,53.82 53.82,52.617123 53.82,51.129 L53.82,29.601 C53.82,28.118259 52.617123,26.91 51.129,26.91 L51.129,26.91 Z" id="Fill-537"></path>
                </g>
            </g>
        </g>
    </g>
</svg>
