<?xml version="1.0" encoding="UTF-8"?>
<svg width="359px" height="373px" viewBox="0 0 359 373" version="1.1" xmlns="http://www.w3.org/2000/svg" xmlns:xlink="http://www.w3.org/1999/xlink">
    <title>Group 8</title>
    <defs>
        <linearGradient x1="0.220352717%" y1="70.3163002%" x2="97.0781829%" y2="29.5910494%" id="linearGradient-1">
            <stop stop-color="#000230" offset="0%"></stop>
            <stop stop-color="#49C6A7" offset="88.7570509%"></stop>
            <stop stop-color="#58EEBF" offset="100%"></stop>
        </linearGradient>
        <polygon id="path-2" points="0 0.06824664 27.3745811 0.06824664 27.3745811 27.4428 0 27.4428"></polygon>
    </defs>
    <g id="CAMBIOS-MAYO-2020" stroke="none" stroke-width="1" fill="none" fill-rule="evenodd">
        <g id="LANDING-GOSAFE-A" transform="translate(-154.000000, -11.000000)">
            <g id="Group-8" transform="translate(154.000000, 11.000000)">
                <g id="Group-Copy-17" transform="translate(0.000000, 74.000000)" fill-rule="nonzero">
                    <ellipse id="Oval" fill="#DDDEEE" style="mix-blend-mode: multiply;" cx="77.3420218" cy="287.241985" rx="77.3420218" ry="11.5538642"></ellipse>
                    <ellipse id="Oval" fill="#F2F2F2" cx="86.2304105" cy="84.5315224" rx="2.8520916" ry="2.84752377"></ellipse>
                    <polygon id="Path" fill="#DDDEEE" points="45.8044408 265.567398 46.4779544 271.621623 40.4144806 270.948726 40.4144806 263.549169"></polygon>
                    <polygon id="Path" fill="#DDDEEE" points="109.138325 265.567398 108.464348 271.621623 114.528285 270.948726 114.528285 263.549169"></polygon>
                    <path d="M45.1306171,135.06628 L42.4355537,204.352955 C42.4355537,204.352955 33.6766092,256.149792 35.6979044,257.495184 C37.7191996,258.840576 35.6979044,266.240105 35.6979044,266.240105 L47.1519123,267.585502 C47.1519123,267.585502 47.1519123,262.203989 49.8469757,260.185922 C52.5420391,258.167855 77.4713502,163.319111 77.4713502,163.319111 L103.07443,254.804456 C103.07443,254.804456 102.400666,260.185945 104.421961,260.185945 C106.443256,260.185945 107.117025,267.585502 107.117025,267.585502 L118.571033,267.585502 L118.571033,260.185945 C118.571033,260.185945 121.93986,259.513261 119.918564,254.131771 C117.897269,248.750282 110.485847,135.06628 110.485847,135.06628 L45.1306171,135.06628 Z" id="Path" fill="#155153"></path>
                    <path d="M41.7617901,265.567398 C41.7617901,265.567398 38.3929632,263.54934 37.0454315,264.894713 C35.6978998,266.240087 24.91766,279.693827 24.91766,279.693827 C24.91766,279.693827 10.0948066,289.111433 23.5701283,291.80218 C37.04545,294.492927 47.1518984,281.711885 47.8256759,280.366511 C48.4994533,279.021138 47.1519123,268.258159 46.4781488,269.603532 C45.8043852,270.948906 43.7830854,270.276221 43.1093218,269.603532 C42.4355583,268.930843 41.7617901,265.567398 41.7617901,265.567398 Z" id="Path" fill="#6C6C6C"></path>
                    <path d="M113.18091,265.567398 C113.18091,265.567398 116.549737,263.54934 117.897269,264.894713 C119.244801,266.240087 130.02504,279.693827 130.02504,279.693827 C130.02504,279.693827 144.847894,289.111433 131.372572,291.80218 C117.897251,294.492927 107.790802,281.711885 107.117025,280.366511 C106.443247,279.021138 107.790788,268.258159 108.464552,269.603532 C109.138315,270.948906 111.159615,270.276221 111.833379,269.603532 C112.507142,268.930843 113.18091,265.567398 113.18091,265.567398 Z" id="Path" fill="#6C6C6C"></path>
                    <ellipse id="Oval" fill="#FCE5C6" cx="85.8934176" cy="21.718658" rx="13.8121896" ry="13.7900684"></ellipse>
                    <polygon id="Path" fill="#FCE5C6" points="76.7976376 29.4544784 74.7761711 50.3078167 90.9465146 53.6713777 94.9894476 28.7820435"></polygon>
                    <path d="M93.6417168,45.5990163 C93.6417168,45.5990163 89.5991263,54.3439374 74.7762868,44.9263318 L47.1519308,135.06628 C47.1519308,135.06628 84.2090227,157.264923 107.790807,140.44777 L99.7056026,49.6351323 L93.6417168,45.5990163 Z" id="Path" fill="#FFFFFF"></path>
                    <path d="M77.4713502,35.5087032 L64.6698106,33.4906452 L63.3222743,42.2355848 C63.3222743,42.2355848 45.804376,44.2536428 43.7830807,50.9805058 L45.804376,100.759285 C45.804376,100.759285 39.7404903,111.522264 45.1306125,118.249127 C45.1306125,118.249127 36.3716633,136.411654 43.1093172,139.775085 C43.1093172,139.775085 58.6059156,132.375529 68.0386329,134.393596 C68.0386329,134.393596 73.4287551,133.048222 73.4287551,129.012106 C73.4287551,124.97599 77.4713502,35.5087032 77.4713502,35.5087032 Z" id="Path" fill="#FFFFFF"></path>
                    <path d="M92.9679533,36.8540952 L100.37938,38.8721532 L101.053144,48.2897587 C101.053144,48.2897587 119.244805,59.7254269 119.918574,66.45229 C120.592342,73.179153 106.443266,105.468086 106.443266,105.468086 C106.443266,105.468086 111.833388,114.885696 109.812093,120.93987 C109.812093,120.93987 118.571042,138.429712 113.18092,143.138517 C113.18092,143.138517 103.074439,145.829259 101.726912,141.793143 C100.379385,137.757027 88.2516039,91.3416796 93.6417261,69.1430324 C93.6417168,69.1430324 88.2515946,40.8902112 92.9679533,36.8540952 Z" id="Path" fill="#FFFFFF"></path>
                    <path d="M100.716253,58.7612662 L100.462655,58.7612662 L100.462655,51.8251256 C100.462657,50.7604233 100.039028,49.7393277 99.2849619,48.9864698 C98.5308955,48.233612 97.5081615,47.8106662 96.4417512,47.8106662 L81.7230493,47.8106662 C80.656639,47.8106662 79.633905,48.233612 78.8798386,48.9864698 C78.1257722,49.7393277 77.7021455,50.7604233 77.7021455,51.8251256 L77.7021455,89.8773429 C77.7021455,90.9420444 78.1257739,91.9631388 78.8798402,92.7159957 C79.6339065,93.4688525 80.6566398,93.8917977 81.7230493,93.8917977 L96.4417512,93.8917977 C97.5081607,93.8917977 98.530894,93.4688525 99.2849603,92.7159957 C100.039027,91.9631388 100.462656,90.9420444 100.462655,89.8773429 L100.462655,63.6985281 L100.716253,63.6985281 L100.716253,58.7612662 Z" id="Path" fill="#000230"></path>
                    <path d="M107.117025,85.9601901 C107.117025,85.9601901 101.726898,68.4703479 93.6417168,73.851819 C85.5565359,79.23329 99.031839,94.0324036 99.031839,94.0324036 L107.117025,85.9601901 Z" id="Path" fill="#FCE5C6"></path>
                    <path d="M70.0599328,73.1791484 C70.0599328,73.1791484 79.4926455,61.7434849 84.2090041,67.1249744 C88.9253628,72.5064639 76.1238185,84.6148165 76.1238185,84.6148165 L70.0599328,73.1791484 Z" id="Path" fill="#FCE5C6"></path>
                    <path d="M45.8043806,50.3078167 C45.8043806,50.3078167 42.4355537,49.6351277 40.4142584,55.6893063 C38.3929632,61.7434849 30.9815457,84.6148119 30.9815457,88.6509279 C30.9815457,92.6870439 33.6766092,108.831512 48.499444,106.14077 C63.3222789,103.450028 80.8401772,84.6148119 80.8401772,84.6148119 L71.4074645,70.4884013 L51.1945028,82.5967539 L45.8043806,50.3078167 Z" id="Path" fill="#FFFFFF"></path>
                    <polygon id="Path" fill="#000000" opacity="0.1" points="48.7155933 67.7472193 51.5313892 82.2602592 72.4181793 70.1522717 52.8788793 77.5518285 48.5711698 66.8811417"></polygon>
                    <polygon id="Path" fill="#000000" opacity="0.1" points="108.127823 82.2602592 110.822803 84.2784882 112.170293 74.8607024"></polygon>
                    <path d="M45.4674989,107.82249 C45.4674989,107.82249 65.2578319,102.447254 74.5649748,90.6721193 C74.5649748,90.6721193 65.0066924,106.477117 45.4674989,107.82249 Z" id="Path" fill="#000000" opacity="0.1"></path>
                    <path d="M95.3261303,95.7141378 C95.3261303,95.7141378 99.4934296,116.076423 110.211322,116.658257 C110.211322,116.658257 97.3474394,120.603527 95.3261303,95.7141378 Z" id="Path" fill="#000000" opacity="0.1"></path>
                    <path d="M117.223501,63.7615429 C117.223501,63.7615429 119.244796,65.1069164 120.592328,71.1610996 C121.93986,77.2152829 130.698809,100.086605 127.329982,105.468095 C123.961155,110.849584 118.571033,122.957937 107.117025,114.885705 L95.6630121,94.0324313 L107.117025,83.2694522 L111.833379,86.6328838 L117.223501,63.7615429 Z" id="Path" fill="#FFFFFF"></path>
                    <path d="M72.6336805,25.216142 C72.6336805,25.216142 61.0497099,6.47217417 73.3882008,5.49728684 C77.5057092,5.20975707 81.5262877,4.11599441 85.2207465,2.27834794 C89.3106681,0.200468652 94.4589179,-1.37892147 97.198549,1.81971036 C98.3941054,3.28231525 99.7879334,4.57148656 101.339838,5.65004741 C103.746402,7.24349628 106.530892,9.82663529 104.989013,12.5975754 L102.461254,17.1402498 L98.9223688,26.2256078 C99.7464809,22.3068421 99.7672094,19.016565 97.6584824,17.3926185 C97.6584824,17.3926185 85.8934176,22.3913285 79.9642485,13.3546863 C73.3269365,8.38269342 71.2152516,24.0323193 72.6336805,25.216142 Z" id="Path" fill="#000230"></path>
                </g>
                <g id="Group-2" transform="translate(191.000000, 0.000000)">
                    <path d="M168,79.8461471 L166.14876,79.8461471 L166.14876,29.2713369 C166.148771,13.1052359 153.007464,0 136.796828,0 L29.3520247,0 C21.5674002,0 14.1016061,3.08389729 8.59703314,8.57332362 C3.09246019,14.06275 0,21.5080201 0,29.2712584 L0,306.728663 C0,314.4919 3.09242028,321.937177 8.5969772,327.426618 C14.1015341,332.916059 21.567318,336 29.3519414,336 L136.796689,336 C153.00732,336 166.148666,322.894861 166.148714,306.728765 L166.148714,115.846159 L168,115.846159 L168,79.8461471 Z" id="Path-Copy-4" fill="#000230" fill-rule="nonzero"></path>
                    <path d="M123.797632,4.2 C125.102196,7.386657 124.729027,11.0112306 122.8023,13.8676328 C120.875573,16.7240349 117.648118,18.4374416 114.193897,18.4377026 L52.8841426,18.4377026 C49.4299138,18.4374516 46.2024484,16.7240439 44.2757195,13.8676339 C42.3489907,11.0112238 41.9758305,7.38663971 43.280412,4.2 L30.2328538,4.2 C18.1749164,4.2 8.4,13.9389282 8.4,25.9525285 L8.4,301.647426 C8.4,307.416563 10.7002318,312.949414 14.794681,317.028813 C18.8891301,321.108212 24.4423969,323.4 30.2328261,323.4 L137.767146,323.4 C143.557575,323.4 149.110845,321.108226 153.205299,317.028832 C157.299754,312.949438 159.6,307.416591 159.6,301.647453 L159.6,25.9525285 C159.6,20.1833956 157.299746,14.6505547 153.205292,10.5711678 C149.110837,6.49178079 143.557571,4.2 137.767146,4.2 L123.797632,4.2 Z" id="Path-Copy-8" fill="#FFFFFF" fill-rule="nonzero"></path>
                    <rect id="Rectangle" fill="url(#linearGradient-1)" x="8.4" y="96.6" width="151.2" height="96.6"></rect>
                    <path d="M27.0542999,169.2 L27.0542999,165.042 L29.0387999,165.042 C31.6469999,165.042 33.6692999,163.0197 33.6692999,160.506 C33.6692999,157.9923 31.6469999,155.97 29.0387999,155.97 L24.0302999,155.97 L24.0302999,169.2 L27.0542999,169.2 Z M29.0387999,162.207 L27.0542999,162.207 L27.0542999,158.805 L29.0387999,158.805 C29.9648999,158.805 30.6452999,159.5421 30.6452999,160.506 C30.6452999,161.4699 29.9648999,162.207 29.0387999,162.207 Z M38.1107999,169.2 L38.1107999,164.9286 C38.1107999,163.0575 39.7739999,162.585 40.9457999,162.774 L40.9457999,159.561 C39.7550999,159.561 38.4887999,160.1658 38.1107999,161.4321 L38.1107999,159.75 L35.2757999,159.75 L35.2757999,169.2 L38.1107999,169.2 Z M47.1260999,169.4646 C48.9215999,169.4646 50.3201999,168.8031 51.2462999,167.5179 L48.9782999,166.2138 C48.6002999,166.6296 47.9387999,166.932 47.1638999,166.932 C46.1243999,166.932 45.2549999,166.5918 44.8958999,165.609 L51.6053999,165.609 C51.6809999,165.2499 51.7187999,164.8719 51.7187999,164.475 C51.7187999,161.6211 49.6775999,159.4854 46.9181999,159.4854 C43.9319999,159.4854 41.8907999,161.6589 41.8907999,164.475 C41.8907999,167.2911 43.8941999,169.4646 47.1260999,169.4646 Z M48.9026999,163.4922 L44.8391999,163.4922 C45.1037999,162.5283 45.8219999,161.9991 46.8992999,161.9991 C47.7497999,161.9991 48.6002999,162.396 48.9026999,163.4922 Z M60.9798,164.9097 L60.9798,162.1881 L53.7978,162.1881 L53.7978,164.9097 L60.9798,164.9097 Z M68.0673,169.4646 C69.9195,169.4646 71.526,168.5007 72.3387,167.0265 L69.8628,165.609 C69.5604,166.2705 68.8611,166.6674 68.0295,166.6674 C66.801,166.6674 65.8938,165.7791 65.8938,164.475 C65.8938,163.1709 66.801,162.2826 68.0295,162.2826 C68.8611,162.2826 69.5415,162.6795 69.8628,163.341 L72.3387,161.9046 C71.526,160.4493 69.9006,159.4854 68.0673,159.4854 C65.1945,159.4854 63.0588,161.6589 63.0588,164.475 C63.0588,167.2911 65.1945,169.4646 68.0673,169.4646 Z M76.6857,169.2 L76.6857,164.0403 C76.6857,162.6984 77.4039,162.0936 78.4434,162.0936 C79.3506,162.0936 80.0877,162.6417 80.0877,163.8135 L80.0877,169.2 L82.9227,169.2 L82.9227,163.3977 C82.9227,160.8462 81.2973,159.4854 79.3884,159.4854 C78.141,159.4854 77.196,159.939 76.6857,160.6383 L76.6857,155.97 L73.8507,155.97 L73.8507,169.2 L76.6857,169.2 Z M90.0102,169.4646 C91.8057,169.4646 93.2043,168.8031 94.1304,167.5179 L91.8624,166.2138 C91.4844,166.6296 90.8229,166.932 90.048,166.932 C89.0085,166.932 88.1391,166.5918 87.78,165.609 L94.4895,165.609 C94.5651,165.2499 94.6029,164.8719 94.6029,164.475 C94.6029,161.6211 92.5617,159.4854 89.8023,159.4854 C86.8161,159.4854 84.7749,161.6589 84.7749,164.475 C84.7749,167.2911 86.7783,169.4646 90.0102,169.4646 Z M91.7868,163.4922 L87.7233,163.4922 C87.9879,162.5283 88.7061,161.9991 89.7834,161.9991 C90.6339,161.9991 91.4844,162.396 91.7868,163.4922 Z M101.0289,169.4646 C102.8811,169.4646 104.4876,168.5007 105.3003,167.0265 L102.8244,165.609 C102.522,166.2705 101.8227,166.6674 100.9911,166.6674 C99.7626,166.6674 98.8554,165.7791 98.8554,164.475 C98.8554,163.1709 99.7626,162.2826 100.9911,162.2826 C101.8227,162.2826 102.5031,162.6795 102.8244,163.341 L105.3003,161.9046 C104.4876,160.4493 102.8622,159.4854 101.0289,159.4854 C98.1561,159.4854 96.0204,161.6589 96.0204,164.475 C96.0204,167.2911 98.1561,169.4646 101.0289,169.4646 Z M109.6473,169.2 L109.6473,165.0231 L112.6713,169.2 L115.8843,169.2 L112.35,164.475 L115.7898,159.75 L112.4823,159.75 L109.6473,163.8891 L109.6473,155.97 L106.8123,155.97 L106.8123,169.2 L109.6473,169.2 Z M118.7193,158.9184 C119.6454,158.9184 120.4203,158.1435 120.4203,157.2174 C120.4203,156.2913 119.6454,155.5164 118.7193,155.5164 C117.7932,155.5164 117.0183,156.2913 117.0183,157.2174 C117.0183,158.1435 117.7932,158.9184 118.7193,158.9184 Z M120.1368,169.2 L120.1368,159.75 L117.3018,159.75 L117.3018,169.2 L120.1368,169.2 Z M125.4288,169.2 L125.4288,164.0403 C125.4288,162.6984 126.147,162.0936 127.1865,162.0936 C128.0937,162.0936 128.8308,162.6417 128.8308,163.8135 L128.8308,169.2 L131.6658,169.2 L131.6658,163.3977 C131.6658,160.8462 130.0404,159.4854 128.1315,159.4854 C126.8841,159.4854 125.9391,159.939 125.4288,160.6383 L125.4288,159.75 L122.5938,159.75 L122.5938,169.2 L125.4288,169.2 Z M138.6966,173.2446 C141.2103,173.2446 143.6862,171.9027 143.6862,168.7275 L143.6862,159.75 L140.9268,159.75 L140.9268,160.7139 C140.3031,159.939 139.3959,159.4854 138.1674,159.4854 C135.4836,159.4854 133.518,161.6778 133.518,164.286 C133.518,166.8942 135.4836,169.0866 138.1674,169.0866 C139.3959,169.0866 140.3031,168.633 140.9268,167.8581 L140.9268,168.7275 C140.9268,170.0694 140.1141,170.7498 138.7911,170.7498 C137.5437,170.7498 136.9956,170.2206 136.6365,169.5591 L134.2173,170.9577 C135.0867,172.5075 136.731,173.2446 138.6966,173.2446 Z M138.6399,166.4784 C137.298,166.4784 136.353,165.5901 136.353,164.286 C136.353,162.9819 137.298,162.0936 138.6399,162.0936 C139.9818,162.0936 140.9268,162.9819 140.9268,164.286 C140.9268,165.5901 139.9818,166.4784 138.6399,166.4784 Z" id="Pre-checking" fill="#FFFFFF" fill-rule="nonzero"></path>
                    <path d="M31.6469999,232.2 L32.3084999,230.121 L37.2224999,230.121 L37.8839999,232.2 L41.1914999,232.2 L36.6932999,218.97 L32.8376999,218.97 L28.3394999,232.2 L31.6469999,232.2 Z M36.3152999,227.286 L33.2156999,227.286 L34.7654999,222.4287 L36.3152999,227.286 Z M45.4439999,235.98 L45.4439999,231.3117 C46.0676999,232.0299 46.9937999,232.4646 48.2600999,232.4646 C50.7359999,232.4646 52.7771999,230.2911 52.7771999,227.475 C52.7771999,224.6589 50.7359999,222.4854 48.2600999,222.4854 C46.9937999,222.4854 46.0676999,222.9201 45.4439999,223.6383 L45.4439999,222.75 L42.6089999,222.75 L42.6089999,235.98 L45.4439999,235.98 Z M47.6930999,229.7808 C46.3889999,229.7808 45.4439999,228.8925 45.4439999,227.475 C45.4439999,226.0575 46.3889999,225.1692 47.6930999,225.1692 C48.9971999,225.1692 49.9421999,226.0575 49.9421999,227.475 C49.9421999,228.8925 48.9971999,229.7808 47.6930999,229.7808 Z M59.5244999,232.4646 C61.3199999,232.4646 62.7185999,231.8031 63.6446999,230.5179 L61.3766999,229.2138 C60.9986999,229.6296 60.3371999,229.932 59.5622999,229.932 C58.5227999,229.932 57.6533999,229.5918 57.2942999,228.609 L64.0037999,228.609 C64.0793999,228.2499 64.1171999,227.8719 64.1171999,227.475 C64.1171999,224.6211 62.0759999,222.4854 59.3165999,222.4854 C56.3303999,222.4854 54.2891999,224.6589 54.2891999,227.475 C54.2891999,230.2911 56.2925999,232.4646 59.5244999,232.4646 Z M61.3010999,226.4922 L57.2375999,226.4922 C57.5021999,225.5283 58.2203999,224.9991 59.2976999,224.9991 C60.1481999,224.9991 60.9986999,225.396 61.3010999,226.4922 Z M68.9367,232.2 L68.9367,227.9286 C68.9367,226.0575 70.5999,225.585 71.7717,225.774 L71.7717,222.561 C70.581,222.561 69.3147,223.1658 68.9367,224.4321 L68.9367,222.75 L66.1017,222.75 L66.1017,232.2 L68.9367,232.2 Z M79.2939,232.2 L79.2939,229.6296 C78.0465,229.7052 77.3472,229.6296 77.3472,228.8169 L77.3472,225.4716 L79.2939,225.4716 L79.2939,222.75 L77.3472,222.75 L77.3472,220.104 L74.5122,220.9545 L74.5122,222.75 L73.0002,222.75 L73.0002,225.4716 L74.5122,225.4716 L74.5122,228.8169 C74.5122,231.4629 75.5895,232.578 79.2939,232.2 Z M84.8694,232.4646 C86.1168,232.4646 87.0618,232.011 87.5721,231.3117 L87.5721,232.2 L90.4071,232.2 L90.4071,222.75 L87.5721,222.75 L87.5721,227.9097 C87.5721,229.2516 86.8539,229.8564 85.8144,229.8564 C84.9072,229.8564 84.1701,229.3083 84.1701,228.1365 L84.1701,222.75 L81.3351,222.75 L81.3351,228.5523 C81.3351,231.1038 82.9605,232.4646 84.8694,232.4646 Z M95.6991,232.2 L95.6991,227.9286 C95.6991,226.0575 97.3623,225.585 98.5341,225.774 L98.5341,222.561 C97.3434,222.561 96.0771,223.1658 95.6991,224.4321 L95.6991,222.75 L92.8641,222.75 L92.8641,232.2 L95.6991,232.2 Z M103.9962,232.4646 C105.2625,232.4646 106.1886,232.0299 106.8123,231.3117 L106.8123,232.2 L109.6473,232.2 L109.6473,222.75 L106.8123,222.75 L106.8123,223.6383 C106.1886,222.9201 105.2625,222.4854 103.9962,222.4854 C101.5203,222.4854 99.4791,224.6589 99.4791,227.475 C99.4791,230.2911 101.5203,232.4646 103.9962,232.4646 Z M104.5632,229.7808 C103.2591,229.7808 102.3141,228.8925 102.3141,227.475 C102.3141,226.0575 103.2591,225.1692 104.5632,225.1692 C105.8673,225.1692 106.8123,226.0575 106.8123,227.475 C106.8123,228.8925 105.8673,229.7808 104.5632,229.7808 Z M121.2519,232.4646 C122.5182,232.4646 123.4443,232.0299 124.068,231.3117 L124.068,232.2 L126.903,232.2 L126.903,218.97 L124.068,218.97 L124.068,223.6383 C123.4443,222.9201 122.5182,222.4854 121.2519,222.4854 C118.776,222.4854 116.7348,224.6589 116.7348,227.475 C116.7348,230.2911 118.776,232.4646 121.2519,232.4646 Z M121.8189,229.7808 C120.5148,229.7808 119.5698,228.8925 119.5698,227.475 C119.5698,226.0575 120.5148,225.1692 121.8189,225.1692 C123.123,225.1692 124.068,226.0575 124.068,227.475 C124.068,228.8925 123.123,229.7808 121.8189,229.7808 Z M134.1228,232.4646 C135.9183,232.4646 137.3169,231.8031 138.243,230.5179 L135.975,229.2138 C135.597,229.6296 134.9355,229.932 134.1606,229.932 C133.1211,229.932 132.2517,229.5918 131.8926,228.609 L138.6021,228.609 C138.6777,228.2499 138.7155,227.8719 138.7155,227.475 C138.7155,224.6211 136.6743,222.4854 133.9149,222.4854 C130.9287,222.4854 128.8875,224.6589 128.8875,227.475 C128.8875,230.2911 130.8909,232.4646 134.1228,232.4646 Z M135.8994,226.4922 L131.8359,226.4922 C132.1005,225.5283 132.8187,224.9991 133.896,224.9991 C134.7465,224.9991 135.597,225.396 135.8994,226.4922 Z M52.2952499,258.98 L52.2952499,254.3117 C52.9189499,255.0299 53.8450499,255.4646 55.1113499,255.4646 C57.5872499,255.4646 59.6284499,253.2911 59.6284499,250.475 C59.6284499,247.6589 57.5872499,245.4854 55.1113499,245.4854 C53.8450499,245.4854 52.9189499,245.9201 52.2952499,246.6383 L52.2952499,245.75 L49.4602499,245.75 L49.4602499,258.98 L52.2952499,258.98 Z M54.5443499,252.7808 C53.2402499,252.7808 52.2952499,251.8925 52.2952499,250.475 C52.2952499,249.0575 53.2402499,248.1692 54.5443499,248.1692 C55.8484499,248.1692 56.7934499,249.0575 56.7934499,250.475 C56.7934499,251.8925 55.8484499,252.7808 54.5443499,252.7808 Z M65.01495,255.4646 C66.26235,255.4646 67.20735,255.011 67.71765,254.3117 L67.71765,255.2 L70.55265,255.2 L70.55265,245.75 L67.71765,245.75 L67.71765,250.9097 C67.71765,252.2516 66.99945,252.8564 65.95995,252.8564 C65.05275,252.8564 64.31565,252.3083 64.31565,251.1365 L64.31565,245.75 L61.48065,245.75 L61.48065,251.5523 C61.48065,254.1038 63.10605,255.4646 65.01495,255.4646 Z M77.77245,255.4646 C79.56795,255.4646 80.96655,254.8031 81.89265,253.5179 L79.62465,252.2138 C79.24665,252.6296 78.58515,252.932 77.81025,252.932 C76.77075,252.932 75.90135,252.5918 75.54225,251.609 L82.25175,251.609 C82.32735,251.2499 82.36515,250.8719 82.36515,250.475 C82.36515,247.6211 80.32395,245.4854 77.56455,245.4854 C74.57835,245.4854 72.53715,247.6589 72.53715,250.475 C72.53715,253.2911 74.54055,255.4646 77.77245,255.4646 Z M79.54905,249.4922 L75.48555,249.4922 C75.75015,248.5283 76.46835,247.9991 77.54565,247.9991 C78.39615,247.9991 79.24665,248.396 79.54905,249.4922 Z M87.18465,255.2 L87.18465,250.9286 C87.18465,249.0575 88.84785,248.585 90.01965,248.774 L90.01965,245.561 C88.82895,245.561 87.56265,246.1658 87.18465,247.4321 L87.18465,245.75 L84.34965,245.75 L84.34965,255.2 L87.18465,255.2 Z M97.54185,255.2 L97.54185,252.6296 C96.29445,252.7052 95.59515,252.6296 95.59515,251.8169 L95.59515,248.4716 L97.54185,248.4716 L97.54185,245.75 L95.59515,245.75 L95.59515,243.104 L92.76015,243.9545 L92.76015,245.75 L91.24815,245.75 L91.24815,248.4716 L92.76015,248.4716 L92.76015,251.8169 C92.76015,254.4629 93.83745,255.578 97.54185,255.2 Z M103.38195,255.4646 C104.64825,255.4646 105.57435,255.0299 106.19805,254.3117 L106.19805,255.2 L109.03305,255.2 L109.03305,245.75 L106.19805,245.75 L106.19805,246.6383 C105.57435,245.9201 104.64825,245.4854 103.38195,245.4854 C100.90605,245.4854 98.86485,247.6589 98.86485,250.475 C98.86485,253.2911 100.90605,255.4646 103.38195,255.4646 Z M103.94895,252.7808 C102.64485,252.7808 101.69985,251.8925 101.69985,250.475 C101.69985,249.0575 102.64485,248.1692 103.94895,248.1692 C105.25305,248.1692 106.19805,249.0575 106.19805,250.475 C106.19805,251.8925 105.25305,252.7808 103.94895,252.7808 Z M114.79755,255.4646 C116.83875,255.4646 118.72875,254.5385 118.72875,252.365 C118.72875,248.8685 114.07935,249.5867 114.07935,248.5094 C114.07935,248.1692 114.38175,247.9802 114.87315,247.9802 C115.49685,247.9802 115.87485,248.3204 116.13945,248.8118 L118.55865,247.5077 C117.76485,246.1658 116.40405,245.4854 114.87315,245.4854 C112.90755,245.4854 111.16875,246.5249 111.16875,248.585 C111.16875,251.8547 115.81815,251.3066 115.81815,252.3461 C115.81815,252.7241 115.47795,252.932 114.79755,252.932 C113.96595,252.932 113.43675,252.5351 113.19105,251.8169 L110.73405,253.2155 C111.47115,254.7464 112.90755,255.4646 114.79755,255.4646 Z" id="Aperturadepuertas" fill="#000067" fill-rule="nonzero"></path>
                    <path d="M47.4379499,307.8 L47.4379499,304.8894 L42.1459499,304.8894 L42.1459499,302.5458 L46.8709499,302.5458 L46.8709499,299.673 L42.1459499,299.673 L42.1459499,297.4806 L47.3434499,297.4806 L47.3434499,294.57 L39.1219499,294.57 L39.1219499,307.8 L47.4379499,307.8 Z M52.2574499,307.8 L52.2574499,302.6403 C52.2574499,301.2984 52.9756499,300.6936 54.0151499,300.6936 C54.9223499,300.6936 55.6594499,301.2417 55.6594499,302.4135 L55.6594499,307.8 L58.4944499,307.8 L58.4944499,301.9977 C58.4944499,299.4462 56.8690499,298.0854 54.9601499,298.0854 C53.7127499,298.0854 52.7677499,298.539 52.2574499,299.2383 L52.2574499,298.35 L49.4224499,298.35 L49.4224499,307.8 L52.2574499,307.8 Z M65.35515,308.0646 C67.20735,308.0646 68.81385,307.1007 69.62655,305.6265 L67.15065,304.209 C66.84825,304.8705 66.14895,305.2674 65.31735,305.2674 C64.08885,305.2674 63.18165,304.3791 63.18165,303.075 C63.18165,301.7709 64.08885,300.8826 65.31735,300.8826 C66.14895,300.8826 66.82935,301.2795 67.15065,301.941 L69.62655,300.5046 C68.81385,299.0493 67.18845,298.0854 65.35515,298.0854 C62.48235,298.0854 60.34665,300.2589 60.34665,303.075 C60.34665,305.8911 62.48235,308.0646 65.35515,308.0646 Z M74.63505,308.0646 C75.88245,308.0646 76.82745,307.611 77.33775,306.9117 L77.33775,307.8 L80.17275,307.8 L80.17275,298.35 L77.33775,298.35 L77.33775,303.5097 C77.33775,304.8516 76.61955,305.4564 75.58005,305.4564 C74.67285,305.4564 73.93575,304.9083 73.93575,303.7365 L73.93575,298.35 L71.10075,298.35 L71.10075,304.1523 C71.10075,306.7038 72.72615,308.0646 74.63505,308.0646 Z M87.39255,308.0646 C89.18805,308.0646 90.58665,307.4031 91.51275,306.1179 L89.24475,304.8138 C88.86675,305.2296 88.20525,305.532 87.43035,305.532 C86.39085,305.532 85.52145,305.1918 85.16235,304.209 L91.87185,304.209 C91.94745,303.8499 91.98525,303.4719 91.98525,303.075 C91.98525,300.2211 89.94405,298.0854 87.18465,298.0854 C84.19845,298.0854 82.15725,300.2589 82.15725,303.075 C82.15725,305.8911 84.16065,308.0646 87.39255,308.0646 Z M89.16915,302.0922 L85.10565,302.0922 C85.37025,301.1283 86.08845,300.5991 87.16575,300.5991 C88.01625,300.5991 88.86675,300.996 89.16915,302.0922 Z M96.99375,308.0646 C99.03495,308.0646 100.92495,307.1385 100.92495,304.965 C100.92495,301.4685 96.27555,302.1867 96.27555,301.1094 C96.27555,300.7692 96.57795,300.5802 97.06935,300.5802 C97.69305,300.5802 98.07105,300.9204 98.33565,301.4118 L100.75485,300.1077 C99.96105,298.7658 98.60025,298.0854 97.06935,298.0854 C95.10375,298.0854 93.36495,299.1249 93.36495,301.185 C93.36495,304.4547 98.01435,303.9066 98.01435,304.9461 C98.01435,305.3241 97.67415,305.532 96.99375,305.532 C96.16215,305.532 95.63295,305.1351 95.38725,304.4169 L92.93025,305.8155 C93.66735,307.3464 95.10375,308.0646 96.99375,308.0646 Z M107.97465,307.8 L107.97465,305.2296 C106.72725,305.3052 106.02795,305.2296 106.02795,304.4169 L106.02795,301.0716 L107.97465,301.0716 L107.97465,298.35 L106.02795,298.35 L106.02795,295.704 L103.19295,296.5545 L103.19295,298.35 L101.68095,298.35 L101.68095,301.0716 L103.19295,301.0716 L103.19295,304.4169 C103.19295,307.0629 104.27025,308.178 107.97465,307.8 Z M113.81475,308.0646 C115.08105,308.0646 116.00715,307.6299 116.63085,306.9117 L116.63085,307.8 L119.46585,307.8 L119.46585,298.35 L116.63085,298.35 L116.63085,299.2383 C116.00715,298.5201 115.08105,298.0854 113.81475,298.0854 C111.33885,298.0854 109.29765,300.2589 109.29765,303.075 C109.29765,305.8911 111.33885,308.0646 113.81475,308.0646 Z M114.38175,305.3808 C113.07765,305.3808 112.13265,304.4925 112.13265,303.075 C112.13265,301.6575 113.07765,300.7692 114.38175,300.7692 C115.68585,300.7692 116.63085,301.6575 116.63085,303.075 C116.63085,304.4925 115.68585,305.3808 114.38175,305.3808 Z M125.23035,308.0646 C127.27155,308.0646 129.16155,307.1385 129.16155,304.965 C129.16155,301.4685 124.51215,302.1867 124.51215,301.1094 C124.51215,300.7692 124.81455,300.5802 125.30595,300.5802 C125.92965,300.5802 126.30765,300.9204 126.57225,301.4118 L128.99145,300.1077 C128.19765,298.7658 126.83685,298.0854 125.30595,298.0854 C123.34035,298.0854 121.60155,299.1249 121.60155,301.185 C121.60155,304.4547 126.25095,303.9066 126.25095,304.9461 C126.25095,305.3241 125.91075,305.532 125.23035,305.532 C124.39875,305.532 123.86955,305.1351 123.62385,304.4169 L121.16685,305.8155 C121.90395,307.3464 123.34035,308.0646 125.23035,308.0646 Z" id="Encuestas" fill="#000067" fill-rule="nonzero"></path>
                    <path d="M27.5173499,68.4 L27.5173499,64.053 L28.9537499,64.053 L31.4485499,68.4 L34.6993499,68.4 L31.8832499,63.5427 C33.3385499,62.8056 34.3213499,61.3314 34.3213499,59.706 C34.3213499,57.1923 32.2990499,55.17 29.7853499,55.17 L24.4933499,55.17 L24.4933499,68.4 L27.5173499,68.4 Z M29.7853499,61.407 L27.5173499,61.407 L27.5173499,58.005 L29.7853499,58.005 C30.6169499,58.005 31.2973499,58.7421 31.2973499,59.706 C31.2973499,60.6699 30.6169499,61.407 29.7853499,61.407 Z M40.4638499,68.6646 C43.2421499,68.6646 45.4723499,66.4911 45.4723499,63.675 C45.4723499,60.8589 43.2421499,58.6854 40.4638499,58.6854 C37.6855499,58.6854 35.4553499,60.8589 35.4553499,63.675 C35.4553499,66.4911 37.6855499,68.6646 40.4638499,68.6646 Z M40.4638499,65.9052 C39.2353499,65.9052 38.2903499,65.0169 38.2903499,63.675 C38.2903499,62.3331 39.2353499,61.4448 40.4638499,61.4448 C41.6923499,61.4448 42.6373499,62.3331 42.6373499,63.675 C42.6373499,65.0169 41.6923499,65.9052 40.4638499,65.9052 Z M51.9928499,68.6646 C54.7711499,68.6646 57.0013499,66.4911 57.0013499,63.675 C57.0013499,60.8589 54.7711499,58.6854 51.9928499,58.6854 C49.2145499,58.6854 46.9843499,60.8589 46.9843499,63.675 C46.9843499,66.4911 49.2145499,68.6646 51.9928499,68.6646 Z M51.9928499,65.9052 C50.7643499,65.9052 49.8193499,65.0169 49.8193499,63.675 C49.8193499,62.3331 50.7643499,61.4448 51.9928499,61.4448 C53.2213499,61.4448 54.1663499,62.3331 54.1663499,63.675 C54.1663499,65.0169 53.2213499,65.9052 51.9928499,65.9052 Z M61.82085,68.4 L61.82085,63.0702 C61.82085,61.9551 62.35005,61.2936 63.29505,61.2936 C64.20225,61.2936 64.65585,61.8984 64.65585,62.8434 L64.65585,68.4 L67.49085,68.4 L67.49085,63.0702 C67.49085,61.9551 68.02005,61.2936 68.96505,61.2936 C69.87225,61.2936 70.32585,61.8984 70.32585,62.8434 L70.32585,68.4 L73.16085,68.4 L73.16085,62.5977 C73.16085,60.2352 71.74335,58.6854 69.56985,58.6854 C68.22795,58.6854 67.35855,59.1768 66.82935,59.9328 C66.30015,59.139 65.46855,58.6854 64.35345,58.6854 C63.08715,58.6854 62.25555,59.1768 61.82085,59.8194 L61.82085,58.95 L58.98585,58.95 L58.98585,68.4 L61.82085,68.4 Z M83.99055,68.6646 C86.03175,68.6646 87.92175,67.7385 87.92175,65.565 C87.92175,62.0685 83.27235,62.7867 83.27235,61.7094 C83.27235,61.3692 83.57475,61.1802 84.06615,61.1802 C84.68985,61.1802 85.06785,61.5204 85.33245,62.0118 L87.75165,60.7077 C86.95785,59.3658 85.59705,58.6854 84.06615,58.6854 C82.10055,58.6854 80.36175,59.7249 80.36175,61.785 C80.36175,65.0547 85.01115,64.5066 85.01115,65.5461 C85.01115,65.9241 84.67095,66.132 83.99055,66.132 C83.15895,66.132 82.62975,65.7351 82.38405,65.0169 L79.92705,66.4155 C80.66415,67.9464 82.10055,68.6646 83.99055,68.6646 Z M94.38555,68.6646 C96.18105,68.6646 97.57965,68.0031 98.50575,66.7179 L96.23775,65.4138 C95.85975,65.8296 95.19825,66.132 94.42335,66.132 C93.38385,66.132 92.51445,65.7918 92.15535,64.809 L98.86485,64.809 C98.94045,64.4499 98.97825,64.0719 98.97825,63.675 C98.97825,60.8211 96.93705,58.6854 94.17765,58.6854 C91.19145,58.6854 89.15025,60.8589 89.15025,63.675 C89.15025,66.4911 91.15365,68.6646 94.38555,68.6646 Z M96.16215,62.6922 L92.09865,62.6922 C92.36325,61.7283 93.08145,61.1991 94.15875,61.1991 C95.00925,61.1991 95.85975,61.596 96.16215,62.6922 Z M103.79775,68.4 L103.79775,64.1286 C103.79775,62.2575 105.46095,61.785 106.63275,61.974 L106.63275,58.761 C105.44205,58.761 104.17575,59.3658 103.79775,60.6321 L103.79775,58.95 L100.96275,58.95 L100.96275,68.4 L103.79775,68.4 Z M114.00375,68.4 L117.50025,58.95 L114.36285,58.95 L112.39725,64.9413 L110.43165,58.95 L107.29425,58.95 L110.79075,68.4 L114.00375,68.4 Z M120.33525,58.1184 C121.26135,58.1184 122.03625,57.3435 122.03625,56.4174 C122.03625,55.4913 121.26135,54.7164 120.33525,54.7164 C119.40915,54.7164 118.63425,55.4913 118.63425,56.4174 C118.63425,57.3435 119.40915,58.1184 120.33525,58.1184 Z M121.75275,68.4 L121.75275,58.95 L118.91775,58.95 L118.91775,68.4 L121.75275,68.4 Z M128.74575,68.6646 C130.59795,68.6646 132.20445,67.7007 133.01715,66.2265 L130.54125,64.809 C130.23885,65.4705 129.53955,65.8674 128.70795,65.8674 C127.47945,65.8674 126.57225,64.9791 126.57225,63.675 C126.57225,62.3709 127.47945,61.4826 128.70795,61.4826 C129.53955,61.4826 130.21995,61.8795 130.54125,62.541 L133.01715,61.1046 C132.20445,59.6493 130.57905,58.6854 128.74575,58.6854 C125.87295,58.6854 123.73725,60.8589 123.73725,63.675 C123.73725,66.4911 125.87295,68.6646 128.74575,68.6646 Z M139.10295,68.6646 C140.89845,68.6646 142.29705,68.0031 143.22315,66.7179 L140.95515,65.4138 C140.57715,65.8296 139.91565,66.132 139.14075,66.132 C138.10125,66.132 137.23185,65.7918 136.87275,64.809 L143.58225,64.809 C143.65785,64.4499 143.69565,64.0719 143.69565,63.675 C143.69565,60.8211 141.65445,58.6854 138.89505,58.6854 C135.90885,58.6854 133.86765,60.8589 133.86765,63.675 C133.86765,66.4911 135.87105,68.6646 139.10295,68.6646 Z M140.87955,62.6922 L136.81605,62.6922 C137.08065,61.7283 137.79885,61.1991 138.87615,61.1991 C139.72665,61.1991 140.57715,61.596 140.87955,62.6922 Z" id="Roomservice" fill="#000067" fill-rule="nonzero"></path>
                    <g id="Group-8-Copy-10" transform="translate(71.400000, 117.600000)">
                        <g id="Group-3" transform="translate(0.000000, 0.070409)">
                            <mask id="mask-3" fill="white">
                                <use xlink:href="#path-2"></use>
                            </mask>
                            <g id="Clip-2"></g>
                            <path d="M13.6872767,0.06824664 C21.2465207,0.06824664 27.3745811,6.19630704 27.3745811,13.755551 C27.3745811,21.314795 21.2465207,27.4428554 13.6872767,27.4428554 C6.12803268,27.4428554 -2.772e-05,21.314795 -2.772e-05,13.755551 C-2.772e-05,6.19630704 6.12803268,0.06824664 13.6872767,0.06824664" id="Fill-1" fill="#FFFFFF" mask="url(#mask-3)"></path>
                        </g>
                        <path d="M13.6872767,2.41987284 C19.9866467,2.41987284 25.0933637,7.52658984 25.0933637,13.8259598 C25.0933637,20.1253298 19.9866467,25.2320468 13.6872767,25.2320468 C7.38790668,25.2320468 2.28118968,20.1253298 2.28118968,13.8259598 C2.28118968,7.52658984 7.38790668,2.41987284 13.6872767,2.41987284" id="Fill-4" fill="#FFFFFF"></path>
                        <polygon id="Fill-6" fill="#147767" points="12.6293706 18.512303 9.3064356 14.239958 11.2387968 12.736841 12.812184 14.7598466 18.1273554 9.14918004 19.9046232 10.8330314"></polygon>
                    </g>
                </g>
                <line x1="92.2274368" y1="133.5" x2="217.772563" y2="133.5" id="Line-17-Copy-12" stroke="#FFFFFF" stroke-width="2.1" stroke-linecap="square" stroke-dasharray="4.619999933242798,4.619999933242798"></line>
            </g>
        </g>
    </g>
</svg>