<?xml version="1.0" encoding="utf-8"?>
<!-- Generator: Adobe Illustrator 18.1.1, SVG Export Plug-In . SVG Version: 6.00 Build 0)  -->
<svg version="1.1" xmlns="http://www.w3.org/2000/svg" xmlns:xlink="http://www.w3.org/1999/xlink" x="0px" y="0px"
	 viewBox="0 0 227.8 101.5" enable-background="new 0 0 227.8 101.5" xml:space="preserve">
<g id="Layer_1">
	<g>
		<g>
			<path fill="#FFFFFF" d="M58.4,25.3c1.8,0.8,3.5,1.9,5.1,3c1.2,0.9,2.3,1.9,3.4,2.9c0.7,0.7,1.3,1.4,1.9,2.1c1,1.2,2.5,1.9,4,1.9
				c1.2,0,2.3-0.4,3.3-1.2c2.2-1.8,2.5-5.1,0.7-7.3c-0.8-1-1.7-1.9-2.6-2.8c-1.4-1.4-2.9-2.7-4.5-3.9c-2.1-1.6-4.4-3-6.8-4.1
				c-2.6-1.2-5.7-0.1-6.9,2.5C54.7,20.9,55.9,24,58.4,25.3z"/>
			<path fill="#FFFFFF" d="M86.2,52.6c0-2.9-2.4-5.1-5.2-5.1h-5.5l0,0H65.1c-2.3-8.6-10.2-15-19.5-15c-11.1,0-20.2,9.1-20.2,20.2
				c0,11.1,9.1,20.2,20.2,20.2c9.3,0,17.2-6.4,19.5-15h10.3c-2.6,14.7-15.7,25.8-31.3,25.1c-15.7-0.7-28.4-13.7-28.8-29.5
				c-0.5-17,13.2-31,30.1-31.1c2.8,0,5.2-2.2,5.3-5c0.1-2.9-2.3-5.3-5.2-5.3C22.4,12,3.7,31.5,4.9,54.9C6,75.5,22.7,92.2,43.3,93.3
				C66.8,94.5,86.2,75.8,86.2,52.6C86.2,52.7,86.2,52.6,86.2,52.6z M45.5,62.5c-5.4,0-9.8-4.4-9.8-9.8c0-5.4,4.4-9.8,9.8-9.8
				s9.8,4.4,9.8,9.8C55.4,58.1,50.9,62.5,45.5,62.5z"/>
		</g>
		<g>
			<path fill="#FFFFFF" d="M126.9,74.8c0,3-1.6,4.4-4,4.4c-2.1,0-3.7-1.2-3.7-3.9V63.2h-6.4v13.1c0,5.8,3.7,8.8,8,8.8
				c2.8,0,5-1,6.1-2.6v2h6.4V63.2h-6.4V74.8z"/>
			<path fill="#FFFFFF" d="M150.5,62.6c-2.8,0-5,1-6.1,2.6v-2H138v21.4h6.4V72.9c0-3,1.6-4.4,4-4.4c2,0,3.7,1.2,3.7,3.9v12.2h6.4
				V71.4C158.5,65.6,154.8,62.6,150.5,62.6z"/>
			<path fill="#FFFFFF" d="M98.9,62.9c0,0.1,0,0.2,0,0.3H97v6.2h1.9v15.2h6.4V69.3h4v-6.2h-4c0-0.1,0-0.2,0-0.3
				c0.1-2.2,1.7-2.9,4-2.7V54C102.3,53.6,99,57.1,98.9,62.9z"/>
			<path fill="#FFFFFF" d="M141.7,50c6.3,0,11.3-4.9,11.3-11.3s-5-11.3-11.3-11.3s-11.3,4.9-11.3,11.3S135.4,50,141.7,50z
				 M141.7,33.7c2.8,0,4.9,2,4.9,5c0,3-2.1,5-4.9,5c-2.8,0-4.9-2-4.9-5C136.7,35.7,138.9,33.7,141.7,33.7z"/>
			<path fill="#FFFFFF" d="M127.8,35.3v-2.6h-12.2v6h5.2c-1.1,2.9-3.7,4.6-7.6,4.6c-5.8,0-9.4-3.7-9.4-8.8c0-5.3,3.8-9,8.8-9
				c2,0,3.8,0.6,5.2,1.4l4.5-4.9c-2.6-1.9-5.9-3.2-9.6-3.2c-8.8,0-15.7,6.9-15.7,15.6c0,8.6,6.7,15.5,16.1,15.5
				C121.4,50,127.8,44.5,127.8,35.3z"/>
		</g>
	</g>
</g>
<g id="Default">
</g>
<g id="Capa_1">
	<g>
		<defs>
			<path id="SVGID_699_" d="M-1883-782.1c0,10.8-8.8,19.5-19.5,19.5c-7.2,0-13.5-3.9-16.9-9.8h7.1v-3.9h-11.7h-2v2v11.7h3.9v-6.6
				c4.2,6.3,11.4,10.5,19.5,10.5c12.9,0,23.4-10.5,23.4-23.4H-1883z M-1902.5-805.5c-12.9,0-23.4,10.5-23.4,23.4h3.9
				c0-10.8,8.8-19.5,19.5-19.5c7.2,0,13.5,3.9,16.9,9.8h-7.1v3.9h11.7h2v-2v-11.7h-3.9v6.6C-1887.2-801.3-1894.4-805.5-1902.5-805.5
				z"/>
		</defs>
		<clipPath id="SVGID_68_">
			<use xlink:href="#SVGID_699_"  overflow="visible"/>
		</clipPath>
		<g clip-path="url(#SVGID_68_)">
			<defs>
				<rect id="SVGID_701_" x="-3260.6" y="-1593.8" width="4866.4" height="3666.4"/>
			</defs>
			<clipPath id="SVGID_69_">
				<use xlink:href="#SVGID_701_"  overflow="visible"/>
			</clipPath>
		</g>
	</g>
	<g>
		<g>
			<defs>
				<path id="SVGID_707_" d="M-2298.5-988.4c3.8,0,7.4,0.5,10.9,1.4l-10.7,43.5l-43.5,10.7c-0.9-3.5-1.4-7.2-1.4-10.9
					C-2343.1-968.4-2323.1-988.4-2298.5-988.4z"/>
			</defs>
			<clipPath id="SVGID_71_">
				<use xlink:href="#SVGID_707_"  overflow="visible"/>
			</clipPath>
			<g clip-path="url(#SVGID_71_)">
				<defs>
					<rect id="SVGID_709_" x="-3792.9" y="-1411.7" width="5150.6" height="3880.5"/>
				</defs>
				<clipPath id="SVGID_72_">
					<use xlink:href="#SVGID_709_"  overflow="visible"/>
				</clipPath>
			</g>
		</g>
		<g>
			<defs>
				<path id="SVGID_711_" d="M-2287-986.5c19.3,4.9,33.7,22.4,33.7,43.3c0,24.6-20,44.6-44.6,44.6c-20.9,0-38.4-14.3-43.3-33.7
					l43.5-10.7L-2287-986.5z"/>
			</defs>
			<clipPath id="SVGID_73_">
				<use xlink:href="#SVGID_711_"  overflow="visible"/>
			</clipPath>
			<g clip-path="url(#SVGID_73_)">
				<defs>
					<rect id="SVGID_713_" x="-3792.9" y="-1411.7" width="5150.6" height="3880.5"/>
				</defs>
				<clipPath id="SVGID_74_">
					<use xlink:href="#SVGID_713_"  overflow="visible"/>
				</clipPath>
			</g>
		</g>
		<g>
			<defs>
				<circle id="SVGID_719_" cx="-2298.5" cy="-943.8" r="5.6"/>
			</defs>
			<clipPath id="SVGID_75_">
				<use xlink:href="#SVGID_719_"  overflow="visible"/>
			</clipPath>
			<g clip-path="url(#SVGID_75_)">
				<defs>
					<rect id="SVGID_721_" x="-3792.9" y="-1411.7" width="5150.6" height="3880.5"/>
				</defs>
				<clipPath id="SVGID_76_">
					<use xlink:href="#SVGID_721_"  overflow="visible"/>
				</clipPath>
			</g>
		</g>
	</g>
	<g>
		<g>
			<defs>
				<path id="SVGID_725_" d="M-1687.7-838.3c-0.7,0-1.3,0.6-1.3,1.3v0.6c0,1-0.8,1.9-1.9,1.9h-27.2c-1,0-1.9-0.8-1.9-1.9v-0.8
					c0-0.6-0.5-1.1-1.1-1.1h-2.2c-4.6,0-8.3,3.7-8.3,8.3v95.9c0,4.6,3.7,8.3,8.3,8.3h37.5c4.6,0,8.3-3.7,8.3-8.3V-830
					c0-4.6-3.7-8.3-8.3-8.3H-1687.7z"/>
			</defs>
			<clipPath id="SVGID_77_">
				<use xlink:href="#SVGID_725_"  overflow="visible"/>
			</clipPath>
			<g clip-path="url(#SVGID_77_)">
				<defs>
					<rect id="SVGID_727_" x="-2264" y="-1517.5" width="2862.9" height="2156.9"/>
				</defs>
				<clipPath id="SVGID_78_">
					<use xlink:href="#SVGID_727_"  overflow="visible"/>
				</clipPath>
			</g>
		</g>
		<g>
			<defs>
				<rect id="SVGID_729_" x="-1733.4" y="-840.3" width="57.9" height="116.4"/>
			</defs>
			<clipPath id="SVGID_79_">
				<use xlink:href="#SVGID_729_"  overflow="visible"/>
			</clipPath>
			<g clip-path="url(#SVGID_79_)">
				<defs>
					<rect id="SVGID_731_" x="-2264" y="-1517.5" width="2862.9" height="2156.9"/>
				</defs>
				<clipPath id="SVGID_80_">
					<use xlink:href="#SVGID_731_"  overflow="visible"/>
				</clipPath>
			</g>
		</g>
	</g>
	<g>
		<defs>
			<path id="SVGID_739_" d="M-2476-734.4c1.5,0,2.6,1.2,2.6,2.6v13.2c0,1.5-1.2,2.6-2.6,2.6h-13.2c-1.5,0-2.6-1.2-2.6-2.6v-13.2
				c0-1.5,1.2-2.6,2.6-2.6H-2476z"/>
		</defs>
		<clipPath id="SVGID_81_">
			<use xlink:href="#SVGID_739_"  overflow="visible"/>
		</clipPath>
		<g clip-path="url(#SVGID_81_)">
			<defs>
				<rect id="SVGID_741_" x="-2896.8" y="-1536.4" width="3300.3" height="2486.5"/>
			</defs>
			<clipPath id="SVGID_82_">
				<use xlink:href="#SVGID_741_"  overflow="visible"/>
			</clipPath>
		</g>
	</g>
	<g>
		<defs>
			<path id="SVGID_752_" d="M-285.8-782.1c0,10.8-8.8,19.5-19.5,19.5c-7.2,0-13.5-3.9-16.9-9.8h7.1v-3.9h-11.7h-2v2v11.7h3.9v-6.6
				c4.2,6.3,11.4,10.5,19.5,10.5c12.9,0,23.4-10.5,23.4-23.4H-285.8z M-305.3-805.5c-12.9,0-23.4,10.5-23.4,23.4h3.9
				c0-10.8,8.8-19.5,19.5-19.5c7.2,0,13.5,3.9,16.9,9.8h-7.1v3.9h11.7h2v-2v-11.7h-3.9v6.6C-290-801.3-297.2-805.5-305.3-805.5z"/>
		</defs>
		<clipPath id="SVGID_83_">
			<use xlink:href="#SVGID_752_"  overflow="visible"/>
		</clipPath>
		<g clip-path="url(#SVGID_83_)">
			<defs>
				<rect id="SVGID_754_" x="-1663.4" y="-1593.8" width="4866.4" height="3666.4"/>
			</defs>
			<clipPath id="SVGID_84_">
				<use xlink:href="#SVGID_754_"  overflow="visible"/>
			</clipPath>
		</g>
	</g>
	<g>
		<g>
			<defs>
				<path id="SVGID_756_" d="M-701.3-988.4c3.8,0,7.4,0.5,10.9,1.4l-10.7,43.5l-43.5,10.7c-0.9-3.5-1.4-7.2-1.4-10.9
					C-745.9-968.4-725.9-988.4-701.3-988.4z"/>
			</defs>
			<clipPath id="SVGID_85_">
				<use xlink:href="#SVGID_756_"  overflow="visible"/>
			</clipPath>
			<g clip-path="url(#SVGID_85_)">
				<defs>
					<rect id="SVGID_758_" x="-2195.7" y="-1411.7" width="5150.6" height="3880.5"/>
				</defs>
				<clipPath id="SVGID_86_">
					<use xlink:href="#SVGID_758_"  overflow="visible"/>
				</clipPath>
			</g>
		</g>
		<g>
			<defs>
				<path id="SVGID_760_" d="M-689.8-986.5c19.3,4.9,33.7,22.4,33.7,43.3c0,24.6-20,44.6-44.6,44.6c-20.9,0-38.4-14.3-43.3-33.7
					l43.5-10.7L-689.8-986.5z"/>
			</defs>
			<clipPath id="SVGID_87_">
				<use xlink:href="#SVGID_760_"  overflow="visible"/>
			</clipPath>
			<g clip-path="url(#SVGID_87_)">
				<defs>
					<rect id="SVGID_762_" x="-2195.7" y="-1411.7" width="5150.6" height="3880.5"/>
				</defs>
				<clipPath id="SVGID_88_">
					<use xlink:href="#SVGID_762_"  overflow="visible"/>
				</clipPath>
			</g>
		</g>
		<g>
			<defs>
				<circle id="SVGID_768_" cx="-701.3" cy="-943.8" r="5.6"/>
			</defs>
			<clipPath id="SVGID_89_">
				<use xlink:href="#SVGID_768_"  overflow="visible"/>
			</clipPath>
			<g clip-path="url(#SVGID_89_)">
				<defs>
					<rect id="SVGID_770_" x="-2195.7" y="-1411.7" width="5150.6" height="3880.5"/>
				</defs>
				<clipPath id="SVGID_90_">
					<use xlink:href="#SVGID_770_"  overflow="visible"/>
				</clipPath>
			</g>
		</g>
	</g>
	<g>
		<g>
			<defs>
				<path id="SVGID_774_" d="M-90.5-838.3c-0.7,0-1.3,0.6-1.3,1.3v0.6c0,1-0.8,1.9-1.9,1.9h-27.2c-1,0-1.9-0.8-1.9-1.9v-0.8
					c0-0.6-0.5-1.1-1.1-1.1h-2.2c-4.6,0-8.3,3.7-8.3,8.3v95.9c0,4.6,3.7,8.3,8.3,8.3h37.5c4.6,0,8.3-3.7,8.3-8.3V-830
					c0-4.6-3.7-8.3-8.3-8.3H-90.5z"/>
			</defs>
			<clipPath id="SVGID_91_">
				<use xlink:href="#SVGID_774_"  overflow="visible"/>
			</clipPath>
			<g clip-path="url(#SVGID_91_)">
				<defs>
					<rect id="SVGID_776_" x="-666.8" y="-1517.5" width="2862.9" height="2156.9"/>
				</defs>
				<clipPath id="SVGID_92_">
					<use xlink:href="#SVGID_776_"  overflow="visible"/>
				</clipPath>
			</g>
		</g>
		<g>
			<defs>
				<rect id="SVGID_778_" x="-136.2" y="-840.3" width="57.9" height="116.4"/>
			</defs>
			<clipPath id="SVGID_93_">
				<use xlink:href="#SVGID_778_"  overflow="visible"/>
			</clipPath>
			<g clip-path="url(#SVGID_93_)">
				<defs>
					<rect id="SVGID_780_" x="-666.8" y="-1517.5" width="2862.9" height="2156.9"/>
				</defs>
				<clipPath id="SVGID_94_">
					<use xlink:href="#SVGID_780_"  overflow="visible"/>
				</clipPath>
			</g>
		</g>
	</g>
	<g>
		<defs>
			<path id="SVGID_788_" d="M-878.8-734.4c1.5,0,2.6,1.2,2.6,2.6v13.2c0,1.5-1.2,2.6-2.6,2.6h-13.2c-1.5,0-2.6-1.2-2.6-2.6v-13.2
				c0-1.5,1.2-2.6,2.6-2.6H-878.8z"/>
		</defs>
		<clipPath id="SVGID_95_">
			<use xlink:href="#SVGID_788_"  overflow="visible"/>
		</clipPath>
		<g clip-path="url(#SVGID_95_)">
			<defs>
				<rect id="SVGID_790_" x="-1299.6" y="-1536.4" width="3300.3" height="2486.5"/>
			</defs>
			<clipPath id="SVGID_96_">
				<use xlink:href="#SVGID_790_"  overflow="visible"/>
			</clipPath>
		</g>
	</g>
</g>
</svg>
