<?xml version="1.0" encoding="utf-8"?>
<!-- Generator: Adobe Illustrator 18.1.1, SVG Export Plug-In . SVG Version: 6.00 Build 0)  -->
<svg version="1.1" xmlns="http://www.w3.org/2000/svg" xmlns:xlink="http://www.w3.org/1999/xlink" x="0px" y="0px"
	 viewBox="0 0 227.8 101.5" enable-background="new 0 0 227.8 101.5" xml:space="preserve">
<g id="Layer_1">
	<g>
		<path fill="#FFFFFF" d="M56.4,26.6c1.8,0.8,3.5,1.9,5.1,3c1.2,0.9,2.3,1.9,3.4,2.9c0.7,0.7,1.3,1.4,1.9,2.1c1,1.2,2.5,1.9,4,1.9
			c1.2,0,2.3-0.4,3.3-1.2c2.2-1.8,2.5-5.1,0.7-7.3c-0.8-1-1.7-1.9-2.6-2.8c-1.4-1.4-2.9-2.7-4.5-3.9c-2.1-1.6-4.4-3-6.8-4.1
			c-2.6-1.2-5.7-0.1-6.9,2.5C52.7,22.3,53.8,25.3,56.4,26.6z"/>
		<path fill="#FFFFFF" d="M78.8,48.7h-5.5l0,0H62.9c-2.3-8.6-10.1-15-19.5-15c-11.1,0-20.1,9-20.1,20.1c0,11.1,9,20.1,20.1,20.1
			c9.3,0,17.2-6.4,19.5-15h10.3c-2.5,14.7-15.7,25.7-31.2,25c-15.7-0.7-28.3-13.6-28.8-29.4c-0.4-17,13.2-30.9,30.1-31
			c2.8,0,5.2-2.2,5.3-5c0.1-2.9-2.3-5.3-5.2-5.3C20.4,13.3,1.7,32.7,3,56.1c1.1,20.6,17.7,37.2,38.3,38.3C64.6,95.6,84,77,84,53.9
			c0,0,0,0,0-0.1C84,51,81.7,48.7,78.8,48.7z M43.5,63.7c-5.4,0-9.8-4.4-9.8-9.8c0-5.4,4.4-9.8,9.8-9.8s9.8,4.4,9.8,9.8
			C53.3,59.3,48.9,63.7,43.5,63.7z"/>
		<path fill="#FFFFFF" d="M136.2,69c0,3-1.6,4.4-4,4.4c-2,0-3.7-1.2-3.7-3.9V57.4h-6.4v13.1c0,5.7,3.7,8.8,8,8.8
			c2.8,0,4.9-1,6.1-2.6v2h6.4V57.4h-6.4V69z"/>
		<path fill="#FFFFFF" d="M157.4,56.8c-6.7,0-11.3,4.9-11.3,11.2s4.5,11.2,11.8,11.2c4,0,7.2-1.5,9.3-4.4l-5.1-2.9
			c-0.9,0.9-2.3,1.6-4.1,1.6c-2.3,0-4.3-0.8-5.1-3H168c0.2-0.8,0.3-1.7,0.3-2.6C168.3,61.6,163.7,56.8,157.4,56.8z M152.8,65.8
			c0.6-2.2,2.2-3.4,4.6-3.4c1.9,0,3.8,0.9,4.5,3.4H152.8z"/>
		<path fill="#FFFFFF" d="M177.6,63.6c0-0.8,0.7-1.2,1.8-1.2c1.4,0,2.3,0.8,2.9,1.9l5.5-2.9c-1.8-3-4.9-4.6-8.3-4.6
			c-4.4,0-8.3,2.3-8.3,7c0,7.4,10.5,6.1,10.5,8.5c0,0.9-0.8,1.3-2.3,1.3c-1.9,0-3.1-0.9-3.6-2.5l-5.5,3.2c1.7,3.4,4.9,5.1,9.2,5.1
			c4.6,0,8.9-2.1,8.9-7C188.1,64.4,177.6,66,177.6,63.6z"/>
		<path fill="#FFFFFF" d="M204,63.5v-6.1h-4.4v-6l-6.4,1.9v4h-3.4v6.1h3.4v7.5c0,6,2.4,8.5,10.8,7.6v-5.8c-2.8,0.2-4.4,0-4.4-1.8
			v-7.5H204z"/>
		<path fill="#FFFFFF" d="M139.3,51.4c6.3,0,11.3-4.9,11.3-11.2s-5-11.2-11.3-11.2c-6.3,0-11.3,4.9-11.3,11.2S133.1,51.4,139.3,51.4
			z M139.3,35.2c2.8,0,4.9,2,4.9,5s-2.1,5-4.9,5c-2.8,0-4.9-2-4.9-5S136.6,35.2,139.3,35.2z"/>
		<path fill="#FFFFFF" d="M111.4,59.6c-1.4-1.7-3.4-2.8-6.2-2.8c-6,0-10.5,4.9-10.5,10.8s4.4,10.8,10.5,10.8c2.8,0,4.8-1,6.2-2.8v2
			c0,3-1.8,4.6-4.8,4.6c-1.9,0-3.1-0.6-3.9-1.4c0,0,0,0,0,0h-6.8c0,0.5,0.3,1.4,0.5,1.9c1.7,4.1,5.7,5.2,10.1,5.2
			c5.7,0,11.2-3,11.2-10.2V57.4h-6.2V59.6z M106.3,72.6c-3,0-5.2-2-5.2-4.9c0-2.9,2.1-4.9,5.2-4.9s5.2,2,5.2,4.9
			C111.4,70.5,109.3,72.6,106.3,72.6z"/>
		<path fill="#FFFFFF" d="M125.5,34.2h-12.2v6h5.2c-1.1,2.9-3.7,4.6-7.6,4.6c-5.8,0-9.4-3.7-9.4-8.8c0-5.2,3.7-8.9,8.8-8.9
			c2,0,3.8,0.6,5.2,1.4l4.5-4.9c-2.6-1.9-5.9-3.1-9.6-3.1c-8.8,0-15.6,6.9-15.6,15.5c0,8.6,6.7,15.5,16.1,15.5
			c8.3,0,14.7-5.5,14.7-14.6V34.2z"/>
	</g>
</g>
<g id="Default">
</g>
<g id="Capa_1">
	<g>
		<defs>
			<path id="SVGID_699_" d="M-1883-650c0,10.8-8.8,19.5-19.5,19.5c-7.2,0-13.5-3.9-16.9-9.8h7.1v-3.9h-11.7h-2v2v11.7h3.9v-6.6
				c4.2,6.3,11.4,10.5,19.5,10.5c12.9,0,23.4-10.5,23.4-23.4H-1883z M-1902.5-673.4c-12.9,0-23.4,10.5-23.4,23.4h3.9
				c0-10.8,8.8-19.5,19.5-19.5c7.2,0,13.5,3.9,16.9,9.8h-7.1v3.9h11.7h2v-2v-11.7h-3.9v6.6C-1887.2-669.2-1894.4-673.4-1902.5-673.4
				z"/>
		</defs>
		<clipPath id="SVGID_68_">
			<use xlink:href="#SVGID_699_"  overflow="visible"/>
		</clipPath>
		<g clip-path="url(#SVGID_68_)">
			<defs>
				<rect id="SVGID_701_" x="-3260.6" y="-1461.7" width="4866.4" height="3666.4"/>
			</defs>
			<clipPath id="SVGID_69_">
				<use xlink:href="#SVGID_701_"  overflow="visible"/>
			</clipPath>
		</g>
	</g>
	<g>
		<g>
			<defs>
				<path id="SVGID_707_" d="M-2298.5-856.3c3.8,0,7.4,0.5,10.9,1.4l-10.7,43.5l-43.5,10.7c-0.9-3.5-1.4-7.2-1.4-10.9
					C-2343.1-836.4-2323.1-856.3-2298.5-856.3z"/>
			</defs>
			<clipPath id="SVGID_71_">
				<use xlink:href="#SVGID_707_"  overflow="visible"/>
			</clipPath>
			<g clip-path="url(#SVGID_71_)">
				<defs>
					<rect id="SVGID_709_" x="-3792.9" y="-1279.7" width="5150.6" height="3880.5"/>
				</defs>
				<clipPath id="SVGID_72_">
					<use xlink:href="#SVGID_709_"  overflow="visible"/>
				</clipPath>
			</g>
		</g>
		<g>
			<defs>
				<path id="SVGID_711_" d="M-2287-854.5c19.3,4.9,33.7,22.4,33.7,43.3c0,24.6-20,44.6-44.6,44.6c-20.9,0-38.4-14.3-43.3-33.7
					l43.5-10.7L-2287-854.5z"/>
			</defs>
			<clipPath id="SVGID_73_">
				<use xlink:href="#SVGID_711_"  overflow="visible"/>
			</clipPath>
			<g clip-path="url(#SVGID_73_)">
				<defs>
					<rect id="SVGID_713_" x="-3792.9" y="-1279.7" width="5150.6" height="3880.5"/>
				</defs>
				<clipPath id="SVGID_74_">
					<use xlink:href="#SVGID_713_"  overflow="visible"/>
				</clipPath>
			</g>
		</g>
		<g>
			<defs>
				<circle id="SVGID_719_" cx="-2298.5" cy="-811.7" r="5.6"/>
			</defs>
			<clipPath id="SVGID_75_">
				<use xlink:href="#SVGID_719_"  overflow="visible"/>
			</clipPath>
			<g clip-path="url(#SVGID_75_)">
				<defs>
					<rect id="SVGID_721_" x="-3792.9" y="-1279.7" width="5150.6" height="3880.5"/>
				</defs>
				<clipPath id="SVGID_76_">
					<use xlink:href="#SVGID_721_"  overflow="visible"/>
				</clipPath>
			</g>
		</g>
	</g>
	<g>
		<g>
			<defs>
				<path id="SVGID_725_" d="M-1687.7-706.3c-0.7,0-1.3,0.6-1.3,1.3v0.6c0,1-0.8,1.9-1.9,1.9h-27.2c-1,0-1.9-0.8-1.9-1.9v-0.8
					c0-0.6-0.5-1.1-1.1-1.1h-2.2c-4.6,0-8.3,3.7-8.3,8.3v95.9c0,4.6,3.7,8.3,8.3,8.3h37.5c4.6,0,8.3-3.7,8.3-8.3V-698
					c0-4.6-3.7-8.3-8.3-8.3H-1687.7z"/>
			</defs>
			<clipPath id="SVGID_77_">
				<use xlink:href="#SVGID_725_"  overflow="visible"/>
			</clipPath>
			<g clip-path="url(#SVGID_77_)">
				<defs>
					<rect id="SVGID_727_" x="-2264" y="-1385.5" width="2862.9" height="2156.9"/>
				</defs>
				<clipPath id="SVGID_78_">
					<use xlink:href="#SVGID_727_"  overflow="visible"/>
				</clipPath>
			</g>
		</g>
		<g>
			<defs>
				<rect id="SVGID_729_" x="-1733.4" y="-708.2" width="57.9" height="116.4"/>
			</defs>
			<clipPath id="SVGID_79_">
				<use xlink:href="#SVGID_729_"  overflow="visible"/>
			</clipPath>
			<g clip-path="url(#SVGID_79_)">
				<defs>
					<rect id="SVGID_731_" x="-2264" y="-1385.5" width="2862.9" height="2156.9"/>
				</defs>
				<clipPath id="SVGID_80_">
					<use xlink:href="#SVGID_731_"  overflow="visible"/>
				</clipPath>
			</g>
		</g>
	</g>
	<g>
		<defs>
			<path id="SVGID_739_" d="M-2476-602.4c1.5,0,2.6,1.2,2.6,2.6v13.2c0,1.5-1.2,2.6-2.6,2.6h-13.2c-1.5,0-2.6-1.2-2.6-2.6v-13.2
				c0-1.5,1.2-2.6,2.6-2.6H-2476z"/>
		</defs>
		<clipPath id="SVGID_81_">
			<use xlink:href="#SVGID_739_"  overflow="visible"/>
		</clipPath>
		<g clip-path="url(#SVGID_81_)">
			<defs>
				<rect id="SVGID_741_" x="-2896.8" y="-1404.3" width="3300.3" height="2486.5"/>
			</defs>
			<clipPath id="SVGID_82_">
				<use xlink:href="#SVGID_741_"  overflow="visible"/>
			</clipPath>
		</g>
	</g>
	<g>
		<defs>
			<path id="SVGID_752_" d="M-285.8-650c0,10.8-8.8,19.5-19.5,19.5c-7.2,0-13.5-3.9-16.9-9.8h7.1v-3.9h-11.7h-2v2v11.7h3.9v-6.6
				c4.2,6.3,11.4,10.5,19.5,10.5c12.9,0,23.4-10.5,23.4-23.4H-285.8z M-305.3-673.4c-12.9,0-23.4,10.5-23.4,23.4h3.9
				c0-10.8,8.8-19.5,19.5-19.5c7.2,0,13.5,3.9,16.9,9.8h-7.1v3.9h11.7h2v-2v-11.7h-3.9v6.6C-290-669.2-297.2-673.4-305.3-673.4z"/>
		</defs>
		<clipPath id="SVGID_83_">
			<use xlink:href="#SVGID_752_"  overflow="visible"/>
		</clipPath>
		<g clip-path="url(#SVGID_83_)">
			<defs>
				<rect id="SVGID_754_" x="-1663.4" y="-1461.7" width="4866.4" height="3666.4"/>
			</defs>
			<clipPath id="SVGID_84_">
				<use xlink:href="#SVGID_754_"  overflow="visible"/>
			</clipPath>
		</g>
	</g>
	<g>
		<g>
			<defs>
				<path id="SVGID_756_" d="M-701.3-856.3c3.8,0,7.4,0.5,10.9,1.4l-10.7,43.5l-43.5,10.7c-0.9-3.5-1.4-7.2-1.4-10.9
					C-745.9-836.4-725.9-856.3-701.3-856.3z"/>
			</defs>
			<clipPath id="SVGID_85_">
				<use xlink:href="#SVGID_756_"  overflow="visible"/>
			</clipPath>
			<g clip-path="url(#SVGID_85_)">
				<defs>
					<rect id="SVGID_758_" x="-2195.7" y="-1279.7" width="5150.6" height="3880.5"/>
				</defs>
				<clipPath id="SVGID_86_">
					<use xlink:href="#SVGID_758_"  overflow="visible"/>
				</clipPath>
			</g>
		</g>
		<g>
			<defs>
				<path id="SVGID_760_" d="M-689.8-854.5c19.3,4.9,33.7,22.4,33.7,43.3c0,24.6-20,44.6-44.6,44.6c-20.9,0-38.4-14.3-43.3-33.7
					l43.5-10.7L-689.8-854.5z"/>
			</defs>
			<clipPath id="SVGID_87_">
				<use xlink:href="#SVGID_760_"  overflow="visible"/>
			</clipPath>
			<g clip-path="url(#SVGID_87_)">
				<defs>
					<rect id="SVGID_762_" x="-2195.7" y="-1279.7" width="5150.6" height="3880.5"/>
				</defs>
				<clipPath id="SVGID_88_">
					<use xlink:href="#SVGID_762_"  overflow="visible"/>
				</clipPath>
			</g>
		</g>
		<g>
			<defs>
				<circle id="SVGID_768_" cx="-701.3" cy="-811.7" r="5.6"/>
			</defs>
			<clipPath id="SVGID_89_">
				<use xlink:href="#SVGID_768_"  overflow="visible"/>
			</clipPath>
			<g clip-path="url(#SVGID_89_)">
				<defs>
					<rect id="SVGID_770_" x="-2195.7" y="-1279.7" width="5150.6" height="3880.5"/>
				</defs>
				<clipPath id="SVGID_90_">
					<use xlink:href="#SVGID_770_"  overflow="visible"/>
				</clipPath>
			</g>
		</g>
	</g>
	<g>
		<g>
			<defs>
				<path id="SVGID_774_" d="M-90.5-706.3c-0.7,0-1.3,0.6-1.3,1.3v0.6c0,1-0.8,1.9-1.9,1.9h-27.2c-1,0-1.9-0.8-1.9-1.9v-0.8
					c0-0.6-0.5-1.1-1.1-1.1h-2.2c-4.6,0-8.3,3.7-8.3,8.3v95.9c0,4.6,3.7,8.3,8.3,8.3h37.5c4.6,0,8.3-3.7,8.3-8.3V-698
					c0-4.6-3.7-8.3-8.3-8.3H-90.5z"/>
			</defs>
			<clipPath id="SVGID_91_">
				<use xlink:href="#SVGID_774_"  overflow="visible"/>
			</clipPath>
			<g clip-path="url(#SVGID_91_)">
				<defs>
					<rect id="SVGID_776_" x="-666.8" y="-1385.5" width="2862.9" height="2156.9"/>
				</defs>
				<clipPath id="SVGID_92_">
					<use xlink:href="#SVGID_776_"  overflow="visible"/>
				</clipPath>
			</g>
		</g>
		<g>
			<defs>
				<rect id="SVGID_778_" x="-136.2" y="-708.2" width="57.9" height="116.4"/>
			</defs>
			<clipPath id="SVGID_93_">
				<use xlink:href="#SVGID_778_"  overflow="visible"/>
			</clipPath>
			<g clip-path="url(#SVGID_93_)">
				<defs>
					<rect id="SVGID_780_" x="-666.8" y="-1385.5" width="2862.9" height="2156.9"/>
				</defs>
				<clipPath id="SVGID_94_">
					<use xlink:href="#SVGID_780_"  overflow="visible"/>
				</clipPath>
			</g>
		</g>
	</g>
	<g>
		<defs>
			<path id="SVGID_788_" d="M-878.8-602.4c1.5,0,2.6,1.2,2.6,2.6v13.2c0,1.5-1.2,2.6-2.6,2.6h-13.2c-1.5,0-2.6-1.2-2.6-2.6v-13.2
				c0-1.5,1.2-2.6,2.6-2.6H-878.8z"/>
		</defs>
		<clipPath id="SVGID_95_">
			<use xlink:href="#SVGID_788_"  overflow="visible"/>
		</clipPath>
		<g clip-path="url(#SVGID_95_)">
			<defs>
				<rect id="SVGID_790_" x="-1299.6" y="-1404.3" width="3300.3" height="2486.5"/>
			</defs>
			<clipPath id="SVGID_96_">
				<use xlink:href="#SVGID_790_"  overflow="visible"/>
			</clipPath>
		</g>
	</g>
</g>
</svg>
