<?xml version="1.0" encoding="UTF-8"?>
<svg width="246px" height="91px" viewBox="0 0 246 91" version="1.1" xmlns="http://www.w3.org/2000/svg" xmlns:xlink="http://www.w3.org/1999/xlink">
    <!-- Generator: Sketch 52.5 (67469) - http://www.bohemiancoding.com/sketch -->
    <title>Group 6</title>
    <desc>Created with Sketch.</desc>
    <g id="COMBI-SOLUCIONES-EGO-HOST-SECTORES" stroke="none" stroke-width="1" fill="none" fill-rule="evenodd">
        <g id="COMBI-PRODUCTOS-SECTORES-EGO---FESTIVALES" transform="translate(-207.000000, -175.000000)" fill="#FFFFFE">
            <g id="Group-6" transform="translate(207.000000, 175.000000)">
                <path d="M181.454044,40.8770724 C181.454044,37.7624724 181.468444,34.6478724 181.437244,31.5332724 C181.433044,31.1090724 181.295644,30.6260724 181.062844,30.2738724 C179.065444,27.2504724 176.142844,26.1650724 172.644844,26.4248724 C169.954444,26.6252724 168.028444,28.0334724 166.832044,30.4112724 C166.362244,31.3454724 165.973444,32.3342724 165.667444,33.3344724 C164.675644,36.5834724 164.609044,39.9368724 164.709844,43.2914724 C164.778244,45.5684724 165.109444,47.8136724 165.950044,49.9562724 C166.819444,52.1744724 168.162244,54.0056724 170.562844,54.6140724 C171.905044,54.9542724 173.363044,55.0340724 174.752644,54.9512724 C177.361444,54.7958724 179.546644,53.6828724 181.056244,51.4718724 C181.281244,51.1418724 181.433044,50.6900724 181.437244,50.2922724 C181.467844,47.1542724 181.454044,44.0156724 181.454044,40.8770724 M181.352044,59.8412724 C180.829444,60.3338724 180.272044,60.8816724 179.691244,61.4036724 C176.680444,64.1108724 173.082244,65.0456724 169.127044,64.8380724 C166.839844,64.7186724 164.620444,64.2728724 162.540244,63.2672724 C158.434444,61.2818724 155.862844,57.9266724 154.155844,53.8250724 C152.778844,50.5166724 152.215444,47.0372724 152.115244,43.4714724 C151.997644,39.2708724 152.167444,35.0966724 153.300844,31.0160724 C154.300444,27.4178724 155.872444,24.1154724 158.457244,21.3650724 C160.985044,18.6764724 164.118844,17.1788724 167.771044,16.7336724 C170.076844,16.4528724 172.365244,16.4930724 174.599044,17.1932724 C177.570844,18.1244724 179.836444,20.0138724 181.656844,22.4870724 C181.809244,22.6946724 181.964644,22.9004724 182.212444,23.2334724 C182.555044,21.2222724 182.873044,19.3520724 183.192844,17.4728724 L194.009044,17.4728724 L194.009044,18.2306724 C194.009044,33.6380724 194.030044,49.0448724 193.996444,64.4522724 C193.986844,68.9828724 192.662044,73.0868724 189.489244,76.4474724 C186.789244,79.3064724 183.396844,80.9714724 179.613244,81.8420724 C171.917644,83.6120724 164.500444,82.6922724 157.341244,79.4186724 C156.818044,79.1792724 156.727444,78.9422724 156.857644,78.3920724 C157.534444,75.5354724 158.157244,72.6668724 158.822644,69.6962724 C159.128044,69.8258724 159.381844,69.9290724 159.632044,70.0394724 C164.102044,72.0140724 168.782644,72.8144724 173.637844,72.3440724 C174.968644,72.2150724 176.332444,71.8268724 177.550444,71.2712724 C180.069844,70.1216724 181.116844,67.8710724 181.324444,65.2550724 C181.467844,63.4484724 181.352044,61.6208724 181.352044,59.8412724" id="Fill-44"></path>
                <path d="M9.63714359,40.9854324 C9.57414359,60.8562324 25.6019436,77.2590324 45.5441436,77.6646324 C66.0173436,78.0816324 82.9715436,61.6800324 82.9967436,41.0862324 C83.0213436,20.6472324 66.5819436,4.62663241 46.8323436,4.37043241 C25.9919436,4.09923241 9.58854359,21.0186324 9.63714359,40.9854324 M46.3595436,86.7450324 C46.3595436,86.2182324 46.3619436,85.6908324 46.3589436,85.1634324 C46.3487436,83.3682324 45.5291436,82.4538324 43.7291436,82.3392324 C40.8749436,82.1574324 38.0741436,81.6882324 35.3195436,80.9292324 C30.2507436,79.5324324 25.6601436,77.1816324 21.4241436,74.0814324 C14.6573436,69.1296324 7.86354359,64.2144324 1.06794359,59.3028324 C0.316143591,58.7598324 -0.133256409,58.1358324 0.0353435909,57.1938324 C0.190743591,56.3256324 0.827943591,55.9482324 1.60854359,55.7100324 C2.63754359,55.3962324 3.65754359,55.0524324 4.67814359,54.7116324 C6.21714359,54.1974324 6.83034359,53.0964324 6.42594359,51.5316324 C5.62074359,48.4146324 5.16594359,45.2466324 5.10414359,42.0300324 C5.00754359,37.0284324 5.88534359,32.1864324 7.45854359,27.4404324 C10.0967436,19.4802324 12.6575436,11.4942324 15.2585436,3.52143241 C15.6347436,2.36943241 16.6385436,1.82163241 17.6543436,2.24163241 C18.0083436,2.38803241 18.3413436,2.68203241 18.5807436,2.98863241 C19.3031436,3.91323241 19.9691436,4.88103241 20.6669436,5.82483241 C21.5885436,7.07163241 22.8155436,7.32663241 24.1151436,6.49983241 C28.4015436,3.77403241 33.0119436,1.80843241 38.0063436,0.885632406 C40.5383436,0.417632406 43.1315436,0.0852324057 45.7013436,0.0564324057 C54.6221436,-0.0425675943 63.5447436,0.0384324057 72.4661436,3.24056889e-05 C74.0909436,-0.00716759431 74.7761436,1.18683241 74.5463436,2.17203241 C74.4731436,2.48643241 74.3111436,2.79783241 74.1245436,3.06543241 C73.4795436,3.98823241 72.8051436,4.89003241 72.1439436,5.80143241 C71.1821436,7.12623241 71.3189436,8.34423241 72.5777436,9.39123241 C78.4385436,14.2668324 82.7663436,20.2458324 85.2131436,27.4656324 C88.1423436,36.1092324 90.8879436,44.8152324 93.7187436,53.4918324 C93.9569436,54.2226324 93.8501436,54.8736324 93.3173436,55.4166324 C92.7863436,55.9572324 92.1359436,56.1048324 91.4027436,55.8648324 C90.1985436,55.4712324 88.9967436,55.0668324 87.7835436,54.7014324 C86.5277436,54.3234324 85.3187436,54.8652324 84.8399436,56.0880324 C81.6029436,64.3566324 76.1309436,70.7778324 68.8871436,75.8502324 C62.3531436,80.4258324 55.9505436,85.1892324 49.5077436,89.8944324 C48.9263436,90.3186324 48.3341436,90.4050324 47.6855436,90.3348324 C46.9907436,90.2598324 46.3997436,89.5236324 46.3607436,88.7580324 C46.3595436,88.7340324 46.3601436,88.7100324 46.3601436,88.6860324 C46.3601436,88.0392324 46.3601436,87.3924324 46.3595436,86.7450324" id="Fill-46"></path>
                <path d="M214.268764,40.7626524 C214.203964,43.7518524 214.518364,46.6804524 215.583364,49.5034524 C217.462564,54.4852524 221.354764,55.7932524 225.879964,54.9268524 C228.814564,54.3658524 230.500564,52.2988524 231.567964,49.6492524 C232.911964,46.3126524 233.111164,42.8122524 232.990564,39.2788524 C232.901164,36.6628524 232.491964,34.1044524 231.466564,31.6606524 C229.491964,26.9536524 225.753364,25.7074524 221.378764,26.5444524 C218.628964,27.0706524 216.960364,28.9612524 215.870164,31.4398524 C214.560964,34.4170524 214.196764,37.5520524 214.268764,40.7626524 M201.652564,41.6656524 C201.648364,35.9602524 202.385164,31.3672524 204.725764,27.1558524 C208.218364,20.8732524 213.558964,17.3878524 220.734964,16.7254524 C224.994364,16.3324524 229.169764,16.6480524 233.126164,18.3820524 C238.766164,20.8528524 242.252764,25.2790524 244.209964,30.9880524 C245.589364,35.0110524 245.785564,39.1810524 245.532964,43.3912524 C245.289364,47.4604524 244.331764,51.3274524 242.241364,54.8596524 C238.857364,60.5770524 233.846164,63.8188524 227.246164,64.6252524 C223.247164,65.1136524 219.297964,64.9204524 215.480164,63.5800524 C209.136964,61.3528524 205.250764,56.7352524 203.084764,50.5312524 C201.976564,47.3566524 201.662164,44.0530524 201.652564,41.6656524" id="Fill-48"></path>
                <path d="M134.362504,35.9234724 C134.287504,34.7402724 134.288104,33.6146724 134.129104,32.5118724 C133.890304,30.8600724 133.361704,29.2922724 132.164704,28.0592724 C129.963904,25.7924724 125.133304,25.6592724 122.556304,27.7982724 C120.678904,29.3558724 119.811304,31.4852724 119.313304,33.7952724 C119.165704,34.4780724 119.094904,35.1776724 118.980304,35.9234724 L134.362504,35.9234724 Z M142.670104,51.6926724 C143.819704,54.3080724 144.941704,56.8616724 146.079904,59.4518724 C144.795904,60.5468724 143.352304,61.3298724 141.851704,62.0180724 C137.834104,63.8606724 133.590304,64.7270724 129.193504,64.8518724 C125.155504,64.9658724 121.194904,64.5014724 117.520504,62.6930724 C111.825904,59.8910724 108.443104,55.2086724 106.823104,49.1804724 C105.849304,45.5558724 105.831304,41.8484724 106.036504,38.1308724 C106.226704,34.6832724 106.917904,31.3502724 108.412504,28.2254724 C111.321304,22.1456724 115.922104,18.1394724 122.687704,16.9568724 C126.701704,16.2554724 130.716904,16.3664724 134.612104,17.6684724 C140.116504,19.5086724 143.486704,23.4632724 145.345504,28.8248724 C146.205904,31.3070724 146.600104,33.8834724 146.642104,36.5036724 C146.683504,39.0650724 146.651104,41.6276724 146.651104,44.2754724 L118.824904,44.2754724 C118.896904,44.9762724 118.926304,45.5852724 119.025904,46.1828724 C119.488504,48.9530724 120.550504,51.4232724 122.804704,53.2202724 C124.710904,54.7406724 126.978304,55.1192724 129.349504,55.1726724 C133.887304,55.2746724 138.122704,54.2156724 142.076104,52.0022724 C142.241704,51.9098724 142.412704,51.8270724 142.670104,51.6926724 Z" id="Fill-50"></path>
                <path d="M46.3360236,72.2831724 C63.7126236,72.2567724 77.6614236,58.2263724 77.5894236,40.7303724 C77.5174236,23.3753724 62.9842236,9.42477241 45.6784236,9.75657241 C29.1982236,10.0727724 14.7412236,23.6897724 15.0244236,41.5631724 C15.2944236,58.6229724 29.3068236,72.2969724 46.3360236,72.2831724 M82.0768236,40.9997724 C82.1692236,60.2813724 66.5284236,76.7705724 46.2976236,76.7669724 C26.0266236,76.7633724 10.0792236,60.0905724 10.5352236,40.1783724 C10.9696236,21.2267724 26.3956236,5.27517241 46.3264236,5.27037241 C66.1396236,5.26557241 82.0768236,21.2885724 82.0768236,40.9997724" id="Fill-52"></path>
                <path d="M20.4309036,41.0064324 C20.4309036,55.2726324 32.0313036,66.9450324 46.2663036,66.9102324 C60.7263036,66.8748324 72.1425036,55.2858324 72.2127036,41.1768324 C72.2847036,26.7876324 60.5955036,15.0990324 46.2951036,15.1332324 C32.0061036,15.1668324 20.4309036,26.7462324 20.4309036,41.0064324 M46.2297036,71.3670324 C30.2655036,71.4204324 15.9639036,58.5600324 15.9249036,41.0616324 C15.8865036,23.8434324 29.8977036,10.6308324 46.3593036,10.6560324 C63.1935036,10.6812324 77.0061036,24.4782324 76.6983036,41.5896324 C76.3983036,58.2438324 62.6703036,71.4762324 46.2297036,71.3670324" id="Fill-54"></path>
                <path d="M46.3102836,61.4985324 C57.4804836,61.4979324 66.6904836,52.3665324 66.8386836,41.4159324 C66.9880836,30.3777324 58.2226836,20.5263324 46.3180836,20.5287324 C34.6114836,20.5311324 25.8574836,29.9907324 25.8154836,40.8345324 C25.7704836,52.3149324 34.9174836,61.4991324 46.3102836,61.4985324 M71.2834836,41.0637324 C71.2834836,54.9195324 60.0898836,66.0081324 46.1068836,66.0045324 C32.5210836,66.0003324 21.2980836,54.6837324 21.3178836,41.0079324 C21.3382836,27.1839324 32.5522836,15.9723324 46.4128836,16.0425324 C60.7594836,16.1157324 71.4496836,27.9219324 71.2834836,41.0637324" id="Fill-56"></path>
                <path d="M46.3489836,25.9148124 C37.9873836,25.9118124 31.1989836,32.6786124 31.1965836,41.0180124 C31.1941836,49.2884124 37.9873836,56.1308124 46.2061836,56.1356124 C54.5845836,56.1410124 61.4287836,49.3790124 61.4335836,41.0918124 C61.4389836,32.7254124 54.6727836,25.9178124 46.3489836,25.9148124 M46.2985836,21.4436124 C57.1507836,21.4430124 65.9281836,30.2054124 65.9221836,41.0246124 C65.9161836,52.1762124 56.6047836,60.8516124 45.8605836,60.6074124 C35.9473836,60.3818124 26.7343836,52.3628124 26.7007836,40.9796124 C26.6695836,30.1880124 35.5045836,21.4448124 46.2985836,21.4436124" id="Fill-58"></path>
                <path d="M49.5514836,40.9850124 C49.5616836,42.8324124 48.1270836,44.2952124 46.3090836,44.2904124 C44.5186836,44.2856124 43.0630836,42.8396124 43.0498836,41.0534124 C43.0366836,39.2342124 44.5024836,37.7474124 46.3138836,37.7432124 C48.1036836,37.7396124 49.5418836,39.1790124 49.5514836,40.9850124" id="Fill-60"></path>
            </g>
        </g>
    </g>
</svg>