<?xml version="1.0" encoding="UTF-8"?>
<svg width="242px" height="50px" viewBox="0 0 242 50" version="1.1" xmlns="http://www.w3.org/2000/svg" xmlns:xlink="http://www.w3.org/1999/xlink">
    <!-- Generator: Sketch 52.5 (67469) - http://www.bohemiancoding.com/sketch -->
    <title>Layer_1 2</title>
    <desc>Created with Sketch.</desc>
    <defs>
        <linearGradient x1="0.0128632519%" y1="32.1958904%" x2="789.307938%" y2="32.1958904%" id="linearGradient-1">
            <stop stop-color="#FB6A49" offset="0.5799585%"></stop>
            <stop stop-color="#FC3579" offset="47.69%"></stop>
            <stop stop-color="#7D3CA0" offset="79.23%"></stop>
            <stop stop-color="#2E40B8" offset="100%"></stop>
        </linearGradient>
        <linearGradient x1="-201.618033%" y1="30.8260274%" x2="1106.06393%" y2="30.8260274%" id="linearGradient-2">
            <stop stop-color="#FB6A49" offset="0.5799585%"></stop>
            <stop stop-color="#FC3579" offset="47.69%"></stop>
            <stop stop-color="#7D3CA0" offset="79.23%"></stop>
            <stop stop-color="#2E40B8" offset="100%"></stop>
        </linearGradient>
        <linearGradient x1="-287.124286%" y1="30.4094595%" x2="852.427143%" y2="30.4094595%" id="linearGradient-3">
            <stop stop-color="#FB6A49" offset="0.5799585%"></stop>
            <stop stop-color="#FC3579" offset="47.69%"></stop>
            <stop stop-color="#7D3CA0" offset="79.23%"></stop>
            <stop stop-color="#2E40B8" offset="100%"></stop>
        </linearGradient>
        <linearGradient x1="-477.810436%" y1="50.503%" x2="850.27305%" y2="50.503%" id="linearGradient-4">
            <stop stop-color="#FB6A49" offset="0.5799585%"></stop>
            <stop stop-color="#FC3579" offset="47.69%"></stop>
            <stop stop-color="#7D3CA0" offset="79.23%"></stop>
            <stop stop-color="#2E40B8" offset="100%"></stop>
        </linearGradient>
        <linearGradient x1="-550.667123%" y1="31.7608108%" x2="542.053425%" y2="31.7608108%" id="linearGradient-5">
            <stop stop-color="#FB6A49" offset="0.5799585%"></stop>
            <stop stop-color="#FC3579" offset="47.69%"></stop>
            <stop stop-color="#7D3CA0" offset="79.23%"></stop>
            <stop stop-color="#2E40B8" offset="100%"></stop>
        </linearGradient>
        <linearGradient x1="-649.316%" y1="33.1121622%" x2="414.265333%" y2="33.1121622%" id="linearGradient-6">
            <stop stop-color="#FB6A49" offset="0.5799585%"></stop>
            <stop stop-color="#FC3579" offset="47.69%"></stop>
            <stop stop-color="#7D3CA0" offset="79.23%"></stop>
            <stop stop-color="#2E40B8" offset="100%"></stop>
        </linearGradient>
        <linearGradient x1="-1096.20189%" y1="30.4094595%" x2="408.866038%" y2="30.4094595%" id="linearGradient-7">
            <stop stop-color="#FB6A49" offset="0.5799585%"></stop>
            <stop stop-color="#FC3579" offset="47.69%"></stop>
            <stop stop-color="#7D3CA0" offset="79.23%"></stop>
            <stop stop-color="#2E40B8" offset="100%"></stop>
        </linearGradient>
        <linearGradient x1="-5408.225%" y1="420.858333%" x2="1239.15833%" y2="420.858333%" id="linearGradient-8">
            <stop stop-color="#FB6A49" offset="0.5799585%"></stop>
            <stop stop-color="#FC3579" offset="47.69%"></stop>
            <stop stop-color="#7D3CA0" offset="79.23%"></stop>
            <stop stop-color="#2E40B8" offset="100%"></stop>
        </linearGradient>
        <linearGradient x1="-9299.81429%" y1="31.6943662%" x2="2095.7%" y2="31.6943662%" id="linearGradient-9">
            <stop stop-color="#FB6A49" offset="0.5799585%"></stop>
            <stop stop-color="#FC3579" offset="47.69%"></stop>
            <stop stop-color="#7D3CA0" offset="79.23%"></stop>
            <stop stop-color="#2E40B8" offset="100%"></stop>
        </linearGradient>
        <linearGradient x1="-926.009589%" y1="31.7608108%" x2="166.710959%" y2="31.7608108%" id="linearGradient-10">
            <stop stop-color="#FB6A49" offset="0.5799585%"></stop>
            <stop stop-color="#FC3579" offset="47.69%"></stop>
            <stop stop-color="#7D3CA0" offset="79.23%"></stop>
            <stop stop-color="#2E40B8" offset="100%"></stop>
        </linearGradient>
        <linearGradient x1="-2474.15161%" y1="33.5657534%" x2="99.0290323%" y2="33.5657534%" id="linearGradient-11">
            <stop stop-color="#FB6A49" offset="0.5799585%"></stop>
            <stop stop-color="#FC3579" offset="47.69%"></stop>
            <stop stop-color="#7D3CA0" offset="79.23%"></stop>
            <stop stop-color="#2E40B8" offset="100%"></stop>
        </linearGradient>
        <linearGradient x1="-273.68778%" y1="278.390933%" x2="70.386371%" y2="35.1282469%" id="linearGradient-12">
            <stop stop-color="#FB6A49" offset="0.5799585%"></stop>
            <stop stop-color="#FC3579" offset="43.58%"></stop>
            <stop stop-color="#7326A2" offset="78.6%"></stop>
            <stop stop-color="#241DBA" offset="100%"></stop>
        </linearGradient>
        <linearGradient x1="-5.7116049%" y1="84.5978089%" x2="89.5032698%" y2="25.6170356%" id="linearGradient-13">
            <stop stop-color="#FB6A49" offset="0.5799585%"></stop>
            <stop stop-color="#FC3579" offset="43.58%"></stop>
            <stop stop-color="#7326A2" offset="78.6%"></stop>
            <stop stop-color="#241DBA" offset="100%"></stop>
        </linearGradient>
    </defs>
    <g id="Symbols" stroke="none" stroke-width="1" fill="none" fill-rule="evenodd">
        <g id="Menu-white-color" transform="translate(-9.000000, -2.000000)" fill-rule="nonzero">
            <g id="Layer_1-2" transform="translate(9.000000, 2.000000)">
                <g id="Layer_1">
                    <g id="Group">
                        <g transform="translate(166.571354, 39.303353)">
                            <path d="M7.57993241,3.08812061 C6.64413829,3.08812061 5.80192358,3.55601768 5.33402651,4.4918118 C4.95970886,3.64959709 4.21107356,3.08812061 3.27527944,3.08812061 C2.43306473,3.08812061 1.59085001,3.46243826 1.12295295,4.39823239 L1.12295295,3.27527944 L0.467897063,3.27527944 L0.467897063,9.91941773 L1.12295295,9.91941773 L1.12295295,6.17624123 C1.12295295,4.4918118 2.05874708,3.7431765 3.18170003,3.7431765 C4.21107356,3.7431765 4.86612945,4.39823239 4.86612945,5.70834416 L4.86612945,9.91941773 L5.52118534,9.91941773 L5.52118534,6.17624123 C5.52118534,4.4918118 6.36340005,3.7431765 7.486353,3.7431765 C8.51572654,3.7431765 9.26436184,4.39823239 9.26436184,5.70834416 L9.26436184,9.91941773 L9.91941773,9.91941773 L9.91941773,5.61476475 C10.0129971,4.02391474 8.9836236,3.08812061 7.57993241,3.08812061 Z" id="Path" fill="url(#linearGradient-1)"></path>
                            <path d="M16.9378737,6.7377177 C16.9378737,8.51572654 15.9085001,9.35794125 14.5983884,9.35794125 C13.381856,9.35794125 12.6332207,8.51572654 12.6332207,7.29919418 L12.6332207,3.18170003 L11.9781648,3.18170003 L11.9781648,7.29919418 C11.9781648,8.89004419 13.0075383,10.0129971 14.5983884,10.0129971 C15.6277619,10.0129971 16.4699766,9.54510008 17.0314531,8.60930595 L17.0314531,9.91941773 L17.686509,9.91941773 L17.686509,3.27527944 L17.0314531,3.27527944 L17.0314531,6.7377177 L16.9378737,6.7377177 Z" id="Path" fill="url(#linearGradient-2)"></path>
                            <path d="M22.8333767,9.35794125 C21.2425266,9.35794125 20.0259943,8.14140889 20.0259943,6.55055888 C20.0259943,4.95970886 21.2425266,3.7431765 22.8333767,3.7431765 C23.8627502,3.7431765 24.7985443,4.30465298 25.172862,5.14686769 L25.7343384,4.86612945 C25.2664414,3.83675591 24.1434884,3.18170003 22.8333767,3.18170003 C20.7746296,3.18170003 19.277359,4.67897063 19.277359,6.64413829 C19.277359,8.60930595 20.7746296,10.1065766 22.8333767,10.1065766 C24.1434884,10.1065766 25.2664414,9.45152067 25.8279179,8.42214713 L25.2664414,8.04782948 C24.7985443,8.79646478 23.9563296,9.35794125 22.8333767,9.35794125 Z" id="Path" fill="url(#linearGradient-3)"></path>
                            <path d="M30.4133091,3.08812061 C29.3839355,3.08812061 28.5417208,3.55601768 27.9802443,4.4918118 L27.9802443,0.561476475 L27.3251885,0.561476475 L27.3251885,9.91941773 L27.9802443,9.91941773 L27.9802443,6.36340005 C27.9802443,4.58539121 29.0096179,3.7431765 30.3197297,3.7431765 C31.536262,3.7431765 32.2848973,4.58539121 32.2848973,5.80192358 L32.2848973,9.91941773 L32.9399532,9.91941773 L32.9399532,5.80192358 C33.0335326,4.11749415 32.0041591,3.08812061 30.4133091,3.08812061 Z" id="Path" fill="url(#linearGradient-4)"></path>
                            <path d="M41.5492592,3.08812061 C39.4905121,3.08812061 38.0868209,4.58539121 38.0868209,6.55055888 C38.0868209,8.60930595 39.5840915,10.0129971 41.6428386,10.0129971 C42.9529504,10.0129971 43.9823239,9.45152067 44.5438004,8.51572654 L43.9823239,8.14140889 C43.6080062,8.89004419 42.7657915,9.35794125 41.6428386,9.35794125 C40.145568,9.35794125 38.9290356,8.32856772 38.8354562,6.83129711 L44.918118,6.83129711 C44.918118,6.7377177 44.918118,6.64413829 44.918118,6.55055888 C44.8245386,4.77255004 43.5144268,3.08812061 41.5492592,3.08812061 Z M38.7418768,6.26982064 C38.8354562,4.77255004 39.9584091,3.7431765 41.5492592,3.7431765 C42.8593709,3.7431765 43.9823239,4.67897063 44.1694827,6.26982064 L38.7418768,6.26982064 Z" id="Shape" fill="url(#linearGradient-5)"></path>
                            <path d="M52.404471,4.67897063 C51.8429945,3.64959709 50.813621,2.9945412 49.5035092,2.9945412 C47.631921,2.9945412 46.041071,4.4918118 46.041071,6.45697946 C46.041071,8.42214713 47.631921,9.91941773 49.5035092,9.91941773 C50.813621,9.91941773 51.8429945,9.26436184 52.404471,8.2349883 L52.404471,9.7322589 L53.0595269,9.7322589 L53.0595269,3.08812061 L52.404471,3.08812061 L52.404471,4.67897063 Z M49.5970886,9.35794125 C48.0062386,9.35794125 46.7897063,8.14140889 46.7897063,6.55055888 C46.7897063,4.95970886 48.0062386,3.7431765 49.5970886,3.7431765 C51.1879387,3.7431765 52.404471,4.95970886 52.404471,6.55055888 C52.404471,8.14140889 51.1879387,9.35794125 49.5970886,9.35794125 Z" id="Shape" fill="url(#linearGradient-6)"></path>
                            <path d="M55.6797505,4.95970886 C55.6797505,4.11749415 56.4283858,3.7431765 57.2706005,3.7431765 C58.0192358,3.7431765 58.6742917,4.02391474 58.9550299,4.77255004 L59.5165064,4.4918118 C59.1421887,3.64959709 58.299974,3.18170003 57.2706005,3.18170003 C55.8669093,3.18170003 55.0246946,4.02391474 55.0246946,5.05328828 C55.0246946,7.486353 59.0486093,6.45697946 59.0486093,8.2349883 C59.0486093,9.07720302 58.299974,9.45152067 57.3641799,9.45152067 C56.3348063,9.45152067 55.6797505,8.9836236 55.3990122,8.2349883 L54.8375357,8.60930595 C55.118274,9.45152067 56.0540681,10.1065766 57.3641799,10.1065766 C58.7678711,10.1065766 59.7972446,9.26436184 59.7972446,8.2349883 C59.7036652,5.70834416 55.6797505,6.7377177 55.6797505,4.95970886 Z" id="Path" fill="url(#linearGradient-7)"></path>
                            <path d="M61.7624123,0.561476475 C61.481674,0.561476475 61.2009358,0.842214713 61.2009358,1.12295295 C61.2009358,1.40369119 61.481674,1.68442943 61.7624123,1.68442943 C62.0431505,1.68442943 62.3238887,1.40369119 62.3238887,1.12295295 C62.2303093,0.7486353 62.0431505,0.561476475 61.7624123,0.561476475 Z" id="Path" fill="url(#linearGradient-8)"></path>
                            <rect id="Rectangle" fill="url(#linearGradient-9)" x="61.3880946" y="3.18170003" width="1" height="6.64413829"></rect>
                            <path d="M67.1900182,3.08812061 C65.1312711,3.08812061 63.7275799,4.58539121 63.7275799,6.55055888 C63.7275799,8.60930595 65.2248505,10.0129971 67.2835976,10.0129971 C68.5937094,10.0129971 69.6230829,9.45152067 70.1845594,8.51572654 L69.6230829,8.14140889 C69.2487653,8.89004419 68.4065506,9.35794125 67.2835976,9.35794125 C65.786327,9.35794125 64.5697946,8.32856772 64.4762152,6.83129711 L70.558877,6.83129711 C70.558877,6.7377177 70.558877,6.64413829 70.558877,6.55055888 C70.558877,4.77255004 69.2487653,3.08812061 67.1900182,3.08812061 Z M64.4762152,6.26982064 C64.5697946,4.77255004 65.6927476,3.7431765 67.2835976,3.7431765 C68.5937094,3.7431765 69.7166623,4.67897063 69.9038212,6.26982064 L64.4762152,6.26982064 Z" id="Shape" fill="url(#linearGradient-10)"></path>
                            <path d="M72.8983624,4.4918118 L72.8983624,3.18170003 L72.2433065,3.18170003 L72.2433065,9.82583832 L72.8983624,9.82583832 L72.8983624,6.08266181 C72.8983624,4.39823239 74.0213153,3.64959709 75.1442683,3.64959709 L75.1442683,2.9945412 C74.2084741,3.08812061 73.3662594,3.46243826 72.8983624,4.4918118 Z" id="Path" fill="url(#linearGradient-11)"></path>
                        </g>
                        <g>
                            <path d="M30.7876267,7.67351183 C31.8170003,8.14140889 32.7527944,8.70288537 33.6885885,9.45152067 C34.3436444,9.91941773 34.9987003,10.4808942 35.6537562,11.1359501 C36.0280738,11.5102677 36.4023915,11.9781648 36.7767091,12.3524825 C37.3381856,13.1011178 38.1804003,13.4754354 39.1161944,13.4754354 C39.7712503,13.4754354 40.4263062,13.2882766 40.9877827,12.8203795 C42.2978945,11.791006 42.3914739,9.91941773 41.3621003,8.60930595 C40.8942033,8.04782948 40.4263062,7.486353 39.8648297,7.01845594 C39.022615,6.17624123 38.1804003,5.42760593 37.2446062,4.77255004 C36.0280738,3.83675591 34.717962,3.08812061 33.3142709,2.43306473 C31.8170003,1.68442943 30.0389914,2.33948531 29.3839355,3.83675591 C28.7288796,5.2404471 29.3839355,7.01845594 30.7876267,7.67351183 Z" id="Path" fill="url(#linearGradient-12)"></path>
                            <path d="M46.7897063,23.3948531 C46.7897063,21.7104237 45.4795945,20.4003119 43.7951651,20.4003119 L40.613465,20.4003119 C40.613465,20.4003119 40.613465,20.4003119 40.613465,20.4003119 L34.6243826,20.4003119 C33.3142709,15.4406031 28.8224591,11.791006 23.3948531,11.791006 C17.0314531,11.791006 11.791006,17.0314531 11.791006,23.3948531 C11.791006,29.7582532 17.0314531,34.9987003 23.3948531,34.9987003 C28.7288796,34.9987003 33.3142709,31.3491032 34.6243826,26.3893943 L40.5198856,26.3893943 C39.022615,34.8115415 31.536262,41.1749415 22.5526384,40.8006239 C13.4754354,40.3327268 6.26982064,32.9399532 5.9890824,23.8627502 C5.70834416,14.1304913 13.5690148,6.08266181 23.3012737,5.9890824 C24.8921237,5.9890824 26.2958149,4.67897063 26.3893943,3.08812061 C26.4829737,1.40369119 25.0792826,0 23.3948531,0 C10.1065766,0 -0.655055888,11.1359501 0.0935794125,24.6113855 C0.7486353,36.5895503 10.2937354,46.1346504 22.1783208,46.7897063 C35.5601768,47.5383416 46.7897063,36.7767091 46.7897063,23.3948531 C46.7897063,23.4884325 46.7897063,23.3948531 46.7897063,23.3948531 Z M23.3948531,29.1031973 C20.3067325,29.1031973 17.7800884,26.5765532 17.7800884,23.4884325 C17.7800884,20.4003119 20.3067325,17.8736678 23.3948531,17.8736678 C26.4829737,17.8736678 29.0096179,20.4003119 29.0096179,23.4884325 C29.0096179,26.5765532 26.4829737,29.1031973 23.3948531,29.1031973 Z" id="Shape" fill="url(#linearGradient-13)"></path>
                        </g>
                        <g transform="translate(59.890824, 12.165324)" fill="#FFFFFF">
                            <path d="M29.6646738,8.32856772 C28.4481414,6.7377177 26.6701326,5.9890824 24.4242267,5.9890824 C22.2719002,5.9890824 20.4938913,6.83129711 18.9030413,8.42214713 C17.4057707,10.0129971 16.6571354,12.0717442 16.6571354,14.4112295 C16.6571354,16.7507148 17.4057707,18.8094619 18.9030413,20.4003119 C20.4003119,21.9911619 22.2719002,22.8333767 24.4242267,22.8333767 C26.6701326,22.8333767 28.354562,22.0847414 29.6646738,20.4938913 L29.6646738,22.3654796 L33.7821679,22.3654796 L33.7821679,6.36340005 L29.6646738,6.36340005 L29.6646738,8.32856772 Z M28.4481414,17.686509 C27.6059267,18.5287237 26.5765532,18.9966207 25.2664414,18.9966207 C23.9563296,18.9966207 22.9269561,18.6223031 22.0847414,17.686509 C21.2425266,16.8442943 20.868209,15.7213413 20.868209,14.4112295 C20.868209,13.1011178 21.2425266,11.9781648 22.0847414,11.1359501 C22.9269561,10.2937354 23.9563296,9.82583832 25.2664414,9.82583832 C26.5765532,9.82583832 27.6059267,10.2937354 28.4481414,11.1359501 C29.2903561,11.9781648 29.7582532,13.1011178 29.7582532,14.4112295 C29.6646738,15.7213413 29.2903561,16.8442943 28.4481414,17.686509 Z" id="Shape"></path>
                            <path d="M46.6025474,13.4754354 C45.7603327,13.1946972 45.0116974,12.9139589 44.1694827,12.7268001 C43.327268,12.5396413 42.6722121,12.258903 42.1107356,11.9781648 C41.5492592,11.6974266 41.2685209,11.3231089 41.2685209,10.9487913 C41.2685209,10.5744736 41.4556798,10.200156 41.8299974,10.0129971 C42.2043151,9.7322589 42.5786327,9.63867949 43.1401092,9.63867949 C44.3566415,9.63867949 45.1988563,10.200156 45.6667533,11.2295295 L49.222771,9.35794125 C48.5677151,8.2349883 47.7255004,7.39277359 46.6961269,6.83129711 C45.6667533,6.26982064 44.450221,5.9890824 43.1401092,5.9890824 C41.4556798,5.9890824 39.9584091,6.45697946 38.8354562,7.39277359 C37.7125032,8.32856772 37.0574474,9.54510008 37.0574474,11.1359501 C37.0574474,12.1653236 37.3381856,13.0075383 37.8996621,13.7561736 C38.4611385,14.4112295 39.1161944,14.972706 39.9584091,15.2534442 C40.8006239,15.5341825 41.5492592,15.8149207 42.3914739,16.095659 C43.2336886,16.2828178 43.8887445,16.563556 44.450221,16.8442943 C45.0116974,17.1250325 45.2924357,17.4993501 45.2924357,17.8736678 C45.2924357,18.8094619 44.5438004,19.277359 43.0465298,19.277359 C41.4556798,19.277359 40.4263062,18.6223031 39.9584091,17.2186119 L36.4023915,19.277359 C37.6189238,21.8040031 39.8648297,23.1141149 43.1401092,23.1141149 C45.0116974,23.1141149 46.508968,22.6462178 47.7255004,21.8040031 C48.9420328,20.9617884 49.5970886,19.6516766 49.5970886,17.9672472 C49.5970886,16.8442943 49.3163504,16.0020795 48.7548739,15.2534442 C48.099818,14.3176501 47.4447622,13.7561736 46.6025474,13.4754354 Z" id="Path"></path>
                            <path d="M59.0486093,17.1250325 L54.8375357,6.36340005 L50.3457239,6.36340005 L56.8962828,21.8040031 C56.5219652,22.9269561 55.9604887,23.6755914 55.3054328,24.1434884 C54.6503769,24.6113855 53.8081622,24.8921237 52.6852093,24.8921237 L52.6852093,28.7288796 C54.7439563,28.8224591 56.4283858,28.354562 57.8320769,27.3251885 C59.2357681,26.2958149 60.2651417,24.6113855 61.1073564,22.3654796 L66.90928,6.36340005 L62.5110476,6.36340005 L59.0486093,17.1250325 Z" id="Path"></path>
                            <path d="M95.8253184,5.9890824 C93.4858331,5.9890824 91.427086,6.83129711 89.836236,8.42214713 C88.245386,10.0129971 87.4031713,12.0717442 87.4031713,14.4112295 C87.4031713,16.7507148 88.245386,18.8094619 89.836236,20.4003119 C91.427086,21.9911619 93.4858331,22.8333767 95.8253184,22.8333767 C98.1648037,22.8333767 100.223551,21.9911619 101.814401,20.4003119 C103.49883,18.8094619 104.247466,16.7507148 104.247466,14.4112295 C104.247466,12.0717442 103.405251,10.0129971 101.814401,8.42214713 C100.223551,6.7377177 98.1648037,5.9890824 95.8253184,5.9890824 Z M98.913439,17.5929296 C98.0712243,18.4351443 97.0418508,18.8094619 95.8253184,18.8094619 C94.6087861,18.8094619 93.5794125,18.4351443 92.7371978,17.5929296 C91.8949831,16.7507148 91.5206655,15.7213413 91.5206655,14.4112295 C91.5206655,13.1011178 91.8949831,12.0717442 92.7371978,11.2295295 C93.5794125,10.3873148 94.6087861,10.0129971 95.8253184,10.0129971 C97.0418508,10.0129971 98.0712243,10.3873148 98.913439,11.2295295 C99.7556538,12.0717442 100.129971,13.1011178 100.129971,14.4112295 C100.129971,15.7213413 99.7556538,16.7507148 98.913439,17.5929296 Z" id="Shape"></path>
                            <path d="M116.412789,5.9890824 C114.166883,5.9890824 112.482454,6.7377177 111.265921,8.32856772 L111.265921,0 L107.148427,0 L107.148427,22.3654796 L111.265921,22.3654796 L111.265921,20.4938913 C112.482454,22.0847414 114.166883,22.8333767 116.412789,22.8333767 C118.565116,22.8333767 120.436704,21.9911619 121.933975,20.4003119 C123.431245,18.8094619 124.17988,16.7507148 124.17988,14.4112295 C124.17988,12.0717442 123.431245,10.0129971 121.933975,8.42214713 C120.436704,6.7377177 118.565116,5.9890824 116.412789,5.9890824 Z M118.845854,17.686509 C118.003639,18.5287237 116.974266,18.9966207 115.664154,18.9966207 C114.354042,18.9966207 113.324669,18.6223031 112.482454,17.686509 C111.640239,16.8442943 111.265921,15.7213413 111.265921,14.4112295 C111.265921,13.1011178 111.640239,11.9781648 112.482454,11.1359501 C113.324669,10.2937354 114.354042,9.82583832 115.664154,9.82583832 C116.974266,9.82583832 118.003639,10.2937354 118.845854,11.1359501 C119.688069,11.9781648 120.155966,13.1011178 120.155966,14.4112295 C120.155966,15.7213413 119.688069,16.8442943 118.845854,17.686509 Z" id="Shape"></path>
                            <path d="M139.339745,8.32856772 C138.123213,6.7377177 136.345204,5.9890824 134.099298,5.9890824 C131.946972,5.9890824 130.168963,6.83129711 128.578113,8.42214713 C127.080842,10.0129971 126.332207,12.0717442 126.332207,14.4112295 C126.332207,16.7507148 127.080842,18.8094619 128.578113,20.4003119 C130.075383,21.9911619 131.946972,22.8333767 134.099298,22.8333767 C136.345204,22.8333767 138.029633,22.0847414 139.339745,20.4938913 L139.339745,22.3654796 L143.457239,22.3654796 L143.457239,6.36340005 L139.339745,6.36340005 L139.339745,8.32856772 Z M138.029633,17.686509 C137.187419,18.5287237 136.158045,18.9966207 134.847933,18.9966207 C133.537822,18.9966207 132.508448,18.6223031 131.666233,17.686509 C130.824019,16.8442943 130.449701,15.7213413 130.449701,14.4112295 C130.449701,13.1011178 130.824019,11.9781648 131.666233,11.1359501 C132.508448,10.2937354 133.537822,9.82583832 134.847933,9.82583832 C136.158045,9.82583832 137.187419,10.2937354 138.029633,11.1359501 C138.871848,11.9781648 139.246166,13.1011178 139.246166,14.4112295 C139.339745,15.7213413 138.871848,16.8442943 138.029633,17.686509 Z" id="Shape"></path>
                            <path d="M155.996881,5.9890824 C153.844554,5.9890824 152.253704,6.7377177 151.224331,8.2349883 L151.224331,6.45697946 L147.106836,6.45697946 L147.106836,22.459059 L151.224331,22.459059 L151.224331,13.8497531 C151.224331,12.5396413 151.505069,11.5102677 152.160125,10.8552119 C152.815181,10.200156 153.657395,9.82583832 154.686769,9.82583832 C155.622563,9.82583832 156.371198,10.1065766 157.026254,10.668053 C157.587731,11.2295295 157.868469,12.0717442 157.868469,13.1011178 L157.868469,22.3654796 L161.985963,22.3654796 L161.985963,12.5396413 C161.985963,10.4808942 161.424487,8.89004419 160.301534,7.67351183 C159.178581,6.55055888 157.77489,5.9890824 155.996881,5.9890824 Z" id="Path"></path>
                            <path d="M177.707304,0 L177.707304,8.32856772 C176.490772,6.7377177 174.806343,5.9890824 172.560437,5.9890824 C170.40811,5.9890824 168.536522,6.83129711 167.039251,8.42214713 C165.541981,10.0129971 164.793345,12.0717442 164.793345,14.4112295 C164.793345,16.7507148 165.541981,18.8094619 167.039251,20.4003119 C168.536522,21.9911619 170.40811,22.8333767 172.560437,22.8333767 C174.806343,22.8333767 176.490772,22.0847414 177.707304,20.4938913 L177.707304,22.3654796 L181.824799,22.3654796 L181.824799,0 L177.707304,0 Z M176.490772,17.686509 C175.648557,18.5287237 174.619184,18.9966207 173.309072,18.9966207 C171.99896,18.9966207 170.969587,18.6223031 170.127372,17.686509 C169.285157,16.8442943 168.91084,15.7213413 168.91084,14.4112295 C168.91084,13.1011178 169.285157,11.9781648 170.127372,11.1359501 C170.969587,10.2937354 171.99896,9.82583832 173.309072,9.82583832 C174.619184,9.82583832 175.648557,10.2937354 176.490772,11.1359501 C177.332987,11.9781648 177.707304,13.1011178 177.707304,14.4112295 C177.707304,15.7213413 177.332987,16.8442943 176.490772,17.686509 Z" id="Shape"></path>
                            <path d="M80.4782948,8.42214713 C79.2617624,6.83129711 77.577333,5.9890824 75.3314271,5.9890824 C73.0855212,5.9890824 71.2139329,6.83129711 69.6230829,8.42214713 C68.1258123,10.0129971 67.2835976,11.9781648 67.2835976,14.2240707 C67.2835976,16.4699766 68.0322329,18.4351443 69.5295035,20.0259943 C71.0267741,21.6168443 72.9919418,22.3654796 75.2378477,22.3654796 C77.3901742,22.3654796 79.168183,21.5232649 80.3847154,19.9324149 L80.3847154,21.6168443 C80.3847154,22.8333767 80.0103977,23.8627502 79.2617624,24.5178061 C78.5131271,25.172862 77.4837536,25.5471796 76.1736418,25.5471796 C74.4892124,25.5471796 73.1791006,24.9857031 72.3368859,23.8627502 L67.9386535,23.8627502 C68.1258123,24.7985443 68.6872888,25.640759 68.7808682,25.7343384 C69.4359241,26.763712 70.3717182,27.6059267 71.5882506,28.1674032 C72.8983624,28.8224591 74.395633,29.1967767 76.1736418,29.1967767 C78.5131271,29.1967767 80.4782948,28.5417208 82.0691448,27.231609 C83.6599948,25.9214973 84.5022095,24.049909 84.5022095,21.5232649 L84.5022095,6.36340005 L80.4782948,6.36340005 L80.4782948,8.42214713 Z M79.2617624,17.3121913 C78.4195477,18.154406 77.3901742,18.5287237 76.0800624,18.5287237 C74.7699506,18.5287237 73.7405771,18.154406 72.8983624,17.3121913 C72.0561476,16.4699766 71.68183,15.4406031 71.68183,14.1304913 C71.68183,12.9139589 72.0561476,11.791006 72.8983624,11.0423707 C73.7405771,10.200156 74.7699506,9.82583832 76.0800624,9.82583832 C77.3901742,9.82583832 78.4195477,10.200156 79.2617624,11.0423707 C80.1039771,11.8845854 80.4782948,12.9139589 80.4782948,14.1304913 C80.4782948,15.4406031 80.1039771,16.4699766 79.2617624,17.3121913 Z" id="Shape"></path>
                            <polygon id="Path" points="0.7486353 22.3654796 14.5983884 22.3654796 14.5983884 18.154406 5.14686769 18.154406 5.14686769 13.1946972 12.5396413 13.1946972 12.5396413 8.9836236 5.14686769 8.9836236 5.14686769 4.21107356 14.5983884 4.21107356 14.5983884 0 0.7486353 0"></polygon>
                        </g>
                    </g>
                </g>
            </g>
        </g>
    </g>
</svg>
