<?xml version="1.0" encoding="UTF-8"?>
<svg width="219px" height="103px" viewBox="0 0 219 103" version="1.1" xmlns="http://www.w3.org/2000/svg" xmlns:xlink="http://www.w3.org/1999/xlink">
    <!-- Generator: Sketch 59.1 (86144) - https://sketch.com -->
    <title>Group 5</title>
    <desc>Created with Sketch.</desc>
    <defs>
        <polygon id="path-1" points="0.2805 0.2628 48.1970222 0.2628 48.1970222 79.5915 0.2805 79.5915"></polygon>
    </defs>
    <g id="WEB" stroke="none" stroke-width="1" fill="none" fill-rule="evenodd">
        <g id="COMBI-PRODUCTOS-SECTORES-HOST" transform="translate(-133.000000, -265.000000)">
            <g id="Group-5" transform="translate(133.000000, 265.000000)">
                <g id="Group-3">
                    <mask id="mask-2" fill="white">
                        <use xlink:href="#path-1"></use>
                    </mask>
                    <g id="Clip-2"></g>
                    <path d="M15.0951,79.5915 L0.2805,79.5915 L0.2805,0.2625 L15.0675,0.2625 L15.0675,31.3869 C15.5943,30.7425 15.9663,30.2649 16.3623,29.8083 C19.7097,25.9443 23.8647,23.7099 29.0367,23.5305 C33.1335,23.3883 36.9885,24.1593 40.4019,26.5671 C43.8747,29.0175 45.8703,32.4597 46.9827,36.4791 C47.8191,39.4989 48.1833,42.5895 48.1881,45.7149 C48.2037,56.7309 48.1941,67.7469 48.1941,78.7629 L48.1941,79.5789 L33.3369,79.5789 L33.3369,78.7029 C33.3369,68.0469 33.3723,57.3909 33.3051,46.7355 C33.2925,44.7417 33.0429,42.7101 32.5971,40.7667 C31.8039,37.3125 29.7825,35.5563 26.2491,35.2041 C22.4949,34.8297 19.0101,35.5983 16.1073,38.2257 C15.4185,38.8485 15.0651,39.5091 15.0681,40.5147 C15.1089,53.2107 15.0951,65.9067 15.0951,78.6027 L15.0951,79.5915 Z" id="Fill-1" fill="#FFFFFE" mask="url(#mask-2)"></path>
                </g>
                <path d="M166.3404,41.19618 C166.29,38.88918 165.5364,36.93798 163.7442,35.46918 C162.4734,34.42758 160.9638,33.99198 159.3678,33.84858 C156.8712,33.62478 154.4712,33.88878 152.4522,35.57178 C149.2998,38.20038 149.7366,42.77298 153.4284,44.53278 C155.2638,45.40818 157.2762,45.98598 159.267,46.44498 C163.0188,47.31018 166.797,48.04878 170.3796,49.51398 C172.8324,50.51658 175.17,51.72978 177.1386,53.53518 C179.9448,56.10978 181.2024,59.37138 181.314,63.13938 C181.5192,70.05498 177.957,74.60178 172.1532,77.70258 C168.3612,79.72818 164.2362,80.46558 159.9804,80.64258 C155.04,80.84838 150.2004,80.37978 145.6752,78.25098 C141.0762,76.08738 137.5398,72.79638 135.5916,67.99578 C134.9172,66.33498 134.6694,64.58238 134.6856,62.79198 C134.6892,62.37858 134.7156,62.04918 135.2904,62.05098 C139.5588,62.06778 143.8278,62.06178 148.0962,62.06538 C148.188,62.06538 148.2792,62.09838 148.374,62.11698 C148.4874,62.81898 148.5804,63.50238 148.7094,64.17858 C149.1936,66.71358 150.6618,68.48418 153.033,69.42438 C156.4788,70.79118 159.9978,70.92558 163.4598,69.53058 C166.0782,68.47578 167.3922,65.81118 166.7436,63.21558 C166.3452,61.62198 165.2604,60.55758 163.9044,59.75178 C162.0318,58.63938 159.957,58.04058 157.8582,57.56118 C154.293,56.74698 150.699,56.04978 147.2922,54.66558 C144.5244,53.53998 141.9,52.17678 139.7544,50.03478 C137.382,47.66598 136.2402,44.75898 136.1058,41.45238 C135.8196,34.40538 139.4424,29.67138 145.266,26.35998 C148.6602,24.42978 152.4174,23.71998 156.2916,23.55318 C160.8066,23.35878 165.2388,23.75778 169.4724,25.44918 C173.6424,27.11478 177.0738,29.69898 179.2548,33.72258 C180.4212,35.87478 180.8862,38.20638 180.8358,40.64778 C180.828,41.02938 180.7644,41.27658 180.282,41.27538 C175.7256,41.26098 171.1692,41.26458 166.6122,41.26098 C166.545,41.26098 166.4778,41.22978 166.3404,41.19618" id="Fill-4" fill="#FFFFFE"></path>
                <path d="M217.60518,68.52774 C217.81218,70.31274 218.02878,72.16494 218.24058,74.01714 C218.41458,75.54054 218.57418,77.06574 218.76198,78.58734 C218.80398,78.92754 218.83518,79.16034 218.41518,79.29654 C213.54078,80.87454 208.60518,81.30294 203.64978,79.82634 C198.62178,78.32874 195.64098,74.81574 194.56638,69.74994 C194.12778,67.67874 193.88178,65.52954 193.86498,63.41334 C193.78998,54.27054 193.83258,45.12654 193.83258,35.98254 L193.83258,34.98774 L185.82018,34.98774 L185.82018,24.56394 L193.80498,24.56394 L193.80498,11.09274 L208.69578,11.09274 L208.69578,24.51354 L217.94598,24.51354 L217.94598,34.97454 L208.75758,34.97454 C208.74198,35.30274 208.71858,35.55714 208.71858,35.81094 C208.71678,44.93094 208.71258,54.05034 208.72638,63.16974 C208.72758,63.90774 208.78638,64.66194 208.94298,65.38074 C209.41758,67.55454 211.07838,68.93454 213.31098,68.91114 C214.70958,68.89674 216.10578,68.66934 217.60518,68.52774" id="Fill-6" fill="#FFFFFE"></path>
                <path d="M91.52094,64.72536 C97.42074,64.20756 101.47254,61.23756 103.81254,55.78716 C109.33854,57.59256 114.86694,59.39916 120.30894,61.17696 C119.73714,62.39796 119.20194,63.58656 118.63014,64.75656 C116.40714,69.30156 113.24334,73.06536 109.16334,76.04736 C103.88214,79.90776 98.58774,83.75016 93.27774,87.57156 C92.95794,87.80196 92.36514,87.96336 92.06214,87.81756 C91.76274,87.67356 91.51254,87.09996 91.51074,86.71356 C91.47894,79.51656 91.48734,72.31896 91.48854,65.12136 C91.48914,65.00316 91.50774,64.88496 91.52094,64.72536" id="Fill-8" fill="#FFFFFE"></path>
                <path d="M104.0757,54.93438 C105.4383,49.18698 103.8723,44.39538 99.3855,40.46598 C102.7959,35.78958 106.2177,31.09818 109.5939,26.46858 C110.0361,26.92698 110.4135,27.39138 110.8617,27.77298 C115.6713,31.86378 118.8339,36.99018 120.6897,43.00878 C122.4435,48.69678 124.3437,54.33978 126.1797,60.00258 C126.2385,60.18378 126.3513,60.36978 126.3417,60.54798 C126.3201,60.92718 126.3591,61.42938 126.1407,61.64478 C125.9205,61.86198 125.3727,61.93398 125.0463,61.82838 C118.1343,59.59758 111.2325,57.33258 104.3295,55.07178 C104.2425,55.04298 104.1651,54.98358 104.0757,54.93438" id="Fill-10" fill="#FFFFFE"></path>
                <path d="M90.61914,64.71924 L90.61914,82.20084 C88.20714,81.78804 85.79394,81.49824 83.44254,80.94444 C79.48374,80.01204 75.91974,78.18264 72.63834,75.77844 C67.63374,72.11124 62.60574,68.47644 57.58794,64.82724 C57.45234,64.72824 57.28074,64.65264 57.19134,64.52184 C56.96154,64.18824 56.55534,63.78324 56.61774,63.49284 C56.69094,63.15024 57.13554,62.75604 57.50274,62.63004 C60.34974,61.65384 63.21714,60.73644 66.07854,59.80104 C70.02954,58.50984 73.98114,57.21804 77.93214,55.92744 C78.04374,55.89084 78.15714,55.86204 78.31314,55.81704 C80.62254,61.22124 84.67674,64.22604 90.61914,64.71924" id="Fill-12" fill="#FFFFFE"></path>
                <path d="M82.7322,40.45272 C78.2502,44.38392 76.6698,49.17072 78.0534,54.99492 C72.5568,56.79792 67.0518,58.60392 61.6182,60.38592 C61.35,58.92912 61.068,57.49392 60.8238,56.05272 C59.961,50.96232 60.5226,45.99612 62.1234,41.11512 C64.0524,35.23332 65.9568,29.34252 67.872,23.45592 C67.9164,23.31972 67.9314,23.15712 68.016,23.05332 C68.2716,22.74192 68.5236,22.25892 68.8356,22.20912 C69.1518,22.15872 69.6474,22.45992 69.8742,22.75392 C70.956,24.15792 71.9718,25.61292 73.0134,27.04752 C76.11,31.31352 79.2072,35.57832 82.3044,39.84432 C82.4436,40.03632 82.5774,40.23252 82.7322,40.45272" id="Fill-14" fill="#FFFFFE"></path>
                <path d="M73.29564,26.02302 C74.50404,25.35822 75.63864,24.71442 76.79064,24.10422 C81.25164,21.74082 86.01024,20.56302 91.05804,20.56062 C97.60224,20.55822 104.14704,20.56242 110.69124,20.5552056 C111.17184,20.55462 111.70044,20.57022 111.82404,21.08322 C111.91044,21.44202 111.81084,21.96042 111.59364,22.26162 C107.35344,28.12602 103.08444,33.96882 98.82024,39.81582 C98.79264,39.85362 98.75304,39.88242 98.67984,39.95322 C93.63984,36.87702 88.56084,36.85002 83.42484,39.95742 C80.03964,35.30082 76.64664,30.63342 73.29564,26.02302" id="Fill-16" fill="#FFFFFE"></path>
                <path d="M178.76736,96.21804 C178.76736,95.88324 178.74696,95.54664 178.77156,95.21364 C178.81836,94.57524 178.52556,94.22964 177.91116,94.11144 C177.28416,93.99084 176.81076,94.20024 176.58156,94.79364 C176.23476,95.68884 176.20176,96.61524 176.51256,97.52724 C176.72556,98.15244 177.23796,98.41284 177.87036,98.28804 C178.49496,98.16504 178.85136,97.84344 178.77336,97.15044 C178.73856,96.84324 178.76736,96.52884 178.76736,96.21804 M178.87596,93.40944 C178.94916,93.19464 179.01696,92.99604 179.09736,92.76144 L180.56316,92.76144 C180.59976,92.80224 180.65856,92.83704 180.65856,92.87184 C180.65436,95.21904 180.70056,97.56744 180.61476,99.91164 C180.56676,101.21724 179.84136,101.93244 178.57836,102.27504 C177.50556,102.56604 176.14836,102.39444 175.13916,101.81964 C175.23936,101.40144 175.34316,100.96884 175.43496,100.58724 C176.09916,100.69164 176.70456,100.85184 177.31356,100.86924 C178.45656,100.90224 178.83036,100.43724 178.71696,99.27084 C178.28436,99.43224 177.86136,99.68064 177.41316,99.74064 C176.03676,99.92364 174.86136,99.10884 174.61536,97.65264 C174.45636,96.70884 174.46956,95.68704 174.64716,94.74624 C174.99096,92.92524 177.04116,91.69404 178.87596,93.40944" id="Fill-18" fill="#FFFFFE"></path>
                <path d="M186.5205,96.20376 C186.3951,95.69196 186.3801,95.14056 186.1251,94.74516 C185.9145,94.41876 185.4267,94.11696 185.0481,94.09956 C184.7055,94.08396 184.1901,94.38276 184.0209,94.69116 C183.5007,95.64036 183.5067,96.69516 183.9879,97.65156 C184.1517,97.97676 184.6947,98.28456 185.0631,98.2827679 C185.4279,98.28096 185.9145,97.95816 186.1233,97.63236 C186.3783,97.23516 186.3987,96.68676 186.5205,96.20376 M185.0475,99.7659649 C183.0657,99.76296 181.7961,98.37696 181.789475,96.20916 C181.7829,94.01196 183.0759,92.58516 185.0739,92.5845593 C187.0491,92.58336 188.3385,94.03116 188.3271,96.23676 C188.3157,98.40696 187.0503,99.76896 185.0475,99.7659649" id="Fill-20" fill="#FFFFFE"></path>
                <path d="M91.00392,53.66256 C89.58432,53.65356 88.54452,52.57776 88.55772,51.13116 C88.57032,49.72716 89.67612,48.63336 91.07712,48.6405247 C92.44752,48.64716 93.58392,49.79016 93.5893391,51.16776 C93.59472,52.56996 92.45352,53.67156 91.00392,53.66256" id="Fill-22" fill="#FFFFFE"></path>
                <path d="M132.92238,96.28038 C132.89178,96.28458 132.86178,96.28878 132.83118,96.29238 C132.93078,96.99258 132.86958,97.77138 133.16718,98.37378 C133.63338,99.31638 134.60898,99.46878 135.59538,99.35778 C136.43538,99.26358 136.90098,98.71578 137.16258,97.96938 C137.58078,96.77298 137.56158,95.56338 137.12838,94.38258 C136.71138,93.24558 135.79818,92.78598 134.60898,93.01398 C133.67118,93.19458 132.75258,94.28538 132.91278,95.20398 C132.97338,95.55258 132.92238,95.92098 132.92238,96.28038 M132.94278,98.76798 C132.86238,99.11298 132.80418,99.36258 132.74598,99.61218 C132.69618,99.60378 132.64638,99.59538 132.59718,99.58758 L132.59718,89.67858 C132.92238,89.95878 132.92238,89.95878 132.92238,91.60998 L132.92238,93.76218 C133.66338,92.94018 134.41698,92.52678 135.36018,92.59278 C136.43718,92.66838 137.13078,93.28938 137.49198,94.25778 C137.93898,95.45658 137.98038,96.69558 137.57898,97.91718 C136.95738,99.81018 134.93358,100.39338 133.36758,99.15078 C133.23858,99.04818 133.12218,98.92998 132.94278,98.76798" id="Fill-24" fill="#FFFFFE"></path>
                <path d="M190.19802,96.26472 C190.16862,96.26832 190.13922,96.27252 190.10982,96.27612 C190.20582,96.97692 190.14162,97.75512 190.43502,98.36052 C190.89462,99.30792 191.86722,99.46512 192.85542,99.36072 C193.69722,99.27132 194.16102,98.72652 194.43462,97.98432 C194.82042,96.93912 194.80242,95.86932 194.54862,94.80372 C194.22762,93.45792 193.35702,92.85912 192.04242,92.99112 C191.17662,93.07812 190.00422,94.05672 190.19142,95.33112 C190.23642,95.63592 190.19802,95.95332 190.19802,96.26472 M190.19442,98.75892 C190.13682,99.11832 190.09782,99.36312 190.05822,99.60852 C190.00482,99.60492 189.95082,99.60132 189.89742,99.59772 L189.89742,89.73012 C189.94242,89.71332 189.98742,89.69652 190.03242,89.68032 C190.08762,89.87532 190.18782,90.07032 190.19022,90.26652 C190.20582,91.36632 190.19802,92.46612 190.19802,93.67932 C190.39722,93.51852 190.51962,93.43092 190.63002,93.32952 C192.05622,92.02152 194.09862,92.46912 194.77662,94.27752 C195.22482,95.47392 195.25662,96.71652 194.84742,97.93752 C194.22342,99.79812 192.24042,100.38072 190.68402,99.17952 C190.53822,99.06672 190.40322,98.93892 190.19442,98.75892" id="Fill-26" fill="#FFFFFE"></path>
                <path d="M201.13014,96.18396 C200.31054,96.18396 199.47114,96.11976 198.64854,96.20976 C198.20034,96.25896 197.74494,96.51696 197.35674,96.77616 C196.78554,97.15716 196.69914,97.77156 196.88694,98.38416 C197.06154,98.95536 197.50134,99.28476 198.10254,99.36036 C199.70754,99.56256 201.72414,98.75676 201.13014,96.18396 M196.87314,94.56456 C196.87314,94.34616 196.81854,94.11036 196.88274,93.91236 C197.17494,93.01176 198.38814,92.43696 199.57614,92.60736 C200.81334,92.78436 201.57714,93.48876 201.59514,94.55856 C201.62274,96.22536 201.60234,97.89336 201.50394,99.64716 C201.40314,99.32736 201.30234,99.00816 201.17274,98.59776 C200.41614,99.41256 199.49874,99.81876 198.39294,99.76896 C197.38614,99.72396 196.69374,99.22836 196.47594,98.35056 C196.25214,97.44696 196.62774,96.58596 197.57694,96.18516 C198.17634,95.93256 198.85854,95.84616 199.51314,95.76516 C200.04954,95.69916 200.60034,95.75196 201.12954,95.75196 C201.40014,94.07976 201.00774,93.28296 199.83654,93.02076 C198.44094,92.70876 197.39994,93.27996 197.05794,94.54536 C196.99614,94.55136 196.93494,94.55796 196.87314,94.56456" id="Fill-28" fill="#FFFFFE"></path>
                <path d="M159.74502,96.16542 C158.95122,96.16542 158.17782,96.09042 157.42782,96.19122 C156.90882,96.26142 156.38082,96.50982 155.93082,96.79542 C155.39022,97.13862 155.28282,97.72722 155.45322,98.32722 C155.61762,98.90742 156.03462,99.26022 156.62802,99.34962 C158.28882,99.59982 160.32822,98.71002 159.74502,96.16542 M159.74442,95.75202 C159.99882,94.22502 159.68802,93.48522 158.68662,93.11562 C157.35222,92.62242 156.38442,93.06282 155.53842,94.54782 C155.36082,94.04142 155.43762,93.64722 155.89182,93.26142 C156.80022,92.48922 157.84122,92.40762 158.92422,92.81502 C159.92202,93.19002 160.22022,93.99222 160.20582,94.99482 C160.18362,96.52242 160.19982,98.05002 160.07322,99.64482 C159.98322,99.31542 159.89262,98.98662 159.78402,98.58942 C159.04062,99.36642 158.14182,99.81282 157.03062,99.77082 C155.94282,99.72882 155.26962,99.23382 155.05002,98.25342 C154.85802,97.39662 155.25102,96.58002 156.19182,96.17562 C156.74802,95.93682 157.37922,95.83602 157.98702,95.76642 C158.57142,95.69922 159.16962,95.75202 159.74442,95.75202" id="Fill-30" fill="#FFFFFE"></path>
                <path d="M215.52912,96.33444 C215.52912,95.95104 215.53152,95.56764 215.52852,95.18364 C215.52132,94.12404 214.79172,93.20844 213.79992,93.01224 C212.61732,92.77824 211.70172,93.26424 211.29132,94.39644 C210.88872,95.50644 210.85632,96.64944 211.19772,97.77984 C211.58712,99.07164 212.40252,99.54924 213.77712,99.34944 C214.89852,99.18624 215.52852,98.38644 215.52912,97.12524 C215.52912,96.86184 215.52912,96.59784 215.52912,96.33444 M215.57592,93.57444 L215.57592,89.71524 C215.64732,89.71764 215.71872,89.72004 215.79072,89.72244 L215.79072,99.58584 C215.74392,99.59544 215.69712,99.60504 215.65092,99.61464 C215.60292,99.36924 215.55552,99.12384 215.50752,98.87844 C215.03712,99.13764 214.61232,99.45744 214.13352,99.61884 C212.63592,100.12464 211.31052,99.45204 210.85272,97.94664 C210.49692,96.77844 210.49812,95.57184 210.87852,94.41204 C211.51212,92.48064 213.63912,91.97844 215.12472,93.37764 C215.20812,93.45684 215.24352,93.58644 215.30172,93.69264 C215.39292,93.65364 215.48472,93.61404 215.57592,93.57444" id="Fill-32" fill="#FFFFFE"></path>
                <path d="M153.54936,95.55906 C153.54156,94.59126 153.33636,93.75246 152.47116,93.25866 C151.65336,92.79126 150.80856,92.85726 150.03996,93.38886 C149.29596,93.90306 148.93896,94.63686 148.93116,95.55906 L153.54936,95.55906 Z M148.84716,95.98386 C148.80276,97.35786 149.06376,98.49366 150.24516,99.11346 C151.39596,99.71766 152.50236,99.34806 153.51816,98.60226 C153.55776,98.65686 153.59736,98.71206 153.63696,98.76726 C153.49056,98.92806 153.36936,99.12666 153.19356,99.24486 C151.34316,100.48986 148.86636,99.48426 148.56816,97.27086 C148.43856,96.31206 148.55556,95.24526 148.85316,94.32246 C149.26776,93.03726 150.69156,92.37366 151.92036,92.64066 C153.18156,92.91486 153.91956,93.94986 153.93996,95.41386 C153.94656,95.85306 153.79956,95.99826 153.36096,95.99226 C151.88196,95.97126 150.40176,95.98386 148.84716,95.98386 L148.84716,95.98386 Z" id="Fill-34" fill="#FFFFFE"></path>
                <path d="M203.85114,99.58116 L203.85114,92.75916 L204.05214,92.73216 C204.10854,93.06936 204.16554,93.40716 204.23574,93.82416 C204.96654,92.85156 205.89474,92.41176 207.05994,92.64576 C208.08054,92.85036 208.68414,93.51996 208.75074,94.76976 C208.83594,96.36936 208.77174,97.97736 208.77174,99.58176 C208.70754,99.59856 208.64334,99.61596 208.57854,99.63276 C208.52334,99.43956 208.42314,99.24636 208.42014,99.05196 C208.40514,97.92396 208.41474,96.79596 208.41114,95.66796 C208.40994,95.35656 208.41054,95.04276 208.37574,94.73376 C208.28694,93.94056 207.96294,93.26796 207.13794,93.06036 C206.31714,92.85396 205.43994,92.89116 204.91134,93.63936 C204.54534,94.15776 204.27234,94.83276 204.21534,95.46156 C204.10734,96.65136 204.18894,97.85856 204.17874,99.05856 C204.17694,99.24936 204.10434,99.43956 204.06414,99.62976 C203.99334,99.61356 203.92194,99.59736 203.85114,99.58116" id="Fill-36" fill="#FFFFFE"></path>
                <path d="M173.75988,92.81316 C173.56368,93.34056 173.37108,93.86976 173.17068,94.39536 C172.33788,96.58536 171.52188,98.78256 170.66028,100.96116 C170.14068,102.27456 169.58028,102.57636 168.37968,102.26736 C168.49728,102.17976 168.57348,102.07596 168.65868,102.06696 C170.04528,101.92596 171.05748,100.28136 170.54268,98.98236 C169.80288,97.11636 169.05588,95.25336 168.31368,93.38796 C168.23808,93.19776 168.17448,93.00336 168.10488,92.81076 L168.28608,92.69256 C168.41328,92.89116 168.57528,93.07656 168.66348,93.29136 C169.37808,95.04156 170.07888,96.79716 170.78508,98.55096 C170.82708,98.65536 170.87928,98.75676 170.99028,98.99736 C171.84048,96.80796 172.64328,94.74096 173.44548,92.67396 C173.55048,92.72076 173.65488,92.76696 173.75988,92.81316" id="Fill-38" fill="#FFFFFE"></path>
                <path d="M139.12362,92.68506 C139.54722,93.72306 139.97262,94.75986 140.39322,95.79906 C140.81142,96.83106 141.22482,97.86486 141.69522,99.03486 C142.54842,96.82926 143.35362,94.74846 144.15882,92.66826 C144.25302,92.70246 144.34782,92.73606 144.44202,92.77026 C144.40242,92.93046 144.37902,93.09666 144.32142,93.24966 C143.36442,95.77446 142.40922,98.30046 141.44082,100.82106 C140.95362,102.09006 140.40042,102.51006 139.43802,102.38226 C139.34022,102.36966 139.24842,102.30726 138.96462,102.18966 C139.28622,102.12186 139.40502,102.07506 139.52382,102.07626 C140.14302,102.08166 140.57202,101.78526 140.84442,101.25066 C141.31962,100.31766 141.59202,99.44346 141.05202,98.35386 C140.26782,96.77466 139.70082,95.08746 139.04562,93.44466 C138.96222,93.23586 138.90462,93.01626 138.83562,92.80206 C138.93162,92.76306 139.02762,92.72406 139.12362,92.68506" id="Fill-40" fill="#FFFFFE"></path>
                <path d="M162.13572,97.7673 C162.95892,99.2919 164.29452,99.7941 165.65172,99.1971 C166.19592,98.9577 166.67532,98.5467 166.58832,97.9719 C166.51992,97.5201 166.15632,97.0125 165.77472,96.7341 C165.35232,96.4263 164.76132,96.3483 164.24172,96.1767 C163.94772,96.0795 163.64412,96.0111 163.35432,95.9031 C162.64392,95.6385 162.18012,95.1789 162.19092,94.3629 C162.19992,93.6345 162.64512,93.0393 163.42152,92.7747 C164.29812,92.4765 165.17412,92.4951 165.99192,92.9469 C166.60392,93.2853 166.99032,93.7893 166.86132,94.6521 C166.73172,94.5387 166.64112,94.4973 166.61412,94.4301 C166.08912,93.1191 164.75832,92.5377 163.46352,93.1725 C163.08012,93.3603 162.73032,93.8523 162.60552,94.2759 C162.43752,94.8459 162.85212,95.2809 163.37772,95.4975 C163.88232,95.7051 164.42652,95.8167 164.93772,96.0105 C165.42492,96.1953 165.94092,96.3633 166.35792,96.6609 C167.17872,97.2471 167.18292,98.5035 166.42872,99.1707 C165.49512,99.9963 163.47072,99.9819 162.55692,99.1341 C162.20292,98.8059 161.92392,98.4381 162.13572,97.7673" id="Fill-42" fill="#FFFFFE"></path>
            </g>
        </g>
    </g>
</svg>