<?xml version="1.0" encoding="UTF-8"?>
<svg width="78px" height="80px" viewBox="0 0 78 80" version="1.1" xmlns="http://www.w3.org/2000/svg" xmlns:xlink="http://www.w3.org/1999/xlink">
    <!-- Generator: Sketch 52.5 (67469) - http://www.bohemiancoding.com/sketch -->
    <title>Group 32</title>
    <desc>Created with Sketch.</desc>
    <g id="CAMBIOS-MAYO-2020" stroke="none" stroke-width="1" fill="none" fill-rule="evenodd">
        <g id="LANDING-GOSAFE-A" transform="translate(-915.000000, -789.000000)">
            <g id="Group-7" transform="translate(502.000000, 756.000000)">
                <g id="Group-40" transform="translate(406.000000, 0.000000)">
                    <g id="Group-32" transform="translate(7.000000, 33.000000)">
                        <g id="Group-5" transform="translate(38.000000, 0.000000)" fill-rule="nonzero">
                            <path d="M40,19.0109874 L39.5592287,19.0109874 L39.5592287,6.96936593 C39.5592311,3.12029427 36.4303485,3.03545614e-06 32.5706734,0 L6.98857732,0 C5.13509528,-4.66457475e-06 3.35752526,0.73426126 2.04691265,2.04126753 C0.736300044,3.3482738 3.50806018e-06,5.12095717 0,6.96934725 L0,73.0306341 C-1.16935521e-06,74.8790239 0.736290543,76.6517089 2.04689933,77.9587185 C3.35750813,79.2657282 5.13507572,79.9999991 6.98855748,80 L32.5706403,80 C36.4303143,80.0000085 39.5592061,76.8797288 39.5592177,73.0306583 L39.5592177,27.5824188 L39.9999956,27.5824188 L40,19.0109874 Z" id="Path-Copy-4" fill="#A5A7BF"></path>
                            <path d="M29.4756268,2.00000438 C29.7862372,2.75872786 29.6973875,3.62172158 29.238643,4.30181733 C28.7798984,4.98191308 28.0114567,5.38986704 27.1890231,5.38992919 L12.5914625,5.38992919 C11.7690271,5.38986944 11.000583,4.98191522 10.541838,4.30181759 C10.083093,3.62171996 9.99424535,2.75872374 10.30486,2 L7.19829852,2 C4.32736106,1.99999819 2.00000424,4.31879242 2,7.17917346 L2,72.8208156 C1.99999913,74.1944198 2.54767425,75.5117652 3.52254309,76.4830507 C4.49741193,77.4543361 5.81961832,77.9999991 7.19829193,78 L32.8017015,78 C34.1803751,78.0000009 35.5025822,77.4543395 36.4774523,76.4830553 C37.4523223,75.511771 37.9999991,74.1944264 38,72.8208222 L38,7.17917346 C37.999998,5.80557038 37.4523205,4.48822732 36.4774504,3.51694471 C35.5025804,2.54566209 34.1803739,2.00000234 32.8017015,2.00000438 L29.4756268,2.00000438 Z" id="Path-Copy-8" fill="#FFFFFF"></path>
                            <rect id="Rectangle-Copy-23" fill="#DDDEEE" x="7" y="12" width="25" height="3"></rect>
                            <rect id="Rectangle-Copy-24" fill="#DDDEEE" x="24" y="69" width="8" height="3"></rect>
                        </g>
                        <g id="Group-72" transform="translate(0.000000, 28.000000)">
                            <rect id="Rectangle" fill="#E5E7F4" x="0" y="2.875" width="58" height="29.25" rx="4.05"></rect>
                            <rect id="Rectangle" fill="#DDDEEE" x="3" y="0" width="58" height="29.25" rx="4.05"></rect>
                            <polyline id="Path-14" stroke="#241DBA" stroke-width="3" stroke-linecap="round" stroke-linejoin="round" points="44 13.875 47.2497172 18.875 55.1538462 8.875"></polyline>
                            <rect id="Rectangle" fill="#EEEFF7" x="14.825" y="10.25" width="14.025" height="15.725" rx="0.85"></rect>
                            <path d="M24.7993282,17.6901394 L21.4688157,14.3269019 C21.1383782,13.9932769 20.6003282,13.9907269 20.2667032,14.3211644 C19.9332907,14.6513894 19.9305282,15.1896519 20.2609657,15.5230644 L22.1617782,17.4425769 L11.8478782,17.4670144 C11.3784657,17.4682894 10.9987282,17.8495144 11.0000032,18.3189269 C11.0010657,18.7879144 11.3812282,19.1670144 11.8500032,19.1670144 L11.8519157,19.1670144 L22.1530657,19.1427894 L20.2609657,21.0535894 C19.9305282,21.3870019 19.9332907,21.9252644 20.2667032,22.2554894 C20.4324532,22.4197519 20.6487782,22.5015644 20.8648907,22.5015644 C21.0837657,22.5015644 21.3026407,22.4176269 21.4688157,22.2497519 L24.7993282,18.8863019 C25.1274282,18.5550144 25.1274282,18.0214269 24.7993282,17.6901394" id="Path-Copy-2" fill="#241DBA"></path>
                            <path d="M12.7274194,12.7811111 L17.7725806,12.7811111 L17.7725806,8.21944444 L12.7274194,8.21944444 L12.7274194,12.7811111 Z M18.2112903,7.35055556 L13.4951613,7.35055556 L13.4951613,6.60331111 C13.4951613,5.49113333 14.2035677,4.74388889 15.2334387,4.74388889 C15.9836323,4.74388889 16.568871,5.12902389 16.8246387,5.80056639 C16.9102968,6.02506556 17.1674903,6.13845556 17.3940839,6.05373889 C17.6207871,5.96902222 17.7373742,5.71845639 17.6518258,5.49395722 C17.2657613,4.48018111 16.3516,3.875 15.2324516,3.875 C13.7020129,3.875 12.6177419,4.99695278 12.6177419,6.60331111 L12.6177419,7.35055556 L12.2887097,7.35055556 C12.0464323,7.35055556 11.85,7.54670722 11.85,7.78662917 L11.85,13.2155556 C11.85,13.4554775 12.0464323,13.65 12.2887097,13.65 L18.2112903,13.65 C18.4535677,13.65 18.65,13.4554775 18.65,13.2155556 L18.65,7.78662917 C18.65,7.54670722 18.4535677,7.35055556 18.2112903,7.35055556 L18.2112903,7.35055556 Z" id="lock-open" fill="#A5A7BF"></path>
                        </g>
                    </g>
                </g>
            </g>
        </g>
    </g>
</svg>