<?xml version="1.0" encoding="UTF-8"?>
<svg width="81px" height="117px" viewBox="0 0 81 117" version="1.1" xmlns="http://www.w3.org/2000/svg" xmlns:xlink="http://www.w3.org/1999/xlink">
    <!-- Generator: Sketch 52.5 (67469) - http://www.bohemiancoding.com/sketch -->
    <title>Totem recarga desatendida</title>
    <desc>Created with Sketch.</desc>
    <defs>
        <circle id="path-1" cx="19.20672" cy="19.20672" r="19.20672"></circle>
        <linearGradient x1="45.166306%" y1="-1.69870728%" x2="59.6076601%" y2="51.8765724%" id="linearGradient-3">
            <stop stop-color="#5DBBF7" offset="0%"></stop>
            <stop stop-color="#4499CE" offset="100%"></stop>
        </linearGradient>
        <linearGradient x1="72.3427929%" y1="100%" x2="50%" y2="23.5453408%" id="linearGradient-4">
            <stop stop-color="#EEEFF7" offset="0%"></stop>
            <stop stop-color="#DDDEEE" offset="100%"></stop>
        </linearGradient>
        <circle id="path-5" cx="19.95552" cy="20.10528" r="19.20672"></circle>
    </defs>
    <g id="STYLE-GUIDES-" stroke="none" stroke-width="1" fill="none" fill-rule="evenodd">
        <g id="iconos-DESPLEGADOS" transform="translate(-1121.000000, -2734.000000)">
            <g id="Group-7" transform="translate(994.000000, 2599.000000)">
                <g id="Totem-recarga-desatendida" transform="translate(127.000000, 136.000000)">
                    <g id="Group-50" transform="translate(0.000000, 18.000000)">
                        <polyline id="Path" fill="#DDDEEE" points="58 98 3.4281189e-12 98 0 38.4984678 58 38.4984678"></polyline>
                        <path d="M0,38.294756 L8.71538993,5.21652006 C9.52537291,2.14232509 12.3052669,0 15.484378,0 L59.0188257,0 C62.884819,0 66.0188257,3.13400675 66.0188257,7 C66.0188257,7.59889766 65.9419673,8.19531934 65.7901339,8.77465085 L58,38.4984678" id="Path" fill="#EEEFF7"></path>
                        <polygon id="Rectangle" fill="#A5A7BF" points="15.6156844 9 56.6156844 9 50 34 9 34"></polygon>
                        <circle id="Oval" fill="#241DBA" cx="29" cy="46" r="4"></circle>
                        <path d="M40.5,44.5 L49,44.5" id="Line-8" stroke="#A5A7BF" stroke-linecap="round" stroke-linejoin="round"></path>
                        <path d="M8.75,44.5 L17.25,44.5" id="Line-8-Copy" stroke="#A5A7BF" stroke-linecap="round" stroke-linejoin="round"></path>
                    </g>
                    <g id="Group-Copy-9" transform="translate(42.000000, 0.000000)">
                        <g id="Group-Copy-6">
                            <mask id="mask-2" fill="white">
                                <use xlink:href="#path-1"></use>
                            </mask>
                            <use id="Mask" stroke="#EEEFF7" stroke-width="1.01088" fill="#FFFFFF" xlink:href="#path-1"></use>
                            <g id="Group-Copy-2" mask="url(#mask-2)">
                                <g transform="translate(-0.748800, -0.898560)">
                                    <path d="M10.9013153,71.5215996 C10.9013153,71.5215996 9.07285159,56.0009501 8.68148053,51.9877683 C8.51174143,50.2475289 8.97347468,45.0944648 8.97347468,45.0944648 C9.70396648,43.6998855 9.56884247,46.1632821 11.0298261,46.7443095 L15.5346148,48.3708448 L14.3171285,71.5215996 C14.3171285,71.5215996 14.0227512,75.3315924 15.5346148,76.9820056 C18.4404958,80.1542328 11.8973484,86.976585 11.0298261,80.6997276 C10.7745323,78.8526634 10.5360396,74.9384609 10.9013153,74.3575473 C11.2665314,73.8928391 10.9013153,71.5215996 10.9013153,71.5215996 Z" id="Fill-1" stroke="none" fill="#F6B690" fill-rule="evenodd"></path>
                                    <path d="M32.4028067,67.8018933 C32.4028067,67.8018933 30.574343,52.2812438 30.1829719,48.268062 C30.0132328,46.5278227 30.4749661,41.3747585 30.4749661,41.3747585 C31.2054579,39.9801792 31.0703339,42.4435759 32.5313174,43.0246032 L37.0361062,44.6511385 L35.8186199,67.8018933 C35.8186199,67.8018933 35.5242426,71.6118861 37.0361062,73.2622993 C39.9419872,76.4345265 33.3988398,83.2568787 32.5313174,76.9800213 C32.2760236,75.1329571 32.037531,71.2187546 32.4028067,70.637841 C32.7680228,70.1731328 32.4028067,67.8018933 32.4028067,67.8018933 Z" id="Fill-1-Copy" stroke="none" fill="#F6B690" fill-rule="evenodd"></path>
                                    <path d="M35.4630587,118.83456 L30.0643365,118.83456 L20.801828,81.7044893 L20.8547784,118.83456 L15.0855742,118.83456 C15.0855742,118.83456 7.2973481,75.66494 12.537276,64.8988189 L31.9698115,64.8988189 C32.0227049,64.9513584 32.7637261,72.8289969 35.4630587,118.83456 Z" id="Fill-2" stroke="none" fill="url(#linearGradient-3)" fill-rule="evenodd"></path>
                                    <polygon id="Fill-3" stroke="none" fill="url(#linearGradient-4)" fill-rule="evenodd" points="24.7078727 24.6794947 25.7527077 33.5137971 16.7359533 33.5137971 17.4078947 26.7188452"></polygon>
                                    <path d="M16.9558494,30.0295052 C16.9558494,30.0295052 18.1470887,32.0528044 21.6335344,31.653944 C25.1199801,31.2550836 25.3313766,29.8071159 25.3243647,29.5621354 C32.9510765,29.9129425 37.4866353,35.6853457 38.9310412,46.879345 L32.0222177,46.879345 C32.719992,56.6446776 32.719992,63.5036016 32.0222177,67.456117 L11.6372444,67.456117 L13.2017735,49.7607041 L8.7442429,46.879345 C8.16275165,45.3684093 9.68373723,29.5061389 16.9558494,30.0295052 Z" id="Fill-4" stroke="none" fill="#DDDEEE" fill-rule="evenodd"></path>
                                    <path d="M25.1130628,24.3314578 C24.8000563,25.381426 23.0731257,26.6575238 22.0506566,27.0972832 C19.8779868,28.0307777 17.067784,28.704621 15.014585,26.1546981 C13.1339048,23.8348819 12.5504314,20.65316 12.3648753,18.5969722 C12.2225894,17.3612141 12.7912273,16.201022 13.7417106,15.4112731 C15.8983648,13.7215515 19.9001277,10.8568655 20.8108249,11.2284451 C21.6304861,11.5625259 24.1214447,14.0772226 25.7032795,15.6862648 C26.5485095,16.6197593 26.8458376,17.8651762 26.5871155,19.0441178 L25.1130628,24.3314578 Z" id="Fill-8" stroke="none" fill="url(#linearGradient-4)" fill-rule="evenodd"></path>
                                    <path d="M21.8962495,13.2532212 C21.8962495,13.2532212 22.9390035,17.4913954 23.1957543,17.3809729 C23.4525616,17.2711196 24.4126112,15.9255591 25.3145135,16.9148079 C26.3563078,18.0571683 25.0370441,20.489878 25.0370441,20.489878 C25.0370441,20.489878 24.6576197,24.4275209 25.4375823,23.940296 C26.2175449,23.453071 31.2694624,15.7673248 26.509184,8.70085518 C26.509184,8.70085518 22.6960273,4.35510443 18.9189444,5.97956712 C16.8459126,6.87148479 11.5242933,7.95699789 9.59739866,9.622128 C7.67050404,11.2872581 7.02756322,12.6293911 8.11926246,15.2186275 C9.21090525,17.8072947 12.2673018,18.5204874 13.575557,18.2950889 C17.3888831,17.6376767 21.1405055,14.8765455 21.8962495,13.2532212 Z" id="Fill-9" stroke="none" fill="#A5A7BF" fill-rule="evenodd"></path>
                                    <mask id="mask-6" fill="white">
                                        <use xlink:href="#path-5"></use>
                                    </mask>
                                    <use id="Mask" stroke="#EEEFF7" stroke-width="1.01088" fill="none" xlink:href="#path-5"></use>
                                </g>
                            </g>
                        </g>
                    </g>
                    <g id="Available-Updates" transform="translate(18.000000, 77.000000)" fill="#A5A7BF" fill-rule="nonzero">
                        <path d="M12,0 C5.383,0 0,5.383 0,12 L2,12 C2,6.486 6.486,2 12,2 C15.694954,2 18.926328,4.0113529 20.65625,7 L17,7 L17,9 L23,9 L24,9 L24,8 L24,2 L22,2 L22,5.40625 C19.855169,2.1540559 16.180193,0 12,0 Z M22,12 C22,17.514 17.514,22 12,22 C8.305046,22 5.0736716,19.988647 3.34375,17 L7,17 L7,15 L1,15 L0,15 L0,16 L0,22 L2,22 L2,18.59375 C4.1448306,21.845944 7.819807,24 12,24 C18.617,24 24,18.617 24,12 L22,12 Z" id="Shape"></path>
                    </g>
                </g>
            </g>
        </g>
    </g>
</svg>
