<?xml version="1.0" encoding="UTF-8"?>
<svg width="112px" height="103px" viewBox="0 0 112 103" version="1.1" xmlns="http://www.w3.org/2000/svg" xmlns:xlink="http://www.w3.org/1999/xlink">
    <!-- Generator: Sketch 52.5 (67469) - http://www.bohemiancoding.com/sketch -->
    <title>Group 65 Copy 2</title>
    <desc>Created with Sketch.</desc>
    <defs>
        <filter x="-11.5%" y="-12.5%" width="124.0%" height="125.0%" filterUnits="objectBoundingBox" id="filter-1">
            <feOffset dx="0" dy="2" in="SourceAlpha" result="shadowOffsetOuter1"></feOffset>
            <feGaussianBlur stdDeviation="2" in="shadowOffsetOuter1" result="shadowBlurOuter1"></feGaussianBlur>
            <feColorMatrix values="0 0 0 0 0   0 0 0 0 0   0 0 0 0 0  0 0 0 0.5 0" type="matrix" in="shadowBlurOuter1" result="shadowMatrixOuter1"></feColorMatrix>
            <feMerge>
                <feMergeNode in="shadowMatrixOuter1"></feMergeNode>
                <feMergeNode in="SourceGraphic"></feMergeNode>
            </feMerge>
        </filter>
        <polygon id="path-2" points="0 2.645e-05 44.436 2.645e-05 44.436 89.401 0 89.401"></polygon>
    </defs>
    <g id="STYLE-GUIDES-" stroke="none" stroke-width="1" fill="none" fill-rule="evenodd">
        <g id="iconos-DESPLEGADOS" transform="translate(-1099.000000, -3236.000000)">
            <g id="Group-65-Copy-2" filter="url(#filter-1)" transform="translate(1103.000000, 3237.000000)">
                <g id="Group-64">
                    <g id="Group-103" transform="translate(38.697500, 5.980000)">
                        <path d="M35.0882262,1.50534885 C34.5343632,1.50534885 34.0855067,1.95420535 34.0855067,2.50780385 L34.0855067,2.93682285 C34.0855067,3.72714885 33.4446232,4.36803235 32.6542972,4.36803235 L11.7818087,4.36803235 C10.9912182,4.36803235 10.3505992,3.72714885 10.3505992,2.93682285 L10.3505992,2.35545185 C10.3505992,1.88596435 9.96998365,1.50534885 9.50049615,1.50534885 L7.79923215,1.50534885 C4.29116865,1.50534885 1.44752915,4.34898835 1.44752915,7.85678735 L1.44752915,81.5441069 C1.44752915,85.0519059 4.29116865,87.8955454 7.79923215,87.8955454 L36.6368737,87.8955454 C40.1446727,87.8955454 42.9885767,85.0519059 42.9885767,81.5441069 L42.9885767,7.85678735 C42.9885767,4.34898835 40.1446727,1.50534885 36.6368737,1.50534885 L35.0882262,1.50534885 Z" id="Fill-1-Copy-3" fill="#EEEFF7"></path>
                        <g id="Group-5-Copy-4">
                            <mask id="mask-3" fill="white">
                                <use xlink:href="#path-2"></use>
                            </mask>
                            <g id="Clip-4"></g>
                            <path d="M42.849,81.4266159 C42.849,84.9344149 40.0487385,87.8140264 36.5409395,87.8140264 L7.7030335,87.8140264 C4.1952345,87.8140264 1.3225,84.9344149 1.3225,81.4266159 L1.3225,7.73929645 C1.3225,4.23149745 4.1952345,1.32252645 7.7030335,1.32252645 L9.4042975,1.32252645 C9.873785,1.32252645 10.3155,1.76847345 10.3155,2.23796095 L10.3155,2.81933195 C10.3155,3.60965795 10.895284,4.23202645 11.6858745,4.23202645 L32.5580985,4.23202645 C33.348689,4.23202645 34.1205,3.60965795 34.1205,2.81933195 L34.1205,2.39057745 C34.1205,1.83671445 34.438429,1.32252645 34.9920275,1.32252645 L36.5409395,1.32252645 C40.0487385,1.32252645 42.849,4.23149745 42.849,7.73929645 L42.849,81.4266159 Z M44.436,7.29546545 C44.436,3.26633695 41.1696895,2.645e-05 37.140561,2.645e-05 L7.295439,2.645e-05 C3.2663105,2.645e-05 0,3.26633695 0,7.29546545 L0,82.1055875 C0,86.134716 3.2663105,89.4010265 7.295439,89.4010265 L37.140561,89.4010265 C41.1696895,89.4010265 44.436,86.134716 44.436,82.1055875 L44.436,7.29546545 Z" id="Fill-3" fill="#DDDEEE" mask="url(#mask-3)"></path>
                        </g>
                        <polygon id="Shape-Copy" stroke="#A5A7BF" stroke-width="1.3225" fill="#A5A7BF" fill-rule="nonzero" stroke-linejoin="round" points="62.5617027 36.57 34.2409226 64.960625 22.3082973 52.9985714 19.9525 55.3601786 33.0630239 68.5030357 34.2409226 69.6325 35.4188212 68.5030357 64.9175 38.9316071"></polygon>
                    </g>
                    <g id="Group-63">
                        <path d="M13.9602985,8.27037152 L49.2049235,1.05619949 C51.5304945,0.580181669 53.8016311,2.07954081 54.2776489,4.40511186 C54.3357044,4.68874048 54.364955,4.97750907 54.364955,5.26701838 L54.364955,30.2263836 C54.364955,32.3430167 52.8239641,34.1445752 50.7329008,34.4725852 L15.4882758,40.0011538 C13.1431634,40.3690146 10.9438642,38.7661354 10.5760034,36.421023 C10.5414402,36.2006829 10.52408,35.9779867 10.52408,35.7549522 L10.52408,12.4811904 C10.52408,10.4396308 11.9602083,8.67976713 13.9602985,8.27037152 Z" id="Path-9" fill="#898B9E"></path>
                        <path d="M10.7494016,8.27480061 L57.5302087,3.6183279 C59.8923247,3.38320736 61.9978009,5.10747787 62.2329215,7.46959387 C62.2470032,7.61106478 62.2540571,7.75314725 62.2540571,7.89531727 L62.2540571,31.7928341 C62.2540571,33.9743335 60.6198409,35.8098489 58.4529774,36.0621226 L11.6721703,41.5085051 C9.31430731,41.7830157 7.18034699,40.0941248 6.90583647,37.7362619 C6.88662831,37.5712765 6.877,37.4053164 6.877,37.2392166 L6.877,12.55179 C6.877,10.3428695 8.55134326,8.49359117 10.7494016,8.27480061 Z" id="Path-8" fill="#A5A7BF"></path>
                        <rect id="Rectangle" fill="#DDDEEE" x="0" y="8.305875" width="60.17375" height="34.385" rx="4.298125"></rect>
                        <path d="M10.52408,15.182875 L50.717875,15.182875 L54.156375,18.621375 L54.156375,33.235 L50.717875,36.6735 L10.52408,36.6735 L6.877,33.02642 L6.877,18.829955 L10.52408,15.182875 Z" id="Combined-Shape" fill="#EEEFF7"></path>
                        <circle id="Oval" fill="#A5A7BF" cx="16.332875" cy="26.358" r="1.71925"></circle>
                        <circle id="Oval-Copy-8" fill="#A5A7BF" cx="45.560125" cy="26.358" r="1.71925"></circle>
                        <g id="Group-59" transform="translate(24.150000, 19.550000)">
                            <circle id="Oval-Copy-12" stroke="#A5A7BF" stroke-width="0.82524" fill="#241DBA" cx="6.60192" cy="6.60192" r="6.60192"></circle>
                            <text id="€-copy" font-family="Helvetica" font-size="9.90288" font-weight="normal" line-spacing="6.60192" fill="#FFFFFF">
                                <tspan x="3.30096" y="13.30096">€</tspan>
                            </text>
                        </g>
                    </g>
                </g>
                <g id="flecha" transform="translate(58.480148, 43.190386) scale(1, -1) rotate(-53.000000) translate(-58.480148, -43.190386) translate(50.480148, 38.190386)" stroke="#A5A7BF" stroke-linecap="round" stroke-linejoin="round" stroke-width="1.3225">
                    <path d="M0,0 C2.3805,3.82967051 7.49324763,5.45756429 15.3382429,4.88368134" id="Path-4"></path>
                    <polygon id="Path-5" fill="#232526" points="10.8162481 0.472177713 15.3382429 4.87591787 10.8162481 9.76736269 14.3103592 4.88368134"></polygon>
                </g>
            </g>
        </g>
    </g>
</svg>
