<?xml version="1.0" encoding="UTF-8"?>
<svg width="31px" height="32px" viewBox="0 0 31 32" version="1.1" xmlns="http://www.w3.org/2000/svg" xmlns:xlink="http://www.w3.org/1999/xlink">
    <!-- Generator: Sketch 52.5 (67469) - http://www.bohemiancoding.com/sketch -->
    <title>sn-facebook</title>
    <desc>Created with Sketch.</desc>
    <g id="ideas" stroke="none" stroke-width="1" fill="none" fill-rule="evenodd">
        <g id="HOME-1" transform="translate(-243.000000, -5025.000000)" fill="#232526">
            <g id="Group-7-Copy" transform="translate(243.000000, 5009.000000)">
                <g id="Facebook/dark" transform="translate(-0.000000, 16.333333)">
                    <g id="Facebook/White">
                        <path d="M16.5581044,31 L1.71096202,31 C0.765746924,31 0,30.2337779 0,29.288931 L0,1.71094875 C0,0.765861268 0.765867211,0 1.71096202,0 L29.2891583,0 C30.2340125,0 31,0.765861268 31,1.71094875 L31,29.288931 C31,30.2338982 30.2338922,31 29.2891583,31 L21.3895513,31 L21.3895513,18.9950916 L25.4190449,18.9950916 L26.0224044,14.3165657 L21.3895513,14.3165657 L21.3895513,11.3296226 C21.3895513,9.97508139 21.7656887,9.05200625 23.7080829,9.05200625 L26.1855136,9.05092368 L26.1855136,4.86641264 C25.7570513,4.80939706 24.2864227,4.68201413 22.5754607,4.68201413 C19.0035388,4.68201413 16.5581044,6.86231904 16.5581044,10.8662807 L16.5581044,14.3165657 L12.5182662,14.3165657 L12.5182662,18.9950916 L16.5581044,18.9950916 L16.5581044,31 L16.5581044,31 Z" id="Facebook"></path>
                    </g>
                </g>
            </g>
        </g>
    </g>
</svg>