<?xml version="1.0" encoding="UTF-8"?>
<svg width="33px" height="33px" viewBox="0 0 33 33" version="1.1" xmlns="http://www.w3.org/2000/svg" xmlns:xlink="http://www.w3.org/1999/xlink">
    <!-- Generator: Sketch 52.5 (67469) - http://www.bohemiancoding.com/sketch -->
    <title>sn-instagram-white</title>
    <desc>Created with Sketch.</desc>
    <g id="WEB" stroke="none" stroke-width="1" fill="none" fill-rule="evenodd">
        <g id="BURGER-MENU" transform="translate(-324.000000, -769.000000)" fill="#FFFFFF">
            <g id="Group-7-Copy" transform="translate(275.000000, 702.000000)">
                <g id="Instagram/White" transform="translate(49.000000, 67.000000)">
                    <g id="Instagram">
                        <path d="M16.5000327,0 C20.981131,0 21.5430285,0.0189940874 23.3029289,0.0992932294 C25.0591615,0.179395881 26.2586054,0.458346979 27.308127,0.86626138 C28.3931478,1.28786462 29.3133131,1.85205452 30.2306621,2.76933795 C31.1479455,3.68668687 31.7121354,4.60685216 32.1338041,5.69187303 C32.541653,6.74139461 32.8206041,7.94083848 32.9007068,9.6970711 C32.9810059,11.4569715 33,12.018869 33,16.5000327 C33,20.981131 32.9810059,21.5430285 32.9007068,23.3029289 C32.8206041,25.0591615 32.541653,26.2586054 32.1338041,27.308127 C31.7121354,28.3931478 31.1479455,29.3133131 30.2306621,30.2306621 C29.3133131,31.1479455 28.3931478,31.7121354 27.308127,32.1338041 C26.2586054,32.541653 25.0591615,32.8206041 23.3029289,32.9007068 C21.5430285,32.9810059 20.981131,33 16.5000327,33 C12.018869,33 11.4569715,32.9810059 9.6970711,32.9007068 C7.94083848,32.8206041 6.74139461,32.541653 5.69187303,32.1338041 C4.60685216,31.7121354 3.68668687,31.1479455 2.76933795,30.2306621 C1.85205452,29.3133131 1.28786462,28.3931478 0.86626138,27.308127 C0.458346979,26.2586054 0.179395881,25.0591615 0.0992932294,23.3029289 C0.0189940874,21.5430285 0,20.981131 0,16.5000327 C0,12.018869 0.0189940874,11.4569715 0.0992932294,9.6970711 C0.179395881,7.94083848 0.458346979,6.74139461 0.86626138,5.69187303 C1.28786462,4.60685216 1.85205452,3.68668687 2.76933795,2.76933795 C3.68668687,1.85205452 4.60685216,1.28786462 5.69187303,0.86626138 C6.74139461,0.458346979 7.94083848,0.179395881 9.6970711,0.0992932294 C11.4569715,0.0189940874 12.018869,0 16.5000327,0 Z M16.5000327,2.97296766 C12.0943214,2.97296766 11.5724425,2.98980035 9.83258409,3.06918254 C8.22385038,3.14253902 7.35018786,3.4113381 6.76877229,3.63730224 C5.99859479,3.93662286 5.4489452,4.29417018 4.87159044,4.87159044 C4.29417018,5.4489452 3.93662286,5.99859479 3.63730224,6.76877229 C3.4113381,7.35018786 3.14253902,8.22385038 3.06918254,9.83258409 C2.98980035,11.5724425 2.97296766,12.0943214 2.97296766,16.5000327 C2.97296766,20.9056786 2.98980035,21.4275575 3.06918254,23.1674159 C3.14253902,24.7761496 3.4113381,25.6498121 3.63730224,26.2312277 C3.93662286,27.0014052 4.29423568,27.5510548 4.87159044,28.1284096 C5.4489452,28.7058298 5.99859479,29.0633771 6.76877229,29.3626978 C7.35018786,29.5886619 8.22385038,29.857461 9.83258409,29.9308175 C11.572246,30.0101996 12.0939939,30.0270323 16.5000327,30.0270323 C20.9060061,30.0270323 21.4278195,30.0101996 23.1674159,29.9308175 C24.7761496,29.857461 25.6498121,29.5886619 26.2312277,29.3626978 C27.0014052,29.0633771 27.5510548,28.7058298 28.1284096,28.1284096 C28.7058298,27.5510548 29.0633771,27.0014052 29.3626978,26.2312277 C29.5886619,25.6498121 29.857461,24.7761496 29.9308175,23.1674159 C30.0101996,21.4275575 30.0270323,20.9056786 30.0270323,16.5000327 C30.0270323,12.0943214 30.0101996,11.5724425 29.9308175,9.83258409 C29.857461,8.22385038 29.5886619,7.35018786 29.3626978,6.76877229 C29.0633771,5.99859479 28.7058298,5.4489452 28.1284096,4.87159044 C27.5510548,4.29417018 27.0014052,3.93662286 26.2312277,3.63730224 C25.6498121,3.4113381 24.7761496,3.14253902 23.1674159,3.06918254 C21.4275575,2.98980035 20.9056786,2.97296766 16.5000327,2.97296766 Z M16.5000327,8.02703234 C21.1795209,8.02703234 24.9729677,11.8204791 24.9729677,16.5000327 C24.9729677,21.1795209 21.1795209,24.9729677 16.5000327,24.9729677 C11.8204791,24.9729677 8.02703234,21.1795209 8.02703234,16.5000327 C8.02703234,11.8204791 11.8204791,8.02703234 16.5000327,8.02703234 Z M16.5000327,22 C19.5375803,22 22,19.5375803 22,16.5000327 C22,13.4624197 19.5375803,11 16.5000327,11 C13.4624197,11 11,13.4624197 11,16.5000327 C11,19.5375803 13.4624197,22 16.5000327,22 Z M27.2877574,7.69227792 C27.2877574,8.78581338 26.4012575,9.67224779 25.3077221,9.67224779 C24.2142521,9.67224779 23.3277522,8.78581338 23.3277522,7.69227792 C23.3277522,6.59874246 24.2142521,5.71224255 25.3077221,5.71224255 C26.4012575,5.71224255 27.2877574,6.59874246 27.2877574,7.69227792 Z"></path>
                    </g>
                </g>
            </g>
        </g>
    </g>
</svg>