<?xml version="1.0" encoding="UTF-8"?>
<svg width="35px" height="35px" viewBox="0 0 35 35" version="1.1" xmlns="http://www.w3.org/2000/svg" xmlns:xlink="http://www.w3.org/1999/xlink">
    <!-- Generator: Sketch 52.5 (67469) - http://www.bohemiancoding.com/sketch -->
    <title>sn-linkedin-white</title>
    <desc>Created with Sketch.</desc>
    <g id="WEB" stroke="none" stroke-width="1" fill="none" fill-rule="evenodd">
        <g id="BURGER-MENU" transform="translate(-391.000000, -734.000000)" fill="#FFFFFF" fill-rule="nonzero">
            <g id="Group-7-Copy" transform="translate(275.000000, 704.000000)">
                <path d="M116,47.5 C116,37.8350164 123.835016,30 133.5,30 C143.164984,30 151,37.8350164 151,47.5 C151,57.1649836 143.164984,65 133.5,65 C123.835016,65 116,57.1649836 116,47.5 Z M128.367062,44.4942644 L124.401179,44.4942644 L124.401179,56.4100957 L128.367062,56.4100957 L128.367062,44.4942644 Z M128.628265,40.8082171 C128.602525,39.6398774 127.767039,38.75 126.410336,38.75 C125.053632,38.75 124.166667,39.6398774 124.166667,40.8082171 C124.166667,41.9523564 125.027417,42.8678577 126.358856,42.8678577 L126.3842,42.8678577 C127.767039,42.8678577 128.628265,41.9523564 128.628265,40.8082171 Z M142.669552,49.5779222 C142.669552,45.9178942 140.713064,44.2144576 138.10333,44.2144576 C135.997707,44.2144576 135.054984,45.3710135 134.528618,46.1823583 L134.528618,44.4945807 L130.56226,44.4945807 C130.614533,45.6127007 130.56226,56.410412 130.56226,56.410412 L134.528618,56.410412 L134.528618,49.7556287 C134.528618,49.3995038 134.554358,49.0442488 134.65922,48.7892751 C134.945846,48.0778161 135.598458,47.3412076 136.694117,47.3412076 C138.129783,47.3412076 138.703669,48.4338619 138.703669,50.0351192 L138.703669,56.4100957 L142.669394,56.4100957 L142.669552,49.5779222 Z" id="sn-linkedin-white"></path>
            </g>
        </g>
    </g>
</svg>