<?xml version="1.0" encoding="UTF-8"?>
<svg width="35px" height="35px" viewBox="0 0 35 35" version="1.1" xmlns="http://www.w3.org/2000/svg" xmlns:xlink="http://www.w3.org/1999/xlink">
    <!-- Generator: Sketch 52.5 (67469) - http://www.bohemiancoding.com/sketch -->
    <title>sn-linkedin</title>
    <desc>Created with Sketch.</desc>
    <g id="ideas" stroke="none" stroke-width="1" fill="none" fill-rule="evenodd">
        <g id="HOME-1" transform="translate(-359.000000, -5021.000000)" fill="#232526" fill-rule="nonzero">
            <g id="Group-7-Copy" transform="translate(243.000000, 5009.000000)">
                <path d="M116,29.5 C116,19.8350164 123.835016,12 133.5,12 C143.164984,12 151,19.8350164 151,29.5 C151,39.1649836 143.164984,47 133.5,47 C123.835016,47 116,39.1649836 116,29.5 Z M128.367062,26.4942644 L124.401179,26.4942644 L124.401179,38.4100957 L128.367062,38.4100957 L128.367062,26.4942644 Z M128.628265,22.8082171 C128.602525,21.6398774 127.767039,20.75 126.410336,20.75 C125.053632,20.75 124.166667,21.6398774 124.166667,22.8082171 C124.166667,23.9523564 125.027417,24.8678577 126.358856,24.8678577 L126.3842,24.8678577 C127.767039,24.8678577 128.628265,23.9523564 128.628265,22.8082171 Z M142.669552,31.5779222 C142.669552,27.9178942 140.713064,26.2144576 138.10333,26.2144576 C135.997707,26.2144576 135.054984,27.3710135 134.528618,28.1823583 L134.528618,26.4945807 L130.56226,26.4945807 C130.614533,27.6127007 130.56226,38.410412 130.56226,38.410412 L134.528618,38.410412 L134.528618,31.7556287 C134.528618,31.3995038 134.554358,31.0442488 134.65922,30.7892751 C134.945846,30.0778161 135.598458,29.3412076 136.694117,29.3412076 C138.129783,29.3412076 138.703669,30.4338619 138.703669,32.0351192 L138.703669,38.4100957 L142.669394,38.4100957 L142.669552,31.5779222 Z" id="sn-linkedin"></path>
            </g>
        </g>
    </g>
</svg>