<?xml version="1.0" encoding="UTF-8"?>
<svg width="33px" height="27px" viewBox="0 0 33 27" version="1.1" xmlns="http://www.w3.org/2000/svg" xmlns:xlink="http://www.w3.org/1999/xlink">
    <!-- Generator: Sketch 59.1 (86144) - https://sketch.com -->
    <title>Fill 1</title>
    <desc>Created with Sketch.</desc>
    <g id="WEB" stroke="none" stroke-width="1" fill="none" fill-rule="evenodd">
        <g id="PAGINA-NOTICIA-INDIVIDUAL" transform="translate(-285.000000, -1099.000000)" fill="#232526">
            <path d="M318,1102.19609 C316.78593,1102.7383 315.480945,1103.10475 314.11161,1103.26937 C315.50916,1102.42583 316.582815,1101.09008 317.088375,1099.49835 C315.78009,1100.2796 314.331225,1100.84672 312.78897,1101.15238 C311.55411,1099.8276 309.79455,1099 307.84722,1099 C304.10832,1099 301.076775,1102.05174 301.076775,1105.81595 C301.076775,1106.35018 301.13667,1106.87046 301.25217,1107.36931 C295.62534,1107.08508 290.636565,1104.37139 287.29746,1100.24754 C286.71468,1101.25421 286.38072,1102.42517 286.38072,1103.67437 C286.38072,1106.03921 287.57598,1108.12547 289.39263,1109.34776 C288.28284,1109.31238 287.238885,1109.00573 286.326105,1108.49525 C286.325445,1108.52366 286.325445,1108.55206 286.325445,1108.58097 C286.325445,1111.88337 288.659205,1114.63826 291.75642,1115.26452 C291.188325,1115.42034 290.5902,1115.50373 289.97277,1115.50373 C289.53651,1115.50373 289.112295,1115.46087 288.69897,1115.3813 C289.560435,1118.08917 292.06068,1120.05999 295.02342,1120.11481 C292.706325,1121.94309 289.787145,1123.03282 286.61502,1123.03282 C286.06854,1123.03282 285.52965,1123.00042 285,1122.93747 C287.996235,1124.8714 291.554955,1126 295.378335,1126 C307.83138,1126 314.641425,1115.6137 314.641425,1106.60633 C314.641425,1106.31081 314.63466,1106.01695 314.621625,1105.72458 C315.944595,1104.76343 317.092335,1103.56307 318,1102.19609" id="Fill-1"></path>
        </g>
    </g>
</svg>