<?xml version="1.0" encoding="UTF-8"?>
<svg width="113px" height="82px" viewBox="0 0 113 82" version="1.1" xmlns="http://www.w3.org/2000/svg" xmlns:xlink="http://www.w3.org/1999/xlink">
    <!-- Generator: Sketch 52.5 (67469) - http://www.bohemiancoding.com/sketch -->
    <title>Group 7</title>
    <desc>Created with Sketch.</desc>
    <defs>
        <polygon id="path-1" points="0 -3.2e-05 54.08 -3.2e-05 54.08 25.396096 0 25.396096"></polygon>
        <polygon id="path-3" points="0 -2.46153846e-05 34.4145455 -2.46153846e-05 34.4145455 19.5354585 0 19.5354585"></polygon>
    </defs>
    <g id="STYLE-GUIDES-" stroke="none" stroke-width="1" fill="none" fill-rule="evenodd">
        <g id="iconos-DESPLEGADOS" transform="translate(-246.000000, -1823.000000)">
            <g id="Group-7" transform="translate(245.000000, 1823.000000)">
                <g id="Group-6" transform="translate(69.000000, 0.000000)">
                    <g id="Group-5" transform="translate(10.000000, 41.000000) rotate(-90.000000) translate(-10.000000, -41.000000) translate(-31.000000, 31.000000)">
                        <path d="M81.402352,3.81656 L81.402352,19.03088 C79.100272,19.03088 76.369412,19.041 74.617772,19.041 C72.866132,19.041 73.495552,14.72108 73.495552,12.86472 C73.495552,12.6016 73.477292,11.98032 73.223632,11.98032 C72.969972,11.98032 71.140012,11.92884 70.793952,11.92884 C70.447892,11.92884 70.995032,15.75794 70.542272,15.75794 L38.804632,15.75794 C35.586472,15.75794 28.977452,15.84176 28.460892,15.43784 C27.252652,14.49294 27.518632,12.61678 26.280692,11.8184 C1.427952,11.8184 25.8749184,11.76054 0.735078437,11.76054 C-0.219281563,11.76054 0.0451584371,9.51456 0.00533843712,6.37098 C-0.0133615629,4.8928 0.454138437,4.16548 0.997098437,4.16284 C8.72591844,4.12522 -0.272208004,4.15844 26.280692,4.15844 C27.616972,3.22806 27.108332,0.45936 28.917612,1.13686838e-13 C56.756412,0.02706 64.613052,0.09724 70.117672,0.08316 C71.342192,0.08008 71.131432,2.68972 71.773832,3.76046 C74.974172,3.7884 78.230172,3.81656 81.402352,3.81656 Z" id="Stroke-15" fill="#DDDEEE"></path>
                        <path d="M22.482326,7.751106 C22.482326,8.402086 21.954326,8.929866 21.303346,8.929866 C20.652366,8.929866 20.124146,8.402086 20.124146,7.751106 C20.124146,7.099906 20.652366,6.572126 21.303346,6.572126 C21.954326,6.572126 22.482326,7.099906 22.482326,7.751106" id="Fill-17" fill="#FFFFFE"></path>
                        <path d="M22.482326,7.751106 C22.482326,8.402086 21.954326,8.929866 21.303346,8.929866 C20.652366,8.929866 20.124146,8.402086 20.124146,7.751106 C20.124146,7.099906 20.652366,6.572126 21.303346,6.572126 C21.954326,6.572126 22.482326,7.099906 22.482326,7.751106 Z" id="Stroke-19" stroke="#A5A7BF" stroke-width="0.55"></path>
                        <path d="M14.509878,7.751106 C14.509878,8.402086 13.982318,8.929866 13.331338,8.929866 C12.679918,8.929866 12.152138,8.402086 12.152138,7.751106 C12.152138,7.099906 12.679918,6.572126 13.331338,6.572126 C13.982318,6.572126 14.509878,7.099906 14.509878,7.751106" id="Fill-21" fill="#FFFFFE"></path>
                        <path d="M14.509878,7.751106 C14.509878,8.402086 13.982318,8.929866 13.331338,8.929866 C12.679918,8.929866 12.152138,8.402086 12.152138,7.751106 C12.152138,7.099906 12.679918,6.572126 13.331338,6.572126 C13.982318,6.572126 14.509878,7.099906 14.509878,7.751106 Z" id="Stroke-23" stroke="#A5A7BF" stroke-width="0.55"></path>
                        <path d="M6.425736,7.751106 C6.425736,8.402086 5.897736,8.929866 5.246756,8.929866 C4.595776,8.929866 4.067556,8.402086 4.067556,7.751106 C4.067556,7.099906 4.595776,6.572126 5.246756,6.572126 C5.897736,6.572126 6.425736,7.099906 6.425736,7.751106" id="Fill-25" fill="#FFFFFE"></path>
                        <path d="M6.425736,7.751106 C6.425736,8.402086 5.897736,8.929866 5.246756,8.929866 C4.595776,8.929866 4.067556,8.402086 4.067556,7.751106 C4.067556,7.099906 4.595776,6.572126 5.246756,6.572126 C5.897736,6.572126 6.425736,7.099906 6.425736,7.751106 Z" id="Stroke-27" stroke="#A5A7BF" stroke-width="0.55"></path>
                        <path d="M79.127816,8.19665 C79.127816,9.18885 78.323716,9.99317 77.331516,9.99317 C76.339096,9.99317 75.534996,9.18885 75.534996,8.19665 C75.534996,7.20445 76.339096,6.40013 77.331516,6.40013 C78.323716,6.40013 79.127816,7.20445 79.127816,8.19665" id="Fill-65" fill="#A5A7BF"></path>
                        <path d="M78.454066,8.19665 C78.454066,8.81661 77.951586,9.31953 77.331406,9.31953 C76.711006,9.31953 76.208746,8.81661 76.208746,8.19665 C76.208746,7.57647 76.711006,7.07377 77.331406,7.07377 C77.951586,7.07377 78.454066,7.57647 78.454066,8.19665" id="Fill-69" fill="#FFFFFE"></path>
                        <path d="M79.352084,14.709024 C79.352084,15.701224 78.547984,16.505544 77.555564,16.505544 C76.563584,16.505544 75.759044,15.701224 75.759044,14.709024 C75.759044,13.716824 76.563584,12.912504 77.555564,12.912504 C78.547984,12.912504 79.352084,13.716824 79.352084,14.709024" id="Fill-73" fill="#A5A7BF"></path>
                        <path d="M78.678334,14.709024 C78.678334,15.329204 78.176074,15.831684 77.555674,15.831684 C76.935714,15.831684 76.432794,15.329204 76.432794,14.709024 C76.432794,14.088844 76.935714,13.586144 77.555674,13.586144 C78.176074,13.586144 78.678334,14.088844 78.678334,14.709024" id="Fill-77" fill="#FFFFFE"></path>
                    </g>
                    <path d="M11.3939949,32.9570922 C11.3855457,32.9214738 10.9546393,31.4017546 10.8625881,31.0772312 C10.8574742,31.0593056 10.8525826,31.0413799 10.8472463,31.0239199 C10.8461345,31.0190311 10.8450228,31.0155391 10.8450228,31.0155391 L10.8450228,31.0167031 C10.6655896,30.4221316 10.307168,29.9106697 9.83557228,29.5521575 L9.83579462,29.5521575 C9.70260941,29.415271 10.0025541,29.2383429 10.1699806,29.2050525 C10.2896027,29.1815397 10.3027211,29.0621132 10.166423,29.0523356 C10.1270678,29.049542 8.2337922,29.0020508 8.2337922,29.0020508 C7.6141141,28.9987916 7.04135099,29.2101741 6.57953849,29.5691519 C6.42656449,29.6275847 6.36408529,29.293051 6.38520815,29.1221757 C6.40055002,28.9955324 6.29671447,28.945946 6.24513022,29.0781764 C6.23334588,29.1098373 5.79977132,30.4011796 5.65191128,30.8434998 C5.53362324,31.1622032 5.4675865,31.5081442 5.46558539,31.8699156 C5.46402897,32.186291 5.51205569,32.4905608 5.60054937,32.7759737 L5.59765887,32.7720161 C5.62834261,32.9645418 5.28637457,32.9214738 5.13273353,32.8448826 C5.0226723,32.7899417 4.94485122,32.8777074 5.04913146,32.970129 C5.07648001,32.9943403 6.33384624,34.0042272 6.55285698,34.1802241 C6.55685921,34.1832505 6.56063909,34.1862769 6.56441897,34.1895361 C6.57798207,34.2002449 6.58576418,34.2067633 6.58576418,34.2067633 L6.5844301,34.2044353 C7.03779345,34.5552651 7.59788285,34.7645525 8.20488723,34.7680445 C8.20844477,34.7680445 8.21177996,34.7678117 8.21555984,34.7678117 C8.39477066,34.8011021 8.24935642,35.1242287 8.13240246,35.2522687 C8.04791101,35.3442248 8.1030528,35.4494504 8.22000676,35.3744888 C8.24802234,35.3565632 9.38087485,34.5445563 9.72350993,34.2994178 C9.75263725,34.2798626 9.78087518,34.2591434 9.80911311,34.2381914 C9.81622818,34.2330698 9.82111979,34.2298106 9.82111979,34.2298106 L9.82045275,34.2298106 C10.2931602,33.8754888 10.65425,33.3686829 10.8379077,32.7771377 L10.8379077,32.7822593 C10.9206204,32.6076592 11.1743171,32.8516338 11.2561404,33.0078427 C11.3150621,33.1195867 11.4271244,33.0960739 11.3939949,32.9570922" id="Fill-11" fill="#241DBA"></path>
                </g>
                <g id="Group-4" transform="translate(34.000000, 0.000000)">
                    <g id="Group-17" transform="translate(12.000000, 40.500000) rotate(90.000000) translate(-12.000000, -40.500000) translate(-28.000000, 29.000000)">
                        <path d="M57.8686055,5.46216782 C52.6462143,4.60770904 47.7794914,1.99166224 45.745791,1.18029749 C45.4748125,1.0591554 45.1982453,0.948786809 44.9173791,0.845839969 C44.8196492,0.806097701 44.765912,0.782874809 44.765912,0.782874809 L44.765912,0.791493614 C43.3234636,0.283223516 41.7554852,0 40.1131346,0 C38.470784,0 36.9028056,0.283223516 35.4606438,0.791493614 L35.4606438,0.782874809 C35.4606438,0.782874809 28.2663142,4.29575618 21.3133001,5.41356733 C19.6517474,5.68027147 17.9453422,5.91321862 16.2128564,6.11576055 C11.907436,6.61900301 6.30429915,7.01498923 0,7.30012803 L0,16.1408675 C6.90744492,16.2790078 12.6816808,16.4813103 16.2128564,16.7482539 C18.6030849,16.9290094 20.6935317,17.1490283 22.3176833,17.4178871 C26.7974987,18.1579073 31.0076253,20.3513933 33.423361,21.2934766 C35.3686458,22.3744184 37.659568,23 40.1131346,23 C42.3325506,23 44.4194149,22.4883781 46.2375934,21.5910648 C48.8155436,20.6949484 54.3170814,18.1217562 59.5642634,17.2857321 C60.7410353,17.0982731 62.1720198,16.9364311 63.7878601,16.7968543 C67.1775995,16.5035756 72.979922,16.2864295 80,16.1418251 L80,7.41025721 C73.752304,7.15408717 68.1579084,6.77821149 63.7878601,6.27736315 C61.7846824,6.04824657 59.8025697,5.77819068 57.8686055,5.46216782" id="Fill-14" fill="#FFFFFE"></path>
                        <path d="M57.8686055,5.46216782 C52.6462143,4.60770904 47.7794914,1.99166224 45.745791,1.18029749 C45.4748125,1.0591554 45.1982453,0.948786809 44.9173791,0.845839969 C44.8196492,0.806097701 44.765912,0.782874809 44.765912,0.782874809 L44.765912,0.791493614 C43.3234636,0.283223516 41.7554852,0 40.1131346,0 C38.470784,0 36.9028056,0.283223516 35.4606438,0.791493614 L35.4606438,0.782874809 C35.4606438,0.782874809 28.2663142,4.29575618 21.3133001,5.41356733 C19.6517474,5.68027147 17.9453422,5.91321862 16.2128564,6.11576055 C11.907436,6.61900301 6.30429915,7.01498923 0,7.30012803 L0,16.1408675 C6.90744492,16.2790078 12.6816808,16.4813103 16.2128564,16.7482539 C18.6030849,16.9290094 20.6935317,17.1490283 22.3176833,17.4178871 C26.7974987,18.1579073 31.0076253,20.3513933 33.423361,21.2934766 C35.3686458,22.3744184 37.659568,23 40.1131346,23 C42.3325506,23 44.4194149,22.4883781 46.2375934,21.5910648 C48.8155436,20.6949484 54.3170814,18.1217562 59.5642634,17.2857321 C60.7410353,17.0982731 62.1720198,16.9364311 63.7878601,16.7968543 C67.1775995,16.5035756 72.979922,16.2864295 80,16.1418251 L80,7.41025721 C73.752304,7.15408717 68.1579084,6.77821149 63.7878601,6.27736315 C61.7846824,6.04824657 59.8025697,5.77819068 57.8686055,5.46216782" id="Stroke-16" fill="#DDDEEE"></path>
                    </g>
                    <path d="M15.3939949,40.8570922 C15.3855457,40.8214738 14.9546393,39.3017546 14.8625881,38.9772312 C14.8574742,38.9593056 14.8525826,38.9413799 14.8472463,38.9239199 C14.8461345,38.9190311 14.8450228,38.9155391 14.8450228,38.9155391 L14.8450228,38.9167031 C14.6655896,38.3221316 14.307168,37.8106697 13.8355723,37.4521575 L13.8357946,37.4521575 C13.7026094,37.315271 14.0025541,37.1383429 14.1699806,37.1050525 C14.2896027,37.0815397 14.3027211,36.9621132 14.166423,36.9523356 C14.1270678,36.949542 12.2337922,36.9020508 12.2337922,36.9020508 C11.6141141,36.8987916 11.041351,37.1101741 10.5795385,37.4691519 C10.4265645,37.5275847 10.3640853,37.193051 10.3852082,37.0221757 C10.40055,36.8955324 10.2967145,36.845946 10.2451302,36.9781764 C10.2333459,37.0098373 9.79977132,38.3011796 9.65191128,38.7434998 C9.53362324,39.0622032 9.4675865,39.4081442 9.46558539,39.7699156 C9.46402897,40.086291 9.51205569,40.3905608 9.60054937,40.6759737 L9.59765887,40.6720161 C9.62834261,40.8645418 9.28637457,40.8214738 9.13273353,40.7448826 C9.0226723,40.6899417 8.94485122,40.7777074 9.04913146,40.870129 C9.07648001,40.8943403 10.3338462,41.9042272 10.552857,42.0802241 C10.5568592,42.0832505 10.5606391,42.0862769 10.564419,42.0895361 C10.5779821,42.1002449 10.5857642,42.1067633 10.5857642,42.1067633 L10.5844301,42.1044353 C11.0377935,42.4552651 11.5978828,42.6645525 12.2048872,42.6680445 C12.2084448,42.6680445 12.21178,42.6678117 12.2155598,42.6678117 C12.3947707,42.7011021 12.2493564,43.0242287 12.1324025,43.1522687 C12.047911,43.2442248 12.1030528,43.3494504 12.2200068,43.2744888 C12.2480223,43.2565632 13.3808749,42.4445563 13.7235099,42.1994178 C13.7526372,42.1798626 13.7808752,42.1591434 13.8091131,42.1381914 C13.8162282,42.1330698 13.8211198,42.1298106 13.8211198,42.1298106 L13.8204528,42.1298106 C14.2931602,41.7754888 14.65425,41.2686829 14.8379077,40.6771377 L14.8379077,40.6822593 C14.9206204,40.5076592 15.1743171,40.7516338 15.2561404,40.9078427 C15.3150621,41.0195867 15.4271244,40.9960739 15.3939949,40.8570922" id="Fill-11" fill="#241DBA"></path>
                    <circle id="Oval" fill="#FFFFFF" cx="12" cy="5" r="2"></circle>
                    <circle id="Oval-Copy-5" fill="#FFFFFF" cx="12" cy="75" r="2"></circle>
                </g>
                <g id="Group-44-Copy" transform="translate(13.500000, 40.000000) rotate(90.000000) translate(-13.500000, -40.000000) translate(-26.000000, 27.000000)">
                    <g id="Group-3" transform="translate(12.400000, 0.000000)">
                        <mask id="mask-2" fill="white">
                            <use xlink:href="#path-1"></use>
                        </mask>
                        <g id="Clip-2"></g>
                        <path d="M51.84,-3.2e-05 C53.07712,-3.2e-05 54.08,1.002848 54.08,2.239968 L54.08,23.156128 C54.08,24.393248 53.07712,25.396128 51.84,25.396128 L2.24,25.396128 C1.00288,25.396128 0,24.393248 0,23.156128 L0,2.239968 C0,1.002848 1.00288,-3.2e-05 2.24,-3.2e-05 L51.84,-3.2e-05 Z M48.96,6.079968 L47.68,6.079968 C47.34272,6.079968 47.06624,6.341088 47.0416,6.672288 L47.04,6.719968 L47.04,18.996128 C47.04,19.333408 47.30112,19.609888 47.63232,19.634208 L47.68,19.636128 L48.96,19.636128 C49.29728,19.636128 49.57376,19.375008 49.5984,19.043808 L49.6,18.996128 L49.6,6.719968 C49.6,6.382688 49.33888,6.106208 49.00768,6.081568 L48.96,6.079968 Z M6.4,6.079968 L5.12,6.079968 C4.78272,6.079968 4.50624,6.341088 4.4816,6.672288 L4.48,6.719968 L4.48,18.996128 C4.48,19.333408 4.74112,19.609888 5.07232,19.634208 L5.12,19.636128 L6.4,19.636128 C6.73728,19.636128 7.01376,19.375008 7.0384,19.043808 L7.04,18.996128 L7.04,6.719968 C7.04,6.382688 6.77888,6.106208 6.44768,6.081568 L6.4,6.079968 Z" id="Fill-1" fill="#DDDEEE" mask="url(#mask-2)"></path>
                    </g>
                    <path d="M42.7939949,13.8770922 C42.7855457,13.8414738 42.3546393,12.3217546 42.2625881,11.9972312 C42.2574742,11.9793056 42.2525826,11.9613799 42.2472463,11.9439199 C42.2461345,11.9390311 42.2450228,11.9355391 42.2450228,11.9355391 L42.2450228,11.9367031 C42.0655896,11.3421316 41.707168,10.8306697 41.2355723,10.4721575 L41.2357946,10.4721575 C41.1026094,10.335271 41.4025541,10.1583429 41.5699806,10.1250525 C41.6896027,10.1015397 41.7027211,9.98211323 41.566423,9.97233562 C41.5270678,9.96954202 39.6337922,9.92205079 39.6337922,9.92205079 C39.0141141,9.91879159 38.441351,10.1301741 37.9795385,10.4891519 C37.8265645,10.5475847 37.7640853,10.213051 37.7852082,10.0421757 C37.80055,9.91553239 37.6967145,9.86594596 37.6451302,9.99817643 C37.6333459,10.0298373 37.1997713,11.3211796 37.0519113,11.7634998 C36.9336232,12.0822032 36.8675865,12.4281442 36.8655854,12.7899156 C36.864029,13.106291 36.9120557,13.4105608 37.0005494,13.6959737 L36.9976589,13.6920161 C37.0283426,13.8845418 36.6863746,13.8414738 36.5327335,13.7648826 C36.4226723,13.7099417 36.3448512,13.7977074 36.4491315,13.890129 C36.47648,13.9143403 37.7338462,14.9242272 37.952857,15.1002241 C37.9568592,15.1032505 37.9606391,15.1062769 37.964419,15.1095361 C37.9779821,15.1202449 37.9857642,15.1267633 37.9857642,15.1267633 L37.9844301,15.1244353 C38.4377935,15.4752651 38.9978828,15.6845525 39.6048872,15.6880445 C39.6084448,15.6880445 39.61178,15.6878117 39.6155598,15.6878117 C39.7947707,15.7211021 39.6493564,16.0442287 39.5324025,16.1722687 C39.447911,16.2642248 39.5030528,16.3694504 39.6200068,16.2944888 C39.6480223,16.2765632 40.7808749,15.4645563 41.1235099,15.2194178 C41.1526372,15.1998626 41.1808752,15.1791434 41.2091131,15.1581914 C41.2162282,15.1530698 41.2211198,15.1498106 41.2211198,15.1498106 L41.2204528,15.1498106 C41.6931602,14.7954888 42.05425,14.2886829 42.2379077,13.6971377 L42.2379077,13.7022593 C42.3206204,13.5276592 42.5743171,13.7716338 42.6561404,13.9278427 C42.7150621,14.0395867 42.8271244,14.0160739 42.7939949,13.8770922" id="Fill-11" fill="#241DBA"></path>
                    <rect id="Rectangle" fill="#E5E7F4" x="0.44" y="7.04" width="19" height="11.84"></rect>
                    <rect id="Rectangle-Copy-54" fill="#E5E7F4" x="59.44" y="7.04" width="19" height="11.84"></rect>
                </g>
                <g id="Group-44-Copy-2" transform="translate(104.000000, 41.000000) rotate(90.000000) translate(-104.000000, -41.000000) translate(64.000000, 31.000000)">
                    <g id="Group-3" transform="translate(23.000000, 0.000000)">
                        <mask id="mask-4" fill="white">
                            <use xlink:href="#path-3"></use>
                        </mask>
                        <g id="Clip-2"></g>
                        <path d="M32.9890909,-2.46153846e-05 C33.7763491,-2.46153846e-05 34.4145455,0.771421538 34.4145455,1.72305231 L34.4145455,17.8124062 C34.4145455,18.7640369 33.7763491,19.5354831 32.9890909,19.5354831 L1.42545455,19.5354831 C0.638196364,19.5354831 0,18.7640369 0,17.8124062 L0,1.72305231 C0,0.771421538 0.638196364,-2.46153846e-05 1.42545455,-2.46153846e-05 L32.9890909,-2.46153846e-05 Z M31.1563636,4.67689846 L30.3418182,4.67689846 C30.1271855,4.67689846 29.9512436,4.87776 29.9355636,5.13252923 L29.9345455,5.16920615 L29.9345455,14.6124062 C29.9345455,14.8718523 30.1007127,15.0845292 30.3114764,15.1032369 L30.3418182,15.1047138 L31.1563636,15.1047138 C31.3709964,15.1047138 31.5469382,14.9038523 31.5626182,14.6490831 L31.5636364,14.6124062 L31.5636364,5.16920615 C31.5636364,4.90976 31.3974691,4.69708308 31.1867055,4.67812923 L31.1563636,4.67689846 Z M4.07272727,4.67689846 L3.25818182,4.67689846 C3.04354909,4.67689846 2.86760727,4.87776 2.85192727,5.13252923 L2.85090909,5.16920615 L2.85090909,14.6124062 C2.85090909,14.8718523 3.01707636,15.0845292 3.22784,15.1032369 L3.25818182,15.1047138 L4.07272727,15.1047138 C4.28736,15.1047138 4.46330182,14.9038523 4.47898182,14.6490831 L4.48,14.6124062 L4.48,5.16920615 C4.48,4.90976 4.31383273,4.69708308 4.10306909,4.67812923 L4.07272727,4.67689846 Z" id="Fill-1" fill="#DDDEEE" mask="url(#mask-4)"></path>
                    </g>
                    <path d="M43.8939949,10.8770922 C43.8855457,10.8414738 43.4546393,9.32175455 43.3625881,8.99723117 C43.3574742,8.97930556 43.3525826,8.96137995 43.3472463,8.94391994 C43.3461345,8.93903113 43.3450228,8.93553913 43.3450228,8.93553913 L43.3450228,8.93670313 C43.1655896,8.3421316 42.807168,7.83066971 42.3355723,7.4721575 L42.3357946,7.4721575 C42.2026094,7.33527103 42.5025541,7.15834293 42.6699806,7.12505251 C42.7896027,7.10153969 42.8027211,6.98211323 42.666423,6.97233562 C42.6270678,6.96954202 40.7337922,6.92205079 40.7337922,6.92205079 C40.1141141,6.91879159 39.541351,7.13017411 39.0795385,7.48915191 C38.9265645,7.54758475 38.8640853,7.21305096 38.8852082,7.04217566 C38.90055,6.91553239 38.7967145,6.86594596 38.7451302,6.99817643 C38.7333459,7.02983725 38.2997713,8.32117958 38.1519113,8.76349984 C38.0336232,9.08220322 37.9675865,9.42814421 37.9655854,9.78991562 C37.964029,10.106291 38.0120557,10.4105608 38.1005494,10.6959737 L38.0976589,10.6920161 C38.1283426,10.8845418 37.7863746,10.8414738 37.6327335,10.7648826 C37.5226723,10.7099417 37.4448512,10.7977074 37.5491315,10.890129 C37.57648,10.9143403 38.8338462,11.9242272 39.052857,12.1002241 C39.0568592,12.1032505 39.0606391,12.1062769 39.064419,12.1095361 C39.0779821,12.1202449 39.0857642,12.1267633 39.0857642,12.1267633 L39.0844301,12.1244353 C39.5377935,12.4752651 40.0978828,12.6845525 40.7048872,12.6880445 C40.7084448,12.6880445 40.71178,12.6878117 40.7155598,12.6878117 C40.8947707,12.7211021 40.7493564,13.0442287 40.6324025,13.1722687 C40.547911,13.2642248 40.6030528,13.3694504 40.7200068,13.2944888 C40.7480223,13.2765632 41.8808749,12.4645563 42.2235099,12.2194178 C42.2526372,12.1998626 42.2808752,12.1791434 42.3091131,12.1581914 C42.3162282,12.1530698 42.3211198,12.1498106 42.3211198,12.1498106 L42.3204528,12.1498106 C42.7931602,11.7954888 43.15425,11.2886829 43.3379077,10.6971377 L43.3379077,10.7022593 C43.4206204,10.5276592 43.6743171,10.7716338 43.7561404,10.9278427 C43.8150621,11.0395867 43.9271244,11.0160739 43.8939949,10.8770922" id="Fill-11" fill="#241DBA"></path>
                    <rect id="Rectangle" fill="#E5E7F4" x="0.5" y="5.5" width="26" height="9"></rect>
                    <rect id="Rectangle-Copy" fill="#E5E7F4" x="52.5" y="5.5" width="27" height="9"></rect>
                </g>
            </g>
        </g>
    </g>
</svg>
