<?xml version="1.0" encoding="UTF-8"?>
<svg width="111px" height="94px" viewBox="0 0 111 94" version="1.1" xmlns="http://www.w3.org/2000/svg" xmlns:xlink="http://www.w3.org/1999/xlink">
    <!-- Generator: Sketch 52.5 (67469) - http://www.bohemiancoding.com/sketch -->
    <title>Group 33</title>
    <desc>Created with Sketch.</desc>
    <g id="STYLE-GUIDES-" stroke="none" stroke-width="1" fill="none" fill-rule="evenodd">
        <g id="iconos-DESPLEGADOS" transform="translate(-660.000000, -1306.000000)">
            <g id="Group-33" transform="translate(660.000000, 1306.000000)">
                <g id="Group-8" transform="translate(55.000000, 47.000000) rotate(-90.000000) translate(-55.000000, -47.000000) translate(8.000000, -8.000000)">
                    <path d="M31.6710298,52.1211494 C31.6710298,52.7273574 31.1795098,53.2184678 30.5735066,53.2184678 C29.9675034,53.2184678 29.4757786,52.7273574 29.4757786,52.1211494 C29.4757786,51.5149414 29.9675034,51.023831 30.5735066,51.023831 C31.1795098,51.023831 31.6710298,51.5149414 31.6710298,52.1211494" id="Fill-37" fill="#FFFFFE"></path>
                    <path d="M24.3541402,52.1211494 C24.3541402,52.7273574 23.8630298,53.2184678 23.2568218,53.2184678 C22.6506138,53.2184678 22.1592986,52.7273574 22.1592986,52.1211494 C22.1592986,51.5149414 22.6506138,51.023831 23.2568218,51.023831 C23.8630298,51.023831 24.3541402,51.5149414 24.3541402,52.1211494" id="Fill-41" fill="#FFFFFE"></path>
                    <path d="M16.9329254,52.1211494 C16.9329254,52.7273574 16.4416102,53.2184678 15.8354022,53.2184678 C15.229399,53.2184678 14.737879,52.7273574 14.737879,52.1211494 C14.737879,51.5149414 15.229399,51.023831 15.8354022,51.023831 C16.4416102,51.023831 16.9329254,51.5149414 16.9329254,52.1211494" id="Fill-45" fill="#FFFFFE"></path>
                    <path d="M9.40722176,52.1211494 C9.40722176,52.7273574 8.91590656,53.2184678 8.30969856,53.2184678 C7.70369536,53.2184678 7.21217536,52.7273574 7.21217536,52.1211494 C7.21217536,51.5149414 7.70369536,51.023831 8.30969856,51.023831 C8.91590656,51.023831 9.40722176,51.5149414 9.40722176,52.1211494" id="Fill-49" fill="#FFFFFE"></path>
                    <path d="M2.1950464,52.173353 C2.1950464,52.7793562 1.7037312,53.2708762 1.0975232,53.2708762 C0.49152,53.2708762 -7.10542736e-14,52.7793562 -7.10542736e-14,52.173353 C-7.10542736e-14,51.5673498 0.49152,51.0758298 1.0975232,51.0758298 C1.7037312,51.0758298 2.1950464,51.5673498 2.1950464,52.173353" id="Fill-53" fill="#FFFFFE"></path>
                    <path d="M88.3632947,0.49152 C90.8403581,0.49152 92.8484147,2.49957662 92.8484147,4.97664 L92.8484147,105.43104 C92.8484147,107.908103 90.8403581,109.91616 88.3632947,109.91616 L13.7136947,109.91616 C11.2366313,109.91616 9.22857472,107.908103 9.22857472,105.43104 L9.22857472,4.97664 C9.22857472,2.49957662 11.2366313,0.49152 13.7136947,0.49152 L88.3632947,0.49152 Z M88.2404147,3.74784 L13.9594547,3.74784 C13.2540726,3.74784 12.6808984,4.31388916 12.6693911,5.01652842 L12.6692147,5.03808 L12.6692147,105.18528 C12.6692147,105.890662 13.2352639,106.463836 13.9379031,106.475344 L13.9594547,106.47552 L88.2404147,106.47552 C88.9457968,106.47552 89.5189711,105.909471 89.5304784,105.206832 L89.5306547,105.18528 L89.5306547,5.03808 C89.5306547,4.3326979 88.9646056,3.75952367 88.2619663,3.74801636 L88.2404147,3.74784 Z" id="Shape" fill="#DDDEEE"></path>
                    <g id="Group-5" opacity="0.0686848958" style="mix-blend-mode: difference;" transform="translate(45.170975, 1.228800)" fill="#B7C2C5">
                        <circle id="Oval" style="mix-blend-mode: multiply;" cx="0.55296" cy="0.73728" r="1"></circle>
                        <circle id="Oval-Copy-4" style="mix-blend-mode: multiply;" cx="5.8368" cy="0.73728" r="1"></circle>
                        <circle id="Oval-Copy-6" style="mix-blend-mode: multiply;" cx="11.18208" cy="0.73728" r="1"></circle>
                        <circle id="Oval-Copy-5" style="mix-blend-mode: multiply;" cx="8.54016" cy="0.73728" r="1"></circle>
                        <circle id="Oval-Copy-3" style="mix-blend-mode: multiply;" cx="3.19488" cy="0.67584" r="1"></circle>
                    </g>
                    <path d="M83.5709747,9.09272657e-14 L88.0560947,9.09272657e-14 C88.1239595,9.09147992e-14 88.1789747,0.0550152499 88.1789747,0.12288 L88.1789747,0.36864 L83.4480947,0.36864 L83.4480947,0.12288 C83.4480947,0.0550152499 83.50311,9.09258545e-14 83.5709747,9.09133879e-14 Z" id="Rectangle" fill="#A5A7BF"></path>
                    <path d="M91.1895347,9.64608 L94.8144947,9.64608 C94.8823595,9.64608 94.9373747,9.70109525 94.9373747,9.76896 L94.9373747,10.01472 L91.0666547,10.01472 L91.0666547,9.76896 C91.0666547,9.70109525 91.12167,9.64608 91.1895347,9.64608 Z" id="Rectangle-Copy-5" fill="#A5A7BF" transform="translate(93.002015, 9.830400) rotate(90.000000) translate(-93.002015, -9.830400) "></path>
                    <path d="M91.1895347,14.37696 L94.8144947,14.37696 C94.8823595,14.37696 94.9373747,14.4319752 94.9373747,14.49984 L94.9373747,14.7456 L91.0666547,14.7456 L91.0666547,14.49984 C91.0666547,14.4319752 91.12167,14.37696 91.1895347,14.37696 Z" id="Rectangle-Copy-6" fill="#A5A7BF" transform="translate(93.002015, 14.561280) rotate(90.000000) translate(-93.002015, -14.561280) "></path>
                    <rect id="Rectangle" fill="#EEEFF7" x="12.6077747" y="3.74784" width="76.86144" height="102.72768" rx="1.29024"></rect>
                    <rect id="Rectangle" stroke="#A5A7BF" stroke-width="0.5" x="9.16713472" y="0.49152" width="83.61984" height="109.42464" rx="4.48512"></rect>
                </g>
                <path d="M24,60 C25.1045695,60 26,60.8954305 26,62 L26,72 C26,73.1045695 25.1045695,74 24,74 L14,74 C12.8954305,74 12,73.1045695 12,72 L12,62 C12,60.8954305 12.8954305,60 14,60 L24,60 Z M48,60 C49.1045695,60 50,60.8954305 50,62 L50,72 C50,73.1045695 49.1045695,74 48,74 L38,74 C36.8954305,74 36,73.1045695 36,72 L36,62 C36,60.8954305 36.8954305,60 38,60 L48,60 Z M72,60 C73.1045695,60 74,60.8954305 74,62 L74,72 C74,73.1045695 73.1045695,74 72,74 L62,74 C60.8954305,74 60,73.1045695 60,72 L60,62 C60,60.8954305 60.8954305,60 62,60 L72,60 Z M96,60 C97.1045695,60 98,60.8954305 98,62 L98,72 C98,73.1045695 97.1045695,74 96,74 L86,74 C84.8954305,74 84,73.1045695 84,72 L84,62 C84,60.8954305 84.8954305,60 86,60 L96,60 Z M24,36 C25.1045695,36 26,36.8954305 26,38 L26,48 C26,49.1045695 25.1045695,50 24,50 L14,50 C12.8954305,50 12,49.1045695 12,48 L12,38 C12,36.8954305 12.8954305,36 14,36 L24,36 Z M48,36 C49.1045695,36 50,36.8954305 50,38 L50,48 C50,49.1045695 49.1045695,50 48,50 L38,50 C36.8954305,50 36,49.1045695 36,48 L36,38 C36,36.8954305 36.8954305,36 38,36 L48,36 Z M72,36 C73.1045695,36 74,36.8954305 74,38 L74,48 C74,49.1045695 73.1045695,50 72,50 L62,50 C60.8954305,50 60,49.1045695 60,48 L60,38 C60,36.8954305 60.8954305,36 62,36 L72,36 Z M96,36 C97.1045695,36 98,36.8954305 98,38 L98,48 C98,49.1045695 97.1045695,50 96,50 L86,50 C84.8954305,50 84,49.1045695 84,48 L84,38 C84,36.8954305 84.8954305,36 86,36 L96,36 Z M24,12 C25.1045695,12 26,12.8954305 26,14 L26,24 C26,25.1045695 25.1045695,26 24,26 L14,26 C12.8954305,26 12,25.1045695 12,24 L12,14 C12,12.8954305 12.8954305,12 14,12 L24,12 Z M48,12 C49.1045695,12 50,12.8954305 50,14 L50,24 C50,25.1045695 49.1045695,26 48,26 L38,26 C36.8954305,26 36,25.1045695 36,24 L36,14 C36,12.8954305 36.8954305,12 38,12 L48,12 Z M72,12 C73.1045695,12 74,12.8954305 74,14 L74,24 C74,25.1045695 73.1045695,26 72,26 L62,26 C60.8954305,26 60,25.1045695 60,24 L60,14 C60,12.8954305 60.8954305,12 62,12 L72,12 Z M96,12 C97.1045695,12 98,12.8954305 98,14 L98,24 C98,25.1045695 97.1045695,26 96,26 L86,26 C84.8954305,26 84,25.1045695 84,24 L84,14 C84,12.8954305 84.8954305,12 86,12 L96,12 Z" id="Shape" fill="#DDDEEE"></path>
                <path d="M72,12 C73.1045695,12 74,12.8954305 74,14 L74,24 C74,25.1045695 73.1045695,26 72,26 L62,26 C60.8954305,26 60,25.1045695 60,24 L60,14 C60,12.8954305 60.8954305,12 62,12 L72,12 Z" id="Path" fill="#241DBA"></path>
                <g id="Group-98-Copy" transform="translate(55.000000, 19.000000)" fill="#FFFFFF" stroke="#A5A7BF" stroke-linecap="round" stroke-linejoin="round" stroke-width="1.8">
                    <path d="M16.2,19.8 L16.2,2.7 C16.2,1.2096 14.9904,0 13.5,0 C12.0096,0 10.8,1.2096 10.8,2.7 L10.8,25.2 L4.5504,22.0752 C3.9258,21.762 3.2364,21.6 2.538,21.6 C1.1358,21.6 0,22.7358 0,24.138 L0,24.1488 C0,24.822 0.2682,25.4682 0.7434,25.9434 L12.3822,37.584 C14.8266,40.0266 18.1422,41.4 21.5982,41.4 L21.6,41.4 C27.5652,41.4 32.4,36.5652 32.4,30.6 L32.4,15.3 C32.4,13.8096 31.1904,12.6 29.7,12.6 C28.2096,12.6 27,13.8096 27,15.3 L27,19.8 L27,13.5 C27,12.0096 25.7904,10.8 24.3,10.8 C22.8096,10.8 21.6,12.0096 21.6,13.5 L21.6,19.8 L21.6,11.7 C21.6,10.2096 20.3904,9 18.9,9 C17.4096,9 16.2,10.2096 16.2,11.7 L16.2,19.8 L16.2,19.8 Z" id="Stroke-718"></path>
                </g>
            </g>
        </g>
    </g>
</svg>
