<?xml version="1.0" encoding="UTF-8"?>
<svg width="112px" height="96px" viewBox="0 0 112 96" version="1.1" xmlns="http://www.w3.org/2000/svg" xmlns:xlink="http://www.w3.org/1999/xlink">
    <!-- Generator: Sketch 52.5 (67469) - http://www.bohemiancoding.com/sketch -->
    <title>Group 39</title>
    <desc>Created with Sketch.</desc>
    <defs>
        <circle id="path-1" cx="23.63904" cy="23.63904" r="23.63904"></circle>
        <linearGradient x1="45.166306%" y1="-1.69870728%" x2="59.6076601%" y2="51.8765724%" id="linearGradient-3">
            <stop stop-color="#5DBBF7" offset="0%"></stop>
            <stop stop-color="#4499CE" offset="100%"></stop>
        </linearGradient>
        <linearGradient x1="72.3427929%" y1="100%" x2="50%" y2="23.5453408%" id="linearGradient-4">
            <stop stop-color="#EEEFF7" offset="0%"></stop>
            <stop stop-color="#DDDEEE" offset="100%"></stop>
        </linearGradient>
        <circle id="path-5" cx="24.56064" cy="23.74496" r="23.63904"></circle>
    </defs>
    <g id="STYLE-GUIDES-" stroke="none" stroke-width="1" fill="none" fill-rule="evenodd">
        <g id="iconos-DESPLEGADOS" transform="translate(-1062.000000, -1291.000000)">
            <g id="Group-39" transform="translate(1062.000000, 1292.000000)">
                <g id="Fill-120-+-Fill-121" transform="translate(12.000000, 33.000000)">
                    <path d="M70.2,38.0264625 L70.2,5.8514625 C70.2,2.6251875 67.576275,0.0014625 64.35,0.0014625 L5.85,0.0014625 C2.623725,0.0014625 0,2.6251875 0,5.8514625 L0,38.0264625 L70.2,38.0264625 Z" id="Fill-120" fill="#E5E7F4"></path>
                    <path d="M0,40.9514625 L0,43.8764625 C0,47.1027375 2.623725,49.7264625 5.85,49.7264625 L32.175,49.7264625 L32.175,55.5764625 L20.475,55.5764625 L20.475,61.4264625 L49.725,61.4264625 L49.725,55.5764625 L38.025,55.5764625 L38.025,49.7264625 L64.35,49.7264625 C67.576275,49.7264625 70.2,47.1027375 70.2,43.8764625 L70.2,40.9514625 L0,40.9514625 Z" id="Fill-121" fill="#DDDEEE"></path>
                </g>
                <g id="Group-9" transform="translate(0.000000, 36.000000)">
                    <g id="Group-8-Copy-5">
                        <g id="Group-13">
                            <rect id="Rectangle" fill="#A5A7BF" x="0" y="0.5" width="19" height="13" rx="1.8"></rect>
                            <g id="Group-11" opacity="0.899999976" transform="translate(3.000000, 4.000000)" stroke="#EEEFF7" stroke-linecap="round" stroke-width="0.72">
                                <path d="M0.36,0.72 L11.88,0.72" id="Line-2"></path>
                                <path d="M0.36,2.16 L11.88,2.16" id="Line-2-Copy"></path>
                                <path d="M0.36,3.6 L11.88,3.6" id="Line-2-Copy-2"></path>
                                <path d="M0.36,5.04 L11.88,5.04" id="Line-2-Copy-3"></path>
                            </g>
                        </g>
                    </g>
                </g>
                <g id="Group-9-Copy" transform="translate(0.000000, 53.000000)">
                    <g id="Group-8-Copy-5">
                        <g id="Group-13">
                            <rect id="Rectangle" fill="#A5A7BF" x="0" y="0.5" width="19" height="13" rx="1.8"></rect>
                            <g id="Group-11" opacity="0.899999976" transform="translate(3.000000, 4.000000)" stroke="#EEEFF7" stroke-linecap="round" stroke-width="0.72">
                                <path d="M0.36,0.72 L11.88,0.72" id="Line-2"></path>
                                <path d="M0.36,2.16 L11.88,2.16" id="Line-2-Copy"></path>
                                <path d="M0.36,3.6 L11.88,3.6" id="Line-2-Copy-2"></path>
                                <path d="M0.36,5.04 L11.88,5.04" id="Line-2-Copy-3"></path>
                            </g>
                        </g>
                    </g>
                </g>
                <g id="Group-Copy-9" transform="translate(64.000000, 0.000000)">
                    <g id="Group-Copy-6">
                        <mask id="mask-2" fill="white">
                            <use xlink:href="#path-1"></use>
                        </mask>
                        <use id="Mask" stroke="#EEEFF7" stroke-width="0.93312" fill="#FFFFFF" xlink:href="#path-1"></use>
                        <g id="Group-Copy-2" mask="url(#mask-2)">
                            <g transform="translate(-0.921600, -0.105920)">
                                <path d="M13.4170034,87.0265841 C13.4170034,87.0265841 11.1665866,67.9242463 10.6848991,62.9849456 C10.4759895,60.8431125 11.0442765,54.5008797 11.0442765,54.5008797 C11.9433434,52.7844745 11.7770369,55.8163473 13.5751705,56.5314578 L19.1195259,58.5333475 L17.6210812,87.0265841 C17.6210812,87.0265841 17.2587707,91.715806 19.1195259,93.7470838 C22.6959948,97.6513634 14.6428903,106.048105 13.5751705,98.3227416 C13.2609628,96.0494318 12.9674333,91.2319518 13.4170034,90.5169812 C13.8665002,89.9450327 13.4170034,87.0265841 13.4170034,87.0265841 Z" id="Fill-1" stroke="none" fill="#F6B690" fill-rule="evenodd"></path>
                                <path d="M39.8803774,82.448484 C39.8803774,82.448484 37.6299606,63.3461462 37.1482731,58.4068455 C36.9393635,56.2650125 37.5076505,49.9227797 37.5076505,49.9227797 C38.4067174,48.2063744 38.2404109,51.2382472 40.0385445,51.9533578 L45.5828999,53.9552474 L44.0844552,82.448484 C44.0844552,82.448484 43.7221447,87.1377059 45.5828999,89.1689837 C49.1593688,93.0732634 41.1062643,101.470005 40.0385445,93.7446416 C39.7243368,91.4713318 39.4308073,86.6538518 39.8803774,85.9388812 C40.3298742,85.3669327 39.8803774,82.448484 39.8803774,82.448484 Z" id="Fill-1-Copy" stroke="none" fill="#F6B690" fill-rule="evenodd"></path>
                                <path d="M43.6468415,145.25792 L37.0022603,145.25792 L25.6022498,99.5593714 L25.6674196,145.25792 L18.5668605,145.25792 C18.5668605,145.25792 8.98135151,92.12608 15.4304935,78.8754694 L39.3474603,78.8754694 C39.4125599,78.9401334 40.324586,88.6356885 43.6468415,145.25792 Z" id="Fill-2" stroke="none" fill="url(#linearGradient-3)" fill-rule="evenodd"></path>
                                <polygon id="Fill-3" stroke="none" fill="url(#linearGradient-4)" fill-rule="evenodd" points="30.4096895 29.3747627 31.6956403 40.2477503 20.5980964 40.2477503 21.4251011 31.8847325"></polygon>
                                <path d="M20.8687377,35.959391 C20.8687377,35.959391 22.3348784,38.4496054 26.6258885,37.9587003 C30.9168985,37.4677952 31.1770789,35.6856811 31.1684489,35.3841666 C40.555171,35.8159292 46.1373973,42.9204255 47.9151276,56.6976554 L39.4119603,56.6976554 C40.2707594,68.7165262 40.2707594,77.1582788 39.4119603,82.0229132 L14.3227624,82.0229132 L16.2483366,60.2439435 L10.7621451,56.6976554 C10.0464636,54.8380422 11.9184458,35.3152479 20.8687377,35.959391 Z" id="Fill-4" stroke="none" fill="#DDDEEE" fill-rule="evenodd"></path>
                                <path d="M30.9083849,28.9464096 C30.5231462,30.2386782 28.3976932,31.8092601 27.1392696,32.3505024 C24.4652145,33.4994187 21.0065034,34.3287642 18.4794892,31.1903977 C16.1648059,28.3352393 15.4466849,24.4192738 15.2183081,21.8885812 C15.043187,20.3676482 15.743049,18.9397193 16.9128746,17.9677208 C19.5672182,15.8880634 24.4924648,12.3622959 25.6133229,12.8196248 C26.6221367,13.2308011 29.6879319,16.3258124 31.6348056,18.3061721 C32.6750886,19.4550884 33.0410308,20.9879091 32.7226037,22.4389142 L30.9083849,28.9464096 Z" id="Fill-8" stroke="none" fill="url(#linearGradient-4)" fill-rule="evenodd"></path>
                                <path d="M26.9492301,15.3116568 C26.9492301,15.3116568 28.2326197,20.5278712 28.5486207,20.3919666 C28.8646913,20.2567626 30.0462906,18.6006881 31.1563243,19.8182251 C32.4385326,21.2242071 30.8148236,24.2183114 30.8148236,24.2183114 C30.8148236,24.2183114 30.3478396,29.0646411 31.3077936,28.4649796 C32.2677475,27.8653181 38.4854922,18.4059382 32.626688,9.70874483 C32.626688,9.70874483 27.933572,4.36012853 23.2848546,6.35946723 C20.7334309,7.45721205 14.1837456,8.79322817 11.812183,10.8426191 C9.44062035,12.89201 8.64930857,14.5438659 9.99293841,17.7306185 C11.3364988,20.9166705 15.0982176,21.794446 16.7083778,21.5170325 C21.4017023,20.7079098 26.0190836,17.3095944 26.9492301,15.3116568 Z" id="Fill-9" stroke="none" fill="#A5A7BF" fill-rule="evenodd"></path>
                                <mask id="mask-6" fill="white">
                                    <use xlink:href="#path-5"></use>
                                </mask>
                                <use id="Mask" stroke="#EEEFF7" stroke-width="1.8" fill="none" xlink:href="#path-5"></use>
                            </g>
                        </g>
                    </g>
                </g>
                <circle id="Oval" fill="#241DBA" cx="65" cy="55" r="5"></circle>
                <g id="Group-53" transform="translate(29.000000, 50.000000)" stroke="#A5A7BF" stroke-linecap="round" stroke-width="1.5">
                    <path d="M0.75,0.75 L24.75,0.75" id="Line-2"></path>
                    <path d="M0.75,3.75 L24.75,3.75" id="Line-2-Copy"></path>
                    <path d="M0.75,6.75 L24.75,6.75" id="Line-2-Copy-2"></path>
                    <path d="M0.75,9.75 L24.75,9.75" id="Line-2-Copy-3"></path>
                </g>
            </g>
        </g>
    </g>
</svg>
