<?xml version="1.0" encoding="UTF-8"?>
<svg width="124px" height="122px" viewBox="0 0 124 122" version="1.1" xmlns="http://www.w3.org/2000/svg" xmlns:xlink="http://www.w3.org/1999/xlink">
    <!-- Generator: Sketch 52.5 (67469) - http://www.bohemiancoding.com/sketch -->
    <title>Group 35</title>
    <desc>Created with Sketch.</desc>
    <defs>
        <circle id="path-1" cx="18.468" cy="18.468" r="18.468"></circle>
        <linearGradient x1="45.166306%" y1="-1.69870728%" x2="59.6076601%" y2="51.8765724%" id="linearGradient-3">
            <stop stop-color="#5DBBF7" offset="0%"></stop>
            <stop stop-color="#4499CE" offset="100%"></stop>
        </linearGradient>
        <linearGradient x1="72.3427929%" y1="100%" x2="50%" y2="23.5453408%" id="linearGradient-4">
            <stop stop-color="#EEEFF7" offset="0%"></stop>
            <stop stop-color="#DDDEEE" offset="100%"></stop>
        </linearGradient>
        <circle id="path-5" cx="19.188" cy="19.332" r="18.468"></circle>
    </defs>
    <g id="ideas" stroke="none" stroke-width="1" fill="none" fill-rule="evenodd">
        <g id="home-1" transform="translate(-662.000000, -1470.000000)">
            <g id="Group-50" transform="translate(183.000000, 1349.000000)">
                <g id="Group-35" transform="translate(480.000000, 124.000000)">
                    <circle id="Oval" fill="#DDDEEE" cx="57.5" cy="67.5" r="51.5"></circle>
                    <g id="Group-29" transform="translate(37.000000, 0.000000)">
                        <circle id="Oval" stroke="#A5A7BF" stroke-width="1.6" cx="20.8" cy="20.8" r="20.8"></circle>
                        <path d="M41.6,20.8 C41.6,9.3124772 32.2875228,0 20.8,0" id="Path" stroke="#241DBA" stroke-width="4.8" stroke-linecap="round" stroke-linejoin="round"></path>
                        <text id="25%" font-family="Lato-Black, Lato" font-size="12" font-weight="700" line-spacing="8" fill="#A5A7BF">
                            <tspan x="9.6" y="28">25%</tspan>
                        </text>
                    </g>
                    <g id="Group-34" transform="translate(0.000000, 74.000000)">
                        <circle id="Oval" stroke="#A5A7BF" stroke-width="1.6" fill="#EEEFF7" cx="20.8" cy="20.8" r="20.8"></circle>
                        <polyline id="Path-7" stroke="#241DBA" stroke-width="2" stroke-linecap="round" stroke-linejoin="round" points="20.8 4.34453866 20.8 20.8 27.0366557 27.0366557"></polyline>
                    </g>
                    <g id="Group-31" transform="translate(79.000000, 72.000000)">
                        <path d="M0.654240525,26.8969383 C0.226963199,25.2020683 -4.4408921e-14,23.4275392 -4.4408921e-14,21.6 C-4.4408921e-14,9.6706494 9.6706494,-4.61852778e-14 21.6,-4.61852778e-14 C23.4275392,-4.61852778e-14 25.2020683,0.226963199 26.8969383,0.654240525 L21.7279221,21.7279221 L0.654240525,26.8969383 Z" id="Combined-Shape" fill="#241DBA"></path>
                        <path d="M0.899919269,27.142617 L21.9736008,21.9736008 L27.142617,0.899919269 C36.5110927,3.26171535 43.4456787,11.7438674 43.4456787,21.8456787 C43.4456787,33.7750293 33.7750293,43.4456787 21.8456787,43.4456787 C11.7438674,43.4456787 3.26171535,36.5110927 0.899919269,27.142617 Z" id="Combined-Shape" fill="#EEEFF7"></path>
                        <text id="30%" font-family="Lato-Black, Lato" font-size="6.3" font-weight="700" line-spacing="9" fill="#FFFFFF">
                            <tspan x="6.7626" y="15.9">30%</tspan>
                        </text>
                        <text id="70%" font-family="Lato-Black, Lato" font-size="6.3" font-weight="700" line-spacing="9" fill="#A5A7BF">
                            <tspan x="22.0626" y="31.2">70%</tspan>
                        </text>
                        <circle id="Oval" fill="#FFFFFF" cx="21.6" cy="21.6" r="2.7"></circle>
                    </g>
                    <g id="Group-Copy-9" transform="translate(40.000000, 49.000000)" opacity="0.784435454">
                        <g id="Group-Copy-6">
                            <mask id="mask-2" fill="white">
                                <use xlink:href="#path-1"></use>
                            </mask>
                            <use id="Mask" stroke="#EEEFF7" stroke-width="0.972" fill="#FFFFFF" xlink:href="#path-1"></use>
                            <g id="Group-Copy-2" mask="url(#mask-2)">
                                <g transform="translate(-0.720000, -0.864000)">
                                    <path d="M10.4820339,68.7707688 C10.4820339,68.7707688 8.72389576,53.8470674 8.34757744,49.9882387 C8.18436676,48.3149317 8.62834104,43.3600623 8.62834104,43.3600623 C9.330737,42.0191207 9.20081007,44.3877713 10.605602,44.9464514 L14.9371296,46.5104277 L13.7664697,68.7707688 C13.7664697,68.7707688 13.4834146,72.4342234 14.9371296,74.0211592 C17.731246,77.0713777 11.439758,83.6313317 10.605602,77.5958919 C10.3601272,75.8198686 10.1308073,72.0562124 10.4820339,71.4976416 C10.8332032,71.0508068 10.4820339,68.7707688 10.4820339,68.7707688 Z" id="Fill-1" stroke="none" fill="#F6B690" fill-rule="evenodd"></path>
                                    <path d="M31.1565449,65.1941281 C31.1565449,65.1941281 29.3984067,50.2704267 29.0220884,46.4115981 C28.8588777,44.738291 29.302852,39.7834216 29.302852,39.7834216 C30.0052479,38.44248 29.875321,40.8111306 31.2801129,41.3698107 L35.6116406,42.9337871 L34.4409807,65.1941281 C34.4409807,65.1941281 34.1579256,68.8575828 35.6116406,70.4445185 C38.4057569,73.494737 32.114269,80.0546911 31.2801129,74.0192512 C31.0346381,72.243228 30.8053182,68.4795717 31.1565449,67.9210009 C31.5077142,67.4741662 31.1565449,65.1941281 31.1565449,65.1941281 Z" id="Fill-1-Copy" stroke="none" fill="#F6B690" fill-rule="evenodd"></path>
                                    <path d="M34.0990949,114.264 L28.9080159,114.264 L20.0017577,78.5620089 L20.0526716,114.264 L14.5053598,114.264 C14.5053598,114.264 7.01668087,72.75475 12.055073,62.4027105 L30.7402034,62.4027105 C30.7910624,62.4532292 31.5035828,70.0278816 34.0990949,114.264 Z" id="Fill-2" stroke="none" fill="url(#linearGradient-3)" fill-rule="evenodd"></path>
                                    <polygon id="Fill-3" stroke="none" fill="url(#linearGradient-4)" fill-rule="evenodd" points="23.7575699 23.7302834 24.762219 32.2248049 16.0922628 32.2248049 16.7383603 25.6911973"></polygon>
                                    <path d="M16.3037013,28.8745242 C16.3037013,28.8745242 17.4491238,30.8200042 20.8014754,30.4364846 C24.153827,30.052965 24.3570929,28.6606884 24.3503507,28.4251302 C31.6837274,28.7624447 36.0448416,34.3128324 37.4336934,45.0762933 L30.790594,45.0762933 C31.4615308,54.4660361 31.4615308,61.0611553 30.790594,64.8616509 L11.1896581,64.8616509 L12.6940129,47.8468308 L8.40792587,45.0762933 C7.84879966,43.6234705 9.3112858,28.3712874 16.3037013,28.8745242 Z" id="Fill-4" stroke="none" fill="#DDDEEE" fill-rule="evenodd"></path>
                                    <path d="M24.1471757,23.3956325 C23.8462079,24.4052173 22.1856978,25.6322344 21.2025544,26.05508 C19.1134488,26.9526709 16.4113308,27.6005971 14.437101,25.1487482 C12.6287546,22.9181557 12.0677225,19.8588077 11.8893032,17.881704 C11.7524898,16.6934751 12.299257,15.5779057 13.2131833,14.8185318 C15.2868892,13.1937995 19.1347381,10.4392937 20.0104085,10.7965818 C20.7985443,11.1178134 23.1936968,13.5357909 24.7146918,15.0829469 C25.527413,15.9805378 25.8133053,17.178054 25.5645341,18.3116517 L24.1471757,23.3956325 Z" id="Fill-8" stroke="none" fill="url(#linearGradient-4)" fill-rule="evenodd"></path>
                                    <path d="M21.054086,12.7434819 C21.054086,12.7434819 22.0567341,16.8186494 22.3036099,16.7124739 C22.55054,16.6068458 23.4736646,15.3130376 24.3408783,16.2642384 C25.3426036,17.3626618 24.0740809,19.7018058 24.0740809,19.7018058 C24.0740809,19.7018058 23.7092497,23.4880009 24.4592137,23.0195153 C25.2091778,22.5510298 30.0667908,15.1608892 25.4896,8.3662069 C25.4896,8.3662069 21.8231032,4.18760042 18.1912927,5.74958377 C16.1979929,6.60719691 11.0810512,7.65095951 9.22826795,9.25204615 C7.37548465,10.8531328 6.75727232,12.1436453 7.80698313,14.6332957 C8.85663966,17.1223988 11.7954825,17.8081609 13.0534202,17.5914316 C16.7200799,16.9593045 20.3274091,14.3043707 21.054086,12.7434819 Z" id="Fill-9" stroke="none" fill="#A5A7BF" fill-rule="evenodd"></path>
                                    <mask id="mask-6" fill="white">
                                        <use xlink:href="#path-5"></use>
                                    </mask>
                                    <use id="Mask" stroke="#EEEFF7" stroke-width="0.972" fill="none" xlink:href="#path-5"></use>
                                </g>
                            </g>
                        </g>
                    </g>
                </g>
            </g>
        </g>
    </g>
</svg>
