<?xml version="1.0" encoding="UTF-8"?>
<svg width="103px" height="89px" viewBox="0 0 103 89" version="1.1" xmlns="http://www.w3.org/2000/svg" xmlns:xlink="http://www.w3.org/1999/xlink">
    <!-- Generator: Sketch 52.5 (67469) - http://www.bohemiancoding.com/sketch -->
    <title>Group</title>
    <desc>Created with Sketch.</desc>
    <g id="STYLE-GUIDES-" stroke="none" stroke-width="1" fill="none" fill-rule="evenodd">
        <g id="iconos-DESPLEGADOS" transform="translate(-1054.000000, -825.000000)">
            <g id="Group" transform="translate(1054.000000, 825.000000)">
                <path d="M13.7448115,68.4212317 L31.6762559,48.4178066 C38.8440082,50.8537113 47.0614505,48.9568564 52.4931235,42.8976372 C59.8622821,34.6768607 59.3133104,21.9100623 51.2668536,14.3815843 C43.2203968,6.85310632 30.7234228,7.41394667 23.3542642,15.6343659 C17.9222415,21.6935851 16.7935277,30.2226452 19.7971373,37.3035226 L17.208928,40.1906001 L3.97626195,54.9514182 L1.86534331,57.3065904 C0.626485483,58.6886868 -0.0413718285,60.5069527 0.0019864472,62.3805881 L0.0880036717,66.0714178 C0.154789403,68.9438492 2.54753683,71.1825667 5.35428586,70.9985968 L8.96071534,70.762115 C10.7912038,70.6420881 12.505604,69.8029709 13.7448115,68.4212317 Z" id="Fill-5" fill="#EEEFF7"></path>
                <path d="M52.9743192,29.1327544 C52.5376829,28.7428477 52.2540498,28.1903626 52.2255421,27.5682009 C52.1696094,26.3235258 53.1587169,25.270285 54.4350661,25.2153884 C57.2688717,25.0943343 59.8850809,23.903852 61.8012286,21.8635279 C63.7170154,19.8235557 64.7035969,17.1776093 64.5791014,14.4141279 C64.4542451,11.6502945 63.2338286,9.09900963 61.1419438,7.23076528 C59.0500591,5.36252092 56.3367795,4.40007069 53.502613,4.52182856 C52.2262638,4.57637327 51.1462205,3.61216353 51.0902877,2.36748839 C51.0339941,1.12246136 52.0234625,0.0692205682 53.2994509,0.0146758564 C57.3684681,-0.15951532 61.2631916,1.22169754 64.2662389,3.90388976 C67.269647,6.58608197 69.0223267,10.2486714 69.2009507,14.2160074 C69.3795746,18.1836953 67.9632131,21.9817668 65.2127653,24.9106418 C62.4623175,27.8395169 58.7068846,29.5483499 54.6378674,29.7225411 C54.0002341,29.7499894 53.4109555,29.5223092 52.9743192,29.1327544" id="Fill-10" fill="#A5A7BF"></path>
                <path d="M101.784038,41.1393946 C103.309594,42.5651945 103.413843,44.9829962 102.016564,46.5396928 L86.3563725,63.9882523 C84.9590939,65.5453094 82.5896573,65.6516854 81.0637472,64.2258856 L59.7487122,44.306156 C58.0641329,42.7321508 57.0880876,40.5202499 57.0492154,38.1900731 L56.8569747,26.6574653 C56.7972529,23.0807053 59.4889753,20.0812608 62.9860588,19.8284825 L74.2611141,19.0120912 C76.5393777,18.8472985 78.7844234,19.6456599 80.4690027,21.219665 L101.784038,41.1393946 Z" id="Fill-11" fill="#241DBA"></path>
                <path d="M63.6041724,79.2535137 L62.4125526,52.161437 C69.272526,48.7081214 73.8387251,41.4341988 73.4776292,33.2277902 C72.9881802,22.0938889 63.6150358,13.4623737 52.5428639,13.9484416 C41.4706919,14.4345095 32.8916024,23.8536646 33.3814065,34.987566 C33.7425025,43.1939745 38.929717,50.0400174 46.0664125,52.8791865 L46.2383805,56.7891769 L47.1175276,76.7812709 L47.257677,79.9709059 C47.3402628,81.8426871 48.1395674,83.610392 49.4885506,84.9043349 L52.1456598,87.4518524 C54.2137215,89.4349219 57.5061779,89.2905216 59.3919052,87.1339583 L61.8155497,84.3629174 C63.04548,82.9565097 63.6867582,81.1252949 63.6041724,79.2535137 Z" id="Fill-15" fill="#DDDEEE" transform="translate(53.429521, 51.389493) rotate(3.000000) translate(-53.429521, -51.389493) "></path>
                <path d="M43.6777475,25.8211842 C40.6742606,23.1389972 38.9215349,19.4764148 38.7429063,15.5087346 C38.3737404,7.3185981 44.9068568,0.362225364 53.3060108,0.00223096359 C54.5820326,-0.0526655432 55.662826,0.912246134 55.7183993,2.15691886 C55.7746944,3.40123968 54.785561,4.45483033 53.5091783,4.50937493 C47.6584593,4.75992822 43.1079403,9.60560065 43.3648768,15.3106145 C43.4893755,18.0744425 44.7101849,20.6257225 46.8021245,22.4939632 C48.8944251,24.3625559 51.6074149,25.3243004 54.4416558,25.2028947 C55.7176776,25.1483501 56.7981101,26.1129099 56.8536835,27.3575826 C56.9103394,28.6022553 55.9208451,29.6554941 54.6444624,29.7100387 C50.5756993,29.8845814 46.6808736,28.5033712 43.6777475,25.8211842" id="Fill-21" fill="#A5A7BF"></path>
            </g>
        </g>
    </g>
</svg>
