<?xml version="1.0" encoding="UTF-8"?>
<svg width="108px" height="40px" viewBox="0 0 108 40" version="1.1" xmlns="http://www.w3.org/2000/svg" xmlns:xlink="http://www.w3.org/1999/xlink">
    <!-- Generator: Sketch 52.5 (67469) - http://www.bohemiancoding.com/sketch -->
    <title>Group 14</title>
    <desc>Created with Sketch.</desc>
    <g id="STYLE-GUIDES-" stroke="none" stroke-width="1" fill="none" fill-rule="evenodd">
        <g id="iconos-DESPLEGADOS" transform="translate(-662.000000, -1844.000000)">
            <g id="Group-14" transform="translate(663.000000, 1844.000000)">
                <g id="Group-12" transform="translate(31.680000, 0.900000)">
                    <path d="M20.16,37.8757996 C31.2940606,37.8757996 40.32,28.8498602 40.32,17.7157996 C40.32,6.58173906 35.5234365,0.814157646 22.4323867,0.0542670245 C9.34133684,-0.705623597 0,6.58173906 0,17.7157996 C0,28.8498602 9.02593944,37.8757996 20.16,37.8757996 Z" id="Oval" fill="#E5E7F4"></path>
                    <g id="Group-10" transform="translate(0.720000, 1.155800)" stroke="#A5A7BF" stroke-width="2.16">
                        <path d="M29.2771084,16.4819277 C29.2771084,13.0684087 26.5099045,10.3012048 23.0963855,10.3012048" id="Path"></path>
                        <path d="M29.2771084,16.4819277 C29.2771084,19.8954467 26.5099045,22.6626506 23.0963855,22.6626506" id="Path-Copy-3"></path>
                        <path d="M11.7108434,11.2771084 C11.7108434,17.5651697 16.8083242,22.6626506 23.0963855,22.6626506" id="Path-Copy-4"></path>
                        <path d="M11.7108434,11.3855422 C11.7108434,5.09748086 16.8083242,0 23.0963855,0" id="Path-Copy-5"></path>
                        <path d="M39.5783133,16.4819277 C39.5783133,7.37921039 32.1991029,0 23.0963855,0" id="Path-Copy-6"></path>
                        <path d="M39.5783133,16.1566265 C39.5783133,27.1158191 30.6941323,36 19.7349398,36" id="Path-Copy-7"></path>
                        <path d="M0,16.1566265 C0,27.1158191 8.88418093,36 19.8433735,36" id="Path-Copy-8"></path>
                    </g>
                </g>
                <g id="Group-12-Copy" transform="translate(20.500000, 20.060000) scale(1, -1) translate(-20.500000, -20.060000) translate(0.000000, 1.060000)">
                    <path d="M20.16,37.8757996 C31.2940606,37.8757996 40.32,28.8498602 40.32,17.7157996 C40.32,6.58173906 35.5234365,0.814157646 22.4323867,0.0542670245 C9.34133684,-0.705623597 0,6.58173906 0,17.7157996 C0,28.8498602 9.02593944,37.8757996 20.16,37.8757996 Z" id="Oval" fill="#E5E7F4"></path>
                    <g id="Group-10" transform="translate(0.720000, 1.155800)" stroke="#A5A7BF" stroke-width="2.16">
                        <path d="M29.2771084,16.4819277 C29.2771084,13.0684087 26.5099045,10.3012048 23.0963855,10.3012048" id="Path"></path>
                        <path d="M29.2771084,16.4819277 C29.2771084,19.8954467 26.5099045,22.6626506 23.0963855,22.6626506" id="Path-Copy-3"></path>
                        <path d="M11.7108434,11.2771084 C11.7108434,17.5651697 16.8083242,22.6626506 23.0963855,22.6626506" id="Path-Copy-4"></path>
                        <path d="M11.7108434,11.3855422 C11.7108434,5.09748086 16.8083242,0 23.0963855,0" id="Path-Copy-5"></path>
                        <path d="M39.5783133,16.4819277 C39.5783133,7.37921039 32.1991029,0 23.0963855,0" id="Path-Copy-6"></path>
                        <path d="M39.5783133,16.1566265 C39.5783133,27.1158191 30.6941323,36 19.7349398,36" id="Path-Copy-7"></path>
                        <path d="M0,16.1566265 C0,27.1158191 8.88418093,36 19.8433735,36" id="Path-Copy-8"></path>
                    </g>
                </g>
                <g id="Group-12-Copy-2" transform="translate(85.340000, 20.060000) rotate(-180.000000) translate(-85.340000, -20.060000) translate(64.840000, 1.060000)">
                    <path d="M20.16,37.8757996 C31.2940606,37.8757996 40.32,28.8498602 40.32,17.7157996 C40.32,6.58173906 35.5234365,0.814157646 22.4323867,0.0542670245 C9.34133684,-0.705623597 0,6.58173906 0,17.7157996 C0,28.8498602 9.02593944,37.8757996 20.16,37.8757996 Z" id="Oval" fill="#E5E7F4"></path>
                    <g id="Group-10" transform="translate(0.720000, 1.155800)" stroke="#A5A7BF" stroke-width="2.16">
                        <path d="M29.2771084,16.4819277 C29.2771084,13.0684087 26.5099045,10.3012048 23.0963855,10.3012048" id="Path"></path>
                        <path d="M29.2771084,16.4819277 C29.2771084,19.8954467 26.5099045,22.6626506 23.0963855,22.6626506" id="Path-Copy-3"></path>
                        <path d="M11.7108434,11.2771084 C11.7108434,17.5651697 16.8083242,22.6626506 23.0963855,22.6626506" id="Path-Copy-4"></path>
                        <path d="M11.7108434,11.3855422 C11.7108434,5.09748086 16.8083242,0 23.0963855,0" id="Path-Copy-5"></path>
                        <path d="M39.5783133,16.4819277 C39.5783133,7.37921039 32.1991029,0 23.0963855,0" id="Path-Copy-6"></path>
                        <path d="M39.5783133,16.1566265 C39.5783133,27.1158191 30.6941323,36 19.7349398,36" id="Path-Copy-7"></path>
                        <path d="M0,16.1566265 C0,27.1158191 8.88418093,36 19.8433735,36" id="Path-Copy-8"></path>
                    </g>
                </g>
            </g>
        </g>
    </g>
</svg>