<?xml version="1.0" encoding="UTF-8"?>
<svg width="155px" height="83px" viewBox="0 0 155 83" version="1.1" xmlns="http://www.w3.org/2000/svg" xmlns:xlink="http://www.w3.org/1999/xlink">
    <!-- Generator: Sketch 52.5 (67469) - http://www.bohemiancoding.com/sketch -->
    <title>Group 35</title>
    <desc>Created with Sketch.</desc>
    <defs>
        <polygon id="path-1" points="119.500525 0.000262500001 122.125525 0.000262500001 122.125525 12.4005 119.500525 12.4005"></polygon>
        <polygon id="path-3" points="141.22555 31.5002625 153.625 31.5002625 153.625 34.1252625 141.22555 34.1252625"></polygon>
        <circle id="path-5" cx="19.20672" cy="19.20672" r="19.20672"></circle>
        <linearGradient x1="72.3427929%" y1="100%" x2="50%" y2="23.5453408%" id="linearGradient-7">
            <stop stop-color="#EEEFF7" offset="0%"></stop>
            <stop stop-color="#DDDEEE" offset="100%"></stop>
        </linearGradient>
        <circle id="path-8" cx="19.95552" cy="20.10528" r="19.20672"></circle>
    </defs>
    <g id="STYLE-GUIDES-" stroke="none" stroke-width="1" fill="none" fill-rule="evenodd">
        <g id="iconos-DESPLEGADOS" transform="translate(-649.000000, -2300.000000)">
            <g id="Group-35" transform="translate(650.000000, 2300.000000)">
                <mask id="mask-2" fill="white">
                    <use xlink:href="#path-1"></use>
                </mask>
                <g id="Clip-6"></g>
                <mask id="mask-4" fill="white">
                    <use xlink:href="#path-3"></use>
                </mask>
                <g id="Clip-13"></g>
                <g id="Group-30" transform="translate(106.000000, 19.000263)">
                    <g id="Group-28" transform="translate(9.172800, 0.000000)" stroke="#DDDEEE" stroke-width="0.9828">
                        <path d="M5.8968,2.27740428 C5.1166977,1.3730315 3.81921392,0.6552 2.1070364,0.6552 C-2.51964368,0.6552 1.42091978,5.8968 4.87661299,5.8968 C5.23994607,5.8968 5.54740653,5.83885667 5.80134936,5.7351544" id="Path" transform="translate(2.948400, 3.276000) scale(-1, 1) rotate(90.000000) translate(-2.948400, -3.276000) "></path>
                        <path d="M11.2332004,2.27740428 C10.4530981,1.3730315 9.15561435,0.6552 7.44343683,0.6552 C2.81675675,0.6552 6.75732021,5.8968 10.2130134,5.8968 C10.5763465,5.8968 10.883807,5.83885667 11.1377498,5.7351544" id="Path-Copy-9" transform="translate(8.284800, 3.276000) rotate(90.000000) translate(-8.284800, -3.276000) "></path>
                    </g>
                    <g id="Group-27" transform="translate(3.276000, 5.633293)">
                        <rect id="Rectangle" fill="#DDDEEE" x="0" y="0" width="22.932" height="22.932" rx="5.2416"></rect>
                        <path d="M22.932,11.466 L1.15363968e-15,11.466" id="Line-6-Copy" stroke="#FFFFFF" stroke-width="1.3104"></path>
                        <path d="M11.466,0 L11.466,22.932" id="Line-6" stroke="#FFFFFF" stroke-width="1.3104"></path>
                    </g>
                    <rect id="Rectangle" fill="#DDDEEE" x="0" y="5.63329268" width="30.1392" height="5.8968" rx="1.9656"></rect>
                </g>
                <path d="M25.2234695,37.6290625 C46.7287192,-16.999199 111.034472,111.549063 121.5,48.7658441" id="Path-15" stroke="#DDDEEE" stroke-width="3" stroke-linecap="round" stroke-linejoin="round" stroke-dasharray="2,10"></path>
                <g id="Group-Copy-9" transform="translate(0.000000, 44.000263)">
                    <g id="Group-Copy-6">
                        <mask id="mask-6" fill="white">
                            <use xlink:href="#path-5"></use>
                        </mask>
                        <use id="Mask" stroke="#EEEFF7" stroke-width="1.01088" fill="#FFFFFF" xlink:href="#path-5"></use>
                        <g id="Group-Copy-2" mask="url(#mask-6)">
                            <g transform="translate(-0.748800, -0.898560)">
                                <polygon id="Fill-3" stroke="none" fill="url(#linearGradient-7)" fill-rule="evenodd" points="24.7078727 24.6794947 25.7527077 33.5137971 16.7359533 33.5137971 17.4078947 26.7188452"></polygon>
                                <path d="M16.9558494,30.0295052 C16.9558494,30.0295052 18.1470887,32.0528044 21.6335344,31.653944 C25.1199801,31.2550836 25.3313766,29.8071159 25.3243647,29.5621354 C32.9510765,29.9129425 37.4866353,35.6853457 38.9310412,46.879345 L32.0222177,46.879345 C32.719992,56.6446776 32.719992,63.5036016 32.0222177,67.456117 L11.6372444,67.456117 L13.2017735,49.7607041 L8.7442429,46.879345 C8.16275165,45.3684093 9.68373723,29.5061389 16.9558494,30.0295052 Z" id="Fill-4" stroke="none" fill="#DDDEEE" fill-rule="evenodd"></path>
                                <path d="M25.1130628,24.3314578 C24.8000563,25.381426 23.0731257,26.6575238 22.0506566,27.0972832 C19.8779868,28.0307777 17.067784,28.704621 15.014585,26.1546981 C13.1339048,23.8348819 12.5504314,20.65316 12.3648753,18.5969722 C12.2225894,17.3612141 12.7912273,16.201022 13.7417106,15.4112731 C15.8983648,13.7215515 19.9001277,10.8568655 20.8108249,11.2284451 C21.6304861,11.5625259 24.1214447,14.0772226 25.7032795,15.6862648 C26.5485095,16.6197593 26.8458376,17.8651762 26.5871155,19.0441178 L25.1130628,24.3314578 Z" id="Fill-8" stroke="none" fill="url(#linearGradient-7)" fill-rule="evenodd"></path>
                                <path d="M21.8962495,13.2532212 C21.8962495,13.2532212 22.9390035,17.4913954 23.1957543,17.3809729 C23.4525616,17.2711196 24.4126112,15.9255591 25.3145135,16.9148079 C26.3563078,18.0571683 25.0370441,20.489878 25.0370441,20.489878 C25.0370441,20.489878 24.6576197,24.4275209 25.4375823,23.940296 C26.2175449,23.453071 31.2694624,15.7673248 26.509184,8.70085518 C26.509184,8.70085518 22.6960273,4.35510443 18.9189444,5.97956712 C16.8459126,6.87148479 11.5242933,7.95699789 9.59739866,9.622128 C7.67050404,11.2872581 7.02756322,12.6293911 8.11926246,15.2186275 C9.21090525,17.8072947 12.2673018,18.5204874 13.575557,18.2950889 C17.3888831,17.6376767 21.1405055,14.8765455 21.8962495,13.2532212 Z" id="Fill-9" stroke="none" fill="#A5A7BF" fill-rule="evenodd"></path>
                                <mask id="mask-9" fill="white">
                                    <use xlink:href="#path-8"></use>
                                </mask>
                                <use id="Mask" stroke="#EEEFF7" stroke-width="1.01088" fill="none" xlink:href="#path-8"></use>
                            </g>
                        </g>
                    </g>
                </g>
                <circle id="Oval" fill="#A5A7BF" cx="64" cy="36.0002625" r="3"></circle>
                <circle id="Oval-Copy-10" fill="#A5A7BF" cx="92" cy="59.0002625" r="3"></circle>
                <path d="M107.072988,17.681475 C106.587363,18.122475 106.122738,18.5871 105.681738,19.072725 L96.9142375,10.30785 L98.3054875,8.913975 L107.072988,17.681475 Z M100.350888,32.813025 C100.350888,33.1464 100.385013,33.469275 100.400763,33.7974 L88.0002625,33.7974 L88.0002625,31.82865 L100.400763,31.82865 C100.385013,32.156775 100.350888,32.47965 100.350888,32.813025 Z M120.813025,12.350625 C120.47965,12.350625 120.156775,12.38475 119.82865,12.4005 L119.82865,-1.31450406e-13 L121.7974,-1.31450406e-13 L121.7974,12.4005 C121.469275,12.38475 121.143775,12.350625 120.813025,12.350625 Z M144.70945,10.30785 L135.944575,19.072725 C135.503575,18.5871 135.03895,18.122475 134.553325,17.681475 L143.3182,8.913975 L144.70945,10.30785 Z M105.68095,46.552275 C106.12195,47.0379 106.586575,47.502525 107.0722,47.943525 L98.307325,56.711025 L96.91345,55.319775 L105.68095,46.552275 Z M141.22555,31.8283875 L153.62605,31.8283875 L153.62605,33.7971375 L141.22555,33.7971375 C141.2413,33.4690125 141.275425,33.1461375 141.275425,32.8127625 C141.275425,32.4793875 141.2413,32.1565125 141.22555,31.8283875 Z M134.5528,47.9448375 C135.038425,47.5038375 135.50305,47.0392125 135.94405,46.5535875 L144.71155,55.3184625 L143.317675,56.7097125 L134.5528,47.9448375 Z" id="Combined-Shape" fill="#241DBA"></path>
            </g>
        </g>
    </g>
</svg>
