<?xml version="1.0" encoding="UTF-8"?>
<svg width="88px" height="102px" viewBox="0 0 88 102" version="1.1" xmlns="http://www.w3.org/2000/svg" xmlns:xlink="http://www.w3.org/1999/xlink">
    <!-- Generator: Sketch 52.5 (67469) - http://www.bohemiancoding.com/sketch -->
    <title>Group 55</title>
    <desc>Created with Sketch.</desc>
    <defs>
        <polygon id="path-1" points="0 3e-05 50.4 3e-05 50.4 101.4 0 101.4"></polygon>
        <circle id="path-3" cx="14.7744" cy="14.7744" r="14.7744"></circle>
        <linearGradient x1="45.166306%" y1="-1.69870728%" x2="59.6076601%" y2="51.8765724%" id="linearGradient-5">
            <stop stop-color="#5DBBF7" offset="0%"></stop>
            <stop stop-color="#4499CE" offset="100%"></stop>
        </linearGradient>
        <linearGradient x1="72.3427929%" y1="100%" x2="50%" y2="23.5453408%" id="linearGradient-6">
            <stop stop-color="#EEEFF7" offset="0%"></stop>
            <stop stop-color="#DDDEEE" offset="100%"></stop>
        </linearGradient>
        <circle id="path-7" cx="15.3504" cy="15.4656" r="14.7744"></circle>
        <polygon id="path-9" points="0 -3.2e-05 54.08 -3.2e-05 54.08 25.396096 0 25.396096"></polygon>
    </defs>
    <g id="STYLE-GUIDES-" stroke="none" stroke-width="1" fill="none" fill-rule="evenodd">
        <g id="iconos-DESPLEGADOS" transform="translate(-675.000000, -813.000000)">
            <g id="Group-55" transform="translate(675.000000, 813.000000)">
                <path d="M39.79761,1.70739 C39.16941,1.70739 38.66031,2.21649 38.66031,2.84439 L38.66031,3.33099 C38.66031,4.22739 37.93341,4.95429 37.03701,4.95429 L13.36311,4.95429 C12.46641,4.95429 11.73981,4.22739 11.73981,3.33099 L11.73981,2.67159 C11.73981,2.13909 11.30811,1.70739 10.77561,1.70739 L8.84601,1.70739 C4.86711,1.70739 1.64181,4.93269 1.64181,8.91129 L1.64181,92.48859 C1.64181,96.46719 4.86711,99.69249 8.84601,99.69249 L41.55411,99.69249 C45.53271,99.69249 48.75831,96.46719 48.75831,92.48859 L48.75831,8.91129 C48.75831,4.93269 45.53271,1.70739 41.55411,1.70739 L39.79761,1.70739 Z" id="Fill-1-Copy-2" fill="#EEEFF7"></path>
                <g id="Group-5-Copy">
                    <mask id="mask-2" fill="white">
                        <use xlink:href="#path-1"></use>
                    </mask>
                    <g id="Clip-4"></g>
                    <path d="M48.6,92.35533 C48.6,96.33393 45.4239,99.60003 41.4453,99.60003 L8.7369,99.60003 C4.7583,99.60003 1.5,96.33393 1.5,92.35533 L1.5,8.77803 C1.5,4.79943 4.7583,1.50003 8.7369,1.50003 L10.6665,1.50003 C11.199,1.50003 11.7,2.00583 11.7,2.53833 L11.7,3.19773 C11.7,4.09413 12.3576,4.80003 13.2543,4.80003 L36.9279,4.80003 C37.8246,4.80003 38.7,4.09413 38.7,3.19773 L38.7,2.71143 C38.7,2.08323 39.0606,1.50003 39.6885,1.50003 L41.4453,1.50003 C45.4239,1.50003 48.6,4.79943 48.6,8.77803 L48.6,92.35533 Z M50.4,8.27463 C50.4,3.70473 46.6953,3e-05 42.1254,3e-05 L8.2746,3e-05 C3.7047,3e-05 0,3.70473 0,8.27463 L0,93.12543 C0,97.69533 3.7047,101.40003 8.2746,101.40003 L42.1254,101.40003 C46.6953,101.40003 50.4,97.69533 50.4,93.12543 L50.4,8.27463 Z" id="Fill-3" fill="#DDDEEE" mask="url(#mask-2)"></path>
                </g>
                <g id="Group-Copy-9" transform="translate(11.000000, 19.000000)" opacity="0.784435454">
                    <g id="Group-Copy-6">
                        <mask id="mask-4" fill="white">
                            <use xlink:href="#path-3"></use>
                        </mask>
                        <use id="Mask" stroke="#EEEFF7" stroke-width="0.7776" fill="#FFFFFF" xlink:href="#path-3"></use>
                        <g id="Group-Copy-2" mask="url(#mask-4)">
                            <g transform="translate(-0.576000, -0.691200)">
                                <path d="M8.38562713,55.016615 C8.38562713,55.016615 6.97911661,43.0776539 6.67806195,39.990591 C6.54749341,38.6519453 6.90267283,34.6880498 6.90267283,34.6880498 C7.4645896,33.6152966 7.36064806,35.510217 8.48448158,35.9571611 L11.9497037,37.2083422 L11.0131758,55.016615 C11.0131758,55.016615 10.7867317,57.9473787 11.9497037,59.2169274 C14.1849968,61.6571021 9.15180643,66.9050654 8.48448158,62.0767135 C8.28810173,60.6558949 8.10464583,57.6449699 8.38562713,57.1981133 C8.6665626,56.8406455 8.38562713,55.016615 8.38562713,55.016615 Z" id="Fill-1" stroke="none" fill="#F6B690" fill-rule="evenodd"></path>
                                <path d="M24.9252359,52.1553025 C24.9252359,52.1553025 23.5187254,40.2163414 23.2176707,37.1292785 C23.0871022,35.7906328 23.4422816,31.8267373 23.4422816,31.8267373 C24.0041984,30.753984 23.9002568,32.6489045 25.0240903,33.0958486 L28.4893125,34.3470296 L27.5527845,52.1553025 C27.5527845,52.1553025 27.3263405,55.0860662 28.4893125,56.3556148 C30.7246055,58.7957896 25.6914152,64.0437528 25.0240903,59.215401 C24.8277105,57.7945824 24.6442546,54.7836574 24.9252359,54.3368007 C25.2061714,53.9793329 24.9252359,52.1553025 24.9252359,52.1553025 Z" id="Fill-1-Copy" stroke="none" fill="#F6B690" fill-rule="evenodd"></path>
                                <path d="M27.2792759,91.4112 L23.1264127,91.4112 L16.0014061,62.8496072 L16.0421373,91.4112 L11.6042878,91.4112 C11.6042878,91.4112 5.6133447,58.2038 9.64405843,49.9221684 L24.5921627,49.9221684 C24.6328499,49.9625834 25.2028662,56.0223053 27.2792759,91.4112 Z" id="Fill-2" stroke="none" fill="url(#linearGradient-5)" fill-rule="evenodd"></path>
                                <polygon id="Fill-3" stroke="none" fill="url(#linearGradient-6)" fill-rule="evenodd" points="19.0060559 18.9842267 19.8097752 25.7798439 12.8738102 25.7798439 13.3906882 20.5529578"></polygon>
                                <path d="M13.042961,23.0996194 C13.042961,23.0996194 13.959299,24.6560034 16.6411803,24.3491877 C19.3230616,24.042372 19.4856743,22.9285507 19.4802806,22.7401041 C25.3469819,23.0099558 28.8358733,27.4502659 29.9469547,36.0610346 L24.6324752,36.0610346 C25.1692247,43.5728289 25.1692247,48.8489243 24.6324752,51.8893207 L8.95172648,51.8893207 L10.1552103,38.2774647 L6.7263407,36.0610346 C6.27903973,34.8987764 7.44902864,22.6970299 13.042961,23.0996194 Z" id="Fill-4" stroke="none" fill="#DDDEEE" fill-rule="evenodd"></path>
                                <path d="M19.3177406,18.716506 C19.0769664,19.5241739 17.7485583,20.5057875 16.9620435,20.844064 C15.2907591,21.5621367 13.1290647,22.0804777 11.5496808,20.1189985 C10.1030037,18.3345246 9.65417803,15.8870461 9.51144257,14.3053632 C9.40199188,13.3547801 9.83940561,12.4623246 10.5705466,11.8548255 C12.2295114,10.5550396 15.3077905,8.35143496 16.0083268,8.63726548 C16.6388354,8.89425071 18.5549574,10.8286327 19.7717535,12.0663575 C20.4219304,12.7844302 20.6506443,13.7424432 20.4516273,14.6493214 L19.3177406,18.716506 Z" id="Fill-8" stroke="none" fill="url(#linearGradient-6)" fill-rule="evenodd"></path>
                                <path d="M16.8432688,10.1947855 C16.8432688,10.1947855 17.6453873,13.4549195 17.8428879,13.3699792 C18.040432,13.2854766 18.7789317,12.25043 19.4727027,13.0113907 C20.2740829,13.8901295 19.2592647,15.7614446 19.2592647,15.7614446 C19.2592647,15.7614446 18.9673997,18.7904007 19.567371,18.4156123 C20.1673422,18.0408238 24.0534326,12.1287114 20.39168,6.69296552 C20.39168,6.69296552 17.4584825,3.35008033 14.5530341,4.59966702 C12.9583943,5.28575753 8.86484099,6.12076761 7.38261436,7.40163692 C5.90038772,8.68250624 5.40581786,9.71491621 6.24558651,11.7066365 C7.08531173,13.697919 9.43638602,14.2465287 10.4427361,14.0731453 C13.3760639,13.5674436 16.2619273,11.4434965 16.8432688,10.1947855 Z" id="Fill-9" stroke="none" fill="#A5A7BF" fill-rule="evenodd"></path>
                                <mask id="mask-8" fill="white">
                                    <use xlink:href="#path-7"></use>
                                </mask>
                                <use id="Mask" stroke="#EEEFF7" stroke-width="0.7776" fill="none" xlink:href="#path-7"></use>
                            </g>
                        </g>
                    </g>
                </g>
                <g id="Group-44-Copy" transform="translate(74.500000, 44.000000) rotate(90.000000) translate(-74.500000, -44.000000) translate(35.000000, 31.000000)">
                    <g id="Group-3" transform="translate(12.400000, 0.000000)">
                        <mask id="mask-10" fill="white">
                            <use xlink:href="#path-9"></use>
                        </mask>
                        <g id="Clip-2"></g>
                        <path d="M51.84,-3.2e-05 C53.07712,-3.2e-05 54.08,1.002848 54.08,2.239968 L54.08,23.156128 C54.08,24.393248 53.07712,25.396128 51.84,25.396128 L2.24,25.396128 C1.00288,25.396128 0,24.393248 0,23.156128 L0,2.239968 C0,1.002848 1.00288,-3.2e-05 2.24,-3.2e-05 L51.84,-3.2e-05 Z M48.96,6.079968 L47.68,6.079968 C47.34272,6.079968 47.06624,6.341088 47.0416,6.672288 L47.04,6.719968 L47.04,18.996128 C47.04,19.333408 47.30112,19.609888 47.63232,19.634208 L47.68,19.636128 L48.96,19.636128 C49.29728,19.636128 49.57376,19.375008 49.5984,19.043808 L49.6,18.996128 L49.6,6.719968 C49.6,6.382688 49.33888,6.106208 49.00768,6.081568 L48.96,6.079968 Z M6.4,6.079968 L5.12,6.079968 C4.78272,6.079968 4.50624,6.341088 4.4816,6.672288 L4.48,6.719968 L4.48,18.996128 C4.48,19.333408 4.74112,19.609888 5.07232,19.634208 L5.12,19.636128 L6.4,19.636128 C6.73728,19.636128 7.01376,19.375008 7.0384,19.043808 L7.04,18.996128 L7.04,6.719968 C7.04,6.382688 6.77888,6.106208 6.44768,6.081568 L6.4,6.079968 Z" id="Fill-1" fill="#DDDEEE" mask="url(#mask-10)"></path>
                    </g>
                    <path d="M42.7939949,13.8770922 C42.7855457,13.8414738 42.3546393,12.3217546 42.2625881,11.9972312 C42.2574742,11.9793056 42.2525826,11.9613799 42.2472463,11.9439199 C42.2461345,11.9390311 42.2450228,11.9355391 42.2450228,11.9355391 L42.2450228,11.9367031 C42.0655896,11.3421316 41.707168,10.8306697 41.2355723,10.4721575 L41.2357946,10.4721575 C41.1026094,10.335271 41.4025541,10.1583429 41.5699806,10.1250525 C41.6896027,10.1015397 41.7027211,9.98211323 41.566423,9.97233562 C41.5270678,9.96954202 39.6337922,9.92205079 39.6337922,9.92205079 C39.0141141,9.91879159 38.441351,10.1301741 37.9795385,10.4891519 C37.8265645,10.5475847 37.7640853,10.213051 37.7852082,10.0421757 C37.80055,9.91553239 37.6967145,9.86594596 37.6451302,9.99817643 C37.6333459,10.0298373 37.1997713,11.3211796 37.0519113,11.7634998 C36.9336232,12.0822032 36.8675865,12.4281442 36.8655854,12.7899156 C36.864029,13.106291 36.9120557,13.4105608 37.0005494,13.6959737 L36.9976589,13.6920161 C37.0283426,13.8845418 36.6863746,13.8414738 36.5327335,13.7648826 C36.4226723,13.7099417 36.3448512,13.7977074 36.4491315,13.890129 C36.47648,13.9143403 37.7338462,14.9242272 37.952857,15.1002241 C37.9568592,15.1032505 37.9606391,15.1062769 37.964419,15.1095361 C37.9779821,15.1202449 37.9857642,15.1267633 37.9857642,15.1267633 L37.9844301,15.1244353 C38.4377935,15.4752651 38.9978828,15.6845525 39.6048872,15.6880445 C39.6084448,15.6880445 39.61178,15.6878117 39.6155598,15.6878117 C39.7947707,15.7211021 39.6493564,16.0442287 39.5324025,16.1722687 C39.447911,16.2642248 39.5030528,16.3694504 39.6200068,16.2944888 C39.6480223,16.2765632 40.7808749,15.4645563 41.1235099,15.2194178 C41.1526372,15.1998626 41.1808752,15.1791434 41.2091131,15.1581914 C41.2162282,15.1530698 41.2211198,15.1498106 41.2211198,15.1498106 L41.2204528,15.1498106 C41.6931602,14.7954888 42.05425,14.2886829 42.2379077,13.6971377 L42.2379077,13.7022593 C42.3206204,13.5276592 42.5743171,13.7716338 42.6561404,13.9278427 C42.7150621,14.0395867 42.8271244,14.0160739 42.7939949,13.8770922" id="Fill-11" fill="#241DBA"></path>
                    <rect id="Rectangle" fill="#E5E7F4" x="0.44" y="7.04" width="19" height="11.84"></rect>
                    <rect id="Rectangle-Copy-54" fill="#E5E7F4" x="59.44" y="7.04" width="19" height="11.84"></rect>
                </g>
                <g id="Available-Updates" transform="translate(42.000000, 39.000000)" fill="#241DBA" fill-rule="nonzero">
                    <path d="M12,0 C5.383,0 0,5.383 0,12 L2,12 C2,6.486 6.486,2 12,2 C15.694954,2 18.926328,4.0113529 20.65625,7 L17,7 L17,9 L23,9 L24,9 L24,8 L24,2 L22,2 L22,5.40625 C19.855169,2.1540559 16.180193,0 12,0 Z M22,12 C22,17.514 17.514,22 12,22 C8.305046,22 5.0736716,19.988647 3.34375,17 L7,17 L7,15 L1,15 L0,15 L0,16 L0,22 L2,22 L2,18.59375 C4.1448306,21.845944 7.819807,24 12,24 C18.617,24 24,18.617 24,12 L22,12 Z" id="Shape"></path>
                </g>
                <g id="Group-53" transform="translate(13.000000, 65.000000)" stroke="#A5A7BF" stroke-linecap="round" stroke-width="1.5">
                    <path d="M0.75,0.75 L24.75,0.75" id="Line-2"></path>
                    <path d="M0.75,3.75 L24.75,3.75" id="Line-2-Copy"></path>
                    <path d="M0.75,6.75 L24.75,6.75" id="Line-2-Copy-2"></path>
                    <path d="M0.75,9.75 L24.75,9.75" id="Line-2-Copy-3"></path>
                </g>
            </g>
        </g>
    </g>
</svg>
