<?xml version="1.0" encoding="UTF-8"?>
<svg width="126px" height="120px" viewBox="0 0 126 120" version="1.1" xmlns="http://www.w3.org/2000/svg" xmlns:xlink="http://www.w3.org/1999/xlink">
    <!-- Generator: Sketch 52.5 (67469) - http://www.bohemiancoding.com/sketch -->
    <title>Group 2</title>
    <desc>Created with Sketch.</desc>
    <defs>
        <circle id="path-1" cx="20.52" cy="20.52" r="20.52"></circle>
        <linearGradient x1="45.166306%" y1="-1.69870728%" x2="59.6076601%" y2="51.8765724%" id="linearGradient-3">
            <stop stop-color="#5DBBF7" offset="0%"></stop>
            <stop stop-color="#4499CE" offset="100%"></stop>
        </linearGradient>
        <linearGradient x1="72.3427929%" y1="100%" x2="50%" y2="23.5453408%" id="linearGradient-4">
            <stop stop-color="#EEEFF7" offset="0%"></stop>
            <stop stop-color="#DDDEEE" offset="100%"></stop>
        </linearGradient>
    </defs>
    <g id="ideas" stroke="none" stroke-width="1" fill="none" fill-rule="evenodd">
        <g id="home-1" transform="translate(-235.000000, -1491.000000)">
            <g id="Group-50" transform="translate(183.000000, 1349.000000)">
                <g id="Group-2" transform="translate(52.000000, 143.000000)">
                    <g id="Group-26" opacity="0.572335379" transform="translate(0.000000, 62.000000)">
                        <rect id="Rectangle" fill="#DDDEEE" x="0" y="0" width="52.5" height="52.5" rx="7.5"></rect>
                        <g id="Fill-590" transform="translate(15.750000, 6.000000)" fill="#EEEFF7">
                            <path d="M2.25,12.375 L20.25,12.375 L20.25,13.5 L2.25,13.5 L2.25,12.375 Z M4.5,4.5 L10.125,4.5 L10.125,7.903125 C8.249625,7.9785 6.375375,8.240625 4.5,8.690625 L4.5,4.5 Z M18,4.5 L18,8.690625 C16.12575,8.240625 14.2515,7.9785 12.375,7.903125 L12.375,4.5 L18,4.5 Z M20.25,9.324 L20.25,0 L18,0 L18,2.25 L4.5,2.25 L4.501125,0 L2.25,0 L2.25,9.324 C1.499625,9.563625 0.7515,9.824625 0,10.125 L0,18 L2.25,18 L2.25,15.75 L20.25,15.75 L20.25,18 L22.5,18 L22.5,10.125 C21.749625,9.824625 21.0015,9.563625 20.25,9.324 L20.25,9.324 Z"></path>
                        </g>
                        <g id="Group-22" transform="translate(9.000000, 29.250000)">
                            <rect id="Rectangle-Copy-21" fill="#EEEFF7" x="19.40625" y="4.78125" width="10.51875" height="11.79375" rx="0.6375"></rect>
                            <path d="M34.5369962,10.3613545 L32.0391118,7.83892641 C31.7912837,7.58870766 31.3877462,7.58679516 31.1375274,7.83462329 C30.887468,8.08229204 30.8853962,8.48598891 31.1332243,8.73604829 L32.5588337,10.1756827 L24.8234087,10.1940108 C24.4713493,10.194967 24.1865462,10.4808858 24.1875024,10.8329452 C24.1882993,11.1846858 24.4734212,11.4690108 24.8250024,11.4690108 L24.8264368,11.4690108 L32.5522993,11.450842 L31.1332243,12.883942 C30.8853962,13.1340014 30.887468,13.5376983 31.1375274,13.785367 C31.2618399,13.9085639 31.4240837,13.9699233 31.586168,13.9699233 C31.7503243,13.9699233 31.9144805,13.9069702 32.0391118,13.7810639 L34.5369962,11.2584764 C34.7830712,11.0100108 34.7830712,10.6098202 34.5369962,10.3613545" id="Path-Copy" fill="#241DBA"></path>
                            <g id="Group-20" transform="translate(17.175000, 0.000000)">
                                <polygon id="lock-open-copy" fill="#EEEFF7" points="0.6375 7.0125 4.4625 7.0125 4.4625 3.1875 0.6375 3.1875"></polygon>
                                <path d="M0.658064516,6.67958333 L4.44193548,6.67958333 L4.44193548,3.25833333 L0.658064516,3.25833333 L0.658064516,6.67958333 Z M4.77096774,2.60666667 L1.23387097,2.60666667 L1.23387097,2.04623333 C1.23387097,1.2121 1.76517581,0.651666667 2.53757903,0.651666667 C3.10022419,0.651666667 3.53915323,0.940517917 3.73097903,1.44417479 C3.79522258,1.61254917 3.98811774,1.69759167 4.1580629,1.63405417 C4.32809032,1.57051667 4.41553065,1.38259229 4.35136935,1.21421792 C4.06182097,0.453885833 3.3762,0 2.53683871,0 C1.38900968,0 0.575806452,0.841464583 0.575806452,2.04623333 L0.575806452,2.60666667 L0.329032258,2.60666667 C0.147324194,2.60666667 0,2.75378042 0,2.93372187 L0,7.00541667 C0,7.18535812 0.147324194,7.33125 0.329032258,7.33125 L4.77096774,7.33125 C4.95267581,7.33125 5.1,7.18535812 5.1,7.00541667 L5.1,2.93372187 C5.1,2.75378042 4.95267581,2.60666667 4.77096774,2.60666667 L4.77096774,2.60666667 Z" id="lock-open" fill="#A5A7BF"></path>
                            </g>
                            <rect id="Rectangle" fill="#EEEFF7" x="2.86875" y="4.78125" width="10.51875" height="11.79375" rx="0.6375"></rect>
                            <path d="M10.3494962,10.3613545 L7.85161178,7.83892641 C7.60378365,7.58870766 7.20024615,7.58679516 6.9500274,7.83462329 C6.69996803,8.08229204 6.69789615,8.48598891 6.94572428,8.73604829 L8.37133365,10.1756827 L0.635908651,10.1940108 C0.283849276,10.194967 -0.000953849019,10.4808858 2.40098134e-06,10.8329452 C0.000799275981,11.1846858 0.285921151,11.4690108 0.637502401,11.4690108 L0.638936776,11.4690108 L8.36479928,11.450842 L6.94572428,12.883942 C6.69789615,13.1340014 6.69996803,13.5376983 6.9500274,13.785367 C7.0743399,13.9085639 7.23658365,13.9699233 7.39866803,13.9699233 C7.56282428,13.9699233 7.72698053,13.9069702 7.85161178,13.7810639 L10.3494962,11.2584764 C10.5955712,11.0100108 10.5955712,10.6098202 10.3494962,10.3613545" id="Path-Copy-2" fill="#241DBA"></path>
                            <g id="Group-17" transform="translate(0.318750, 0.000000)">
                                <polygon id="lock-open-copy-2" fill="#EEEFF7" points="0.6375 7.0125 4.4625 7.0125 4.4625 3.1875 0.6375 3.1875"></polygon>
                                <path d="M0.658064516,6.67958333 L4.44193548,6.67958333 L4.44193548,3.25833333 L0.658064516,3.25833333 L0.658064516,6.67958333 Z M1.23387097,2.04623333 C1.23387097,1.2121 1.77751452,0.651666667 2.54991774,0.651666667 C3.32240323,0.651666667 3.86612903,1.2121 3.86612903,2.04623333 L3.86612903,2.60666667 L1.23387097,2.60666667 L1.23387097,2.04623333 Z M4.77096774,2.60666667 L4.52419355,2.60666667 L4.52419355,2.04623333 C4.52419355,0.841464583 3.69782903,0 2.54991774,0 C1.40217097,0 0.575806452,0.841464583 0.575806452,2.04623333 L0.575806452,2.60666667 L0.329032258,2.60666667 C0.147324194,2.60666667 0,2.75378042 0,2.93372187 L0,7.00541667 C0,7.18535812 0.147324194,7.33125 0.329032258,7.33125 L4.77096774,7.33125 C4.95267581,7.33125 5.1,7.18535812 5.1,7.00541667 L5.1,2.93372187 C5.1,2.75378042 4.95267581,2.60666667 4.77096774,2.60666667 L4.77096774,2.60666667 Z" id="lock" fill="#A5A7BF"></path>
                            </g>
                        </g>
                    </g>
                    <g id="Group-26-Copy-2" opacity="0.572335379" transform="translate(73.000000, 62.000000)">
                        <rect id="Rectangle" fill="#DDDEEE" x="0" y="0" width="52.5" height="52.5" rx="7.5"></rect>
                        <g id="Fill-590" transform="translate(15.750000, 6.000000)" fill="#EEEFF7">
                            <path d="M2.25,12.375 L20.25,12.375 L20.25,13.5 L2.25,13.5 L2.25,12.375 Z M4.5,4.5 L10.125,4.5 L10.125,7.903125 C8.249625,7.9785 6.375375,8.240625 4.5,8.690625 L4.5,4.5 Z M18,4.5 L18,8.690625 C16.12575,8.240625 14.2515,7.9785 12.375,7.903125 L12.375,4.5 L18,4.5 Z M20.25,9.324 L20.25,0 L18,0 L18,2.25 L4.5,2.25 L4.501125,0 L2.25,0 L2.25,9.324 C1.499625,9.563625 0.7515,9.824625 0,10.125 L0,18 L2.25,18 L2.25,15.75 L20.25,15.75 L20.25,18 L22.5,18 L22.5,10.125 C21.749625,9.824625 21.0015,9.563625 20.25,9.324 L20.25,9.324 Z"></path>
                        </g>
                        <g id="Group-22" transform="translate(9.000000, 29.250000)">
                            <rect id="Rectangle-Copy-21" fill="#EEEFF7" x="19.40625" y="4.78125" width="10.51875" height="11.79375" rx="0.6375"></rect>
                            <path d="M34.5369962,10.3613545 L32.0391118,7.83892641 C31.7912837,7.58870766 31.3877462,7.58679516 31.1375274,7.83462329 C30.887468,8.08229204 30.8853962,8.48598891 31.1332243,8.73604829 L32.5588337,10.1756827 L24.8234087,10.1940108 C24.4713493,10.194967 24.1865462,10.4808858 24.1875024,10.8329452 C24.1882993,11.1846858 24.4734212,11.4690108 24.8250024,11.4690108 L24.8264368,11.4690108 L32.5522993,11.450842 L31.1332243,12.883942 C30.8853962,13.1340014 30.887468,13.5376983 31.1375274,13.785367 C31.2618399,13.9085639 31.4240837,13.9699233 31.586168,13.9699233 C31.7503243,13.9699233 31.9144805,13.9069702 32.0391118,13.7810639 L34.5369962,11.2584764 C34.7830712,11.0100108 34.7830712,10.6098202 34.5369962,10.3613545" id="Path-Copy" fill="#241DBA"></path>
                            <g id="Group-20" transform="translate(17.175000, 0.000000)">
                                <polygon id="lock-open-copy" fill="#EEEFF7" points="0.6375 7.0125 4.4625 7.0125 4.4625 3.1875 0.6375 3.1875"></polygon>
                                <path d="M0.658064516,6.67958333 L4.44193548,6.67958333 L4.44193548,3.25833333 L0.658064516,3.25833333 L0.658064516,6.67958333 Z M4.77096774,2.60666667 L1.23387097,2.60666667 L1.23387097,2.04623333 C1.23387097,1.2121 1.76517581,0.651666667 2.53757903,0.651666667 C3.10022419,0.651666667 3.53915323,0.940517917 3.73097903,1.44417479 C3.79522258,1.61254917 3.98811774,1.69759167 4.1580629,1.63405417 C4.32809032,1.57051667 4.41553065,1.38259229 4.35136935,1.21421792 C4.06182097,0.453885833 3.3762,0 2.53683871,0 C1.38900968,0 0.575806452,0.841464583 0.575806452,2.04623333 L0.575806452,2.60666667 L0.329032258,2.60666667 C0.147324194,2.60666667 0,2.75378042 0,2.93372187 L0,7.00541667 C0,7.18535812 0.147324194,7.33125 0.329032258,7.33125 L4.77096774,7.33125 C4.95267581,7.33125 5.1,7.18535812 5.1,7.00541667 L5.1,2.93372187 C5.1,2.75378042 4.95267581,2.60666667 4.77096774,2.60666667 L4.77096774,2.60666667 Z" id="lock-open" fill="#A5A7BF"></path>
                            </g>
                            <rect id="Rectangle" fill="#EEEFF7" x="2.86875" y="4.78125" width="10.51875" height="11.79375" rx="0.6375"></rect>
                            <path d="M10.3494962,10.3613545 L7.85161178,7.83892641 C7.60378365,7.58870766 7.20024615,7.58679516 6.9500274,7.83462329 C6.69996803,8.08229204 6.69789615,8.48598891 6.94572428,8.73604829 L8.37133365,10.1756827 L0.635908651,10.1940108 C0.283849276,10.194967 -0.000953849019,10.4808858 2.40098134e-06,10.8329452 C0.000799275981,11.1846858 0.285921151,11.4690108 0.637502401,11.4690108 L0.638936776,11.4690108 L8.36479928,11.450842 L6.94572428,12.883942 C6.69789615,13.1340014 6.69996803,13.5376983 6.9500274,13.785367 C7.0743399,13.9085639 7.23658365,13.9699233 7.39866803,13.9699233 C7.56282428,13.9699233 7.72698053,13.9069702 7.85161178,13.7810639 L10.3494962,11.2584764 C10.5955712,11.0100108 10.5955712,10.6098202 10.3494962,10.3613545" id="Path-Copy-2" fill="#241DBA"></path>
                            <g id="Group-17" transform="translate(0.318750, 0.000000)">
                                <polygon id="lock-open-copy-2" fill="#EEEFF7" points="0.6375 7.0125 4.4625 7.0125 4.4625 3.1875 0.6375 3.1875"></polygon>
                                <path d="M0.658064516,6.67958333 L4.44193548,6.67958333 L4.44193548,3.25833333 L0.658064516,3.25833333 L0.658064516,6.67958333 Z M1.23387097,2.04623333 C1.23387097,1.2121 1.77751452,0.651666667 2.54991774,0.651666667 C3.32240323,0.651666667 3.86612903,1.2121 3.86612903,2.04623333 L3.86612903,2.60666667 L1.23387097,2.60666667 L1.23387097,2.04623333 Z M4.77096774,2.60666667 L4.52419355,2.60666667 L4.52419355,2.04623333 C4.52419355,0.841464583 3.69782903,0 2.54991774,0 C1.40217097,0 0.575806452,0.841464583 0.575806452,2.04623333 L0.575806452,2.60666667 L0.329032258,2.60666667 C0.147324194,2.60666667 0,2.75378042 0,2.93372187 L0,7.00541667 C0,7.18535812 0.147324194,7.33125 0.329032258,7.33125 L4.77096774,7.33125 C4.95267581,7.33125 5.1,7.18535812 5.1,7.00541667 L5.1,2.93372187 C5.1,2.75378042 4.95267581,2.60666667 4.77096774,2.60666667 L4.77096774,2.60666667 Z" id="lock" fill="#A5A7BF"></path>
                            </g>
                        </g>
                    </g>
                    <g id="Group-25" transform="translate(27.000000, 49.000000)">
                        <rect id="Rectangle-Copy-37" fill="#DDDEEE" x="0" y="0" width="70" height="70" rx="10"></rect>
                        <g id="Group-23" transform="translate(12.000000, 39.000000)">
                            <rect id="Rectangle-Copy-21" fill="#EEEFF7" x="25.975" y="6.375" width="14.025" height="15.725" rx="0.85"></rect>
                            <path d="M46.1493282,13.8151394 L42.8188157,10.4519019 C42.4883782,10.1182769 41.9503282,10.1157269 41.6167032,10.4461644 C41.2832907,10.7763894 41.2805282,11.3146519 41.6109657,11.6480644 L43.5117782,13.5675769 L33.1978782,13.5920144 C32.7284657,13.5932894 32.3487282,13.9745144 32.3500032,14.4439269 C32.3510657,14.9129144 32.7312282,15.2920144 33.2000032,15.2920144 L33.2019157,15.2920144 L43.5030657,15.2677894 L41.6109657,17.1785894 C41.2805282,17.5120019 41.2832907,18.0502644 41.6167032,18.3804894 C41.7824532,18.5447519 41.9987782,18.6265644 42.2148907,18.6265644 C42.4337657,18.6265644 42.6526407,18.5426269 42.8188157,18.3747519 L46.1493282,15.0113019 C46.4774282,14.6800144 46.4774282,14.1464269 46.1493282,13.8151394" id="Path-Copy" fill="#241DBA"></path>
                            <rect id="Rectangle" fill="#EEEFF7" x="3.825" y="6.375" width="14.025" height="15.725" rx="0.85"></rect>
                            <path d="M13.7993282,13.8151394 L10.4688157,10.4519019 C10.1383782,10.1182769 9.6003282,10.1157269 9.2667032,10.4461644 C8.9332907,10.7763894 8.9305282,11.3146519 9.2609657,11.6480644 L11.1617782,13.5675769 L0.847878201,13.5920144 C0.378465701,13.5932894 -0.00127179869,13.9745144 3.20130889e-06,14.4439269 C0.00106570131,14.9129144 0.381228201,15.2920144 0.850003201,15.2920144 L0.851915701,15.2920144 L11.1530657,15.2677894 L9.2609657,17.1785894 C8.9305282,17.5120019 8.9332907,18.0502644 9.2667032,18.3804894 C9.4324532,18.5447519 9.6487782,18.6265644 9.8648907,18.6265644 C10.0837657,18.6265644 10.3026407,18.5426269 10.4688157,18.3747519 L13.7993282,15.0113019 C14.1274282,14.6800144 14.1274282,14.1464269 13.7993282,13.8151394" id="Path-Copy-2" fill="#241DBA"></path>
                            <g id="Group-17" transform="translate(23.000000, 0.000000)">
                                <polygon id="lock-open-copy-2" fill="#EEEFF7" points="0.85 9.35 5.95 9.35 5.95 4.25 0.85 4.25"></polygon>
                                <path d="M0.877419355,8.90611111 L5.92258065,8.90611111 L5.92258065,4.34444444 L0.877419355,4.34444444 L0.877419355,8.90611111 Z M1.64516129,2.72831111 C1.64516129,1.61613333 2.37001935,0.868888889 3.39989032,0.868888889 C4.42987097,0.868888889 5.15483871,1.61613333 5.15483871,2.72831111 L5.15483871,3.47555556 L1.64516129,3.47555556 L1.64516129,2.72831111 Z M6.36129032,3.47555556 L6.03225806,3.47555556 L6.03225806,2.72831111 C6.03225806,1.12195278 4.93043871,0 3.39989032,0 C1.86956129,0 0.767741935,1.12195278 0.767741935,2.72831111 L0.767741935,3.47555556 L0.438709677,3.47555556 C0.196432258,3.47555556 0,3.67170722 0,3.91162917 L0,9.34055556 C0,9.5804775 0.196432258,9.775 0.438709677,9.775 L6.36129032,9.775 C6.60356774,9.775 6.8,9.5804775 6.8,9.34055556 L6.8,3.91162917 C6.8,3.67170722 6.60356774,3.47555556 6.36129032,3.47555556 L6.36129032,3.47555556 Z" id="lock" fill="#A5A7BF"></path>
                            </g>
                            <g id="Group-20" transform="translate(0.850000, 0.000000)">
                                <polygon id="lock-open-copy" fill="#EEEFF7" points="0.85 9.35 5.95 9.35 5.95 4.25 0.85 4.25"></polygon>
                                <path d="M0.877419355,8.90611111 L5.92258065,8.90611111 L5.92258065,4.34444444 L0.877419355,4.34444444 L0.877419355,8.90611111 Z M6.36129032,3.47555556 L1.64516129,3.47555556 L1.64516129,2.72831111 C1.64516129,1.61613333 2.35356774,0.868888889 3.38343871,0.868888889 C4.13363226,0.868888889 4.71887097,1.25402389 4.97463871,1.92556639 C5.06029677,2.15006556 5.31749032,2.26345556 5.54408387,2.17873889 C5.7707871,2.09402222 5.88737419,1.84345639 5.80182581,1.61895722 C5.41576129,0.605181111 4.5016,0 3.38245161,0 C1.8520129,0 0.767741935,1.12195278 0.767741935,2.72831111 L0.767741935,3.47555556 L0.438709677,3.47555556 C0.196432258,3.47555556 0,3.67170722 0,3.91162917 L0,9.34055556 C0,9.5804775 0.196432258,9.775 0.438709677,9.775 L6.36129032,9.775 C6.60356774,9.775 6.8,9.5804775 6.8,9.34055556 L6.8,3.91162917 C6.8,3.67170722 6.60356774,3.47555556 6.36129032,3.47555556 L6.36129032,3.47555556 Z" id="lock-open" fill="#A5A7BF"></path>
                            </g>
                        </g>
                        <g id="Fill-537" transform="translate(20.000000, 5.000000)" fill="#EEEFF7">
                            <path d="M27,21 L24,21 L24,18 L27,18 L27,21 Z M27,27 L24,27 L24,24 L27,24 L27,27 Z M19.5,9 L16.5,9 L16.5,6 L19.5,6 L19.5,9 Z M19.5,15 L16.5,15 L16.5,12 L19.5,12 L19.5,15 Z M19.5,21 L16.5,21 L16.5,18 L19.5,18 L19.5,21 Z M13.5,9 L10.5,9 L10.5,6 L13.5,6 L13.5,9 Z M13.5,15 L10.5,15 L10.5,12 L13.5,12 L13.5,15 Z M13.5,21 L10.5,21 L10.5,18 L13.5,18 L13.5,21 Z M6,21 L3,21 L3,18 L6,18 L6,21 Z M6,27 L3,27 L3,24 L6,24 L6,27 Z M28.5,15 L22.5,15 L22.5,4.5 C22.5,3.6735 21.8295,3 21,3 L19.5,3 L19.5,1.5 C19.5,0.6735 18.8295,0 18,0 L12,0 C11.172,0 10.5,0.6735 10.5,1.5 L10.5,3 L9,3 C8.172,3 7.5,3.6735 7.5,4.5 L7.5,15 L1.5,15 C0.672,15 0,15.6735 0,16.5 L0,28.5 C0,29.3295 0.672,30 1.5,30 L12,30 L12,24 L18,24 L18,30 L28.5,30 C29.3295,30 30,29.3295 30,28.5 L30,16.5 C30,15.6735 29.3295,15 28.5,15 L28.5,15 Z"></path>
                        </g>
                    </g>
                    <g id="Group-Copy-7" transform="translate(40.000000, 0.000000)" opacity="0.784435454">
                        <g id="Group-Copy-6">
                            <mask id="mask-2" fill="white">
                                <use xlink:href="#path-1"></use>
                            </mask>
                            <use id="Mask" stroke="#DDDEEE" stroke-width="1.08" fill="#FFFFFF" xlink:href="#path-1"></use>
                            <g id="Group-Copy-2" mask="url(#mask-2)">
                                <g transform="translate(7.200000, 5.040000)">
                                    <path d="M3.64670435,70.4119653 C3.64670435,70.4119653 1.69321752,53.8300749 1.27508604,49.5424875 C1.09374085,47.6832574 1.5870456,42.177847 1.5870456,42.177847 C2.36748555,40.6879119 2.2231223,43.3197459 3.7840022,43.9405016 L8.5968107,45.678253 L7.29607745,70.4119653 C7.29607745,70.4119653 6.9815718,74.4824705 8.5968107,76.2457324 C11.7013844,79.6348641 4.71084227,86.9237019 3.7840022,80.2176577 C3.51125241,78.2442985 3.25645255,74.0624582 3.64670435,73.441824 C4.0368925,72.9453409 3.64670435,70.4119653 3.64670435,70.4119653 Z" id="Fill-1" fill="#F6B690"></path>
                                    <path d="M26.6183832,66.4379202 C26.6183832,66.4379202 24.6648963,49.8560297 24.2467649,45.5684423 C24.0654197,43.7092122 24.5587244,38.2038018 24.5587244,38.2038018 C25.3391644,36.7138667 25.1948011,39.3457007 26.755681,39.9664564 L31.5684895,41.7042078 L30.2677563,66.4379202 C30.2677563,66.4379202 29.9532506,70.5084253 31.5684895,72.2716873 C34.6730632,75.6608189 27.6825211,82.9496567 26.755681,76.2436125 C26.4829312,74.2702533 26.2281314,70.088413 26.6183832,69.4677788 C27.0085713,68.9712957 26.6183832,66.4379202 26.6183832,66.4379202 Z" id="Fill-1-Copy" fill="#F6B690"></path>
                                    <path d="M29.8878832,120.96 L24.1200176,120.96 L14.2241752,81.291121 L14.2807462,120.96 L8.11706642,120.96 C8.11706642,120.96 -0.203687923,74.8386111 5.39452559,63.336345 L26.1557815,63.336345 C26.2122916,63.3924769 27.0039809,71.8087574 29.8878832,120.96 Z" id="Fill-2" fill="url(#linearGradient-3)"></path>
                                    <polygon id="Fill-3" fill="url(#linearGradient-4)" points="18.3972999 20.3669815 19.5135766 29.8053388 9.88029197 29.8053388 10.5981781 22.5457747"></polygon>
                                    <path d="M10.1152237,26.0828047 C10.1152237,26.0828047 11.3879153,28.2444491 15.1127504,27.8183162 C18.8375855,27.3921833 19.0634365,25.8452093 19.0559452,25.583478 C27.2041415,25.9582719 32.049824,32.1253693 33.5929927,44.0847703 L26.2117711,44.0847703 C26.9572565,54.5178179 26.9572565,61.8457282 26.2117711,66.068501 L4.43295344,66.068501 L6.10445882,47.1631454 L1.34213986,44.0847703 C0.720888513,42.4705227 2.34587311,25.5236527 10.1152237,26.0828047 Z" id="Fill-4" fill="#DDDEEE"></path>
                                    <path d="M18.8301953,19.9951472 C18.4957866,21.1169082 16.6507754,22.4802605 15.5583938,22.9500889 C13.2371654,23.9474121 10.234812,24.6673301 8.04122329,21.9430535 C6.03194956,19.4646174 5.4085806,16.0653419 5.2103369,13.86856 C5.05832205,12.5483057 5.66584112,11.3087841 6.68131475,10.4650354 C8.98543244,8.65977726 13.2608201,5.59921523 14.2337872,5.99620205 C15.1094937,6.35312599 17.7707742,9.03976771 19.4607687,10.7588299 C20.3637922,11.7561531 20.6814504,13.0867267 20.4050379,14.3462797 L18.8301953,19.9951472 Z" id="Fill-8" fill="url(#linearGradient-4)"></path>
                                    <path d="M15.3934289,8.15942433 C15.3934289,8.15942433 16.5074823,12.6873882 16.7817888,12.5694155 C17.0561556,12.4520509 18.0818495,11.0144862 19.0454204,12.0713759 C20.1584485,13.2918465 18.7489788,15.8908953 18.7489788,15.8908953 C18.7489788,15.8908953 18.3436108,20.0977788 19.1769041,19.5772393 C20.0101975,19.0566998 25.4075453,10.8454325 20.3217778,3.29578544 C20.3217778,3.29578544 16.2478924,-1.34711065 12.2125474,0.388426411 C9.99776989,1.34132991 4.31227916,2.50106612 2.25363105,4.28005128 C0.194982947,6.05903644 -0.491919641,7.49293919 0.674425704,10.2592174 C1.84071074,13.0248875 5.10609169,13.7868455 6.5038002,13.5460351 C10.5778666,12.8436717 14.5860101,9.89374518 15.3934289,8.15942433 Z" id="Fill-9" fill="#A5A7BF"></path>
                                </g>
                            </g>
                        </g>
                    </g>
                </g>
            </g>
        </g>
    </g>
</svg>
