<?xml version="1.0" encoding="UTF-8"?>
<svg width="107px" height="98px" viewBox="0 0 107 98" version="1.1" xmlns="http://www.w3.org/2000/svg" xmlns:xlink="http://www.w3.org/1999/xlink">
    <!-- Generator: Sketch 52.5 (67469) - http://www.bohemiancoding.com/sketch -->
    <title>Group 52</title>
    <desc>Created with Sketch.</desc>
    <g id="STYLE-GUIDES-" stroke="none" stroke-width="1" fill="none" fill-rule="evenodd">
        <g id="iconos-DESPLEGADOS" transform="translate(-262.000000, -806.000000)">
            <g id="Group-52" transform="translate(262.000000, 806.000000)">
                <rect id="Rectangle" fill="#EEEFF7" x="0" y="0" width="88" height="98" rx="10"></rect>
                <g id="Group-8-Copy-5" opacity="0.55" transform="translate(11.000000, 43.000000)">
                    <g id="Group-13">
                        <rect id="Rectangle" fill="#DDDEEE" x="0" y="0" width="28.8" height="13.5" rx="1.8"></rect>
                        <g id="Group-11" transform="translate(3.150000, 3.600000)">
                            <path d="M0.45,0.9 L14.85,0.9" id="Line-2" stroke="#EEEFF7" stroke-width="0.9" stroke-linecap="round"></path>
                            <path d="M0.45,2.7 L14.85,2.7" id="Line-2-Copy" stroke="#EEEFF7" stroke-width="0.9" stroke-linecap="round"></path>
                            <path d="M0.45,4.5 L14.85,4.5" id="Line-2-Copy-2" stroke="#EEEFF7" stroke-width="0.9" stroke-linecap="round"></path>
                            <path d="M0.45,6.3 L14.85,6.3" id="Line-2-Copy-3" stroke="#EEEFF7" stroke-width="0.9" stroke-linecap="round"></path>
                            <path d="M20.25,7.2 C20.25,7.2 22.95,4.35685425 22.95,2.7 C22.95,1.04314575 21.7411688,0 20.25,0 C18.7588312,0 17.55,1.04314575 17.55,2.7 C17.55,4.35685425 20.25,7.2 20.25,7.2 L20.25,7.2 L20.25,7.2 Z M20.25,3.6 C20.7470563,3.6 21.15,3.19705627 21.15,2.7 C21.15,2.20294373 20.7470563,1.8 20.25,1.8 C19.7529437,1.8 19.35,2.20294373 19.35,2.7 C19.35,3.19705627 19.7529437,3.6 20.25,3.6 L20.25,3.6 L20.25,3.6 Z" id="shape" fill="#241DBA"></path>
                        </g>
                    </g>
                </g>
                <g id="Group-8-Copy-6" opacity="0.55" transform="translate(11.000000, 60.000000)">
                    <g id="Group-13">
                        <rect id="Rectangle" fill="#DDDEEE" x="0" y="0" width="28.8" height="13.5" rx="1.8"></rect>
                        <g id="Group-11" transform="translate(3.150000, 3.600000)">
                            <path d="M0.45,0.9 L14.85,0.9" id="Line-2" stroke="#EEEFF7" stroke-width="0.9" stroke-linecap="round"></path>
                            <path d="M0.45,2.7 L14.85,2.7" id="Line-2-Copy" stroke="#EEEFF7" stroke-width="0.9" stroke-linecap="round"></path>
                            <path d="M0.45,4.5 L14.85,4.5" id="Line-2-Copy-2" stroke="#EEEFF7" stroke-width="0.9" stroke-linecap="round"></path>
                            <path d="M0.45,6.3 L14.85,6.3" id="Line-2-Copy-3" stroke="#EEEFF7" stroke-width="0.9" stroke-linecap="round"></path>
                            <path d="M20.25,7.2 C20.25,7.2 22.95,4.35685425 22.95,2.7 C22.95,1.04314575 21.7411688,0 20.25,0 C18.7588312,0 17.55,1.04314575 17.55,2.7 C17.55,4.35685425 20.25,7.2 20.25,7.2 L20.25,7.2 L20.25,7.2 Z M20.25,3.6 C20.7470563,3.6 21.15,3.19705627 21.15,2.7 C21.15,2.20294373 20.7470563,1.8 20.25,1.8 C19.7529437,1.8 19.35,2.20294373 19.35,2.7 C19.35,3.19705627 19.7529437,3.6 20.25,3.6 L20.25,3.6 L20.25,3.6 Z" id="shape" fill="#241DBA"></path>
                        </g>
                    </g>
                </g>
                <g id="Group-8-Copy-9" opacity="0.55" transform="translate(48.000000, 60.000000)">
                    <g id="Group-13">
                        <rect id="Rectangle" fill="#DDDEEE" x="0" y="0" width="28.8" height="13.5" rx="1.8"></rect>
                        <g id="Group-11" transform="translate(3.150000, 3.600000)">
                            <path d="M0.45,0.9 L14.85,0.9" id="Line-2" stroke="#EEEFF7" stroke-width="0.9" stroke-linecap="round"></path>
                            <path d="M0.45,2.7 L14.85,2.7" id="Line-2-Copy" stroke="#EEEFF7" stroke-width="0.9" stroke-linecap="round"></path>
                            <path d="M0.45,4.5 L14.85,4.5" id="Line-2-Copy-2" stroke="#EEEFF7" stroke-width="0.9" stroke-linecap="round"></path>
                            <path d="M0.45,6.3 L14.85,6.3" id="Line-2-Copy-3" stroke="#EEEFF7" stroke-width="0.9" stroke-linecap="round"></path>
                            <path d="M20.25,7.2 C20.25,7.2 22.95,4.35685425 22.95,2.7 C22.95,1.04314575 21.7411688,0 20.25,0 C18.7588312,0 17.55,1.04314575 17.55,2.7 C17.55,4.35685425 20.25,7.2 20.25,7.2 L20.25,7.2 L20.25,7.2 Z M20.25,3.6 C20.7470563,3.6 21.15,3.19705627 21.15,2.7 C21.15,2.20294373 20.7470563,1.8 20.25,1.8 C19.7529437,1.8 19.35,2.20294373 19.35,2.7 C19.35,3.19705627 19.7529437,3.6 20.25,3.6 L20.25,3.6 L20.25,3.6 Z" id="shape" fill="#241DBA"></path>
                        </g>
                    </g>
                </g>
                <g id="Group-8-Copy-7" opacity="0.55" transform="translate(11.000000, 77.000000)">
                    <g id="Group-13">
                        <rect id="Rectangle" fill="#DDDEEE" x="0" y="0" width="28.8" height="13.5" rx="1.8"></rect>
                        <g id="Group-11" transform="translate(3.150000, 3.600000)">
                            <path d="M0.45,0.9 L14.85,0.9" id="Line-2" stroke="#EEEFF7" stroke-width="0.9" stroke-linecap="round"></path>
                            <path d="M0.45,2.7 L14.85,2.7" id="Line-2-Copy" stroke="#EEEFF7" stroke-width="0.9" stroke-linecap="round"></path>
                            <path d="M0.45,4.5 L14.85,4.5" id="Line-2-Copy-2" stroke="#EEEFF7" stroke-width="0.9" stroke-linecap="round"></path>
                            <path d="M0.45,6.3 L14.85,6.3" id="Line-2-Copy-3" stroke="#EEEFF7" stroke-width="0.9" stroke-linecap="round"></path>
                            <path d="M20.25,7.2 C20.25,7.2 22.95,4.35685425 22.95,2.7 C22.95,1.04314575 21.7411688,0 20.25,0 C18.7588312,0 17.55,1.04314575 17.55,2.7 C17.55,4.35685425 20.25,7.2 20.25,7.2 L20.25,7.2 L20.25,7.2 Z M20.25,3.6 C20.7470563,3.6 21.15,3.19705627 21.15,2.7 C21.15,2.20294373 20.7470563,1.8 20.25,1.8 C19.7529437,1.8 19.35,2.20294373 19.35,2.7 C19.35,3.19705627 19.7529437,3.6 20.25,3.6 L20.25,3.6 L20.25,3.6 Z" id="shape" fill="#241DBA"></path>
                        </g>
                    </g>
                </g>
                <g id="Group-8-Copy-10" opacity="0.55" transform="translate(48.000000, 77.000000)">
                    <g id="Group-13">
                        <rect id="Rectangle" fill="#DDDEEE" x="0" y="0" width="28.8" height="13.5" rx="1.8"></rect>
                        <g id="Group-11" transform="translate(3.150000, 3.600000)">
                            <path d="M0.45,0.9 L14.85,0.9" id="Line-2" stroke="#EEEFF7" stroke-width="0.9" stroke-linecap="round"></path>
                            <path d="M0.45,2.7 L14.85,2.7" id="Line-2-Copy" stroke="#EEEFF7" stroke-width="0.9" stroke-linecap="round"></path>
                            <path d="M0.45,4.5 L14.85,4.5" id="Line-2-Copy-2" stroke="#EEEFF7" stroke-width="0.9" stroke-linecap="round"></path>
                            <path d="M0.45,6.3 L14.85,6.3" id="Line-2-Copy-3" stroke="#EEEFF7" stroke-width="0.9" stroke-linecap="round"></path>
                            <path d="M20.25,7.2 C20.25,7.2 22.95,4.35685425 22.95,2.7 C22.95,1.04314575 21.7411688,0 20.25,0 C18.7588312,0 17.55,1.04314575 17.55,2.7 C17.55,4.35685425 20.25,7.2 20.25,7.2 L20.25,7.2 L20.25,7.2 Z M20.25,3.6 C20.7470563,3.6 21.15,3.19705627 21.15,2.7 C21.15,2.20294373 20.7470563,1.8 20.25,1.8 C19.7529437,1.8 19.35,2.20294373 19.35,2.7 C19.35,3.19705627 19.7529437,3.6 20.25,3.6 L20.25,3.6 L20.25,3.6 Z" id="shape" fill="#241DBA"></path>
                        </g>
                    </g>
                </g>
                <path d="M42.7063043,12.7951807 L45.7936957,12.7951807 C46.3339402,12.7951807 46.7719565,12.3420361 46.7719565,11.7831325 C46.7719565,11.2242289 46.3339402,10.7710843 45.7936957,10.7710843 L42.7063043,10.7710843 C42.1660598,10.7710843 41.7280435,11.2242289 41.7280435,11.7831325 C41.7280435,12.3420361 42.1660598,12.7951807 42.7063043,12.7951807 L42.7063043,12.7951807 Z M34.9565217,27.9759036 L53.5434783,27.9759036 L53.5434783,18.8674699 L34.9565217,18.8674699 L34.9565217,27.9759036 Z M55.5,11.876747 L55.5,28.9879518 C55.5,29.5468554 55.0619837,30 54.5217391,30 L33.9782609,30 C33.4380163,30 33,29.5468554 33,28.9879518 L33,11.876747 C33,11.3178434 33.4380163,10.7710843 33.9782609,10.7710843 L36.2647011,10.7710843 C36.8049457,10.7710843 37.242962,11.2242289 37.242962,11.7831325 C37.242962,12.3420361 36.8049457,12.7951807 36.2647011,12.7951807 L34.9565217,12.7951807 L34.9565217,17.0963855 L53.5434783,17.0963855 L53.5434783,12.7951807 L52.2350543,12.7951807 C51.6948098,12.7951807 51.2567935,12.3420361 51.2567935,11.7831325 C51.2567935,11.2242289 51.6948098,10.7710843 52.2350543,10.7710843 L54.5217391,10.7710843 C55.0619837,10.7710843 55.5,11.3178434 55.5,11.876747 L55.5,11.876747 Z M48.8967391,14.7701928 C49.5719837,14.7701928 50.1195652,14.2036988 50.1195652,13.5051325 L50.1195652,10.2650602 C50.1195652,9.56649398 49.5719837,9 48.8967391,9 C48.22125,9 47.673913,9.56649398 47.673913,10.2650602 L47.673913,13.5051325 C47.673913,14.2036988 48.22125,14.7701928 48.8967391,14.7701928 L48.8967391,14.7701928 Z M38.3804348,13.5051325 L38.3804348,10.2650602 C38.3804348,9.56649398 38.9277717,9 39.6032609,9 C40.2785054,9 40.826087,9.56649398 40.826087,10.2650602 L40.826087,13.5051325 C40.826087,14.2036988 40.2785054,14.7701928 39.6032609,14.7701928 C38.9277717,14.7701928 38.3804348,14.2036988 38.3804348,13.5051325 L38.3804348,13.5051325 Z" id="calendar-copy" fill="#DDDEEE"></path>
                <rect id="Rectangle" fill="#E5E7F4" x="56" y="33" width="48" height="22.5" rx="3"></rect>
                <g id="Group-8-Copy-3" transform="translate(59.000000, 30.000000)">
                    <g id="Group-13">
                        <rect id="Rectangle" fill="#DDDEEE" x="0" y="0" width="48" height="22.5" rx="3"></rect>
                        <g id="Group-11" transform="translate(5.250000, 6.000000)">
                            <path d="M0.75,1.5 L24.75,1.5" id="Line-2" stroke="#EEEFF7" stroke-width="1.5" stroke-linecap="round"></path>
                            <path d="M0.75,4.5 L24.75,4.5" id="Line-2-Copy" stroke="#EEEFF7" stroke-width="1.5" stroke-linecap="round"></path>
                            <path d="M0.75,7.5 L24.75,7.5" id="Line-2-Copy-2" stroke="#EEEFF7" stroke-width="1.5" stroke-linecap="round"></path>
                            <path d="M0.75,10.5 L24.75,10.5" id="Line-2-Copy-3" stroke="#EEEFF7" stroke-width="1.5" stroke-linecap="round"></path>
                            <path d="M33.75,12 C33.75,12 38.25,7.26142375 38.25,4.5 C38.25,1.73857625 36.2352814,0 33.75,0 C31.2647186,0 29.25,1.73857625 29.25,4.5 C29.25,7.26142375 33.75,12 33.75,12 L33.75,12 L33.75,12 Z M33.75,6 C34.5784271,6 35.25,5.32842712 35.25,4.5 C35.25,3.67157288 34.5784271,3 33.75,3 C32.9215729,3 32.25,3.67157288 32.25,4.5 C32.25,5.32842712 32.9215729,6 33.75,6 L33.75,6 L33.75,6 Z" id="shape" fill="#241DBA"></path>
                        </g>
                    </g>
                </g>
                <g id="flecha-copy" transform="translate(44.000000, 35.000000)" stroke="#A5A7BF" stroke-linecap="round" stroke-linejoin="round" stroke-width="1.5">
                    <path d="M0,0 C2.7,4.34367165 8.49895762,6.19005401 17.3968729,5.53914708" id="Path-4"></path>
                    <polygon id="Path-5" fill="#232526" points="12.2679562 0.535551281 17.3968729 5.53034163 12.2679562 11.0782942 16.2310312 5.53914708"></polygon>
                </g>
            </g>
        </g>
    </g>
</svg>
