<?xml version="1.0" encoding="UTF-8"?>
<svg width="106px" height="129px" viewBox="0 0 106 129" version="1.1" xmlns="http://www.w3.org/2000/svg" xmlns:xlink="http://www.w3.org/1999/xlink">
    <!-- Generator: Sketch 63.1 (92452) - https://sketch.com -->
    <title>Group 71</title>
    <desc>Created with Sketch.</desc>
    <defs>
        <polygon id="path-1" points="0 -3.2e-05 54.08 -3.2e-05 54.08 25.396096 0 25.396096"></polygon>
    </defs>
    <g id="GOGUEST/GOFUN-CARDS" stroke="none" stroke-width="1" fill="none" fill-rule="evenodd">
        <g id="Group-71" transform="translate(-1.000000, 0.000000)">
            <g id="Group-3" transform="translate(13.500000, 90.400000) rotate(90.000000) translate(-13.500000, -90.400000) translate(-14.000000, 77.400000)">
                <mask id="mask-2" fill="white">
                    <use xlink:href="#path-1"></use>
                </mask>
                <g id="Clip-2"></g>
                <path d="M51.84,-3.2e-05 C53.07712,-3.2e-05 54.08,1.002848 54.08,2.239968 L54.08,23.156128 C54.08,24.393248 53.07712,25.396128 51.84,25.396128 L2.24,25.396128 C1.00288,25.396128 0,24.393248 0,23.156128 L0,2.239968 C0,1.002848 1.00288,-3.2e-05 2.24,-3.2e-05 L51.84,-3.2e-05 Z M48.96,6.079968 L47.68,6.079968 C47.34272,6.079968 47.06624,6.341088 47.0416,6.672288 L47.04,6.719968 L47.04,18.996128 C47.04,19.333408 47.30112,19.609888 47.63232,19.634208 L47.68,19.636128 L48.96,19.636128 C49.29728,19.636128 49.57376,19.375008 49.5984,19.043808 L49.6,18.996128 L49.6,6.719968 C49.6,6.382688 49.33888,6.106208 49.00768,6.081568 L48.96,6.079968 Z M6.4,6.079968 L5.12,6.079968 C4.78272,6.079968 4.50624,6.341088 4.4816,6.672288 L4.48,6.719968 L4.48,18.996128 C4.48,19.333408 4.74112,19.609888 5.07232,19.634208 L5.12,19.636128 L6.4,19.636128 C6.73728,19.636128 7.01376,19.375008 7.0384,19.043808 L7.04,18.996128 L7.04,6.719968 C7.04,6.382688 6.77888,6.106208 6.44768,6.081568 L6.4,6.079968 Z" id="Fill-1" fill="#DDDEEE" mask="url(#mask-2)"></path>
            </g>
            <rect id="Rectangle" fill="#E5E7F4" transform="translate(13.540000, 60.440000) rotate(90.000000) translate(-13.540000, -60.440000) " x="4.04" y="54.52" width="19" height="11.84"></rect>
            <rect id="Rectangle-Copy-54" fill="#E5E7F4" transform="translate(13.540000, 119.440000) rotate(90.000000) translate(-13.540000, -119.440000) " x="4.04" y="113.52" width="19" height="11.84"></rect>
            <rect id="Rectangle" fill="#E5E7F4" x="43" y="77" width="64" height="44" rx="7.2"></rect>
            <g id="Group-47-Copy" transform="translate(26.000000, 0.000000)">
                <circle id="Oval" stroke="#E5E7F4" stroke-width="0.91" fill="#DDDEEE" cx="30.6175" cy="30.6175" r="30"></circle>
                <g id="Group-38" transform="translate(10.000000, 14.000000)">
                    <path d="M9.221714,5.4631354 L32.503154,0.697690643 C34.0393497,0.383248927 35.5395878,1.37367626 35.8540295,2.909872 C35.8923791,3.09722774 35.9117011,3.28797877 35.9117011,3.4792191 L35.9117011,19.9665548 C35.9117011,21.364733 34.8937732,22.5547833 33.5124856,22.7714559 L10.2310456,26.4234465 C8.68194146,26.6664432 7.22915669,25.607634 6.98615997,24.0585298 C6.96332868,23.9129804 6.95186109,23.7658746 6.95186109,23.6185454 L6.95186109,8.24466385 C6.95186109,6.89607673 7.90052019,5.73356867 9.221714,5.4631354 Z" id="Path-9" fill="#CDCFE4"></path>
                    <path d="M7.10070112,6.22571328 L38.0025636,3.14980057 C39.5628997,2.99448767 40.9537081,4.13348406 41.1090209,5.69382019 C41.1183229,5.78727123 41.1229824,5.88112623 41.1229824,5.97503907 L41.1229824,21.7609527 C41.1229824,23.2019794 40.043473,24.4144605 38.6121142,24.5811042 L7.71025175,28.1788054 C6.15272504,28.360138 4.74310104,27.2445122 4.56176843,25.6869855 C4.54908014,25.5780016 4.54272,25.4683738 4.54272,25.3586538 L4.54272,9.05095178 C4.54272,7.59181155 5.64873608,6.37023913 7.10070112,6.22571328 Z" id="Path-8" fill="#C1C3DB"></path>
                    <g id="Group-37" transform="translate(0.000000, 6.246240)">
                        <rect id="Rectangle" fill="#EEEFF7" x="0" y="0" width="39.7488" height="22.7136" rx="2.8392"></rect>
                        <path d="M33.50256,4.54272 L35.77372,6.81472 L35.77372,16.46572 L33.50256,18.73872 L6.95186109,18.73872 L4.54272,16.3295789 L4.54272,6.95186109 L6.95186109,4.54272 L33.50256,4.54272 Z" id="Combined-Shape" fill="#DDDEEE"></path>
                        <circle id="Oval" stroke="#A5A7BF" stroke-width="0.6" fill="#EEEFF7" cx="20.44224" cy="11.3568" r="4.54272"></circle>
                        <text id="€" font-family="Gilroy-Regular" font-size="6.81408" font-weight="normal" line-spacing="4.54272" fill="#241DBA">
                            <tspan x="18.17088" y="14.08544">€</tspan>
                        </text>
                        <circle id="Oval" fill="#E5E7F4" cx="10.78896" cy="11.92464" r="1.13568"></circle>
                        <circle id="Oval-Copy-8" fill="#E5E7F4" cx="30.09552" cy="11.92464" r="1.13568"></circle>
                    </g>
                </g>
            </g>
            <g id="flecha-copy-3" transform="translate(19.500000, 36.000000) rotate(117.000000) translate(-19.500000, -36.000000) translate(10.500000, 30.000000)" stroke="#A5A7BF" stroke-linecap="round" stroke-linejoin="round" stroke-width="1.5">
                <path d="M0,0 C2.7,4.34367165 8.49895762,6.19005401 17.3968729,5.53914708" id="Path-4"></path>
                <polygon id="Path-5" fill="#000230" points="12.2679562 0.535551281 17.3968729 5.53034163 12.2679562 11.0782942 16.2310312 5.53914708"></polygon>
            </g>
            <g id="flecha-copy-4" transform="translate(74.500000, 60.000000) scale(-1, 1) rotate(89.000000) translate(-74.500000, -60.000000) translate(65.500000, 54.000000)" stroke="#A5A7BF" stroke-linecap="round" stroke-linejoin="round" stroke-width="1.5">
                <path d="M0,0 C2.7,4.34367165 8.49895762,6.19005401 17.3968729,5.53914708" id="Path-4"></path>
                <polygon id="Path-5" fill="#000230" points="12.2679562 0.535551281 17.3968729 5.53034163 12.2679562 11.0782942 16.2310312 5.53914708"></polygon>
            </g>
            <g id="Group" transform="translate(68.000000, 92.000000)" fill="#241DBA">
                <path d="M8.12144468,2.00988945 C8.39226818,2.13746445 8.65215668,2.29310595 8.89345568,2.47171095 C9.07461218,2.60584695 9.24738518,2.75492745 9.40740068,2.91457845 C9.51018968,3.01700295 9.60860468,3.12489495 9.70082318,3.23606745 C9.85646468,3.42378495 10.0806322,3.52074195 10.3066222,3.52074195 C10.4837692,3.52074195 10.6616452,3.46132845 10.8085387,3.33958545 C11.1427852,3.06220095 11.1890767,2.56611645 10.9120567,2.23186995 C10.7884912,2.08278945 10.6561777,1.93771845 10.5187612,1.80066645 C10.3044352,1.58670495 10.0726132,1.38732345 9.82949168,1.20726045 C9.50545118,0.96741945 9.15662468,0.75856095 8.79285368,0.58688145 C8.39992268,0.40135095 7.93117568,0.56974995 7.74564518,0.96268095 C7.56047918,1.35561195 7.72851368,1.82435895 8.12144468,2.00988945" id="Fill-1"></path>
                <path d="M6.16462643,7.6526775 C5.34413693,7.6526775 4.67673743,6.985278 4.67673743,6.1647885 C4.67673743,5.344299 5.34413693,4.6768995 6.16462643,4.6768995 C6.98511593,4.6768995 7.65251543,5.344299 7.65251543,6.1647885 C7.65251543,6.985278 6.98511593,7.6526775 6.16462643,7.6526775 M11.5388144,5.377104 L10.6993709,5.377104 L10.6997354,5.3781975 L9.12290843,5.3781975 C8.77481093,4.0703715 7.58070893,3.103353 6.16462643,3.103353 C4.47662693,3.103353 3.10319093,4.476789 3.10319093,6.1647885 C3.10319093,7.852788 4.47662693,9.2258595 6.16462643,9.2258595 C7.58070893,9.2258595 8.77481093,8.25957 9.12290843,6.9513795 L10.6873424,6.9513795 C10.3009724,9.178839 8.30533493,10.861371 5.94519743,10.7509275 C3.55918043,10.6393905 1.63826543,8.676558 1.57484243,6.2887185 C1.50668093,3.7080585 3.57995693,1.5852105 6.14312093,1.5735465 C6.57104393,1.5713595 6.93845993,1.238571 6.95085293,0.810648 C6.96397493,0.365229 6.60712943,7.66187114e-14 6.16462643,7.66187114e-14 C2.65412693,7.66187114e-14 -0.180225065,2.9491695 0.00895043451,6.5001285 C0.175162435,9.6253515 2.70369893,12.153888 5.82892193,12.3204645 C9.37988093,12.50964 12.3294149,9.675288 12.3294149,6.1647885 L12.3294149,6.1567695 C12.3286859,5.7244725 11.9711114,5.377104 11.5388144,5.377104" id="Fill-3"></path>
            </g>
            <g id="Group-Copy-3" transform="translate(14.500000, 90.500000) rotate(-90.000000) translate(-14.500000, -90.500000) translate(8.000000, 84.000000)" fill="#241DBA">
                <path d="M8.12144468,2.00988945 C8.39226818,2.13746445 8.65215668,2.29310595 8.89345568,2.47171095 C9.07461218,2.60584695 9.24738518,2.75492745 9.40740068,2.91457845 C9.51018968,3.01700295 9.60860468,3.12489495 9.70082318,3.23606745 C9.85646468,3.42378495 10.0806322,3.52074195 10.3066222,3.52074195 C10.4837692,3.52074195 10.6616452,3.46132845 10.8085387,3.33958545 C11.1427852,3.06220095 11.1890767,2.56611645 10.9120567,2.23186995 C10.7884912,2.08278945 10.6561777,1.93771845 10.5187612,1.80066645 C10.3044352,1.58670495 10.0726132,1.38732345 9.82949168,1.20726045 C9.50545118,0.96741945 9.15662468,0.75856095 8.79285368,0.58688145 C8.39992268,0.40135095 7.93117568,0.56974995 7.74564518,0.96268095 C7.56047918,1.35561195 7.72851368,1.82435895 8.12144468,2.00988945" id="Fill-1"></path>
                <path d="M6.16462643,7.6526775 C5.34413693,7.6526775 4.67673743,6.985278 4.67673743,6.1647885 C4.67673743,5.344299 5.34413693,4.6768995 6.16462643,4.6768995 C6.98511593,4.6768995 7.65251543,5.344299 7.65251543,6.1647885 C7.65251543,6.985278 6.98511593,7.6526775 6.16462643,7.6526775 M11.5388144,5.377104 L10.6993709,5.377104 L10.6997354,5.3781975 L9.12290843,5.3781975 C8.77481093,4.0703715 7.58070893,3.103353 6.16462643,3.103353 C4.47662693,3.103353 3.10319093,4.476789 3.10319093,6.1647885 C3.10319093,7.852788 4.47662693,9.2258595 6.16462643,9.2258595 C7.58070893,9.2258595 8.77481093,8.25957 9.12290843,6.9513795 L10.6873424,6.9513795 C10.3009724,9.178839 8.30533493,10.861371 5.94519743,10.7509275 C3.55918043,10.6393905 1.63826543,8.676558 1.57484243,6.2887185 C1.50668093,3.7080585 3.57995693,1.5852105 6.14312093,1.5735465 C6.57104393,1.5713595 6.93845993,1.238571 6.95085293,0.810648 C6.96397493,0.365229 6.60712943,7.66187114e-14 6.16462643,7.66187114e-14 C2.65412693,7.66187114e-14 -0.180225065,2.9491695 0.00895043451,6.5001285 C0.175162435,9.6253515 2.70369893,12.153888 5.82892193,12.3204645 C9.37988093,12.50964 12.3294149,9.675288 12.3294149,6.1647885 L12.3294149,6.1567695 C12.3286859,5.7244725 11.9711114,5.377104 11.5388144,5.377104" id="Fill-3"></path>
            </g>
        </g>
    </g>
</svg>
