<?xml version="1.0" encoding="UTF-8"?>
<svg width="98px" height="88px" viewBox="0 0 98 88" version="1.1" xmlns="http://www.w3.org/2000/svg" xmlns:xlink="http://www.w3.org/1999/xlink">
    <!-- Generator: Sketch 52.5 (67469) - http://www.bohemiancoding.com/sketch -->
    <title>Group 36</title>
    <desc>Created with Sketch.</desc>
    <defs>
        <circle id="path-1" cx="19.6992" cy="19.6992" r="19.6992"></circle>
        <linearGradient x1="72.3427929%" y1="100%" x2="50%" y2="23.5453408%" id="linearGradient-3">
            <stop stop-color="#EEEFF7" offset="0%"></stop>
            <stop stop-color="#DDDEEE" offset="100%"></stop>
        </linearGradient>
        <circle id="path-4" cx="20.4672" cy="20.6208" r="19.6992"></circle>
    </defs>
    <g id="STYLE-GUIDES-" stroke="none" stroke-width="1" fill="none" fill-rule="evenodd">
        <g id="iconos-DESPLEGADOS" transform="translate(-255.000000, -1294.000000)">
            <g id="Group-36" transform="translate(255.000000, 1294.000000)">
                <polygon id="Path-5" stroke="#DDDEEE" stroke-width="0.75" stroke-linecap="round" stroke-linejoin="round" transform="translate(15.500000, 24.500000) rotate(129.000000) translate(-15.500000, -24.500000) " points="14 22 17 24.3688287 14 27 16.3180772 24.3730048"></polygon>
                <polygon id="Path-5-Copy" stroke="#DDDEEE" stroke-width="0.75" stroke-linecap="round" stroke-linejoin="round" transform="translate(20.500000, 72.500000) scale(1, -1) rotate(129.000000) translate(-20.500000, -72.500000) " points="19 70 22 72.3688287 19 75 21.3180772 72.3730048"></polygon>
                <path d="M20.1617644,72.1427143 C27.6853074,80.6411882 38.6848708,86 50.9379461,86 C73.6158922,86 92,67.6436747 92,45 C92,22.3563253 73.6158922,4 50.9379461,4 C35.4715803,4 22.0023835,12.5379746 15,25.151034" id="Path" stroke="#DDDEEE"></path>
                <g id="Group-2" transform="translate(0.000000, 28.000000)">
                    <rect id="Rectangle" fill="#DDDEEE" x="0" y="0" width="31" height="40" rx="1.8"></rect>
                    <path d="M17.2582609,19.7742609 C17.4407826,21.1957391 18.7210435,22.3005217 20.2682609,22.3005217 C21.9402609,22.3005217 23.3005217,20.9401739 23.3005217,19.2681739 C23.3005217,17.7490435 22.1756522,16.4477391 20.7743478,16.2593913 L20.7743478,19.4245217 C20.7743478,19.6176522 20.6177391,19.7742609 20.4246087,19.7742609 L17.2582609,19.7742609 Z M20.2682609,23 C18.2106087,23 16.5365217,21.396 16.5365217,19.4245217 C16.5365217,19.2313913 16.6931304,19.0747826 16.8862609,19.0747826 L20.0748696,19.0747826 L20.0748696,15.8861739 C20.0748696,15.6930435 20.2314783,15.5364348 20.4246087,15.5364348 C22.3626957,15.5364348 24,17.2453913 24,19.2681739 C24,21.325913 22.325913,23 20.2682609,23 L20.2682609,23 Z M16.6321739,17.619913 L18.62,17.619913 L18.62,15.6321739 C17.5883478,15.7690435 16.7690435,16.5882609 16.6321739,17.619913 L16.6321739,17.619913 Z M18.926,18.231913 L16.306,18.231913 C16.1369565,18.231913 16,18.0949565 16,17.925913 C16,16.3125217 17.3126087,15 18.926,15 C19.0950435,15 19.232,15.1369565 19.232,15.306 L19.232,17.925913 C19.232,18.0949565 19.0950435,18.231913 18.926,18.231913 L18.926,18.231913 Z" id="graph-pie" fill="#241DBA"></path>
                    <g id="Group-11" transform="translate(3.150000, 3.600000)" stroke="#EEEFF7" stroke-linecap="round" stroke-width="0.9">
                        <path d="M0.703125,0.9 L23.203125,0.9" id="Line-2"></path>
                        <path d="M0.703125,2.7 L23.203125,2.7" id="Line-2-Copy"></path>
                        <path d="M0.703125,4.5 L23.203125,4.5" id="Line-2-Copy-2"></path>
                        <path d="M0.703125,6.3 L23.203125,6.3" id="Line-2-Copy-3"></path>
                    </g>
                    <g id="Group-11-Copy" transform="translate(3.000000, 28.000000)" stroke="#EEEFF7" stroke-linecap="round" stroke-width="0.9">
                        <path d="M0.421875,0.9 L13.921875,0.9" id="Line-2"></path>
                        <path d="M0.421875,2.7 L13.921875,2.7" id="Line-2-Copy"></path>
                        <path d="M0.421875,4.5 L13.921875,4.5" id="Line-2-Copy-2"></path>
                        <path d="M0.421875,6.3 L13.921875,6.3" id="Line-2-Copy-3"></path>
                    </g>
                    <polyline id="Path-10" stroke="#241DBA" stroke-width="0.65" stroke-linecap="round" stroke-linejoin="round" points="5 23.3914014 7.17502929 15 8.85108127 21.9216 10.5 18.1137745 11.6744239 23.3914014"></polyline>
                </g>
                <g id="Group-Copy-9" transform="translate(36.000000, 25.000000)" opacity="0.784435454">
                    <g id="Group-Copy-6">
                        <mask id="mask-2" fill="white">
                            <use xlink:href="#path-1"></use>
                        </mask>
                        <use id="Mask" stroke="#EEEFF7" stroke-width="0.7776" fill="#FFFFFF" xlink:href="#path-1"></use>
                        <g id="Group-Copy-2" mask="url(#mask-2)">
                            <g transform="translate(-0.768000, -0.921600)">
                                <path d="M11.1808362,73.3554867 C11.1808362,73.3554867 9.30548881,57.4368719 8.9040826,53.320788 C8.72999121,51.5359271 9.20356378,46.2507331 9.20356378,46.2507331 C9.95278613,44.8203954 9.81419741,47.346956 11.3126421,47.9428815 L15.9329383,49.6111229 L14.6842344,73.3554867 C14.6842344,73.3554867 14.3823089,77.2631716 15.9329383,78.9559031 C18.913329,82.2094695 12.2024086,89.2067538 11.3126421,82.7689514 C11.0508023,80.8745265 10.8061944,76.8599599 11.1808362,76.264151 C11.5554168,75.7875273 11.1808362,73.3554867 11.1808362,73.3554867 Z" id="Fill-1" stroke="none" fill="#F6B690" fill-rule="evenodd"></path>
                                <path d="M33.2336479,69.5404034 C33.2336479,69.5404034 31.3583005,53.6217885 30.9568943,49.5057046 C30.7828029,47.7208437 31.2563755,42.4356497 31.2563755,42.4356497 C32.0055978,41.005312 31.8670091,43.5318727 33.3654538,44.1277981 L37.9857499,45.7960395 L36.737046,69.5404034 C36.737046,69.5404034 36.4351206,73.4480883 37.9857499,75.1408198 C40.9661407,78.3943861 34.2552203,85.3916705 33.3654538,78.953868 C33.103614,77.0594432 32.8590061,73.0448765 33.2336479,72.4490677 C33.6082285,71.9724439 33.2336479,69.5404034 33.2336479,69.5404034 Z" id="Fill-1-Copy" stroke="none" fill="#F6B690" fill-rule="evenodd"></path>
                                <polygon id="Fill-3" stroke="none" fill="url(#linearGradient-3)" fill-rule="evenodd" points="25.3414079 25.3123023 26.4130336 34.3731253 17.1650803 34.3731253 17.8542509 27.4039438"></polygon>
                                <path d="M17.3906147,30.7994925 C17.3906147,30.7994925 18.6123987,32.8746711 22.1882404,32.4655836 C25.7640821,32.056496 25.9808991,30.5714009 25.9737074,30.3201388 C33.7959759,30.679941 38.4478311,36.6003546 39.929273,48.0813795 L32.8433002,48.0813795 C33.5589662,58.0971052 33.5589662,65.131899 32.8433002,69.185761 L11.9356353,69.185761 L13.5402805,51.0366196 L8.96845426,48.0813795 C8.37205297,46.5317018 9.93203818,30.2627066 17.3906147,30.7994925 Z" id="Fill-4" stroke="none" fill="#DDDEEE" fill-rule="evenodd"></path>
                                <path d="M25.7569874,24.9553413 C25.4359551,26.0322318 23.6647444,27.34105 22.616058,27.7920854 C20.3876788,28.7495156 17.5054195,29.4406369 15.3995744,26.8253314 C13.4706716,24.4460327 12.8722374,21.1827282 12.6819234,19.0738176 C12.5359892,17.8063735 13.1192075,16.6164328 14.0940622,15.806434 C16.3060151,14.0733862 20.4103873,11.1352466 21.3444358,11.516354 C22.1851139,11.8590009 24.7399432,14.438177 26.362338,16.0884767 C27.2292405,17.045907 27.5341924,18.3232576 27.2688364,19.5324285 L25.7569874,24.9553413 Z" id="Fill-8" stroke="none" fill="url(#linearGradient-3)" fill-rule="evenodd"></path>
                                <path d="M22.4576918,13.5930474 C22.4576918,13.5930474 23.527183,17.9398927 23.7905173,17.8266389 C24.0539094,17.7139688 25.0385755,16.3339067 25.9636036,17.3485209 C27.0321105,18.5201726 25.6790196,21.0152595 25.6790196,21.0152595 C25.6790196,21.0152595 25.2898663,25.0538676 26.089828,24.5541497 C26.8897896,24.0544318 32.0712435,16.1716152 27.1889067,8.92395403 C27.1889067,8.92395403 23.2779767,4.46677378 19.4040455,6.13288935 C17.2778591,7.04767671 11.819788,8.16102348 9.84348581,9.86884923 C7.86718363,11.576675 7.20775714,12.9532216 8.32744868,15.6088487 C9.44708231,18.263892 12.581848,18.9953717 13.9236482,18.7641937 C17.8347519,18.0899248 21.6825697,15.2579954 22.4576918,13.5930474 Z" id="Fill-9" stroke="none" fill="#A5A7BF" fill-rule="evenodd"></path>
                                <mask id="mask-5" fill="white">
                                    <use xlink:href="#path-4"></use>
                                </mask>
                                <use id="Mask" stroke="#EEEFF7" stroke-width="1.5" fill="none" xlink:href="#path-4"></use>
                            </g>
                        </g>
                    </g>
                </g>
                <path d="M71.5,33.5 L81.5,25.5" id="Line-3" stroke="#DDDEEE" stroke-linecap="square"></path>
                <path d="M70,68 L80.5,59.5" id="Line-3-Copy" stroke="#DDDEEE" stroke-linecap="square" transform="translate(75.500000, 63.500000) scale(-1, 1) translate(-75.500000, -63.500000) "></path>
                <path d="M60.5,25.5 L62.5,11.5" id="Line-5" stroke="#DDDEEE" stroke-linecap="square"></path>
                <path d="M60.5,78.5 L62.5,64.5" id="Line-5-Copy" stroke="#DDDEEE" stroke-linecap="square" transform="translate(61.500000, 71.500000) scale(-1, 1) translate(-61.500000, -71.500000) "></path>
                <circle id="Oval-Copy" fill="#DDDEEE" cx="84.5" cy="22.5" r="5.5"></circle>
                <circle id="Oval-Copy-3" fill="#DDDEEE" cx="83.5" cy="70.5" r="5.5"></circle>
                <circle id="Oval" fill="#DDDEEE" cx="62.5" cy="5.5" r="5.5"></circle>
                <path d="M76.5,45.5 L89.5,45.5" id="Line" stroke="#DDDEEE" stroke-linecap="square"></path>
                <circle id="Oval-Copy-2" fill="#DDDEEE" cx="92.5" cy="45.5" r="5.5"></circle>
                <circle id="Oval-Copy-4" fill="#DDDEEE" cx="63.5" cy="82.5" r="5.5"></circle>
            </g>
        </g>
    </g>
</svg>
