<?xml version="1.0" encoding="UTF-8"?>
<svg width="94px" height="102px" viewBox="0 0 94 102" version="1.1" xmlns="http://www.w3.org/2000/svg" xmlns:xlink="http://www.w3.org/1999/xlink">
    <!-- Generator: Sketch 52.5 (67469) - http://www.bohemiancoding.com/sketch -->
    <title>Group 4</title>
    <desc>Created with Sketch.</desc>
    <defs>
        <polygon id="path-1" points="0 0.0162492 6.5177574 0.0162492 6.5177574 6.534 0 6.534"></polygon>
    </defs>
    <g id="CAMBIOS-MAYO-2020" stroke="none" stroke-width="1" fill="none" fill-rule="evenodd">
        <g id="LANDING-GOSAFE-A" transform="translate(-741.000000, -1026.000000)">
            <g id="Group-7" transform="translate(502.000000, 756.000000)">
                <g id="Group-56" transform="translate(203.000000, 244.000000)">
                    <g id="Group-4" transform="translate(36.000000, 26.000000)">
                        <g id="Group-Copy-17" transform="translate(9.000000, 30.000000)" fill-rule="nonzero">
                            <ellipse id="Oval" fill="#DDDEEE" cx="18.3791256" cy="68.3680756" rx="18.3791256" ry="2.75"></ellipse>
                            <circle id="Oval" fill="#F2F2F2" cx="20.4913126" cy="20.1198217" r="1"></circle>
                            <polygon id="Path" fill="#DDDEEE" points="10.8847112 63.2091856 11.0447612 64.6501856 9.6038712 64.4900256 9.6038712 62.7288156"></polygon>
                            <polygon id="Path" fill="#DDDEEE" points="25.9350212 63.2091856 25.7748612 64.6501856 27.2158612 64.4900256 27.2158612 62.7288156"></polygon>
                            <path d="M10.7245875,32.1478828 L10.0841477,48.6391928 C10.0841477,48.6391928 8.0027211,60.9676485 8.4830504,61.2878728 C8.9633797,61.6080971 8.4830504,63.3693005 8.4830504,63.3693005 L11.2049168,63.6895204 C11.2049168,63.6895204 11.2049168,62.4086419 11.8453566,61.9283104 C12.4857964,61.4479789 18.4098585,38.8724974 18.4098585,38.8724974 L24.4940311,60.6474374 C24.4940311,60.6474374 24.3339217,61.9283159 24.814251,61.9283159 C25.2945803,61.9283159 25.4546908,63.6895259 25.4546908,63.6895259 L28.1765572,63.6895259 L28.1765572,61.9283159 C28.1765572,61.9283159 28.9771064,61.7682065 28.4967771,60.487328 C28.0164478,59.2064495 26.2552389,32.1478905 26.2552389,32.1478905 L10.7245875,32.1478828 Z" id="Path" fill="#EEEFF7"></path>
                            <path d="M9.9240383,63.2091856 C9.9240383,63.2091856 9.1234891,62.7288563 8.8032692,63.0490762 C8.4830493,63.3692961 5.9212934,66.5714962 5.9212934,66.5714962 C5.9212934,66.5714962 2.3988734,68.8130333 5.6010735,69.4534731 C8.8032736,70.0939129 11.2049135,67.0518255 11.3650262,66.7316056 C11.5251389,66.4113857 11.2049168,63.8496287 11.0448074,64.1698486 C10.884698,64.4900685 10.4043676,64.3299591 10.2442582,64.1698486 C10.0841488,64.0097381 9.9240383,63.2091856 9.9240383,63.2091856 Z" id="Path" fill="#EEEFF7"></path>
                            <path d="M26.8956787,63.2091856 C26.8956787,63.2091856 27.6962279,62.7288563 28.0164478,63.0490762 C28.3366677,63.3692961 30.8984236,66.5714962 30.8984236,66.5714962 C30.8984236,66.5714962 34.4208436,68.8130333 31.2186435,69.4534731 C28.0164434,70.0939129 25.6148035,67.0518255 25.4546908,66.7316056 C25.2945781,66.4113857 25.6148002,63.8496287 25.7749096,64.1698486 C25.935019,64.4900685 26.4153494,64.3299591 26.5754588,64.1698486 C26.7355682,64.0097381 26.8956787,63.2091856 26.8956787,63.2091856 Z" id="Path" fill="#EEEFF7"></path>
                            <circle id="Oval" fill="#DDDEEE" cx="20.4112315" cy="5.16937957" r="3.2822515"></circle>
                            <polygon id="Path" fill="#DDDEEE" points="18.2497612 7.01062557 17.7693912 11.9740456 21.6120212 12.7746256 22.5727612 6.85057557"></polygon>
                            <path d="M22.252494,10.8532776 C22.252494,10.8532776 21.2918354,12.9347053 17.7694187,10.6931682 L11.2049212,32.1478828 C11.2049212,32.1478828 20.0109613,37.4315062 25.6148046,33.4287613 L23.6934819,11.8139362 L22.252494,10.8532776 Z" id="Path" fill="#241DBA"></path>
                            <path d="M18.4098585,8.45162557 L15.3677722,7.97129627 L15.0475512,10.0527284 C15.0475512,10.0527284 10.8846958,10.5330577 10.4043665,12.1341561 L10.8846958,23.9822825 C10.8846958,23.9822825 9.4437079,26.5440395 10.7245864,28.1451379 C10.7245864,28.1451379 8.6431587,32.4681027 10.2442571,33.2686519 C10.2442571,33.2686519 13.9267821,31.5074419 16.1683203,31.9877734 C16.1683203,31.9877734 17.4491988,31.6675535 17.4491988,30.7068949 C17.4491988,29.7462363 18.4098585,8.45162557 18.4098585,8.45162557 Z" id="Path" fill="#EEEFF7"></path>
                            <path d="M22.0923846,8.77184987 L23.8535946,9.25217917 L24.013704,11.4937163 C24.013704,11.4937163 28.3366688,14.2155838 28.4967793,15.8166822 C28.6568898,17.4177806 25.2945825,25.1030505 25.2945825,25.1030505 C25.2945825,25.1030505 26.575461,27.3445887 26.0951317,28.7855766 C26.0951317,28.7855766 28.1765594,32.948432 26.8956809,34.0692011 C26.8956809,34.0692011 24.4940333,34.7096398 24.1738145,33.7489812 C23.8535957,32.7883226 20.9716177,21.7407454 22.2524962,16.4571209 C22.252494,16.4571209 20.9716155,9.73250847 22.0923846,8.77184987 Z" id="Path" fill="#EEEFF7"></path>
                            <path d="M23.9336471,13.9860985 L23.8733836,13.9860985 L23.8733836,12.3351888 C23.8733842,12.081773 23.7727153,11.8387363 23.5935232,11.6595444 C23.4143311,11.4803525 23.1712943,11.3796839 22.9178785,11.3796848 L19.4202085,11.3796848 C19.1667927,11.3796839 18.9237559,11.4803525 18.7445638,11.6595444 C18.5653717,11.8387363 18.4647028,12.081773 18.4647034,12.3351888 L18.4647034,21.3922104 C18.4647031,21.645626 18.5653721,21.8886624 18.7445642,22.067854 C18.9237563,22.2470457 19.1667929,22.3477141 19.4202085,22.3477133 L22.9178785,22.3477133 C23.1712941,22.3477141 23.4143307,22.2470457 23.5935228,22.067854 C23.7727149,21.8886624 23.8733839,21.645626 23.8733836,21.3922104 L23.8733836,15.1612439 L23.9336471,15.1612439 L23.9336471,13.9860985 Z" id="Path" fill="#FFFFFF"></path>
                            <path d="M25.4546908,20.4598669 C25.4546908,20.4598669 24.1738112,16.2970115 22.252494,17.5778856 C20.3311768,18.8587597 23.5333725,22.3811797 23.5333725,22.3811797 L25.4546908,20.4598669 Z" id="Path" fill="#DDDEEE"></path>
                            <path d="M16.6486507,17.4177795 C16.6486507,17.4177795 18.8901878,14.6959131 20.0109569,15.9767916 C21.131726,17.2576701 18.0896386,20.139647 18.0896386,20.139647 L16.6486507,17.4177795 Z" id="Path" fill="#DDDEEE"></path>
                            <path d="M10.8846969,11.9740456 C10.8846969,11.9740456 10.0841477,11.8139351 9.6038184,13.2549241 C9.1234891,14.6959131 7.3622813,20.1396459 7.3622813,21.1003045 C7.3622813,22.0609631 8.0027211,25.9035986 11.5251367,25.2631599 C15.0475523,24.6227212 19.2104077,20.1396459 19.2104077,20.1396459 L16.9688706,16.7773397 L12.1655754,19.6593166 L10.8846969,11.9740456 Z" id="Path" fill="#EEEFF7"></path>
                            <polygon id="Path" fill="#000000" opacity="0.1" points="11.5765012 16.1248956 12.2456312 19.5792256 17.2090512 16.6973356 12.5658412 18.4585456 11.5421812 15.9187556"></polygon>
                            <polygon id="Path" fill="#000000" opacity="0.1" points="25.6948912 19.5792256 26.3353112 20.0595956 26.6555212 17.8180156"></polygon>
                            <path d="M10.8046422,25.6634356 C10.8046422,25.6634356 15.5075063,24.3840454 17.7192037,21.5813796 C17.7192037,21.5813796 15.4478269,25.3432157 10.8046422,25.6634356 Z" id="Path" fill="#000000" opacity="0.1"></path>
                            <path d="M22.6527686,22.7814587 C22.6527686,22.7814587 23.6430623,27.6280004 26.1900023,27.766486 C26.1900012,27.766486 23.1331012,28.7055219 22.6527686,22.7814587 Z" id="Path" fill="#000000" opacity="0.1"></path>
                            <path d="M27.8563373,15.1762424 C27.8563373,15.1762424 28.3366666,15.4964623 28.6568865,16.9374524 C28.9771064,18.3784425 31.0585341,23.8221742 30.2579849,25.1030527 C29.4574357,26.3839312 28.1765572,29.2659081 25.4546908,27.3445909 L22.7328233,22.3811863 L25.4546908,19.8194293 L26.5754588,20.6199785 L27.8563373,15.1762424 Z" id="Path" fill="#EEEFF7"></path>
                            <path d="M17.2602617,6.00183537 C17.2602617,6.00183537 14.5075117,1.54047847 17.4395617,1.30844007 C18.4180234,1.24000349 19.3734512,0.979670911 20.2513817,0.542282368 C21.2232878,0.0477146681 22.4466891,-0.328204832 23.0977197,0.433119468 C23.381825,0.78124226 23.7130465,1.08808515 24.0818325,1.34479947 C24.6537148,1.72406517 25.3154055,2.33889257 24.9490021,2.99841957 L24.3483196,4.07964697 L23.5073586,6.24210397 C23.703196,5.30937657 23.7081218,4.52623927 23.2070157,4.13971467 C23.2070157,4.13971467 20.4112315,5.32948567 19.0022569,3.17862377 C17.4250032,1.99521187 16.9231942,5.72006707 17.2602617,6.00183537 Z" id="Path" fill="#A5A7BF"></path>
                        </g>
                        <g id="Group-15-Copy-2" transform="translate(0.000000, 30.000000)">
                            <g id="Group-12" transform="translate(0.000000, -0.000000)">
                                <rect id="Rectangle" fill="#E5E7F4" x="0" y="16.6093534" width="4.73" height="52.14"></rect>
                                <polygon id="Triangle" fill="#E5E7F4" transform="translate(8.701218, 6.709353) rotate(-90.000000) translate(-8.701218, -6.709353) " points="8.7012182 1.1 15.3012182 12.3187068 2.1012182 12.3187068"></polygon>
                                <rect id="Rectangle-Copy-5" fill="#A5A7BF" x="2.31" y="3.84935338" width="2.42" height="21.78"></rect>
                            </g>
                        </g>
                        <path d="M4.05586592,36.9423077 L23.9441341,25.0576923" id="Line-18-Copy-4" stroke="#A5A7BF" stroke-width="0.5" stroke-linecap="square" stroke-dasharray="0.55,0.55"></path>
                        <path d="M4.05586592,49.9423077 L23.9441341,38.0576923" id="Line-18-Copy-5" stroke="#A5A7BF" stroke-width="0.5" stroke-linecap="square" stroke-dasharray="0.55,0.55" transform="translate(14.000000, 44.000000) scale(-1, 1) translate(-14.000000, -44.000000) "></path>
                        <path d="M94,19.0109874 L93.5592287,19.0109874 L93.5592287,6.96936593 C93.5592311,3.12029427 90.4303485,3.03545614e-06 86.5706734,0 L60.9885773,0 C59.1350953,-4.66457475e-06 57.3575253,0.73426126 56.0469127,2.04126753 C54.7363,3.3482738 54.0000035,5.12095717 54,6.96934725 L54,73.0306341 C53.9999988,74.8790239 54.7362905,76.6517089 56.0468993,77.9587185 C57.3575081,79.2657282 59.1350757,79.9999991 60.9885575,80 L86.5706403,80 C90.4303143,80.0000085 93.5592061,76.8797288 93.5592177,73.0306583 L93.5592177,27.5824188 L93.9999956,27.5824188 L94,19.0109874 Z" id="Path-Copy-4" fill="#A5A7BF" fill-rule="nonzero"></path>
                        <path d="M83.4756268,1.00000438 C83.7862372,1.75872786 83.6973875,2.62172158 83.238643,3.30181733 C82.7798984,3.98191308 82.0114567,4.38986704 81.1890231,4.38992919 L66.5914625,4.38992919 C65.7690271,4.38986944 65.000583,3.98191522 64.541838,3.30181759 C64.083093,2.62171996 63.9942454,1.75872374 64.30486,1 L61.1982985,1 C58.3273611,0.999998188 56.0000042,3.31879242 56,6.17917346 L56,71.8208156 C55.9999991,73.1944198 56.5476742,74.5117652 57.5225431,75.4830507 C58.4974119,76.4543361 59.8196183,76.9999991 61.1982919,77 L86.8017015,77 C88.1803751,77.0000009 89.5025822,76.4543395 90.4774523,75.4830553 C91.4523223,74.511771 91.9999991,73.1944264 92,71.8208222 L92,6.17917346 C91.999998,4.80557038 91.4523205,3.48822732 90.4774504,2.51694471 C89.5025804,1.54566209 88.1803739,1.00000234 86.8017015,1.00000438 L83.4756268,1.00000438 Z" id="Path-Copy-8" fill="#FFFFFF" fill-rule="nonzero"></path>
                        <rect id="Rectangle-Copy-23" fill="#DDDEEE" fill-rule="nonzero" x="61" y="12" width="25" height="3"></rect>
                        <rect id="Rectangle-Copy-24" fill="#DDDEEE" fill-rule="nonzero" x="78" y="69" width="8" height="3"></rect>
                        <g id="Group-11-Copy-3" transform="translate(69.000000, 23.000000)">
                            <rect id="Rectangle" stroke="#A5A7BF" stroke-width="0.5" x="2.574" y="3.90798505e-14" width="3.718" height="20.592" rx="1.859"></rect>
                            <path d="M6.292,3.718 L6.292,12.441 C6.292,13.4676973 5.45969735,14.3 4.433,14.3 C3.40630265,14.3 2.574,13.4676973 2.574,12.441 L2.574,3.718 L6.292,3.718 Z" id="Combined-Shape" fill="#A5A7BF"></path>
                            <circle id="Oval" fill="#A5A7BF" cx="4.576" cy="17.16" r="4.576"></circle>
                            <path d="M6.006,5.434 L5.148,5.434" id="Line-17-Copy" stroke="#FFFFFF" stroke-width="0.572" stroke-linecap="square"></path>
                            <path d="M6.006,7.007 L4.004,7.007" id="Line-17-Copy-2" stroke="#FFFFFF" stroke-width="0.572" stroke-linecap="square"></path>
                            <path d="M6.006,8.437 L5.148,8.437" id="Line-17-Copy-3" stroke="#FFFFFF" stroke-width="0.572" stroke-linecap="square"></path>
                            <path d="M6.006,9.867 L4.004,9.867" id="Line-17-Copy-4" stroke="#FFFFFF" stroke-width="0.572" stroke-linecap="square"></path>
                        </g>
                        <text id="36.2-copy-2" font-family="Helvetica" font-size="7.15" font-weight="normal" fill="#DDDEEE">
                            <tspan x="67.0420166" y="58">36.2</tspan>
                        </text>
                        <g id="Group-8-Copy-10" transform="translate(80.000000, 44.000000)">
                            <g id="Group-3" transform="translate(0.000000, 0.016764)">
                                <mask id="mask-2" fill="white">
                                    <use xlink:href="#path-1"></use>
                                </mask>
                                <g id="Clip-2"></g>
                                <path d="M3.2588754,0.0162492 C5.0586954,0.0162492 6.5177574,1.4753112 6.5177574,3.2751312 C6.5177574,5.0749512 5.0586954,6.5340132 3.2588754,6.5340132 C1.4590554,6.5340132 -6.6e-06,5.0749512 -6.6e-06,3.2751312 C-6.6e-06,1.4753112 1.4590554,0.0162492 3.2588754,0.0162492" id="Fill-1" fill="#EEEFF7" mask="url(#mask-2)"></path>
                            </g>
                            <path d="M3.2588754,0.5761602 C4.7587254,0.5761602 5.9746104,1.7920452 5.9746104,3.2918952 C5.9746104,4.7917452 4.7587254,6.0076302 3.2588754,6.0076302 C1.7590254,6.0076302 0.5431404,4.7917452 0.5431404,3.2918952 C0.5431404,1.7920452 1.7590254,0.5761602 3.2588754,0.5761602" id="Fill-4" fill="#241DBA"></path>
                            <polygon id="Fill-6" fill="#FFFFFF" points="3.006993 4.4076912 2.215818 3.3904662 2.675904 3.0325812 3.05052 3.5142492 4.316037 2.1783762 4.739196 2.5792932"></polygon>
                        </g>
                        <path d="M32.0541516,46.055 L61.9458484,46.055" id="Line-17-Copy-12" stroke="#A5A7BF" stroke-width="0.5" stroke-linecap="square" stroke-dasharray="1.1,1.1"></path>
                    </g>
                </g>
            </g>
        </g>
    </g>
</svg>