<?xml version="1.0" encoding="UTF-8"?>
<svg width="127px" height="64px" viewBox="0 0 127 64" version="1.1" xmlns="http://www.w3.org/2000/svg" xmlns:xlink="http://www.w3.org/1999/xlink">
    <!-- Generator: Sketch 63.1 (92452) - https://sketch.com -->
    <title>Group 70</title>
    <desc>Created with Sketch.</desc>
    <defs>
        <rect id="path-1" x="0" y="0" width="17.85" height="25.925"></rect>
    </defs>
    <g id="GOGUEST/GOFUN-CARDS" stroke="none" stroke-width="1" fill="none" fill-rule="evenodd">
        <g id="Group-70">
            <g id="Group-40" transform="translate(0.000000, 24.650000)">
                <rect id="Rectangle" fill="#DDDEEE" x="0" y="0" width="89.25" height="39.1"></rect>
                <g id="Fill-537" transform="translate(40.375000, 11.050000)" fill="#EEEFF7">
                    <path d="M15.3,11.9 L13.6,11.9 L13.6,10.2 L15.3,10.2 L15.3,11.9 Z M15.3,15.3 L13.6,15.3 L13.6,13.6 L15.3,13.6 L15.3,15.3 Z M11.05,5.1 L9.35,5.1 L9.35,3.4 L11.05,3.4 L11.05,5.1 Z M11.05,8.5 L9.35,8.5 L9.35,6.8 L11.05,6.8 L11.05,8.5 Z M11.05,11.9 L9.35,11.9 L9.35,10.2 L11.05,10.2 L11.05,11.9 Z M7.65,5.1 L5.95,5.1 L5.95,3.4 L7.65,3.4 L7.65,5.1 Z M7.65,8.5 L5.95,8.5 L5.95,6.8 L7.65,6.8 L7.65,8.5 Z M7.65,11.9 L5.95,11.9 L5.95,10.2 L7.65,10.2 L7.65,11.9 Z M3.4,11.9 L1.7,11.9 L1.7,10.2 L3.4,10.2 L3.4,11.9 Z M3.4,15.3 L1.7,15.3 L1.7,13.6 L3.4,13.6 L3.4,15.3 Z M16.15,8.5 L12.75,8.5 L12.75,2.55 C12.75,2.08165 12.37005,1.7 11.9,1.7 L11.05,1.7 L11.05,0.85 C11.05,0.38165 10.67005,0 10.2,0 L6.8,0 C6.3308,0 5.95,0.38165 5.95,0.85 L5.95,1.7 L5.1,1.7 C4.6308,1.7 4.25,2.08165 4.25,2.55 L4.25,8.5 L0.85,8.5 C0.3808,8.5 0,8.88165 0,9.35 L0,16.15 C0,16.62005 0.3808,17 0.85,17 L6.8,17 L6.8,13.6 L10.2,13.6 L10.2,17 L16.15,17 C16.62005,17 17,16.62005 17,16.15 L17,9.35 C17,8.88165 16.62005,8.5 16.15,8.5 L16.15,8.5 Z"></path>
                </g>
                <g id="Fill-537-Copy" transform="translate(76.750000, 18.875000) rotate(-90.000000) translate(-76.750000, -18.875000) translate(72.250000, 14.375000)" fill="#EEEFF7">
                    <path d="M7.65,5.95 L6.8,5.95 L6.8,5.1 L7.65,5.1 L7.65,5.95 Z M7.65,7.65 L6.8,7.65 L6.8,6.8 L7.65,6.8 L7.65,7.65 Z M5.525,2.55 L4.675,2.55 L4.675,1.7 L5.525,1.7 L5.525,2.55 Z M5.525,4.25 L4.675,4.25 L4.675,3.4 L5.525,3.4 L5.525,4.25 Z M5.525,5.95 L4.675,5.95 L4.675,5.1 L5.525,5.1 L5.525,5.95 Z M3.825,2.55 L2.975,2.55 L2.975,1.7 L3.825,1.7 L3.825,2.55 Z M3.825,4.25 L2.975,4.25 L2.975,3.4 L3.825,3.4 L3.825,4.25 Z M3.825,5.95 L2.975,5.95 L2.975,5.1 L3.825,5.1 L3.825,5.95 Z M1.7,5.95 L0.85,5.95 L0.85,5.1 L1.7,5.1 L1.7,5.95 Z M1.7,7.65 L0.85,7.65 L0.85,6.8 L1.7,6.8 L1.7,7.65 Z M8.075,4.25 L6.375,4.25 L6.375,1.275 C6.375,1.040825 6.185025,0.85 5.95,0.85 L5.525,0.85 L5.525,0.425 C5.525,0.190825 5.335025,0 5.1,0 L3.4,0 C3.1654,0 2.975,0.190825 2.975,0.425 L2.975,0.85 L2.55,0.85 C2.3154,0.85 2.125,1.040825 2.125,1.275 L2.125,4.25 L0.425,4.25 C0.1904,4.25 0,4.440825 0,4.675 L0,8.075 C0,8.310025 0.1904,8.5 0.425,8.5 L3.4,8.5 L3.4,6.8 L5.1,6.8 L5.1,8.5 L8.075,8.5 C8.310025,8.5 8.5,8.310025 8.5,8.075 L8.5,4.675 C8.5,4.440825 8.310025,4.25 8.075,4.25 L8.075,4.25 Z" id="Fill-537"></path>
                </g>
                <g id="Group-39" transform="translate(6.800000, 6.800000)">
                    <mask id="mask-2" fill="white">
                        <use xlink:href="#path-1"></use>
                    </mask>
                    <g id="Mask"></g>
                    <g mask="url(#mask-2)" stroke="#A5A7BF" stroke-linecap="square">
                        <g transform="translate(-0.425000, 1.275000)">
                            <line x1="0.2125" y1="1.7" x2="18.0625" y2="1.7" id="Line-11-Copy" stroke-width="0.85"></line>
                            <line x1="0.2125" y1="4.4625" x2="18.0625" y2="4.4625" id="Line-11-Copy-3" stroke-width="0.5"></line>
                            <line x1="0.2125" y1="5.95" x2="18.0625" y2="5.95" id="Line-11-Copy-4" stroke-width="0.85"></line>
                            <line x1="0.2125" y1="8.925" x2="17.6375" y2="8.925" id="Line-11-Copy-5" stroke-width="1.275"></line>
                            <line x1="0.2125" y1="0.2125" x2="18.0625" y2="0.2125" id="Line-11" stroke-width="0.5"></line>
                            <line x1="0.2125" y1="7.225" x2="18.0625" y2="7.225" id="Line-11-Copy-6" stroke-width="0.5"></line>
                            <line x1="0.2125" y1="2.975" x2="18.0625" y2="2.975" id="Line-11-Copy-2" stroke-width="0.85"></line>
                            <line x1="0.2125" y1="10.625" x2="18.0625" y2="10.625" id="Line-11-Copy-7" stroke-width="0.5"></line>
                            <line x1="0.2125" y1="13.175" x2="18.0625" y2="13.175" id="Line-11-Copy-8" stroke-width="0.85"></line>
                            <line x1="0.2125" y1="15.9375" x2="18.0625" y2="15.9375" id="Line-11-Copy-9" stroke-width="0.5"></line>
                            <line x1="0.2125" y1="17.425" x2="18.0625" y2="17.425" id="Line-11-Copy-10" stroke-width="0.85"></line>
                            <line x1="0.2125" y1="20.4" x2="17.6375" y2="20.4" id="Line-11-Copy-11" stroke-width="1.275"></line>
                            <line x1="0.2125" y1="11.6875" x2="18.0625" y2="11.6875" id="Line-11-Copy-12" stroke-width="0.5"></line>
                            <line x1="0.2125" y1="18.7" x2="18.0625" y2="18.7" id="Line-11-Copy-13" stroke-width="0.5"></line>
                            <line x1="0.2125" y1="14.45" x2="18.0625" y2="14.45" id="Line-11-Copy-14" stroke-width="0.85"></line>
                            <line x1="0.2125" y1="22.1" x2="18.0625" y2="22.1" id="Line-11-Copy-15" stroke-width="0.5"></line>
                        </g>
                    </g>
                </g>
                <line x1="30.3875" y1="2.975" x2="30.3875" y2="37.825" id="Line-12" stroke="#A5A7BF" stroke-width="0.5" stroke-linecap="square" stroke-dasharray="0.85,2.125"></line>
                <line x1="84.3625" y1="12.5375" x2="84.3625" y2="25.7125" id="Line-13-Copy" stroke="#A5A7BF" stroke-width="0.85" stroke-linecap="round"></line>
                <line x1="68" y1="2.975" x2="68" y2="37.825" id="Line-12-Copy" stroke="#A5A7BF" stroke-width="0.5" stroke-linecap="square" stroke-dasharray="0.85,2.125"></line>
                <line x1="35.9125" y1="32.5125" x2="62.2625" y2="32.5125" id="Line-13" stroke="#A5A7BF" stroke-width="0.85" stroke-linecap="round"></line>
            </g>
            <g id="Group-16" transform="translate(52.700000, 0.000000)">
                <g id="Group-15">
                    <path d="M66.5333333,0 C70.2888696,-6.89880826e-16 73.3333333,3.0444637 73.3333333,6.8 L73.3333333,14.1666667 C69.651435,14.1666667 66.6666667,17.151435 66.6666667,20.8333333 C66.6666667,24.5152317 69.651435,27.5 73.3333333,27.5 L73.3333333,27.5 L73.3333333,35.7 C73.3333333,39.4555363 70.2888696,42.5 66.5333333,42.5 L6.8,42.5 C3.0444637,42.5 2.23627739e-15,39.4555363 0,35.7 L8.8817842e-16,27.5 C3.68189833,27.5 6.66666667,24.5152317 6.66666667,20.8333333 C6.66666667,17.151435 3.68189833,14.1666667 8.8817842e-16,14.1666667 L8.8817842e-16,14.1666667 L0,6.8 C-4.59920551e-16,3.0444637 3.0444637,2.46623767e-15 6.8,0 L66.5333333,0 Z" id="Combined-Shape" fill="#E5E7F4"></path>
                    <line x1="25.5" y1="2.40833333" x2="25.5" y2="43.4916667" id="Line-4" stroke="#FFFFFF" stroke-width="1.7" stroke-linecap="square" stroke-dasharray="1.7,4.25"></line>
                </g>
            </g>
            <g id="Group" transform="translate(90.000000, 14.000000)" fill="#241DBA">
                <path d="M10.8285929,2.6798526 C11.1896909,2.8499526 11.5362089,3.0574746 11.8579409,3.2956146 C12.0994829,3.4744626 12.3298469,3.6732366 12.5432009,3.8861046 C12.6802529,4.0226706 12.8114729,4.1665266 12.9344309,4.3147566 C13.1419529,4.5650466 13.4408429,4.6943226 13.7421629,4.6943226 C13.9783589,4.6943226 14.2155269,4.6151046 14.4113849,4.4527806 C14.8570469,4.0829346 14.9187689,3.4214886 14.5494089,2.9758266 C14.3846549,2.7770526 14.2082369,2.5836246 14.0250149,2.4008886 C13.7392469,2.1156066 13.4301509,1.8497646 13.1059889,1.6096806 C12.6739349,1.2898926 12.2088329,1.0114146 11.7238049,0.7825086 C11.1998969,0.5351346 10.5749009,0.7596666 10.3275269,1.2835746 C10.0806389,1.8074826 10.3046849,2.4324786 10.8285929,2.6798526" id="Fill-1"></path>
                <path d="M8.21950191,10.20357 C7.12551591,10.20357 6.23564991,9.313704 6.23564991,8.219718 C6.23564991,7.125732 7.12551591,6.235866 8.21950191,6.235866 C9.31348791,6.235866 10.2033539,7.125732 10.2033539,8.219718 C10.2033539,9.313704 9.31348791,10.20357 8.21950191,10.20357 M15.3850859,7.169472 L14.2658279,7.169472 L14.2663139,7.17093 L12.1638779,7.17093 C11.6997479,5.427162 10.1076119,4.137804 8.21950191,4.137804 C5.96883591,4.137804 4.13758791,5.969052 4.13758791,8.219718 C4.13758791,10.470384 5.96883591,12.301146 8.21950191,12.301146 C10.1076119,12.301146 11.6997479,11.01276 12.1638779,9.268506 L14.2497899,9.268506 C13.7346299,12.238452 11.0737799,14.481828 7.92692991,14.33457 C4.74557391,14.185854 2.18435391,11.568744 2.09978991,8.384958 C2.00890791,4.944078 4.77327591,2.113614 8.19082791,2.098062 C8.76139191,2.095146 9.25127991,1.651428 9.26780391,1.080864 C9.28529991,0.486972 8.80950591,1.02158282e-13 8.21950191,1.02158282e-13 C3.53883591,1.02158282e-13 -0.240300087,3.932226 0.0119339127,8.666838 C0.233549913,12.833802 3.60493191,16.205184 7.77189591,16.427286 C12.5065079,16.67952 16.4392199,12.900384 16.4392199,8.219718 L16.4392199,8.209026 C16.4382479,7.63263 15.9614819,7.169472 15.3850859,7.169472" id="Fill-3"></path>
            </g>
        </g>
    </g>
</svg>
