<?xml version="1.0" encoding="UTF-8"?>
<svg width="52px" height="52px" viewBox="0 0 52 52" version="1.1" xmlns="http://www.w3.org/2000/svg" xmlns:xlink="http://www.w3.org/1999/xlink">
    <!-- Generator: Sketch 52.5 (67469) - http://www.bohemiancoding.com/sketch -->
    <title>Group 2</title>
    <desc>Created with Sketch.</desc>
    <g id="WEB" stroke="none" stroke-width="1" fill="none" fill-rule="evenodd">
        <g id="EQUIPO" transform="translate(-1087.000000, -2373.000000)">
            <g id="Group-2" transform="translate(1087.000000, 2373.000000)">
                <rect id="Rectangle" fill="#241DBA" x="0" y="0" width="52" height="52" rx="8"></rect>
                <g id="Fill-62-+-Fill-63" transform="translate(15.000000, 13.000000)" fill="#FFFFFF">
                    <path d="M16.9381556,6.35816442 C17.3301476,5.96617235 17.3280537,5.32853371 16.9439669,4.94444687 L12.7034731,0.70395313 C12.3146906,0.315170552 11.6796537,0.319866285 11.2955669,0.70395313 L7.05507313,4.94444687 C6.66629055,5.33322945 6.66233927,5.95961927 7.06088442,6.35816442 L7.33815558,6.63543558 C7.73014765,7.02742765 8.36356351,7.02969415 8.75652537,6.63690366 L10.79952,4.5948 L10.79952,15.0961939 C10.79952,15.6488134 11.239717,16.0968 11.8034301,16.0968 L12.1956099,16.0968 C12.7500542,16.0968 13.19952,15.645908 13.19952,15.0961939 L13.19952,4.5948 L15.2425146,6.63690366 C15.6338666,7.02808493 16.2623393,7.03398073 16.6608844,6.63543558 L16.9381556,6.35816442 Z" id="Fill-62"></path>
                    <path d="M16.6296,16.0968 C16.0944,18.1644 14.2332,19.6968 12,19.6968 C9.7656,19.6968 7.9056,18.1644 7.3692,16.0968 L1.99421164,16.0968 C0.892838963,16.0968 0,16.9957471 0,18.0874827 L0,24.4968 L24,24.4968 L24,18.0874827 C24,16.988059 23.0962443,16.0968 22.0054636,16.0968 L16.6296,16.0968 Z" id="Fill-63"></path>
                </g>
            </g>
        </g>
    </g>
</svg>
