<?xml version="1.0" encoding="UTF-8"?>
<svg width="104px" height="85px" viewBox="0 0 104 85" version="1.1" xmlns="http://www.w3.org/2000/svg" xmlns:xlink="http://www.w3.org/1999/xlink">
    <!-- Generator: Sketch 52.5 (67469) - http://www.bohemiancoding.com/sketch -->
    <title>identificacion de usuario</title>
    <desc>Created with Sketch.</desc>
    <defs>
        <circle id="path-1" cx="14.7744" cy="14.7744" r="14.7744"></circle>
        <linearGradient x1="72.3427929%" y1="100%" x2="50%" y2="23.5453408%" id="linearGradient-3">
            <stop stop-color="#EEEFF7" offset="0%"></stop>
            <stop stop-color="#DDDEEE" offset="100%"></stop>
        </linearGradient>
        <circle id="path-4" cx="15.3504" cy="15.4656" r="14.7744"></circle>
    </defs>
    <g id="STYLE-GUIDES-" stroke="none" stroke-width="1" fill="none" fill-rule="evenodd">
        <g id="iconos-DESPLEGADOS" transform="translate(-1115.000000, -2244.000000)">
            <g id="Group-43" transform="translate(994.000000, 2111.000000)">
                <g id="identificacion-de-usuario" transform="translate(121.000000, 134.000000)">
                    <rect id="Rectangle" fill="#E5E7F4" x="0" y="23" width="89" height="61" rx="6"></rect>
                    <g id="Group-8" transform="translate(62.000000, 0.000000)" stroke-width="1.95">
                        <path d="M23.3723313,0.250655727 C29.3717536,1.20324136 34.4907113,4.79943805 37.4980449,9.80808614 C39.3183413,12.8397499 40.365,16.3888948 40.365,20.1825 C40.365,24.6260647 38.9289689,28.7342263 36.4956739,32.0682178 M34.6753917,34.2284966 C31.0069491,38.0129174 25.8694037,40.365 20.1825,40.365 C9.03601304,40.365 0,31.328987 0,20.1825 C0,9.03601304 9.03601304,0 20.1825,0" id="Shape" stroke="#A5A7BF"></path>
                        <path d="M5.266973,14.9724079 C4.69721698,16.6036484 4.3875,18.356905 4.3875,20.1825 C4.3875,28.9058376 11.4591624,35.9775 20.1825,35.9775 C23.3789949,35.9775 26.3537175,35.0279798 28.839999,33.3956083 M30.6177104,32.0397611 C33.9040709,29.1452813 35.9775,24.9060283 35.9775,20.1825 C35.9775,15.8119531 34.2023799,11.8560076 31.3337837,8.99630763 M29.1763963,7.19648084 C26.6240218,5.42541357 23.5244698,4.3875 20.1825,4.3875 C14.487171,4.3875 9.49588127,7.40185082 6.71699672,11.9221867" id="Shape" stroke="#A5A7BF"></path>
                        <path d="M20.1825,8.775 C25.402802,8.775 29.8041119,12.281522 31.159557,17.0676932 M31.59,20.1825 C31.59,25.510415 27.9374188,29.985224 22.9997039,31.2394792 M20.1825,31.59 C13.8823117,31.59 8.775,26.4826883 8.775,20.1825 C8.775,14.771602 12.5422461,10.2405916 17.596939,9.06926795" id="Shape" stroke="#A5A7BF"></path>
                        <path d="M22.5329944,26.79933 C25.2540613,25.832676 27.2025,23.2351291 27.2025,20.1825 C27.2025,16.3054611 24.0595389,13.1625 20.1825,13.1625 C16.9971714,13.1625 14.3073504,15.2840201 13.4489493,18.1911479 M13.1625,20.1825 C13.1625,24.0595389 16.3054611,27.2025 20.1825,27.2025" id="Shape" stroke="#241DBA"></path>
                    </g>
                    <g id="Group-Copy-9" transform="translate(13.000000, 37.000000)">
                        <g id="Group-Copy-6">
                            <mask id="mask-2" fill="white">
                                <use xlink:href="#path-1"></use>
                            </mask>
                            <use id="Mask" stroke="#EEEFF7" stroke-width="0.7776" fill="#FFFFFF" xlink:href="#path-1"></use>
                            <g id="Group-Copy-2" mask="url(#mask-2)">
                                <g transform="translate(-0.576000, -0.691200)">
                                    <path d="M8.38562713,55.016615 C8.38562713,55.016615 6.97911661,43.0776539 6.67806195,39.990591 C6.54749341,38.6519453 6.90267283,34.6880498 6.90267283,34.6880498 C7.4645896,33.6152966 7.36064806,35.510217 8.48448158,35.9571611 L11.9497037,37.2083422 L11.0131758,55.016615 C11.0131758,55.016615 10.7867317,57.9473787 11.9497037,59.2169274 C14.1849968,61.6571021 9.15180643,66.9050654 8.48448158,62.0767135 C8.28810173,60.6558949 8.10464583,57.6449699 8.38562713,57.1981133 C8.6665626,56.8406455 8.38562713,55.016615 8.38562713,55.016615 Z" id="Fill-1" stroke="none" fill="#F6B690" fill-rule="evenodd"></path>
                                    <path d="M24.9252359,52.1553025 C24.9252359,52.1553025 23.5187254,40.2163414 23.2176707,37.1292785 C23.0871022,35.7906328 23.4422816,31.8267373 23.4422816,31.8267373 C24.0041984,30.753984 23.9002568,32.6489045 25.0240903,33.0958486 L28.4893125,34.3470296 L27.5527845,52.1553025 C27.5527845,52.1553025 27.3263405,55.0860662 28.4893125,56.3556148 C30.7246055,58.7957896 25.6914152,64.0437528 25.0240903,59.215401 C24.8277105,57.7945824 24.6442546,54.7836574 24.9252359,54.3368007 C25.2061714,53.9793329 24.9252359,52.1553025 24.9252359,52.1553025 Z" id="Fill-1-Copy" stroke="none" fill="#F6B690" fill-rule="evenodd"></path>
                                    <polygon id="Fill-3" stroke="none" fill="url(#linearGradient-3)" fill-rule="evenodd" points="19.0060559 18.9842267 19.8097752 25.7798439 12.8738102 25.7798439 13.3906882 20.5529578"></polygon>
                                    <path d="M13.042961,23.0996194 C13.042961,23.0996194 13.959299,24.6560034 16.6411803,24.3491877 C19.3230616,24.042372 19.4856743,22.9285507 19.4802806,22.7401041 C25.3469819,23.0099558 28.8358733,27.4502659 29.9469547,36.0610346 L24.6324752,36.0610346 C25.1692247,43.5728289 25.1692247,48.8489243 24.6324752,51.8893207 L8.95172648,51.8893207 L10.1552103,38.2774647 L6.7263407,36.0610346 C6.27903973,34.8987764 7.44902864,22.6970299 13.042961,23.0996194 Z" id="Fill-4" stroke="none" fill="#DDDEEE" fill-rule="evenodd"></path>
                                    <path d="M19.3177406,18.716506 C19.0769664,19.5241739 17.7485583,20.5057875 16.9620435,20.844064 C15.2907591,21.5621367 13.1290647,22.0804777 11.5496808,20.1189985 C10.1030037,18.3345246 9.65417803,15.8870461 9.51144257,14.3053632 C9.40199188,13.3547801 9.83940561,12.4623246 10.5705466,11.8548255 C12.2295114,10.5550396 15.3077905,8.35143496 16.0083268,8.63726548 C16.6388354,8.89425071 18.5549574,10.8286327 19.7717535,12.0663575 C20.4219304,12.7844302 20.6506443,13.7424432 20.4516273,14.6493214 L19.3177406,18.716506 Z" id="Fill-8" stroke="none" fill="url(#linearGradient-3)" fill-rule="evenodd"></path>
                                    <path d="M16.8432688,10.1947855 C16.8432688,10.1947855 17.6453873,13.4549195 17.8428879,13.3699792 C18.040432,13.2854766 18.7789317,12.25043 19.4727027,13.0113907 C20.2740829,13.8901295 19.2592647,15.7614446 19.2592647,15.7614446 C19.2592647,15.7614446 18.9673997,18.7904007 19.567371,18.4156123 C20.1673422,18.0408238 24.0534326,12.1287114 20.39168,6.69296552 C20.39168,6.69296552 17.4584825,3.35008033 14.5530341,4.59966702 C12.9583943,5.28575753 8.86484099,6.12076761 7.38261436,7.40163692 C5.90038772,8.68250624 5.40581786,9.71491621 6.24558651,11.7066365 C7.08531173,13.697919 9.43638602,14.2465287 10.4427361,14.0731453 C13.3760639,13.5674436 16.2619273,11.4434965 16.8432688,10.1947855 Z" id="Fill-9" stroke="none" fill="#A5A7BF" fill-rule="evenodd"></path>
                                    <mask id="mask-5" fill="white">
                                        <use xlink:href="#path-4"></use>
                                    </mask>
                                    <use id="Mask" stroke="#EEEFF7" stroke-width="0.7776" fill="none" xlink:href="#path-4"></use>
                                </g>
                            </g>
                        </g>
                    </g>
                    <path d="M51.5,49.5 L73.5,49.5" id="Line-7" stroke="#A5A7BF" stroke-width="2" stroke-linecap="round" stroke-linejoin="round"></path>
                    <path d="M51.5,53.5 L73.5,53.5" id="Line-7-Copy" stroke="#A5A7BF" stroke-width="2" stroke-linecap="round" stroke-linejoin="round"></path>
                </g>
            </g>
        </g>
    </g>
</svg>
