
<svg width="1197px" height="816px" viewBox="0 0 1197 816" version="1.1" xmlns="http://www.w3.org/2000/svg" xmlns:xlink="http://www.w3.org/1999/xlink">
    <defs>
        <linearGradient x1="101.195435%" y1="50.053919%" x2="-5.32395877%" y2="50.053919%" id="linearGradient-1">
            <stop stop-color="#FB6A49" offset="0.5799585%"></stop>
            <stop stop-color="#FC3579" offset="47.69%"></stop>
            <stop stop-color="#7326A2" offset="80.16%"></stop>
            <stop stop-color="#241DBA" offset="100%"></stop>
        </linearGradient>
        <linearGradient x1="101.197212%" y1="49.9802003%" x2="-1.8539072%" y2="49.9802003%" id="linearGradient-2">
            <stop stop-color="#FB6A49" offset="0.5799585%"></stop>
            <stop stop-color="#FC3579" offset="47.69%"></stop>
            <stop stop-color="#7326A2" offset="80.16%"></stop>
            <stop stop-color="#241DBA" offset="100%"></stop>
        </linearGradient>
        <linearGradient x1="101.119823%" y1="49.9983084%" x2="1.33791133%" y2="49.9983084%" id="linearGradient-3">
            <stop stop-color="#FB6A49" offset="0.5799585%"></stop>
            <stop stop-color="#FC3579" offset="47.69%"></stop>
            <stop stop-color="#7326A2" offset="80.16%"></stop>
            <stop stop-color="#241DBA" offset="100%"></stop>
        </linearGradient>
        <linearGradient x1="101.08539%" y1="50.0219742%" x2="4.37163866%" y2="50.0219742%" id="linearGradient-4">
            <stop stop-color="#FB6A49" offset="0.5799585%"></stop>
            <stop stop-color="#FC3579" offset="47.69%"></stop>
            <stop stop-color="#7326A2" offset="80.16%"></stop>
            <stop stop-color="#241DBA" offset="100%"></stop>
        </linearGradient>
        <linearGradient x1="101.090473%" y1="49.9998954%" x2="7.22704356%" y2="49.9998954%" id="linearGradient-5">
            <stop stop-color="#FB6A49" offset="0.5799585%"></stop>
            <stop stop-color="#FC3579" offset="47.69%"></stop>
            <stop stop-color="#7326A2" offset="80.16%"></stop>
            <stop stop-color="#241DBA" offset="100%"></stop>
        </linearGradient>
        <linearGradient x1="101.022876%" y1="49.984058%" x2="9.87939165%" y2="49.984058%" id="linearGradient-6">
            <stop stop-color="#FB6A49" offset="0.5799585%"></stop>
            <stop stop-color="#FC3579" offset="47.69%"></stop>
            <stop stop-color="#7326A2" offset="80.16%"></stop>
            <stop stop-color="#241DBA" offset="100%"></stop>
        </linearGradient>
        <linearGradient x1="100.994244%" y1="50.0090369%" x2="12.4020119%" y2="50.0090369%" id="linearGradient-7">
            <stop stop-color="#FB6A49" offset="0.5799585%"></stop>
            <stop stop-color="#FC3579" offset="47.69%"></stop>
            <stop stop-color="#7326A2" offset="80.16%"></stop>
            <stop stop-color="#241DBA" offset="100%"></stop>
        </linearGradient>
        <linearGradient x1="100.984357%" y1="50.0058639%" x2="14.7897702%" y2="50.0058639%" id="linearGradient-8">
            <stop stop-color="#FB6A49" offset="0.5799585%"></stop>
            <stop stop-color="#FC3579" offset="47.69%"></stop>
            <stop stop-color="#7326A2" offset="80.16%"></stop>
            <stop stop-color="#241DBA" offset="100%"></stop>
        </linearGradient>
        <linearGradient x1="100.97483%" y1="50.0326742%" x2="17.065435%" y2="50.0326742%" id="linearGradient-9">
            <stop stop-color="#FB6A49" offset="0.5799585%"></stop>
            <stop stop-color="#FC3579" offset="47.69%"></stop>
            <stop stop-color="#7326A2" offset="80.16%"></stop>
            <stop stop-color="#241DBA" offset="100%"></stop>
        </linearGradient>
        <linearGradient x1="100.884799%" y1="50.0363281%" x2="19.1689366%" y2="50.0363281%" id="linearGradient-10">
            <stop stop-color="#FB6A49" offset="0.5799585%"></stop>
            <stop stop-color="#FC3579" offset="47.69%"></stop>
            <stop stop-color="#7326A2" offset="80.16%"></stop>
            <stop stop-color="#241DBA" offset="100%"></stop>
        </linearGradient>
        <linearGradient x1="100.909854%" y1="50.0188777%" x2="21.2391217%" y2="50.0188777%" id="linearGradient-11">
            <stop stop-color="#FB6A49" offset="0.5799585%"></stop>
            <stop stop-color="#FC3579" offset="47.69%"></stop>
            <stop stop-color="#7326A2" offset="80.16%"></stop>
            <stop stop-color="#241DBA" offset="100%"></stop>
        </linearGradient>
        <linearGradient x1="100.856482%" y1="49.9946675%" x2="23.1726836%" y2="49.9946675%" id="linearGradient-12">
            <stop stop-color="#FB6A49" offset="0.5799585%"></stop>
            <stop stop-color="#FC3579" offset="47.69%"></stop>
            <stop stop-color="#7326A2" offset="80.16%"></stop>
            <stop stop-color="#241DBA" offset="100%"></stop>
        </linearGradient>
        <linearGradient x1="100.850971%" y1="49.981662%" x2="25.0251258%" y2="49.981662%" id="linearGradient-13">
            <stop stop-color="#FB6A49" offset="0.5799585%"></stop>
            <stop stop-color="#FC3579" offset="47.69%"></stop>
            <stop stop-color="#7326A2" offset="80.16%"></stop>
            <stop stop-color="#241DBA" offset="100%"></stop>
        </linearGradient>
        <linearGradient x1="100.845685%" y1="49.9799033%" x2="26.7938242%" y2="49.9799033%" id="linearGradient-14">
            <stop stop-color="#FB6A49" offset="0.5799585%"></stop>
            <stop stop-color="#FC3579" offset="47.69%"></stop>
            <stop stop-color="#7326A2" offset="80.16%"></stop>
            <stop stop-color="#241DBA" offset="100%"></stop>
        </linearGradient>
        <linearGradient x1="100.811776%" y1="50.0305681%" x2="28.4783519%" y2="50.0305681%" id="linearGradient-15">
            <stop stop-color="#FB6A49" offset="0.5799585%"></stop>
            <stop stop-color="#FC3579" offset="47.69%"></stop>
            <stop stop-color="#7326A2" offset="80.16%"></stop>
            <stop stop-color="#241DBA" offset="100%"></stop>
        </linearGradient>
        <linearGradient x1="100.779443%" y1="50.0231188%" x2="30.0831207%" y2="50.0231188%" id="linearGradient-16">
            <stop stop-color="#FB6A49" offset="0.5799585%"></stop>
            <stop stop-color="#FC3579" offset="47.69%"></stop>
            <stop stop-color="#7326A2" offset="80.16%"></stop>
            <stop stop-color="#241DBA" offset="100%"></stop>
        </linearGradient>
        <linearGradient x1="100.789591%" y1="50.0006329%" x2="31.6495892%" y2="50.0006329%" id="linearGradient-17">
            <stop stop-color="#FB6A49" offset="0.5799585%"></stop>
            <stop stop-color="#FC3579" offset="47.69%"></stop>
            <stop stop-color="#7326A2" offset="80.16%"></stop>
            <stop stop-color="#241DBA" offset="100%"></stop>
        </linearGradient>
        <linearGradient x1="100.799397%" y1="49.9833447%" x2="33.1406231%" y2="49.9833447%" id="linearGradient-18">
            <stop stop-color="#FB6A49" offset="0.5799585%"></stop>
            <stop stop-color="#FC3579" offset="47.69%"></stop>
            <stop stop-color="#7326A2" offset="80.16%"></stop>
            <stop stop-color="#241DBA" offset="100%"></stop>
        </linearGradient>
        <linearGradient x1="100.795545%" y1="49.979558%" x2="34.5697165%" y2="49.979558%" id="linearGradient-19">
            <stop stop-color="#FB6A49" offset="0.5799585%"></stop>
            <stop stop-color="#FC3579" offset="47.69%"></stop>
            <stop stop-color="#7326A2" offset="80.16%"></stop>
            <stop stop-color="#241DBA" offset="100%"></stop>
        </linearGradient>
        <linearGradient x1="100.753141%" y1="49.9994776%" x2="35.9258253%" y2="49.9994776%" id="linearGradient-20">
            <stop stop-color="#FB6A49" offset="0.5799585%"></stop>
            <stop stop-color="#FC3579" offset="47.69%"></stop>
            <stop stop-color="#7326A2" offset="80.16%"></stop>
            <stop stop-color="#241DBA" offset="100%"></stop>
        </linearGradient>
        <linearGradient x1="100.71236%" y1="49.9943469%" x2="37.2374882%" y2="49.9943469%" id="linearGradient-21">
            <stop stop-color="#FB6A49" offset="0.5799585%"></stop>
            <stop stop-color="#FC3579" offset="47.69%"></stop>
            <stop stop-color="#7326A2" offset="80.16%"></stop>
            <stop stop-color="#241DBA" offset="100%"></stop>
        </linearGradient>
        <linearGradient x1="100.698223%" y1="49.9858934%" x2="38.4829847%" y2="49.9858934%" id="linearGradient-22">
            <stop stop-color="#FB6A49" offset="0.5799585%"></stop>
            <stop stop-color="#FC3579" offset="47.69%"></stop>
            <stop stop-color="#7326A2" offset="80.16%"></stop>
            <stop stop-color="#241DBA" offset="100%"></stop>
        </linearGradient>
        <linearGradient x1="100.68437%" y1="49.9966532%" x2="39.7035245%" y2="49.9966532%" id="linearGradient-23">
            <stop stop-color="#FB6A49" offset="0.5799585%"></stop>
            <stop stop-color="#FC3579" offset="47.69%"></stop>
            <stop stop-color="#7326A2" offset="80.16%"></stop>
            <stop stop-color="#241DBA" offset="100%"></stop>
        </linearGradient>
        <linearGradient x1="100.671006%" y1="49.9731984%" x2="40.880986%" y2="49.9731984%" id="linearGradient-24">
            <stop stop-color="#FB6A49" offset="0.5799585%"></stop>
            <stop stop-color="#FC3579" offset="47.69%"></stop>
            <stop stop-color="#7326A2" offset="80.16%"></stop>
            <stop stop-color="#241DBA" offset="100%"></stop>
        </linearGradient>
        <linearGradient x1="100.68167%" y1="50.0042445%" x2="42.0062859%" y2="50.0042445%" id="linearGradient-25">
            <stop stop-color="#FB6A49" offset="0.5799585%"></stop>
            <stop stop-color="#FC3579" offset="47.69%"></stop>
            <stop stop-color="#7326A2" offset="80.16%"></stop>
            <stop stop-color="#241DBA" offset="100%"></stop>
        </linearGradient>
        <linearGradient x1="100.646007%" y1="50.0135735%" x2="43.0834907%" y2="50.0135735%" id="linearGradient-26">
            <stop stop-color="#FB6A49" offset="0.5799585%"></stop>
            <stop stop-color="#FC3579" offset="47.69%"></stop>
            <stop stop-color="#7326A2" offset="80.16%"></stop>
            <stop stop-color="#241DBA" offset="100%"></stop>
        </linearGradient>
        <linearGradient x1="100.645375%" y1="50.0021291%" x2="44.1335309%" y2="50.0021291%" id="linearGradient-27">
            <stop stop-color="#FB6A49" offset="0.5799585%"></stop>
            <stop stop-color="#FC3579" offset="47.69%"></stop>
            <stop stop-color="#7326A2" offset="80.16%"></stop>
            <stop stop-color="#241DBA" offset="100%"></stop>
        </linearGradient>
    </defs>
    <g id="WEB" stroke="none" stroke-width="1" fill="none" fill-rule="evenodd">
        <g id="HOME" transform="translate(-241.000000, -1648.000000)" fill-rule="nonzero">
            <g id="easygoband-portada-21" transform="translate(241.000000, 1648.000000)">
                <path d="M1119.12768,430.175688 C1082.79617,454.908015 1044.59466,473.75806 1005.72528,485.923691 C957.105175,501.164153 907.149348,506.110618 857.193521,500.6294 C793.74695,493.811298 738.181111,509.185448 692.098864,546.350784 C634.663021,592.606921 602.20509,664.932269 585.107909,717.338066 C570.147875,763.326826 563.870004,802.497486 562,816 L568.678586,816 C570.682162,801.962733 576.826462,763.861579 591.38578,719.209701 C608.215818,667.606034 640.139462,596.751257 696.239588,551.430938 C740.986117,515.335108 794.949095,500.495711 856.392091,507.046436 C907.28292,512.527655 958.30732,507.447501 1007.86243,491.939663 C1047.39966,479.506655 1086.26904,460.522922 1123.13483,435.255841 C1155.05848,413.464655 1180.03639,390.737652 1197,373.625555 L1197,364 C1180.30353,381.64685 1153.85633,406.512866 1119.12768,430.175688 Z" id="Path" fill="url(#linearGradient-1)"></path>
                <path d="M842.567766,489.16681 C792.373219,483.020315 747.785511,489.567668 709.739113,508.408011 C675.697599,525.377682 645.660969,552.368813 620.430199,588.713305 C600.272283,617.708727 583.051282,652.717024 569.30118,692.669242 C549.810745,749.190272 542.868946,800.099285 541,816 L547.541311,816 C549.410256,799.698426 556.485551,749.991989 575.442002,694.807153 C588.925112,655.389413 605.879121,621.049213 625.636549,592.454649 C650.333333,557.045494 679.568987,530.722461 712.542532,514.287268 C749.253968,495.981402 792.773708,489.834907 841.633293,495.714163 C912.786732,504.399428 980.736264,494.244349 1038.1396,466.317883 C1111.02849,430.641488 1166.82987,385.210873 1197,357.818884 L1197,349 C1168.43183,375.590272 1111.16199,423.426037 1035.33618,460.572246 C979.267806,487.696996 912.51974,497.718455 842.567766,489.16681 Z" id="Path" fill="url(#linearGradient-2)"></path>
                <path d="M827.072512,477.824737 C773.634089,470.740433 727.276256,476.488075 689.067783,494.800333 C653.93202,511.775929 623.204926,539.57848 597.554483,577.40599 C577.114286,607.480865 559.880394,644.10538 546.253596,686.076539 C527.015764,745.691625 520.603153,799.559068 519,816 L525.412611,816 C527.015764,799.15807 533.428374,746.359956 552.265419,688.081531 C565.625025,646.778702 582.591724,610.688852 602.764729,581.014975 C627.747192,544.123128 657.806305,516.988907 691.8733,500.547976 C728.879409,482.636717 774.168473,477.156406 826.270936,484.107044 C904.691823,494.533001 975.096946,484.374376 1029.87133,454.566833 C1105.75389,413.264004 1165.47133,367.951192 1197,342.153633 L1197,334 C1166.80729,358.995563 1105.6203,406.1797 1026.79862,449.086522 C973.093005,478.092069 904.157438,488.117027 827.072512,477.824737 Z" id="Path" fill="url(#linearGradient-3)"></path>
                <path d="M812.256303,466.308768 C755.652788,458.154653 707.593201,463.100592 669.145531,481.146584 C633.10084,498.256859 601.595111,526.729424 575.562834,566.029586 C554.870512,597.309306 537.515661,635.406401 524.165775,679.385153 C505.075439,742.078268 499.334989,798.889726 498,816 L504.274446,816 C505.609435,798.622378 511.349885,742.746638 530.173224,681.25659 C543.38961,637.946208 560.477464,600.383808 580.902788,569.50511 C606.267571,531.140667 636.972307,503.336471 671.949007,486.760893 C709.195187,469.249597 756.186784,464.437332 811.455309,472.457773 C896.227082,484.755783 968.850458,474.462883 1021.716,442.782141 C1100.48033,395.595212 1164.02578,350.814416 1197,326.753093 L1197,319 C1165.36077,342.259279 1100.07983,388.51049 1018.51203,437.43518 C966.847976,468.447552 895.559587,478.473104 812.256303,466.308768 Z" id="Path" fill="url(#linearGradient-4)"></path>
                <path d="M797.008712,455.160523 C737.270621,445.942484 687.288415,450.217516 648.665802,467.852026 C611.513253,484.952157 579.305468,514.343007 552.8443,554.955817 C531.862465,587.419346 514.488971,627.096993 501.124745,672.92 C482.147544,738.515033 477.069138,798.36549 476,816 L482.013902,816 C483.216682,798.231895 488.161446,739.183007 507.005005,674.389542 C520.101946,629.100915 537.208156,590.091242 557.922706,558.162092 C583.715663,518.484444 614.987952,489.895163 651.071362,473.329412 C688.624838,456.095686 737.404263,452.087843 795.939574,461.172288 C887.885449,475.466928 961.121409,465.44732 1013.37553,431.514248 C1095.03095,378.477124 1162.65394,334.524444 1197,312.214118 L1197,305 C1163.72308,326.508758 1094.36274,371.530196 1010.03448,426.437647 C959.250417,459.56915 887.484523,469.187974 797.008712,455.160523 Z" id="Path" fill="url(#linearGradient-5)"></path>
                <path d="M782.062275,442.974828 C718.225702,432.429443 668.144708,435.900076 628.74766,453.520214 C590.552556,470.739893 557.699424,500.774218 530.856012,542.822273 C509.62167,576.327231 492.12671,617.574371 479.038877,665.362319 C460.208423,733.974066 455.934845,796.845919 455,815 L460.87617,815 C461.811015,796.712433 466.084593,734.774981 484.781497,666.96415 C497.735781,619.843631 514.963643,579.130435 535.930886,546.025934 C561.973002,504.912281 594.024838,475.678871 631.151548,458.993135 C669.480202,441.906941 718.492801,438.569794 781.12743,448.848207 C880.087473,465.133486 953.406048,455.389016 1005.22318,419.080854 C1089.4928,359.946606 1161.34233,317.231121 1197,296.80778 L1197,290 C1162.27718,309.755912 1088.6915,353.272311 1001.88445,414.141876 C951.269258,449.515637 879.419726,458.993135 782.062275,442.974828 Z" id="Path" fill="url(#linearGradient-6)"></path>
                <path d="M767.178446,431.734835 C700.168999,420.124783 648.376837,422.793761 608.731805,440.142114 C569.487229,457.357019 535.982505,488.183709 508.885059,531.688042 C487.393982,566.384749 469.907453,609.088388 456.959412,658.731369 C438.271519,730.393414 434.667425,796.317158 434,815 L439.739853,815 C440.407278,796.317158 444.144857,731.060659 462.56578,660.065858 C475.380336,610.956672 492.599895,568.786828 513.824003,534.623917 C540.254024,492.187175 572.957838,462.161179 611.134535,445.34662 C649.711686,428.532062 700.435969,425.996534 766.244052,437.339688 C870.495801,455.488735 946.048286,445.746967 997.039538,407.44714 C1077.264,347.12825 1153.21693,304.157712 1197,282.272097 L1197,276 C1160.82558,294.015598 1083.00385,335.785095 993.702414,402.909879 C943.912526,440.275563 869.828376,449.616984 767.178446,431.734835 Z" id="Path" fill="url(#linearGradient-7)"></path>
                <path d="M985.217021,391.576014 C935.511489,431.342905 861.354043,440.41723 751.921702,420.400338 C681.639149,407.589527 628.058723,409.591216 588.240851,426.538851 C548.022128,443.886824 513.682553,475.380068 486.157447,520.351351 C464.244255,556.114865 446.740426,600.418919 433.913191,652.0625 C415.474043,726.79223 412.400851,795.650338 412,815 L417.611915,815 C418.146383,795.783784 421.085957,727.459459 439.391489,653.396959 C452.085106,602.287162 469.321702,558.516892 490.96766,523.287162 C517.824681,479.383446 551.228936,448.557432 590.378723,431.743243 C629.261277,415.195946 681.772766,413.327703 750.852766,425.871622 C862.022128,446.155405 937.515745,436.680743 988.691064,395.846284 C1078.4817,324.185811 1158.78553,284.685811 1197,268.138514 L1197,262 C1185.10809,267.070946 1168.94043,274.410473 1149.43234,284.418919 C1110.6834,304.435811 1050.68936,339.265203 985.217021,391.576014 Z" id="Path" fill="url(#linearGradient-8)"></path>
                <path d="M870.192709,419.78178 C833.732394,422.71822 790.193703,419.114407 737.172659,408.970339 C662.782933,394.822034 609.094118,396.023305 568.360066,412.974576 C527.091798,430.326271 491.967026,462.627119 464.187738,509.076271 C442.01773,546.048729 424.388567,591.963983 411.834466,645.487288 C393.537531,723.302966 391.267109,795.245763 391,815 L396.475725,815 C396.742833,795.379237 399.013256,723.836864 417.176636,646.555085 C429.597183,593.565678 447.092792,548.184322 468.862138,511.745763 C495.973654,466.364407 530.163546,434.864407 570.36338,417.913136 C610.028998,401.362288 662.649379,400.161017 735.970671,414.175847 C789.659486,424.45339 833.59884,427.923729 870.459818,424.987288 C916.135377,421.383475 952.195029,407.902542 980.508534,384.010593 C1072.92809,305.927966 1157.46794,268.42161 1197,253.739407 L1197,248 C1157.8686,262.415254 1071.32543,300.188559 976.902568,379.872881 C949.791052,403.230932 914.799834,416.177966 870.192709,419.78178 Z" id="Path" fill="url(#linearGradient-9)"></path>
                <path d="M968.254478,368.569853 C940.596579,393.134191 904.788285,406.751379 858.691786,409.955423 C821.413749,412.62546 777.722285,408.620404 721.471196,397.40625 C643.708407,381.920037 588.392609,382.587546 547.50702,399.275276 C505.151686,416.764017 469.477005,449.738971 441.284654,497.666131 C418.837663,535.714154 401.200742,583.240809 388.77473,638.777574 C370.603356,719.679688 369,794.707721 369,815 L374.344522,815 C374.478135,794.974724 375.947878,720.347197 393.985638,639.845588 C406.278038,584.842831 423.781346,537.850184 445.96111,500.202665 C473.485396,453.34352 508.358399,421.036075 549.644828,404.081342 C589.595127,387.794118 643.975633,387.26011 720.669518,402.47932 C777.455059,413.826976 821.547362,417.832031 859.359852,415.028493 C906.658867,411.690947 943.536066,397.673254 972.129256,372.307904 C1067.12813,287.801241 1156.24802,252.423254 1197,239.607077 L1197,234 C1183.77231,238.005055 1165.33371,244.546645 1143.15395,254.425781 C1100.665,273.24954 1036.1299,308.227022 968.254478,368.569853 Z" id="Path" fill="url(#linearGradient-10)"></path>
                <path d="M960.442243,356.896745 C897.529366,415.52862 796.948908,404.443322 706.920716,385.878788 C624.906903,369.050505 569.607687,368.916947 527.799342,385.611672 C484.388122,403.107744 448.05627,436.897868 419.471651,486.180696 C396.764243,525.446689 378.999036,574.462402 366.710322,632.025814 C348.811542,716.03367 347.876531,794.164983 348.010104,815 L353.085877,815 C352.952304,794.432099 353.887315,716.835017 371.786095,633.094276 C383.941237,576.065095 401.439298,527.583614 423.879559,488.718294 C451.796313,440.503928 487.326728,407.381594 529.669364,390.286195 C570.409125,373.992144 624.77333,374.125701 705.852132,390.820426 C797.216054,409.652076 899.399388,420.870932 963.91514,360.502806 C1032.43808,296.662177 1098.42314,261.937149 1141.70078,244.040404 C1164.40819,234.691358 1183.37556,228.814815 1197,225.342312 L1197,220 C1183.10841,223.472503 1163.47318,229.482604 1139.96434,239.098765 C1096.1524,257.396184 1029.49948,292.388328 960.442243,356.896745 Z" id="Path" fill="url(#linearGradient-11)"></path>
                <path d="M951.813357,345.986175 C923.620233,373.516129 885.940324,388.21659 836.769379,391.023041 C798.154152,393.16129 753.258942,388.35023 691.260793,375.119816 C633.805612,362.824885 560.984511,351.599078 507.003365,372.714286 C462.64262,390.221198 425.497178,424.967742 396.635971,475.617512 C373.653899,515.976959 355.882878,566.626728 343.723758,626.230415 C325.952737,713.497696 325.685504,794.617512 326.086354,816 L331.030172,816 C330.762938,795.018433 330.896555,714.165899 348.667576,627.165899 C360.693079,568.230415 378.330483,517.981567 401.045322,478.023041 C429.372062,428.308756 465.582188,394.364055 509.007615,377.258065 C536.666272,366.43318 582.363183,356.9447 690.459093,379.930876 C752.858091,393.294931 798.154152,398.239631 837.170229,395.967742 C887.543724,393.16129 926.292567,377.926267 955.421008,349.59447 C1025.03531,281.705069 1093.17982,246.958525 1138.20865,229.718894 C1162.39327,220.497696 1182.70301,215.152074 1197,212.211982 L1197,207 C1182.5694,209.940092 1161.85881,215.285714 1136.73887,224.907834 C1091.04196,242.281106 1022.09574,277.294931 951.813357,345.986175 Z" id="Path" fill="url(#linearGradient-12)"></path>
                <path d="M943.759839,334.774748 C881.251191,398.216878 778.405767,386.329826 676.628867,363.891346 C613.318826,350.000859 541.193464,338.514494 487.233008,359.350225 C441.820742,376.98046 404.02171,412.37449 374.770869,464.463818 C351.530474,506.001718 333.632699,558.224608 321.745371,619.663303 C304.114726,709.951471 304.648988,794.229332 305.18325,816 L309.991608,816 C309.457346,794.630019 308.923084,710.619283 326.553728,620.598239 C338.441056,559.693794 356.0717,508.005154 379.044964,466.867941 C407.627978,415.713549 444.625618,381.120893 488.969359,363.891346 C541.727726,343.589865 612.91813,354.942667 675.560343,368.699592 C778.806464,391.405196 883.121108,403.425811 947.232541,338.24737 C1018.02225,266.39081 1088.27769,231.664591 1134.89205,215.102856 C1160.67019,206.020614 1182.04067,201.345931 1197,198.941808 L1197,194 C1181.9071,196.404123 1160.13593,201.078806 1133.55639,210.561735 C1086.40778,226.989908 1015.21737,262.116813 943.759839,334.774748 Z" id="Path" fill="url(#linearGradient-13)"></path>
                <path d="M935.717865,322.564642 C906.879367,352.99979 867.626966,368.884801 815.423944,371.020601 C765.090083,373.156401 709.549272,362.477402 661.885643,351.664915 C592.860163,336.046878 521.698498,324.566954 467.492802,344.99054 C421.030777,362.610889 382.579446,398.786 353.07339,452.314484 C329.575355,494.896994 311.684805,548.692453 299.802275,612.099012 C282.445772,705.406769 283.647376,792.707589 284.314934,815 L288.987838,815 C288.320281,793.241539 287.118677,706.074206 304.47518,612.899937 C316.224198,550.027328 333.847725,496.765819 357.212249,454.583771 C386.184259,402.123187 423.83452,366.749001 469.228453,349.395627 C522.232545,329.372504 592.726652,340.852428 660.951062,356.336977 C709.015226,367.149464 764.82306,377.961951 815.690967,375.826151 C869.095593,373.556864 909.549598,357.137902 939.189166,325.901829 C1011.01839,250.080933 1083.51517,215.240698 1131.57933,199.489174 C1158.81569,190.545512 1181.51266,186.540887 1197,184.672062 L1197,180 C1181.24564,181.868825 1158.01462,185.87345 1130.37773,194.950599 C1081.64601,210.835611 1008.34816,245.942821 935.717865,322.564642 Z" id="Path" fill="url(#linearGradient-14)"></path>
                <path d="M927.350828,310.949568 C861.641371,382.823178 747.98538,363.719226 646.482968,340.206669 C575.030611,323.641005 501.441362,311.083162 446.950593,331.255867 C399.538282,349.023878 360.272875,385.895842 330.356375,440.803005 C306.583441,484.621861 288.553407,539.929807 276.934052,605.257308 C259.705353,701.845821 261.70869,792.289008 262.510025,815 L267.050923,815 C266.249588,792.823384 264.246251,702.513792 281.47495,606.058872 C292.960749,541.132153 310.857227,486.358584 334.363049,442.94051 C363.745326,388.968506 402.075843,352.764512 448.553263,335.397283 C501.975585,315.62536 574.7635,328.049609 645.548077,344.48168 C748.252492,368.261424 863.377597,387.498971 930.689723,313.888637 C1003.74475,233.999382 1078.40244,199.13133 1128.0852,183.901606 C1156.7997,175.217991 1180.70619,171.744545 1197,170.542198 L1197,166 C1180.57264,167.202347 1156.26548,170.675793 1127.01676,179.493001 C1076.66622,194.989914 1001.07363,230.258748 927.350828,310.949568 Z" id="Path" fill="url(#linearGradient-15)"></path>
                <path d="M918.835554,299.636272 C889.308972,333.023401 848.158804,349.984063 792.98017,351.720194 C741.676065,353.322776 684.894177,341.704055 631.185192,328.883397 C545.67835,308.584023 478.208107,298.968529 426.369584,317.79887 C377.871172,335.560823 337.923444,373.221505 307.72884,429.578979 C283.680041,474.451281 265.643441,531.342949 254.15346,598.651402 C237.185696,698.278596 239.72418,791.762558 240.793015,815 L245.201962,815 C244.266731,792.296752 241.594642,698.946339 258.562406,599.319145 C269.918784,532.544886 287.821779,476.053863 311.736974,431.582207 C341.39716,376.159572 380.543261,339.300182 428.106442,321.805326 C478.876129,303.37563 545.67835,312.857575 630.383566,333.023401 C684.493364,345.844059 741.54246,357.596328 793.380984,355.993746 C849.895662,354.257615 891.981061,336.76276 922.309269,302.440791 C996.459734,218.572322 1073.41589,183.58261 1124.72,169.159371 C1154.9146,160.612265 1180.16584,157.941295 1197,157.407101 L1197,153 C1179.89863,153.667743 1154.38018,156.338713 1123.78477,164.885818 C1071.54543,179.709703 993.787645,214.832963 918.835554,299.636272 Z" id="Path" fill="url(#linearGradient-16)"></path>
                <path d="M1021.40743,192.734375 C981.748883,216.898734 944.627412,249.073378 910.977734,288.190269 C845.013682,365.222508 729.376295,344.929786 616.676579,317.561313 C545.504839,300.339201 464.852435,283.651108 406.900211,304.344343 C357.360407,322.233979 316.767144,360.549842 286.188667,418.357397 C261.886121,464.416535 243.725977,522.891614 232.375888,592.047073 C215.551048,694.712223 218.88931,791.36966 220.091084,815 L224.364059,815 C223.162285,791.903679 219.824023,695.513252 236.515332,592.714597 C247.731892,523.959652 265.624974,466.018592 289.793989,420.359968 C319.838345,363.486946 359.763956,325.838608 408.235516,308.349486 C465.119496,288.056764 545.104247,304.611353 615.608335,321.69996 C729.643356,349.468948 846.616048,369.895174 914.182465,290.993869 C989.49365,203.014241 1068.54369,168.169502 1121.42175,154.418513 C1153.20201,146.141218 1179.64104,144.272152 1197,144.272152 L1197,140 C1179.37398,140 1152.53435,142.002571 1120.62057,150.279866 C1086.43677,159.091179 1053.05415,173.376187 1021.40743,192.734375 Z" id="Path" fill="url(#linearGradient-17)"></path>
                <path d="M1117.63615,135.559292 C1082.36333,143.977942 1048.02578,158.276284 1015.55875,178.053429 C974.941564,202.774861 936.99656,236.048572 902.926222,277.072786 C872.730551,313.419972 829.842008,331.593565 771.588411,332.79623 C722.153019,333.731635 667.907697,323.041286 601.503941,306.604875 C524.678669,287.495876 444.780387,270.658577 386.393181,291.237498 C335.888916,309.143833 294.470074,348.297236 263.606356,407.628672 C238.88866,454.799837 220.851422,514.933049 209.628252,586.157499 C193.060716,692.125582 197.068991,791.813086 198.405082,816 L202.413357,816 C201.077266,792.481232 196.935382,692.793729 213.502918,586.825645 C224.592479,516.002084 242.629717,456.403389 267.080194,409.633112 C297.543085,351.370711 338.160272,312.885455 387.595663,295.246379 C444.913996,275.068346 524.144233,291.772016 600.301458,310.747385 C666.972433,327.317426 721.484973,338.141404 771.321192,337.072369 C830.777272,335.869705 874.734688,317.161594 905.598406,279.879003 C939.401525,239.255677 976.945701,206.249225 1017.16206,181.795051 C1049.36187,162.285165 1083.2986,148.120452 1118.03698,139.701803 C1151.30566,131.684041 1178.96276,130.615006 1197,131.149524 L1197,127.140643 C1194.46143,127.007013 1191.65563,127.007013 1188.71623,127.007013 C1171.07982,126.873384 1146.36213,128.610566 1117.63615,135.559292 Z" id="Path" fill="url(#linearGradient-18)"></path>
                <path d="M1113.48104,121.218451 C1077.29554,129.230539 1042.04472,143.518762 1008.66327,163.682517 C967.136734,188.920593 928.414244,223.372571 893.831055,266.103706 C827.335194,348.494676 710.233044,326.995574 585.9205,295.614896 C503.535065,274.783468 424.621302,257.691014 365.869938,278.121838 C314.328969,296.149035 272.268334,335.942405 241.023291,396.567203 C216.053961,444.906799 197.894449,506.466341 186.945331,579.643409 C170.521654,688.607804 175.328584,791.429597 176.797368,816 L180.669617,816 C179.200833,792.097271 174.393903,689.275478 190.684054,580.311083 C201.633172,507.668154 219.659158,446.509217 244.361436,398.43669 C275.205902,338.746636 316.465382,299.487405 366.938145,281.860812 C424.754827,261.830593 503.000962,278.789512 584.718767,299.487405 C710.233044,331.268687 828.670452,352.901324 896.635098,268.640867 C930.951235,226.176802 969.139621,192.125429 1010.26558,167.154422 C1043.11293,147.257737 1077.96317,133.103048 1113.74809,125.224495 C1148.46481,117.479477 1177.43991,117.212407 1196,118.414221 L1196,114.541712 C1191.05954,114.274642 1185.45146,114.007572 1179.17575,114.007572 C1161.95091,113.874038 1139.25152,115.476455 1113.48104,121.218451 Z" id="Path" fill="url(#linearGradient-19)"></path>
                <path d="M1111.0115,106.144776 C1073.75872,113.758955 1037.57412,127.918657 1003.52588,148.490299 C960.932205,174.13806 921.543065,209.804478 886.560167,254.420896 C855.716468,293.69403 810.986427,313.063433 749.833118,313.731343 C693.753665,314.265672 631.131608,299.43806 571.714092,284.076119 C486.793776,262.168657 405.612091,244.268657 346.46162,264.439552 C293.853751,282.473134 251.260071,323.08209 219.615236,385.197761 C194.379482,434.623134 176.086898,497.807463 165.271575,572.880597 C149.115352,685.089552 154.589775,791.020149 156.192045,816 L159.930675,816 C158.328405,791.68806 152.720459,685.757463 168.876683,573.414925 C179.692006,498.742537 197.717545,435.958955 222.819777,386.800746 C253.930521,325.620149 295.990111,285.545522 347.5298,267.912687 C405.745613,248.008955 486.259686,265.908955 570.512389,287.682836 C630.063428,303.044776 693.086052,318.00597 749.566073,317.471642 C811.921085,316.803731 857.585783,297.033582 889.230617,256.825373 C923.94647,212.609701 963.068565,177.34403 1005.12815,151.829851 C1038.77583,131.525373 1074.55986,117.365672 1111.41207,109.885075 C1147.73019,102.53806 1177.90628,103.072388 1197,104.942537 L1197,101.202239 C1189.92331,100.534328 1181.37787,100 1171.76425,100 C1154.80689,100 1134.1109,101.469403 1111.0115,106.144776 Z" id="Path" fill="url(#linearGradient-20)"></path>
                <path d="M1107.29165,91.208562 C1068.97872,98.2868643 1031.86723,112.577022 997.025147,133.544823 C953.50592,159.721186 913.457552,196.581778 877.947999,243.058178 C846.576777,283.791804 800.921637,303.691182 738.446182,304.09184 C737.912204,304.09184 737.378226,304.09184 736.710753,304.09184 C680.376048,304.09184 616.699143,288.599707 556.359601,272.706915 C465.716794,248.934504 385.753552,230.904866 326.081483,250.937797 C272.550164,269.100988 229.164432,310.368825 197.125737,373.939993 C171.628276,424.556531 153.339521,489.196121 142.659956,566.256129 C126.640609,681.512258 132.914853,790.624954 134.783777,816 L138.38813,816 C136.652701,791.292719 130.244962,682.180022 146.264309,566.79034 C156.81038,490.130992 175.099134,425.89206 200.329606,375.542627 C231.834323,312.90633 274.552582,272.172704 327.14944,254.410172 C385.887046,234.644347 465.182816,252.673985 555.425139,276.312843 C616.165164,292.072082 680.109059,307.564215 736.844248,307.564215 C737.378226,307.564215 738.045699,307.564215 738.579677,307.564215 C802.256583,307.163557 848.846185,286.86352 880.884879,245.195024 C916.127443,199.119283 955.775328,162.659349 998.760577,136.616539 C1033.20217,115.915843 1069.91318,101.759239 1107.82563,94.6809367 C1145.60459,87.6026345 1177.2428,89.0717161 1197,91.6092206 L1197,88.0032931 C1187.92237,86.9348701 1176.44184,86 1163.09238,86 C1146.93954,86 1127.98331,87.3355287 1107.29165,91.208562 Z" id="Path" fill="url(#linearGradient-21)"></path>
                <path d="M1104.05037,76.1506507 C1064.65361,82.8291969 1026.59234,97.1212858 990.934933,118.492634 C946.46334,145.206818 905.597553,183.140961 869.539505,231.493636 C837.888551,273.702048 791.280186,294.27197 727.310537,294.27197 C727.176989,294.27197 727.043441,294.27197 727.043441,294.27197 C669.751209,294.27197 606.449302,278.644172 541.144171,261.279952 C444.455183,235.500763 365.795219,217.468689 305.698472,237.370756 C251.077207,255.536402 207.006259,297.744814 174.687564,362.526712 C148.912737,414.21866 130.483068,480.603409 120.066299,559.543825 C104.307597,678.021235 111.25211,790.220812 113.255334,816 L116.727591,816 C114.857914,790.888666 107.779853,678.68909 123.538556,560.078109 C133.955325,481.538406 152.251446,415.554369 177.892724,364.129563 C209.810774,300.01552 253.21398,258.474962 306.900407,240.710029 C324.128141,234.96648 343.225552,232.562203 363.925542,232.562203 C414.40681,232.562203 474.637105,247.121434 540.476429,264.752796 C606.048657,282.250587 669.617661,297.878385 727.310537,297.878385 C727.444086,297.878385 727.577634,297.878385 727.577634,297.878385 C792.749217,297.878385 840.158873,276.774179 872.611116,233.63077 C908.268519,185.812379 948.733662,148.145379 992.80461,121.698336 C1028.06137,100.59413 1065.58845,86.4356118 1104.58456,79.7570656 C1143.84777,73.0785194 1176.70065,75.482796 1197,78.5549273 L1197,75.0820833 C1186.18259,73.4792322 1171.89291,72.009952 1155.19937,72.009952 C1139.97486,71.8763811 1122.74713,73.0785194 1104.05037,76.1506507 Z" id="Path" fill="url(#linearGradient-22)"></path>
                <path d="M1100.8455,61.6050731 C1060.38048,67.8805707 1021.38449,82.0338207 985.059454,103.797781 C939.653162,131.036111 897.986212,170.15783 861.52763,220.094768 C829.609678,263.489167 782.467263,284.719042 717.429427,284.719042 C717.162331,284.719042 716.761687,284.719042 716.494591,284.719042 C658.534795,284.585521 593.363411,268.16241 526.188808,250.003523 C465.958697,233.713933 399.986026,215.822089 343.228161,215.822089 C322.528233,215.822089 303.030237,218.225471 285.53546,223.966884 C229.845978,242.259292 185.107426,285.119605 152.388186,351.346134 C126.346342,404.220539 107.916729,472.049322 97.4999916,552.963185 C82.0084331,674.601022 89.6206644,789.82984 91.7574311,816 L95.096129,816 C93.0929103,790.630967 85.2135831,675.135107 100.83869,553.363748 C111.121879,472.850449 129.417944,405.42223 155.32624,352.814867 C187.644836,287.389466 231.715649,245.063238 286.470295,227.171393 C303.564429,221.563502 322.661781,219.293641 343.094613,219.293641 C399.318286,219.293641 465.290958,237.051964 525.253973,253.341554 C592.695671,271.633962 658.134151,288.057072 716.494591,288.190594 C716.895235,288.190594 717.162331,288.190594 717.562975,288.190594 C783.669194,288.190594 831.612897,266.560155 864.198588,222.231108 C900.390074,172.694733 941.656381,133.840056 986.662029,106.868769 C1022.71997,85.3718513 1061.18177,71.2186014 1101.24614,65.076625 C1139.70794,59.0681698 1174.16331,61.6050731 1197,65.6107099 L1197,62.0056368 C1183.77876,59.7357759 1166.95172,58 1147.72082,58 C1133.1641,58 1117.27189,59.0681698 1100.8455,61.6050731 Z" id="Path" fill="url(#linearGradient-23)"></path>
                <path d="M1097.51452,46.8174979 C1055.98434,52.6911581 1016.19014,66.8413395 978.933165,89.0010575 C932.462094,116.633959 890.130688,156.948627 853.140784,208.74363 C821.09177,253.463543 773.418861,275.089292 707.584844,275.089292 C706.783619,275.089292 706.115931,275.089292 705.314705,275.089292 C646.825254,274.688815 582.593688,258.269265 510.884019,238.6459 C422.482154,214.350306 330.875388,189.253758 265.174909,210.47903 C208.554984,228.767472 163.018676,272.419447 130.034899,340.100031 C103.727999,394.030911 85.1662786,463.446896 75.017424,546.3456 C59.6606047,671.027387 68.0734709,789.435037 70.3436094,816 L73.6820484,816 C71.5454475,790.23599 62.9990437,671.694848 78.355863,546.746077 C88.5047176,464.247849 106.932901,395.232342 133.106262,341.568446 C165.689427,274.688815 210.558047,231.57081 266.376747,213.549352 C331.276001,192.591065 422.348617,217.687613 510.349868,241.849715 C582.326613,261.606572 646.691717,278.026122 705.581781,278.426599 C773.685936,278.827076 822.827758,256.80085 855.945073,210.746014 C892.667902,159.351488 934.732233,119.437297 980.669153,91.9378876 C1017.52552,70.0451541 1056.9191,55.8949727 1097.91513,50.1548048 C1140.24654,44.1476523 1175.63399,48.4194052 1197,52.6911581 L1197,49.4873434 C1182.97856,46.6840056 1163.48207,44.01416 1140.113,44.01416 C1126.89278,43.8806678 1112.60426,44.6816214 1097.51452,46.8174979 Z" id="Path" fill="url(#linearGradient-24)"></path>
                <path d="M1094.53094,31.4050934 C1052.04703,36.7497453 1011.16628,50.913073 973.224675,73.6278438 C925.797666,101.820883 882.779365,143.375552 845.104952,196.955688 C812.240039,243.721392 762.942669,266.035314 694.540898,265.233616 C635.357334,264.565535 569.627507,247.462649 495.881848,227.019355 C405.035746,201.765874 311.116908,175.57708 244.852693,196.688455 C187.138699,215.127504 140.914064,259.488115 107.648359,328.567742 C81.0625148,383.617657 62.4925028,454.567912 52.4727121,539.414261 C37.3762275,667.418676 46.5944349,789.143124 48.8655875,816 L51.8047261,816 C49.5335735,789.811205 40.1817689,667.953141 55.2782535,539.681494 C65.2980442,455.235993 83.734459,384.552971 110.186706,329.636672 C143.185217,261.225127 188.741865,217.398981 245.654276,199.227165 C311.116908,178.383022 404.501357,204.4382 494.946668,229.691681 C568.825924,250.268591 634.822945,267.371477 694.273703,268.039559 C763.877849,268.841256 813.843205,246.126486 847.376105,198.559083 C884.649726,145.379796 927.400833,104.225976 974.42705,76.1665535 C1011.96787,53.7190153 1052.44782,39.6893039 1094.53094,34.344652 C1138.35083,28.7327674 1174.95646,33.9438031 1197,38.8876061 L1197,35.8144312 C1181.63632,32.4740238 1159.45918,29 1132.73974,29 C1120.98319,29 1108.02426,29.6680815 1094.53094,31.4050934 Z" id="Path" fill="url(#linearGradient-25)"></path>
                <path d="M1090.9501,16.0035018 C1047.4082,20.9454727 1005.7362,35.1035518 967.002604,58.0770385 C918.652397,86.7938969 874.843369,129.401701 836.777598,184.698349 C803.653699,232.915958 753.433594,255.755878 683.446001,254.687344 C623.60928,253.752376 558.964251,236.789395 480.829248,214.750875 L478.95935,214.216608 C382.526063,186.968984 291.435341,161.324162 224.786851,182.16058 C166.018643,200.592796 119.271205,245.738369 85.479485,316.261631 C58.6330991,372.493247 39.9341238,445.153577 30.0503797,531.838419 C15.0911995,663.001001 25.1085077,787.752376 27.5126617,815 L30.317508,815 C27.913354,788.42021 17.8960458,663.401701 32.7216619,532.23912 C42.605406,445.821411 61.037253,373.561781 87.8836389,317.597299 C121.274666,247.741871 167.487848,203.130565 225.454671,184.965483 C242.283749,179.756378 260.582032,177.485743 280.34952,177.485743 C337.915651,177.485743 406.567603,196.852926 478.157965,217.021511 L480.027863,217.555778 C612.523459,254.954477 762.649518,297.295148 839.048188,186.301151 C876.846831,131.405203 920.38873,89.0645323 968.338245,60.6148074 C1006.67114,37.7748874 1048.07602,23.7503752 1091.21723,18.8084042 C1136.49546,13.5992996 1174.42767,19.7433717 1197,25.2196098 L1197,22.2811406 C1180.30449,18.2741371 1155.46156,14 1125.67677,14 C1114.72451,14 1103.10443,14.6678339 1090.9501,16.0035018 Z" id="Path" fill="url(#linearGradient-26)"></path>
                <path d="M6.25601423,815 L8.92764085,815 C6.38959556,788.037995 -4.43049226,660.035211 10.2634542,525.625614 C19.88131,437.264985 38.5826964,363.453161 65.5661253,306.325745 C99.2286207,235.049951 146.249249,189.801834 205.292198,171.515722 C271.682119,150.960531 363.05175,177.121684 459.764633,204.751065 C604.433215,245.994923 753.910725,288.707009 830.71999,174.986079 C869.057832,118.259089 913.273253,74.8796266 962.297601,45.915493 C1001.43693,22.6907959 1043.78221,8.67589256 1087.86405,4.27120865 C1134.7511,-0.533901081 1173.89043,6.67376351 1197,12.6801507 L1197,9.87717 C1179.1001,5.20553554 1151.71593,0 1118.85492,0 C1108.9699,0 1098.55056,0.533901081 1087.86405,1.60170324 C1043.24789,6.13986243 1000.63544,20.2882411 961.095369,43.6464134 C911.803858,72.8774975 867.187693,116.523911 828.582689,173.651327 C752.842074,285.770554 604.166052,243.325418 460.566121,202.34851 C363.452494,174.585653 271.682119,148.4245 204.49071,169.246643 C144.779855,187.66623 97.2249007,233.581723 63.1616613,305.524894 C36.0446511,362.91926 17.3432647,436.998035 7.59182754,525.625614 C-7.10211889,659.634785 3.5843876,787.370619 6.25601423,815 Z" id="Path" fill="url(#linearGradient-27)"></path>
            </g>
        </g>
    </g>
</svg>
