<?xml version="1.0" encoding="UTF-8"?>
<svg width="1601px" height="1427px" viewBox="0 0 1601 1427" version="1.1" xmlns="http://www.w3.org/2000/svg" xmlns:xlink="http://www.w3.org/1999/xlink">
    <title>waves-28</title>
    <defs>
        <linearGradient x1="-61.2862993%" y1="89.4335025%" x2="51.4306568%" y2="53.7980239%" id="linearGradient-1">
            <stop stop-color="#FB6A49" offset="0.5799585%"></stop>
            <stop stop-color="#FC3579" offset="47.69%"></stop>
            <stop stop-color="#7326A2" offset="80.16%"></stop>
            <stop stop-color="#241DBA" offset="100%"></stop>
        </linearGradient>
        <linearGradient x1="-59.8596497%" y1="88.4337013%" x2="52.42349%" y2="53.4389888%" id="linearGradient-2">
            <stop stop-color="#FB6A49" offset="0.5799585%"></stop>
            <stop stop-color="#FC3579" offset="47.69%"></stop>
            <stop stop-color="#7326A2" offset="80.16%"></stop>
            <stop stop-color="#241DBA" offset="100%"></stop>
        </linearGradient>
        <linearGradient x1="-58.4204248%" y1="87.4494492%" x2="53.362325%" y2="53.0788774%" id="linearGradient-3">
            <stop stop-color="#FB6A49" offset="0.5799585%"></stop>
            <stop stop-color="#FC3579" offset="47.69%"></stop>
            <stop stop-color="#7326A2" offset="80.16%"></stop>
            <stop stop-color="#241DBA" offset="100%"></stop>
        </linearGradient>
        <linearGradient x1="-57.0783019%" y1="86.5215747%" x2="54.3592934%" y2="52.7300499%" id="linearGradient-4">
            <stop stop-color="#FB6A49" offset="0.5799585%"></stop>
            <stop stop-color="#FC3579" offset="47.69%"></stop>
            <stop stop-color="#7326A2" offset="80.16%"></stop>
            <stop stop-color="#241DBA" offset="100%"></stop>
        </linearGradient>
        <linearGradient x1="-55.5409727%" y1="85.5820578%" x2="55.3230133%" y2="52.3728501%" id="linearGradient-5">
            <stop stop-color="#FB6A49" offset="0.5799585%"></stop>
            <stop stop-color="#FC3579" offset="47.69%"></stop>
            <stop stop-color="#7326A2" offset="80.16%"></stop>
            <stop stop-color="#241DBA" offset="100%"></stop>
        </linearGradient>
        <linearGradient x1="-54.0839372%" y1="84.6677853%" x2="56.2707622%" y2="52.0103173%" id="linearGradient-6">
            <stop stop-color="#FB6A49" offset="0.5799585%"></stop>
            <stop stop-color="#FC3579" offset="47.69%"></stop>
            <stop stop-color="#7326A2" offset="80.16%"></stop>
            <stop stop-color="#241DBA" offset="100%"></stop>
        </linearGradient>
        <linearGradient x1="-52.7040874%" y1="83.7014384%" x2="57.1554317%" y2="51.572442%" id="linearGradient-7">
            <stop stop-color="#FB6A49" offset="0.5799585%"></stop>
            <stop stop-color="#FC3579" offset="47.69%"></stop>
            <stop stop-color="#7326A2" offset="80.16%"></stop>
            <stop stop-color="#241DBA" offset="100%"></stop>
        </linearGradient>
        <linearGradient x1="-51.3115148%" y1="82.4921506%" x2="58.0169738%" y2="50.8747788%" id="linearGradient-8">
            <stop stop-color="#FB6A49" offset="0.5799585%"></stop>
            <stop stop-color="#FC3579" offset="47.69%"></stop>
            <stop stop-color="#7326A2" offset="80.16%"></stop>
            <stop stop-color="#241DBA" offset="100%"></stop>
        </linearGradient>
        <linearGradient x1="-49.9785928%" y1="81.3325997%" x2="58.8361139%" y2="50.2108138%" id="linearGradient-9">
            <stop stop-color="#FB6A49" offset="0.5799585%"></stop>
            <stop stop-color="#FC3579" offset="47.69%"></stop>
            <stop stop-color="#7326A2" offset="80.16%"></stop>
            <stop stop-color="#241DBA" offset="100%"></stop>
        </linearGradient>
        <linearGradient x1="-48.6270548%" y1="80.182242%" x2="59.6651484%" y2="49.5359526%" id="linearGradient-10">
            <stop stop-color="#FB6A49" offset="0.5799585%"></stop>
            <stop stop-color="#FC3579" offset="47.69%"></stop>
            <stop stop-color="#7326A2" offset="80.16%"></stop>
            <stop stop-color="#241DBA" offset="100%"></stop>
        </linearGradient>
        <linearGradient x1="-47.2944724%" y1="79.066508%" x2="60.4638626%" y2="48.8814189%" id="linearGradient-11">
            <stop stop-color="#FB6A49" offset="0.5799585%"></stop>
            <stop stop-color="#FC3579" offset="47.69%"></stop>
            <stop stop-color="#7326A2" offset="80.16%"></stop>
            <stop stop-color="#241DBA" offset="100%"></stop>
        </linearGradient>
        <linearGradient x1="-44.3745207%" y1="77.4506504%" x2="61.0400695%" y2="48.2067783%" id="linearGradient-12">
            <stop stop-color="#FB6A49" offset="0.5799585%"></stop>
            <stop stop-color="#FC3579" offset="47.69%"></stop>
            <stop stop-color="#7326A2" offset="80.16%"></stop>
            <stop stop-color="#241DBA" offset="100%"></stop>
        </linearGradient>
        <linearGradient x1="-41.3031817%" y1="75.8518606%" x2="61.5924532%" y2="47.5757987%" id="linearGradient-13">
            <stop stop-color="#FB6A49" offset="0.5799585%"></stop>
            <stop stop-color="#FC3579" offset="47.69%"></stop>
            <stop stop-color="#7326A2" offset="80.16%"></stop>
            <stop stop-color="#241DBA" offset="100%"></stop>
        </linearGradient>
        <linearGradient x1="-38.3925987%" y1="74.3812446%" x2="62.0927335%" y2="47.0324973%" id="linearGradient-14">
            <stop stop-color="#FB6A49" offset="0.5799585%"></stop>
            <stop stop-color="#FC3579" offset="47.69%"></stop>
            <stop stop-color="#7326A2" offset="80.16%"></stop>
            <stop stop-color="#241DBA" offset="100%"></stop>
        </linearGradient>
        <linearGradient x1="-35.5793862%" y1="72.9158514%" x2="62.596898%" y2="46.433475%" id="linearGradient-15">
            <stop stop-color="#FB6A49" offset="0.5799585%"></stop>
            <stop stop-color="#FC3579" offset="47.69%"></stop>
            <stop stop-color="#7326A2" offset="80.16%"></stop>
            <stop stop-color="#241DBA" offset="100%"></stop>
        </linearGradient>
        <linearGradient x1="-32.9132053%" y1="71.583896%" x2="63.062504%" y2="45.9233344%" id="linearGradient-16">
            <stop stop-color="#FB6A49" offset="0.5799585%"></stop>
            <stop stop-color="#FC3579" offset="47.69%"></stop>
            <stop stop-color="#7326A2" offset="80.16%"></stop>
            <stop stop-color="#241DBA" offset="100%"></stop>
        </linearGradient>
        <linearGradient x1="-30.3774585%" y1="70.3067474%" x2="63.4922826%" y2="45.4229778%" id="linearGradient-17">
            <stop stop-color="#FB6A49" offset="0.5799585%"></stop>
            <stop stop-color="#FC3579" offset="47.69%"></stop>
            <stop stop-color="#7326A2" offset="80.16%"></stop>
            <stop stop-color="#241DBA" offset="100%"></stop>
        </linearGradient>
        <linearGradient x1="-27.9391622%" y1="69.0849528%" x2="63.9149472%" y2="44.9211819%" id="linearGradient-18">
            <stop stop-color="#FB6A49" offset="0.5799585%"></stop>
            <stop stop-color="#FC3579" offset="47.69%"></stop>
            <stop stop-color="#7326A2" offset="80.16%"></stop>
            <stop stop-color="#241DBA" offset="100%"></stop>
        </linearGradient>
        <linearGradient x1="-25.5843437%" y1="67.9444674%" x2="64.3242175%" y2="44.4744658%" id="linearGradient-19">
            <stop stop-color="#FB6A49" offset="0.5799585%"></stop>
            <stop stop-color="#FC3579" offset="47.69%"></stop>
            <stop stop-color="#7326A2" offset="80.16%"></stop>
            <stop stop-color="#241DBA" offset="100%"></stop>
        </linearGradient>
        <linearGradient x1="-23.3261021%" y1="66.9292473%" x2="64.7248606%" y2="44.1060395%" id="linearGradient-20">
            <stop stop-color="#FB6A49" offset="0.5799585%"></stop>
            <stop stop-color="#FC3579" offset="47.69%"></stop>
            <stop stop-color="#7326A2" offset="80.16%"></stop>
            <stop stop-color="#241DBA" offset="100%"></stop>
        </linearGradient>
        <linearGradient x1="-21.1920868%" y1="65.9099764%" x2="65.0640707%" y2="43.6957719%" id="linearGradient-21">
            <stop stop-color="#FB6A49" offset="0.5799585%"></stop>
            <stop stop-color="#FC3579" offset="47.69%"></stop>
            <stop stop-color="#7326A2" offset="80.16%"></stop>
            <stop stop-color="#241DBA" offset="100%"></stop>
        </linearGradient>
        <linearGradient x1="-19.0973394%" y1="64.9805946%" x2="65.4536181%" y2="43.3313062%" id="linearGradient-22">
            <stop stop-color="#FB6A49" offset="0.5799585%"></stop>
            <stop stop-color="#FC3579" offset="47.69%"></stop>
            <stop stop-color="#7326A2" offset="80.16%"></stop>
            <stop stop-color="#241DBA" offset="100%"></stop>
        </linearGradient>
        <linearGradient x1="-17.1007981%" y1="64.0957834%" x2="65.78903%" y2="43.0003923%" id="linearGradient-23">
            <stop stop-color="#FB6A49" offset="0.5799585%"></stop>
            <stop stop-color="#FC3579" offset="47.69%"></stop>
            <stop stop-color="#7326A2" offset="80.16%"></stop>
            <stop stop-color="#241DBA" offset="100%"></stop>
        </linearGradient>
        <linearGradient x1="-15.1822071%" y1="63.2622115%" x2="66.1270094%" y2="42.6762577%" id="linearGradient-24">
            <stop stop-color="#FB6A49" offset="0.5799585%"></stop>
            <stop stop-color="#FC3579" offset="47.69%"></stop>
            <stop stop-color="#7326A2" offset="80.16%"></stop>
            <stop stop-color="#241DBA" offset="100%"></stop>
        </linearGradient>
        <linearGradient x1="-13.329714%" y1="62.4786706%" x2="66.4375841%" y2="42.3896544%" id="linearGradient-25">
            <stop stop-color="#FB6A49" offset="0.5799585%"></stop>
            <stop stop-color="#FC3579" offset="47.69%"></stop>
            <stop stop-color="#7326A2" offset="80.16%"></stop>
            <stop stop-color="#241DBA" offset="100%"></stop>
        </linearGradient>
        <linearGradient x1="-11.5473567%" y1="61.724547%" x2="66.7437652%" y2="42.1051834%" id="linearGradient-26">
            <stop stop-color="#FB6A49" offset="0.5799585%"></stop>
            <stop stop-color="#FC3579" offset="47.69%"></stop>
            <stop stop-color="#7326A2" offset="80.16%"></stop>
            <stop stop-color="#241DBA" offset="100%"></stop>
        </linearGradient>
        <linearGradient x1="-9.82178186%" y1="60.9991435%" x2="67.0405968%" y2="41.8321986%" id="linearGradient-27">
            <stop stop-color="#FB6A49" offset="0.5799585%"></stop>
            <stop stop-color="#FC3579" offset="47.69%"></stop>
            <stop stop-color="#7326A2" offset="80.16%"></stop>
            <stop stop-color="#241DBA" offset="100%"></stop>
        </linearGradient>
    </defs>
    <g id="CAMBIOS-MAYO-2020" stroke="none" stroke-width="1" fill="none" fill-rule="evenodd">
        <g id="HOME-B" transform="translate(81.000000, -694.000000)" fill-rule="nonzero">
            <g id="waves-28" transform="translate(-81.000000, 694.000000)">
                <path d="M950.65,1372.35 C908.825,1340.675 872.425,1302.7 842.5,1259.65 C805.05,1205.75 777.75,1143.45 761.3,1074.5 C741.7,992.425 764.275,855.75 844.95,764.225 C877.325,727.3 916.875,700 962.55,682.85 C1014.175,663.425 1073.675,657.125 1139.475,664.3 C1206.15,671.475 1273,664.825 1337.925,644.525 C1389.725,628.25 1440.65,603.4 1488.95,570.325 C1541.1,534.625 1579.25,497 1600.25,474.25 L1600.25,461.125 C1581.7,482.125 1541.625,523.6 1484.05,562.975 C1436.45,595.525 1386.4,620.025 1335.3,636.125 C1271.6,656.075 1205.975,662.55 1140.525,655.55 C1073.5,648.2 1012.6,654.675 959.575,674.625 C912.675,692.3 871.9,720.475 838.475,758.45 C789.125,814.45 766.55,879.2 756.4,923.65 C743.975,978.075 742.75,1033.725 752.9,1076.6 C769.7,1146.6 797.35,1209.775 835.325,1264.725 C865.775,1308.65 902.7,1347.15 945.225,1379.525 C971.3,1399.3 997.375,1414.7 1019.95,1426.425 L1040.25,1426.425 C1015.925,1415.05 984.25,1397.725 950.65,1372.35 Z" id="Path" fill="url(#linearGradient-1)"></path>
                <path d="M853.7,1303.575 C794.9,1236.9 753.075,1151.5 732.425,1056.825 C713.7,970.2 736.975,835.8 818,746.9 C851.95,709.625 893.775,682.325 942.425,665.7 C996.15,647.325 1058.275,642.075 1126.875,649.95 C1196.175,658.35 1261.8,651.875 1321.825,630.7 C1460.075,582.05 1560.525,494.025 1600.075,455.35 L1600.075,443.275 C1566.3,477.225 1463.4,571.725 1319.025,622.475 C1260.225,643.125 1195.825,649.425 1127.925,641.375 C1057.925,633.15 994.575,638.575 939.625,657.475 C889.575,674.625 846.525,702.625 811.7,741.125 C728.75,832.3 704.775,969.85 724.025,1058.75 C744.85,1155 787.55,1241.625 847.225,1309.35 C898.325,1367.275 953.975,1404.375 994.225,1426.25 L1012.775,1426.25 C973.05,1406.3 910.575,1368.15 853.7,1303.575 Z" id="Path" fill="url(#linearGradient-2)"></path>
                <path d="M822.2,1294.475 C781.425,1246.175 727.7,1162.875 703.375,1039.15 C685.35,947.45 711.25,809.725 795.95,723.8 C831.475,687.75 875.4,661.675 926.325,646.625 C981.1,630.35 1044.45,626.675 1114.45,635.6 C1188.65,645.05 1255.675,638.05 1313.6,614.425 C1454.125,557.2 1559.825,472.15 1600.425,436.625 L1600.425,425.425 C1565.075,456.925 1457.1,547.05 1310.45,606.725 C1253.925,629.65 1188.3,636.65 1115.5,627.375 C1044.45,618.275 980.05,622.125 924.05,638.75 C871.725,654.325 826.75,680.925 790.175,718.025 C748.875,760.025 718.425,816.2 702.325,880.6 C688.675,935.2 686.05,993.65 695.325,1040.9 C720,1166.2 774.6,1250.9 815.9,1299.9 C868.575,1362.2 926.85,1402.8 967.45,1426.25 L984.6,1426.25 C944.875,1404.725 880.125,1363.075 822.2,1294.475 Z" id="Path" fill="url(#linearGradient-3)"></path>
                <path d="M790.7,1285.375 C733.3,1214.675 692,1121.05 674.325,1021.65 C665.575,972.825 668.9,913.675 683.25,859.6 C700.225,795.55 731.55,740.775 773.725,701.05 C810.825,666.05 856.675,641.55 910.05,628.075 C965.875,613.9 1030.275,611.8 1101.675,621.6 C1180.075,632.275 1248.5,624.575 1305.025,598.675 C1448,532.525 1558.6,450.975 1600.25,418.25 L1600.25,407.925 C1563.5,437.15 1450.1,522.55 1301.525,590.975 C1246.4,616.35 1179.55,623.875 1102.725,613.375 C1030.275,603.4 964.825,605.675 907.95,620.025 C853.175,633.85 806.1,659.05 767.95,694.925 C673.625,783.65 649.125,927.15 666.1,1022.875 C683.95,1123.675 725.95,1218.525 784.225,1290.275 C838.125,1356.775 898.85,1400.875 939.45,1425.9 L955.2,1425.9 C916,1403.325 849.325,1357.825 790.7,1285.375 Z" id="Path" fill="url(#linearGradient-4)"></path>
                <path d="M759.025,1276.1 C725.95,1233.75 667.325,1142.05 645.1,1003.975 C629.35,905.625 655.775,761.6 751.325,677.95 C829.375,609.7 942.95,585.725 1088.9,607.075 C1172.025,619.15 1239.925,611.1 1296.275,582.225 C1441.7,507.675 1557.55,429.625 1600.075,399.875 L1600.075,390.25 C1561.925,417.025 1443.275,497.875 1292.6,575.225 C1237.825,603.225 1171.5,611.1 1089.95,599.2 C941.725,577.5 825.875,602 745.9,672 C648.075,757.575 620.95,904.75 637.05,1005.2 C659.625,1145.025 719.125,1238.125 752.55,1281 C807.5,1351.525 870.15,1399.475 910.75,1426.075 L925.45,1426.075 C886.775,1401.75 818.35,1352.4 759.025,1276.1 Z" id="Path" fill="url(#linearGradient-5)"></path>
                <path d="M727.525,1267 C694.8,1223.25 636.7,1128.575 616.05,986.3 C608.175,931.875 612.9,868.875 629.175,813.225 C648.6,747.25 683.075,692.475 729.1,655.025 C769.175,622.3 819.225,600.6 877.5,590.45 C934.55,580.475 1001.4,581.35 1076.3,592.9 C1162.925,606.375 1232.225,597.625 1287.7,566.3 C1435.4,482.825 1556.5,408.975 1600.075,382.025 L1600.075,372.925 C1560.525,397.425 1436.45,473.375 1283.85,559.475 C1229.775,589.925 1162.225,598.325 1077.35,585.2 C1001.75,573.475 934.025,572.6 876.1,582.75 C816.425,593.075 765.325,615.475 724.2,649.075 C676.95,687.575 641.6,743.575 621.65,811.125 C604.85,868.525 600.125,931.175 608.175,987.525 C629,1131.375 687.8,1227.275 721.05,1271.725 C776.7,1346.275 841.45,1398.075 881.875,1426.25 L895.525,1426.25 C857.2,1400.175 787.025,1346.8 727.525,1267 Z" id="Path" fill="url(#linearGradient-6)"></path>
                <path d="M696.025,1257.9 C640.725,1180.9 601,1075.55 587,968.8 C566.875,814.625 632.85,688.625 707.05,632.1 C788.425,570.325 905.15,552.825 1063.875,578.725 C1153.825,593.425 1224.35,584.15 1279.475,550.2 C1429.45,457.8 1555.975,388.15 1600.425,364.175 L1600.425,355.6 C1559.475,377.65 1429.975,448.7 1275.625,543.725 C1222.25,576.625 1153.3,585.55 1065.275,571.2 C904.45,544.95 785.8,562.975 702.675,626.15 C597.15,706.3 564.95,856.45 579.65,969.85 C593.65,1077.825 633.9,1184.4 690.075,1262.45 C746.25,1340.85 812.75,1396.5 853,1426.25 L865.775,1426.25 C827.275,1398.6 755.7,1341.2 696.025,1257.9 Z" id="Path" fill="url(#linearGradient-7)"></path>
                <path d="M664.35,1248.8 C638.45,1211.175 575.975,1107.05 557.775,951.3 C544.3,835.625 578.25,684.95 684.65,609.35 C767.775,550.375 884.15,536.025 1050.925,564.55 C1145.25,580.65 1215.075,571.025 1270.55,534.275 C1422.8,432.775 1554.75,367.85 1600.075,346.5 L1600.075,338.45 C1557.725,358.225 1422.625,424.025 1266.525,528.15 C1212.8,563.85 1144.725,573.125 1052.325,557.375 C883.45,528.5 765.325,543.025 680.45,603.4 C629.35,639.625 590.675,695.625 568.45,765.275 C549.725,824.075 543.25,890.575 550.6,952.35 C568.975,1109.85 632.15,1215.2 658.4,1253.175 C714.925,1335.25 783.175,1395.1 823.075,1426.425 L834.975,1426.425 C797,1397.2 724.2,1335.425 664.35,1248.8 Z" id="Path" fill="url(#linearGradient-8)"></path>
                <path d="M632.85,1239.525 C579.125,1158.85 540.275,1044.4 528.725,933.45 C522.075,869.925 529.25,802.725 548.675,744.1 C571.6,674.975 610.975,620.375 662.6,586.075 C747.3,529.725 863.15,518.7 1038.5,550.025 C1135.8,567.525 1206.85,557.2 1262.15,517.825 C1416.5,407.4 1554.05,347.375 1600.25,328.65 L1600.25,320.95 C1556.5,338.45 1415.975,399 1257.95,512.225 C1204.4,550.375 1135.1,560.35 1039.725,543.2 C862.45,511.525 745.025,522.9 658.575,580.3 C605.55,615.475 565.125,671.475 541.85,742 C522.075,801.5 514.9,869.925 521.55,934.325 C533.275,1046.325 572.475,1162 626.725,1243.55 C683.6,1329.3 753.25,1393.35 792.8,1426.25 L804,1426.25 C766.725,1395.625 692.7,1329.65 632.85,1239.525 Z" id="Path" fill="url(#linearGradient-9)"></path>
                <path d="M601.35,1230.425 C548.15,1147.3 510.175,1029.7 499.675,915.95 C482.7,730.975 564.95,610.225 640.375,563.15 C748.35,495.95 895.875,511.7 1025.725,535.85 C1126,554.575 1198.275,543.725 1253.4,501.9 C1352.975,425.775 1446.425,376.425 1507.15,348.6 C1549.15,329.35 1581.875,317.275 1600.075,311.15 L1600.075,303.8 C1582.05,309.75 1548.275,322.175 1504.35,342.3 C1443.275,370.3 1349.3,419.825 1249.025,496.475 C1195.65,537.075 1125.125,547.575 1026.95,529.2 C895.7,504.7 746.6,488.95 636.525,557.375 C512.975,634.375 481.65,799.05 492.5,916.65 C503,1031.45 541.5,1150.275 595.225,1234.275 C652.1,1323.525 723.325,1391.95 762.525,1426.25 L773.025,1426.25 C736.1,1394.225 660.85,1323.7 601.35,1230.425 Z" id="Path" fill="url(#linearGradient-10)"></path>
                <path d="M569.675,1221.15 C517,1135.575 479.9,1014.825 470.45,898.1 C464.85,829.15 473.6,758.1 494.95,697.9 C520.15,626.85 562.85,572.25 618.15,539.875 C666.45,511.7 725.075,497.525 797,496.65 C854.925,495.95 921.6,503.65 1013.125,521.325 C1116.2,541.275 1189.875,529.9 1244.65,485.45 C1403.375,356.475 1552.125,306.775 1600.075,293.3 L1600.075,286.3 C1581.525,291.375 1546.35,302.4 1500.85,321.825 C1437.85,348.775 1341.6,398.125 1240.45,480.2 C1187.25,523.25 1115.325,534.275 1014.35,514.675 C922.3,496.825 855.275,489.125 796.825,489.825 C723.675,490.7 664.175,505.05 614.65,533.925 C557.95,567 514.2,623 488.475,695.45 C466.775,756.35 458.025,828.45 463.625,898.45 C473.075,1016.05 510.525,1137.85 563.725,1224.475 C620.6,1317.225 693.05,1390.025 732.075,1425.9 L742.05,1425.9 C705.3,1392.65 629,1317.925 569.675,1221.15 Z" id="Path" fill="url(#linearGradient-11)"></path>
                <path d="M538.175,1212.05 C497.925,1143.975 451.375,1021.125 441.4,880.6 C436.325,808.85 445.95,735.875 468.175,675.15 C494.95,602.175 538,548.975 596.1,517.125 C708.45,455.525 857.55,478.625 1000.7,507.325 C1050.925,517.475 1092.925,520.1 1128.975,515.55 C1171.325,510.3 1206.325,495.25 1236.25,469.7 C1337.4,382.725 1435.225,333.9 1499.625,308.175 C1545.3,289.8 1581,280.35 1600.25,276.15 L1600.25,269.5 C1581.175,273.7 1544.6,283.325 1497.35,302.225 C1432.6,328.125 1333.9,377.3 1232.05,464.975 C1178.15,511.175 1107.1,522.375 1002.1,501.2 C857.725,472.15 707.4,449.05 593.125,511.7 C534.5,543.9 489.175,599.725 462.225,673.05 C439.65,734.65 430.025,808.675 435.1,881.3 C445.075,1023.05 491.975,1146.95 532.75,1215.55 C589.625,1311.8 663.3,1388.975 701.8,1426.25 L711.25,1426.25 C674.5,1391.25 597.15,1311.975 538.175,1212.05 Z" id="Path" fill="url(#linearGradient-12)"></path>
                <path d="M506.675,1202.95 C466.775,1132.95 421.1,1006.95 412.525,863.1 C404.475,729.05 442.8,561.925 574.05,494.375 C685.7,436.975 827.625,459.9 988.1,493.325 C1098,516.075 1172.025,504 1227.5,453.775 C1329.525,361.55 1429.625,312.725 1495.6,288.225 C1543.2,270.55 1580.475,262.325 1600.075,259 L1600.075,252.525 C1580.3,255.85 1542.325,264.075 1493.675,282.275 C1427,307.125 1326.025,356.125 1223.3,449.225 C1169.4,498.05 1097.125,509.6 989.325,487.2 C827.625,453.425 684.475,430.325 571.075,488.775 C437.025,557.725 398,727.65 406.05,863.625 C414.8,1008.525 460.825,1135.75 501.075,1206.275 C557.6,1305.85 632.675,1387.75 670.825,1426.425 L679.75,1426.425 C643.525,1389.85 565.125,1305.85 506.675,1202.95 Z" id="Path" fill="url(#linearGradient-13)"></path>
                <path d="M475,1193.675 C435.45,1121.75 390.65,992.425 383.3,845.25 C379.45,768.075 390.65,691.25 414.8,628.95 C444.025,554.05 490.05,500.85 551.825,470.925 C671.175,413.175 825.875,446.6 975.5,478.8 C1088.2,503.125 1163.275,490.35 1218.925,437.5 C1321.65,339.85 1424.025,291.2 1491.925,267.75 C1541.45,250.6 1580.125,243.95 1600.25,241.325 L1600.25,235.2 C1579.95,237.65 1540.575,244.475 1490.175,261.8 C1421.75,285.425 1318.5,334.425 1214.725,432.95 C1160.65,484.225 1087.325,496.475 976.725,472.675 C826.05,440.3 670.3,406.7 549.2,465.325 C486.025,495.95 438.775,550.2 409.2,626.5 C384.7,689.5 373.325,767.2 377.35,845.25 C384.875,993.3 430.025,1123.675 469.925,1196.3 C526.275,1299.2 602.4,1385.65 640.2,1425.725 L648.6,1425.725 C612.375,1388.45 533.1,1299.9 475,1193.675 Z" id="Path" fill="url(#linearGradient-14)"></path>
                <path d="M443.5,1184.575 C404.475,1110.55 360.375,978.075 354.25,827.75 C351.975,771.225 355.825,686.875 388.025,606.2 C418.3,530.25 466.075,477.225 529.6,448.175 C647.55,394.625 791.925,426.65 944.875,460.775 L962.725,464.8 C1040.425,481.95 1138.775,492.625 1210.175,421.75 C1313.775,318.675 1418.425,270.375 1487.9,247.975 C1539.175,231.525 1579.425,226.275 1600.075,224.525 L1600.075,218.575 C1579.25,220.15 1538.3,225.4 1486.325,242.2 C1416.15,264.775 1310.45,313.6 1205.975,417.55 C1151.725,471.45 1077.175,484.225 963.95,459.025 L946.1,455 C792.275,420.7 646.85,388.325 527.15,442.75 C462.05,472.325 413.4,526.575 382.425,603.925 C349.875,685.475 345.85,770.7 348.125,827.925 C354.425,979.125 398.7,1112.825 438.075,1187.375 C494.075,1293.6 571.25,1384.775 608.7,1426.25 L616.75,1426.25 C581.225,1387.05 501.075,1293.775 443.5,1184.575 Z" id="Path" fill="url(#linearGradient-15)"></path>
                <path d="M411.825,1175.3 C374.9,1102.85 330.1,963.55 325.025,809.9 C323.1,751.45 327.825,664.65 361.25,583.1 C392.75,506.275 441.925,453.075 507.55,425.075 C624.8,375.025 764.975,407.4 913.2,441.875 C925.45,444.675 937.875,447.65 950.125,450.45 C1006.125,463.225 1050.05,466.725 1088.55,461.65 C1134.05,455.525 1170.975,437.325 1201.425,405.475 C1305.9,296.975 1412.825,248.85 1484.05,227.5 C1537.075,211.575 1578.9,207.9 1600.075,207.2 L1600.075,201.425 C1578.55,202.125 1536.375,205.975 1482.65,221.9 C1410.55,243.425 1302.575,291.9 1197.225,401.45 C1167.65,432.25 1131.775,449.925 1087.675,455.875 C1049.875,460.95 1006.475,457.45 951.35,444.85 C939.1,442.05 926.675,439.25 914.425,436.275 C842.85,419.65 769,402.5 699.875,396.2 C622.35,389.2 558.65,396.9 505.1,419.65 C438.075,448.35 387.85,502.425 355.825,580.825 C322.05,663.25 317.325,751.1 319.25,810.075 C324.325,964.6 369.475,1104.775 406.75,1177.75 C462.4,1287.3 540.625,1383.2 577.725,1425.9 L585.25,1425.9 C549.9,1385.65 468.875,1287.65 411.825,1175.3 Z" id="Path" fill="url(#linearGradient-16)"></path>
                <path d="M380.325,1166.2 C343.75,1091.65 299.825,949.2 295.975,792.4 C294.575,732.025 300,642.6 334.65,560.175 C367.375,482.3 417.95,429.1 485.5,402.15 C602.75,355.075 746.075,389.9 884.675,423.5 C902,427.7 920.025,432.075 937.525,436.275 C994.75,449.75 1039.55,453.425 1078.4,448.175 C1124.6,441.875 1162.05,422.8 1192.85,389.55 C1298.025,275.625 1407.225,227.675 1480.375,207.375 C1535.325,192.15 1578.55,190.05 1600.25,190.05 L1600.25,184.441056 C1578.2,184.275 1534.625,186.55 1479.325,201.775 C1345.45,238.7 1247.625,322.175 1189,385.525 C1159.25,417.725 1122.85,436.45 1077.875,442.4 C1039.55,447.65 995.45,443.8 938.925,430.5 C921.25,426.3 903.4,421.925 886.075,417.725 C746.6,383.775 602.4,348.775 483.4,396.55 C414.625,424.2 362.825,478.45 329.575,557.55 C294.575,640.85 288.975,731.15 290.55,792.05 C294.4,949.725 338.675,1093.225 375.425,1168.125 C430.55,1280.825 509.825,1381.625 546.575,1425.725 L553.75,1425.725 C518.575,1384.425 436.675,1281.525 380.325,1166.2 Z" id="Path" fill="url(#linearGradient-17)"></path>
                <path d="M348.65,1156.925 C312.6,1080.45 269.375,934.5 266.75,774.725 C265.7,712.425 272,620.55 307.7,537.25 C341.475,458.5 393.8,405.3 463.1,379.05 C580.7,334.6 721.75,370.65 858.25,405.3 C880.125,410.9 902.7,416.675 924.925,421.925 C983.375,435.925 1028.875,439.95 1068.425,434.7 C1115.5,428.225 1153.3,408.275 1184.275,373.45 C1290.325,254.1 1401.8,206.325 1476.7,187.075 C1533.4,172.55 1578.2,172.025 1600.25,172.9 L1600.25,167.65 C1577.675,166.775 1532.525,167.475 1475.65,182 C1400.05,201.25 1287.35,249.55 1180.25,369.95 C1150.15,403.725 1113.4,423.15 1067.725,429.45 C1028.875,434.7 983.9,430.675 926.325,416.85 C904.275,411.6 881.7,405.825 859.825,400.225 C722.625,365.225 580.7,329.175 461.525,374.15 C390.825,400.925 337.45,455 303.15,535.15 C266.925,619.325 260.625,711.9 261.675,774.9 C264.3,935.55 307.7,1082.375 344.1,1159.375 C398.7,1275.4 478.85,1380.925 515.425,1426.25 L522.25,1426.25 C487.075,1383.025 404.475,1275.4 348.65,1156.925 Z" id="Path" fill="url(#linearGradient-18)"></path>
                <path d="M317.15,1147.825 C281.45,1069.425 239.275,919.975 237.7,757.05 C236.825,665 251.875,581 281.1,514.325 C316.1,434.7 369.825,381.325 441.05,356.125 C559.35,314.125 698.825,351.4 833.75,387.45 C859.475,394.275 886.25,401.45 912.325,407.925 C972,422.625 1018.375,427 1058.275,421.4 C1106.05,414.75 1144.375,393.925 1175.525,357.7 C1222.775,302.575 1275.275,257.775 1331.45,224.525 C1376.425,197.925 1424.025,178.675 1472.85,167.125 C1531.475,153.3 1577.675,154.35 1600.25,156.1 L1600.25,151.025 C1577.15,149.275 1530.6,148.4 1471.975,162.05 C1422.625,173.6 1374.675,193.025 1329.175,219.975 C1272.3,253.575 1219.45,298.725 1171.675,354.2 C1141.4,389.55 1104.125,409.675 1057.575,416.15 C1018.2,421.575 972.525,417.375 913.55,402.85 C887.65,396.375 860.875,389.375 835.15,382.375 C699.525,346.15 559.175,308.7 439.475,351.225 C366.85,376.95 312.075,431.2 276.55,512.225 C246.975,579.6 231.925,664.3 232.625,757.05 C234.2,920.675 276.55,1071 312.425,1149.925 C366.5,1269.1 447.7,1379.525 483.75,1426.25 L490.225,1426.25 C455.575,1381.8 372.275,1269.275 317.15,1147.825 Z" id="Path" fill="url(#linearGradient-19)"></path>
                <path d="M285.475,1138.55 C247.5,1051.75 209,894.6 208.65,739.375 C208.475,644.525 224.225,558.775 254.5,491.225 C290.55,410.55 346.025,357.35 419,332.85 C538.35,292.95 676.775,331.8 810.825,369.25 C840.05,377.475 870.5,385.875 899.725,393.4 C960.45,408.8 1007.7,413.35 1048.125,407.575 C1096.6,400.75 1135.45,379.05 1166.775,341.25 C1214.375,283.675 1267.575,237.475 1324.8,203.525 C1370.65,176.4 1419.125,157.325 1469,146.475 C1529.375,133.525 1577.15,135.975 1600.075,138.6 L1600.075,133.7 C1576.45,131.075 1528.5,128.625 1468.125,141.575 C1417.725,152.425 1368.55,171.85 1322.35,199.15 C1264.6,233.275 1210.875,280 1162.925,337.925 C1092.575,422.975 990.9,411.075 900.775,388.325 C871.55,380.975 841.275,372.4 811.875,364.175 C677.3,326.55 538,287.525 417.25,327.775 C342.875,352.625 286.525,406.875 249.775,488.775 C219.325,556.85 203.4,643.3 203.573573,738.85 C203.925,905.45 245.4,1059.1 280.925,1139.95 C334.475,1262.275 416.375,1377.775 452.25,1425.55 L458.375,1425.55 C424.075,1380.4 339.9,1263.15 285.475,1138.55 Z" id="Path" fill="url(#linearGradient-20)"></path>
                <path d="M253.975,1129.275 C216.35,1040.2 178.9,879.55 179.6,721.525 C180.125,623.875 196.75,536.2 227.9,468.125 C265.175,386.575 322.05,333.2 396.95,309.75 C517.525,271.95 655.425,312.375 788.95,351.4 C821.325,360.85 854.925,370.65 887.3,379.05 C949.25,395.15 997.2,399.875 1038.325,393.925 C1087.675,386.925 1126.875,364.35 1158.375,325.15 C1206.325,265.3 1260.225,217.35 1318.5,183.05 C1365.05,155.575 1414.575,136.5 1465.675,126.35 C1527.8,114.1 1577.15,118.3 1600.6,121.8 L1600.6,117.25 C1576.625,113.75 1527.1,109.725 1464.975,121.975 C1413.35,132.125 1363.3,151.375 1316.225,179.2 C1257.425,213.85 1203.175,262.15 1154.7,322.525 C1083.825,410.9 980.4,398.475 888.525,374.675 C856.325,366.275 822.725,356.475 790.35,347.025 C656.3,307.825 517.525,267.225 395.725,305.375 C319.425,329.35 261.5,383.425 223.7,466.375 C192.375,535.15 175.575,623.35 175.040382,721.7 C174.35,880.425 211.975,1041.775 249.775,1131.2 C302.625,1256.675 385.575,1377.075 421.1,1426.075 L426.875,1426.075 C392.575,1379.175 307.7,1256.85 253.975,1129.275 Z" id="Path" fill="url(#linearGradient-21)"></path>
                <path d="M222.3,1120.175 C185.2,1028.825 148.625,864.675 150.375,704.025 C151.425,603.575 169.1,514.15 201.125,445.375 C239.45,362.775 297.9,309.575 374.9,286.825 C496.875,250.95 634.775,292.95 767.95,333.725 C803.125,344.575 839.7,355.6 874.525,364.875 C969.55,390.075 1076.65,403.025 1149.45,309.225 C1197.75,247.1 1252.35,197.75 1311.5,162.75 C1358.925,134.75 1409.325,115.85 1461.475,106.4 C1525.35,94.85 1576.275,100.8 1600.075,105 L1600.075,100.45 C1575.575,96.075 1524.475,90.475 1460.775,101.85 C1408.1,111.3 1357,130.375 1309.225,158.725 C1249.375,194.075 1194.425,243.775 1145.775,306.6 C1074.55,398.3 969.2,385.35 875.575,360.675 C840.75,351.4 804.35,340.375 769.175,329.525 C635.3,288.575 496.7,246.225 373.5,282.625 C295.275,305.725 235.95,359.8 196.925,443.625 C164.725,513.1 147.05,603.05 145.825,704.025 C144.075,865.375 180.825,1030.225 218.1,1121.925 C270.25,1250.55 354.075,1376.025 389.25,1426.25 L394.85,1426.25 C360.9,1377.95 275.325,1250.725 222.3,1120.175 Z" id="Path" fill="url(#linearGradient-22)"></path>
                <path d="M190.8,1110.9 C154.225,1017.275 118.525,849.625 121.325,686.35 C123.075,583.275 141.45,491.925 174.35,422.45 C213.9,338.975 273.925,285.6 352.675,263.9 C476.225,229.775 614.3,273.7 747.65,316.225 C787.2,328.825 824.65,340.725 861.925,350.875 C958.7,376.95 1067.55,390.6 1140.7,293.475 C1189.35,228.725 1244.65,177.975 1304.85,142.275 C1352.975,113.75 1404.425,95.025 1457.8,86.275 C1518.175,76.475 1571.2,81.9 1600.25,88.025 L1600.25,83.65 C1570.5,77.525 1517.65,72.1 1457.275,81.9 C1403.375,90.65 1351.4,109.725 1302.75,138.425 C1242.025,174.3 1186.375,225.575 1137.2,290.85 C1096.95,344.225 1033.075,392.525 862.975,346.675 C825.875,336.7 788.425,324.8 748.875,312.2 C614.825,269.5 476.225,225.225 351.45,259.875 C271.475,281.925 210.575,336.175 170.5,420.875 C137.25,490.875 118.875,582.75 116.95,686.525 C114.15,850.5 149.85,1018.85 186.6,1112.825 C238.225,1244.25 322.75,1374.625 357.75,1426.075 L363,1426.075 C329.225,1376.725 242.95,1244.425 190.8,1110.9 Z" id="Path" fill="url(#linearGradient-23)"></path>
                <path d="M159.125,1101.8 C123.075,1005.9 88.25,834.75 92.275,668.675 C94.725,562.8 113.975,469.7 147.75,399.525 C188.35,315.175 249.95,261.625 330.625,240.8 C455.925,208.25 594.35,254.275 728.225,298.55 C770.225,312.55 810.125,325.675 849.325,336.525 C947.85,363.65 1058.45,377.825 1131.95,277.375 C1180.95,210.175 1236.95,157.85 1298.2,121.625 C1347.2,92.75 1399.525,74.025 1453.95,65.975 C1521.5,56 1575.4,65.275 1600.075,71.225 L1600.075,67.025 C1574.525,61.075 1520.625,52.15 1453.425,61.95 C1398.475,70 1345.45,88.9 1296.1,118.125 C1234.325,154.7 1177.975,207.375 1128.625,275.1 C1097.3,317.975 1057.575,342.475 1007.175,349.825 C965.175,355.95 915.3,350.525 850.375,332.675 C811.175,321.825 771.45,308.7 729.45,294.7 C595.05,250.075 456.1,204.05 329.575,236.775 C247.675,257.95 185.2,312.2 144.075,397.775 C109.95,468.475 90.7,562.1 88.075,668.675 C84.225,835.275 119.05,1006.95 155.275,1103.375 C206.025,1238.3 291.425,1373.75 326.25,1426.25 L331.15,1426.25 C297.55,1375.325 210.575,1238.3 159.125,1101.8 Z" id="Path" fill="url(#linearGradient-24)"></path>
                <path d="M127.625,1092.525 C91.925,994.35 58.15,819.7 63.05,651 C66.2,540.925 85.8,448.525 120.975,376.6 C162.8,291.2 225.8,237.825 308.4,217.7 C435.275,186.9 573.875,234.5 707.925,280.7 C752.725,296.1 795.075,310.625 836.725,322.35 C877.325,333.9 920.025,343.175 961.325,343.175 C1021.7,343.175 1079.275,323.4 1123.2,261.45 C1172.725,191.975 1229.25,138.075 1291.375,101.15 C1341.25,71.75 1394.625,53.025 1450.275,45.675 C1519.575,36.575 1575.05,47.6 1600.25,54.25 L1600.25,50.225 C1574.35,43.4 1518.875,32.725 1449.925,41.825 C1393.75,49.175 1339.85,67.9 1289.625,97.65 C1226.975,134.75 1169.925,189 1120.05,259 C1088.375,303.45 1048.125,328.825 997.025,336.35 C954.325,342.65 903.75,337.05 837.775,318.325 C796.3,306.775 753.95,292.25 709.15,276.85 C574.575,230.475 435.45,182.7 307.525,213.85 C223.7,234.15 159.825,288.4 117.475,374.85 C81.95,447.3 62.35,540.05 59.2,650.825 C54.3,820.05 88.075,995.225 123.95,1093.75 C174,1231.825 260.1,1372.35 294.575,1426.075 L299.3,1426.075 C265.7,1374.275 178.2,1232 127.625,1092.525 Z" id="Path" fill="url(#linearGradient-25)"></path>
                <path d="M95.95,1083.25 C60.95,982.975 28.225,805 34,633.325 C38.025,520.275 58.5,426.3 94.55,353.85 C137.425,267.575 202,214.025 286.525,194.775 C415.5,165.55 555.15,215.25 690.25,263.375 C736.975,280 781.075,295.75 824.125,308 C865.6,319.9 909,329.525 951,329.525 C1012.25,329.525 1070.525,309.05 1114.625,245.35 C1164.5,173.425 1221.725,117.95 1284.9,80.5 C1335.475,50.575 1389.725,32.025 1446.6,25.55 C1517.65,17.325 1574.7,29.925 1600.25,37.45 L1600.25,33.6 C1573.825,26.075 1516.775,13.65 1446.25,21.875 C1389.025,28.525 1334.075,47.25 1283.15,77.35 C1219.45,114.975 1161.7,170.8 1111.65,243.25 C1079.8,289.275 1039.025,315.35 987.05,323.225 C943.825,329.7 892.375,323.75 825.175,304.5 C782.3,292.25 738.2,276.5 691.475,259.875 C555.85,211.575 415.675,161.525 285.65,191.1 C200.075,210.7 134.625,264.95 91.225,352.1 C54.825,425.075 34.35,519.75 30.325,633.15 C24.55,805.35 57.275,984.025 92.45,1084.475 C141.625,1225.525 228.6,1371.3 262.9,1426.075 L267.275,1426.075 C234.025,1373.05 145.65,1225.7 95.95,1083.25 Z" id="Path" fill="url(#linearGradient-26)"></path>
                <path d="M264.3,171.675 C395.55,143.675 536.425,195.825 672.575,246.05 C761.3,278.775 845.125,309.75 919.325,315.175 C926.85,315.7 934.375,316.05 941.55,316.05 C1013.65,316.05 1066.15,288.225 1105.875,229.425 C1156.1,155.05 1214.025,98.175 1278.25,60.2 C1329.525,29.75 1385,11.375 1442.75,5.6 C1515.55,-1.75 1574.175,12.6 1600.25,20.825 L1600.25,17.15 C1573.3,8.75 1514.85,-5.25 1442.575,2.1 C1384.125,8.05 1328.3,26.6 1276.5,57.225 C1211.925,95.55 1153.475,152.775 1102.9,227.675 C1060.025,291.2 1001.75,317.975 919.5,311.85 C845.825,306.425 762.175,275.625 673.625,242.9 C536.95,192.5 395.55,140.175 263.425,168.35 C182.05,185.675 118.35,233.8 73.9,311.5 C6,431.025 -3.1,596.75 1.45,714.875 C7.225,867.125 37.15,1004.15 61.125,1075.2 C109.6,1219.4 197.275,1370.25 231.225,1426.075 L235.25,1426.075 C202.175,1371.825 113.275,1219.4 64.275,1073.975 C40.475,1003.1 10.55,866.425 4.775,714.525 C0.4,596.925 9.325,431.725 77.05,312.9 C120.975,236.25 183.975,188.65 264.3,171.675 Z" id="Path" fill="url(#linearGradient-27)"></path>
            </g>
        </g>
    </g>
</svg>