<?xml version="1.0" encoding="UTF-8"?>
<svg width="448px" height="415px" viewBox="0 0 448 415" version="1.1" xmlns="http://www.w3.org/2000/svg" xmlns:xlink="http://www.w3.org/1999/xlink">
    <!-- Generator: Sketch 63.1 (92452) - https://sketch.com -->
    <title>control_accesos_afluencias_festivales_eventos_deportivos</title>
    <desc>Created with Sketch.</desc>
    <defs>
        <polygon id="path-1" points="0.250169492 2.45563569e-12 108.250169 2.45563569e-12 108.250169 75.6 0.250169492 75.6"></polygon>
    </defs>
    <g id="Soluciones-Gofun" stroke="none" stroke-width="1" fill="none" fill-rule="evenodd">
        <g id="Solucion---Gofun-festivales-de-musica" transform="translate(-768.000000, -1857.000000)">
            <g id="control_accesos_afluencias_festivales_eventos_deportivos" transform="translate(733.000000, 1761.000000)">
                <g id="Group-89-Copy-2" transform="translate(207.500000, 167.500000) rotate(-270.000000) translate(-207.500000, -167.500000) translate(40.000000, -40.000000)">
                    <g id="Group-60" transform="translate(167.331429, 207.472215) rotate(21.000000) translate(-167.331429, -207.472215) translate(56.831429, 28.472215)">
                        <path d="M167.330525,198.256611 L170.078985,197.25423 C181.236148,193.187516 189.727015,183.949361 192.850219,172.477674 L205.927196,124.444687 C206.827986,121.134524 206.682697,117.626694 205.51137,114.402822 L185.950513,60.584324 C181.300276,47.7911804 167.175217,41.1949352 154.399839,45.8516394 L153.84173,46.0553264 L142.052311,13.6189377 C138.355968,3.44863934 127.126662,-1.79504448 116.970487,1.90643842 L116.970487,1.90643842 C106.814312,5.60792132 101.57791,16.8528438 105.274253,27.0231421 L103.627982,22.494871 C99.9316396,12.3245726 88.702333,7.08088876 78.5461581,10.7823717 L78.5461581,10.7823717 C68.3899832,14.4838546 63.1535813,25.728777 66.8509259,35.8990754 L71.4590799,48.5778333 C67.7627372,38.4075349 56.5334306,33.1638511 46.3772557,36.865334 L46.3772557,36.865334 C36.2210808,40.5668169 30.9846789,51.8117393 34.6810215,61.9820377 L38.6308678,72.8496878 C34.9345251,62.6793894 23.7052185,57.4357056 13.5490436,61.1371885 L13.5490436,61.1371885 C3.3928687,64.8386714 -1.84353323,76.0835939 1.85280942,86.2538922 L4.05017441,92.2992797 L51.990406,224.192076 C54.8450767,232.045561 63.5163018,236.094215 71.3588808,233.236577 C74.3167565,232.15794 77.5872533,233.686093 78.664393,236.648082 L122.451374,357.11936 L213.06738,324.091979 L167.330525,198.256611 Z" id="Path" fill="#FFB9B9" fill-rule="nonzero"></path>
                        <g id="Group-38-Copy-7" transform="translate(146.324311, 271.491621) rotate(-381.000000) translate(-146.324311, -271.491621) translate(81.324311, 232.991621)">
                            <g id="Group-44-Copy" transform="translate(65.300000, 38.400000) rotate(-180.000000) translate(-65.300000, -38.400000) translate(0.800000, 0.400000)">
                                <g id="Group-3" transform="translate(12.949831, -0.000000)">
                                    <mask id="mask-2" fill="white">
                                        <use xlink:href="#path-1"></use>
                                    </mask>
                                    <g id="Clip-2"></g>
                                    <path d="M103.776797,2.45563569e-12 C106.247377,2.45563569e-12 108.250169,2.98540126 108.250169,6.6680947 L108.250169,68.9319053 C108.250169,72.6145987 106.247377,75.6 103.776797,75.6 L4.72354227,75.6 C2.25296239,75.6 0.250169492,72.6145987 0.250169492,68.9319053 L0.250169492,6.6680947 C0.250169492,2.98540126 2.25296239,2.45563569e-12 4.72354227,2.45563569e-12 L103.776797,2.45563569e-12 Z M98.0253174,18.0991142 L95.4691044,18.0991142 C94.7955423,18.0991142 94.2434003,18.8764235 94.1941932,19.862349 L94.1909979,20.0042841 L94.1909979,56.5483008 C94.1909979,57.5523254 94.7124653,58.3753588 95.3738855,58.4477553 L95.4691044,58.4534708 L98.0253174,58.4534708 C98.6988796,58.4534708 99.2510216,57.6761614 99.3002287,56.690236 L99.3034239,56.5483008 L99.3034239,20.0042841 C99.3034239,19.0002596 98.7819565,18.1772262 98.1205364,18.1038771 L98.0253174,18.0991142 Z M13.0312346,18.0991142 L10.4750216,18.0991142 C9.80145943,18.0991142 9.24931742,18.8764235 9.20011032,19.862349 L9.19691505,20.0042841 L9.19691505,56.5483008 C9.19691505,57.5523254 9.71838251,58.3753588 10.3798026,58.4477553 L10.4750216,58.4534708 L13.0312346,58.4534708 C13.7047967,58.4534708 14.2569387,57.6761614 14.3061458,56.690236 L14.3093411,56.5483008 L14.3093411,20.0042841 C14.3093411,19.0002596 13.7878736,18.1772262 13.1264535,18.1038771 L13.0312346,18.0991142 Z" id="Fill-1" fill="#E0E4EC" mask="url(#mask-2)"></path>
                                </g>
                                <polygon id="Rectangle" fill="#7E8FA4" points="0.571883519 23.169796 24 20.4701538 24 54.8972308 0.571883519 53.2994122"></polygon>
                                <polygon id="Rectangle-Copy-54" fill="#7E8FA4" points="109.622034 20.4701538 128.494902 22.2882832 128.494902 52.4831682 109.622034 54.8972308"></polygon>
                            </g>
                            <g id="Group-Copy" transform="translate(63.800000, 38.000000) rotate(-360.000000) translate(-63.800000, -38.000000) translate(51.800000, 26.000000)" fill="#241DBA">
                                <path d="M15.5487488,3.84799348 C16.0672485,4.09223963 16.5648128,4.39021994 17.026787,4.73216455 C17.3736165,4.98897194 17.7043956,5.27439102 18.01075,5.58004763 C18.2075426,5.7761424 18.3959611,5.98270486 18.5725162,6.19554794 C18.8704965,6.55493871 19.2996719,6.74056578 19.7323365,6.74056578 C20.0714897,6.74056578 20.4120386,6.62681686 20.6932706,6.39373625 C21.3331956,5.86267532 21.421822,4.91290671 20.891459,4.27298178 C20.6548891,3.98756271 20.401571,3.70981994 20.138483,3.44742978 C19.7281494,3.03779409 19.2843193,2.65607225 18.8188559,2.31133625 C18.1984706,1.85215348 17.5306319,1.45228763 16.8341814,1.12360209 C16.0819033,0.7683984 15.1844731,1.09080332 14.8292694,1.84308148 C14.4747636,2.59535963 14.7964706,3.49278978 15.5487488,3.84799348" id="Fill-1"></path>
                                <path d="M11.8023617,14.65128 C10.23151,14.65128 8.95375372,13.3735237 8.95375372,11.802672 C8.95375372,10.2318203 10.23151,8.954064 11.8023617,8.954064 C13.3732134,8.954064 14.6509697,10.2318203 14.6509697,11.802672 C14.6509697,13.3735237 13.3732134,14.65128 11.8023617,14.65128 M22.0914054,10.2946265 L20.4842657,10.2946265 L20.4849636,10.29672 L17.4660811,10.29672 C16.799638,7.792848 14.513494,5.94146215 11.8023617,5.94146215 C8.57063618,5.94146215 5.94115187,8.57094646 5.94115187,11.802672 C5.94115187,15.0343975 8.57063618,17.663184 11.8023617,17.663184 C14.513494,17.663184 16.799638,15.8131938 17.4660811,13.308624 L20.4612368,13.308624 C19.7215199,17.5731618 15.9008122,20.7944197 11.3822583,20.5829723 C6.81415741,20.3694314 3.13650818,16.6115298 3.01508295,12.0399397 C2.88458572,7.09918892 6.85393464,3.03493292 11.7611888,3.01260185 C12.5804602,3.00841477 13.2838891,2.37128123 13.3076159,1.55200985 C13.3327383,0.699241846 12.649547,1.46688815e-13 11.8023617,1.46688815e-13 C5.08140541,1.46688815e-13 -0.345046279,5.64627323 0.0171358746,12.4446905 C0.335353721,18.4280234 5.17631249,23.2689822 11.1596454,23.5878978 C17.9580626,23.95008 23.6050337,18.5236283 23.6050337,11.802672 L23.6050337,11.7873194 C23.603638,10.9596738 22.919051,10.2946265 22.0914054,10.2946265" id="Fill-3"></path>
                            </g>
                        </g>
                    </g>
                </g>
                <g id="Group-26" transform="translate(273.000000, 159.000000)">
                    <g id="Group-8">
                        <rect id="Rectangle" fill="#C5CFDE" x="0" y="0" width="210" height="351.6" rx="14.4"></rect>
                        <line x1="2.4" y1="34.8" x2="34.8" y2="2.4" id="Line-7" stroke="#3F3D56" stroke-width="2.4" stroke-linecap="square"></line>
                        <line x1="7.2" y1="22.8" x2="22.8" y2="7.2" id="Line-7-Copy" stroke="#16BE5A" stroke-width="3.6" stroke-linecap="round"></line>
                        <rect id="Rectangle" fill="#FFFFFF" x="20.4" y="46.8" width="169.2" height="252"></rect>
                        <rect id="Rectangle" stroke="#3F3D56" stroke-width="4.8" x="2.4" y="2.4" width="205.2" height="346.8" rx="14.4"></rect>
                        <polyline id="Path-3" stroke="#FFFFFF" stroke-width="1.8" stroke-linejoin="round" points="68.7237331 315.875969 80.9746622 315.875969 76.5080622 321.497597 80.9746622 327.151651 68.7237331 327.151651"></polyline>
                        <path d="M65.8144094,315.875969 L61.9725705,319.844502 C61.0717142,320.775066 61.0717142,322.252555 61.9725705,323.183119 L65.8144094,327.151651 L65.8144094,327.151651" id="Path-6" stroke="#FFFFFF" stroke-width="1.8"></path>
                        <polyline id="Path-7" stroke="#FFFFFF" stroke-width="1.8" points="131.467555 321.270793 131.467555 319.933979 142.353861 313.77372 152.37342 319.933979 152.37342 321.270793"></polyline>
                        <polyline id="Path-10" stroke="#FFFFFF" stroke-width="1.8" points="131.467555 324.019447 131.467555 327.160414 152.37342 327.160414 152.37342 324.019447"></polyline>
                    </g>
                    <path d="M94.7548659,184.487032 C93.0102314,185.711231 92.710209,187.9622 94.0848426,189.515686 C95.4602806,191.069172 97.989156,191.337213 99.7329862,190.112294 C100.091726,189.860825 108.59692,184.022283 115.852958,190.039519 C116.627547,190.682242 117.611267,191 118.593378,191 C119.670402,191 120.744209,190.616672 121.536493,189.859384 C123.051084,188.412538 122.960192,186.146437 121.334602,184.799026 C111.539231,176.674929 99.6646165,181.042847 94.7548659,184.487032 M143.63198,164.783845 C124.589805,149.890988 106.140436,150.682863 94.0140598,153.968528 C81.046334,157.484047 72.6191622,164.454558 72.266857,164.74998 C70.6485054,166.104596 70.5704835,168.370697 72.0915088,169.811779 C73.6125341,171.25214 76.1583009,171.322032 77.7766525,169.967415 C77.8490439,169.906169 85.1678218,163.852907 96.3563262,160.81943 C111.149926,156.811062 125.267872,159.95334 138.324076,170.164123 C139.088208,170.761451 140.034123,171.054711 140.976821,171.054711 C142.093259,171.054711 143.20487,170.642562 143.999567,169.836998 C145.465897,168.351242 145.301005,166.088745 143.63198,164.783845 M132.231127,174.55726 C133.864761,175.896745 133.970131,178.161405 132.466802,179.616897 C131.673713,180.384273 130.591862,180.772645 129.50599,180.772645 C128.532727,180.772645 127.556247,180.45993 126.783267,179.826575 C108.923486,165.190951 89.7413542,179.088741 88.9329828,179.68679 C87.2301745,180.949898 84.6948642,180.750308 83.2719696,179.236452 C81.849075,177.723316 82.0654451,175.473067 83.7618186,174.202033 C92.4391431,167.698433 113.736714,159.403567 132.231127,174.55726" id="wifi" fill="#241DBA" transform="translate(108.000000, 171.500000) rotate(-90.000000) translate(-108.000000, -171.500000) "></path>
                </g>
            </g>
        </g>
    </g>
</svg>