<?xml version="1.0" encoding="UTF-8"?>
<svg width="947px" height="664px" viewBox="0 0 947 664" version="1.1" xmlns="http://www.w3.org/2000/svg" xmlns:xlink="http://www.w3.org/1999/xlink">
    <!-- Generator: Sketch 63.1 (92452) - https://sketch.com -->
    <title>Group 15</title>
    <desc>Created with Sketch.</desc>
    <defs>
        <circle id="path-1" cx="48.2625" cy="48.5887917" r="48.2625"></circle>
        <polygon id="path-3" points="0.101166514 9.89446516e-13 43.7754908 9.89446516e-13 43.7754908 30.4614226 0.101166514 30.4614226"></polygon>
        <circle id="path-5" cx="48.2625" cy="48.5887917" r="48.2625"></circle>
        <polygon id="path-7" points="0.101166514 9.89446516e-13 43.7754908 9.89446516e-13 43.7754908 30.4614226 0.101166514 30.4614226"></polygon>
        <polygon id="path-9" points="0 5.5062e-05 92.50416 5.5062e-05 92.50416 186.10956 0 186.10956"></polygon>
        <polygon id="path-11" points="0 5.5062e-05 92.50416 5.5062e-05 92.50416 186.10956 0 186.10956"></polygon>
        <rect id="path-13" x="0.36" y="0.161973402" width="97.2" height="112.8"></rect>
    </defs>
    <g id="Soluciones-Gofun" stroke="none" stroke-width="1" fill="none" fill-rule="evenodd">
        <g id="Solucion---Gofun-festivales-de-musica" transform="translate(-230.000000, -4309.000000)">
            <g id="Group-15" transform="translate(230.000000, 4310.000000)">
                <g id="Group-10" transform="translate(132.000000, 105.000000)" stroke-linecap="round">
                    <g id="Group-115-Copy-3" opacity="0.23" stroke="#241DBA" stroke-width="102">
                        <path d="M0.84,337.400811 C0.84,276.985814 0.84,243.565339 0.84,237.139386" id="Path"></path>
                        <path d="M247.884,236.232 C247.884,244.39247 247.884,278.115408 247.884,337.400811 C247.884,426.328917 317.64765,463.488 371.304,463.488 C424.96035,463.488 494.724,428.023308 494.724,337.400811 C494.724,276.985814 494.724,243.565339 494.724,237.139386" id="Path-21-Copy-2"></path>
                        <path d="M1.044,10.322677 C1.044,18.4831474 1.044,52.2060845 1.044,111.491488 C1.044,200.419594 70.8076499,238.476 124.464,238.476 C178.12035,238.476 247.884,202.113985 247.884,111.491488 C247.884,51.0764908 247.884,17.6560157 247.884,11.2300632" id="Path-21-Copy" transform="translate(124.464000, 124.399338) scale(1, -1) translate(-124.464000, -124.399338) "></path>
                        <path d="M494.928,0.162272727 C494.928,8.32274308 494.928,42.0456802 494.928,101.331084 C494.928,190.25919 564.69165,238.476 618.348,238.476 C672.00435,238.476 741.768,191.953581 741.768,101.331084 C741.768,40.9160866 741.768,7.49561147 741.768,1.06965894" id="Path" transform="translate(618.348000, 119.319136) scale(1, -1) translate(-618.348000, -119.319136) "></path>
                    </g>
                    <g id="Group-115-Copy-3" opacity="0.562104725" stroke="#FFFFFF" stroke-width="0.5">
                        <path d="M0.84,337.400811 C0.84,276.985814 0.84,243.565339 0.84,237.139386" id="Path"></path>
                        <path d="M247.884,236.232 C247.884,244.39247 247.884,278.115408 247.884,337.400811 C247.884,426.328917 317.64765,463.488 371.304,463.488 C424.96035,463.488 494.724,428.023308 494.724,337.400811 C494.724,276.985814 494.724,243.565339 494.724,237.139386" id="Path-21-Copy-2"></path>
                        <path d="M1.044,10.322677 C1.044,18.4831474 1.044,52.2060845 1.044,111.491488 C1.044,200.419594 70.8076499,238.476 124.464,238.476 C178.12035,238.476 247.884,202.113985 247.884,111.491488 C247.884,51.0764908 247.884,17.6560157 247.884,11.2300632" id="Path-21-Copy" transform="translate(124.464000, 124.399338) scale(1, -1) translate(-124.464000, -124.399338) "></path>
                        <path d="M494.928,0.162272727 C494.928,8.32274308 494.928,42.0456802 494.928,101.331084 C494.928,190.25919 564.69165,238.476 618.348,238.476 C672.00435,238.476 741.768,191.953581 741.768,101.331084 C741.768,40.9160866 741.768,7.49561147 741.768,1.06965894" id="Path" transform="translate(618.348000, 119.319136) scale(1, -1) translate(-618.348000, -119.319136) "></path>
                    </g>
                </g>
                <g id="Group-38" transform="translate(132.000000, 0.000000)">
                    <text id="2-copy-3" font-family="Gilroy-ExtraBold, Gilroy" font-size="30.6" font-weight="600" line-spacing="14.28" letter-spacing="0.218571416" fill="#FFFFFF">
                        <tspan x="0.12" y="294.46">2</tspan>
                    </text>
                    <path d="M107.00476,228.879803 C95.998593,228.879803 87.076332,219.957542 87.076332,208.951375 C87.076332,197.945208 95.998593,189.022947 107.00476,189.022947 C118.010926,189.022947 126.933187,197.945208 126.933187,208.951375 C126.920728,219.952377 118.005762,228.867344 107.00476,228.879803 L107.00476,228.879803 Z M107.00476,189.28345 C96.1424647,189.28345 87.3368347,198.08908 87.3368347,208.951375 C87.3368347,219.81367 96.1424647,228.6193 107.00476,228.6193 C117.867055,228.6193 126.672685,219.81367 126.672685,208.951375 C126.660409,198.094169 117.861966,189.295725 107.00476,189.28345 Z" id="Shape" fill="#F2F2F2" fill-rule="nonzero"></path>
                    <path d="M148.077491,66.2593202 L148.077491,144.78432 L47.925,144.78432 L47.925,66.2593202 L148.077491,66.2593202 Z M97.8356925,97.2000039 L97.4654743,97.2030032 C85.2719555,97.4007025 75.4481925,107.346872 75.4481925,119.587504 L75.4481925,119.587504 L75.4491925,119.699004 L75.4481925,119.700004 L75.4481925,144.675004 L120.223193,144.675004 L120.223193,119.700004 C120.223101,119.662336 120.223193,119.624931 120.223193,119.587504 C120.223193,107.223229 110.199967,97.2000039 97.8356925,97.2000039 L97.8356925,97.2000039 Z" id="Combined-Shape" fill="#C5CFDE" fill-rule="nonzero"></path>
                    <g id="Group-39" transform="translate(79.650000, 97.875004)" fill-rule="nonzero">
                        <path d="M28.0321412,23.27454 L27.8523212,23.30937 L19.7231612,24.87105 C17.3620112,25.32465 14.9668412,25.78068 12.5684312,25.60653 C10.8309812,25.48017 9.20774116,24.96501 7.53833116,24.51303 C6.59468116,24.25707 5.59433116,24.15501 5.27438116,23.09877 C4.83293116,21.64077 5.55140116,19.48212 5.72069116,18.00468 C5.88269116,16.55478 5.97827116,15.06843 5.68991116,13.63554 C5.62585167,13.3135379 5.54144238,12.9959209 5.43719116,12.6846 C5.14802116,11.82681 4.69361116,10.935 4.93904116,10.06425 C5.13263116,9.37332 5.72312116,8.88003 6.27554116,8.42319 C7.35770116,7.53219 8.46254116,6.53346 8.89184116,5.19777 C9.10244116,4.54977 9.14213116,3.85236 9.36893116,3.20922 C9.79904116,1.98612 10.8795812,1.07163 12.0816212,0.58725 C13.2836612,0.10287 14.6055812,2.30215846e-15 15.9023912,2.30215846e-15 C17.047459,2.30215846e-15 18.191261,0.0761006914 19.3262612,0.22761 C20.5639412,0.38961 21.8129612,0.6561 22.9007912,1.27008 C23.9886212,1.88406 24.9055412,2.89008 25.1590712,4.11642 C25.5179012,5.85063 24.5216012,7.69743 25.0562012,9.38142 C25.3251212,10.23273 25.9472012,10.92042 26.3789312,11.69964 C27.0901933,13.0166054 27.2363525,14.5658932 26.7839312,15.99264 C26.2671512,17.59401 25.0019312,19.21401 25.6499312,20.76678 C26.0622212,21.75417 27.1152212,22.28148 27.8490812,23.06394 C27.9144212,23.13414 27.9754412,23.20434 28.0321412,23.27454 Z" id="Path" fill="#454B69"></path>
                        <path d="M27.8523212,23.07042 L27.8523212,23.30937 L19.7231612,24.87105 C17.3620112,25.32465 14.9668412,25.78068 12.5684312,25.60653 C10.8309812,25.48017 9.20774116,24.96501 7.53833116,24.51303 C6.59468116,24.25707 5.59433116,24.15501 5.27438116,23.09877 C4.83293116,21.64077 5.55140116,19.48212 5.72069116,18.00468 C5.88269116,16.55478 8.37668116,11.26143 8.08832116,9.82854 L22.9923212,10.47654 C23.0927612,11.26791 27.0317912,15.24015 26.7863612,15.99912 C26.2695812,17.60049 25.0043612,19.22049 25.6523612,20.77326 C26.0654612,21.76065 27.1184612,22.28796 27.8523212,23.07042 Z" id="Path" fill="#000000" opacity="0.1"></path>
                        <path d="M12.6243212,19.06254 C12.7126112,19.56393 12.7595912,20.11554 12.5036312,20.55294 C12.1626212,21.13938 11.4190412,21.32649 10.7540312,21.45933 L8.44553116,21.92103 C8.28839116,21.95262 8.12153116,21.98826 8.00408116,22.09599 C7.86557116,22.21992 7.81859116,22.41594 7.79834116,22.60062 C7.70519116,23.43654 8.00084116,24.26031 8.27057116,25.05654 C8.81570116,26.66925 9.27335116,28.31598 9.96266116,29.87199 C10.6519712,31.428 11.5980512,32.91354 12.9483212,33.95358 C14.2985912,34.99362 16.0854512,35.54766 17.7386612,35.14104 C19.1788412,34.78707 20.3598212,33.77052 21.3779912,32.69241 C22.2179612,31.80141 23.0036612,30.82941 23.4110912,29.67354 C23.6921612,28.87974 23.7836912,28.0341 23.8719812,27.19656 C24.0086012,25.91244 24.1452212,24.62832 24.2818412,23.3442 C24.3458312,22.74156 24.3879512,22.06359 23.9967212,21.60108 C23.8250012,21.39777 23.5917212,21.2625 23.3535812,21.13695 C22.4674412,20.66634 21.5343212,20.27754 20.7097412,19.71054 C19.8851612,19.14354 19.1537312,18.3627 18.9034412,17.39394 C18.7535912,16.81236 18.7803212,16.17894 18.5251712,15.63705 C18.2400512,15.02955 17.6341712,14.61807 16.9861712,14.43744 C16.3381712,14.25681 15.6545312,14.28111 14.9870912,14.35644 C14.3196512,14.43177 11.7470912,14.62455 11.4708812,15.37704 C11.3226512,15.78204 11.9374412,16.65117 12.0832412,17.04969 C12.3232376,17.7031708 12.5043186,18.3768033 12.6243212,19.06254 Z" id="Path" fill="#EFB7B9"></path>
                        <path d="M12.6243212,19.06254 C12.7126112,19.56393 12.7595912,20.11554 12.5036312,20.55294 C12.1626212,21.13938 11.4190412,21.32649 10.7540312,21.45933 L8.44553116,21.92103 C8.28839116,21.95262 8.12153116,21.98826 8.00408116,22.09599 C7.86557116,22.21992 7.81859116,22.41594 7.79834116,22.60062 C7.70519116,23.43654 8.00084116,24.26031 8.27057116,25.05654 C8.81570116,26.66925 9.27335116,28.31598 9.96266116,29.87199 C10.6519712,31.428 11.5980512,32.91354 12.9483212,33.95358 C14.2985912,34.99362 16.0854512,35.54766 17.7386612,35.14104 C19.1788412,34.78707 20.3598212,33.77052 21.3779912,32.69241 C22.2179612,31.80141 23.0036612,30.82941 23.4110912,29.67354 C23.6921612,28.87974 23.7836912,28.0341 23.8719812,27.19656 C24.0086012,25.91244 24.1452212,24.62832 24.2818412,23.3442 C24.3458312,22.74156 24.3879512,22.06359 23.9967212,21.60108 C23.8250012,21.39777 23.5917212,21.2625 23.3535812,21.13695 C22.4674412,20.66634 21.5343212,20.27754 20.7097412,19.71054 C19.8851612,19.14354 19.1537312,18.3627 18.9034412,17.39394 C18.7535912,16.81236 18.7803212,16.17894 18.5251712,15.63705 C18.2400512,15.02955 17.6341712,14.61807 16.9861712,14.43744 C16.3381712,14.25681 15.6545312,14.28111 14.9870912,14.35644 C14.3196512,14.43177 11.7470912,14.62455 11.4708812,15.37704 C11.3226512,15.78204 11.9374412,16.65117 12.0832412,17.04969 C12.3232376,17.7031708 12.5043186,18.3768033 12.6243212,19.06254 Z" id="Path" fill="#000000" opacity="0.1"></path>
                        <path d="M18.1801112,27.87048 L19.5336212,25.0047 C20.1678512,23.66172 20.8158512,22.2507 20.7486212,20.76759 C20.7356612,20.47275 20.7324212,20.1042 20.9916212,19.97055 C21.1041453,19.9245952 21.226754,19.908955 21.3472112,19.92519 C22.7721428,19.9980523 24.1783058,20.2825061 25.5195212,20.76921 C25.7795312,20.86317 26.0460212,20.97171 26.2282712,21.17907 C26.4105212,21.38643 26.4842312,21.66507 26.5466012,21.93237 C26.759058,22.8361478 26.9140781,23.7524709 27.0107312,24.67584 C27.2537312,26.96166 27.1330412,29.26773 27.0107312,31.56084 L26.6510912,38.56167 C26.6530323,38.6609877 26.6328335,38.7594914 26.5919612,38.85003 C26.5028612,39.01203 26.3019812,39.0663 26.1213512,39.09708 C25.4255612,39.21615 24.7143812,39.19185 24.0096812,39.16512 C19.0524812,38.9772 14.0693612,38.68884 9.14456116,39.28986 C9.16670116,38.5614 9.15509116,37.8324 9.10973116,37.10286 C8.91452116,33.95277 8.09804116,30.87963 7.29614116,27.82755 C6.82877116,26.04555 6.37598116,24.10155 7.12847116,22.42242 C7.23912608,22.1572469 7.39816361,21.9149825 7.59746116,21.708 C7.91741116,21.39453 8.35400116,21.22929 8.78654116,21.11103 C9.53264462,20.9080751 10.3054449,20.8206605 11.0780312,20.85183 L16.1850812,31.9707 C16.4183612,32.47938 16.6103312,33.01479 16.8428012,33.51699 C17.0517812,32.64948 16.8006812,31.63293 17.0517812,30.69252 C17.3223212,29.71647 17.7483812,28.78254 18.1801112,27.87048 Z" id="Path" fill="#FFFFFF"></path>
                        <path d="M17.6463212,35.52093 C18.5600012,35.57844 19.4477612,35.11026 20.0763212,34.44849 C20.7048812,33.78672 21.1196012,32.94756 21.4703312,32.09949 C21.9745283,30.8906256 22.3752944,29.6411783 22.6683212,28.36458 C22.9113212,27.27918 23.0838512,26.15571 22.9161812,25.05573 C22.6845212,23.53698 21.8251112,22.15674 21.6785012,20.62746 C21.6533912,20.36016 21.6695912,20.0475 21.8842412,19.88631 C22.0170812,19.78668 22.1920412,19.77291 22.3572812,19.76319 C23.8849412,19.67247 25.5632612,19.68948 26.7466712,20.65905 C27.1071212,20.95389 27.3995312,21.32244 27.7518812,21.62619 C28.5910412,22.35519 29.7768812,22.72617 30.3155312,23.69412 C30.5034512,24.03108 30.5933612,24.41259 30.7245812,24.77547 C31.0340012,25.63407 31.5694112,26.38899 32.1015812,27.13176 C31.5856112,29.30904 30.9926912,31.48794 30.4767212,33.66522 C30.1745912,34.94259 29.8700312,36.22482 29.3953712,37.44792 C29.0843312,38.24982 28.6931012,39.06792 28.7886812,39.92652 C28.8267512,40.26429 28.9393412,40.58748 29.0373512,40.9131 C29.3809229,42.0559838 29.5419344,43.2459378 29.5144412,44.43903 L6.40190116,44.49573 C7.50917116,42.90813 7.83398116,40.96089 7.72139116,39.02904 C7.66712116,38.10321 7.45814116,37.17171 6.99239116,36.37062 C6.25853116,35.11512 4.96739116,34.29702 3.69488116,33.59637 C2.80388116,33.11037 1.84727116,35.84493 0.884181161,35.53146 C1.03970116,34.43148 1.11098116,30.18546 1.04618116,29.07819 C1.02512116,28.71531 0.992721161,28.34271 1.10450116,27.99603 C1.18064116,27.7587 1.32077116,27.54648 1.41554116,27.31563 C1.79543116,26.39142 1.43336116,25.20963 2.04734116,24.42312 C2.47178116,23.87637 3.21617116,23.72085 3.82124116,23.38389 C4.44251116,23.03721 4.92284116,22.49289 5.46392116,22.02795 C6.52561667,21.1264307 7.82290288,20.5472047 9.20288116,20.35854 C9.60544926,20.9935129 9.85013973,21.7156414 9.91649116,22.46454 C9.95780116,22.93515 9.92783116,23.41224 9.99344116,23.88042 C10.0833512,24.51465 10.3457912,25.11 10.6058012,25.69644 C11.6887712,28.14183 12.7757912,30.59451 14.1479312,32.89086 C14.5359212,33.53886 14.9579312,34.18686 15.5200712,34.69149 C16.0822112,35.19612 16.8914012,35.55657 17.6463212,35.52093 Z" id="Path" fill="#241DBA"></path>
                        <path d="M17.6463212,35.52093 C18.5600012,35.57844 19.4477612,35.11026 20.0763212,34.44849 C20.7048812,33.78672 21.1196012,32.94756 21.4703312,32.09949 C21.9745283,30.8906256 22.3752944,29.6411783 22.6683212,28.36458 C22.9113212,27.27918 23.0838512,26.15571 22.9161812,25.05573 C22.6845212,23.53698 21.8251112,22.15674 21.6785012,20.62746 C21.6533912,20.36016 21.6695912,20.0475 21.8842412,19.88631 C22.0170812,19.78668 22.1920412,19.77291 22.3572812,19.76319 C23.8849412,19.67247 25.5632612,19.68948 26.7466712,20.65905 C27.1071212,20.95389 27.3995312,21.32244 27.7518812,21.62619 C28.5910412,22.35519 29.7768812,22.72617 30.3155312,23.69412 C30.5034512,24.03108 30.5933612,24.41259 30.7245812,24.77547 C31.0340012,25.63407 31.5694112,26.38899 32.1015812,27.13176 C31.5856112,29.30904 30.9926912,31.48794 30.4767212,33.66522 C30.1745912,34.94259 29.8700312,36.22482 29.3953712,37.44792 C29.0843312,38.24982 28.6931012,39.06792 28.7886812,39.92652 C28.8267512,40.26429 28.9393412,40.58748 29.0373512,40.9131 C29.3809229,42.0559838 29.5419344,43.2459378 29.5144412,44.43903 L6.40190116,44.49573 C7.50917116,42.90813 7.83398116,40.96089 7.72139116,39.02904 C7.66712116,38.10321 7.45814116,37.17171 6.99239116,36.37062 C6.25853116,35.11512 4.96739116,34.29702 3.69488116,33.59637 C2.80388116,33.11037 1.84727116,35.84493 0.884181161,35.53146 C1.03970116,34.43148 1.11098116,30.18546 1.04618116,29.07819 C1.02512116,28.71531 0.992721161,28.34271 1.10450116,27.99603 C1.18064116,27.7587 1.32077116,27.54648 1.41554116,27.31563 C1.79543116,26.39142 1.43336116,25.20963 2.04734116,24.42312 C2.47178116,23.87637 3.21617116,23.72085 3.82124116,23.38389 C4.44251116,23.03721 4.92284116,22.49289 5.46392116,22.02795 C6.52561667,21.1264307 7.82290288,20.5472047 9.20288116,20.35854 C9.60544926,20.9935129 9.85013973,21.7156414 9.91649116,22.46454 C9.95780116,22.93515 9.92783116,23.41224 9.99344116,23.88042 C10.0833512,24.51465 10.3457912,25.11 10.6058012,25.69644 C11.6887712,28.14183 12.7757912,30.59451 14.1479312,32.89086 C14.5359212,33.53886 14.9579312,34.18686 15.5200712,34.69149 C16.0822112,35.19612 16.8914012,35.55657 17.6463212,35.52093 Z" id="Path" fill="#000000" opacity="0.1"></path>
                        <circle id="Oval" fill="#EFB7B9" cx="16.4240312" cy="11.93535" r="6.94332"></circle>
                        <path d="M12.7806512,21.18798 C12.9710012,19.3914 12.2241812,17.6337 11.3785412,16.03719 C10.9735412,15.27417 10.5393812,14.51358 10.3360712,13.67523 C10.1327612,12.83688 10.1910812,11.88756 10.7111012,11.19825 C11.1533612,10.61181 11.8548212,10.2951 12.5036312,9.95085 C14.3350412,8.97885 16.0093112,7.55001 16.8144512,5.63922 C16.3592312,5.88708 16.4774912,6.62661 16.8792512,6.95304 C17.2810112,7.27947 17.8285712,7.34265 18.3226712,7.49817 C20.1241112,8.06517 21.2046512,9.86175 22.0713512,11.54007 C22.2131012,11.81385 22.3572812,12.10302 22.3556612,12.41163 C22.3540412,12.72024 22.2131012,12.99402 22.0656812,13.25646 C21.6380012,14.01786 21.1147412,14.74929 20.9203412,15.6006 C20.6975912,16.5726 20.9324912,17.59482 21.2378612,18.54819 C21.5618612,19.56231 21.9919712,20.58453 22.7695712,21.31191 C23.5471712,22.03929 24.7532612,22.40055 25.7098712,21.93075 C24.7548812,20.28888 23.7658712,18.45423 24.1384712,16.59285 C24.3182912,15.70185 24.8018612,14.89185 25.0076012,14.00571 C25.3996412,12.31524 24.7467812,10.57617 24.1060712,8.96265 L22.1912312,4.1472 C21.8988212,3.41091 21.5659112,2.62521 20.8952312,2.20806 C20.4416312,1.92699 19.8924512,1.85409 19.3610912,1.80306 C17.6503712,1.65078 15.8780912,1.701 14.2856312,2.33766 C11.3842112,3.49677 9.56495116,6.35445 8.12153116,9.12627 C7.68899116,9.95652 7.26212116,10.83861 7.27994116,11.77497 C7.28966116,12.28851 7.43303116,12.78828 7.54967116,13.28886 C8.02433116,15.32682 8.05025116,17.43849 8.07455116,19.53072 C8.09318116,21.13614 8.00975116,22.64922 7.30748116,24.11127 C8.26976116,24.30243 9.66539116,24.8184 10.6179512,24.44094 C11.8596812,23.95008 12.6243212,22.43781 12.7806512,21.18798 Z" id="Path" fill="#454B69"></path>
                        <g id="Group" opacity="0.1" transform="translate(7.197321, 5.475600)" fill="#000000">
                            <path d="M0.87318,14.0211 C0.87642,13.79268 0.87642,13.5621 0.87318,13.32936 C0.84888,11.23713 0.82296,9.12546 0.3483,7.0875 C0.242265373,6.69091283 0.159504213,6.28846641 0.10044,5.88222 C0.083784629,6.02170561 0.0764783195,6.16214911 0.07857,6.30261 C0.08829,6.81615 0.23166,7.31592 0.3483,7.8165 C0.82053,9.84231 0.84969,11.94102 0.87318,14.0211 Z" id="Path"></path>
                            <path d="M17.81028,8.53011 C17.9166134,8.05683159 17.9521001,7.57038982 17.91558,7.08669 C17.8996807,7.32726693 17.8644673,7.56617643 17.81028,7.80111 C17.60454,8.69211 17.12097,9.49482 16.94115,10.38825 C16.863658,10.7823145 16.8418454,11.1853035 16.87635,11.58543 C16.8892456,11.4282885 16.9108791,11.2719867 16.94115,11.11725 C17.12097,10.22382 17.60454,9.41787 17.81028,8.53011 Z" id="Path"></path>
                            <path d="M15.09516,6.56424 C15.1347071,6.44919021 15.1560245,6.32866498 15.15834,6.20703 C15.15834,5.89842 15.01578,5.60925 14.87403,5.33547 C14.00733,3.65715 12.93003,1.86219 11.12535,1.29357 C10.63125,1.13805 10.0845,1.07487 9.68193,0.74844 C9.47263834,0.568208433 9.34475715,0.311278176 9.32715,0.03564 C8.44911,1.64754 6.94089,2.88036 5.30631,3.74625 C4.65831,4.0905 3.95604,4.40721 3.51378,4.99365 C3.09825,5.54445 2.97756,6.2613 3.04965,6.95466 C3.09051077,6.50966856 3.25087435,6.0839914 3.51378,5.72265 C3.95604,5.13621 4.6575,4.8195 5.30631,4.47525 C6.94089,3.60936 8.44911,2.37654 9.32715,0.76464 C9.34475715,1.04027818 9.47263834,1.29720843 9.68193,1.47744 C10.08693,1.80144 10.63125,1.86705 11.12535,2.02257 C12.92679,2.58957 14.00733,4.38615 14.87403,6.06447 C14.9618944,6.22443078 15.0358755,6.39163366 15.09516,6.56424 Z" id="Path"></path>
                            <path d="M15.57225,15.10731 C14.79465,14.37831 14.36616,13.35771 14.04054,12.34359 C13.8451659,11.7739221 13.7147397,11.1840154 13.65174,10.58508 C13.57641,11.41695 13.78296,12.26826 14.04054,13.07259 C14.36454,14.08671 14.79465,15.10893 15.57225,15.83631 C16.34985,16.56369 17.55594,16.92495 18.51255,16.45515 C18.39753,16.25832 18.28332,16.05825 18.16992,15.85656 C17.28135,16.10685 16.26075,15.75045 15.57225,15.10731 Z" id="Path"></path>
                            <path d="M5.58333,14.98338 C5.427,16.23321 4.66236,17.74548 3.41739,18.23958 C2.55312,18.58221 1.32273,18.18855 0.38394,17.97066 C0.303150828,18.1980247 0.210687993,18.421071 0.10692,18.63891 C1.0692,18.83007 2.46483,19.34604 3.41739,18.96858 C4.66236,18.47448 5.427,16.96221 5.58333,15.71238 C5.61554564,15.3996883 5.62150649,15.0848471 5.60115,14.77116 C5.59629,14.84163 5.589,14.91291 5.58333,14.98338 Z" id="Path"></path>
                        </g>
                        <path d="M22.5954212,40.54212 C21.3439712,40.34367 20.0738912,39.96054 18.8329712,40.21812 C18.1136912,40.36716 17.4559712,40.72518 16.8581912,41.15772 C17.1870512,41.42097 17.5709912,41.65587 17.7799712,42.02199 C17.9096905,42.2753018 18.0071115,42.5438899 18.0699512,42.82146 C18.2011712,43.30746 18.3332012,43.80318 18.3534512,44.30862 C18.3737012,44.81406 18.2724512,45.34056 17.9711312,45.74799 C19.5490112,45.90351 21.0782912,45.51471 22.6172912,45.13482 C22.7932972,45.1039261 22.9608232,45.0363085 23.1089612,44.93637 C23.3519612,44.74521 23.4232412,44.40501 23.4248612,44.09478 C23.4248612,43.54074 23.2693412,43.00047 23.1113912,42.46911 C22.9234712,41.83164 22.7841512,41.17554 22.5954212,40.54212 Z" id="Path" fill="#FFFFFF"></path>
                        <path d="M31.0453412,26.87985 C31.6666112,26.96085 32.1485612,27.46224 32.5033412,27.9774 C33.4988312,29.4111 33.9281312,31.14936 34.4060312,32.82849 C35.0000312,34.91667 35.6985212,36.97191 36.5015012,38.99421 C36.6743832,39.4612463 36.8845821,39.9136074 37.1300612,40.34691 C37.3301312,40.68144 37.5731312,41.00301 37.6614212,41.3829 C37.8752612,42.30144 37.1179112,43.1649 36.3281612,43.67682 C35.9072205,43.9605763 35.4475327,44.1820994 34.9633112,44.33454 C34.4918912,44.47548 34.0002212,44.52894 33.5117912,44.5824 L29.0154812,45.0684 C26.9459312,45.29358 24.8577512,45.51876 22.7873912,45.30168 C22.6569812,44.84808 22.9129412,44.52732 22.8943112,44.05509 C22.8813512,43.71732 22.7323112,43.40304 22.5994712,43.092 C22.3545162,42.5380237 22.1926624,41.9509281 22.1191412,41.34969 C22.0956512,41.12856 22.0875512,40.90176 22.0033112,40.69602 C21.9190712,40.49028 21.7384412,40.3056 21.5173112,40.29102 C22.7323112,40.17033 23.6549012,39.9411 24.8699012,39.8196 C25.3210712,39.77424 25.7900612,39.72321 26.1748112,39.48345 C26.6519012,39.18618 26.9192012,38.64996 27.1314212,38.12994 C27.6571112,36.84204 27.9956912,35.42292 27.7194812,34.05888 C27.4926812,32.94027 26.8600712,31.89861 26.8633112,30.75732 C26.8633112,30.07773 27.0949712,29.4192 27.3687512,28.79712 C27.6587312,28.1394 28.0370012,27.4671 28.6736612,27.13338 C29.3103212,26.79966 30.3268712,26.78265 31.0453412,26.87985 Z" id="Path" fill="#241DBA"></path>
                        <path d="M31.0453412,26.87985 C31.6666112,26.96085 32.1485612,27.46224 32.5033412,27.9774 C33.4988312,29.4111 33.9281312,31.14936 34.4060312,32.82849 C35.0000312,34.91667 35.6985212,36.97191 36.5015012,38.99421 C36.6743832,39.4612463 36.8845821,39.9136074 37.1300612,40.34691 C37.3301312,40.68144 37.5731312,41.00301 37.6614212,41.3829 C37.8752612,42.30144 37.1179112,43.1649 36.3281612,43.67682 C35.9072205,43.9605763 35.4475327,44.1820994 34.9633112,44.33454 C34.4918912,44.47548 34.0002212,44.52894 33.5117912,44.5824 L29.0154812,45.0684 C26.9459312,45.29358 24.8577512,45.51876 22.7873912,45.30168 C22.6569812,44.84808 22.9129412,44.52732 22.8943112,44.05509 C22.8813512,43.71732 22.7323112,43.40304 22.5994712,43.092 C22.3545162,42.5380237 22.1926624,41.9509281 22.1191412,41.34969 C22.0956512,41.12856 22.0875512,40.90176 22.0033112,40.69602 C21.9190712,40.49028 21.7384412,40.3056 21.5173112,40.29102 C22.7323112,40.17033 23.6549012,39.9411 24.8699012,39.8196 C25.3210712,39.77424 25.7900612,39.72321 26.1748112,39.48345 C26.6519012,39.18618 26.9192012,38.64996 27.1314212,38.12994 C27.6571112,36.84204 27.9956912,35.42292 27.7194812,34.05888 C27.4926812,32.94027 26.8600712,31.89861 26.8633112,30.75732 C26.8633112,30.07773 27.0949712,29.4192 27.3687512,28.79712 C27.6587312,28.1394 28.0370012,27.4671 28.6736612,27.13338 C29.3103212,26.79966 30.3268712,26.78265 31.0453412,26.87985 Z" id="Path" fill="#000000" opacity="0.08"></path>
                        <path d="M2.88893116,25.82766 C3.18296116,25.12944 3.48185116,24.40854 3.48995116,23.65119 C3.49886116,22.83228 3.16595116,22.05468 2.91161116,21.27708 C2.59708442,20.3256696 2.38766676,19.3426832 2.28710116,18.34569 C2.266236,18.2501826 2.28062091,18.1503514 2.32760116,18.06462 C2.39483116,17.96985 2.52443116,17.95041 2.63864116,17.9253 C3.19916116,17.79732 3.62279116,17.34453 3.97271116,16.8885 C4.51557859,16.1842116 4.97393236,15.4186575 5.33837116,14.60754 C5.60648116,14.01057 5.96936116,13.28238 6.62384116,13.27671 C6.36035356,14.5143359 6.03376734,15.7376825 5.64536116,16.94196 C6.32981116,16.767 6.98024116,16.51266 7.66469116,16.3377 C7.79868149,16.2953861 7.93902105,16.2767473 8.07941116,16.28262 C8.48927116,16.32555 8.74037116,16.8804 8.50223116,17.21655 C8.83676116,17.60859 9.39323116,17.71389 9.83063116,17.98281 C10.2680312,18.25173 10.5823112,18.91755 10.1935112,19.25532 C10.1173712,19.32093 10.0209812,19.3671 9.96590116,19.45134 C9.77798116,19.74132 10.2380612,20.07423 10.1999912,20.41767 C10.1692112,20.69874 9.80876116,20.82996 9.53579116,20.75544 C9.26282116,20.68092 9.04979116,20.4768 8.80679116,20.32695 C8.56379116,20.1771 8.24627116,20.08395 8.01056116,20.23947 C7.94738116,21.00168 7.87934116,21.77847 7.54967116,22.47264 C7.42898116,22.72617 7.27427116,22.9635 7.17707116,23.22675 C7.08410346,23.5137948 7.02643898,23.8110933 7.00535116,24.11208 L6.71132116,26.80047 C5.30840116,27.08154 4.05047116,26.66115 2.88893116,25.82766 Z" id="Path" fill="#EFB7B9"></path>
                        <path d="M2.54630116,28.23741 L2.28791116,26.48862 C2.26320984,26.3462386 2.24939982,26.2021811 2.24660116,26.0577 C2.24660116,25.6527 2.42480116,25.26633 2.59733116,24.89778 C4.02698116,25.56522 5.57246116,25.80255 7.14953116,25.80336 C7.35770116,25.80336 7.59503116,25.78392 7.72463116,25.62111 C7.99274116,25.92972 8.00084116,26.42625 7.88663116,26.81829 C7.77242116,27.21033 7.55291116,27.56349 7.40711116,27.94581 C7.33340116,28.1394 7.27346116,28.35081 7.13252116,28.49985 C6.91382116,28.73556 6.55904116,28.77606 6.23666116,28.77444 C5.89751189,28.7723031 5.55922267,28.7400464 5.22578116,28.67805 C4.36232116,28.51767 3.40976116,28.0827 2.54630116,28.23741 Z" id="Path" fill="#FFFFFF"></path>
                        <path d="M7.87853116,28.16613 C6.76883116,28.03977 5.66642116,27.86157 4.57130116,27.63153 C4.03427116,27.51894 3.49238116,27.39339 2.94482116,27.41526 C2.58842116,27.42984 2.20529116,27.50112 1.89182116,27.32454 C2.19719116,28.36377 2.21582116,29.45889 1.85051116,30.47868 C1.63424116,31.08618 1.30457116,31.65237 1.14581116,32.27769 C0.815331161,33.58584 1.26893116,35.01225 0.855831161,36.29691 C0.812148386,36.4647812 0.726268664,36.6186955 0.606351161,36.74403 C0.479991161,36.85986 0.307461161,36.9198 0.190821161,37.04535 C0.0191011615,37.23003 0.00857116146,37.50786 0.00776116146,37.75977 L0.000471161455,39.99132 C-0.00438883854,41.41206 0.0142411615,42.91866 0.764301161,44.12232 C1.61966116,45.49932 3.42029116,46.21293 4.98764116,45.79416 C5.40437771,45.6875971 5.7947714,45.4965358 6.13460116,45.23283 C6.67892116,44.80029 7.02560116,44.17497 7.36499116,43.56585 C7.76999116,42.83685 8.17499116,42.09165 8.30540116,41.27112 C8.39774116,40.69035 8.34590116,40.09743 8.27948116,39.51342 C7.91336116,36.27342 7.11875116,33.06096 7.28966116,29.80881 C7.31524947,29.2142858 7.52057952,28.6415082 7.87853116,28.16613 L7.87853116,28.16613 Z" id="Path" fill="#241DBA"></path>
                        <path d="M12.5165912,41.61213 C11.9536412,41.64453 11.3866412,41.67693 10.8261212,41.61213 C10.4211212,41.56353 10.0258412,41.4639 9.62408116,41.39586 C7.40368273,41.0372699 5.13745868,41.6669245 3.42029116,43.11954 C3.10925116,43.38522 2.79497116,43.79265 2.96669116,44.16444 C3.15137116,44.56458 3.71594116,44.55324 4.15091116,44.47872 C3.68141346,44.7029468 3.26670323,45.0272502 2.93591116,45.42885 C2.81441116,45.57708 2.69939116,45.75285 2.72288116,45.94482 C2.77229116,46.34577 3.31661116,46.41867 3.71918116,46.38384 C3.58796116,46.52478 3.67625116,46.77426 3.84311116,46.86984 C4.00997116,46.96542 4.21733116,46.94598 4.40606116,46.91115 C4.82330113,46.8347434 5.22645322,46.6951697 5.60162116,46.49724 C5.52548116,46.69569 5.65751116,46.92816 5.84462116,47.02698 C6.03173116,47.1258 6.25934116,47.11851 6.46913116,47.08449 C7.45895116,46.92249 8.28515116,46.23399 9.25067116,45.96345 C10.7945312,45.53172 12.4096712,46.22022 14.0142812,46.26882 C14.5164812,46.28421 15.0316412,46.23318 15.4892912,46.02582 C16.0506212,45.77067 16.5034112,45.29196 17.0963312,45.12186 C17.7548612,44.93394 18.5105912,45.15021 19.1132312,44.8254 C19.5514412,44.58969 19.1561612,42.77286 19.0443812,42.42294 C18.8394512,41.78304 18.6337112,41.3586 17.9508812,41.2938 C16.2231512,41.12451 14.2572812,41.51169 12.5165912,41.61213 Z" id="Path" fill="#EFB7B9"></path>
                        <path d="M16.8266012,41.11641 C16.8266012,41.11641 19.4420912,43.33014 17.9330612,45.74556 L20.8490612,44.73873 L20.8490612,42.62544 C20.8490612,42.525 19.7417912,41.01597 19.7417912,41.01597 L18.4336412,40.81428 L16.8266012,41.11641 Z" id="Path" fill="#FFFFFF"></path>
                    </g>
                    <g id="Group-30">
                        <text id="Obtiene-su-pulsera-c" font-family="Gilroy-ExtraBold, Gilroy" font-size="15.3" font-weight="600" line-spacing="17" letter-spacing="0.109285708" fill="#FFFFFF">
                            <tspan x="25.008" y="269.356">Obtiene su pulsera con la </tspan>
                            <tspan x="25.008" y="286.356">entrada en taquillas</tspan>
                        </text>
                        <g id="Group-119">
                            <g id="Group-112" transform="translate(0.000000, 66.150000)" fill-rule="nonzero">
                                <circle id="Oval" fill="#F2F2F2" cx="121.663332" cy="150.688541" r="16.0208933"></circle>
                                <path d="M19.0110442,166.563843 L18.725931,166.456968 C18.6632775,166.433359 12.4276162,164.044268 9.506556,158.627105 C6.585381,153.209686 8.015742,146.687093 8.030529,146.621976 L8.09785125,146.324929 L8.382834,146.431804 C8.4454875,146.455413 14.6810205,148.844506 17.602209,154.261667 C20.523384,159.679086 19.0930252,166.201679 19.078236,166.266796 L19.0110442,166.563843 Z M9.974313,158.374932 C12.4439602,162.955172 17.371575,165.303013 18.6200842,165.838997 C18.8574592,164.500856 19.6018965,159.089672 17.1344565,154.513833 C14.6672752,149.938521 9.73771425,147.587048 8.4886875,147.049766 C8.25117975,148.388687 7.5070035,153.799361 9.974313,158.374932 Z" id="Shape" fill="#3F3D56"></path>
                                <path d="M11.738925,156.726843 C16.9884472,159.88513 19.010205,166.158357 19.010205,166.158357 C19.010205,166.158357 12.5208045,167.310992 7.27128,164.152707 C2.0217555,160.994423 -7.03437308e-14,154.721191 -7.03437308e-14,154.721191 C-7.03437308e-14,154.721191 6.4894005,153.568559 11.738925,156.726843 Z" id="Path" fill="#241DBA"></path>
                                <path d="M76.507875,75.4852472 C76.507875,75.4852472 85.644315,80.2226604 82.26045,84.6216872 C78.876585,89.0207139 73.1240122,79.5458874 73.1240122,78.8691122 C73.1240122,78.1923369 76.507875,75.4852472 76.507875,75.4852472 Z" id="Path" fill="#EFB7B9"></path>
                                <path d="M66.3562687,63.3033309 C66.3562687,63.3033309 72.447228,70.7478362 74.1391605,71.7629957 C75.831093,72.7781552 77.184639,73.7933147 77.184639,74.1317012 C77.184639,74.4700877 78.5381872,76.1620202 78.5381872,76.1620202 L73.1240122,80.8994334 C73.1240122,80.8994334 67.033053,72.7781552 66.35628,72.7781552 C65.679507,72.7781552 66.3562687,63.3033309 66.3562687,63.3033309 Z" id="Path" fill="#000230"></path>
                                <polygon id="Path" fill="#EFB7B9" points="35.90145 150.268729 31.840875 157.036504 37.93185 159.743479 43.684425 158.051479 40.300425 149.591929"></polygon>
                                <path d="M47.406618,76.5004067 L44.022753,108.647135 C44.022753,108.647135 36.57825,123.874532 36.57825,136.056462 C36.57825,148.238392 33.8711558,151.622246 33.8711558,151.622246 L42.330825,152.975787 L51.467265,123.197766 L66.694662,95.4500642 L62.2956285,67.7023622 L54.8511233,64.9952702 L47.406618,76.5004067 Z" id="Path" fill="#A5A7BF"></path>
                                <path d="M35.2246995,156.698034 C35.2246995,156.698034 32.6868008,153.144974 32.6868008,154.160133 C32.6868008,155.175293 27.7801943,166.511245 31.8408345,166.511245 C35.9014747,166.511245 46.729845,165.834472 48.7601595,166.511245 C50.790474,167.188018 57.558213,165.834472 56.88144,161.773832 C56.204667,157.713191 48.0834,158.05158 48.0834,158.05158 C48.0834,158.05158 43.1886847,151.228997 41.9137852,153.625137 L40.6388857,156.02127 L35.2246995,156.698034 Z" id="Path" fill="#000230"></path>
                                <polygon id="Path" fill="#EFB7B9" points="71.7705 150.268729 67.709925 157.036504 73.800675 159.743479 79.55325 158.051479 76.169475 149.591929"></polygon>
                                <path d="M71.0936798,156.698034 C71.0936798,156.698034 68.555781,153.48336 68.555781,154.49852 C68.555781,155.513679 63.6491745,166.511245 67.7098148,166.511245 C71.770455,166.511245 82.5988253,165.834472 84.6291398,166.511245 C86.6594543,167.188018 93.4271933,165.834472 92.7504203,161.773832 C92.0736473,157.713191 83.9523668,158.05158 83.9523668,158.05158 C83.9523668,158.05158 79.057665,151.228997 77.7827655,153.625137 L76.507875,156.021261 L71.0936798,156.698034 Z" id="Path" fill="#000230"></path>
                                <path d="M41.992425,76.1620202 C41.992425,76.1620202 43.0075868,85.2984602 48.4217708,93.7581249 C53.8359548,102.21779 61.6188488,117.1068 61.6188488,117.1068 C61.6188488,117.1068 60.9420758,131.995811 64.6643295,140.455475 C68.3865833,148.91514 69.063354,153.314167 69.063354,153.314167 L78.1997918,150.945461 C78.1997918,150.945461 73.1239943,122.520986 75.1543133,116.091641 C77.1846323,109.662295 67.3714215,76.1620157 67.3714215,76.1620157 L58.2349838,68.3791239 L46.3914518,67.0255779 L41.992425,76.1620202 Z" id="Path" fill="#A5A7BF"></path>
                                <circle id="Oval" fill="#EFB7B9" cx="61.4949322" cy="12.7342524" r="7.78289175"></circle>
                                <path d="M55.1357707,13.1257704 L51.062625,21.8395479 L62.4981847,29.7605469 C62.4981847,29.7605469 61.1521155,20.3270462 63.6879847,17.9381267 C66.223854,15.5492072 55.1357707,13.1257704 55.1357707,13.1257704 Z" id="Path" fill="#EFB7B9"></path>
                                <path d="M63.9875632,30.4798292 C63.9875632,30.4798292 58.5733882,19.3130792 54.1743502,19.3130792 C49.7753122,19.3130792 38.2701802,27.0959732 38.6085667,28.7879057 C38.9469532,30.4798382 38.9469532,30.8182247 38.9469532,31.8333842 C38.9469532,32.8485437 36.5782477,32.8485437 38.6085667,33.5253167 C40.6388857,34.2020897 40.9772722,34.8788649 40.9772722,34.8788649 L39.2853397,78.1923504 C39.2853397,78.1923504 46.729845,80.8994424 49.436937,79.8842829 C52.144029,78.8691234 54.8511232,72.1013912 54.8511232,72.1013912 C54.8511232,72.1013912 54.1743502,81.2378289 56.8814445,80.8994424 C59.5885387,80.5610559 69.7401337,79.8842829 70.0785202,78.5307369 C70.4169067,77.1771909 68.0482012,47.3991677 68.0482012,47.3991677 L63.9875632,30.4798292 Z" id="Path" fill="#000230"></path>
                                <path d="M39.2853398,80.5610469 C39.2853398,80.5610469 35.2246995,95.4500574 40.9772723,94.0965114 C46.729845,92.7429654 45.0379125,80.8994334 45.0379125,80.8994334 L39.2853398,80.5610469 Z" id="Path" fill="#EFB7B9"></path>
                                <path d="M46.3914585,27.7727372 L36.57825,52.8133449 C36.57825,52.8133449 35.2247018,55.5204392 36.57825,57.5507582 C37.9317982,59.5810772 35.901477,71.7629957 37.255023,74.4700832 C38.608569,77.1771707 38.608569,81.9145884 38.608569,81.9145884 L46.3914608,82.5913614 L48.0833933,52.8133404 L56.8814468,33.8636919 C56.8814468,33.8636919 56.2046693,26.0808024 46.3914585,27.7727372 Z" id="Path" fill="#000230"></path>
                                <path d="M48.9293572,26.9267709 C48.9293572,26.9267709 42.8384002,28.6187034 40.808079,34.7096627 L48.9293572,26.9267709 Z" id="Path" fill="#000000" opacity="0.1"></path>
                                <path d="M56.3945287,16.2850089 C57.1517415,16.2398289 57.8911117,16.4957304 58.643073,16.5955629 C61.3333845,16.9527392 64.1321257,15.0005222 64.726146,12.3524117 C64.7737589,11.999769 64.8788627,11.6573173 65.037276,11.3386809 C65.4513255,10.6626662 66.394305,10.5337839 67.1716552,10.6892297 C67.9490055,10.8446754 68.685858,11.2084937 69.477507,11.2500309 C70.6998262,11.3141559 71.873307,10.5616547 72.5247315,9.52539468 C73.176156,8.48913468 73.3606065,7.21401918 73.272654,5.99318043 L72.686682,6.60818418 C72.4485768,6.10445154 72.3566485,5.54399786 72.4213575,4.99059618 C71.7899124,4.82243089 71.1164532,4.99475676 70.6433872,5.44554618 C70.1266972,5.50053393 70.5166582,4.48717443 70.1327925,4.13697318 C69.9720547,3.99032943 69.725619,4.01799543 69.5080485,4.02009468 C68.4088537,4.03069218 67.5196582,3.18995043 66.6534735,2.51314818 C65.1526837,1.34309583 63.3976591,0.542560322 61.5302527,0.176246434 C60.2890402,-0.0658535656 58.9691857,-0.104749316 57.7920712,0.357443434 C56.8253722,0.737018434 56.0162317,1.42834893 55.2676207,2.14818918 C53.4247402,3.92024418 51.7928445,6.00234693 51.0261682,8.44131993 C50.4028901,10.4390408 50.3852343,12.5766071 50.9754285,14.5843509 C51.2843535,15.6270257 52.2154035,19.1979062 53.5784017,19.2810684 C55.29105,19.3855607 54.2627797,16.4122037 56.3945287,16.2850089 Z" id="Path" fill="#000230"></path>
                                <polygon id="Path" fill="#000000" opacity="0.1" points="56.9475 41.1768039 48.977775 52.8655539 46.428975 80.0165289"></polygon>
                                <rect id="Rectangle" fill="#3F3D56" x="0.09704025" y="166.300958" width="125.124201" height="1"></rect>
                            </g>
                            <g id="Group-118" transform="translate(90.000000, 0.000000)">
                                <g id="Group-60-Copy" transform="translate(0.000000, 0.011208)">
                                    <mask id="mask-2" fill="white">
                                        <use xlink:href="#path-1"></use>
                                    </mask>
                                    <use id="Mask" stroke="#C5CFDE" stroke-width="1.6875" fill="#FFFFFF" xlink:href="#path-1"></use>
                                    <g mask="url(#mask-2)">
                                        <g transform="translate(29.399569, 52.090247) rotate(-69.000000) translate(-29.399569, -52.090247) translate(-15.600431, -19.909753)">
                                            <path d="M67.450796,79.5236408 L68.560079,79.1202206 C73.063129,77.483522 76.4900573,73.7655146 77.7505877,69.1485951 L83.0284778,49.8171374 C83.3920379,48.4849221 83.3333992,47.0731534 82.8606497,45.775667 L74.9658547,24.1157602 C73.0890109,18.9670045 67.3881132,16.3122656 62.2319491,18.1864127 L62.0066955,18.268389 L57.2484659,5.21397121 C55.7566157,1.12081135 51.2244485,-0.989572765 47.1253991,0.500133895 L47.1253991,0.500133895 C43.0263497,1.98984056 40.912929,6.51549589 42.4047792,10.6086557 L41.7403417,8.78619813 C40.2484915,4.69303827 35.7163244,2.58265416 31.617275,4.07236082 L31.617275,4.07236082 C27.5182256,5.56206748 25.4048049,10.0877228 26.8970594,14.1808827 L28.7569182,19.2836025 C27.265068,15.1904426 22.7329008,13.0800585 18.6338514,14.5697652 L18.6338514,14.5697652 C14.534802,16.0594718 12.4213813,20.5851272 13.9132315,24.678287 L15.5073961,29.0521045 C14.015546,24.9589447 9.48337877,22.8485606 5.38432937,24.3382672 L5.38432937,24.3382672 C1.28527997,25.8279739 -0.828140724,30.3536292 0.663709438,34.4467891 L1.55056967,36.8798285 L20.8993284,89.961683 C22.0514783,93.1224133 25.5511995,94.751843 28.7164777,93.6017523 C29.9102813,93.1676416 31.2302593,93.7826655 31.6649947,94.9747539 L49.3374946,143.45988 L85.9102681,130.16761 L67.450796,79.5236408 Z" id="Path" fill="#FFB9B9" fill-rule="nonzero"></path>
                                            <g id="Group-38-Copy-7" stroke-width="1" fill="none" fill-rule="evenodd" transform="translate(59.167929, 109.133054) rotate(-381.000000) translate(-59.167929, -109.133054) translate(32.667929, 93.133054)">
                                                <g id="Group-44-Copy" transform="translate(26.421689, 15.578316) rotate(-180.000000) translate(-26.421689, -15.578316) translate(0.421689, 0.078316)">
                                                    <g id="Group-3" transform="translate(5.236806, -0.000000)">
                                                        <mask id="mask-4" fill="white">
                                                            <use xlink:href="#path-3"></use>
                                                        </mask>
                                                        <g id="Clip-2"></g>
                                                        <path d="M41.9664952,9.89446516e-13 C42.9655776,9.89446516e-13 43.7754908,1.20290436 43.7754908,2.68676787 L43.7754908,27.7746547 C43.7754908,29.2585182 42.9655776,30.4614226 41.9664952,30.4614226 L1.9101622,30.4614226 C0.911079724,30.4614226 0.101166514,29.2585182 0.101166514,27.7746547 L0.101166514,2.68676787 C0.101166514,1.20290436 0.911079724,9.89446516e-13 1.9101622,9.89446516e-13 L41.9664952,9.89446516e-13 Z M39.6406436,7.29265564 L38.6069317,7.29265564 C38.3345487,7.29265564 38.1112669,7.60585601 38.091368,8.00311383 L38.0900758,8.0603036 L38.0900758,22.784943 C38.0900758,23.1894935 38.300953,23.5211174 38.568426,23.550288 L38.6069317,23.5525909 L39.6406436,23.5525909 C39.9130266,23.5525909 40.1363084,23.2393906 40.1562073,22.8421327 L40.1574995,22.784943 L40.1574995,8.0603036 C40.1574995,7.65575312 39.9466223,7.3241292 39.6791493,7.29457476 L39.6406436,7.29265564 Z M5.26972561,7.29265564 L4.23601379,7.29265564 C3.96363072,7.29265564 3.74034897,7.60585601 3.72045002,8.00311383 L3.71915788,8.0603036 L3.71915788,22.784943 C3.71915788,23.1894935 3.93003509,23.5211174 4.19750802,23.550288 L4.23601379,23.5525909 L5.26972561,23.5525909 C5.54210867,23.5525909 5.76539042,23.2393906 5.78528937,22.8421327 L5.78658151,22.784943 L5.78658151,8.0603036 C5.78658151,7.65575312 5.5757043,7.3241292 5.30823137,7.29457476 L5.26972561,7.29265564 Z" id="Fill-1" fill="#DDDEEE" mask="url(#mask-4)"></path>
                                                    </g>
                                                    <polygon id="Rectangle" fill="#A5A7BF" points="0.231265058 9.33577972 9.70540541 8.24801596 9.70540541 22.1196792 0.231265058 21.4758719"></polygon>
                                                    <polygon id="Rectangle-Copy-54" fill="#A5A7BF" points="44.3302617 8.24801596 51.9622967 8.98059276 51.9622967 21.1469837 44.3302617 22.1196792"></polygon>
                                                </g>
                                                <g id="Group-Copy" transform="translate(25.879122, 15.770701) rotate(-360.000000) translate(-25.879122, -15.770701) translate(20.879122, 10.770701)" fill="#241DBA">
                                                    <path d="M6.28778794,1.55046766 C6.49746501,1.64888149 6.69867599,1.76894636 6.88549459,1.90672572 C7.02574964,2.01020083 7.15951402,2.12520441 7.28340128,2.24836229 C7.36298262,2.32737453 7.43917751,2.41060451 7.51057496,2.49636513 C7.63107578,2.64117405 7.80463082,2.71596856 7.97959688,2.71596856 C8.1167477,2.71596856 8.25446292,2.67013583 8.36819087,2.57622092 C8.62697132,2.36224114 8.66281114,1.97955195 8.44833661,1.72170772 C8.35266968,1.60670414 8.25022987,1.49479356 8.14383922,1.38906899 C7.97790366,1.22401494 7.79842235,1.07020819 7.61019273,0.931304103 C7.35931397,0.746286108 7.08924539,0.585168614 6.80760647,0.452731722 C6.50339128,0.309609899 6.14047781,0.439516151 5.99683631,0.742630737 C5.85347702,1.04574532 5.98357276,1.40734584 6.28778794,1.55046766" id="Fill-1"></path>
                                                    <path d="M4.77277939,5.9034237 C4.1375397,5.9034237 3.62082541,5.38857879 3.62082541,4.7556373 C3.62082541,4.1226958 4.1375397,3.60785089 4.77277939,3.60785089 C5.40801907,3.60785089 5.92473336,4.1226958 5.92473336,4.7556373 C5.92473336,5.38857879 5.40801907,5.9034237 4.77277939,5.9034237 M8.93358523,4.14800221 L8.28367097,4.14800221 L8.28395317,4.14884576 L7.06314158,4.14884576 C6.79363741,3.13996344 5.86913931,2.39398663 4.77277939,2.39398663 C3.46589578,2.39398663 2.40255365,3.45348178 2.40255365,4.7556373 C2.40255365,6.05779282 3.46589578,7.11700677 4.77277939,7.11700677 C5.86913931,7.11700677 6.79363741,6.37159233 7.06314158,5.36242883 L8.27435826,5.36242883 C7.97522273,7.08073425 6.43015952,8.37867204 4.60289298,8.29347378 C2.75559001,8.20743198 1.26837848,6.69326495 1.2192751,4.8512393 C1.16650308,2.86046817 2.7716756,1.22286209 4.75612939,1.21386426 C5.08743609,1.21217716 5.37189705,0.955457667 5.38149196,0.625349574 C5.39165128,0.281744727 5.11537422,5.91051585e-14 4.77277939,5.91051585e-14 C2.05487915,5.91051585e-14 -0.139533918,2.27504649 0.00692960876,5.01432507 C0.135614326,7.42518264 2.0932588,9.37574469 4.51287012,9.50424503 C7.26209493,9.65017868 9.54568424,7.46370463 9.54568424,4.7556373 L9.54568424,4.74945128 C9.54511984,4.415969 9.26827837,4.14800221 8.93358523,4.14800221" id="Fill-3"></path>
                                                </g>
                                            </g>
                                        </g>
                                    </g>
                                </g>
                            </g>
                        </g>
                    </g>
                </g>
                <g id="Group-37" transform="translate(614.000000, 0.000000)">
                    <text id="4" font-family="Gilroy-ExtraBold, Gilroy" font-size="30.6" font-weight="600" line-spacing="14.28" letter-spacing="0.218571416" fill="#FFFFFF">
                        <tspan x="69.924" y="271.12">4</tspan>
                    </text>
                    <text id="Consume-sin-esperas" font-family="Gilroy-ExtraBold, Gilroy" font-size="15.3" font-weight="600" line-spacing="14.28" letter-spacing="0.109285708" fill="#FFFFFF">
                        <tspan x="96.852" y="248">Consume sin </tspan>
                        <tspan x="96.852" y="262.28">esperas y sin </tspan>
                        <tspan x="96.852" y="276.56">efectivo</tspan>
                    </text>
                    <g id="Group-118">
                        <g id="Group-60-Copy" transform="translate(0.000000, 0.011208)">
                            <mask id="mask-6" fill="white">
                                <use xlink:href="#path-5"></use>
                            </mask>
                            <use id="Mask" stroke="#C5CFDE" stroke-width="1.6875" fill="#FFFFFF" xlink:href="#path-5"></use>
                            <g mask="url(#mask-6)">
                                <g transform="translate(29.399569, 52.090247) rotate(-69.000000) translate(-29.399569, -52.090247) translate(-15.600431, -19.909753)">
                                    <path d="M67.450796,79.5236408 L68.560079,79.1202206 C73.063129,77.483522 76.4900573,73.7655146 77.7505877,69.1485951 L83.0284778,49.8171374 C83.3920379,48.4849221 83.3333992,47.0731534 82.8606497,45.775667 L74.9658547,24.1157602 C73.0890109,18.9670045 67.3881132,16.3122656 62.2319491,18.1864127 L62.0066955,18.268389 L57.2484659,5.21397121 C55.7566157,1.12081135 51.2244485,-0.989572765 47.1253991,0.500133895 L47.1253991,0.500133895 C43.0263497,1.98984056 40.912929,6.51549589 42.4047792,10.6086557 L41.7403417,8.78619813 C40.2484915,4.69303827 35.7163244,2.58265416 31.617275,4.07236082 L31.617275,4.07236082 C27.5182256,5.56206748 25.4048049,10.0877228 26.8970594,14.1808827 L28.7569182,19.2836025 C27.265068,15.1904426 22.7329008,13.0800585 18.6338514,14.5697652 L18.6338514,14.5697652 C14.534802,16.0594718 12.4213813,20.5851272 13.9132315,24.678287 L15.5073961,29.0521045 C14.015546,24.9589447 9.48337877,22.8485606 5.38432937,24.3382672 L5.38432937,24.3382672 C1.28527997,25.8279739 -0.828140724,30.3536292 0.663709438,34.4467891 L1.55056967,36.8798285 L20.8993284,89.961683 C22.0514783,93.1224133 25.5511995,94.751843 28.7164777,93.6017523 C29.9102813,93.1676416 31.2302593,93.7826655 31.6649947,94.9747539 L49.3374946,143.45988 L85.9102681,130.16761 L67.450796,79.5236408 Z" id="Path" fill="#FFB9B9" fill-rule="nonzero"></path>
                                    <g id="Group-38-Copy-7" stroke-width="1" fill="none" fill-rule="evenodd" transform="translate(59.167929, 109.133054) rotate(-381.000000) translate(-59.167929, -109.133054) translate(32.667929, 93.133054)">
                                        <g id="Group-44-Copy" transform="translate(26.421689, 15.578316) rotate(-180.000000) translate(-26.421689, -15.578316) translate(0.421689, 0.078316)">
                                            <g id="Group-3" transform="translate(5.236806, -0.000000)">
                                                <mask id="mask-8" fill="white">
                                                    <use xlink:href="#path-7"></use>
                                                </mask>
                                                <g id="Clip-2"></g>
                                                <path d="M41.9664952,9.89446516e-13 C42.9655776,9.89446516e-13 43.7754908,1.20290436 43.7754908,2.68676787 L43.7754908,27.7746547 C43.7754908,29.2585182 42.9655776,30.4614226 41.9664952,30.4614226 L1.9101622,30.4614226 C0.911079724,30.4614226 0.101166514,29.2585182 0.101166514,27.7746547 L0.101166514,2.68676787 C0.101166514,1.20290436 0.911079724,9.89446516e-13 1.9101622,9.89446516e-13 L41.9664952,9.89446516e-13 Z M39.6406436,7.29265564 L38.6069317,7.29265564 C38.3345487,7.29265564 38.1112669,7.60585601 38.091368,8.00311383 L38.0900758,8.0603036 L38.0900758,22.784943 C38.0900758,23.1894935 38.300953,23.5211174 38.568426,23.550288 L38.6069317,23.5525909 L39.6406436,23.5525909 C39.9130266,23.5525909 40.1363084,23.2393906 40.1562073,22.8421327 L40.1574995,22.784943 L40.1574995,8.0603036 C40.1574995,7.65575312 39.9466223,7.3241292 39.6791493,7.29457476 L39.6406436,7.29265564 Z M5.26972561,7.29265564 L4.23601379,7.29265564 C3.96363072,7.29265564 3.74034897,7.60585601 3.72045002,8.00311383 L3.71915788,8.0603036 L3.71915788,22.784943 C3.71915788,23.1894935 3.93003509,23.5211174 4.19750802,23.550288 L4.23601379,23.5525909 L5.26972561,23.5525909 C5.54210867,23.5525909 5.76539042,23.2393906 5.78528937,22.8421327 L5.78658151,22.784943 L5.78658151,8.0603036 C5.78658151,7.65575312 5.5757043,7.3241292 5.30823137,7.29457476 L5.26972561,7.29265564 Z" id="Fill-1" fill="#DDDEEE" mask="url(#mask-8)"></path>
                                            </g>
                                            <polygon id="Rectangle" fill="#A5A7BF" points="0.231265058 9.33577972 9.70540541 8.24801596 9.70540541 22.1196792 0.231265058 21.4758719"></polygon>
                                            <polygon id="Rectangle-Copy-54" fill="#A5A7BF" points="44.3302617 8.24801596 51.9622967 8.98059276 51.9622967 21.1469837 44.3302617 22.1196792"></polygon>
                                        </g>
                                        <g id="Group-Copy" transform="translate(25.879122, 15.770701) rotate(-360.000000) translate(-25.879122, -15.770701) translate(20.879122, 10.770701)" fill="#241DBA">
                                            <path d="M6.28778794,1.55046766 C6.49746501,1.64888149 6.69867599,1.76894636 6.88549459,1.90672572 C7.02574964,2.01020083 7.15951402,2.12520441 7.28340128,2.24836229 C7.36298262,2.32737453 7.43917751,2.41060451 7.51057496,2.49636513 C7.63107578,2.64117405 7.80463082,2.71596856 7.97959688,2.71596856 C8.1167477,2.71596856 8.25446292,2.67013583 8.36819087,2.57622092 C8.62697132,2.36224114 8.66281114,1.97955195 8.44833661,1.72170772 C8.35266968,1.60670414 8.25022987,1.49479356 8.14383922,1.38906899 C7.97790366,1.22401494 7.79842235,1.07020819 7.61019273,0.931304103 C7.35931397,0.746286108 7.08924539,0.585168614 6.80760647,0.452731722 C6.50339128,0.309609899 6.14047781,0.439516151 5.99683631,0.742630737 C5.85347702,1.04574532 5.98357276,1.40734584 6.28778794,1.55046766" id="Fill-1"></path>
                                            <path d="M4.77277939,5.9034237 C4.1375397,5.9034237 3.62082541,5.38857879 3.62082541,4.7556373 C3.62082541,4.1226958 4.1375397,3.60785089 4.77277939,3.60785089 C5.40801907,3.60785089 5.92473336,4.1226958 5.92473336,4.7556373 C5.92473336,5.38857879 5.40801907,5.9034237 4.77277939,5.9034237 M8.93358523,4.14800221 L8.28367097,4.14800221 L8.28395317,4.14884576 L7.06314158,4.14884576 C6.79363741,3.13996344 5.86913931,2.39398663 4.77277939,2.39398663 C3.46589578,2.39398663 2.40255365,3.45348178 2.40255365,4.7556373 C2.40255365,6.05779282 3.46589578,7.11700677 4.77277939,7.11700677 C5.86913931,7.11700677 6.79363741,6.37159233 7.06314158,5.36242883 L8.27435826,5.36242883 C7.97522273,7.08073425 6.43015952,8.37867204 4.60289298,8.29347378 C2.75559001,8.20743198 1.26837848,6.69326495 1.2192751,4.8512393 C1.16650308,2.86046817 2.7716756,1.22286209 4.75612939,1.21386426 C5.08743609,1.21217716 5.37189705,0.955457667 5.38149196,0.625349574 C5.39165128,0.281744727 5.11537422,5.91051585e-14 4.77277939,5.91051585e-14 C2.05487915,5.91051585e-14 -0.139533918,2.27504649 0.00692960876,5.01432507 C0.135614326,7.42518264 2.0932588,9.37574469 4.51287012,9.50424503 C7.26209493,9.65017868 9.54568424,7.46370463 9.54568424,4.7556373 L9.54568424,4.74945128 C9.54511984,4.415969 9.26827837,4.14800221 8.93358523,4.14800221" id="Fill-3"></path>
                                        </g>
                                    </g>
                                </g>
                            </g>
                        </g>
                    </g>
                    <g id="Group-34" transform="translate(59.000000, 24.000000)">
                        <g id="Group-31">
                            <path d="M60.4365084,2.2864702 L73.1085034,2.2864702 C74.102616,2.2864702 74.9085034,3.09235765 74.9085034,4.0864702 L74.9085034,23.5072145 L74.9085034,23.5072145 C74.9085034,33.2715371 80.7901057,46.9078837 88.6194594,65.4549745 C96.4488132,84.0020652 94.4371486,93.1980498 94.4371486,112.381564 L94.4371486,182.907778 C94.4371486,188.872453 89.6018239,193.707778 83.6371486,193.707778 L49.9078632,193.707778 C43.9431879,193.707778 39.1078632,188.872453 39.1078632,182.907778 L39.1078632,112.381564 L39.1078632,112.381564 C39.1078632,93.4237382 37.1432535,84.2198237 44.6532892,66.1057263 L48.5711837,56.7978336 C54.4224601,42.7905483 58.5129581,32.0107542 58.6337591,23.8751936 L58.6365084,23.5072145 L58.6365084,4.0864702 C58.6365084,3.09235765 59.4423959,2.2864702 60.4365084,2.2864702 Z M72.6913806,0.9 L72.6913806,2.2864702 L72.6913806,2.2864702 L66.7725059,2.2864702 L60.8536312,2.2864702 L60.8536312,0.9 C60.8536312,0.402943725 61.2565749,-2.53772084e-14 61.7536312,-2.55795385e-14 L71.7913806,-2.55795385e-14 C72.2884369,-2.47878969e-14 72.6913806,0.402943725 72.6913806,0.9 Z" id="Shape" fill="#E0E4EC"></path>
                            <path d="M10.5410678,148.029907 L14.4332139,185.478686 C14.9098129,190.064344 18.7746369,193.548305 23.3849953,193.548305 L43.2524478,193.548305 C47.8765659,193.548305 51.748232,190.044132 52.2078747,185.442915 L55.9474247,148.008445 C56.2438726,145.040877 54.0785023,142.39487 51.1109348,142.098422 C50.9325675,142.080604 50.7534236,142.071679 50.5741686,142.071679 L15.9121366,142.071679 C12.929799,142.071679 10.5121366,144.489341 10.5121366,147.471679 C10.5121366,147.65813 10.5217933,147.844455 10.5410678,148.029907 Z" id="Path-11" fill="#C5CFDE"></path>
                            <path d="M5.79928573,135.399286 C13.5316667,127.666905 26.0683333,127.666905 33.8007143,135.399286 L33.8007143,135.399286 L26.928,142.271 L16.1117795,142.271321 C13.1294418,142.271321 10.7117795,144.688984 10.7117795,147.671321 C10.7117795,147.857772 10.7214361,148.044098 10.7407106,148.22955 L11.703,157.496 L5.79928573,163.400714 C-1.84318384,155.758245 -1.93204976,143.422568 5.53268796,135.670954 Z" id="Combined-Shape" fill="#241DBA"></path>
                            <path d="M69.7136157,147.6 L148.179168,147.6 C149.372103,147.6 150.339168,148.567065 150.339168,149.76 C150.339168,149.997637 150.299953,150.233646 150.223105,150.458514 L139.201826,182.708113 C136.812063,189.70085 130.240144,194.4 122.850331,194.4 L96.0852257,194.4 C88.8759444,194.4 82.4242296,189.92427 79.8995094,183.171528 L67.6904011,150.516441 C67.2726303,149.39905 67.8397842,148.154556 68.9571747,147.736785 C69.199115,147.646329 69.4553183,147.6 69.7136157,147.6 Z" id="Rectangle" fill="#7E8FA4"></path>
                            <path d="M97.2,122.352043 C99.1985522,120.015986 102.228612,120.015986 104.227165,122.352043 L104.370272,122.519318 C106.287424,124.760227 109.19407,124.760227 111.111221,122.519318 L111.242261,122.366148 C113.084876,120.212363 115.878516,120.212363 117.721131,122.366148 C119.563746,124.519934 122.357385,124.519934 124.2,122.366148" id="Path" stroke="#E5E7F4" stroke-width="3.24" stroke-linecap="round" transform="translate(110.700000, 122.400000) rotate(-90.000000) translate(-110.700000, -122.400000) "></path>
                            <path d="M109.8,106.152043 C111.903623,103.815986 115.092984,103.815986 117.196608,106.152043 L117.347239,106.319318 C119.365182,108.560227 122.424641,108.560227 124.442584,106.319318 L124.580513,106.166148 C126.520001,104.012363 129.460512,104.012363 131.4,106.166148" id="Path" stroke="#E5E7F4" stroke-width="3.24" stroke-linecap="round" transform="translate(120.600000, 106.200000) rotate(-90.000000) translate(-120.600000, -106.200000) "></path>
                            <path d="M111.6,136.671245 L111.752716,136.845833 C113.798592,139.184722 116.900401,139.184722 118.946277,136.845833 L119.086116,136.685967 C121.052451,134.438011 124.033665,134.438011 126,136.685967" id="Path" stroke="#DDDEEE" stroke-width="3.24" stroke-linecap="round" transform="translate(118.800000, 136.800000) rotate(-90.000000) translate(-118.800000, -136.800000) "></path>
                        </g>
                    </g>
                </g>
                <g id="Group-4" transform="translate(0.000000, 386.000000)">
                    <g id="Group-222" transform="translate(94.000000, 226.000000)" fill="#FFFFFF" font-family="Gilroy-ExtraBold, Gilroy" font-weight="600">
                        <text id="Recarga-su-cuenta-co" font-size="15.3" line-spacing="17" letter-spacing="0.109285708">
                            <tspan x="18.36" y="15.3309997">Recarga su cuenta </tspan>
                            <tspan x="18.36" y="32.3309997">con saldo antes </tspan>
                            <tspan x="18.36" y="49.3309997">del evento</tspan>
                        </text>
                        <text id="1-copy-3" font-size="30.6" line-spacing="14.28" letter-spacing="0.218571416">
                            <tspan x="0" y="40.435">1</tspan>
                        </text>
                    </g>
                    <g id="Group-Copy-26" transform="translate(0.000000, 102.000000)" fill-rule="nonzero">
                        <ellipse id="Oval" fill="#DDDEEE" opacity="0.3125" style="mix-blend-mode: multiply;" cx="42.5999856" cy="153.243868" rx="42.5999856" ry="6.36386838"></ellipse>
                        <ellipse id="Oval" fill="#F2F2F2" cx="47.4957101" cy="46.5599625" rx="1.57093205" ry="1.56841609"></ellipse>
                        <polygon id="Path" fill="#DDDEEE" points="25.229086 146.274523 25.6000573 149.60919 22.2602959 149.238558 22.2602959 145.162882"></polygon>
                        <polygon id="Path" fill="#DDDEEE" points="60.1133891 146.274523 59.7421629 149.60919 63.0821792 149.238558 63.0821792 145.162882"></polygon>
                        <path d="M24.8579439,74.3945072 L23.373503,112.557608 C23.373503,112.557608 18.5490763,141.087306 19.6624057,141.828348 C20.7757352,142.56939 19.6624057,146.64505 19.6624057,146.64505 L25.9712733,147.386095 C25.9712733,147.386095 25.9712733,144.421957 27.4557142,143.310406 C28.9401552,142.198855 42.6712197,89.9561662 42.6712197,89.9561662 L56.7733958,140.346294 C56.7733958,140.346294 56.4022868,143.310419 57.5156162,143.310419 C58.6289457,143.310419 59.0000572,147.386095 59.0000572,147.386095 L65.3089247,147.386095 L65.3089247,143.310419 C65.3089247,143.310419 67.1644746,142.939904 66.0511452,139.97578 C64.9378158,137.011655 60.8556045,74.3945072 60.8556045,74.3945072 L24.8579439,74.3945072 Z" id="Path" fill="#A5A7BF"></path>
                        <path d="M23.002394,146.274523 C23.002394,146.274523 21.1468441,145.162976 20.4046237,145.904008 C19.6624032,146.64504 13.7246471,154.05536 13.7246471,154.05536 C13.7246471,154.05536 5.56021948,159.242577 12.9824267,160.724641 C20.4046339,162.206704 25.9712657,155.166906 26.3423823,154.425875 C26.7134989,153.684843 25.9712733,147.756594 25.6001644,148.497626 C25.2290554,149.238657 24.1157234,148.868143 23.7446145,148.497626 C23.3735055,148.127108 23.002394,146.274523 23.002394,146.274523 Z" id="Path" fill="#18193F"></path>
                        <path d="M62.3400454,146.274523 C62.3400454,146.274523 64.1955953,145.162976 64.9378158,145.904008 C65.6800362,146.64504 71.6177923,154.05536 71.6177923,154.05536 C71.6177923,154.05536 79.78222,159.242577 72.3600128,160.724641 C64.9378056,162.206704 59.3711738,155.166906 59.0000572,154.425875 C58.6289406,153.684843 59.3711661,147.756594 59.7422751,148.497626 C60.113384,149.238657 61.226716,148.868143 61.597825,148.497626 C61.9689339,148.127108 62.3400454,146.274523 62.3400454,146.274523 Z" id="Path" fill="#18193F"></path>
                        <ellipse id="Oval" fill="#EFB7B9" cx="47.3100944" cy="11.9626368" rx="7.60775402" ry="7.59556965"></ellipse>
                        <polygon id="Path" fill="#EFB7B9" points="42.3001388 16.2235267 41.186715 27.7095455 50.0933402 29.5621948 52.3201877 15.8531496"></polygon>
                        <path d="M51.5778576,25.1159382 C51.5778576,25.1159382 49.3511988,29.9326407 41.1867788,24.7454236 L25.9712835,74.3945072 C25.9712835,74.3945072 46.3823297,86.6215195 59.3711763,77.3586316 L54.9178459,27.3390309 L51.5778576,25.1159382 Z" id="Path" fill="#00012B"></path>
                        <path d="M42.6712197,19.5581937 L35.6201317,18.4466474 L34.8779087,23.2633601 C34.8779087,23.2633601 25.2290503,24.3749064 24.1157209,28.0800626 L25.2290503,55.4982142 C25.2290503,55.4982142 21.889062,61.4264631 24.8579413,65.1316193 C24.8579413,65.1316193 20.0335121,75.1355389 23.7446119,76.988117 C23.7446119,76.988117 32.2801383,72.9124412 37.475679,74.0239926 C37.475679,74.0239926 40.4445583,73.2829608 40.4445583,71.0598682 C40.4445583,68.8367755 42.6712197,19.5581937 42.6712197,19.5581937 Z" id="Path" fill="#00012B"></path>
                        <path d="M51.2067487,20.2992357 L55.2889625,21.410782 L55.6600715,26.5979991 C55.6600715,26.5979991 65.6800388,32.8967651 66.0511503,36.6019213 C66.4222618,40.3070775 58.6289508,58.0918215 58.6289508,58.0918215 C58.6289508,58.0918215 61.5978301,63.2790412 60.4845006,66.6136802 C60.4845006,66.6136802 65.3089298,76.2470853 62.3400505,78.8406951 C62.3400505,78.8406951 56.7734009,80.3227561 56.031183,78.0996634 C55.288965,75.8765707 48.6089834,50.3109971 51.5778627,38.0839822 C51.5778576,38.0839822 48.6089783,22.5223283 51.2067487,20.2992357 Z" id="Path" fill="#00012B"></path>
                        <path d="M55.4745119,32.3657054 L55.3348304,32.3657054 L55.3348304,28.5452792 C55.3348317,27.9588411 55.1014968,27.3964217 54.686157,26.9817476 C54.2708173,26.5670735 53.7074953,26.334115 53.1201165,26.334115 L45.0130556,26.334115 C44.4256768,26.334115 43.8623549,26.5670735 43.4470151,26.9817476 C43.0316753,27.3964217 42.7983418,27.9588411 42.7983418,28.5452792 L42.7983418,49.5044404 C42.7983418,50.0908781 43.0316763,50.6532969 43.447016,51.0679704 C43.8623557,51.482644 44.4256772,51.7156022 45.0130556,51.7156022 L53.1201165,51.7156022 C53.7074949,51.7156022 54.2708164,51.482644 54.6861561,51.0679704 C55.1014958,50.6532969 55.334831,50.0908781 55.3348304,49.5044404 L55.3348304,35.0851493 L55.4745119,35.0851493 L55.4745119,32.3657054 Z" id="Path" fill="#FFFFFF"></path>
                        <path d="M59.0000572,47.3468727 C59.0000572,47.3468727 56.0311753,37.7134676 51.5778576,40.6775819 C47.1245399,43.6416962 54.5467369,51.7930479 54.5467369,51.7930479 L59.0000572,47.3468727 Z" id="Path" fill="#EFB7B9"></path>
                        <path d="M38.589011,40.3070749 C38.589011,40.3070749 43.7845491,34.0083115 46.3823195,36.9724359 C48.9800898,39.9365603 41.9289993,46.6058409 41.9289993,46.6058409 L38.589011,40.3070749 Z" id="Path" fill="#EFB7B9"></path>
                        <path d="M25.2290528,27.7095455 C25.2290528,27.7095455 23.373503,27.3390283 22.2601735,30.6736699 C21.1468441,34.0083115 17.0646354,46.6058384 17.0646354,48.8289311 C17.0646354,51.0520238 18.5490763,59.9443971 26.7134938,58.4623361 C34.8779112,56.9802752 44.5267696,46.6058384 44.5267696,46.6058384 L39.3312315,38.8250114 L28.1979322,45.4942921 L25.2290528,27.7095455 Z" id="Path" fill="#00012B"></path>
                        <polygon id="Path" fill="#000000" opacity="0.1" points="26.8325488 37.3151684 28.3834892 45.3089508 39.8879331 38.6398712 29.1256867 42.7155471 26.7530003 36.8381328"></polygon>
                        <polygon id="Path" fill="#000000" opacity="0.1" points="59.5568047 45.3089508 61.0411998 46.4205913 61.7833973 41.2332749"></polygon>
                        <path d="M25.0434984,59.3886277 C25.0434984,59.3886277 35.9440138,56.4279474 41.0703881,49.9422033 C41.0703881,49.9422033 35.8056862,58.647596 25.0434984,59.3886277 Z" id="Path" fill="#000000" opacity="0.1"></path>
                        <path d="M52.5056326,52.7193471 C52.5056326,52.7193471 54.800981,63.9348938 60.7043961,64.2553681 C60.7043961,64.2553681 53.6189696,66.4284229 52.5056326,52.7193471 Z" id="Path" fill="#000000" opacity="0.1"></path>
                        <path d="M64.5667043,35.1198578 C64.5667043,35.1198578 65.6800337,35.8608896 66.4222542,39.1955337 C67.1644746,42.5301778 71.9889038,55.1277022 70.1333539,58.0918266 C68.277804,61.0559511 65.3089247,67.7252317 59.0000572,63.2790463 L52.6911871,51.7930632 L59.0000572,45.8648143 L61.597825,47.7173924 L64.5667043,35.1198578 Z" id="Path" fill="#00012B"></path>
                        <path d="M40.0066312,13.889051 C40.0066312,13.889051 33.6261802,3.56487353 40.422221,3.02790559 C42.6901446,2.86953419 44.9046792,2.26708972 46.9395872,1.25491404 C49.192316,0.110418134 52.027972,-0.759509947 53.5369608,1.00229647 C54.1954732,1.80789924 54.9631937,2.5179748 55.8179828,3.11204612 C57.143518,3.98971775 58.6772153,5.41251072 57.8279486,6.93874454 L56.4356589,9.44084958 L54.4864407,14.4450648 C54.9403617,12.2866086 54.9517789,10.474324 53.7902921,9.57985429 C53.7902921,9.57985429 47.3100944,12.3331438 44.0443081,7.3557612 C40.3884766,4.61718754 39.2253606,13.2370014 40.0066312,13.889051 Z" id="Path" fill="#000230"></path>
                    </g>
                    <g id="Group-25-Copy" transform="translate(6.000000, 0.000000)">
                        <g id="Group-65-Copy-3">
                            <g id="Group-65-Copy-2">
                                <g id="Group-64">
                                    <g id="Group-103" transform="translate(80.558100, 12.448800)">
                                        <path d="M73.0445334,3.13374361 C71.8915351,3.13374361 70.957133,4.06814575 70.957133,5.22059341 L70.957133,6.11369905 C70.957133,7.75895161 69.6229807,9.09310387 67.9777282,9.09310387 L24.5266521,9.09310387 C22.8808489,9.09310387 21.5472473,7.75895161 21.5472473,6.11369905 L21.5472473,4.90343629 C21.5472473,3.92608579 20.7549051,3.13374361 19.7775546,3.13374361 L16.2359668,3.13374361 C8.93309369,3.13374361 3.01337807,9.05345923 3.01337807,16.3557817 L3.01337807,169.753558 C3.01337807,177.055881 8.93309369,182.975596 16.2359668,182.975596 L76.2684135,182.975596 C83.5707359,182.975596 89.4910022,177.055881 89.4910022,169.753558 L89.4910022,16.3557817 C89.4910022,9.05345923 83.5707359,3.13374361 76.2684135,3.13374361 L73.0445334,3.13374361 Z" id="Fill-1-Copy-3" fill="#EEEFF7"></path>
                                        <g id="Group-5-Copy-4">
                                            <mask id="mask-10" fill="white">
                                                <use xlink:href="#path-9"></use>
                                            </mask>
                                            <g id="Clip-4"></g>
                                            <path d="M89.20044,169.508973 C89.20044,176.811295 83.3710261,182.805895 76.0687036,182.805895 L16.0357063,182.805895 C8.73338382,182.805895 2.7531,176.811295 2.7531,169.508973 L2.7531,16.1111963 C2.7531,8.80887382 8.73338382,2.75315506 16.0357063,2.75315506 L19.5772941,2.75315506 C20.5546446,2.75315506 21.47418,3.68150038 21.47418,4.65885088 L21.47418,5.86911364 C21.47418,7.5143662 22.681139,8.80997506 24.3269422,8.80997506 L67.7774677,8.80997506 C69.4232708,8.80997506 71.02998,7.5143662 71.02998,5.86911364 L71.02998,4.97655862 C71.02998,3.82356034 71.6918252,2.75315506 72.8442729,2.75315506 L76.0687036,2.75315506 C83.3710261,2.75315506 89.20044,8.80887382 89.20044,16.1111963 L89.20044,169.508973 Z M92.50416,15.1872559 C92.50416,6.79966144 85.7045536,5.5062e-05 77.3169592,5.5062e-05 L15.1872008,5.5062e-05 C6.79960638,5.5062e-05 0,6.79966144 0,15.1872559 L0,170.922414 C0,179.310009 6.79960638,186.109615 15.1872008,186.109615 L77.3169592,186.109615 C85.7045536,186.109615 92.50416,179.310009 92.50416,170.922414 L92.50416,15.1872559 Z" id="Fill-3" fill="#7E8FA4" mask="url(#mask-10)"></path>
                                        </g>
                                    </g>
                                    <g id="Group-63">
                                        <path d="M29.0616996,17.216756 L102.431815,2.19873181 C107.273047,1.20778688 112.000961,4.32906148 112.991906,9.17029374 C113.112762,9.76073453 113.173654,10.3618754 113.173654,10.9645583 L113.173654,62.9234454 C113.173654,67.3297235 109.965713,71.0800984 105.612665,71.7629295 L32.2425499,83.2719671 C27.3606376,84.0377573 22.7822702,80.700981 22.0164801,75.8190688 C21.9445286,75.3603781 21.9083891,74.8967827 21.9083891,74.4324831 L21.9083891,25.9825825 C21.9083891,21.732588 24.8980336,18.0690109 29.0616996,17.216756 Z" id="Path-9" fill="#7E8FA4"></path>
                                        <path d="M22.3774499,17.2259762 L119.762887,7.53241478 C124.680196,7.04295514 129.063248,10.6324365 129.552708,15.5497459 C129.582022,15.8442514 129.596707,16.14003 129.596707,16.4359909 L129.596707,66.1843868 C129.596707,70.7256996 126.194695,74.5467638 121.68385,75.0719318 L24.2984136,86.4098794 C19.389958,86.9813387 14.9476093,83.4655085 14.37615,78.557053 C14.3361636,78.2135965 14.31612,77.8681108 14.31612,77.5223344 L14.31612,26.1295524 C14.31612,21.5311561 17.8016659,17.6814411 22.3774499,17.2259762 Z" id="Path-8" fill="#A5B6CC"></path>
                                        <rect id="Rectangle" fill="#C5CFDE" x="0" y="17.290665" width="125.26605" height="71.5806" rx="8.947575"></rect>
                                        <path d="M105.581385,31.606785 L112.73912,38.764785 L112.73912,69.185785 L105.581385,76.34466 L21.9083891,76.34466 L14.31612,68.7523909 L14.31612,39.1990541 L21.9083891,31.606785 L105.581385,31.606785 Z" id="Combined-Shape" fill="#EEEFF7"></path>
                                        <circle id="Oval" fill="#7E8FA4" cx="34.000785" cy="54.87048" r="3.57903"></circle>
                                        <circle id="Oval-Copy-8" fill="#7E8FA4" cx="94.844295" cy="54.87048" r="3.57903"></circle>
                                        <g id="Group-59" transform="translate(50.274000, 40.698000)">
                                            <circle id="Oval-Copy-12" stroke="#A5A7BF" stroke-width="1.7179344" fill="#241DBA" cx="13.7434752" cy="13.7434752" r="13.7434752"></circle>
                                            <text id="-copy" font-family="Gilroy-Regular" font-size="20.6152128" font-weight="normal" line-spacing="13.7434752" fill="#FFFFFF">
                                                <tspan x="6.8717376" y="22.8717376"></tspan>
                                            </text>
                                        </g>
                                    </g>
                                </g>
                                <path d="M103.55,117.8 L163.4,117.8 L163.4,167.2 L103.55,167.2 L103.55,117.8 Z" id="Rectangle" stroke="#241DBA" stroke-width="0.95" stroke-dasharray="4.75,4.75"></path>
                                <g id="flecha" transform="translate(121.419797, 89.333930) scale(1, -1) rotate(-53.000000) translate(-121.419797, -89.333930) translate(105.419797, 78.833930)" stroke="#7E8FA4" stroke-linecap="round" stroke-linejoin="round" stroke-width="2.7531">
                                    <path d="M0,0 C4.95558,7.97237495 15.5989868,11.3612251 31.9302204,10.1665506" id="Path-4"></path>
                                    <polygon id="Path-5" fill="#7E8FA4" points="22.5166069 0.982950822 31.9302204 10.150389 22.5166069 20.3331011 29.7904346 10.1665506"></polygon>
                                </g>
                            </g>
                        </g>
                        <polygon id="Shape-Copy" stroke="#241DBA" stroke-width="2.7531" fill="#241DBA" fill-rule="nonzero" stroke-linejoin="round" points="190.162301 112.1 157.851481 144.730435 144.237699 130.981988 141.55 133.696273 156.507631 148.801863 157.851481 150.1 159.19533 148.801863 192.85 114.814286"></polygon>
                    </g>
                </g>
                <g id="Group-2" transform="translate(401.000000, 395.000000)">
                    <g id="Group-Copy-27" transform="translate(0.000000, 106.000000)" fill-rule="nonzero">
                        <ellipse id="Oval" fill="#DDDEEE" opacity="0.3125" style="mix-blend-mode: multiply;" cx="42.5999856" cy="153.243868" rx="42.5999856" ry="6.36386838"></ellipse>
                        <ellipse id="Oval" fill="#F2F2F2" cx="47.4957101" cy="46.5599625" rx="1.57093205" ry="1.56841609"></ellipse>
                        <polygon id="Path" fill="#DDDEEE" points="25.229086 146.274523 25.6000573 149.60919 22.2602959 149.238558 22.2602959 145.162882"></polygon>
                        <polygon id="Path" fill="#DDDEEE" points="60.1133891 146.274523 59.7421629 149.60919 63.0821792 149.238558 63.0821792 145.162882"></polygon>
                        <path d="M24.8579439,74.3945072 L23.373503,112.557608 C23.373503,112.557608 18.5490763,141.087306 19.6624057,141.828348 C20.7757352,142.56939 19.6624057,146.64505 19.6624057,146.64505 L25.9712733,147.386095 C25.9712733,147.386095 25.9712733,144.421957 27.4557142,143.310406 C28.9401552,142.198855 42.6712197,89.9561662 42.6712197,89.9561662 L56.7733958,140.346294 C56.7733958,140.346294 56.4022868,143.310419 57.5156162,143.310419 C58.6289457,143.310419 59.0000572,147.386095 59.0000572,147.386095 L65.3089247,147.386095 L65.3089247,143.310419 C65.3089247,143.310419 67.1644746,142.939904 66.0511452,139.97578 C64.9378158,137.011655 60.8556045,74.3945072 60.8556045,74.3945072 L24.8579439,74.3945072 Z" id="Path" fill="#A5A7BF"></path>
                        <path d="M23.002394,146.274523 C23.002394,146.274523 21.1468441,145.162976 20.4046237,145.904008 C19.6624032,146.64504 13.7246471,154.05536 13.7246471,154.05536 C13.7246471,154.05536 5.56021948,159.242577 12.9824267,160.724641 C20.4046339,162.206704 25.9712657,155.166906 26.3423823,154.425875 C26.7134989,153.684843 25.9712733,147.756594 25.6001644,148.497626 C25.2290554,149.238657 24.1157234,148.868143 23.7446145,148.497626 C23.3735055,148.127108 23.002394,146.274523 23.002394,146.274523 Z" id="Path" fill="#18193F"></path>
                        <path d="M62.3400454,146.274523 C62.3400454,146.274523 64.1955953,145.162976 64.9378158,145.904008 C65.6800362,146.64504 71.6177923,154.05536 71.6177923,154.05536 C71.6177923,154.05536 79.78222,159.242577 72.3600128,160.724641 C64.9378056,162.206704 59.3711738,155.166906 59.0000572,154.425875 C58.6289406,153.684843 59.3711661,147.756594 59.7422751,148.497626 C60.113384,149.238657 61.226716,148.868143 61.597825,148.497626 C61.9689339,148.127108 62.3400454,146.274523 62.3400454,146.274523 Z" id="Path" fill="#18193F"></path>
                        <ellipse id="Oval" fill="#EFB7B9" cx="47.3100944" cy="11.9626368" rx="7.60775402" ry="7.59556965"></ellipse>
                        <polygon id="Path" fill="#EFB7B9" points="42.3001388 16.2235267 41.186715 27.7095455 50.0933402 29.5621948 52.3201877 15.8531496"></polygon>
                        <path d="M51.5778576,25.1159382 C51.5778576,25.1159382 49.3511988,29.9326407 41.1867788,24.7454236 L25.9712835,74.3945072 C25.9712835,74.3945072 46.3823297,86.6215195 59.3711763,77.3586316 L54.9178459,27.3390309 L51.5778576,25.1159382 Z" id="Path" fill="#00012B"></path>
                        <path d="M42.6712197,19.5581937 L35.6201317,18.4466474 L34.8779087,23.2633601 C34.8779087,23.2633601 25.2290503,24.3749064 24.1157209,28.0800626 L25.2290503,55.4982142 C25.2290503,55.4982142 21.889062,61.4264631 24.8579413,65.1316193 C24.8579413,65.1316193 20.0335121,75.1355389 23.7446119,76.988117 C23.7446119,76.988117 32.2801383,72.9124412 37.475679,74.0239926 C37.475679,74.0239926 40.4445583,73.2829608 40.4445583,71.0598682 C40.4445583,68.8367755 42.6712197,19.5581937 42.6712197,19.5581937 Z" id="Path" fill="#00012B"></path>
                        <path d="M51.2067487,20.2992357 L55.2889625,21.410782 L55.6600715,26.5979991 C55.6600715,26.5979991 65.6800388,32.8967651 66.0511503,36.6019213 C66.4222618,40.3070775 58.6289508,58.0918215 58.6289508,58.0918215 C58.6289508,58.0918215 61.5978301,63.2790412 60.4845006,66.6136802 C60.4845006,66.6136802 65.3089298,76.2470853 62.3400505,78.8406951 C62.3400505,78.8406951 56.7734009,80.3227561 56.031183,78.0996634 C55.288965,75.8765707 48.6089834,50.3109971 51.5778627,38.0839822 C51.5778576,38.0839822 48.6089783,22.5223283 51.2067487,20.2992357 Z" id="Path" fill="#00012B"></path>
                        <path d="M55.4745119,32.3657054 L55.3348304,32.3657054 L55.3348304,28.5452792 C55.3348317,27.9588411 55.1014968,27.3964217 54.686157,26.9817476 C54.2708173,26.5670735 53.7074953,26.334115 53.1201165,26.334115 L45.0130556,26.334115 C44.4256768,26.334115 43.8623549,26.5670735 43.4470151,26.9817476 C43.0316753,27.3964217 42.7983418,27.9588411 42.7983418,28.5452792 L42.7983418,49.5044404 C42.7983418,50.0908781 43.0316763,50.6532969 43.447016,51.0679704 C43.8623557,51.482644 44.4256772,51.7156022 45.0130556,51.7156022 L53.1201165,51.7156022 C53.7074949,51.7156022 54.2708164,51.482644 54.6861561,51.0679704 C55.1014958,50.6532969 55.334831,50.0908781 55.3348304,49.5044404 L55.3348304,35.0851493 L55.4745119,35.0851493 L55.4745119,32.3657054 Z" id="Path" fill="#FFFFFF"></path>
                        <path d="M59.0000572,47.3468727 C59.0000572,47.3468727 56.0311753,37.7134676 51.5778576,40.6775819 C47.1245399,43.6416962 54.5467369,51.7930479 54.5467369,51.7930479 L59.0000572,47.3468727 Z" id="Path" fill="#EFB7B9"></path>
                        <path d="M38.589011,40.3070749 C38.589011,40.3070749 43.7845491,34.0083115 46.3823195,36.9724359 C48.9800898,39.9365603 41.9289993,46.6058409 41.9289993,46.6058409 L38.589011,40.3070749 Z" id="Path" fill="#EFB7B9"></path>
                        <path d="M25.2290528,27.7095455 C25.2290528,27.7095455 23.373503,27.3390283 22.2601735,30.6736699 C21.1468441,34.0083115 17.0646354,46.6058384 17.0646354,48.8289311 C17.0646354,51.0520238 18.5490763,59.9443971 26.7134938,58.4623361 C34.8779112,56.9802752 44.5267696,46.6058384 44.5267696,46.6058384 L39.3312315,38.8250114 L28.1979322,45.4942921 L25.2290528,27.7095455 Z" id="Path" fill="#00012B"></path>
                        <polygon id="Path" fill="#000000" opacity="0.1" points="26.8325488 37.3151684 28.3834892 45.3089508 39.8879331 38.6398712 29.1256867 42.7155471 26.7530003 36.8381328"></polygon>
                        <polygon id="Path" fill="#000000" opacity="0.1" points="59.5568047 45.3089508 61.0411998 46.4205913 61.7833973 41.2332749"></polygon>
                        <path d="M25.0434984,59.3886277 C25.0434984,59.3886277 35.9440138,56.4279474 41.0703881,49.9422033 C41.0703881,49.9422033 35.8056862,58.647596 25.0434984,59.3886277 Z" id="Path" fill="#000000" opacity="0.1"></path>
                        <path d="M52.5056326,52.7193471 C52.5056326,52.7193471 54.800981,63.9348938 60.7043961,64.2553681 C60.7043961,64.2553681 53.6189696,66.4284229 52.5056326,52.7193471 Z" id="Path" fill="#000000" opacity="0.1"></path>
                        <path d="M64.5667043,35.1198578 C64.5667043,35.1198578 65.6800337,35.8608896 66.4222542,39.1955337 C67.1644746,42.5301778 71.9889038,55.1277022 70.1333539,58.0918266 C68.277804,61.0559511 65.3089247,67.7252317 59.0000572,63.2790463 L52.6911871,51.7930632 L59.0000572,45.8648143 L61.597825,47.7173924 L64.5667043,35.1198578 Z" id="Path" fill="#00012B"></path>
                        <path d="M40.0066312,13.889051 C40.0066312,13.889051 33.6261802,3.56487353 40.422221,3.02790559 C42.6901446,2.86953419 44.9046792,2.26708972 46.9395872,1.25491404 C49.192316,0.110418134 52.027972,-0.759509947 53.5369608,1.00229647 C54.1954732,1.80789924 54.9631937,2.5179748 55.8179828,3.11204612 C57.143518,3.98971775 58.6772153,5.41251072 57.8279486,6.93874454 L56.4356589,9.44084958 L54.4864407,14.4450648 C54.9403617,12.2866086 54.9517789,10.474324 53.7902921,9.57985429 C53.7902921,9.57985429 47.3100944,12.3331438 44.0443081,7.3557612 C40.3884766,4.61718754 39.2253606,13.2370014 40.0066312,13.889051 Z" id="Path" fill="#000230"></path>
                    </g>
                    <text id="3" font-family="Gilroy-ExtraBold, Gilroy" font-size="30.6" font-weight="600" line-spacing="14.28" letter-spacing="0.218571416" fill="#FFFFFF">
                        <tspan x="86" y="258">3</tspan>
                    </text>
                    <text id="Recarga-saldo-en-cua" font-family="Gilroy-ExtraBold, Gilroy" font-size="15.3" font-weight="600" line-spacing="17" letter-spacing="0.109285708" fill="#FFFFFF">
                        <tspan x="115" y="234">Recarga saldo en </tspan>
                        <tspan x="115" y="251">cualquier momento </tspan>
                        <tspan x="115" y="268">durante el evento</tspan>
                    </text>
                    <g id="Group-25" transform="translate(3.000000, 0.000000)">
                        <g id="Group-65-Copy-3">
                            <g id="Group-65-Copy-2">
                                <g id="Group-64">
                                    <g id="Group-103" transform="translate(80.558100, 12.448800)">
                                        <path d="M73.0445334,3.13374361 C71.8915351,3.13374361 70.957133,4.06814575 70.957133,5.22059341 L70.957133,6.11369905 C70.957133,7.75895161 69.6229807,9.09310387 67.9777282,9.09310387 L24.5266521,9.09310387 C22.8808489,9.09310387 21.5472473,7.75895161 21.5472473,6.11369905 L21.5472473,4.90343629 C21.5472473,3.92608579 20.7549051,3.13374361 19.7775546,3.13374361 L16.2359668,3.13374361 C8.93309369,3.13374361 3.01337807,9.05345923 3.01337807,16.3557817 L3.01337807,169.753558 C3.01337807,177.055881 8.93309369,182.975596 16.2359668,182.975596 L76.2684135,182.975596 C83.5707359,182.975596 89.4910022,177.055881 89.4910022,169.753558 L89.4910022,16.3557817 C89.4910022,9.05345923 83.5707359,3.13374361 76.2684135,3.13374361 L73.0445334,3.13374361 Z" id="Fill-1-Copy-3" fill="#EEEFF7"></path>
                                        <g id="Group-5-Copy-4">
                                            <mask id="mask-12" fill="white">
                                                <use xlink:href="#path-11"></use>
                                            </mask>
                                            <g id="Clip-4"></g>
                                            <path d="M89.20044,169.508973 C89.20044,176.811295 83.3710261,182.805895 76.0687036,182.805895 L16.0357063,182.805895 C8.73338382,182.805895 2.7531,176.811295 2.7531,169.508973 L2.7531,16.1111963 C2.7531,8.80887382 8.73338382,2.75315506 16.0357063,2.75315506 L19.5772941,2.75315506 C20.5546446,2.75315506 21.47418,3.68150038 21.47418,4.65885088 L21.47418,5.86911364 C21.47418,7.5143662 22.681139,8.80997506 24.3269422,8.80997506 L67.7774677,8.80997506 C69.4232708,8.80997506 71.02998,7.5143662 71.02998,5.86911364 L71.02998,4.97655862 C71.02998,3.82356034 71.6918252,2.75315506 72.8442729,2.75315506 L76.0687036,2.75315506 C83.3710261,2.75315506 89.20044,8.80887382 89.20044,16.1111963 L89.20044,169.508973 Z M92.50416,15.1872559 C92.50416,6.79966144 85.7045536,5.5062e-05 77.3169592,5.5062e-05 L15.1872008,5.5062e-05 C6.79960638,5.5062e-05 0,6.79966144 0,15.1872559 L0,170.922414 C0,179.310009 6.79960638,186.109615 15.1872008,186.109615 L77.3169592,186.109615 C85.7045536,186.109615 92.50416,179.310009 92.50416,170.922414 L92.50416,15.1872559 Z" id="Fill-3" fill="#7E8FA4" mask="url(#mask-12)"></path>
                                        </g>
                                    </g>
                                    <g id="Group-63">
                                        <path d="M29.0616996,17.216756 L102.431815,2.19873181 C107.273047,1.20778688 112.000961,4.32906148 112.991906,9.17029374 C113.112762,9.76073453 113.173654,10.3618754 113.173654,10.9645583 L113.173654,62.9234454 C113.173654,67.3297235 109.965713,71.0800984 105.612665,71.7629295 L32.2425499,83.2719671 C27.3606376,84.0377573 22.7822702,80.700981 22.0164801,75.8190688 C21.9445286,75.3603781 21.9083891,74.8967827 21.9083891,74.4324831 L21.9083891,25.9825825 C21.9083891,21.732588 24.8980336,18.0690109 29.0616996,17.216756 Z" id="Path-9" fill="#7E8FA4"></path>
                                        <path d="M22.3774499,17.2259762 L119.762887,7.53241478 C124.680196,7.04295514 129.063248,10.6324365 129.552708,15.5497459 C129.582022,15.8442514 129.596707,16.14003 129.596707,16.4359909 L129.596707,66.1843868 C129.596707,70.7256996 126.194695,74.5467638 121.68385,75.0719318 L24.2984136,86.4098794 C19.389958,86.9813387 14.9476093,83.4655085 14.37615,78.557053 C14.3361636,78.2135965 14.31612,77.8681108 14.31612,77.5223344 L14.31612,26.1295524 C14.31612,21.5311561 17.8016659,17.6814411 22.3774499,17.2259762 Z" id="Path-8" fill="#A5B6CC"></path>
                                        <rect id="Rectangle" fill="#C5CFDE" x="0" y="17.290665" width="125.26605" height="71.5806" rx="8.947575"></rect>
                                        <path d="M105.581385,31.606785 L112.73912,38.764785 L112.73912,69.185785 L105.581385,76.34466 L21.9083891,76.34466 L14.31612,68.7523909 L14.31612,39.1990541 L21.9083891,31.606785 L105.581385,31.606785 Z" id="Combined-Shape" fill="#EEEFF7"></path>
                                        <circle id="Oval" fill="#7E8FA4" cx="34.000785" cy="54.87048" r="3.57903"></circle>
                                        <circle id="Oval-Copy-8" fill="#7E8FA4" cx="94.844295" cy="54.87048" r="3.57903"></circle>
                                        <g id="Group-59" transform="translate(50.274000, 40.698000)">
                                            <circle id="Oval-Copy-12" stroke="#A5A7BF" stroke-width="1.7179344" fill="#241DBA" cx="13.7434752" cy="13.7434752" r="13.7434752"></circle>
                                            <text id="-copy" font-family="Gilroy-Regular" font-size="20.6152128" font-weight="normal" line-spacing="13.7434752" fill="#FFFFFF">
                                                <tspan x="6.8717376" y="22.8717376"></tspan>
                                            </text>
                                        </g>
                                    </g>
                                </g>
                                <path d="M103.55,117.8 L163.4,117.8 L163.4,167.2 L103.55,167.2 L103.55,117.8 Z" id="Rectangle" stroke="#241DBA" stroke-width="0.95" stroke-dasharray="4.75,4.75"></path>
                                <g id="flecha" transform="translate(121.419797, 89.333930) scale(1, -1) rotate(-53.000000) translate(-121.419797, -89.333930) translate(105.419797, 78.833930)" stroke="#7E8FA4" stroke-linecap="round" stroke-linejoin="round" stroke-width="2.7531">
                                    <path d="M0,0 C4.95558,7.97237495 15.5989868,11.3612251 31.9302204,10.1665506" id="Path-4"></path>
                                    <polygon id="Path-5" fill="#7E8FA4" points="22.5166069 0.982950822 31.9302204 10.150389 22.5166069 20.3331011 29.7904346 10.1665506"></polygon>
                                </g>
                            </g>
                        </g>
                        <polygon id="Shape-Copy" stroke="#241DBA" stroke-width="2.7531" fill="#241DBA" fill-rule="nonzero" stroke-linejoin="round" points="190.162301 112.1 157.851481 144.730435 144.237699 130.981988 141.55 133.696273 156.507631 148.801863 157.851481 150.1 159.19533 148.801863 192.85 114.814286"></polygon>
                    </g>
                </g>
                <g id="Group-36" transform="translate(805.000000, 339.000000)">
                    <text id="5-copy" font-family="Gilroy-ExtraBold, Gilroy" font-size="30.6" font-weight="600" line-spacing="14.28" letter-spacing="0.218571416" fill="#FFFFFF">
                        <tspan x="3.55271368e-14" y="236.30756">5</tspan>
                    </text>
                    <text id="Solicita-reembolso-d" font-family="Gilroy-ExtraBold, Gilroy" font-size="15.3" font-weight="600" line-spacing="14.28" letter-spacing="0.109285708" fill="#FFFFFF">
                        <tspan x="26.928" y="212.92356">Solicita </tspan>
                        <tspan x="26.928" y="227.20356">reembolso del </tspan>
                        <tspan x="26.928" y="241.48356">saldo restante</tspan>
                    </text>
                    <g id="Group-61" transform="translate(3.848000, 0.000000)">
                        <g id="Group-60" transform="translate(46.020000, 69.600000)">
                            <polygon id="Rectangle" fill="#E5E7F4" points="2.4 44.4 49.2 44.4 49.2 114 4.29403858 114 4.29403858 76.9830012 2.4 59.3018786"></polygon>
                            <g id="Group" stroke-linecap="round" stroke-linejoin="round" stroke-width="3.6">
                                <path d="M0.552,58.17096 L0.552,10.09056 C0.552,6.79416 3.22416,4.122 6.52056,4.122 L6.52056,4.122 C9.81696,4.122 12.48912,6.79416 12.48912,10.09056 L12.48912,51.09312" id="Path" stroke="#7E8FA4" fill="#E0E4EC"></path>
                                <path d="M24.42624,51.09336 L24.42624,10.09056 C24.42624,6.79416 27.0984,4.122 30.3948,4.122 L30.3948,4.122 C33.6912,4.122 36.36336,6.79416 36.36336,10.09056 L36.36336,51.09336" id="Path" stroke="#DDDEEE" fill="#E5E7F4"></path>
                                <path d="M36.36312,51.09336 L36.36312,16.64424 C36.36312,13.34784 39.03528,10.67568 42.33168,10.67568 C45.62808,10.67568 48.30024,13.34784 48.30024,16.64424 L48.30024,114" id="Path" stroke="#7E8FA4" fill="#E0E4EC"></path>
                                <path d="M12.48912,51.09336 L12.48912,6.1116 C12.48912,2.8152 15.16128,0.14304 18.45768,0.14304 L18.45768,0.14304 C21.75408,0.14304 24.42624,2.8152 24.42624,6.1116 L24.42624,51.09336" id="Path" stroke="#7E8FA4" fill="#E0E4EC"></path>
                            </g>
                        </g>
                        <g id="Group-63" transform="translate(19.440000, 5.041973)">
                            <mask id="mask-14" fill="white">
                                <use xlink:href="#path-13"></use>
                            </mask>
                            <g id="Mask"></g>
                            <g mask="url(#mask-14)">
                                <g transform="translate(48.300000, 34.300000) rotate(-270.000000) translate(-48.300000, -34.300000) translate(-27.200000, -9.200000)">
                                    <rect id="Rectangle" fill="#C5CFDE" x="0" y="0.6408" width="150.696" height="86.112" rx="10.764"></rect>
                                    <path d="M127.0152,17.8632 L135.6264,26.4742 L135.6264,63.0712 L127.0152,71.6832 L26.3559569,71.6832 L17.2224,62.5496431 L17.2224,26.9967569 L26.3559569,17.8632 L127.0152,17.8632 Z" id="Combined-Shape" fill="#EEEFF7"></path>
                                    <circle id="Oval" fill="#7E8FA4" cx="40.9032" cy="45.8496" r="4.3056"></circle>
                                    <circle id="Oval-Copy-8" fill="#7E8FA4" cx="114.0984" cy="45.8496" r="4.3056"></circle>
                                    <g id="Group-59" stroke-width="1" fill="none" transform="translate(60.480000, 28.800000)">
                                        <circle id="Oval-Copy-12" stroke="#7E8FA4" stroke-width="2.066688" fill="#241DBA" cx="16.533504" cy="16.533504" r="16.533504"></circle>
                                        <text id="-copy" font-family="Gilroy-Regular" font-size="24.800256" font-weight="normal" line-spacing="16.533504" fill="#FFFFFF">
                                            <tspan x="8.266752" y="27.266752"></tspan>
                                        </text>
                                    </g>
                                </g>
                            </g>
                        </g>
                        <line x1="1.08" y1="1.08" x2="132.84" y2="1.08" id="Line-9" stroke="#7E8FA4" stroke-width="8.64" stroke-linecap="square" transform="translate(66.960000, 1.080000) rotate(-180.000000) translate(-66.960000, -1.080000) "></line>
                        <path d="M73.95696,147.43176 C73.95696,147.43176 72.31848,130.11144 46.572,130.11144 L38.37984,122.85552 L35.41608,111.09504 C34.22424,106.27632 29.2584,103.42104 24.49416,104.8152 L23.4,105.06696 L27.05352,123.47328 C27.26928,124.6152 27.65616,125.71824 28.20096,126.74472 L36.13776,141.9024 C36.84528,143.23512 37.80648,144.41664 38.96712,145.38072 L48.87888,153.41808 C50.38272,154.66704 51.25296,156.52056 51.25296,158.4756 L51.25296,183.24264" id="Path" stroke="#7E8FA4" stroke-width="3.6" fill="#E0E4EC" stroke-linecap="round" stroke-linejoin="round"></path>
                    </g>
                </g>
            </g>
        </g>
    </g>
</svg>