<svg xmlns="http://www.w3.org/2000/svg" xmlns:xlink="http://www.w3.org/1999/xlink" width="107.845" height="57.143" viewBox="0 0 107.845 57.143">
  <defs>
    <linearGradient id="linear-gradient" x1="-2.717" y1="2.778" x2="0.701" y2="0.359" gradientUnits="objectBoundingBox">
      <stop offset="0.024" stop-color="#c700ab"/>
      <stop offset="0.511" stop-color="#67009e"/>
      <stop offset="0.557" stop-color="#6003a1"/>
      <stop offset="0.85" stop-color="#3516b3"/>
      <stop offset="1" stop-color="#241dba"/>
    </linearGradient>
    <linearGradient id="linear-gradient-2" x1="-0.058" y1="0.846" x2="0.896" y2="0.255" xlink:href="#linear-gradient"/>
  </defs>
  <g id="Logotipo_Gofun-01" data-name="Logotipo Gofun-01" transform="translate(-0.756 -0.6)">
    <g id="Group">
      <path id="Path" d="M2.072,6.972a21.215,21.215,0,0,1,3.6,2.1,22.529,22.529,0,0,1,2.4,2.1c.5.5.9,1,1.4,1.5a3.545,3.545,0,0,0,2.8,1.3,4.006,4.006,0,0,0,2.3-.8,3.557,3.557,0,0,0,.5-5.1c-.6-.7-1.2-1.4-1.8-2-1-1-2.1-1.9-3.2-2.8a29.172,29.172,0,0,0-4.8-2.9,3.684,3.684,0,0,0-4.9,1.7A3.625,3.625,0,0,0,2.072,6.972Z" transform="translate(36.228 2.928)" fill="url(#linear-gradient)"/>
      <path id="Shape" d="M28.627,57.143h0c-.525,0-1.058-.015-1.582-.043a28.716,28.716,0,0,1-27-27A28.533,28.533,0,0,1,28.544,0a3.65,3.65,0,1,1-.1,7.3,21.312,21.312,0,0,0-.9,42.6c.332.015.669.023,1,.023a21.269,21.269,0,0,0,21-17.622h-7.3a14.176,14.176,0,1,1-13.7-17.9,13.989,13.989,0,0,1,4.658.8,14.325,14.325,0,0,1,9.043,9.7h11.1a3.655,3.655,0,0,1,3.7,3.6A28.563,28.563,0,0,1,28.627,57.143ZM28.544,21.7a6.9,6.9,0,1,0,6.9,6.9A6.908,6.908,0,0,0,28.544,21.7Z" transform="translate(0.756 0.6)" fill="url(#linear-gradient-2)"/>
    </g>
    <g id="Group-2" data-name="Group" transform="translate(65 5)">
      <path id="Path-2" data-name="Path" d="M9.9,8.1c0,2.1-1.1,3.1-2.8,3.1A2.492,2.492,0,0,1,4.5,8.5V0H0V9.2c0,4,2.6,6.2,5.6,6.2a5.125,5.125,0,0,0,4.3-1.8V15h4.5V0H9.9Z" transform="translate(11.5 31.6)" fill="#000230"/>
      <path id="Path-3" data-name="Path" d="M8.8,0A5.125,5.125,0,0,0,4.5,1.8V.4H0v15H4.5V7.2c0-2.1,1.1-3.1,2.8-3.1A2.492,2.492,0,0,1,9.9,6.8v8.5h4.5V6.1C14.4,2.2,11.8,0,8.8,0Z" transform="translate(29.2 31.1)" fill="#000230"/>
      <path id="Path-4" data-name="Path" d="M1.3,6.142v.2H0v4.3H1.3v10.7H5.8v-10.6H8.5v-4.3H5.7v-.2c.1-1.6,1.2-2,2.8-1.9V.042C3.6-.358,1.3,2.142,1.3,6.142Z" transform="translate(0.5 25.158)" fill="#000230"/>
      <path id="Shape-2" data-name="Shape" d="M7.9,15.8A7.791,7.791,0,0,1,0,7.9,7.791,7.791,0,0,1,7.9,0a7.853,7.853,0,0,1,7.9,7.9,7.853,7.853,0,0,1-7.9,7.9Zm0-11.4A3.267,3.267,0,0,0,4.5,7.9a3.338,3.338,0,0,0,3.4,3.5,3.338,3.338,0,0,0,3.4-3.5A3.267,3.267,0,0,0,7.9,4.4Z" transform="translate(23.9 6.5)" fill="#000230"/>
      <path id="Path-5" data-name="Path" d="M21.7,11.6V9.8H13.1V14h3.7c-.8,2-2.6,3.2-5.4,3.2-4.1,0-6.6-2.6-6.6-6.2A6.013,6.013,0,0,1,11,4.7a6.644,6.644,0,0,1,3.6,1l3.2-3.5A11.072,11.072,0,0,0,11,0a10.9,10.9,0,1,0,.3,21.8C17.3,21.9,21.7,18,21.7,11.6Z" transform="translate(0.3 0.4)" fill="#000230"/>
    </g>
  </g>
</svg>
