<?xml version="1.0" encoding="UTF-8"?>
<svg width="391px" height="413px" viewBox="0 0 391 413" version="1.1" xmlns="http://www.w3.org/2000/svg" xmlns:xlink="http://www.w3.org/1999/xlink">
    <!-- Generator: Sketch 63.1 (92452) - https://sketch.com -->
    <title>validacion_entradas_festivales_eventos_deportivos</title>
    <desc>Created with Sketch.</desc>
    <g id="Soluciones-Gofun" stroke="none" stroke-width="1" fill="none" fill-rule="evenodd">
        <g id="Solucion---Gofun-festivales-de-musica" transform="translate(-213.000000, -2506.000000)">
            <g id="validacion_entradas_festivales_eventos_deportivos" transform="translate(213.000000, 2506.000000)">
                <rect id="Rectangle" fill="#FFFFFF" x="0" y="47" width="275" height="366"></rect>
                <g id="Group-18" transform="translate(98.000000, 104.000000)">
                    <g id="Group-5">
                        <rect id="Rectangle" fill="#E0E4EC" x="0" y="-2.494005e-13" width="151.2" height="142.29" rx="2.295"></rect>
                        <rect id="Rectangle" stroke="#FFFFFF" stroke-width="5.4" x="18.9" y="18.9" width="27" height="27"></rect>
                        <rect id="Rectangle-Copy-3" stroke="#FFFFFF" stroke-width="5.4" x="18.9" y="97.2" width="27" height="27"></rect>
                        <rect id="Rectangle-Copy-2" stroke="#FFFFFF" stroke-width="5.4" x="105.3" y="18.9" width="27" height="27"></rect>
                        <rect id="Rectangle-Copy-4" fill="#FFFFFF" x="105.3" y="97.2" width="18.9" height="18.9"></rect>
                    </g>
                </g>
                <line x1="44.5" y1="287.5" x2="199.5" y2="287.5" id="Line-4" stroke="#E0E4EC" stroke-width="11" stroke-linecap="round"></line>
                <line x1="44.5" y1="311.5" x2="199.5" y2="311.5" id="Line-4-Copy" stroke="#E0E4EC" stroke-width="11" stroke-linecap="round"></line>
                <line x1="44.5" y1="336.5" x2="199.5" y2="336.5" id="Line-4-Copy-2" stroke="#E0E4EC" stroke-width="11" stroke-linecap="round"></line>
                <g id="Group-6" transform="translate(181.000000, 0.000000)">
                    <g id="Group-8-Copy">
                        <rect id="Rectangle" fill="#C5CFDE" x="0" y="0" width="210" height="351.6" rx="14.4"></rect>
                        <line x1="2.4" y1="34.8" x2="34.8" y2="2.4" id="Line-7" stroke="#3F3D56" stroke-width="2.4" stroke-linecap="square"></line>
                        <line x1="7.2" y1="22.8" x2="22.8" y2="7.2" id="Line-7-Copy" stroke="#16BE5A" stroke-width="3.6" stroke-linecap="round"></line>
                        <rect id="Rectangle" fill="#FFFFFF" x="20.4" y="46.8" width="169.2" height="252"></rect>
                        <rect id="Rectangle" stroke="#3F3D56" stroke-width="4.8" x="2.4" y="2.4" width="205.2" height="346.8" rx="14.4"></rect>
                        <polyline id="Path-3" stroke="#FFFFFF" stroke-width="1.8" stroke-linejoin="round" points="68.7237331 315.875969 80.9746622 315.875969 76.5080622 321.497597 80.9746622 327.151651 68.7237331 327.151651"></polyline>
                        <path d="M65.8144094,315.875969 L61.9725705,319.844502 C61.0717142,320.775066 61.0717142,322.252555 61.9725705,323.183119 L65.8144094,327.151651 L65.8144094,327.151651" id="Path-6" stroke="#FFFFFF" stroke-width="1.8"></path>
                        <polyline id="Path-7" stroke="#FFFFFF" stroke-width="1.8" points="131.467555 321.270793 131.467555 319.933979 142.353861 313.77372 152.37342 319.933979 152.37342 321.270793"></polyline>
                        <polyline id="Path-10" stroke="#FFFFFF" stroke-width="1.8" points="131.467555 324.019447 131.467555 327.160414 152.37342 327.160414 152.37342 324.019447"></polyline>
                    </g>
                    <g id="Group-5" transform="translate(63.000000, 125.000000)">
                        <rect id="Rectangle" fill="#C5CFDE" x="0" y="-1.38555833e-13" width="84" height="79.05" rx="1.275"></rect>
                        <rect id="Rectangle" stroke="#FFFFFF" stroke-width="3" x="10.5" y="10.5" width="15" height="15"></rect>
                        <rect id="Rectangle-Copy-3" stroke="#FFFFFF" stroke-width="3" x="10.5" y="54" width="15" height="15"></rect>
                        <rect id="Rectangle-Copy-2" stroke="#FFFFFF" stroke-width="3" x="58.5" y="10.5" width="15" height="15"></rect>
                        <rect id="Rectangle-Copy-4" fill="#FFFFFF" x="58.5" y="54" width="10.5" height="10.5"></rect>
                    </g>
                    <polyline id="Path-2" stroke="#7E8FA4" stroke-width="3" points="122 111 163.950684 111 163.950684 145.318425"></polyline>
                    <polyline id="Path-2-Copy-2" stroke="#7E8FA4" stroke-width="3" transform="translate(142.975342, 203.159212) scale(1, -1) translate(-142.975342, -203.159212) " points="122 186 163.950684 186 163.950684 220.318425"></polyline>
                    <polyline id="Path-2-Copy" stroke="#7E8FA4" stroke-width="3" transform="translate(69.975342, 128.159212) scale(-1, 1) translate(-69.975342, -128.159212) " points="49 111 90.9506845 111 90.9506845 145.318425"></polyline>
                    <polyline id="Path-2-Copy-3" stroke="#7E8FA4" stroke-width="3" transform="translate(69.975342, 203.159212) scale(-1, -1) translate(-69.975342, -203.159212) " points="49 186 90.9506845 186 90.9506845 220.318425"></polyline>
                    <rect id="Rectangle" fill="#FFFFFF" opacity="0.620768229" x="55" y="165" width="100" height="43"></rect>
                    <line x1="51.5" y1="164.5" x2="163.5" y2="164.5" id="Line-2" stroke="#FF0000" stroke-linecap="square"></line>
                </g>
            </g>
        </g>
    </g>
</svg>