<?xml version="1.0" encoding="UTF-8"?>
<svg width="532px" height="281px" viewBox="0 0 532 281" version="1.1" xmlns="http://www.w3.org/2000/svg" xmlns:xlink="http://www.w3.org/1999/xlink">
    <!-- Generator: Sketch 63.1 (92452) - https://sketch.com -->
    <title>Pago_tarjeta_bancaria_festival</title>
    <desc>Created with Sketch.</desc>
    <defs>
        <polygon id="path-1" points="0 0.514383211 19.3813466 0.514383211 19.3813466 10.3605821 0 10.3605821"></polygon>
    </defs>
    <g id="Gofun-versión-2---HACER-LO-ULTIMO" stroke="none" stroke-width="1" fill="none" fill-rule="evenodd">
        <g id="Pago-tarjeta--CJ" transform="translate(-383.000000, -454.000000)">
            <g id="Pago_tarjeta_bancaria_festival" transform="translate(377.000000, 454.000000)">
                <text id="Posibilidad-de-combi" font-family="Montserrat-Medium, Montserrat" font-size="15" font-weight="400" letter-spacing="0.120000002" fill="#FFFFFF">
                    <tspan x="13.7325" y="190">POSIBILIDAD DE COMBINAR </tspan>
                    <tspan x="9.86999998" y="209">CON PULSERAS O SOPORTES </tspan>
                    <tspan x="5.36249998" y="228">NFC PARA FUNCIONALIDADES </tspan>
                    <tspan x="36.4725" y="247">DE ACCESOS Y PAGOS </tspan>
                </text>
                <g id="Group-3" transform="translate(204.000000, 0.000000)">
                    <g id="Group" transform="translate(169.000000, 48.000000)">
                        <path d="M71.08284,45.02928 L118.42164,45.02928 C119.93724,45.02928 121.16604,46.25688 121.16604,47.77248 L121.16604,130.55928 C121.16604,132.07488 119.93724,133.30368 118.42164,133.30368 L71.08284,133.30368 C69.56724,133.30368 68.33844,132.07488 68.33844,130.55928 L68.33844,47.77248 C68.33844,46.25688 69.56724,45.02928 71.08284,45.02928" id="Fill-678" fill="#241DBA"></path>
                        <path d="M116.36424,83.44884 L83.21064,83.44884 L83.21064,102.29964 C83.20944,105.34644 80.74224,107.81364 77.69544,107.81484 L73.14144,107.81484 L73.14144,128.27244 L116.36424,128.27244 L116.36424,83.44884 Z" id="Fill-680" fill="#6B60A7"></path>
                        <path d="M77.94396,86.87928 L84.11916,86.87928 C85.25556,86.87928 86.17716,87.80088 86.17716,88.93728 L86.17716,95.11248 C86.17716,96.24888 85.25556,97.17048 84.11916,97.17048 L77.94396,97.17048 C76.80756,97.17048 75.88596,96.24888 75.88596,95.11248 L75.88596,88.93728 C75.88596,87.80088 76.80756,86.87928 77.94396,86.87928" id="Fill-682" fill="#C4CED6"></path>
                        <path d="M77.94396,112.95 L84.11916,112.95 C85.25556,112.95 86.17716,113.8716 86.17716,115.008 L86.17716,121.1832 C86.17716,122.3196 85.25556,123.2412 84.11916,123.2412 L77.94396,123.2412 C76.80756,123.2412 75.88596,122.3196 75.88596,121.1832 L75.88596,115.008 C75.88596,113.8716 76.80756,112.95 77.94396,112.95" id="Fill-684" fill="#C4CED6"></path>
                        <path d="M77.94396,99.91464 L84.11916,99.91464 C85.25556,99.91464 86.17716,100.83624 86.17716,101.97264 L86.17716,108.14784 C86.17716,109.28424 85.25556,110.20584 84.11916,110.20584 L77.94396,110.20584 C76.80756,110.20584 75.88596,109.28424 75.88596,108.14784 L75.88596,101.97264 C75.88596,100.83624 76.80756,99.91464 77.94396,99.91464" id="Fill-686" fill="#C4CED6"></path>
                        <path d="M91.66536,86.87928 L97.84056,86.87928 C98.97696,86.87928 99.89856,87.80088 99.89856,88.93728 L99.89856,95.11248 C99.89856,96.24888 98.97696,97.17048 97.84056,97.17048 L91.66536,97.17048 C90.52896,97.17048 89.60736,96.24888 89.60736,95.11248 L89.60736,88.93728 C89.60736,87.80088 90.52896,86.87928 91.66536,86.87928" id="Fill-688" fill="#C4CED6"></path>
                        <path d="M91.66536,112.95 L97.84056,112.95 C98.97696,112.95 99.89856,113.8716 99.89856,115.008 L99.89856,121.1832 C99.89856,122.3196 98.97696,123.2412 97.84056,123.2412 L91.66536,123.2412 C90.52896,123.2412 89.60736,122.3196 89.60736,121.1832 L89.60736,115.008 C89.60736,113.8716 90.52896,112.95 91.66536,112.95" id="Fill-690" fill="#C4CED6"></path>
                        <path d="M91.66536,99.91464 L97.84056,99.91464 C98.97696,99.91464 99.89856,100.83624 99.89856,101.97264 L99.89856,108.14784 C99.89856,109.28424 98.97696,110.20584 97.84056,110.20584 L91.66536,110.20584 C90.52896,110.20584 89.60736,109.28424 89.60736,108.14784 L89.60736,101.97264 C89.60736,100.83624 90.52896,99.91464 91.66536,99.91464" id="Fill-692" fill="#C4CED6"></path>
                        <path d="M105.38676,86.87928 L111.56196,86.87928 C112.69836,86.87928 113.61996,87.80088 113.61996,88.93728 L113.61996,95.11248 C113.61996,96.24888 112.69836,97.17048 111.56196,97.17048 L105.38676,97.17048 C104.25036,97.17048 103.32876,96.24888 103.32876,95.11248 L103.32876,88.93728 C103.32876,87.80088 104.25036,86.87928 105.38676,86.87928" id="Fill-694" fill="#C4CED6"></path>
                        <path d="M105.38676,112.95 L111.56196,112.95 C112.69836,112.95 113.61996,113.8716 113.61996,115.008 L113.61996,121.1832 C113.61996,122.3196 112.69836,123.2412 111.56196,123.2412 L105.38676,123.2412 C104.25036,123.2412 103.32876,122.3196 103.32876,121.1832 L103.32876,115.008 C103.32876,113.8716 104.25036,112.95 105.38676,112.95" id="Fill-696" fill="#C4CED6"></path>
                        <path d="M105.38676,99.91464 L111.56196,99.91464 C112.69836,99.91464 113.61996,100.83624 113.61996,101.97264 L113.61996,108.14784 C113.61996,109.28424 112.69836,110.20584 111.56196,110.20584 L105.38676,110.20584 C104.25036,110.20584 103.32876,109.28424 103.32876,108.14784 L103.32876,101.97264 C103.32876,100.83624 104.25036,99.91464 105.38676,99.91464" id="Fill-698" fill="#C4CED6"></path>
                        <polyline id="Fill-700" fill="#7E8FA3" points="72.45552 56.69172 117.04992 56.69172 117.04992 53.94732 72.45552 53.94732"></polyline>
                        <polygon id="Fill-702" fill="#FFFFFF" points="75.20004 54.63348 114.99204 54.63348 114.99204 24.44628 75.20004 24.44628"></polygon>
                        <polygon id="Fill-704" fill="#7E8FA3" points="80.34444 31.65108 109.84524 31.65108 109.84524 30.96348 80.34444 30.96348"></polygon>
                        <polygon id="Fill-705" fill="#7E8FA3" points="80.34444 35.76708 109.84524 35.76708 109.84524 35.08068 80.34444 35.08068"></polygon>
                        <polygon id="Fill-706" fill="#7E8FA3" points="80.34444 39.88428 109.84524 39.88428 109.84524 39.19788 80.34444 39.19788"></polygon>
                        <polygon id="Fill-707" fill="#7E8FA3" points="80.34444 44.00028 109.84524 44.00028 109.84524 43.31388 80.34444 43.31388"></polygon>
                        <path d="M97.76148,74.47032 C97.99068,74.79432 98.41308,74.84952 98.70468,74.59512 C98.99628,74.33952 99.04668,73.87032 98.81748,73.54752 C98.76948,73.48152 97.67388,71.90352 98.80308,70.55832 C98.92428,70.41432 98.98308,70.23192 98.98308,70.04952 C98.98308,69.85032 98.91108,69.65112 98.76948,69.50472 C98.49828,69.22392 98.07348,69.24072 97.82028,69.54192 C96.29508,71.35752 97.11468,73.55952 97.76148,74.47032 M94.06428,65.40792 C91.26948,68.93832 91.41828,72.35952 92.03508,74.60832 C92.69508,77.01192 94.00308,78.57552 94.05828,78.64032 C94.31268,78.94032 94.73748,78.95472 95.00748,78.67272 C95.27868,78.39072 95.29068,77.91912 95.03748,77.61912 C95.02548,77.60472 93.88908,76.24752 93.32028,74.17392 C92.56788,71.43072 93.15828,68.81232 95.07348,66.39192 C95.18628,66.25032 95.24148,66.07392 95.24148,65.89992 C95.24148,65.69232 95.16348,65.48712 95.01228,65.33952 C94.73388,65.06712 94.30908,65.09832 94.06428,65.40792 M95.89788,67.52112 C96.14988,67.21872 96.57468,67.19832 96.84708,67.47792 C96.99108,67.62432 97.06428,67.82592 97.06428,68.02632 C97.06428,68.20752 97.00548,68.38872 96.88668,68.53152 C94.14108,71.84352 96.74868,75.40032 96.86028,75.55032 C97.09788,75.86592 97.06068,76.33512 96.77628,76.59912 C96.49188,76.86312 96.06948,76.82352 95.83188,76.50792 C94.61148,74.89992 93.05508,70.95072 95.89788,67.52112" id="Fill-708" fill="#FFFFFF"></path>
                        <path d="M18.44736,59.98068 L77.69616,59.98068 C80.24616,59.98068 82.31256,62.04708 82.31256,64.59708 L82.31256,102.29988 C82.31256,104.85108 80.24616,106.91748 77.69616,106.91748 L18.44736,106.91748 C15.89856,106.91748 13.83096,104.85108 13.83096,102.29988 L13.83096,64.59708 C13.83096,62.04708 15.89856,59.98068 18.44736,59.98068" id="Fill-709" fill="#FFFFFF"></path>
                        <path d="M18.44736,59.98068 L18.44736,60.87828 L77.69616,60.87828 C78.72576,60.87828 79.64976,61.29228 80.32536,61.96788 C81.00096,62.64348 81.41376,63.56748 81.41496,64.59708 L81.41496,102.29988 C81.41496,103.33068 81.00096,104.25468 80.32536,104.93028 C79.64976,105.60468 78.72576,106.01868 77.69616,106.01868 L18.44736,106.01868 C17.41776,106.01868 16.49376,105.60468 15.81696,104.93028 C15.14376,104.25468 14.72856,103.33068 14.72856,102.29988 L14.72856,64.59708 C14.72856,63.56748 15.14376,62.64348 15.81696,61.96788 C16.49376,61.29228 17.41776,60.87828 18.44736,60.87828 L18.44736,59.98068 L18.44736,59.08308 C15.40176,59.08308 12.93336,61.55148 12.93216,64.59708 L12.93216,102.29988 C12.93336,105.34548 15.40176,107.81388 18.44736,107.81508 L77.69616,107.81508 C80.74176,107.81388 83.20896,105.34548 83.21016,102.29988 L83.21016,64.59708 C83.20896,61.55148 80.74176,59.08308 77.69616,59.08308 L18.44736,59.08308 L18.44736,59.98068 Z" id="Fill-710" fill="#7E8FA3"></path>
                        <path d="M38.83848,68.18784 L30.18168,68.18784 C29.72208,68.18904 29.34888,68.56104 29.34768,69.02184 L29.34768,76.71624 C29.34888,77.17584 29.72208,77.54904 30.18168,77.55024 L38.83848,77.55024 C39.29808,77.54904 39.67128,77.17584 39.67248,76.71624 L39.67248,69.02184 C39.67128,68.56104 39.29808,68.18904 38.83848,68.18784" id="Fill-711" fill="#CCD2D7"></path>
                        <path d="M30.18144,68.18784 L38.83824,68.18784 C39.29784,68.18904 39.67104,68.56104 39.67224,69.02184 L39.67224,76.71624 C39.67104,77.17584 39.29784,77.54904 38.83824,77.55024 L30.18144,77.55024 C29.72184,77.54904 29.34864,77.17584 29.34744,76.71624 L29.34744,69.02184 C29.34864,68.56104 29.72184,68.18904 30.18144,68.18784 M38.83824,67.93104 L30.18144,67.93104 C29.57904,67.93104 29.09184,68.41944 29.09184,69.02184 L29.09184,76.71624 C29.09184,77.31744 29.57904,77.80584 30.18144,77.80584 L38.83824,77.80584 C39.44064,77.80584 39.92784,77.31744 39.92784,76.71624 L39.92784,69.02184 C39.92784,68.41944 39.44064,67.93104 38.83824,67.93104" id="Fill-712" fill="#FFFFFF"></path>
                        <path d="M22.48728,83.64132 L31.14408,83.64132 C31.67448,83.64132 32.10528,84.07212 32.10528,84.60372 L32.10528,87.48852 C32.10528,88.02012 31.67448,88.45092 31.14408,88.45092 L22.48728,88.45092 C21.95568,88.45092 21.52488,88.02012 21.52488,87.48852 L21.52488,84.60372 C21.52488,84.07212 21.95568,83.64132 22.48728,83.64132" id="Fill-713" fill="#7E8FA3"></path>
                        <path d="M35.95272,83.64132 L44.60952,83.64132 C45.13992,83.64132 45.57072,84.07212 45.57072,84.60372 L45.57072,87.48852 C45.57072,88.02012 45.13992,88.45092 44.60952,88.45092 L35.95272,88.45092 C35.42112,88.45092 34.99152,88.02012 34.99152,87.48852 L34.99152,84.60372 C34.99152,84.07212 35.42112,83.64132 35.95272,83.64132" id="Fill-714" fill="#7E8FA3"></path>
                        <path d="M49.41828,83.64132 L58.07508,83.64132 C58.60548,83.64132 59.03628,84.07212 59.03628,84.60372 L59.03628,87.48852 C59.03628,88.02012 58.60548,88.45092 58.07508,88.45092 L49.41828,88.45092 C48.88668,88.45092 48.45588,88.02012 48.45588,87.48852 L48.45588,84.60372 C48.45588,84.07212 48.88668,83.64132 49.41828,83.64132" id="Fill-715" fill="#7E8FA3"></path>
                        <path d="M62.88384,83.64132 L71.54064,83.64132 C72.07104,83.64132 72.50184,84.07212 72.50184,84.60372 L72.50184,87.48852 C72.50184,88.02012 72.07104,88.45092 71.54064,88.45092 L62.88384,88.45092 C62.35224,88.45092 61.92144,88.02012 61.92144,87.48852 L61.92144,84.60372 C61.92144,84.07212 62.35224,83.64132 62.88384,83.64132" id="Fill-716" fill="#7E8FA3"></path>
                        <path d="M25.05048,74.30184 C25.20168,74.52864 25.47888,74.56824 25.67088,74.38944 C25.86168,74.21064 25.89528,73.88184 25.74408,73.65504 C25.71288,73.60824 24.99288,72.50304 25.73568,71.55984 C25.81488,71.45904 25.85328,71.33064 25.85328,71.20344 C25.85328,71.06304 25.80648,70.92384 25.71288,70.82064 C25.53408,70.62384 25.25568,70.63584 25.08888,70.84704 C24.08688,72.12024 24.62568,73.66344 25.05048,74.30184 M22.62048,67.94904 C20.78448,70.42464 20.88168,72.82224 21.28728,74.39784 C21.72048,76.08384 22.57968,77.17944 22.61688,77.22504 C22.78368,77.43504 23.06328,77.44464 23.24088,77.24784 C23.41848,77.04984 23.42688,76.71864 23.26008,76.50864 C23.25288,76.49904 22.50648,75.54744 22.13208,74.09424 C21.63768,72.17064 22.02528,70.33584 23.28408,68.63904 C23.35848,68.53944 23.39448,68.41704 23.39448,68.29344 C23.39448,68.14944 23.34288,68.00424 23.24448,67.90104 C23.06088,67.71024 22.78128,67.73184 22.62048,67.94904 M23.82648,69.43104 C23.99088,69.21864 24.27048,69.20424 24.45048,69.40104 C24.54408,69.50304 24.59208,69.64344 24.59208,69.78504 C24.59208,69.91104 24.55368,70.03824 24.47568,70.13904 C22.67088,72.45984 24.38448,74.95344 24.45888,75.05784 C24.61368,75.27984 24.58968,75.60984 24.40248,75.79464 C24.21648,75.97944 23.93928,75.95184 23.78208,75.73104 C22.98048,74.60304 21.95688,71.83464 23.82648,69.43104" id="Fill-717" fill="#241DBA"></path>
                        <path d="M23.8338,94.41348 L54.0354,94.41348 C54.4602,94.41348 54.8046,94.06908 54.8046,93.64428 C54.8046,93.21948 54.4602,92.87508 54.0354,92.87508 L23.8338,92.87508 C23.409,92.87508 23.0646,93.21948 23.0646,93.64428 C23.0646,94.06908 23.409,94.41348 23.8338,94.41348" id="Fill-718" fill="#7E8FA3"></path>
                        <path d="M23.8338,97.49148 L40.7622,97.49148 C41.187,97.49148 41.5314,97.14708 41.5314,96.72228 C41.5314,96.29748 41.187,95.95308 40.7622,95.95308 L23.8338,95.95308 C23.409,95.95308 23.0646,96.29748 23.0646,96.72228 C23.0646,97.14708 23.409,97.49148 23.8338,97.49148" id="Fill-719" fill="#7E8FA3"></path>
                        <path d="M79.90836,35.73396 L56.76996,35.73396 C55.83396,35.73396 55.07436,34.97436 55.07436,34.03836 L55.07436,14.85516 C55.07436,13.91916 55.83396,13.15956 56.76996,13.15956 L79.90836,13.15956 C80.84436,13.15956 81.60396,13.91916 81.60396,14.85516 L81.60396,34.03836 C81.60396,34.97436 80.84436,35.73396 79.90836,35.73396" id="Fill-720" fill="#241DBA"></path>
                        <polygon id="Fill-721" fill="#FFFFFF" points="74.70276 19.06872 65.55756 28.30512 61.70316 24.41352 60.94356 25.18152 65.17716 29.45712 65.55756 29.82432 65.93796 29.45712 75.46356 19.83792"></polygon>
                        <path d="M74.70276,19.06872 L74.42556,18.79392 L65.55756,27.75072 L61.98036,24.13872 C61.90716,24.06552 61.80756,24.02352 61.70316,24.02352 C61.59996,24.02352 61.50036,24.06552 61.42716,24.13872 L60.66636,24.90672 C60.51516,25.05912 60.51516,25.30392 60.66636,25.45632 L64.89996,29.73192 L64.90596,29.73792 L65.28636,30.10512 C65.43756,30.25152 65.67636,30.25152 65.82756,30.10512 L66.20796,29.73792 L66.21396,29.73192 L75.74076,20.11152 C75.89076,19.95912 75.89076,19.71552 75.74076,19.56312 L74.97996,18.79392 C74.90676,18.72072 74.80716,18.67872 74.70276,18.67872 C74.59836,18.67872 74.49876,18.72072 74.42556,18.79392 L74.70276,19.06872 L74.42556,19.34352 L74.91516,19.83672 L65.66076,29.18352 L65.93796,29.45712 L65.66676,29.17752 L65.55756,29.28312 L65.44716,29.17752 L65.17716,29.45712 L65.45316,29.18352 L61.49076,25.18152 L61.70316,24.96672 L65.28036,28.57872 C65.35356,28.65312 65.45316,28.69512 65.55756,28.69512 C65.66076,28.69512 65.76036,28.65312 65.83356,28.57872 L74.97996,19.34352 L74.70276,19.06872 L74.42556,19.34352 L74.70276,19.06872 Z" id="Fill-722" fill="#FFFFFF"></path>
                        <path d="M47.6676,23.8332 C47.6676,36.996 36.9972,47.6664 23.8344,47.6664 C10.6716,47.6664 -1.0658141e-14,36.996 -1.0658141e-14,23.8332 C-1.0658141e-14,10.6704 10.6716,4.61852778e-14 23.8344,4.61852778e-14 C36.9972,4.61852778e-14 47.6676,10.6704 47.6676,23.8332" id="Fill-723" fill="#FFFFFF"></path>
                        <path d="M24.63312,5.88072 L22.75872,5.88072 C22.66632,5.88072 22.59072,5.95632 22.59072,6.04872 L22.59072,6.30792 L22.51272,6.30792 C22.32672,6.30792 22.17672,6.45912 22.17672,6.64392 L22.17672,10.27152 L22.17672,10.34112 C22.15272,11.86032 21.38952,13.87392 20.29632,16.48992 L19.56432,18.22872 C18.16152,21.61152 18.52872,23.33112 18.52872,26.87112 L18.52872,40.04352 C18.52872,41.15832 19.43232,42.06072 20.54592,42.06072 L26.84592,42.06072 C27.95952,42.06072 28.86312,41.15832 28.86312,40.04352 L28.86312,26.87112 C28.86312,23.28792 29.23872,21.57072 27.77592,18.10632 C26.31432,14.64312 25.21632,12.09552 25.21632,10.27152 L25.21632,6.64392 C25.21632,6.45912 25.06512,6.30792 24.87912,6.30792 L24.80112,6.30792 L24.80112,6.04872 C24.80112,5.95632 24.72672,5.88072 24.63312,5.88072" id="Fill-724" fill="#E0E5EA"></path>
                        <path d="M13.19364,33.52968 L13.92084,40.52448 C14.00964,41.38008 14.73084,42.03168 15.59244,42.03168 L19.30284,42.03168 C20.16684,42.03168 20.89044,41.37648 20.97564,40.51728 L21.67404,33.52488 C21.72924,32.97168 21.32484,32.47728 20.77164,32.42208 L20.67084,32.41608 L14.19684,32.41608 C13.64004,32.41608 13.18764,32.86848 13.18764,33.42528 L13.19364,33.52968 Z" id="Fill-725" fill="#C4CED6"></path>
                        <path d="M12.30792,31.17036 C13.75272,29.72676 16.09392,29.72676 17.53752,31.17036 L16.25472,32.45436 L14.23392,32.45436 C13.67712,32.45436 13.22592,32.90556 13.22592,33.46236 L13.23072,33.56676 L13.41072,35.29716 L12.30792,36.39996 C10.88112,34.97316 10.86432,32.66916 12.25752,31.22076 L12.30792,31.17036 Z" id="Fill-726" fill="#241DBA"></path>
                        <path d="M24.24564,33.44904 L38.90124,33.44904 C39.12444,33.44904 39.30444,33.63024 39.30444,33.85224 L39.28284,33.98304 L37.22484,40.00704 C36.77844,41.31264 35.55084,42.18984 34.16964,42.18984 L29.17164,42.18984 C27.82524,42.18984 26.61924,41.35464 26.14764,40.09344 L23.86764,33.99384 C23.78964,33.78504 23.89524,33.55224 24.10404,33.47424 L24.24564,33.44904 Z" id="Fill-727" fill="#7E8FA3"></path>
                        <path d="M32.08872,31.0338 C31.92792,30.8946 31.86792,30.747 31.86672,30.6078 C31.86792,30.4674 31.92792,30.3198 32.08872,30.1818 L32.11872,30.1554 C32.38632,29.9274 32.53992,29.6154 32.53992,29.295 C32.53992,28.9734 32.38632,28.6614 32.11992,28.4346 L32.09112,28.4106 C31.94832,28.2858 31.89672,28.1574 31.89552,28.035 C31.89672,27.9138 31.94832,27.7842 32.09112,27.6606 C32.35032,27.441 32.49912,27.1374 32.49912,26.8254 C32.50032,26.5134 32.35032,26.2098 32.09112,25.9902 C31.96392,25.8822 31.77192,25.8978 31.66392,26.025 C31.55592,26.151 31.57032,26.343 31.69872,26.451 C31.84152,26.5746 31.89192,26.7042 31.89312,26.8254 C31.89312,26.9466 31.84152,27.0762 31.69752,27.201 C31.43832,27.4194 31.28952,27.723 31.29072,28.035 C31.28952,28.347 31.43832,28.6506 31.69752,28.8714 L31.72632,28.8954 C31.87752,29.0262 31.93392,29.1642 31.93392,29.295 C31.93392,29.4246 31.87752,29.5626 31.72632,29.6946 L31.69632,29.721 C31.41912,29.955 31.26072,30.2766 31.2619132,30.6078 C31.26072,30.9366 31.41912,31.2594 31.69512,31.4934 C31.82232,31.6026 32.01312,31.587 32.12112,31.461 C32.23032,31.3338 32.21592,31.143 32.08872,31.0338" id="Fill-728" fill="#E5E7EB"></path>
                        <path d="M33.94368,27.50916 C33.78288,27.36156 33.71688,27.19956 33.71568,27.04236 C33.71688,26.88396 33.78288,26.72196 33.94248,26.57796 L33.97368,26.54916 C34.24128,26.31036 34.39008,25.98756 34.3888872,25.66116 C34.39008,25.33476 34.24128,25.01196 33.97488,24.77316 L33.94608,24.74796 C33.80208,24.61716 33.74568,24.47316 33.74448,24.33516 C33.74568,24.19716 33.80208,24.05556 33.94608,23.92476 C34.06968,23.81316 34.08048,23.62116 33.96888,23.49756 C33.85728,23.37276 33.66648,23.36316 33.54168,23.47476 C33.28248,23.70396 33.13848,24.01836 33.13968,24.33516 C33.13848,24.65316 33.28248,24.96636 33.54048,25.19796 L33.56928,25.22316 C33.72168,25.36236 33.78288,25.51356 33.78408,25.66116 C33.78288,25.80876 33.72168,25.95996 33.56928,26.09916 L33.53928,26.12676 C33.26328,26.37156 33.10968,26.70516 33.110873,27.04236 C33.10968,27.37956 33.26328,27.71196 33.53808,27.95916 C33.66168,28.07076 33.85368,28.05996 33.96528,27.93636 C34.07688,27.81276 34.06728,27.62196 33.94368,27.50916" id="Fill-729" fill="#E5E7EB"></path>
                        <path d="M33.58824,33.00492 L33.62064,32.97612 C33.89784,32.73492 34.05384,32.40852 34.0526469,32.07612 C34.05384,31.74252 33.89784,31.41612 33.62064,31.17612 L33.59184,31.15092 C33.43944,31.01532 33.38064,30.87012 33.38064,30.73212 C33.38064,30.59412 33.43944,30.44892 33.59064,30.31572 C33.71664,30.20532 33.72984,30.01452 33.62064,29.88852 C33.51024,29.76252 33.31944,29.74932 33.19344,29.85972 C32.92584,30.09012 32.77344,30.40812 32.774633,30.73212 C32.77344,31.05612 32.92584,31.37412 33.19344,31.60572 L33.22224,31.63212 C33.38424,31.77372 33.44664,31.92852 33.44784,32.07612 C33.44664,32.22252 33.38424,32.37852 33.22344,32.52012 L33.19104,32.54772 C33.06504,32.65692 33.05184,32.84892 33.16104,32.97492 C33.27024,33.10092 33.46224,33.11532 33.58824,33.00492" id="Fill-730" fill="#DDDDE3"></path>
                        <text id="Consume-y-" font-family="Gilroy-SemiBold, Gilroy" font-size="11.1078" font-weight="500" fill="#FFFFFF">
                            <tspan x="57.4338" y="160.628821">Consume y </tspan>
                        </text>
                        <text id="re" font-family="Gilroy-SemiBold, Gilroy" font-size="11.1078" font-weight="500" fill="#FFFFFF">
                            <tspan x="117.138225" y="160.628821">re</tspan>
                        </text>
                        <text id="aliz" font-family="Gilroy-SemiBold, Gilroy" font-size="11.1078" font-weight="500" fill="#FFFFFF">
                            <tspan x="127.124137" y="160.628821">aliz</tspan>
                        </text>
                        <text id="a-el" font-family="Gilroy-SemiBold, Gilroy" font-size="11.1078" font-weight="500" fill="#FFFFFF">
                            <tspan x="144.230149" y="160.628821">a el</tspan>
                        </text>
                        <text id="pago-con-su-t" font-family="Gilroy-SemiBold, Gilroy" font-size="11.1078" font-weight="500" fill="#FFFFFF">
                            <tspan x="57.4338" y="173.958181">pago con su t</tspan>
                        </text>
                        <text id="arje" font-family="Gilroy-SemiBold, Gilroy" font-size="11.1078" font-weight="500" fill="#FFFFFF">
                            <tspan x="127.657312" y="173.958181">arje</tspan>
                        </text>
                        <text id="ta" font-family="Gilroy-SemiBold, Gilroy" font-size="11.1078" font-weight="500" fill="#FFFFFF">
                            <tspan x="147.562489" y="173.958181">ta</tspan>
                        </text>
                        <text id="bancaria" font-family="Gilroy-SemiBold, Gilroy" font-size="11.1078" font-weight="500" fill="#FFFFFF">
                            <tspan x="57.4338" y="187.287541">bancaria</tspan>
                        </text>
                    </g>
                    <g id="Group-18">
                        <path d="M33.59604,54.8024535 C33.59604,54.8024535 40.22964,58.2416535 37.77204,61.4360535 C35.31564,64.6292535 31.13964,57.7508535 31.13964,57.2588535 C31.13964,56.7680535 33.59604,54.8024535 33.59604,54.8024535" id="Fill-617" fill="#EAB5B8"></path>
                        <path d="M26.226,45.9583335 C26.226,45.9583335 30.648,51.3631335 31.8768,52.0999335 C33.1044,52.8367335 34.0872,53.5747335 34.0872,53.8195335 C34.0872,54.0655335 35.07,55.2943335 35.07,55.2943335 L31.14,58.7335335 C31.14,58.7335335 26.7168,52.8367335 26.226,52.8367335 C25.7352,52.8367335 26.226,45.9583335 26.226,45.9583335" id="Fill-619" fill="#241DBA"></path>
                        <polygon id="Fill-621" fill="#EAB5B8" points="4.11576 109.095374 1.16736 114.008174 5.58936 115.973774 9.76656 114.746174 7.30896 108.603374"></polygon>
                        <path d="M12.4686,55.5396135 L10.0122,78.8784135 C10.0122,78.8784135 4.6062,89.9328135 4.6062,98.7780135 C4.6062,107.620814 2.6418,110.077214 2.6418,110.077214 L8.7834,111.060014 L15.417,89.4420135 L26.4714,69.2964135 L23.2782,49.1520135 L17.8734,47.1864135 L12.4686,55.5396135 Z" id="Fill-623" fill="#A5A6BE"></path>
                        <g id="Group-627" transform="translate(0.000000, 110.647334)">
                            <mask id="mask-2" fill="white">
                                <use xlink:href="#path-1"></use>
                            </mask>
                            <g id="Clip-626"></g>
                            <path d="M3.62448,3.11568 C3.62448,3.11568 1.78248,0.53568 1.78248,1.27368 C1.78248,2.01048 -1.78032,10.24008 1.16808,10.24008 C4.11648,10.24008 11.97768,9.74928 13.45128,10.24008 C14.92488,10.73088 19.83888,9.74928 19.34688,6.80088 C18.85608,3.85248 12.96048,4.09848 12.96048,4.09848 C12.96048,4.09848 9.40608,-0.85512 8.48088,0.88488 L7.55568,2.62488 L3.62448,3.11568 Z" id="Fill-625" fill="#241DBA" mask="url(#mask-2)"></path>
                        </g>
                        <polygon id="Fill-628" fill="#EAB5B8" points="30.15684 109.095374 27.20844 114.008174 31.63044 115.973774 35.80644 114.746174 33.35004 108.603374"></polygon>
                        <path d="M29.66544,113.763014 C29.66544,113.763014 27.82344,111.429014 27.82344,112.165814 C27.82344,112.902614 24.26064,120.887414 27.20904,120.887414 C30.15624,120.887414 38.01864,120.396614 39.49224,120.887414 C40.96584,121.378214 45.87984,120.396614 45.38784,117.448214 C44.89704,114.499814 39.00024,114.745814 39.00024,114.745814 C39.00024,114.745814 35.44704,109.792214 34.52184,111.532214 L33.59664,113.272214 L29.66544,113.763014 Z" id="Fill-630" fill="#241DBA"></path>
                        <path d="M8.53764,55.2943335 C8.53764,55.2943335 9.27564,61.9267335 13.20564,68.0683335 C17.13564,74.2099335 22.78644,85.0195335 22.78644,85.0195335 C22.78644,85.0195335 22.29444,95.8291335 24.99804,101.970734 C27.70044,108.112334 28.19124,111.306734 28.19124,111.306734 L34.82364,109.585934 C34.82364,109.585934 31.13964,88.9495335 32.61324,84.2827335 C34.08804,79.6147335 26.96364,55.2943335 26.96364,55.2943335 L20.33004,49.6435335 L11.73204,48.6607335 L8.53764,55.2943335 Z" id="Fill-632" fill="#A5A6BE"></path>
                        <path d="M22.69668,3.59509351 C25.81788,3.59509351 28.34748,6.12469351 28.34748,9.24469351 C28.34748,12.3658935 25.81788,14.8954935 22.69668,14.8954935 C19.57668,14.8954935 17.04588,12.3658935 17.04588,9.24469351 C17.04588,6.12469351 19.57668,3.59509351 22.69668,3.59509351" id="Fill-634" fill="#EAB5B8"></path>
                        <path d="M18.08004,9.52969351 L15.12324,15.8560935 L23.42484,21.6064935 C23.42484,21.6064935 22.44804,14.7580935 24.28884,13.0228935 C26.12964,11.2888935 18.08004,9.52969351 18.08004,9.52969351" id="Fill-636" fill="#EAB5B8"></path>
                        <path d="M24.50652,22.1284935 C24.50652,22.1284935 20.57532,14.0212935 17.38212,14.0212935 C14.18772,14.0212935 5.83572,19.6720935 6.08052,20.9008935 C6.32652,22.1284935 6.32652,22.3744935 6.32652,23.1112935 C6.32652,23.8480935 4.60692,23.8480935 6.08052,24.3388935 C7.55532,24.8308935 7.80132,25.3216935 7.80132,25.3216935 L6.57252,56.7676935 C6.57252,56.7676935 11.97732,58.7332935 13.94292,57.9964935 C15.90852,57.2584935 17.87412,52.3456935 17.87412,52.3456935 C17.87412,52.3456935 17.38212,58.9780935 19.34772,58.7332935 C21.31332,58.4872935 28.68252,57.9964935 28.92852,57.0136935 C29.17452,56.0308935 27.45492,34.4116935 27.45492,34.4116935 L24.50652,22.1284935 Z" id="Fill-638" fill="#241DBA"></path>
                        <path d="M6.57252,58.4874135 C6.57252,58.4874135 3.62412,69.2970135 7.80132,68.3142135 C11.97732,67.3314135 10.74852,58.7334135 10.74852,58.7334135 L6.57252,58.4874135 Z" id="Fill-640" fill="#EAB5B8"></path>
                        <path d="M11.73204,20.1632535 L4.60644,38.3432535 C4.60644,38.3432535 3.62364,40.3076535 4.60644,41.7824535 C5.58924,43.2560535 4.11684,52.1000535 5.09844,54.0656535 C6.08124,56.0312535 6.08124,59.4704535 6.08124,59.4704535 L11.73204,59.9624535 L12.95964,38.3432535 L19.34724,24.5852535 C19.34724,24.5852535 18.85644,18.9356535 11.73204,20.1632535" id="Fill-642" fill="#241DBA"></path>
                        <path d="M13.5744,19.5486135 C13.5744,19.5486135 13.0356,19.6986135 12.2712,20.0814135 C12.5592,20.0442135 12.8352,20.0190135 13.0992,20.0034135 L13.5744,19.5486135 Z" id="Fill-644" fill="#241DBA"></path>
                        <path d="M7.68516,25.1786535 C7.68276,25.1858535 7.68036,25.1930535 7.67796,25.2002535 L7.69236,25.1858535 C7.68996,25.1834535 7.68756,25.1810535 7.68516,25.1786535" id="Fill-646" fill="#D7D1D4"></path>
                        <path d="M11.62572,20.4345735 C10.25052,21.2517735 8.51172,22.7205735 7.68492,25.1781735 C7.68732,25.1817735 7.68972,25.1841735 7.69212,25.1865735 L11.00892,22.0065735 L11.62572,20.4345735 Z" id="Fill-648" fill="#241DBA"></path>
                        <path d="M13.09944,20.0038935 C12.83424,20.0182935 12.55824,20.0446935 12.27144,20.0818935 C12.06984,20.1826935 11.85264,20.3002935 11.62584,20.4346935 L11.00904,22.0066935 L13.09944,20.0038935 Z" id="Fill-650" fill="#241DBA"></path>
                        <path d="M18.99384,11.8233735 C19.54344,11.7897735 20.07984,11.9757735 20.62584,12.0489735 C22.57944,12.3081735 24.61104,10.8909735 25.04304,8.96857351 C25.07664,8.71177351 25.15344,8.46337351 25.26864,8.23177351 C25.56864,7.74097351 26.25384,7.64737351 26.81784,7.76137351 C27.38184,7.87297351 27.91704,8.13697351 28.49184,8.16817351 C29.37984,8.21497351 30.23184,7.66777351 30.70464,6.91537351 C31.17744,6.16297351 31.31064,5.23777351 31.24704,4.35097351 L30.82224,4.79857351 C30.64944,4.43257351 30.58224,4.02457351 30.62904,3.62377351 C30.17064,3.50137351 29.68224,3.62617351 29.33904,3.95377351 C28.96344,3.99337351 29.24664,3.25777351 28.96824,3.00337351 C28.85064,2.89777351 28.67184,2.91697351 28.51464,2.91937351 C27.71664,2.92657351 27.07104,2.31577351 26.44224,1.82497351 C25.35264,0.975373512 24.07824,0.394573512 22.72224,0.128173512 C21.82104,-0.0482264878 20.86344,-0.0758264878 20.00784,0.260173512 C19.30704,0.536173512 18.71904,1.03657351 18.17544,1.55977351 C16.83744,2.84617351 15.65304,4.35817351 15.09624,6.12817351 C14.64384,7.57897351 14.63064,9.13057351 15.05904,10.5885735 C15.28344,11.3457735 15.96024,13.9377735 16.94904,13.9977735 C18.19224,14.0745735 17.44584,11.9157735 18.99384,11.8233735" id="Fill-652" fill="#7E8FA3"></path>
                        <polygon id="Fill-654" fill="#241DBA" points="19.39572 29.8942935 13.60932 38.3806935 11.95932 55.9534935 11.85972 57.7222935"></polygon>
                        <polygon id="Fill-656" fill="#241DBA" points="11.7588 58.0922535 11.8596 57.7226535 11.9592 55.9538535"></polygon>
                    </g>
                    <path d="M332.608108,270.713019 C332.608108,270.713019 332.16591,270.785755 331.312224,270.928597 C330.458538,271.070564 329.195994,271.278255 327.528104,271.497338 C324.207237,271.950403 319.305341,272.485843 313.02421,272.833747 C300.468089,273.553217 282.385381,273.480481 260.956362,271.978445 C250.250627,271.231809 238.715772,270.135515 226.667652,268.658017 C220.643592,267.922773 214.494944,267.09639 208.250663,266.171858 C202.016033,265.237686 195.672608,264.233408 189.336203,263.045099 C186.163613,262.462337 182.988391,261.831377 179.828962,261.151342 C176.666901,260.477441 173.518,259.756219 170.405949,258.970147 C164.171319,257.405015 158.091107,255.589252 152.312712,253.511464 C146.551865,251.436306 141.052476,249.114898 136.311139,246.392129 L136.212873,246.335167 C135.060001,245.67003 133.97381,244.977726 132.955177,244.258256 C131.893553,243.52126 130.888958,242.755344 129.989648,241.959633 C129.083319,241.160417 128.2542,240.33491 127.523346,239.481361 C126.809162,238.621678 126.195877,237.738333 125.687876,236.829575 C124.6438,235.012059 124.146328,233.088506 124.11562,231.134282 C124.133167,230.158923 124.239329,229.176553 124.490259,228.195059 C124.735047,227.217947 125.104422,226.239082 125.572063,225.276867 C126.049355,224.313777 126.631932,223.363831 127.285577,222.427906 C127.976072,221.505127 128.720963,220.563068 129.540432,219.695498 C129.915949,219.261713 130.41693,218.798132 130.867024,218.345068 L132.264683,216.992885 C133.194701,216.068353 134.135247,215.15346 135.049473,214.227175 C138.71427,210.531676 142.138666,206.774833 145.10595,202.880406 C146.578186,200.927934 147.917939,198.937781 149.044489,196.891541 C150.171916,194.849684 151.108953,192.748235 151.684512,190.590702 C152.274108,188.433168 152.514509,186.223054 152.316222,184.000672 C152.145134,181.779166 151.483593,179.555031 150.371081,177.420282 C149.806928,176.355536 149.139245,175.311823 148.380316,174.297905 C147.601206,173.290997 146.734359,172.315638 145.799954,171.376208 C143.914474,169.50173 141.70963,167.793756 139.34598,166.251408 C138.452812,165.666894 137.536832,165.106916 136.605059,164.568847 C132.597208,162.257955 128.273502,160.357188 124.011212,158.686019 C121.373821,157.656327 118.73994,156.717773 116.127993,155.85809 C113.515169,154.994025 110.956742,154.173777 108.411476,153.42714 C105.870597,152.682257 103.380605,151.978561 100.954662,151.30466 C98.515558,150.642152 96.1308515,150.018202 93.816335,149.412655 C91.5062054,148.800974 89.2355577,148.243626 87.0535249,147.687154 C85.9647019,147.409356 84.8925491,147.134188 83.8335569,146.86603 C82.7780742,146.6005 81.7366295,146.338477 80.7109776,146.082587 C72.5347156,144.017069 65.5788828,142.15223 60.0426436,140.413584 C54.4993854,138.685454 50.4099383,137.071247 47.731311,135.86103 C46.3898039,135.258989 45.3904733,134.764737 44.7298095,134.435235 C44.0524757,134.087331 43.7032802,133.905054 43.7032802,133.905054 L42.36616,134.516734 C42.36616,134.516734 42.5969097,134.755097 43.039107,135.216925 C43.5172766,135.684011 44.2340924,136.365799 45.2895751,137.211461 C46.7284708,138.375232 48.8227661,139.84572 51.645283,141.473072 C52.9376571,142.218832 54.3835718,142.997016 55.9882916,143.79448 C61.0656634,146.348116 67.7188016,149.055111 75.5072637,151.828708 C83.2825651,154.613696 92.1966999,157.478431 101.4767,160.683184 C103.782443,161.498174 106.127668,162.309659 108.446571,163.183364 C110.761965,164.05444 113.078236,164.953558 115.349761,165.901751 C119.56906,167.655295 123.622535,169.585858 127.294351,171.70308 C127.583007,171.869584 127.870787,172.03784 128.154179,172.206972 C130.08616,173.370744 131.904082,174.594982 133.526349,175.899843 C134.344063,176.550959 135.10387,177.227488 135.804016,177.926803 C136.520831,178.620859 137.180618,179.339453 137.768459,180.084336 C140.160185,183.045468 141.561353,186.459664 141.670148,190.141142 C141.821934,193.817362 140.786631,197.709161 138.815168,201.531728 C136.856866,205.365689 133.986971,209.133924 130.545027,212.759316 C129.671161,213.66194 128.792031,214.56544 127.847097,215.450537 L126.412589,216.805349 C125.938806,217.260166 125.472042,217.692199 124.988608,218.192586 C123.060137,220.115262 121.408916,222.105416 120.056003,224.223514 C118.710109,226.334602 117.730081,228.562243 117.243137,230.868753 C116.789534,233.175264 116.809714,235.555386 117.458094,237.90396 C118.092437,240.253411 119.325149,242.557293 120.986021,244.7306 C122.643384,246.910042 124.763123,248.954529 127.151339,250.842152 C129.411458,252.646523 131.916365,254.310681 134.587973,255.850399 C137.547361,257.557497 140.710299,259.112113 143.967994,260.535279 C150.199115,263.232635 156.782063,265.482183 163.421163,267.475843 C170.062896,269.466873 176.802017,271.174847 183.525345,272.66812 C196.983407,275.648531 210.439715,277.66147 223.340644,278.933906 C236.248592,280.206343 248.588878,280.788228 259.986862,280.889883 C271.388357,280.989785 281.851059,280.591053 291.048586,279.847922 C300.239094,279.105668 308.158285,278.006745 314.505219,276.797405 C320.86005,275.595075 325.625076,274.284079 328.738004,273.273667 C330.291836,272.762764 331.448217,272.343 332.216798,272.05381 C332.975728,271.75498 333.36616,271.598116 333.36616,271.598116 L332.608108,270.713019 Z" id="Fill-731" fill="#241DBA"></path>
                    <g id="Group-2" transform="translate(166.000000, 178.000000)">
                        <g id="Group-737" fill="#241DBA">
                            <polyline id="Fill-733" points="23.9048 87.6086 23.9048 0.1046 20.2748 0.1046 20.2748 87.6086"></polyline>
                            <path d="M41.97884,43.85636 C41.97884,55.44836 32.58164,64.84556 20.99084,64.84556 C9.39884,64.84556 0.00164,55.44836 0.00164,43.85636 C0.00164,32.26436 9.39884,22.86836 20.99084,22.86836 C32.58164,22.86836 41.97884,32.26436 41.97884,43.85636" id="Fill-735"></path>
                        </g>
                        <text id="1" font-family="Gilroy-SemiBold, Gilroy" font-size="22.2156" font-weight="500" fill="#FFFFFF">
                            <tspan x="16.2" y="51.7526665">1</tspan>
                        </text>
                    </g>
                </g>
            </g>
        </g>
    </g>
</svg>