<?xml version="1.0" encoding="UTF-8"?>
<svg width="53px" height="107px" viewBox="0 0 53 107" version="1.1" xmlns="http://www.w3.org/2000/svg" xmlns:xlink="http://www.w3.org/1999/xlink">
    <!-- Generator: Sketch 63.1 (92452) - https://sketch.com -->
    <title>Pago_movil_pedidos_festival</title>
    <desc>Created with Sketch.</desc>
    <defs>
        <polygon id="path-1" points="0.000243 0.70956 52.38837 0.70956 52.38837 106.11 0.000243 106.11"></polygon>
    </defs>
    <g id="Gofun-versión-2---HACER-LO-ULTIMO" stroke="none" stroke-width="1" fill="none" fill-rule="evenodd">
        <g id="Solucion---Gofun---Festivales-musica--B" transform="translate(-545.000000, -1786.000000)">
            <g id="Pago_movil_pedidos_festival" transform="translate(545.000000, 1786.000000)">
                <g id="Group-3" transform="translate(0.000000, 0.100440)">
                    <mask id="mask-2" fill="white">
                        <use xlink:href="#path-1"></use>
                    </mask>
                    <g id="Clip-2"></g>
                    <path d="M52.388613,9.310221 C52.388613,4.560381 48.537873,0.708831 43.787223,0.708831 L8.600823,0.708831 C3.850983,0.708831 0.000243,4.560381 0.000243,9.310221 L0.000243,97.508691 C0.000243,102.259341 3.850983,106.110081 8.600823,106.110081 L43.787223,106.110081 C48.537873,106.110081 52.388613,102.259341 52.388613,97.508691 L52.388613,9.310221 Z M50.517513,96.708411 C50.517513,100.844271 47.215953,104.238981 43.080903,104.238981 L9.081963,104.238981 C4.946103,104.238981 1.559493,100.844271 1.559493,96.708411 L1.559493,9.833481 C1.559493,5.697621 4.946103,2.268081 9.081963,2.268081 L11.087523,2.268081 C11.640753,2.268081 12.161583,2.793771 12.161583,3.347811 L12.161583,4.033071 C12.161583,4.964571 12.845223,5.698431 13.777533,5.698431 L38.385333,5.698431 C39.316833,5.698431 40.227273,4.964571 40.227273,4.033071 L40.227273,3.527631 C40.227273,2.874771 40.601493,2.268081 41.254353,2.268081 L43.080903,2.268081 C47.215953,2.268081 50.517513,5.697621 50.517513,9.833481 L50.517513,96.708411 Z" id="Fill-1" fill="#7E8FA4" mask="url(#mask-2)"></path>
                </g>
                <path d="M41.367834,2.584305 C40.714974,2.584305 40.186044,3.113235 40.186044,3.766095 L40.186044,4.272345 C40.186044,5.203845 39.430314,5.959575 38.498004,5.959575 L13.890204,5.959575 C12.957894,5.959575 12.202974,5.203845 12.202974,4.272345 L12.202974,3.586275 C12.202974,3.033045 11.754234,2.584305 11.201004,2.584305 L9.194634,2.584305 C5.058774,2.584305 1.706184,5.936895 1.706184,10.072755 L1.706184,96.947685 C1.706184,101.082735 5.058774,104.435325 9.194634,104.435325 L43.193574,104.435325 C47.329434,104.435325 50.682024,101.082735 50.682024,96.947685 L50.682024,10.072755 C50.682024,5.936895 47.329434,2.584305 43.193574,2.584305 L41.367834,2.584305 Z" id="Fill-4" fill="#FFFFFE"></path>
                <polyline id="Stroke-6" stroke="#241DBA" stroke-width="1.62" stroke-linejoin="round" points="12.929787 56.676348 12.929787 64.446678 20.700117 64.446678"></polyline>
                <polyline id="Stroke-8" stroke="#241DBA" stroke-width="1.62" stroke-linejoin="round" points="20.700036 37.917477 12.929706 37.917477 12.929706 45.687807"></polyline>
                <polyline id="Stroke-10" stroke="#241DBA" stroke-width="1.62" stroke-linejoin="round" points="39.458907 45.687726 39.458907 37.917396 31.688577 37.917396"></polyline>
                <polyline id="Stroke-12" stroke="#241DBA" stroke-width="1.62" stroke-linejoin="round" points="31.688739 64.446516 39.459069 64.446516 39.459069 56.676186"></polyline>
            </g>
        </g>
    </g>
</svg>