<?xml version="1.0" encoding="UTF-8"?>
<svg width="573px" height="478px" viewBox="0 0 573 478" version="1.1" xmlns="http://www.w3.org/2000/svg" xmlns:xlink="http://www.w3.org/1999/xlink">
    <!-- Generator: Sketch 63.1 (92452) - https://sketch.com -->
    <title>Pago_pedido_movil_festival</title>
    <desc>Created with Sketch.</desc>
    <defs>
        <polygon id="path-1" points="0.7056 0.5184 48.0354 0.5184 48.0354 95.74224 0.7056 95.74224"></polygon>
        <path d="M35.8796,0.6228 C35.288,0.6228 34.8104,1.1004 34.8104,1.6896 L34.8104,1.6896 L34.8104,2.1468 C34.8104,2.9892 34.1276,3.672 33.2876,3.672 L33.2876,3.672 L11.054,3.672 C10.2116,3.672 9.53,2.9892 9.53,2.1468 L9.53,2.1468 L9.53,1.5276 C9.53,1.0284 9.1232,0.6228 8.624,0.6228 L8.624,0.6228 L6.8132,0.6228 C3.0764,0.6228 0.0464,3.6516 0.0464,7.3872 L0.0464,7.3872 L0.0464,85.8744 C0.0464,89.6112 3.0764,92.64 6.8132,92.64 L6.8132,92.64 L37.5272,92.64 C41.264,92.64 44.294,89.6112 44.294,85.8744 L44.294,85.8744 L44.294,7.3872 C44.294,3.6516 41.264,0.6228 37.5272,0.6228 L37.5272,0.6228" id="path-3"></path>
        <path d="M35.8796,0.6228 C35.288,0.6228 34.8104,1.1004 34.8104,1.6896 L34.8104,1.6896 L34.8104,2.1468 C34.8104,2.9892 34.1276,3.672 33.2876,3.672 L33.2876,3.672 L11.054,3.672 C10.2116,3.672 9.53,2.9892 9.53,2.1468 L9.53,2.1468 L9.53,1.5276 C9.53,1.0284 9.1232,0.6228 8.624,0.6228 L8.624,0.6228 L6.8132,0.6228 C3.0764,0.6228 0.0464,3.6516 0.0464,7.3872 L0.0464,7.3872 L0.0464,85.8744 C0.0464,89.6112 3.0764,92.64 6.8132,92.64 L6.8132,92.64 L37.5272,92.64 C41.264,92.64 44.294,89.6112 44.294,85.8744 L44.294,85.8744 L44.294,7.3872 C44.294,3.6516 41.264,0.6228 37.5272,0.6228 L37.5272,0.6228" id="path-5"></path>
        <path d="M35.8796,0.6228 C35.288,0.6228 34.8104,1.1004 34.8104,1.6896 L34.8104,1.6896 L34.8104,2.1468 C34.8104,2.9892 34.1276,3.672 33.2876,3.672 L33.2876,3.672 L11.054,3.672 C10.2116,3.672 9.53,2.9892 9.53,2.1468 L9.53,2.1468 L9.53,1.5276 C9.53,1.0284 9.1232,0.6228 8.624,0.6228 L8.624,0.6228 L6.8132,0.6228 C3.0764,0.6228 0.0464,3.6516 0.0464,7.3872 L0.0464,7.3872 L0.0464,85.8744 C0.0464,89.6112 3.0764,92.64 6.8132,92.64 L6.8132,92.64 L37.5272,92.64 C41.264,92.64 44.294,89.6112 44.294,85.8744 L44.294,85.8744 L44.294,7.3872 C44.294,3.6516 41.264,0.6228 37.5272,0.6228 L37.5272,0.6228" id="path-7"></path>
        <path d="M35.8796,0.6228 C35.288,0.6228 34.8104,1.1004 34.8104,1.6896 L34.8104,1.6896 L34.8104,2.1468 C34.8104,2.9892 34.1276,3.672 33.2876,3.672 L33.2876,3.672 L11.054,3.672 C10.2116,3.672 9.53,2.9892 9.53,2.1468 L9.53,2.1468 L9.53,1.5276 C9.53,1.0284 9.1232,0.6228 8.624,0.6228 L8.624,0.6228 L6.8132,0.6228 C3.0764,0.6228 0.0464,3.6516 0.0464,7.3872 L0.0464,7.3872 L0.0464,85.8744 C0.0464,89.6112 3.0764,92.64 6.8132,92.64 L6.8132,92.64 L37.5272,92.64 C41.264,92.64 44.294,89.6112 44.294,85.8744 L44.294,85.8744 L44.294,7.3872 C44.294,3.6516 41.264,0.6228 37.5272,0.6228 L37.5272,0.6228" id="path-9"></path>
        <path d="M35.8796,0.6228 C35.288,0.6228 34.8104,1.1004 34.8104,1.6896 L34.8104,1.6896 L34.8104,2.1468 C34.8104,2.9892 34.1276,3.672 33.2876,3.672 L33.2876,3.672 L11.054,3.672 C10.2116,3.672 9.53,2.9892 9.53,2.1468 L9.53,2.1468 L9.53,1.5276 C9.53,1.0284 9.1232,0.6228 8.624,0.6228 L8.624,0.6228 L6.8132,0.6228 C3.0764,0.6228 0.0464,3.6516 0.0464,7.3872 L0.0464,7.3872 L0.0464,85.8744 C0.0464,89.6112 3.0764,92.64 6.8132,92.64 L6.8132,92.64 L37.5272,92.64 C41.264,92.64 44.294,89.6112 44.294,85.8744 L44.294,85.8744 L44.294,7.3872 C44.294,3.6516 41.264,0.6228 37.5272,0.6228 L37.5272,0.6228" id="path-11"></path>
        <path d="M35.8796,0.6228 C35.288,0.6228 34.8104,1.1004 34.8104,1.6896 L34.8104,1.6896 L34.8104,2.1468 C34.8104,2.9892 34.1276,3.672 33.2876,3.672 L33.2876,3.672 L11.054,3.672 C10.2116,3.672 9.53,2.9892 9.53,2.1468 L9.53,2.1468 L9.53,1.5276 C9.53,1.0284 9.1232,0.6228 8.624,0.6228 L8.624,0.6228 L6.8132,0.6228 C3.0764,0.6228 0.0464,3.6516 0.0464,7.3872 L0.0464,7.3872 L0.0464,85.8744 C0.0464,89.6112 3.0764,92.64 6.8132,92.64 L6.8132,92.64 L37.5272,92.64 C41.264,92.64 44.294,89.6112 44.294,85.8744 L44.294,85.8744 L44.294,7.3872 C44.294,3.6516 41.264,0.6228 37.5272,0.6228 L37.5272,0.6228" id="path-13"></path>
        <polygon id="path-15" points="0.87768 0.6984 64.89528 0.6984 64.89528 45.14016 0.87768 45.14016"></polygon>
    </defs>
    <g id="Gofun-versión-2---HACER-LO-ULTIMO" stroke="none" stroke-width="1" fill="none" fill-rule="evenodd">
        <g id="Pago-movil--CJ" transform="translate(-422.000000, -410.000000)">
            <g id="Pago_pedido_movil_festival" transform="translate(416.000000, 410.000000)">
                <g id="Group-15" transform="translate(30.000000, 0.000000)">
                    <path d="M337.744111,326.70324 L364.824511,307.89324 C377.231311,306.02604 393.106111,291.48444 393.106111,291.48444 L376.564111,264.40404 C372.029311,261.33564 374.029711,249.32964 374.029711,249.32964 C374.029711,249.32964 376.031311,239.85804 375.497311,232.52004 C374.963311,225.18324 368.027311,227.85084 368.027311,227.85084 L368.027311,235.85484 C368.027311,235.85484 362.023711,251.06364 360.689311,259.60164 C359.354911,268.13964 351.484111,281.48004 351.484111,281.48004 L337.744111,291.48444 L337.744111,326.70324 Z" id="Fill-369" fill="#EAB5B8"></path>
                    <path d="M420.925831,281.84352 C422.897431,281.80872 424.209031,281.12232 425.071831,280.13232 C427.753831,277.05672 425.459431,272.23872 421.378231,272.23872 L420.925831,272.23872 L420.925831,281.84352 Z" id="Fill-373" fill="#EAB5B8"></path>
                    <path d="M378.128191,230.50044 L418.011391,230.50044 C419.762191,230.50044 421.180591,231.92004 421.180591,233.67084 L421.180591,304.72044 C421.180591,306.47124 419.762191,307.89084 418.011391,307.89084 L378.128191,307.89084 C376.377391,307.89084 374.958991,306.47124 374.958991,304.72044 L374.958991,233.67084 C374.958991,231.92004 376.377391,230.50044 378.128191,230.50044" id="Fill-374" fill="#C4CED6"></path>
                    <polygon id="Fill-377" fill="#FFFFFF" points="379.448551 296.2692 416.690551 296.2692 416.690551 240.8016 379.448551 240.8016"></polygon>
                    <path d="M378.133351,230.175 L378.133351,230.7162 L417.910951,230.7162 C418.659751,230.7162 419.331751,231.0186 419.823751,231.5094 C420.314551,232.0002 420.616951,232.6734 420.616951,233.4222 L420.616951,305.1294 C420.616951,305.877 420.314551,306.5514 419.823751,307.0422 C419.331751,307.533 418.659751,307.8342 417.910951,307.8354 L378.133351,307.8354 C377.384551,307.8342 376.711351,307.533 376.220551,307.0422 C375.729751,306.5514 375.428551,305.877 375.428551,305.1294 L375.428551,233.4222 C375.428551,232.6734 375.729751,232.0002 376.220551,231.5094 C376.711351,231.0186 377.384551,230.7162 378.133351,230.7162 L378.133351,230.175 L378.133351,229.6338 C376.040551,229.635 374.346151,231.3306 374.346151,233.4222 L374.346151,305.1294 C374.346151,307.2222 376.040551,308.9166 378.133351,308.9166 L417.910951,308.9166 C420.002551,308.9166 421.698151,307.2222 421.699351,305.1294 L421.699351,233.4222 C421.698151,231.3306 420.002551,229.635 417.910951,229.6338 L378.133351,229.6338 L378.133351,230.175 Z" id="Fill-378" fill="#7E8FA3"></path>
                    <path d="M390.084991,300.2256 L392.370991,300.2256 L391.643791,301.1412 C391.586191,301.2132 391.586191,301.3152 391.642591,301.3872 L392.372191,302.3112 L390.084991,302.3112 L390.084991,302.7072 L392.781391,302.7072 C392.856991,302.7072 392.926591,302.664 392.960191,302.5956 C392.992591,302.5272 392.984191,302.4456 392.937391,302.3868 L392.050591,301.2648 L392.936191,300.1512 C392.984191,300.0912 392.992591,300.0096 392.960191,299.9412 C392.926591,299.8728 392.856991,299.8296 392.781391,299.8296 L390.084991,299.8296 L390.084991,300.2256 Z" id="Fill-379" fill="#FFFFFF"></path>
                    <path d="M389.302231,299.88984 L388.456231,300.76344 C388.320631,300.90384 388.252231,301.08624 388.252231,301.26864 C388.252231,301.44984 388.320631,301.63224 388.456231,301.77384 L389.302231,302.64744 L389.586631,302.37264 L388.741831,301.49784 C388.678231,301.43304 388.648231,301.35144 388.648231,301.26864 C388.648231,301.18464 388.678231,301.10304 388.741831,301.03944 L389.586631,300.16464 L389.302231,299.88984 Z" id="Fill-380" fill="#FFFFFF"></path>
                    <polygon id="Fill-381" fill="#FFFFFF" points="404.093671 301.21488 404.093671 301.03608 406.287271 299.79408 408.299671 301.03128 408.298471 301.21488 408.695671 301.21488 408.695671 300.92088 408.695671 300.80928 406.295671 299.33448 403.697671 300.80448 403.697671 301.21488"></polygon>
                    <polygon id="Fill-382" fill="#FFFFFF" points="408.298831 301.82016 408.298831 302.31336 404.092831 302.31336 404.092831 301.82016 403.696831 301.82016 403.696831 302.51136 403.696831 302.70936 408.694831 302.70936 408.694831 301.82016"></polygon>
                    <path d="M395.392471,273.2352 L395.214871,273.2352 C395.214871,274.2804 394.792471,275.2236 394.107271,275.9088 C393.422071,276.594 392.478871,277.0164 391.433671,277.0164 C390.388471,277.0164 389.444071,276.594 388.758871,275.9088 C388.073671,275.2236 387.651271,274.2804 387.651271,273.2352 C387.651271,272.19 388.073671,271.2456 388.758871,270.5604 C389.444071,269.8764 390.388471,269.4528 391.433671,269.4528 C392.478871,269.4528 393.422071,269.8764 394.107271,270.5604 C394.792471,271.2456 395.214871,272.19 395.214871,273.2352 L395.392471,273.2352 L395.568871,273.2352 C395.568871,270.9504 393.717271,269.0988 391.433671,269.0988 C389.148871,269.0988 387.297271,270.9504 387.297271,273.2352 C387.297271,275.52 389.148871,277.3716 391.433671,277.3716 C393.717271,277.3716 395.568871,275.52 395.568871,273.2352 L395.392471,273.2352 Z" id="Fill-386" fill="#7E8FA3"></path>
                    <path d="M377.231551,280.27908 C377.231551,292.73028 372.721951,302.82348 367.159951,302.82348 C361.596751,302.82348 357.087151,292.73028 357.087151,280.27908 C357.087151,267.82788 361.596751,257.73348 367.159951,257.73348 C372.721951,257.73348 377.231551,267.82788 377.231551,280.27908" id="Fill-389" fill="#EAB5B8"></path>
                    <path d="M432.051871,245.08908 L408.913471,245.08908 C407.977471,245.08908 407.217871,244.32948 407.217871,243.39348 L407.217871,224.21148 C407.217871,223.27428 407.977471,222.51468 408.913471,222.51468 L432.051871,222.51468 C432.989071,222.51468 433.747471,223.27428 433.747471,224.21148 L433.747471,243.39348 C433.747471,244.32948 432.989071,245.08908 432.051871,245.08908" id="Fill-390" fill="#241DBA"></path>
                    <path d="M483.312391,341.42424 L469.572391,331.41864 C469.572391,331.41864 461.700391,318.07824 460.367191,309.54144 C459.032791,301.00344 453.029191,285.79464 453.029191,285.79464 L453.029191,277.79064 C453.029191,277.79064 446.091991,275.12304 445.559191,282.45984 C445.025191,289.79664 447.025591,299.26944 447.025591,299.26944 C447.025591,299.26944 449.028391,311.27544 444.492391,314.34384 L427.949191,341.42424 C427.949191,341.42424 443.825191,355.96584 456.230791,357.83304 L483.312391,376.64304 L483.312391,341.42424 Z" id="Fill-393" fill="#EAB5B8"></path>
                    <path d="M401.832511,293.3622 L401.378911,293.3622 C397.298911,293.3622 395.004511,298.1802 397.686511,301.257 C398.549311,302.247 399.860911,302.9322 401.832511,302.9682 L401.832511,293.3622 Z" id="Fill-394" fill="#EAB5B8"></path>
                    <path d="M401.832511,302.96808 L401.378911,302.96808 C397.298911,302.96808 395.004511,307.78608 397.686511,310.86168 C398.549311,311.85168 399.860911,312.53688 401.832511,312.57288 L401.832511,302.96808 Z" id="Fill-395" fill="#EAB5B8"></path>
                    <path d="M401.832511,312.5724 L401.378911,312.5724 C397.298911,312.5724 395.004511,317.3916 397.686511,320.4672 C398.549311,321.4572 399.860911,322.1424 401.832511,322.1772 L401.832511,312.5724 Z" id="Fill-396" fill="#EAB5B8"></path>
                    <path d="M401.832511,322.17744 L401.378911,322.17744 C397.298911,322.17744 395.004511,326.99544 397.686511,330.07224 C398.549311,331.06224 399.860911,331.74744 401.832511,331.78344 L401.832511,322.17744 Z" id="Fill-397" fill="#EAB5B8"></path>
                    <g id="Group-401" transform="translate(399.721351, 261.600000)">
                        <mask id="mask-2" fill="white">
                            <use xlink:href="#path-1"></use>
                        </mask>
                        <g id="Clip-400"></g>
                        <path d="M0.705,60.42504 L0.705,60.66864 C1.0098,60.60864 1.3278,60.57744 1.6578,60.57744 L2.1114,60.57744 C1.599,60.56904 1.1322,60.51504 0.705,60.42504 L0.705,60.42504 Z M0.705,50.82024 L0.705,51.06384 C1.0098,51.00384 1.3278,50.97264 1.6578,50.97264 L2.1114,50.97264 C1.599,50.96304 1.1322,50.91024 0.705,50.82024 L0.705,50.82024 Z M2.1138,47.31744 L2.1114,47.31744 L2.1114,50.97264 L2.1114,60.57744 L2.1114,70.18344 C1.599,70.17384 1.1322,70.12104 0.705,70.02984 L0.705,87.97224 C0.705,92.26344 4.1838,95.74224 8.475,95.74224 L40.2642,95.74224 C42.7878,95.74224 45.0318,94.53864 46.4514,92.67504 C45.9066,92.39544 45.3678,92.10744 44.8302,91.81104 C43.587,93.23664 41.7534,94.13904 39.7074,94.13904 L8.8998,94.13904 C5.151,94.13904 2.1138,91.10904 2.1138,87.37344 L2.1138,87.24864 L2.1138,47.31744 Z M46.4946,32.91384 L46.4946,50.64264 C48.7122,46.10664 47.3046,37.66944 47.3046,37.66944 C47.3046,37.66944 46.8942,35.72424 46.4946,32.91384 L46.4946,32.91384 Z M40.2642,0.51744 L23.733,0.51744 C23.229,0.74544 22.647,0.90624 21.9774,0.98304 L21.9774,1.04304 C24.3426,1.19184 26.0478,2.97624 26.427,5.02464 L35.3838,5.02464 C36.021,5.02464 36.6474,4.64544 36.9138,4.09584 C36.9582,3.95424 36.9822,3.80304 36.9822,3.64584 L36.9822,3.18864 C36.9822,3.02424 37.0194,2.86824 37.0854,2.72904 C37.1886,2.28144 37.5006,1.92624 37.9758,1.92624 L39.6258,1.92624 C41.7606,1.92624 43.6494,2.93784 44.877,4.50144 C45.885,5.68344 46.4946,7.21344 46.4946,8.88624 L46.4946,18.12864 C46.8918,17.30424 47.4318,16.74384 48.0354,16.37304 L48.0354,8.28864 C48.0354,3.99624 44.5566,0.51744 40.2642,0.51744 L40.2642,0.51744 Z" id="Fill-399" fill="#7E8FA3" mask="url(#mask-2)"></path>
                    </g>
                    <g id="Group-412" transform="translate(399.721351, 261.600000)" fill="#7E8FA3">
                        <path d="M23.7336,0.51792 L21.978,0.51792 L21.978,0.98352 C22.6476,0.90552 23.2284,0.74472 23.7336,0.51792" id="Fill-402"></path>
                        <path d="M21.97764,1.04328 L21.97764,5.02488 L26.42724,5.02488 C26.04804,2.97648 24.34284,1.19208 21.97764,1.04328" id="Fill-404"></path>
                        <path d="M0.705,41.21484 L0.705,41.45964 C1.0098,41.39964 1.3278,41.36844 1.6578,41.36844 L2.1114,41.36844 C1.599,41.35884 1.1322,41.30604 0.705,41.21484 L0.705,41.21484 Z M2.1138,34.66884 L2.1114,34.66884 L2.1114,41.36844 L2.1114,46.23564 L2.1138,46.23564 L2.1138,34.66884 Z M16.9698,5.02524 L20.895,5.02524 L20.895,0.51804 L16.9698,0.51804 L16.9698,5.02524 Z" id="Fill-406"></path>
                        <path d="M16.96944,0.51792 L8.47584,0.51792 C4.18344,0.51792 0.70464,3.99672 0.70464,8.28792 L0.70464,31.85352 C1.00944,31.79352 1.32744,31.76232 1.65744,31.76232 L2.11104,31.76232 L2.11104,34.66872 L2.11344,34.66872 L2.11344,8.76192 C2.11344,5.02512 5.17344,1.92672 8.91024,1.92672 L10.72104,1.92672 C11.22264,1.92672 11.69304,2.40192 11.69304,2.90112 L11.69304,3.52032 C11.69304,4.36272 12.30984,5.02512 13.15224,5.02512 L16.96944,5.02512 L16.96944,0.51792 Z" id="Fill-408"></path>
                        <path d="M20.895,0.51828 L20.895,5.02548 L21.9774,5.02548 L21.9774,1.04268 L21.9774,0.98388 L21.9774,0.51828 L20.895,0.51828 Z M2.1102,47.31708 L2.1138,47.31708 L2.1138,46.23588 L2.1102,46.23588 L2.1102,47.31708 Z" id="Fill-410"></path>
                    </g>
                    <path d="M447.757231,277.9734 C447.153631,278.3442 446.613631,278.9034 446.215231,279.729 L446.215231,294.5142 C446.614831,297.3234 447.026431,299.2686 447.026431,299.2686 C447.026431,299.2686 448.432831,307.707 446.215231,312.243 L446.215231,348.9738 C446.215231,350.6718 445.588831,352.2234 444.552031,353.4102 C445.089631,353.7078 445.628431,353.9958 446.172031,354.2754 C447.166831,352.9698 447.757231,351.3402 447.757231,349.5726 L447.757231,277.9734 Z" id="Fill-413" fill="#7E8FA3"></path>
                    <g id="Group-425" transform="translate(399.721351, 262.800000)">
                        <path d="M2.11116,30.5622 L1.65756,30.5622 C1.32756,30.5622 1.00956,30.5934 0.70476,30.6534 L0.70476,40.0146 C1.13196,40.1058 1.59876,40.1586 2.11116,40.1682 L2.11116,33.4698 L2.11116,30.5622 Z" id="Fill-415" fill="#7E8FA3"></path>
                        <path d="M2.11116,40.16808 L2.11116,40.16808 L1.65756,40.16808 C1.32756,40.16808 1.00956,40.19928 0.70476,40.25928 L0.70476,49.61928 C1.13196,49.71048 1.59876,49.76328 2.11116,49.77288 L2.11116,46.11768 L2.11116,45.03528 L2.11116,40.16808 Z" id="Fill-417" fill="#7E8FA3"></path>
                        <path d="M2.11116,49.7724 L2.11116,49.7724 L1.65756,49.7724 C1.32756,49.7724 1.00956,49.8036 0.70476,49.8636 L0.70476,59.2248 C1.13196,59.316 1.59876,59.3688 2.11116,59.3772 L2.11116,49.7724 Z" id="Fill-419" fill="#7E8FA3"></path>
                        <path d="M2.11116,59.37744 L2.11116,59.37744 L1.65756,59.37744 C1.32756,59.37744 1.00956,59.40864 0.70476,59.46864 L0.70476,68.82984 C1.13196,68.92104 1.59876,68.97384 2.11116,68.98344 L2.11116,59.37744 Z" id="Fill-421" fill="#7E8FA3"></path>
                        <path d="M38.0538,0.92076 C37.4622,0.92076 36.9822,1.39836 36.9822,1.98876 L36.9822,2.44596 C36.9822,3.28716 36.297,3.96996 35.4534,3.96996 L13.1538,3.96996 C12.3102,3.96996 11.625,3.28716 11.625,2.44596 L11.625,1.82676 C11.625,1.32636 11.2182,0.92076 10.7178,0.92076 L8.8998,0.92076 C5.151,0.92076 2.1138,3.94956 2.1138,7.68636 L2.1138,86.17356 C2.1138,89.90916 5.151,92.93916 8.8998,92.93916 L39.7074,92.93916 C43.4562,92.93916 46.4946,89.90916 46.4946,86.17356 L46.4946,7.68636 C46.4946,3.94956 43.4562,0.92076 39.7074,0.92076 L38.0538,0.92076 Z" id="Fill-423" fill="#FFFFFF"></path>
                    </g>
                    <g id="Group-444" transform="translate(401.921351, 262.800000)">
                        <g id="Group-428">
                            <mask id="mask-4" fill="white">
                                <use xlink:href="#path-3"></use>
                            </mask>
                            <g id="Clip-427"></g>
                            <path d="M39.78716,16.13928 L41.31356,16.13928 C42.93236,16.13928 44.24636,14.82648 44.24636,13.20648 L44.24636,0.38688 L36.85436,0.38688 L36.85436,13.20648 C36.85436,14.82648 38.16716,16.13928 39.78716,16.13928" id="Fill-426" fill="#241DBA" mask="url(#mask-4)"></path>
                        </g>
                        <g id="Group-431">
                            <mask id="mask-6" fill="white">
                                <use xlink:href="#path-5"></use>
                            </mask>
                            <g id="Clip-430"></g>
                            <path d="M32.59124,16.13928 L34.11764,16.13928 C35.73764,16.13928 37.05044,14.82648 37.05044,13.20648 L37.05044,0.38688 L29.65964,0.38688 L29.65964,13.20648 C29.65964,14.82648 30.97244,16.13928 32.59124,16.13928" id="Fill-429" fill="#C4CED6" mask="url(#mask-6)"></path>
                        </g>
                        <g id="Group-434">
                            <mask id="mask-8" fill="white">
                                <use xlink:href="#path-7"></use>
                            </mask>
                            <g id="Clip-433"></g>
                            <path d="M25.20032,16.13928 L26.72672,16.13928 C28.34552,16.13928 29.65952,14.82648 29.65952,13.20648 L29.65952,0.38688 L22.26752,0.38688 L22.26752,13.20648 C22.26752,14.82648 23.58032,16.13928 25.20032,16.13928" id="Fill-432" fill="#241DBA" mask="url(#mask-8)"></path>
                        </g>
                        <g id="Group-437">
                            <mask id="mask-10" fill="white">
                                <use xlink:href="#path-9"></use>
                            </mask>
                            <g id="Clip-436"></g>
                            <path d="M17.80928,16.13928 L19.33568,16.13928 C20.95448,16.13928 22.26728,14.82648 22.26728,13.20648 L22.26728,0.38688 L14.87648,0.38688 L14.87648,13.20648 C14.87648,14.82648 16.18928,16.13928 17.80928,16.13928" id="Fill-435" fill="#C4CED6" mask="url(#mask-10)"></path>
                        </g>
                        <g id="Group-440">
                            <mask id="mask-12" fill="white">
                                <use xlink:href="#path-11"></use>
                            </mask>
                            <g id="Clip-439"></g>
                            <path d="M10.41812,16.13928 L11.94452,16.13928 C13.56452,16.13928 14.87732,14.82648 14.87732,13.20648 L14.87732,0.38688 L7.48532,0.38688 L7.48532,13.20648 C7.48532,14.82648 8.79812,16.13928 10.41812,16.13928" id="Fill-438" fill="#241DBA" mask="url(#mask-12)"></path>
                        </g>
                        <g id="Group-443">
                            <mask id="mask-14" fill="white">
                                <use xlink:href="#path-13"></use>
                            </mask>
                            <g id="Clip-442"></g>
                            <path d="M3.0272,16.13928 L4.5536,16.13928 C6.1736,16.13928 7.4864,14.82648 7.4864,13.20648 L7.4864,0.38688 L0.0944,0.38688 L0.0944,13.20648 C0.0944,14.82648 1.4072,16.13928 3.0272,16.13928" id="Fill-441" fill="#C4CED6" mask="url(#mask-14)"></path>
                        </g>
                    </g>
                    <path d="M424.404271,293.06508 L421.915471,293.06508 C421.791871,293.06508 421.692271,293.16468 421.692271,293.28828 L421.692271,293.63268 L421.589071,293.63268 C421.341871,293.63268 421.142671,293.83188 421.142671,294.07788 L421.142671,298.89228 L421.142671,298.98468 C421.111471,301.00188 420.097471,303.67428 418.647871,307.14708 L417.675871,309.45348 C415.813471,313.94508 416.301871,316.22628 416.301871,320.92668 L416.301871,338.41188 C416.301871,339.89028 417.499471,341.08908 418.979071,341.08908 L427.340671,341.08908 C428.819071,341.08908 430.019071,339.89028 430.019071,338.41188 L430.019071,320.92668 C430.019071,316.17108 430.517071,313.89108 428.576671,309.29268 C426.635071,304.69428 425.177071,301.31268 425.177071,298.89228 L425.177071,294.07788 C425.177071,293.83188 424.976671,293.63268 424.730671,293.63268 L424.627471,293.63268 L424.627471,293.28828 C424.627471,293.16468 424.526671,293.06508 424.404271,293.06508" id="Fill-445" fill="#E0E5EA"></path>
                    <path d="M409.218871,329.76444 L410.183671,339.04884 C410.302471,340.18524 411.260071,341.04924 412.403671,341.04924 L417.328471,341.04924 C418.475671,341.04924 419.434471,340.18044 419.548471,339.04044 L420.476071,329.75964 C420.549271,329.02404 420.012871,328.36764 419.277271,328.29444 L419.144071,328.28724 L410.550871,328.28724 C409.811671,328.28724 409.211671,328.88724 409.211671,329.62644 L409.218871,329.76444 Z" id="Fill-447" fill="#C4CED6"></path>
                    <path d="M408.043471,326.63316 C409.959871,324.71556 413.067871,324.71556 414.985471,326.63316 L413.281471,328.33716 L410.599471,328.33716 C409.860271,328.33716 409.261471,328.93596 409.261471,329.67516 L409.268671,329.81436 L409.507471,332.11116 L408.043471,333.57516 C406.148671,331.68036 406.127071,328.62156 407.977471,326.70036 L408.043471,326.63316 Z" id="Fill-449" fill="#241DBA"></path>
                    <path d="M423.888871,329.65812 L443.342071,329.65812 C443.637271,329.65812 443.877271,329.89812 443.877271,330.19332 L443.848471,330.36732 L441.116071,338.36172 C440.523271,340.09572 438.894871,341.26092 437.062471,341.26092 L430.426471,341.26092 C428.639671,341.26092 427.040071,340.15092 426.413671,338.47692 L423.387271,330.38052 C423.284071,330.10452 423.424471,329.79612 423.701671,329.69172 L423.888871,329.65812 Z" id="Fill-451" fill="#7E8FA3"></path>
                    <path d="M434.299591,326.45184 C434.085991,326.26704 434.006791,326.07024 434.005591,325.88544 C434.006791,325.69944 434.085991,325.50384 434.298391,325.32024 L434.340391,325.28544 C434.695591,324.98424 434.899591,324.56904 434.898396,324.14424 C434.899591,323.71824 434.695591,323.30304 434.340391,323.00304 L434.301991,322.96944 L434.303191,322.97064 C434.112391,322.80504 434.043991,322.63344 434.042791,322.47264 C434.043991,322.31064 434.112391,322.13904 434.301991,321.97464 C434.646391,321.68304 434.845591,321.27984 434.843191,320.86584 C434.845591,320.45184 434.646391,320.04864 434.301991,319.75824 C434.133991,319.61304 433.880791,319.63344 433.736791,319.80264 C433.591591,319.97064 433.611991,320.22504 433.781191,320.36904 C433.970791,320.53344 434.039191,320.70504 434.040391,320.86584 C434.039191,321.02664 433.970791,321.19824 433.779991,321.36384 C433.436791,321.65544 433.237591,322.05864 433.239991,322.47264 C433.237591,322.88664 433.436791,323.28984 433.779991,323.58144 L433.782391,323.58144 L433.819591,323.61384 C434.019991,323.78784 434.093191,323.97144 434.094391,324.14424 C434.093191,324.31584 434.019991,324.49944 433.818391,324.67464 L433.777591,324.70944 C433.410391,325.01904 433.200391,325.44744 433.202791,325.88544 C433.200391,326.32344 433.410391,326.75064 433.776391,327.06264 C433.945591,327.20664 434.198791,327.18744 434.342791,327.01824 C434.486791,326.85024 434.467591,326.59704 434.299591,326.45184" id="Fill-453" fill="#E5E7EB"></path>
                    <path d="M436.761511,321.77316 C436.547911,321.57756 436.461511,321.36276 436.460311,321.15396 C436.461511,320.94516 436.547911,320.73036 436.761511,320.53596 L436.802311,320.49876 C437.156306,320.18196 437.353111,319.75476 437.351916,319.32036 C437.353111,318.88596 437.156306,318.45876 436.802311,318.14316 L436.765111,318.10956 C436.573111,317.93436 436.498711,317.74356 436.497511,317.56116 C436.498711,317.37756 436.573111,317.18796 436.763911,317.01516 C436.929511,316.86756 436.942711,316.61316 436.795111,316.44876 C436.646311,316.28316 436.393111,316.26996 436.227511,316.41756 C435.884311,316.72356 435.692311,317.13996 435.693511,317.56116 C435.692311,317.98356 435.884311,318.39876 436.227511,318.70476 L436.264711,318.73956 C436.467511,318.92316 436.547911,319.12476 436.549111,319.32036 C436.547911,319.51596 436.467511,319.71756 436.265911,319.90236 L436.223911,319.93836 C435.857911,320.26596 435.655111,320.70636 435.656306,321.15396 C435.655111,321.60156 435.857911,322.04316 436.223911,322.36956 C436.388311,322.51836 436.642711,322.50516 436.791511,322.34076 C436.939111,322.17516 436.925911,321.92196 436.761511,321.77316" id="Fill-455" fill="#E5E7EB"></path>
                    <path d="M436.290871,329.06748 L436.334071,329.02908 C436.700071,328.71108 436.907671,328.27788 436.906476,327.83508 C436.907671,327.39228 436.700071,326.95788 436.334071,326.64108 L436.293271,326.60628 L436.294471,326.60748 C436.091671,326.42748 436.014871,326.23548 436.013671,326.05188 C436.014871,325.86828 436.091671,325.67628 436.293271,325.49748 C436.461271,325.35228 436.478071,325.09908 436.332871,324.93108 C436.186471,324.76428 435.933271,324.74628 435.766471,324.89268 C435.410071,325.19988 435.209671,325.62228 435.210865,326.05188 C435.209671,326.48148 435.410071,326.90268 435.765271,327.21228 L435.766471,327.21348 L435.807271,327.24708 C436.018471,327.43428 436.101271,327.63948 436.102471,327.83508 C436.101271,328.03068 436.018471,328.23588 435.804871,328.42548 L435.761671,328.46268 C435.594871,328.60908 435.578071,328.86348 435.724471,329.03028 C435.869671,329.19708 436.124071,329.21388 436.290871,329.06748" id="Fill-457" fill="#DDDDE3"></path>
                    <path d="M453.896671,307.67316 C459.458671,307.67316 463.968271,317.76636 463.968271,330.21876 C463.968271,342.66996 459.458671,352.76436 453.896671,352.76436 C448.334671,352.76436 443.825071,342.66996 443.825071,330.21876 C443.825071,317.76636 448.334671,307.67316 453.896671,307.67316" id="Fill-459" fill="#EAB5B8"></path>
                    <path d="M235.126951,98.69964 L221.385751,88.69404 C221.385751,88.69404 213.516151,75.35364 212.181751,66.81564 C210.847351,58.27764 204.843751,43.07004 204.843751,43.07004 L204.843751,35.06604 C204.843751,35.06604 197.907751,32.39844 197.373751,39.73524 C196.839751,47.07204 198.841351,56.54364 198.841351,56.54364 C198.841351,56.54364 200.841751,68.54964 196.306951,71.61804 L179.764951,98.69964 C179.764951,98.69964 195.639751,113.24004 208.045351,115.10844 L235.126951,133.91844 L235.126951,98.69964 Z" id="Fill-461" fill="#EAB5B8"></path>
                    <path d="M153.647431,50.63748 L153.195031,50.63748 C149.113831,50.63748 146.819431,55.45548 149.501431,58.53228 C150.364231,59.52228 151.675831,60.20748 153.647431,60.24228 L153.647431,50.63748 Z" id="Fill-463" fill="#EAB5B8"></path>
                    <path d="M153.647431,60.24276 L153.195031,60.24276 C149.113831,60.24276 146.819431,65.06076 149.501431,68.13756 C150.364231,69.12756 151.675831,69.81276 153.647431,69.84756 L153.647431,60.24276 Z" id="Fill-465" fill="#EAB5B8"></path>
                    <path d="M153.647431,69.8478 L153.195031,69.8478 C149.113831,69.8478 146.819431,74.6658 149.501431,77.7426 C150.364231,78.7326 151.675831,79.4178 153.647431,79.4526 L153.647431,69.8478 Z" id="Fill-467" fill="#EAB5B8"></path>
                    <path d="M153.647431,79.45284 L153.195031,79.45284 C149.113831,79.45284 146.819431,84.27084 149.501431,87.34644 C150.364231,88.33764 151.675831,89.02284 153.647431,89.05764 L153.647431,79.45284 Z" id="Fill-469" fill="#EAB5B8"></path>
                    <path d="M199.839151,40.13904 L199.327951,40.13904 L199.327951,26.12784 C199.327951,23.97744 198.473551,21.91464 196.953151,20.39424 C195.431551,18.87384 193.369951,18.01944 191.218351,18.01944 L161.535151,18.01944 C159.384751,18.01944 157.323151,18.87384 155.801551,20.39424 C154.281151,21.91464 153.426751,23.97744 153.426751,26.12784 L153.426751,102.99024 C153.426751,105.14184 154.281151,107.20344 155.801551,108.72504 C157.323151,110.24544 159.384751,111.09984 161.535151,111.09984 L191.218351,111.09984 C193.369951,111.09984 195.431551,110.24544 196.953151,108.72504 C198.473551,107.20344 199.327951,105.14184 199.327951,102.99024 L199.327951,50.11104 L199.839151,50.11104 L199.839151,40.13904 Z" id="Fill-471" fill="#7E8FA3"></path>
                    <path d="M197.601751,26.18484 L197.601751,102.93324 C197.599351,104.75124 196.783351,106.47204 195.378151,107.62524 C195.224551,107.75124 195.063751,107.86884 194.898151,107.97684 C193.905751,108.63924 192.739351,108.99204 191.545351,108.989652 L161.720551,108.989652 C161.236951,108.989652 160.754551,108.93324 160.285351,108.81804 C157.572151,108.15684 155.664151,105.72564 155.664151,102.93324 L155.664151,26.18484 C155.664151,22.84044 158.374951,20.12844 161.720551,20.12844 L165.339751,20.12844 L187.672951,20.12844 L191.545351,20.12844 C194.889751,20.12844 197.601751,22.84044 197.601751,26.18484" id="Fill-473" fill="#FFFFFF"></path>
                    <path d="M196.305991,107.1738 C196.032391,107.523 195.721591,107.841 195.378391,108.1218 C195.224791,108.2478 195.063991,108.3654 194.898391,108.4746 C193.938391,109.1142 192.786391,109.3146 191.545591,109.3146 L165.201991,109.3146 L165.656791,96.6702 L168.584791,90.1638 C169.242391,90.6798 169.945591,91.1334 170.687191,91.5198 C170.862391,91.6146 171.048391,91.7094 171.241591,91.8018 C173.984791,93.1266 178.467991,94.2918 182.814391,91.0482 C184.182391,90.027 185.535991,88.5678 186.819991,86.5398 L194.934391,91.1394 L195.360391,96.1242 L196.305991,107.1738 Z" id="Fill-475" fill="#FFFFFF"></path>
                    <path d="M174.573751,60.45252 L168.753751,60.45252 C166.329751,60.45252 164.366551,62.41692 164.365351,64.84092 C164.365351,67.26372 166.329751,69.22692 168.753751,69.22812 L173.358151,69.22812 C173.754151,69.22812 174.074551,68.90652 174.074551,68.51172 C174.074551,68.11572 173.754151,67.79532 173.358151,67.79532 L168.753751,67.79532 C167.935351,67.79532 167.200951,67.46532 166.663351,66.93012 C166.128151,66.39252 165.798151,65.65812 165.798151,64.84092 C165.798151,64.02252 166.128151,63.28812 166.663351,62.75052 C167.200951,62.21532 167.935351,61.88532 168.753751,61.88532 L174.573751,61.88532 C174.968551,61.88532 175.290151,61.56492 175.290151,61.16892 C175.290151,60.77292 174.968551,60.45252 174.573751,60.45252" id="Fill-477" fill="#241DBA"></path>
                    <path d="M174.573751,61.8852 C175.392151,61.8852 176.126551,62.2152 176.662951,62.7504 C177.199351,63.288 177.528151,64.0224 177.528151,64.8408 C177.528151,65.2356 177.849751,65.5572 178.244551,65.5572 C178.640551,65.5572 178.960951,65.2356 178.960951,64.8408 C178.960951,62.4168 176.996551,60.4536 174.573751,60.4524 C174.177751,60.4524 173.857351,60.7728 173.857351,61.1688 C173.857351,61.5648 174.177751,61.8852 174.573751,61.8852" id="Fill-479" fill="#241DBA"></path>
                    <path d="M178.692391,69.22788 L184.512391,69.22788 C186.936391,69.22788 188.899591,67.26348 188.900791,64.84068 C188.899591,62.41668 186.936391,60.45348 184.512391,60.45228 L179.907991,60.45228 C179.511991,60.45228 179.191591,60.77268 179.191591,61.16868 C179.191591,61.56468 179.511991,61.88508 179.907991,61.88508 L184.512391,61.88508 C185.330791,61.88508 186.065191,62.21508 186.601591,62.75148 C187.137991,63.28788 187.466791,64.02228 187.467991,64.84068 C187.466791,65.65908 187.137991,66.39228 186.601591,66.92988 C186.065191,67.46508 185.330791,67.79508 184.512391,67.79508 L178.692391,67.79508 C178.296391,67.79508 177.975991,68.11548 177.975991,68.51148 C177.975991,68.90748 178.296391,69.22788 178.692391,69.22788" id="Fill-481" fill="#241DBA"></path>
                    <path d="M178.692391,67.79532 C177.873991,67.79532 177.139591,67.46532 176.603191,66.93012 C176.066791,66.39252 175.737991,65.65812 175.737991,64.84092 C175.737991,64.44492 175.416391,64.12452 175.021591,64.12452 C174.625591,64.12452 174.305191,64.44492 174.305191,64.84092 C174.305191,67.26372 176.269591,69.22812 178.692391,69.22812 C179.088391,69.22812 179.408791,68.90772 179.408791,68.51172 C179.408791,68.11572 179.088391,67.79532 178.692391,67.79532" id="Fill-483" fill="#241DBA"></path>
                    <path d="M180.821311,55.60164 L179.254111,57.19284 C178.976911,57.47484 178.980511,57.92844 179.261311,58.20564 C179.543311,58.48284 179.996911,58.48044 180.274111,58.19844 L181.842511,56.60724 C182.119711,56.32524 182.116111,55.87164 181.834111,55.59444 C181.552111,55.31604 181.098511,55.31964 180.821311,55.60164" id="Fill-485" fill="#241DBA"></path>
                    <path d="M171.555751,56.607 L173.122951,58.1982 C173.401351,58.4802 173.853751,58.4826 174.135751,58.2054 C174.417751,57.9282 174.421351,57.4746 174.144151,57.1926 L172.576951,55.6014 C172.298551,55.3194 171.844951,55.317 171.564151,55.5942 C171.282151,55.8714 171.278551,56.325 171.555751,56.607" id="Fill-487" fill="#241DBA"></path>
                    <path d="M176.140471,54.51384 L176.140471,57.69504 C176.140471,58.09104 176.460871,58.41144 176.856871,58.41144 C177.252871,58.41144 177.573271,58.09104 177.573271,57.69504 L177.573271,54.51384 C177.573271,54.11784 177.252871,53.79744 176.856871,53.79744 C176.460871,53.79744 176.140471,54.11784 176.140471,54.51384" id="Fill-489" fill="#241DBA"></path>
                    <path d="M181.841791,73.04436 L180.274591,71.45316 C179.997391,71.17116 179.543791,71.16876 179.261791,71.44596 C178.979791,71.72316 178.976191,72.17796 179.254591,72.45876 L180.821791,74.04996 C181.098991,74.33196 181.552591,74.33436 181.834591,74.05716 C182.116591,73.77996 182.118991,73.32636 181.841791,73.04436" id="Fill-491" fill="#241DBA"></path>
                    <path d="M172.576351,74.04984 L174.143551,72.45984 C174.421951,72.17784 174.418351,71.72424 174.136351,71.44584 C173.854351,71.16864 173.400751,71.17224 173.123551,71.45304 L171.556351,73.04424 C171.277951,73.32624 171.281551,73.77984 171.563551,74.05704 C171.845551,74.33544 172.299151,74.33184 172.576351,74.04984" id="Fill-493" fill="#241DBA"></path>
                    <path d="M177.573271,75.13824 L177.573271,71.95704 C177.573271,71.56104 177.252871,71.24064 176.856871,71.24064 C176.460871,71.24064 176.140471,71.56104 176.140471,71.95704 L176.140471,75.13824 C176.140471,75.53424 176.460871,75.85464 176.856871,75.85464 C177.252871,75.85464 177.573271,75.53424 177.573271,75.13824" id="Fill-495" fill="#241DBA"></path>
                    <path d="M205.711471,64.94844 C211.273471,64.94844 215.783071,75.04164 215.783071,87.49284 C215.783071,99.94524 211.273471,110.03844 205.711471,110.03844 C200.148271,110.03844 195.639871,99.94524 195.639871,87.49284 C195.639871,75.04164 200.148271,64.94844 205.711471,64.94844" id="Fill-497" fill="#EAB5B8"></path>
                    <path d="M114.091831,1.59576 L167.925031,1.59576 C170.241031,1.59576 172.119031,3.47376 172.119031,5.79096 L172.119031,40.04736 C172.119031,42.36456 170.241031,44.24256 167.925031,44.24256 L114.091831,44.24256 C111.775831,44.24256 109.896631,42.36456 109.896631,40.04736 L109.896631,5.79096 C109.896631,3.47376 111.775831,1.59576 114.091831,1.59576" id="Fill-499" fill="#FFFFFF"></path>
                    <g id="Group-503" transform="translate(108.121351, 0.000000)">
                        <mask id="mask-16" fill="white">
                            <use xlink:href="#path-15"></use>
                        </mask>
                        <g id="Clip-502"></g>
                        <path d="M5.97048,1.59576 L5.97048,2.49336 L59.80368,2.49336 C60.71688,2.49336 61.53528,2.86056 62.13408,3.45816 C62.73288,4.05816 63.10008,4.87656 63.10008,5.79096 L63.10008,40.04736 C63.10008,40.96056 62.73288,41.77896 62.13408,42.37896 C61.53528,42.97656 60.71688,43.34376 59.80368,43.34376 L5.97048,43.34376 C5.05728,43.34376 4.23888,42.97656 3.63888,42.37896 C3.04128,41.77896 2.67408,40.96056 2.67288,40.04736 L2.67288,5.79096 C2.67408,4.87656 3.04128,4.05816 3.63888,3.45816 C4.23888,2.86056 5.05728,2.49336 5.97048,2.49336 L5.97048,1.59576 L5.97048,0.69816 C3.15768,0.69816 0.87888,2.97696 0.87768,5.79096 L0.87768,40.04736 C0.87888,42.86016 3.15768,45.13896 5.97048,45.14016 L59.80368,45.14016 C62.61648,45.13896 64.89528,42.86016 64.89528,40.04736 L64.89528,5.79096 C64.89528,2.97696 62.61648,0.69816 59.80368,0.69816 L5.97048,0.69816 L5.97048,1.59576 Z" id="Fill-501" fill="#7E8FA3" mask="url(#mask-16)"></path>
                    </g>
                    <polygon id="Fill-504" fill="#7E8FA3" points="119.031511 34.80408 119.031511 35.33688 118.424311 35.29128 118.791511 35.75808 118.337911 36.03768 118.049911 35.47728 117.764311 36.03768 117.316711 35.75808 117.676711 35.29128 117.076711 35.33688 117.076711 34.80408 117.676711 34.85808 117.316711 34.38288 117.764311 34.10328 118.049911 34.66368 118.337911 34.10328 118.791511 34.38288 118.424311 34.85808"></polygon>
                    <polygon id="Fill-506" fill="#7E8FA3" points="121.839031 34.80408 121.839031 35.33688 121.231831 35.29128 121.599031 35.75808 121.145431 36.03768 120.858631 35.47728 120.571831 36.03768 120.124231 35.75808 120.485431 35.29128 119.884231 35.33688 119.884231 34.80408 120.485431 34.85808 120.124231 34.38288 120.571831 34.10328 120.858631 34.66368 121.145431 34.10328 121.599031 34.38288 121.231831 34.85808"></polygon>
                    <polygon id="Fill-508" fill="#7E8FA3" points="124.646791 34.80408 124.646791 35.33688 124.040791 35.29128 124.406791 35.75808 123.953191 36.03768 123.666391 35.47728 123.379591 36.03768 122.933191 35.75808 123.293191 35.29128 122.693191 35.33688 122.693191 34.80408 123.293191 34.85808 122.933191 34.38288 123.379591 34.10328 123.666391 34.66368 123.953191 34.10328 124.406791 34.38288 124.040791 34.85808"></polygon>
                    <polygon id="Fill-510" fill="#7E8FA3" points="127.454431 34.80408 127.454431 35.33688 126.848431 35.29128 127.214431 35.75808 126.760831 36.03768 126.474031 35.47728 126.187231 36.03768 125.740831 35.75808 126.100831 35.29128 125.500831 35.33688 125.500831 34.80408 126.100831 34.85808 125.740831 34.38288 126.187231 34.10328 126.474031 34.66368 126.760831 34.10328 127.214431 34.38288 126.848431 34.85808"></polygon>
                    <polygon id="Fill-512" fill="#7E8FA3" points="132.083431 34.80408 132.083431 35.33688 131.476231 35.29128 131.843431 35.75808 131.389831 36.03768 131.103031 35.47728 130.816231 36.03768 130.368631 35.75808 130.728631 35.29128 130.128631 35.33688 130.128631 34.80408 130.728631 34.85808 130.368631 34.38288 130.816231 34.10328 131.103031 34.66368 131.389831 34.10328 131.843431 34.38288 131.476231 34.85808"></polygon>
                    <polygon id="Fill-514" fill="#7E8FA3" points="134.891071 34.80408 134.891071 35.33688 134.285071 35.29128 134.651071 35.75808 134.197471 36.03768 133.910671 35.47728 133.623871 36.03768 133.177471 35.75808 133.537471 35.29128 132.937471 35.33688 132.937471 34.80408 133.537471 34.85808 133.177471 34.38288 133.623871 34.10328 133.910671 34.66368 134.197471 34.10328 134.651071 34.38288 134.285071 34.85808"></polygon>
                    <polygon id="Fill-516" fill="#7E8FA3" points="137.698951 34.80408 137.698951 35.33688 137.092951 35.29128 137.458951 35.75808 137.005351 36.03768 136.718551 35.47728 136.431751 36.03768 135.985351 35.75808 136.345351 35.29128 135.745351 35.33688 135.745351 34.80408 136.345351 34.85808 135.985351 34.38288 136.431751 34.10328 136.718551 34.66368 137.005351 34.10328 137.458951 34.38288 137.092951 34.85808"></polygon>
                    <polygon id="Fill-518" fill="#7E8FA3" points="140.506471 34.80408 140.506471 35.33688 139.900471 35.29128 140.266471 35.75808 139.812871 36.03768 139.526071 35.47728 139.239271 36.03768 138.792871 35.75808 139.152871 35.29128 138.552871 35.33688 138.552871 34.80408 139.152871 34.85808 138.792871 34.38288 139.239271 34.10328 139.526071 34.66368 139.812871 34.10328 140.266471 34.38288 139.900471 34.85808"></polygon>
                    <polygon id="Fill-520" fill="#7E8FA3" points="145.135591 34.80408 145.135591 35.33688 144.528391 35.29128 144.895591 35.75808 144.441991 36.03768 144.155191 35.47728 143.868391 36.03768 143.420791 35.75808 143.780791 35.29128 143.180791 35.33688 143.180791 34.80408 143.780791 34.85808 143.420791 34.38288 143.868391 34.10328 144.155191 34.66368 144.441991 34.10328 144.895591 34.38288 144.528391 34.85808"></polygon>
                    <polygon id="Fill-522" fill="#7E8FA3" points="147.943231 34.80408 147.943231 35.33688 147.337231 35.29128 147.703231 35.75808 147.249631 36.03768 146.962831 35.47728 146.676031 36.03768 146.229631 35.75808 146.589631 35.29128 145.989631 35.33688 145.989631 34.80408 146.589631 34.85808 146.229631 34.38288 146.676031 34.10328 146.962831 34.66368 147.249631 34.10328 147.703231 34.38288 147.337231 34.85808"></polygon>
                    <polygon id="Fill-524" fill="#7E8FA3" points="150.751111 34.80408 150.751111 35.33688 150.145111 35.29128 150.511111 35.75808 150.057511 36.03768 149.770711 35.47728 149.483911 36.03768 149.037511 35.75808 149.397511 35.29128 148.797511 35.33688 148.797511 34.80408 149.397511 34.85808 149.037511 34.38288 149.483911 34.10328 149.770711 34.66368 150.057511 34.10328 150.511111 34.38288 150.145111 34.85808"></polygon>
                    <polygon id="Fill-526" fill="#7E8FA3" points="153.558631 34.80408 153.558631 35.33688 152.952631 35.29128 153.319831 35.75808 152.865031 36.03768 152.578231 35.47728 152.291431 36.03768 151.845031 35.75808 152.205031 35.29128 151.605031 35.33688 151.605031 34.80408 152.205031 34.85808 151.845031 34.38288 152.291431 34.10328 152.578231 34.66368 152.865031 34.10328 153.319831 34.38288 152.952631 34.85808"></polygon>
                    <polygon id="Fill-528" fill="#7E8FA3" points="158.186911 34.80408 158.186911 35.33688 157.580911 35.29128 157.946911 35.75808 157.493311 36.03768 157.206511 35.47728 156.919711 36.03768 156.473311 35.75808 156.833311 35.29128 156.233311 35.33688 156.233311 34.80408 156.833311 34.85808 156.473311 34.38288 156.919711 34.10328 157.206511 34.66368 157.493311 34.10328 157.946911 34.38288 157.580911 34.85808"></polygon>
                    <polygon id="Fill-530" fill="#7E8FA3" points="160.995271 34.80408 160.995271 35.33688 160.389271 35.29128 160.755271 35.75808 160.301671 36.03768 160.014871 35.47728 159.729271 36.03768 159.281671 35.75808 159.641671 35.29128 159.041671 35.33688 159.041671 34.80408 159.641671 34.85808 159.281671 34.38288 159.729271 34.10328 160.014871 34.66368 160.301671 34.10328 160.755271 34.38288 160.389271 34.85808"></polygon>
                    <polygon id="Fill-532" fill="#7E8FA3" points="163.803271 34.80408 163.803271 35.33688 163.197271 35.29128 163.563271 35.75808 163.109671 36.03768 162.822871 35.47728 162.536071 36.03768 162.089671 35.75808 162.449671 35.29128 161.849671 35.33688 161.849671 34.80408 162.449671 34.85808 162.089671 34.38288 162.536071 34.10328 162.822871 34.66368 163.109671 34.10328 163.563271 34.38288 163.197271 34.85808"></polygon>
                    <polygon id="Fill-534" fill="#7E8FA3" points="166.610671 34.80408 166.610671 35.33688 166.004671 35.29128 166.371871 35.75808 165.917071 36.03768 165.630271 35.47728 165.343471 36.03768 164.897071 35.75808 165.257071 35.29128 164.657071 35.33688 164.657071 34.80408 165.257071 34.85808 164.897071 34.38288 165.343471 34.10328 165.630271 34.66368 165.917071 34.10328 166.371871 34.38288 166.004671 34.85808"></polygon>
                    <polygon id="Fill-536" fill="#7E8FA3" points="160.184071 30.11916 160.016071 29.78916 159.753271 29.95356 159.964471 30.23196 159.611671 30.20076 159.611671 30.51516 159.964471 30.48756 159.753271 30.76116 160.016071 30.92676 160.184071 30.59796 160.353271 30.92676 160.620871 30.76116 160.404871 30.48756 160.762471 30.51516 160.762471 30.20076 160.404871 30.23196 160.620871 29.95356 160.353271 29.78916"></polygon>
                    <polygon id="Fill-538" fill="#7E8FA3" points="161.836471 30.11916 161.668471 29.78916 161.405671 29.95356 161.616871 30.23196 161.264071 30.20076 161.264071 30.51516 161.616871 30.48756 161.405671 30.76116 161.668471 30.92676 161.836471 30.59796 162.005671 30.92676 162.273271 30.76116 162.057271 30.48756 162.413671 30.51516 162.413671 30.20076 162.057271 30.23196 162.273271 29.95356 162.005671 29.78916"></polygon>
                    <polygon id="Fill-540" fill="#7E8FA3" points="163.487791 30.11916 163.319791 29.78916 163.056991 29.95356 163.268191 30.23196 162.915391 30.20076 162.915391 30.51516 163.268191 30.48756 163.056991 30.76116 163.319791 30.92676 163.487791 30.59796 163.656991 30.92676 163.923391 30.76116 163.708591 30.48756 164.064991 30.51516 164.064991 30.20076 163.708591 30.23196 163.923391 29.95356 163.656991 29.78916"></polygon>
                    <polygon id="Fill-542" fill="#7E8FA3" points="165.140191 30.11916 164.972191 29.78916 164.709391 29.95356 164.920591 30.23196 164.567791 30.20076 164.567791 30.51516 164.920591 30.48756 164.709391 30.76116 164.972191 30.92676 165.140191 30.59796 165.308191 30.92676 165.575791 30.76116 165.360991 30.48756 165.717391 30.51516 165.717391 30.20076 165.360991 30.23196 165.575791 29.95356 165.308191 29.78916"></polygon>
                    <path d="M165.257671,12.70896 L164.688871,12.70896 L164.688871,11.41656 C164.688871,8.63736 162.782071,6.69576 160.133671,6.69576 C157.486471,6.69576 155.579671,8.63736 155.579671,11.41656 L155.579671,12.70896 L155.010871,12.70896 C154.592071,12.70896 154.251271,13.04856 154.251271,13.46376 L154.251271,22.85616 C154.251271,23.27136 154.592071,23.60856 155.010871,23.60856 L165.257671,23.60856 C165.676471,23.60856 166.017271,23.27136 166.017271,22.85616 L166.017271,13.46376 C166.017271,13.04856 165.676471,12.70896 165.257671,12.70896 L165.257671,12.70896 Z M157.097671,11.41656 C157.097671,9.49176 158.351671,8.19936 160.133671,8.19936 C161.915671,8.19936 163.169671,9.49176 163.169671,11.41656 L163.169671,12.70896 L157.097671,12.70896 L157.097671,11.41656 Z M155.769271,22.10496 L164.498071,22.10496 L164.498071,14.21256 L155.769271,14.21256 L155.769271,22.10496 Z" id="Fill-544" fill="#241DBA"></path>
                    <path d="M161.705911,17.28864 C161.705911,16.42224 161.003911,15.71904 160.136311,15.71904 C159.269911,15.71904 158.566711,16.42224 158.566711,17.28864 C158.566711,17.86824 158.884711,18.36864 159.351511,18.63984 L159.351511,20.03544 C159.351511,20.25144 159.527911,20.42664 159.743911,20.42664 L160.528711,20.42664 C160.745911,20.42664 160.921111,20.25144 160.921111,20.03544 L160.921111,18.63984 C161.387911,18.36864 161.705911,17.86824 161.705911,17.28864" id="Fill-546" fill="#241DBA"></path>
                    <path d="M118.942111,11.01144 L118.942111,11.40384 L126.788911,11.40384 C127.222111,11.40384 127.572511,11.75424 127.573711,12.18864 L127.573711,18.46584 C127.572511,18.89904 127.222111,19.24944 126.788911,19.24944 L118.942111,19.24944 C118.508911,19.24944 118.158511,18.89904 118.157311,18.46584 L118.157311,12.18864 C118.158511,11.75424 118.508911,11.40384 118.942111,11.40384 L118.942111,11.01144 L118.942111,10.61904 C118.075711,10.61904 117.373711,11.32104 117.372511,12.18864 L117.372511,18.46584 C117.373711,19.33224 118.075711,20.03424 118.942111,20.03424 L126.788911,20.03424 C127.655311,20.03424 128.357311,19.33224 128.358511,18.46584 L128.358511,12.18864 C128.357311,11.32104 127.655311,10.61904 126.788911,10.61904 L118.942111,10.61904 L118.942111,11.01144 Z" id="Fill-548" fill="#7E8FA3"></path>
                    <path d="M117.765151,15.12624 L121.452751,15.12624 C121.572751,15.12624 121.684351,15.07224 121.758751,14.97984 L123.053551,13.36464 L127.570351,13.36464 L127.570351,12.58104 L122.865151,12.58104 C122.746351,12.58104 122.633551,12.63384 122.559151,12.72744 L121.264351,14.34144 L117.765151,14.34144 L117.765151,15.12624 Z" id="Fill-550" fill="#7E8FA3"></path>
                    <path d="M117.765151,17.48016 L122.874751,17.48016 C122.993551,17.48016 123.106351,17.42616 123.180751,17.33376 L124.475551,15.71856 L127.570351,15.71856 L127.570351,14.93496 L124.287151,14.93496 C124.168351,14.93496 124.055551,14.98776 123.981151,15.08136 L122.686351,16.69536 L117.765151,16.69536 L117.765151,17.48016 Z" id="Fill-552" fill="#7E8FA3"></path>
                    <path d="M275.699791,234.8628 C269.217391,231.12 261.968191,227.952 254.516191,225.3804 C249.358591,223.6092 244.133791,222.06 238.924591,220.7208 C233.714191,219.378 228.509791,218.2452 223.403791,217.224 C220.854991,216.7128 218.315791,216.2328 215.808991,215.778 C213.293791,215.3232 210.800191,214.9092 208.331791,214.5024 C203.405791,213.696 198.587791,212.952 193.880191,212.262 C184.448191,210.9024 175.504591,209.6664 167.048191,208.4808 C158.609791,207.2628 150.646591,206.112 143.247391,204.8868 C128.430991,202.4832 115.762591,199.9488 105.477391,197.5488 C95.2077908,195.1512 87.2949908,192.9564 81.9261908,191.4096 C79.2657908,190.6248 77.2065908,190.0284 75.8181908,189.5952 C74.4249908,189.18 73.7073908,188.964 73.7073908,188.964 L72.4065908,190.0848 C72.4065908,190.0848 73.0173908,190.3896 74.2077908,190.9812 C75.3849908,191.5752 77.1921908,192.438 79.6005908,193.5396 C84.4089908,195.7128 91.6521908,198.8064 101.520991,202.2 C111.368191,205.5912 123.862591,209.268 138.684991,212.6988 C142.385791,213.5652 146.235391,214.3944 150.198991,215.238 C154.163791,216.0864 158.256991,216.9084 162.466591,217.722 C170.865391,219.3708 179.726191,220.9488 188.824591,222.6432 C193.374991,223.4832 197.996191,224.3316 202.630591,225.2472 C204.947791,225.7044 207.274591,226.1724 209.596591,226.6596 C211.931791,227.1384 214.263391,227.6316 216.580591,228.1536 C221.238991,229.1832 225.843391,230.3316 230.381791,231.576 C234.935791,232.8072 239.374591,234.1956 243.656191,235.7352 C250.464991,238.2 256.877791,241.0584 262.682191,244.41 C264.167791,245.268 265.613791,246.1572 267.015391,247.0812 C267.900991,247.6356 268.712191,248.232 269.566591,248.8104 L269.675791,248.8884 L269.658991,248.8692 L269.825791,248.9928 L270.168991,249.2436 L270.851791,249.7392 C271.306591,250.0656 271.784191,250.4112 272.154991,250.7004 C273.746191,251.8848 275.421391,253.194 276.976591,254.4816 C278.513791,255.7896 279.989791,257.1228 281.420191,258.4824 C282.824191,259.842 284.142991,261.2388 285.389791,262.668 C287.859391,265.5228 289.968991,268.518 291.668191,271.6536 C293.381791,274.788 294.620191,278.0688 295.526191,281.4468 C297.310591,288.2064 297.651391,295.3488 297.150991,302.5716 C296.656591,309.798 295.476991,317.1252 293.956591,324.4584 C292.455391,331.7964 290.615791,339.1536 288.786991,346.5156 C286.924591,353.886 285.057391,361.2528 283.204591,368.5908 C282.282991,372.2688 281.361391,375.9396 280.443391,379.5984 L279.738991,382.3764 L279.552991,383.064 L279.395791,383.7948 C279.300991,384.2796 279.174991,384.7764 279.098191,385.2504 C278.726191,387.1692 278.505391,389.0964 278.373391,391.0308 C277.871791,398.7708 279.634591,406.6548 283.806991,414.0564 C285.897391,417.756 288.537391,421.3392 291.680191,424.7268 C294.816991,428.118 298.384591,431.3352 302.286991,434.3556 C306.916591,437.9628 311.967391,441.3036 317.308591,444.3876 C320.939791,446.484 324.706591,448.4616 328.563391,450.3216 C338.084191,454.9272 348.191791,458.7948 358.439791,462.0432 C368.691391,465.2952 379.115791,467.8932 389.411791,469.9752 C399.702991,472.0548 409.862191,473.6412 419.715391,474.7956 C439.424191,477.126 457.866991,477.8508 474.105391,477.5112 C490.356991,477.1848 504.404191,475.7772 515.607391,473.97 C518.409391,473.5128 521.034991,473.034 523.481791,472.5576 C525.932191,472.0728 528.192991,471.564 530.286991,471.0828 C534.444991,470.0796 537.881791,469.1076 540.611791,468.2724 C543.333391,467.4216 545.343391,466.6932 546.684991,466.2096 C548.003791,465.696 548.685391,465.4332 548.685391,465.4332 L547.648591,464.2152 C547.648591,464.2152 546.887791,464.352 545.405791,464.6124 C543.923791,464.8716 541.731391,465.2376 538.846591,465.642 C535.974991,466.0596 532.406191,466.4964 528.194191,466.8864 C523.986991,467.286 519.137791,467.6436 513.696991,467.88 C502.823791,468.3564 489.578191,468.3588 474.566191,467.4864 C459.560191,466.6164 442.764991,464.88 425.033791,461.9568 C407.326591,459.006 388.666591,454.884 370.277791,449.2572 C361.091791,446.4444 352.004191,443.2188 343.334191,439.488 C337.548991,436.9848 331.950991,434.2464 326.739391,431.238 C324.165391,429.7512 321.684991,428.1984 319.323391,426.576 C312.171391,421.6788 306.106591,416.1708 301.360591,410.1816 C299.006191,407.1792 296.987791,404.0508 295.366591,400.8096 C293.800591,397.5636 292.593391,394.2048 291.904591,390.7656 C291.552991,389.0484 291.293791,387.3084 291.209791,385.5588 C291.170191,385.1136 291.172591,384.6996 291.152191,384.2652 L291.125791,383.6208 L291.135391,382.9332 L291.144991,382.2396 L291.152191,381.8976 C291.156991,381.804 291.147391,381.8256 291.155791,381.7608 L291.164191,381.5892 L291.276991,380.214 C291.570991,376.548 291.923791,372.8676 292.388191,369.1884 C293.279791,361.8228 294.500191,354.4452 296.028991,347.0796 C297.536191,339.7128 299.268991,332.358 301.172191,325.0332 C303.048991,317.7036 305.136991,310.4052 306.782191,303.06 C307.611391,299.388 308.339791,295.7004 308.817391,291.9852 C309.309391,288.2736 309.542191,284.5296 309.350191,280.764 C309.140191,276.9984 308.517391,273.2148 307.300591,269.4708 C306.688591,267.6024 305.980591,265.7376 305.074591,263.9064 C304.167391,262.0764 303.136591,260.2692 301.980991,258.498 C299.609791,254.9688 296.771791,251.58 293.514991,248.4084 C292.683391,247.6248 291.884191,246.8268 291.016591,246.0648 L289.734991,244.908 L288.364591,243.75 C287.896591,243.3456 287.482591,243.0156 287.056591,242.6688 L286.420591,242.1516 L286.104991,241.8948 L285.946591,241.7664 L285.695791,241.5792 C284.717791,240.8436 283.770991,240.0996 282.741391,239.388 C280.526191,237.7968 278.168191,236.2884 275.699791,234.8628" id="Fill-554" fill="#241DBA"></path>
                    <text id="Vi" font-family="Gilroy-SemiBold, Gilroy" font-size="11.1078" font-weight="500" fill="#FFFFFF">
                        <tspan x="193.590871" y="151.710661">Vi</tspan>
                    </text>
                    <text id="ncula-su-t" font-family="Gilroy-SemiBold, Gilroy" font-size="11.1078" font-weight="500" fill="#FFFFFF">
                        <tspan x="203.010285" y="151.710661">ncula su t</tspan>
                    </text>
                    <text id="arje" font-family="Gilroy-SemiBold, Gilroy" font-size="11.1078" font-weight="500" fill="#FFFFFF">
                        <tspan x="252.217839" y="151.710661">arje</tspan>
                    </text>
                    <text id="ta" font-family="Gilroy-SemiBold, Gilroy" font-size="11.1078" font-weight="500" fill="#FFFFFF">
                        <tspan x="272.123017" y="151.710661">ta</tspan>
                    </text>
                    <text id="bancaria-a-la-cuen" font-family="Gilroy-SemiBold, Gilroy" font-size="11.1078" font-weight="500" fill="#FFFFFF">
                        <tspan x="193.590871" y="165.040021">bancaria a la cuen</tspan>
                    </text>
                    <text id="ta" font-family="Gilroy-SemiBold, Gilroy" font-size="11.1078" font-weight="500" fill="#FFFFFF">
                        <tspan x="290.306485" y="165.040021">ta</tspan>
                    </text>
                    <text id="de-usuario" font-family="Gilroy-SemiBold, Gilroy" font-size="11.1078" font-weight="500" fill="#FFFFFF">
                        <tspan x="193.590871" y="178.369381">de usuario</tspan>
                    </text>
                    <g id="Group-561" transform="translate(144.121351, 123.600000)" fill="#241DBA">
                        <polyline id="Fill-557" points="24.71688 87.83376 24.71688 0.32976 21.08688 0.32976 21.08688 87.83376"></polyline>
                        <path d="M42.79104,44.08152 C42.79104,55.67352 33.39384,65.06952 21.80184,65.06952 C10.21104,65.06952 0.81384,55.67352 0.81384,44.08152 C0.81384,32.49072 10.21104,23.09352 21.80184,23.09352 C33.39384,23.09352 42.79104,32.49072 42.79104,44.08152" id="Fill-559"></path>
                    </g>
                    <text id="1" font-family="Gilroy-SemiBold, Gilroy" font-size="22.2156" font-weight="500" fill="#FFFFFF">
                        <tspan x="162" y="173">1</tspan>
                    </text>
                    <text id="Consume-y-" font-family="Gilroy-SemiBold, Gilroy" font-size="11.1078" font-weight="500" fill="#FFFFFF">
                        <tspan x="426.917071" y="404.424901">Consume y </tspan>
                    </text>
                    <text id="re" font-family="Gilroy-SemiBold, Gilroy" font-size="11.1078" font-weight="500" fill="#FFFFFF">
                        <tspan x="426.917071" y="417.754261">re</tspan>
                    </text>
                    <text id="aliz" font-family="Gilroy-SemiBold, Gilroy" font-size="11.1078" font-weight="500" fill="#FFFFFF">
                        <tspan x="436.902983" y="417.754261">aliz</tspan>
                    </text>
                    <text id="a-el-pago-" font-family="Gilroy-SemiBold, Gilroy" font-size="11.1078" font-weight="500" fill="#FFFFFF">
                        <tspan x="454.008995" y="417.754261">a el pago </tspan>
                    </text>
                    <text id="con-su-m" font-family="Gilroy-SemiBold, Gilroy" font-size="11.1078" font-weight="500" fill="#FFFFFF">
                        <tspan x="426.917071" y="431.083621">con su m</tspan>
                    </text>
                    <text id="óv" font-family="Gilroy-SemiBold, Gilroy" font-size="11.1078" font-weight="500" fill="#FFFFFF">
                        <tspan x="472.214679" y="431.083621">óv</tspan>
                    </text>
                    <text id="il" font-family="Gilroy-SemiBold, Gilroy" font-size="11.1078" font-weight="500" fill="#FFFFFF">
                        <tspan x="484.47769" y="431.083621">il</tspan>
                    </text>
                    <g id="Group-566" transform="translate(378.121351, 376.600000)" fill="#241DBA">
                        <polyline id="Fill-562" points="24.0414 87.54716 24.0414 0.04316 20.4114 0.04316 20.4114 87.54716"></polyline>
                        <path d="M42.11544,43.79516 C42.11544,55.38716 32.71824,64.78316 21.12744,64.78316 C9.53544,64.78316 0.13824,55.38716 0.13824,43.79516 C0.13824,32.20316 9.53544,22.80716 21.12744,22.80716 C32.71824,22.80716 42.11544,32.20316 42.11544,43.79516" id="Fill-564"></path>
                    </g>
                    <text id="2" font-family="Gilroy-SemiBold, Gilroy" font-size="22.2156" font-weight="500" fill="#FFFFFF">
                        <tspan x="394" y="425">2</tspan>
                    </text>
                    <path d="M27.3194308,102.664173 C27.9494308,102.664173 28.4594308,103.174173 28.4594308,103.802973 C28.4594308,104.431773 27.9494308,104.941773 27.3194308,104.941773 C26.6894308,104.941773 26.1794308,104.431773 26.1794308,103.802973 C26.1794308,103.174173 26.6894308,102.664173 27.3194308,102.664173" id="Fill-567" fill="#F2F3F3"></path>
                    <polygon id="Fill-569" fill="#DDDDE3" points="11.1538708 176.195613 11.4226708 178.617213 8.9986708 178.347213 8.9986708 175.388013"></polygon>
                    <polygon id="Fill-571" fill="#DDDDE3" points="36.4798708 176.195613 36.2110708 178.617213 38.6350708 178.347213 38.6350708 175.388013"></polygon>
                    <path d="M10.8844708,124.010853 L9.8068708,151.717653 C9.8068708,151.717653 6.3040708,172.429653 7.1128708,172.967253 C7.9204708,173.506053 7.1128708,176.464053 7.1128708,176.464053 L11.6932708,177.002853 C11.6932708,177.002853 11.6932708,174.850053 12.7708708,174.043653 C13.8484708,173.236053 23.8168708,135.308853 23.8168708,135.308853 L34.0552708,171.892053 C34.0552708,171.892053 33.7852708,174.043653 34.5940708,174.043653 C35.4016708,174.043653 35.6716708,177.002853 35.6716708,177.002853 L40.2520708,177.002853 L40.2520708,174.043653 C40.2520708,174.043653 41.5984708,173.774853 40.7908708,171.623253 C39.9820708,169.470453 37.0192708,124.010853 37.0192708,124.010853 L10.8844708,124.010853 Z" id="Fill-573" fill="#A5A6BE"></path>
                    <path d="M9.5374708,176.195613 C9.5374708,176.195613 8.1898708,175.389213 7.6510708,175.926813 C7.1122708,176.464413 2.8018708,181.844013 2.8018708,181.844013 C2.8018708,181.844013 -3.1261292,185.610813 2.2630708,186.686013 C7.6510708,187.762413 11.6926708,182.651613 11.9626708,182.112813 C12.2314708,181.575213 11.6926708,177.270813 11.4238708,177.809613 C11.1538708,178.347213 10.3462708,178.078413 10.0762708,177.809613 C9.8062708,177.540813 9.5374708,176.195613 9.5374708,176.195613" id="Fill-575" fill="#241DBA"></path>
                    <path d="M38.0962708,176.195613 C38.0962708,176.195613 39.4438708,175.389213 39.9826708,175.926813 C40.5214708,176.464413 44.8318708,181.844013 44.8318708,181.844013 C44.8318708,181.844013 50.7598708,185.610813 45.3706708,186.686013 C39.9826708,187.762413 35.9410708,182.651613 35.6710708,182.112813 C35.4022708,181.575213 35.9410708,177.270813 36.2098708,177.809613 C36.4798708,178.347213 37.2886708,178.078413 37.5574708,177.809613 C37.8274708,177.540813 38.0962708,176.195613 38.0962708,176.195613" id="Fill-577" fill="#241DBA"></path>
                    <path d="M27.1846708,73.1708127 C30.2350708,73.1708127 32.7082708,75.6392127 32.7082708,78.6848127 C32.7082708,81.7304127 30.2350708,84.2000127 27.1846708,84.2000127 C24.1342708,84.2000127 21.6610708,81.7304127 21.6610708,78.6848127 C21.6610708,75.6392127 24.1342708,73.1708127 27.1846708,73.1708127" id="Fill-579" fill="#EAB5B8"></path>
                    <polygon id="Fill-581" fill="#EAB5B8" points="23.5474708 81.7784127 22.7386708 90.1172127 29.2054708 91.4624127 30.8218708 81.5096127"></polygon>
                    <path d="M30.2834308,88.2342927 C30.2834308,88.2342927 28.6670308,91.7310927 22.7390308,87.9654927 L11.6930308,124.011093 C11.6930308,124.011093 26.5106308,132.887493 35.9414308,126.161493 L32.7086308,89.8482927 L30.2834308,88.2342927 Z" id="Fill-583" fill="#241DBA"></path>
                    <path d="M23.8172308,84.1995327 L18.6980308,83.3931327 L18.1592308,86.8887327 C18.1592308,86.8887327 11.1548308,87.6963327 10.3448308,90.3867327 L11.1548308,110.291133 C11.1548308,110.291133 8.7296308,114.595533 10.8848308,117.285933 C10.8848308,117.285933 7.3820308,124.548333 10.0760308,125.893533 C10.0760308,125.893533 16.2728308,122.934333 20.0444308,123.741933 C20.0444308,123.741933 22.2008308,123.203133 22.2008308,121.590333 C22.2008308,119.975133 23.8172308,84.1995327 23.8172308,84.1995327" id="Fill-585" fill="#241DBA"></path>
                    <path d="M30.0133108,84.7371327 L32.9773108,85.5447327 L33.2473108,89.3103327 C33.2473108,89.3103327 40.5205108,93.8823327 40.7905108,96.5739327 C41.0605108,99.2631327 35.4025108,112.175133 35.4025108,112.175133 C35.4025108,112.175133 37.5577108,115.940733 36.7501108,118.361133 C36.7501108,118.361133 40.2517108,125.355933 38.0965108,127.238733 C38.0965108,127.238733 34.0549108,128.313933 33.5161108,126.701133 C32.9773108,125.087133 28.1281108,106.525533 30.2833108,97.6491327 C30.2833108,97.6491327 28.1281108,86.3511327 30.0133108,84.7371327" id="Fill-587" fill="#241DBA"></path>
                    <path d="M33.1121908,93.4978527 L33.0101908,93.4978527 L33.0101908,90.7246527 C33.0101908,90.2986527 32.8409908,89.8906527 32.5397908,89.5894527 C32.2385908,89.2882527 31.8293908,89.1190527 31.4033908,89.1190527 L25.5173908,89.1190527 C25.0901908,89.1190527 24.6821908,89.2882527 24.3797908,89.5894527 C24.0785908,89.8906527 23.9093908,90.2986527 23.9093908,90.7246527 L23.9093908,105.940653 C23.9093908,106.366653 24.0785908,106.774653 24.3797908,107.075853 C24.6821908,107.377053 25.0901908,107.546253 25.5173908,107.546253 L31.4033908,107.546253 C31.8293908,107.546253 32.2385908,107.377053 32.5397908,107.075853 C32.8409908,106.774653 33.0101908,106.366653 33.0101908,105.940653 L33.0101908,95.4718527 L33.1121908,95.4718527 L33.1121908,93.4978527 Z" id="Fill-589" fill="#FFFFFF"></path>
                    <path d="M35.6716708,104.373933 C35.6716708,104.373933 33.5164708,97.3803327 30.2824708,99.5319327 C27.0496708,101.683533 32.4388708,107.601933 32.4388708,107.601933 L35.6716708,104.373933 Z" id="Fill-591" fill="#EAB5B8"></path>
                    <path d="M20.8531108,99.2631327 C20.8531108,99.2631327 24.6247108,94.6899327 26.5111108,96.8415327 C28.3975108,98.9943327 23.2771108,103.836333 23.2771108,103.836333 L20.8531108,99.2631327 Z" id="Fill-593" fill="#EAB5B8"></path>
                    <path d="M11.1542308,90.1178127 C11.1542308,90.1178127 9.8066308,89.8478127 8.9990308,92.2694127 C8.1902308,94.6898127 5.2262308,103.836213 5.2262308,105.450213 C5.2262308,107.064213 6.3038308,113.520213 12.2318308,112.443813 C18.1586308,111.367413 25.1642308,103.836213 25.1642308,103.836213 L21.3914308,98.1878127 L13.3094308,103.029813 L11.1542308,90.1178127 Z" id="Fill-595" fill="#241DBA"></path>
                    <path d="M12.2607508,96.7458927 L12.3207508,97.1070927 L13.4439508,102.894693 L16.2291508,101.279493 L21.3063508,98.2386927 L13.9827508,101.010693 L12.2607508,96.7458927 Z M21.4023508,98.2026927 L21.4395508,98.2602927 L21.7959508,98.0526927 L21.4023508,98.2026927 Z" id="Fill-597" fill="#241DBA"></path>
                    <path d="M21.4016308,98.2025727 L21.3068308,98.2385727 L16.2308308,101.279373 L21.4400308,98.2601727 L21.4016308,98.2025727 Z M12.2600308,96.7445727 L12.3176308,97.0901727 L12.3212308,97.1057727 L12.2600308,96.7457727 L12.2600308,96.7445727 Z" id="Fill-599" fill="#241DBA"></path>
                    <polygon id="Fill-601" fill="#241DBA" points="37.6922308 99.9358527 36.0758308 102.895053 37.1534308 103.701453"></polygon>
                    <path d="M22.6544308,106.258653 L22.6544308,106.258653 C18.9332308,110.966253 11.0192308,113.116653 11.0192308,113.116653 C18.8288308,112.577853 22.6508308,106.264653 22.6544308,106.258653" id="Fill-603" fill="#241DBA"></path>
                    <path d="M30.9566308,108.273933 C31.5698308,115.832733 34.6850308,116.741133 36.1478308,116.741133 C36.6110308,116.741133 36.9098308,116.649933 36.9098308,116.649933 C32.6222308,116.417133 30.9566308,108.273933 30.9566308,108.273933" id="Fill-605" fill="#241DBA"></path>
                    <path d="M39.7130308,95.4970527 C39.7130308,95.4970527 40.5206308,96.0346527 41.0606308,98.4562527 C41.5994308,100.876653 45.1010308,110.023053 43.7546308,112.174653 C42.4070308,114.326253 40.2518308,119.168253 35.6714308,115.940253 L31.0910308,107.601453 L35.6714308,103.298253 L37.5578308,104.643453 L39.7130308,95.4970527 Z" id="Fill-607" fill="#241DBA"></path>
                    <path d="M21.8823508,80.0836527 C21.8823508,80.0836527 17.2503508,72.5884527 22.1835508,72.1984527 C23.8299508,72.0832527 25.4379508,71.6464527 26.9151508,70.9108527 C28.5507508,70.0804527 30.6099508,69.4480527 31.7055508,70.7284527 C32.1831508,71.3128527 32.7411508,71.8288527 33.3615508,72.2596527 C34.3239508,72.8968527 35.4375508,73.9300527 34.8207508,75.0376527 L33.8103508,76.8544527 L32.3943508,80.4868527 C32.7243508,78.9208527 32.7327508,77.6044527 31.8891508,76.9552527 C31.8891508,76.9552527 27.1851508,78.9544527 24.8139508,75.3400527 C22.1595508,73.3528527 21.3147508,79.6096527 21.8823508,80.0836527" id="Fill-609" fill="#7E8FA3"></path>
                    <path d="M420.925831,253.02804 C422.897431,252.99324 424.209031,252.30804 425.071831,251.31684 C427.753831,248.24124 425.459431,243.42324 421.378231,243.42324 L420.925831,243.42324 L420.925831,253.02804 Z" id="Fill-370" fill="#EAB5B8"></path>
                    <path d="M420.925711,262.63296 C422.897311,262.59696 424.208911,261.91176 425.072911,260.92176 C427.753711,257.84616 425.460511,253.02816 421.379311,253.02816 L420.925711,253.02816 L420.925711,262.63296 Z" id="Fill-371" fill="#EAB5B8"></path>
                    <polyline id="Fill-375" fill="#7E8FA3" points="374.883511 239.03172 383.560711 230.50332 383.189911 230.12652 374.512711 238.65492"></polyline>
                    <path d="M376.823191,235.79904 L380.257591,232.36584 C380.411191,232.21104 380.411191,231.96024 380.257591,231.80544 C380.102791,231.65064 379.850791,231.65064 379.697191,231.80544 L376.262791,235.23864 C376.107991,235.39344 376.107991,235.64424 376.262791,235.79904 C376.417591,235.95384 376.668391,235.95384 376.823191,235.79904" id="Fill-376" fill="#1A984C"></path>
                    <path d="M395.292511,259.14372 L396.266911,259.70172 C395.820511,260.69532 395.065711,261.19332 394.003711,261.19332 C393.253711,261.19332 392.639311,260.94612 392.162911,260.45172 C391.685311,259.95852 391.382911,259.28172 391.254511,258.42372 L390.534511,258.42372 L390.534511,257.70252 L391.193311,257.70252 L391.193311,257.50932 C391.193311,257.38812 391.196911,257.29692 391.204111,257.23572 L390.534511,257.23572 L390.534511,256.51572 L391.274911,256.51572 C391.410511,255.68412 391.715311,255.02772 392.188111,254.54772 C392.660911,254.06772 393.266911,253.82772 394.003711,253.82772 C395.045311,253.82772 395.789311,254.30772 396.235711,255.26772 L395.272111,255.82692 C395.008111,255.25212 394.585711,254.96412 394.003711,254.96412 C393.598111,254.96412 393.263311,255.09732 392.999311,255.36492 C392.736511,255.63252 392.552911,256.01532 392.452111,256.51572 L394.693711,256.51572 L394.693711,257.23572 L392.370511,257.23572 C392.363311,257.29692 392.360911,257.38812 392.360911,257.50932 L392.360911,257.70252 L394.693711,257.70252 L394.693711,258.42372 L392.431711,258.42372 C392.526511,258.95052 392.708911,259.35492 392.980111,259.63572 C393.250111,259.91652 393.592111,260.05692 394.003711,260.05692 C394.598911,260.05692 395.028511,259.75212 395.292511,259.14372" id="Fill-383" fill="#7E8FA3"></path>
                    <path d="M401.750551,257.5104 L401.386951,257.5104 C401.386951,259.6512 400.520551,261.588 399.116551,262.992 C397.712551,264.3948 395.776951,265.2624 393.634951,265.2624 C391.494151,265.2624 389.557351,264.3948 388.153351,262.992 C386.750551,261.588 385.882951,259.6512 385.882951,257.5104 C385.882951,255.3684 386.750551,253.4328 388.153351,252.0288 C389.557351,250.6248 391.494151,249.7584 393.634951,249.7584 C395.776951,249.7584 397.712551,250.6248 399.116551,252.0288 C400.520551,253.4328 401.386951,255.3684 401.386951,257.5104 L401.750551,257.5104 L402.112951,257.5104 C402.112951,252.828 398.318551,249.0324 393.634951,249.0324 C388.952551,249.0324 385.156951,252.828 385.156951,257.5104 C385.156951,262.1928 388.952551,265.9884 393.634951,265.9884 C398.318551,265.9884 402.112951,262.1928 402.112951,257.5104 L401.750551,257.5104 Z" id="Fill-384" fill="#7E8FA3"></path>
                    <path d="M392.241511,274.03212 L392.716711,274.30452 C392.499511,274.78932 392.131111,275.03172 391.612711,275.03172 C391.246711,275.03172 390.947911,274.91172 390.715111,274.67052 C390.482311,274.43052 390.334711,274.09932 390.271111,273.68052 L389.920711,273.68052 L389.920711,273.32892 L390.242311,273.32892 L390.242311,273.23532 L390.247111,273.10092 L389.920711,273.10092 L389.920711,272.75052 L390.281911,272.75052 C390.347911,272.34372 390.496711,272.02452 390.727111,271.79052 C390.957511,271.55532 391.253911,271.43892 391.612711,271.43892 C392.121511,271.43892 392.483911,271.67292 392.702311,272.14092 L392.231911,272.41332 C392.103511,272.13252 391.897111,271.99332 391.612711,271.99332 C391.414711,271.99332 391.251511,272.05812 391.123111,272.18892 C390.994711,272.31852 390.904711,272.50572 390.855511,272.75052 L391.949911,272.75052 L391.949911,273.10092 L390.815911,273.10092 L390.811111,273.23532 L390.811111,273.32892 L391.949911,273.32892 L391.949911,273.68052 L390.845911,273.68052 C390.891511,273.93732 390.981511,274.13532 391.113511,274.27212 C391.245511,274.40892 391.412311,274.47732 391.612711,274.47732 C391.903111,274.47732 392.113111,274.32852 392.241511,274.03212" id="Fill-385" fill="#7E8FA3"></path>
                    <path d="M410.020111,255.69396 L410.495311,255.96636 C410.278111,256.45116 409.909711,256.69356 409.391311,256.69356 C409.025311,256.69356 408.725311,256.57356 408.493711,256.33236 C408.260911,256.09116 408.113311,255.76116 408.049711,255.34236 L407.699311,255.34236 L407.699311,254.99076 L408.019711,254.99076 L408.019711,254.89596 L408.025711,254.76276 L407.699311,254.76276 L407.699311,254.41116 L408.060511,254.41116 C408.126511,254.00556 408.275311,253.68636 408.505711,253.45116 C408.736111,253.21716 409.032511,253.09956 409.391311,253.09956 C409.900111,253.09956 410.262511,253.33476 410.480911,253.80276 L410.010511,254.07516 C409.882111,253.79436 409.675711,253.65516 409.391311,253.65516 C409.193311,253.65516 409.030111,253.71996 408.901711,253.84956 C408.773311,253.98036 408.683311,254.16756 408.634111,254.41116 L409.728511,254.41116 L409.728511,254.76276 L408.594511,254.76276 L408.589711,254.89596 L408.589711,254.99076 L409.728511,254.99076 L409.728511,255.34236 L408.624511,255.34236 C408.670111,255.59916 408.760111,255.79716 408.892111,255.93396 C409.022911,256.07076 409.189711,256.13916 409.391311,256.13916 C409.681711,256.13916 409.891711,255.99036 410.020111,255.69396" id="Fill-387" fill="#241DBA"></path>
                    <path d="M413.170831,254.89716 L412.993231,254.89716 C412.993231,255.94116 412.570831,256.88556 411.885631,257.57076 C411.201631,258.25596 410.256031,258.67836 409.212031,258.67836 C408.166831,258.67836 407.222431,258.25596 406.537231,257.57076 C405.852031,256.88556 405.429631,255.94116 405.429631,254.89716 C405.429631,253.85196 405.852031,252.90756 406.537231,252.22236 C407.222431,251.53836 408.166831,251.11476 409.212031,251.11476 C410.256031,251.11476 411.201631,251.53836 411.885631,252.22236 C412.570831,252.90756 412.993231,253.85196 412.993231,254.89716 L413.170831,254.89716 L413.348431,254.89716 C413.347231,252.61236 411.495631,250.76076 409.212031,250.76076 C406.927231,250.76076 405.075631,252.61236 405.075631,254.89716 C405.075631,257.18196 406.927231,259.03356 409.212031,259.03356 C411.495631,259.03356 413.347231,257.18196 413.348431,254.89716 L413.170831,254.89716 Z" id="Fill-388" fill="#241DBA"></path>
                    <polygon id="Fill-391" fill="#FFFFFF" points="426.846271 228.4242 417.701071 237.6606 413.846671 233.769 413.087071 234.537 417.320671 238.8126 417.701071 239.1798 418.081471 238.8126 427.607071 229.1922"></polygon>
                    <g id="Fill-398" transform="translate(412.696471, 228.034200)" fill="#FFFFFF">
                        <path d="M14.1498,0.39 L13.8726,0.1152 L5.0046,9.072 L1.4274,5.46 C1.3542,5.3868 1.2546,5.3448 1.1502,5.3448 C1.047,5.3448 0.9474,5.3868 0.8742,5.46 L0.1134,6.228 C-0.0378,6.3804 -0.0378,6.624 0.1134,6.7776 L4.347,11.052 L4.353,11.058 L4.7334,11.4264 C4.8846,11.5716 5.1234,11.5716 5.2746,11.4264 L5.655,11.058 L5.661,11.052 L15.1878,1.4328 C15.3378,1.2804 15.3378,1.0356 15.1878,0.8844 L14.427,0.1152 C14.3538,0.042 14.2542,0 14.1498,0 C14.0454,0 13.9458,0.042 13.8726,0.1152 L14.1498,0.39 L13.8726,0.6648 L14.3622,1.158 L5.1114,10.5 L5.0034,10.6032 L4.8942,10.4976 L4.6242,10.7784 L4.9002,10.5036 L0.9378,6.5028 L1.1502,6.288 L4.7274,9.9 C4.8006,9.9744 4.9002,10.0164 5.0046,10.0164 C5.1078,10.0164 5.2074,9.9744 5.2806,9.9 L14.427,0.6648 L14.1498,0.39 L13.8726,0.6648 L14.1498,0.39 Z" id="Fill-392"></path>
                    </g>
                </g>
                <text id="Posibilidad-de-combi-Copy" font-family="Montserrat-Medium, Montserrat" font-size="15" font-weight="400" letter-spacing="0.120000002" fill="#FFFFFF">
                    <tspan x="13.7325" y="313">POSIBILIDAD DE COMBINAR </tspan>
                    <tspan x="9.86999998" y="332">CON PULSERAS O SOPORTES </tspan>
                    <tspan x="5.36249998" y="351">NFC PARA FUNCIONALIDADES </tspan>
                    <tspan x="36.4725" y="370">DE ACCESOS Y PAGOS </tspan>
                </text>
            </g>
        </g>
    </g>
</svg>