<?xml version="1.0" encoding="UTF-8"?>
<svg width="100px" height="51px" viewBox="0 0 100 51" version="1.1" xmlns="http://www.w3.org/2000/svg" xmlns:xlink="http://www.w3.org/1999/xlink">
    <!-- Generator: Sketch 63.1 (92452) - https://sketch.com -->
    <title>pulsera_pago_contactless_nfc</title>
    <desc>Created with Sketch.</desc>
    <defs>
        <filter x="-13.0%" y="-27.9%" width="126.1%" height="155.8%" filterUnits="objectBoundingBox" id="filter-1">
            <feOffset dx="0" dy="2" in="SourceAlpha" result="shadowOffsetOuter1"></feOffset>
            <feGaussianBlur stdDeviation="2" in="shadowOffsetOuter1" result="shadowBlurOuter1"></feGaussianBlur>
            <feColorMatrix values="0 0 0 0 0   0 0 0 0 0   0 0 0 0 0  0 0 0 0.139040647 0" type="matrix" in="shadowBlurOuter1" result="shadowMatrixOuter1"></feColorMatrix>
            <feMerge>
                <feMergeNode in="shadowMatrixOuter1"></feMergeNode>
                <feMergeNode in="SourceGraphic"></feMergeNode>
            </feMerge>
        </filter>
        <polygon id="path-2" points="3.12166921e-05 0.027501944 91.1527409 0.027501944 91.1527409 26.6699477 3.12166921e-05 26.6699477"></polygon>
    </defs>
    <g id="Gofun-versión-2---HACER-LO-ULTIMO" stroke="none" stroke-width="1" fill="none" fill-rule="evenodd">
        <g id="Solucion---Gofun---Festivales-musica--B" transform="translate(-142.000000, -1809.000000)">
            <g id="pulsera_pago_contactless_nfc" transform="translate(146.000000, 1811.000000)">
                <g id="Group-Copy-19">
                    <g id="Group-10" filter="url(#filter-1)" transform="translate(0.052007, 0.000000)">
                        <g id="Group-3" transform="translate(0.000000, 0.010020)">
                            <mask id="mask-3" fill="white">
                                <use xlink:href="#path-2"></use>
                            </mask>
                            <g id="Clip-2"></g>
                            <path d="M3.12166921e-05,10.1844074 C3.12166921e-05,4.57494838 20.4051342,0.0274394395 45.5764016,0.0274394395 C70.7476691,0.0274394395 91.1527721,4.57494838 91.1527721,10.1844074 L91.1527721,26.6699477 C91.1527721,21.0604887 70.7476691,16.9439477 45.5764016,16.9439477 C20.4051342,16.9439477 3.12166921e-05,21.0604887 3.12166921e-05,26.6699477 L3.12166921e-05,10.1844074 Z" id="Fill-1" fill="#7E8FA4" mask="url(#mask-3)"></path>
                        </g>
                        <path d="M69.997095,12.3698938 C71.2039323,12.3698938 72.1822634,13.349338 72.1822634,14.5575484 L72.1822634,40.3253073 C72.1822634,41.5335177 71.2039323,42.512962 69.997095,42.512962 L21.6112223,42.512962 C20.404385,42.512962 19.4260538,41.5335177 19.4260538,40.3253073 L19.4260538,14.5575484 C19.4260538,13.349338 20.404385,12.3698938 21.6112223,12.3698938 L69.997095,12.3698938 Z M67.1875927,18.3078135 L65.938925,18.3078135 C65.6099011,18.3078135 65.3401889,18.5628315 65.316152,18.8862919 L65.3145912,18.9328577 L65.3145912,36.2625201 C65.3145912,36.5922309 65.5693194,36.8619375 65.8924121,36.8860017 L65.938925,36.8875643 L67.1875927,36.8875643 C67.5166166,36.8875643 67.7863289,36.6325463 67.8103657,36.3090859 L67.8119265,36.2625201 L67.8119265,18.9328577 C67.8119265,18.6034594 67.5571983,18.3334403 67.2341056,18.3093761 L67.1875927,18.3078135 Z M25.6693922,18.3078135 L24.4207246,18.3078135 C24.0917006,18.3078135 23.8219884,18.5628315 23.7979516,18.8862919 L23.7963907,18.9328577 L23.7963907,36.2625201 C23.7963907,36.5922309 24.0511189,36.8619375 24.3742117,36.8860017 L24.4207246,36.8875643 L25.6693922,36.8875643 C25.9984162,36.8875643 26.2681284,36.6325463 26.2921652,36.3090859 L26.2937261,36.2625201 L26.2937261,18.9328577 C26.2937261,18.6034594 26.0389979,18.3334403 25.7159051,18.3093761 L25.6693922,18.3078135 Z" id="Fill-4" fill="#FFFFFF"></path>
                        <path d="M65.3142166,19.4336431 L65.3160896,36.0682564 C80.6025915,34.429078 91.1525848,30.9444567 91.1525848,26.9110466 L91.1525848,10.4323818 L91.1525848,10.2761208 C91.1525848,14.3098434 80.601655,17.7941522 65.3142166,19.4336431" id="Fill-6" fill="#C5CFDE"></path>
                        <path d="M0,10.2759645 L0,10.4322256 L0,26.9108904 C0,30.9808656 10.7410394,34.4914262 26.2504285,36.1121658 L26.2935076,19.4816152 C10.7610181,17.8630633 0,14.34969 0,10.2759645" id="Fill-8" fill="#C5CFDE"></path>
                    </g>
                </g>
                <g id="Group" transform="translate(39.050000, 21.450000)" fill="#241DBA">
                    <path d="M8.82329793,2.1835836 C9.11752593,2.3221836 9.39987393,2.4912756 9.66202593,2.6853156 C9.85883793,2.8310436 10.0465419,2.9930076 10.2203859,3.1664556 C10.3320579,3.2777316 10.4389779,3.3949476 10.5391659,3.5157276 C10.7082579,3.7196676 10.9517979,3.8250036 11.1973179,3.8250036 C11.3897739,3.8250036 11.5830219,3.7604556 11.7426099,3.6281916 C12.1057419,3.3268356 12.1560339,2.7878796 11.8550739,2.4247476 C11.7208299,2.2627836 11.5770819,2.1051756 11.4277899,1.9562796 C11.1949419,1.7238276 10.9430859,1.5072156 10.6789539,1.3115916 C10.3269099,1.0510236 9.94793793,0.8241156 9.55272993,0.6375996 C9.12584193,0.4360356 8.61658593,0.6189876 8.41502193,1.0458756 C8.21385393,1.4727636 8.39640993,1.9820196 8.82329793,2.1835836" id="Fill-1"></path>
                    <path d="M6.69737193,8.31402 C5.80597593,8.31402 5.08089993,7.588944 5.08089993,6.697548 C5.08089993,5.806152 5.80597593,5.081076 6.69737193,5.081076 C7.58876793,5.081076 8.31384393,5.806152 8.31384393,6.697548 C8.31384393,7.588944 7.58876793,8.31402 6.69737193,8.31402 M12.5359959,5.841792 L11.6240079,5.841792 L11.6244039,5.84298 L9.91130793,5.84298 C9.53312793,4.422132 8.23583193,3.371544 6.69737193,3.371544 C4.86349593,3.371544 3.37136793,4.863672 3.37136793,6.697548 C3.37136793,8.531424 4.86349593,10.023156 6.69737193,10.023156 C8.23583193,10.023156 9.53312793,8.97336 9.91130793,7.552116 L11.6109399,7.552116 C11.1911799,9.972072 9.02307993,11.800008 6.45897993,11.68002 C3.86676393,11.558844 1.77984393,9.426384 1.71093993,6.832188 C1.63688793,4.028508 3.88933593,1.722204 6.67400793,1.709532 C7.13891193,1.707156 7.53807993,1.345608 7.55154393,0.880704 C7.56579993,0.396792 7.17811593,8.32400815e-14 6.69737193,8.32400815e-14 C2.88349593,8.32400815e-14 -0.195800071,3.204036 0.00972392885,7.061868 C0.190299929,10.457172 2.93735193,13.204224 6.33265593,13.385196 C10.1904879,13.59072 13.3949199,10.511424 13.3949199,6.697548 L13.3949199,6.688836 C13.3941279,6.21918 13.0056519,5.841792 12.5359959,5.841792" id="Fill-3"></path>
                </g>
            </g>
        </g>
    </g>
</svg>