<?xml version="1.0" encoding="UTF-8"?>
<svg width="95px" height="65px" viewBox="0 0 95 65" version="1.1" xmlns="http://www.w3.org/2000/svg" xmlns:xlink="http://www.w3.org/1999/xlink">
    <!-- Generator: Sketch 63.1 (92452) - https://sketch.com -->
    <title>Tarjeta_pago_contactless_festival</title>
    <desc>Created with Sketch.</desc>
    <defs>
        <polygon id="path-1" points="1.42108547e-14 7.10542736e-14 94.3278 7.10542736e-14 94.3278 64.6516 1.42108547e-14 64.6516"></polygon>
    </defs>
    <g id="Gofun-versión-2---HACER-LO-ULTIMO" stroke="none" stroke-width="1" fill="none" fill-rule="evenodd">
        <g id="Solucion---Gofun---Festivales-musica--B" transform="translate(-335.000000, -1800.000000)">
            <g id="Tarjeta_pago_contactless_festival" transform="translate(335.000000, 1800.000000)">
                <mask id="mask-2" fill="white">
                    <use xlink:href="#path-1"></use>
                </mask>
                <g id="Clip-2"></g>
                <path d="M6.359,2.13162821e-14 L87.968,2.13162821e-14 C91.48,2.13162821e-14 94.328,2.847 94.328,6.359 L94.328,58.292 C94.328,61.804 91.48,64.652 87.968,64.652 L6.359,64.652 C2.847,64.652 -1.42108547e-14,61.804 -1.42108547e-14,58.292 L-1.42108547e-14,6.359 C-1.42108547e-14,2.847 2.847,2.13162821e-14 6.359,2.13162821e-14" id="Fill-1" fill="#E0E4EC" mask="url(#mask-2)"></path>
                <path d="M23.3248,11.0001 L35.2478,11.0001 C35.9798,11.0001 36.5728,11.5931 36.5728,12.3251 L36.5728,22.9231 C36.5728,23.6551 35.9798,24.2481 35.2478,24.2481 L23.3248,24.2481 C22.5928,24.2481 21.9998,23.6551 21.9998,22.9231 L21.9998,12.3251 C21.9998,11.5931 22.5928,11.0001 23.3248,11.0001" id="Fill-4" fill="#C5CFDE" mask="url(#mask-2)"></path>
                <path d="M11.9232,32.5908 L23.8462,32.5908 C24.5782,32.5908 25.1712,33.1838 25.1712,33.9158 L25.1712,37.8898 C25.1712,38.6218 24.5782,39.2148 23.8462,39.2148 L11.9232,39.2148 C11.1912,39.2148 10.5982,38.6218 10.5982,37.8898 L10.5982,33.9158 C10.5982,33.1838 11.1912,32.5908 11.9232,32.5908" id="Fill-9" fill="#C5CFDE" mask="url(#mask-2)"></path>
                <path d="M30.4708,32.5908 L42.3938,32.5908 C43.1258,32.5908 43.7188,33.1838 43.7188,33.9158 L43.7188,37.8898 C43.7188,38.6218 43.1258,39.2148 42.3938,39.2148 L30.4708,39.2148 C29.7388,39.2148 29.1458,38.6218 29.1458,37.8898 L29.1458,33.9158 C29.1458,33.1838 29.7388,32.5908 30.4708,32.5908" id="Fill-11" fill="#C5CFDE" mask="url(#mask-2)"></path>
                <path d="M49.0184,32.5908 L60.9414,32.5908 C61.6734,32.5908 62.2664,33.1838 62.2664,33.9158 L62.2664,37.8898 C62.2664,38.6218 61.6734,39.2148 60.9414,39.2148 L49.0184,39.2148 C48.2864,39.2148 47.6934,38.6218 47.6934,37.8898 L47.6934,33.9158 C47.6934,33.1838 48.2864,32.5908 49.0184,32.5908" id="Fill-13" fill="#C5CFDE" mask="url(#mask-2)"></path>
                <path d="M67.566,32.5908 L79.489,32.5908 C80.221,32.5908 80.814,33.1838 80.814,33.9158 L80.814,37.8898 C80.814,38.6218 80.221,39.2148 79.489,39.2148 L67.566,39.2148 C66.834,39.2148 66.241,38.6218 66.241,37.8898 L66.241,33.9158 C66.241,33.1838 66.834,32.5908 67.566,32.5908" id="Fill-15" fill="#C5CFDE" mask="url(#mask-2)"></path>
                <path d="M13.7673,13.0172 C13.9953,12.7252 14.3793,12.7062 14.6263,12.9752 C14.7573,13.1172 14.8233,13.3102 14.8233,13.5052 C14.8233,13.6792 14.7703,13.8542 14.6623,13.9922 C12.1763,17.1902 14.5373,20.6242 14.6383,20.7692 C14.8533,21.0742 14.8193,21.5272 14.5623,21.7822 C14.3053,22.0372 13.9233,21.9982 13.7073,21.6942 C12.6023,20.1412 11.1933,16.3282 13.7673,13.0172 M12.1073,10.9762 C9.5773,14.3852 9.7123,17.6882 10.2703,19.8592 C10.8673,22.1812 12.0513,23.6892 12.1013,23.7522 C12.3313,24.0422 12.7163,24.0562 12.9613,23.7842 C13.2063,23.5122 13.2173,23.0562 12.9873,22.7662 C12.9773,22.7532 11.9493,21.4432 11.4343,19.4402 C10.7533,16.7912 11.2873,14.2642 13.0213,11.9262 C13.1223,11.7892 13.1723,11.6202 13.1723,11.4512 C13.1723,11.2512 13.1023,11.0522 12.9653,10.9102 C12.7133,10.6482 12.3293,10.6772 12.1073,10.9762 M15.4543,19.7262 C15.6613,20.0392 16.0443,20.0922 16.3083,19.8462 C16.5723,19.6002 16.6173,19.1472 16.4093,18.8352 C16.3663,18.7712 15.3753,17.2482 16.3973,15.9492 C16.5063,15.8112 16.5603,15.6342 16.5603,15.4592 C16.5603,15.2662 16.4953,15.0742 16.3663,14.9322 C16.1203,14.6612 15.7353,14.6772 15.5073,14.9682 C14.1273,16.7212 14.8693,18.8472 15.4543,19.7262" id="Fill-17" fill="#241DBA" mask="url(#mask-2)"></path>
                <line x1="13.778" y1="46.369" x2="55.378" y2="46.369" id="Stroke-19" stroke="#C5CFDE" stroke-width="2.12" stroke-linecap="round" stroke-linejoin="round" mask="url(#mask-2)"></line>
                <line x1="13.778" y1="50.6084" x2="37.095" y2="50.6084" id="Stroke-21" stroke="#C5CFDE" stroke-width="2.12" stroke-linecap="round" stroke-linejoin="round" mask="url(#mask-2)"></line>
            </g>
        </g>
    </g>
</svg>