<svg xmlns="http://www.w3.org/2000/svg" width="529.047" height="510.507" viewBox="0 0 529.047 510.507">
  <g id="Accesos_afluencias_parques" transform="translate(-0.656)">
    <g id="Group_112_Copy" data-name="Group 112 Copy" transform="translate(530) rotate(180)">
      <path id="Path" d="M-10.355,0s-27.958,14.5-17.6,27.958S0,12.426,0,10.355-10.355,0-10.355,0Z" transform="translate(223.759 -230.985) rotate(-180)" fill="#efb7b9"/>
      <path id="Path-2" data-name="Path" d="M-.92,0S-19.559,22.78-24.736,25.887s-9.319,6.213-9.319,7.248S-38.2,39.348-38.2,39.348l16.567,14.5S-2.991,28.993-.92,28.993-.92,0-.92,0Z" transform="translate(202.13 -193.708) rotate(-180)" fill="#000230"/>
      <path id="Path-3" data-name="Path" d="M-12.425,2.071,0,22.78l-18.638,8.283-17.6-5.178L-25.886,0l13.461,2.071Z" transform="translate(97.433 -457.751) rotate(-180)" fill="#efb7b9"/>
      <path id="Path-4" data-name="Path" d="M-41.419,35.206l10.355,98.369s22.78,46.6,22.78,83.873S0,265.079,0,265.079l-25.887,4.142L-53.844,178.1l-46.6-84.908L-86.979,8.284-64.2,0Z" transform="translate(103.646 -198.886) rotate(-180)" fill="#a5a7bf"/>
      <path id="Path-5" data-name="Path" d="M-15.278,10.964S-7.512.092-7.512,3.2,7.5,40.993-4.923,40.993s-45.56-2.071-51.773,0-26.922-2.071-24.851-14.5,26.922-11.39,26.922-11.39S-39.647-5.771-35.746,1.561l3.9,7.332Z" transform="translate(92.51 -468.532) rotate(-180)" fill="#000230"/>
      <path id="Path-6" data-name="Path" d="M-12.425,2.071,0,22.78l-18.638,8.283-17.6-5.178L-25.886,0l13.461,2.071Z" transform="translate(207.192 -457.751) rotate(-180)" fill="#efb7b9"/>
      <path id="Path-7" data-name="Path" d="M-15.278,10.964s7.766-9.837,7.766-6.731S7.5,40.993-4.923,40.993s-45.56-2.071-51.773,0-26.922-2.071-24.851-14.5,26.922-11.39,26.922-11.39S-39.647-5.771-35.746,1.561l3.9,7.332Z" transform="translate(202.269 -468.532) rotate(-180)" fill="#000230"/>
      <path id="Path-8" data-name="Path" d="M0,27.958S-3.106,55.915-19.674,81.8s-40.383,71.447-40.383,71.447,2.071,45.56-9.319,71.447-13.461,39.348-13.461,39.348l-27.957-7.248s15.532-86.979,9.319-106.653S-77.66,27.958-77.66,27.958L-49.7,4.142-13.461,0Z" transform="translate(128.497 -205.098) rotate(-180)" fill="#a5a7bf"/>
      <circle id="Oval" cx="23.816" cy="23.816" r="23.816" transform="translate(211.99 -15.151) rotate(-180)" fill="#efb7b9"/>
      <path id="Path-9" data-name="Path" d="M-12.464,0,0,26.664-34.993,50.9s4.119-28.867-3.641-36.177S-12.464,0-12.464,0Z" transform="translate(156.252 -40.165) rotate(-180)" fill="#efb7b9"/>
      <path id="Path-10" data-name="Path" d="M-80.176,34.17S-63.609,0-50.147,0-1.481,23.816-2.516,28.993a35.667,35.667,0,0,0-1.035,9.319c0,3.106,7.248,3.106,1.035,5.177s-7.248,4.142-7.248,4.142l5.177,132.539s-22.78,8.284-31.064,5.177-16.567-23.816-16.567-23.816,2.071,27.957-6.213,26.922-39.348-3.106-40.383-7.248S-92.6,85.943-92.6,85.943Z" transform="translate(115.626 -59.098) rotate(-180)" fill="#000230"/>
      <path id="Path-11" data-name="Path" d="M-4.258,0S8.168,45.56-9.435,41.419-21.861,1.035-21.861,1.035Z" transform="translate(115.955 -246.517) rotate(-180)" fill="#efb7b9"/>
      <path id="Path-12" data-name="Path" d="M-31.869.736-1.841,77.361s4.142,8.284,0,14.5S.23,135.347-3.912,143.63s-4.142,22.78-4.142,22.78l-23.816,2.071-5.177-91.121L-63.969,19.375S-61.9-4.441-31.869.736Z" transform="translate(110.089 -84.248) rotate(-180)" fill="#000230"/>
      <path id="Path-13" data-name="Path" d="M-24.851,0S-6.213,5.177,0,23.816Z" transform="translate(124.873 -82.396) rotate(-180)" opacity="0.1"/>
      <path id="Path-14" data-name="Path" d="M-17.9,49.832c-2.317-.138-4.58.645-6.881.95A17.415,17.415,0,0,1-43.393,37.8a9.962,9.962,0,0,0-.952-3.1c-1.267-2.069-4.153-2.463-6.531-1.987s-4.633,1.589-7.056,1.716c-3.74.2-7.331-2.106-9.325-5.277a17.9,17.9,0,0,1-2.289-10.809l1.793,1.882a9.108,9.108,0,0,0,.812-4.95A5.744,5.744,0,0,1-61.5,16.663c1.581.168.388-2.933,1.562-4a2.717,2.717,0,0,1,1.912-.358c3.364.032,6.084-2.54,8.735-4.611A37.118,37.118,0,0,1-33.614.539a20.625,20.625,0,0,1,11.439.554,24.435,24.435,0,0,1,7.725,5.48C-8.811,12-3.817,18.367-1.471,25.83a32.418,32.418,0,0,1,.155,18.8C-2.261,47.819-5.11,58.746-9.281,59-14.522,59.32-11.375,50.221-17.9,49.832Z" transform="translate(154.669 0) rotate(-180)" fill="#000230"/>
      <path id="Path-15" data-name="Path" d="M-32.187,0-7.8,35.768,0,118.85-32.187,0Z" transform="translate(142.073 -126.001) rotate(-180)" opacity="0.1"/>
      <rect id="Rectangle" width="382.88" height="1.626" transform="translate(383.177 -508.881) rotate(-180)" fill="#3f3d56"/>
    </g>
    <g id="Group_12_Copy" data-name="Group 12 Copy" transform="translate(0 86)">
      <g id="Group_9" data-name="Group 9">
        <path id="Path-16" data-name="Path" d="M45,0C69.6,0,89.588,12.9,89.985,28.917l.006.486v347.49H0V29.4l.006-.486C.4,12.9,20.394,0,45,0Z" transform="translate(77.517)" fill="#7e8fa4"/>
        <path id="Path-17" data-name="Path" d="M58.806,22.275C58.806,9.973,45.642,0,29.4,0S0,9.973,0,22.275V32.967H58.806" transform="translate(92.664 83.754)" fill="#e0e4ec"/>
        <ellipse id="Oval-2" data-name="Oval" cx="29.403" cy="22.275" rx="29.403" ry="22.275" transform="translate(92.664 91.773)" fill="#c5cfde"/>
        <path id="Line_8" data-name="Line 8" d="M85.981.445,0,96.228" transform="translate(10.247 127.858)" fill="none" stroke="#c5cfde" stroke-linecap="square" stroke-miterlimit="10" stroke-width="9.801"/>
        <path id="Line_8_Copy" data-name="Line 8 Copy" d="M-85.981.445,0,96.228" transform="translate(235.001 127.858)" fill="none" stroke="#c5cfde" stroke-linecap="square" stroke-miterlimit="10" stroke-width="9.801"/>
        <path id="Line_10" data-name="Line 10" d="M.445.445V32.521" transform="translate(122.067 93.555)" fill="none" stroke="#e0e4ec" stroke-linecap="square" stroke-miterlimit="10" stroke-width="9.801"/>
        <ellipse id="Oval-3" data-name="Oval" cx="4.9" cy="3.564" rx="4.9" ry="3.564" transform="translate(117.612 125.631)" fill="#7e8fa4"/>
        <ellipse id="Oval_Copy_3" data-name="Oval Copy 3" cx="4.9" cy="3.564" rx="4.9" ry="3.564" transform="translate(5.426 222.168) rotate(42)" fill="#7e8fa4"/>
        <ellipse id="Oval_Copy_4" data-name="Oval Copy 4" cx="4.9" cy="3.564" rx="4.9" ry="3.564" transform="translate(232.316 228.727) rotate(-42)" fill="#7e8fa4"/>
        <ellipse id="Oval-4" data-name="Oval" cx="44.995" cy="26.285" rx="44.995" ry="26.285" transform="translate(77.517 0)" fill="#e0e4ec"/>
      </g>
      <ellipse id="Oval-5" data-name="Oval" cx="12.825" cy="8.775" rx="12.825" ry="8.775" transform="translate(109.35 24.3)" fill="#16be5a"/>
    </g>
    <path id="wifi" d="M47.594,39a4.288,4.288,0,0,1-2.741-.96,11.353,11.353,0,0,0-7.415-2.712,16.835,16.835,0,0,0-8.7,2.785,4.3,4.3,0,0,1-2.486.769,4.2,4.2,0,0,1-3.163-1.365,3.292,3.292,0,0,1-.841-2.588,3.474,3.474,0,0,1,1.511-2.44A25.31,25.31,0,0,1,37.569,28.18,19.512,19.512,0,0,1,50.334,32.8a3.4,3.4,0,0,1,1.28,2.507,3.347,3.347,0,0,1-1.077,2.553A4.284,4.284,0,0,1,47.594,39ZM58.506,28.773a4.3,4.3,0,0,1-2.723-.947,27.889,27.889,0,0,0-18.02-6.677,33.646,33.646,0,0,0-13.774,3.121,34.815,34.815,0,0,0-6.056,3.416,4.343,4.343,0,0,1-2.576.831,4.227,4.227,0,0,1-3.085-1.281,3.315,3.315,0,0,1-.928-2.577A3.436,3.436,0,0,1,12.762,22.2,43.735,43.735,0,0,1,37.779,14a36.212,36.212,0,0,1,23.453,8.555,3.4,3.4,0,0,1,1.295,2.5,3.342,3.342,0,0,1-1.06,2.556A4.274,4.274,0,0,1,58.506,28.773Zm11.471-9.718a4.316,4.316,0,0,1-2.652-.891c-9.36-7.32-19.345-11.031-29.678-11.031a47.056,47.056,0,0,0-12.29,1.687,53.972,53.972,0,0,0-18.58,9.149,4.289,4.289,0,0,1-2.755.972,4.228,4.228,0,0,1-2.93-1.128A3.348,3.348,0,0,1,0,15.26a3.394,3.394,0,0,1,1.265-2.51A61.439,61.439,0,0,1,23.014,1.968,55.718,55.718,0,0,1,37.57,0c12.42,0,24.216,4.3,35.062,12.784a3.424,3.424,0,0,1,1.362,2.486A3.322,3.322,0,0,1,73,17.837,4.252,4.252,0,0,1,69.977,19.055Z" transform="translate(246.5 229.5) rotate(-90)" fill="#241dba"/>
  </g>
</svg>
