<?xml version="1.0" encoding="UTF-8"?>
<svg width="432px" height="527px" viewBox="0 0 432 527" version="1.1" xmlns="http://www.w3.org/2000/svg" xmlns:xlink="http://www.w3.org/1999/xlink">
    <!-- Generator: Sketch 63.1 (92452) - https://sketch.com -->
    <title>soluciones_cashless_contactless</title>
    <desc>Created with Sketch.</desc>
    <defs>
        <polygon id="path-1" points="0.200135593 1.96450856e-12 86.6001356 1.96450856e-12 86.6001356 60.48 0.200135593 60.48"></polygon>
        <circle id="path-3" cx="24.5089567" cy="24.5089567" r="24.5089567"></circle>
        <linearGradient x1="48.9831318%" y1="-1.69870728%" x2="52.0211715%" y2="51.8765724%" id="linearGradient-5">
            <stop stop-color="#5DBBF7" offset="0%"></stop>
            <stop stop-color="#4499CE" offset="100%"></stop>
        </linearGradient>
        <linearGradient x1="72.3427929%" y1="97.9969945%" x2="50%" y2="24.6051174%" id="linearGradient-6">
            <stop stop-color="#F4F5F7" offset="0%"></stop>
            <stop stop-color="#E0E4EC" offset="100%"></stop>
        </linearGradient>
        <linearGradient x1="66.385126%" y1="100%" x2="50%" y2="23.5453408%" id="linearGradient-7">
            <stop stop-color="#FFFFFF" offset="0%"></stop>
            <stop stop-color="#E0E4EC" offset="100%"></stop>
        </linearGradient>
        <circle id="path-8" cx="24.7444716" cy="24.6187745" r="24.5089567"></circle>
    </defs>
    <g id="Soluciones-Goguest" stroke="none" stroke-width="1" fill="none" fill-rule="evenodd">
        <g id="Solucion---Goguest-parques" transform="translate(-787.000000, -4025.000000)">
            <g id="soluciones_cashless_contactless" transform="translate(787.000000, 4027.000000)">
                <g id="Group-26" transform="translate(207.000000, 80.000000)">
                    <g id="Group-89-Copy" transform="translate(134.000000, 166.000000) rotate(-360.000000) translate(-134.000000, -166.000000) ">
                        <g id="Group-60" transform="translate(134.030175, 165.826893) rotate(21.000000) translate(-134.030175, -165.826893) translate(45.530175, 22.826893)">
                            <path d="M133.86442,158.605289 L136.063188,157.803384 C144.988919,154.550013 151.781612,147.159489 154.280175,137.982139 L164.741757,99.5557496 C165.462388,96.9076191 165.346158,94.1013552 164.409096,91.5222575 L148.760411,48.4674592 C145.04022,38.2329443 133.740173,32.9559481 123.519871,36.6813116 L123.073384,36.8442611 L113.641849,10.8951502 C110.684775,2.75891148 101.701329,-1.43603559 93.5763894,1.52515073 L93.5763894,1.52515073 C85.4514495,4.48633705 81.2623279,13.482275 84.219402,21.6185137 L82.9023858,17.9958968 C79.9453117,9.85965807 70.9618664,5.66471101 62.8369265,8.62589733 L62.8369265,8.62589733 C54.7119866,11.5870837 50.522865,20.5830216 53.4807407,28.7192603 L57.1672639,38.8622666 C54.2101898,30.7260279 45.2267445,26.5310809 37.1018046,29.4922672 L37.1018046,29.4922672 C28.9768646,32.4534535 24.7877431,41.4493915 27.7448172,49.5856302 L30.9046942,58.2797502 C27.9476201,50.1435116 18.9641748,45.9485645 10.8392349,48.9097508 L10.8392349,48.9097508 C2.71429496,51.8709371 -1.47482659,60.8668751 1.48224754,69.0031138 L3.24013953,73.8394238 L41.5923248,179.353661 C43.8760614,185.636449 50.8130415,188.875372 57.0871047,186.589262 C59.4534052,185.726352 62.0698026,186.948875 62.9315144,189.318466 L97.9610994,285.695488 L170.453904,259.273583 L133.86442,158.605289 Z" id="Path" fill="#FFB9B9" fill-rule="nonzero"></path>
                            <g id="Group-38-Copy-7" transform="translate(117.131123, 217.380013) rotate(-381.000000) translate(-117.131123, -217.380013) translate(65.131123, 186.380013)">
                                <g id="Group-44-Copy" transform="translate(52.340000, 30.620000) rotate(-180.000000) translate(-52.340000, -30.620000) translate(0.840000, 0.120000)">
                                    <g id="Group-3" transform="translate(10.359864, -0.000000)">
                                        <mask id="mask-2" fill="white">
                                            <use xlink:href="#path-1"></use>
                                        </mask>
                                        <g id="Clip-2"></g>
                                        <path d="M83.0214374,1.96450856e-12 C84.9979013,1.96450856e-12 86.6001356,2.38832101 86.6001356,5.33447576 L86.6001356,55.1455242 C86.6001356,58.091679 84.9979013,60.48 83.0214374,60.48 L3.77883382,60.48 C1.80236991,60.48 0.200135593,58.091679 0.200135593,55.1455242 L0.200135593,5.33447576 C0.200135593,2.38832101 1.80236991,1.96450856e-12 3.77883382,1.96450856e-12 L83.0214374,1.96450856e-12 Z M78.4202539,14.4792914 L76.3752835,14.4792914 C75.8364338,14.4792914 75.3947202,15.1011388 75.3553545,15.8898792 L75.3527983,16.0034273 L75.3527983,45.2386407 C75.3527983,46.0418603 75.7699723,46.700287 76.2991084,46.7582042 L76.3752835,46.7627766 L78.4202539,46.7627766 C78.9591036,46.7627766 79.4008173,46.1409291 79.4401829,45.3521888 L79.4427391,45.2386407 L79.4427391,16.0034273 C79.4427391,15.2002077 79.0255652,14.5417809 78.4964291,14.4831017 L78.4202539,14.4792914 Z M10.4249877,14.4792914 L8.38001725,14.4792914 C7.84116755,14.4792914 7.39945394,15.1011388 7.36008826,15.8898792 L7.35753204,16.0034273 L7.35753204,45.2386407 C7.35753204,46.0418603 7.77470601,46.700287 8.3038421,46.7582042 L8.38001725,46.7627766 L10.4249877,46.7627766 C10.9638374,46.7627766 11.405551,46.1409291 11.4449167,45.3521888 L11.4474729,45.2386407 L11.4474729,16.0034273 C11.4474729,15.2002077 11.0302989,14.5417809 10.5011628,14.4831017 L10.4249877,14.4792914 Z" id="Fill-1" fill="#E0E4EC" mask="url(#mask-2)"></path>
                                    </g>
                                    <polygon id="Rectangle" fill="#7E8FA4" points="0.457506815 18.5358368 19.2 16.3761231 19.2 43.9177846 0.457506815 42.6395298"></polygon>
                                    <polygon id="Rectangle-Copy-54" fill="#7E8FA4" points="87.6976271 16.3761231 102.795922 17.8306265 102.795922 41.9865346 87.6976271 43.9177846"></polygon>
                                </g>
                                <g id="Group-Copy" transform="translate(50.940000, 30.300000) rotate(-360.000000) translate(-50.940000, -30.300000) translate(41.440000, 20.800000)" fill="#241DBA">
                                    <path d="M12.438999,3.07839478 C12.8537988,3.2737917 13.2518502,3.51217595 13.6214296,3.78573164 C13.8988932,3.99117755 14.1635165,4.21951281 14.4086,4.4640381 C14.5660341,4.62091392 14.7167689,4.78616389 14.8580129,4.95643835 C15.0963972,5.24395097 15.4397375,5.39245263 15.7858692,5.39245263 C16.0571918,5.39245263 16.3296309,5.30145349 16.5546165,5.114989 C17.0665565,4.69014026 17.1374576,3.93032537 16.7131672,3.41838543 C16.5239113,3.19005017 16.3212568,2.96785595 16.1107864,2.75794383 C15.7825195,2.43023527 15.4274554,2.1248578 15.0550847,1.849069 C14.5587765,1.48172278 14.0245055,1.1618301 13.4673451,0.898881674 C12.8655226,0.61471872 12.1475785,0.872642658 11.8634155,1.47446518 C11.5798109,2.0762877 11.8371765,2.79423183 12.438999,3.07839478" id="Fill-1"></path>
                                    <path d="M9.44188938,11.721024 C8.18520802,11.721024 7.16300298,10.698819 7.16300298,9.4421376 C7.16300298,8.18545625 8.18520802,7.1632512 9.44188938,7.1632512 C10.6985707,7.1632512 11.7207758,8.18545625 11.7207758,9.4421376 C11.7207758,10.698819 10.6985707,11.721024 9.44188938,11.721024 M17.6731243,8.23570117 L16.3874126,8.23570117 L16.3879709,8.237376 L13.9728649,8.237376 C13.4397104,6.2342784 11.6107952,4.75316972 9.44188938,4.75316972 C6.85650895,4.75316972 4.7529215,6.85675717 4.7529215,9.4421376 C4.7529215,12.027518 6.85650895,14.1305472 9.44188938,14.1305472 C11.6107952,14.1305472 13.4397104,12.6505551 13.9728649,10.6468992 L16.3689894,10.6468992 C15.7772159,14.0585295 12.7206497,16.6355358 9.10580667,16.4663778 C5.45132593,16.2955451 2.50920655,13.2892239 2.41206636,9.63195175 C2.30766858,5.67935114 5.48314772,2.42794634 9.40895104,2.41008148 C10.0643681,2.40673182 10.6271113,1.89702498 10.6460927,1.24160788 C10.6661907,0.559393477 10.1196376,1.17351052e-13 9.44188938,1.17351052e-13 C4.06512433,1.17351052e-13 -0.276037023,4.51701858 0.0137086997,9.95575237 C0.268282977,14.7424187 4.14104999,18.6151857 8.92771633,18.8703183 C14.3664501,19.160064 18.884027,14.8189026 18.884027,9.4421376 L18.884027,9.42985551 C18.8829104,8.76773908 18.3352408,8.23570117 17.6731243,8.23570117" id="Fill-3"></path>
                                </g>
                            </g>
                        </g>
                    </g>
                    <path d="M22.5696519,256.787232 C20.8533087,257.992597 20.5581515,260.208936 21.9104938,261.738522 C23.2636274,263.268108 25.7514941,263.532025 27.4670459,262.325951 C27.8199684,262.078351 36.1872401,256.329633 43.3256132,262.254296 C44.0876411,262.88713 45.0554086,263.2 46.0215934,263.2 C47.0811524,263.2 48.1375462,262.82257 48.9169828,262.076932 C50.4070123,260.652345 50.3175947,258.421108 48.7183649,257.094426 C39.0818381,249.095315 27.3997848,253.396034 22.5696519,256.787232 M70.6541638,237.387171 C51.9207811,222.723435 33.770591,223.503126 21.8408589,226.738243 C9.08342047,230.199677 0.792905519,237.06295 0.446313408,237.353826 C-1.14579465,238.687603 -1.22255135,240.91884 0.273808659,242.337751 C1.77016866,243.755953 4.27465275,243.82477 5.86676081,242.490994 C5.93797837,242.43069 13.1380734,236.470554 24.1451425,233.483746 C38.6988459,229.537045 52.5878522,232.630981 65.4323343,242.684675 C66.1840751,243.272814 67.1146512,243.561562 68.0420621,243.561562 C69.1403951,243.561562 70.2339802,243.155753 71.0157907,242.362582 C72.4583419,240.899685 72.2961241,238.671995 70.6541638,237.387171 M59.4381899,247.010225 C61.0453327,248.329103 61.1489938,250.558922 59.6700426,251.992022 C58.8898147,252.747592 57.8255078,253.129988 56.7572445,253.129988 C55.799764,253.129988 54.8391183,252.822085 54.078673,252.198473 C36.5085104,237.788013 17.6374404,251.471991 16.8421777,252.060839 C15.1669825,253.304515 12.6727853,253.107995 11.2729647,251.617429 C9.87314405,250.127573 10.0860054,247.911943 11.7548702,246.660464 C20.2914813,240.256918 41.2436866,232.089666 59.4381899,247.010225" id="wifi" fill="#241DBA" transform="translate(35.600000, 244.000000) rotate(-90.000000) translate(-35.600000, -244.000000) "></path>
                </g>
                <g id="Group-29" transform="translate(46.000000, 228.000000)">
                    <path d="M7.488,0 L136.656,0 C140.791508,-1.64785895e-15 144.144,3.35249179 144.144,7.488 L144.144,289.312 C144.144,293.447508 140.791508,296.8 136.656,296.8 L7.488,296.8 C3.35249179,296.8 1.13305113e-13,293.447508 1.13686838e-13,289.312 L1.13686838e-13,7.488 C1.14068562e-13,3.35249179 3.35249179,-1.28497886e-16 7.488,0 Z" id="Rectangle" fill="#C5CFDE"></path>
                    <rect id="Rectangle-Copy-2" fill="#E0E4EC" x="13.104" y="160.768" width="117.936" height="122.304"></rect>
                    <g id="Group-28" transform="translate(20.592000, 173.328000)" fill="#C5CFDE">
                        <rect id="Rectangle" x="1.44950718e-13" y="1.44950718e-13" width="28.08" height="28.08" rx="5.616"></rect>
                        <rect id="Rectangle-Copy-11" x="1.44950718e-13" y="71.136" width="28.08" height="28.08" rx="5.616"></rect>
                        <rect id="Rectangle-Copy-7" x="1.44950718e-13" y="35.568" width="28.08" height="28.08" rx="5.616"></rect>
                        <rect id="Rectangle-Copy-3" x="37.44" y="1.44950718e-13" width="28.08" height="28.08" rx="5.616"></rect>
                        <rect id="Rectangle-Copy-17" x="37.44" y="71.136" width="28.08" height="28.08" rx="5.616"></rect>
                        <rect id="Rectangle-Copy-8" x="37.44" y="35.568" width="28.08" height="28.08" rx="5.616"></rect>
                        <rect id="Rectangle-Copy-4" x="74.88" y="1.44950718e-13" width="28.08" height="28.08" rx="5.616"></rect>
                        <rect id="Rectangle-Copy-19" x="74.88" y="71.136" width="28.08" height="28.08" rx="5.616"></rect>
                        <rect id="Rectangle-Copy-10" x="74.88" y="35.568" width="28.08" height="28.08" rx="5.616"></rect>
                    </g>
                    <g id="Group-27" transform="translate(12.800000, 17.376000)">
                        <rect id="Rectangle" fill="#FFFFFF" x="0" y="0" width="118.4" height="128.8" rx="1.6"></rect>
                        <g id="Group-Copy-9" transform="translate(35.200000, 28.000000)">
                            <g id="Group-Copy-6">
                                <mask id="mask-4" fill="white">
                                    <use xlink:href="#path-3"></use>
                                </mask>
                                <use id="Mask" stroke="#E0E4EC" stroke-width="0.967458816" fill="#FFFFFF" xlink:href="#path-3"></use>
                                <g id="Group-Copy-2" mask="url(#mask-4)">
                                    <g transform="translate(-0.235515, -0.109818)">
                                        <path d="M13.1907491,90.2291624 C13.1907491,90.2291624 10.857517,70.4238585 10.3581034,65.3027916 C10.1415059,63.0821391 10.7307059,56.5065121 10.7307059,56.5065121 C11.6628584,54.7269431 11.4904318,57.8703888 13.3547368,58.6118154 L19.1031245,60.6873747 L17.549537,90.2291624 C17.549537,90.2291624 17.1738935,95.0909476 19.1031245,97.1969764 C22.8112074,101.244934 14.4617487,109.950675 13.3547368,101.941019 C13.0289662,99.5840509 12.7246349,94.5892877 13.1907491,93.8480061 C13.6567874,93.2550099 13.1907491,90.2291624 13.1907491,90.2291624 Z" id="Fill-1" stroke="none" fill="#F6B690" fill-rule="evenodd"></path>
                                        <path d="M40.6279753,85.4825882 C40.6279753,85.4825882 38.2947431,65.6772844 37.7953296,60.5562174 C37.578732,58.335565 38.1679321,51.759938 38.1679321,51.759938 C39.1000846,49.980369 38.927658,53.1238147 40.791963,53.8652413 L46.5403507,55.9408005 L44.9867632,85.4825882 C44.9867632,85.4825882 44.6111197,90.3443735 46.5403507,92.4504023 C50.2484336,96.4983594 41.8989748,105.204101 40.791963,97.1944444 C40.4661924,94.8374768 40.1618611,89.8427135 40.6279753,89.101432 C41.0940135,88.5084358 40.6279753,85.4825882 40.6279753,85.4825882 Z" id="Fill-1-Copy" stroke="none" fill="#F6B690" fill-rule="evenodd"></path>
                                        <path d="M44.5330452,150.603411 L37.6439435,150.603411 L25.8244126,103.223156 L25.8919807,150.603411 L18.530121,150.603411 C18.530121,150.603411 8.59186525,95.5163197 15.2783356,81.7780867 L40.0754468,81.7780867 C40.1429421,81.8451303 41.0885308,91.8974818 44.5330452,150.603411 Z" id="Fill-2" stroke="none" fill="url(#linearGradient-5)" fill-rule="evenodd"></path>
                                        <polygon id="Fill-3" stroke="none" fill="url(#linearGradient-6)" fill-rule="evenodd" points="30.808766 30.455754 32.1420399 41.7288675 20.6361063 41.7288675 21.4935449 33.0580907"></polygon>
                                        <path d="M20.9167072,37.2826966 C20.9167072,37.2826966 22.436802,39.8645508 26.8857212,39.3555805 C31.3346404,38.8466101 31.6043954,36.9989142 31.5954478,36.6863039 C41.3276013,37.1339554 47.1152535,44.4998971 48.9584043,58.7841291 L40.1423204,58.7841291 C41.0327234,71.2452944 41.0327234,79.9977035 40.1423204,85.0413564 L14.12984,85.0413564 L16.1262753,62.4609206 L10.4381921,58.7841291 C9.69617343,56.8560821 11.6370446,36.614849 20.9167072,37.2826966 Z" id="Fill-4" stroke="none" fill="#C5CFDE" fill-rule="evenodd"></path>
                                        <path d="M31.3258135,30.0116375 C30.9263979,31.3514616 28.7227283,32.9798408 27.4179947,33.5410009 C24.6455344,34.7321973 21.0595428,35.5920628 18.4395344,32.3382043 C16.0396708,29.3779761 15.2951229,25.3179031 15.0583419,22.694081 C14.8767763,21.1171776 15.6023932,19.636701 16.8152684,18.6289329 C19.5672918,16.4727441 24.6737875,12.8172284 25.8358932,13.291387 C26.8818313,13.7176946 30.0604478,16.9266023 32.0789664,18.9798392 C33.1575318,20.1710356 33.5369408,21.7602642 33.2067955,23.2646662 L31.3258135,30.0116375 Z" id="Fill-8" stroke="none" fill="url(#linearGradient-7)" fill-rule="evenodd"></path>
                                        <path d="M27.2209618,15.8751258 C27.2209618,15.8751258 28.5515801,21.2832969 28.87921,21.142391 C29.2069119,21.0022115 30.4319941,19.2851934 31.582877,20.5475358 C32.9122706,22.005258 31.2288091,25.1095453 31.2288091,25.1095453 C31.2288091,25.1095453 30.7446401,30.1342199 31.7399204,29.5124909 C32.7352006,28.8907618 39.1817583,19.0832767 33.1073502,10.0660266 C33.1073502,10.0660266 28.2415275,4.52058126 23.4217372,6.59349562 C20.7764212,7.73163745 13.9857074,9.11681897 11.5268713,11.2416275 C9.06803518,13.366436 8.24760313,15.0790802 9.64067854,18.3831052 C11.0336819,21.6864039 14.933832,22.5964816 16.6032461,22.3088593 C21.4692849,21.4699609 26.2565859,17.9465875 27.2209618,15.8751258 Z" id="Fill-9" stroke="none" fill="#7E8FA4" fill-rule="evenodd"></path>
                                        <mask id="mask-9" fill="white">
                                            <use xlink:href="#path-8"></use>
                                        </mask>
                                        <use id="Mask" stroke="#E0E4EC" stroke-width="1.86624" fill="none" xlink:href="#path-8"></use>
                                    </g>
                                </g>
                            </g>
                        </g>
                        <line x1="24.8" y1="90.4" x2="96" y2="90.4" id="Line-4" stroke="#C5CFDE" stroke-width="4" stroke-linecap="round"></line>
                        <line x1="24.8" y1="103.2" x2="96" y2="103.2" id="Line-4-Copy" stroke="#C5CFDE" stroke-width="4" stroke-linecap="round"></line>
                    </g>
                </g>
                <g id="Group-29">
                    <g id="Group-102-Copy-3" transform="translate(0.000000, 67.000000)">
                        <rect id="Rectangle-Copy-78" fill="#C5CFDE" x="-2.05755413e-13" y="2.05755413e-13" width="158.598" height="108.702" rx="10.692"></rect>
                        <rect id="Rectangle-Copy-79" fill="#EEEFF7" x="35.64" y="18.711" width="24.5025" height="22.275" rx="2.2275"></rect>
                        <rect id="Rectangle-Copy-80" fill="#7E8FA4" x="17.82" y="54.7965" width="24.5025" height="11.1375" rx="2.2275"></rect>
                        <rect id="Rectangle-Copy-81" fill="#7E8FA4" x="49.005" y="54.7965" width="24.5025" height="11.1375" rx="2.2275"></rect>
                        <rect id="Rectangle-Copy-82" fill="#7E8FA4" x="80.19" y="54.7965" width="24.5025" height="11.1375" rx="2.2275"></rect>
                        <rect id="Rectangle-Copy-83" fill="#7E8FA4" x="111.375" y="54.7965" width="24.5025" height="11.1375" rx="2.2275"></rect>
                        <path d="M18.2880356,32.8890467 C17.7628771,33.2386496 17.6725663,33.8814745 18.0863496,34.3251142 C18.500375,34.7687539 19.2616007,34.8453003 19.7865171,34.4954916 C19.8945027,34.4236779 22.4546809,32.7563251 24.6388466,34.4747088 C24.8720083,34.6582555 25.1681212,34.749 25.4637499,34.749 C25.7879488,34.749 26.1111791,34.6395305 26.3496675,34.4232664 C26.8055797,34.0100806 26.7782201,33.3629346 26.2888953,32.978145 C23.3403564,30.6580904 19.7659369,31.905467 18.2880356,32.8890467 M33.0007074,27.2622712 C27.2687555,23.0092149 21.7152461,23.235356 18.065043,24.1736663 C14.1615823,25.1776172 11.6248897,27.1682344 11.5188411,27.2526 C11.0316954,27.6394472 11.0082097,28.2865933 11.4660589,28.6981329 C11.9239081,29.1094668 12.6902183,29.1294265 13.177364,28.7425792 C13.1991548,28.7250888 15.4022058,26.9964166 18.7700968,26.1301257 C23.2231702,24.9854282 27.4728627,25.8827904 31.4029567,28.7987544 C31.6329708,28.9693375 31.9177041,29.0530859 32.2014689,29.0530859 C32.5375316,29.0530859 32.8721416,28.9353855 33.1113563,28.7053349 C33.5527413,28.2810375 33.5031067,27.6349203 33.0007074,27.2622712 M29.5688967,30.0533329 C30.0606427,30.435859 30.0923604,31.0825935 29.6398379,31.4982485 C29.4011074,31.7173934 29.0754559,31.8283033 28.7485937,31.8283033 C28.4556283,31.8283033 28.1616945,31.7389992 27.9290171,31.5581275 C22.5529817,27.3785311 16.7789009,31.3474192 16.5355702,31.5182082 C16.0230018,31.8789227 15.2598392,31.8219244 14.8315287,31.3896021 C14.4032182,30.9574855 14.4683485,30.3148663 14.9789798,29.9518884 C17.5909718,28.0946101 24.0018286,25.725788 29.5688967,30.0533329" id="wifi-copy-4" fill="#241DBA" transform="translate(22.275000, 29.180250) rotate(-90.000000) translate(-22.275000, -29.180250) "></path>
                        <line x1="23.166" y1="77.9625" x2="96.89625" y2="78.18525" id="Line-7-Copy-6" stroke="#7E8FA4" stroke-width="3.564" stroke-linecap="round" stroke-linejoin="round"></line>
                        <line x1="23.166" y1="85.0905" x2="62.37" y2="85.0905" id="Line-7-Copy-7" stroke="#7E8FA4" stroke-width="3.564" stroke-linecap="round" stroke-linejoin="round"></line>
                    </g>
                    <g id="Group-28" transform="translate(123.000000, 0.000000)">
                        <rect id="Rectangle-Copy-78" stroke="#E0E4EC" stroke-width="3" fill="#E0E4EC" x="8.81072992e-13" y="1.13686838e-13" width="158.598" height="108.702" rx="10.692"></rect>
                        <text id="****-****-****-****" font-family="Gilroy-Bold" font-size="17" font-weight="bold" letter-spacing="0.402631579" fill="#7E8FA4">
                            <tspan x="17.344" y="95">**** **** **** ****</tspan>
                        </text>
                        <text id="****" font-family="Gilroy-Bold" font-size="10" font-weight="bold" letter-spacing="0.236842105" fill="#7E8FA4">
                            <tspan x="126.132632" y="79">****</tspan>
                        </text>
                        <g id="Group-26" transform="translate(113.000000, 13.000000)">
                            <g id="Group-17">
                                <polygon id="lock-open-copy-2" fill="#EEEFF7" points="3.7485 41.2335 26.2395 41.2335 26.2395 18.7425 3.7485 18.7425"></polygon>
                                <path d="M3.86941935,39.27595 L26.1185806,39.27595 L26.1185806,19.159 L3.86941935,19.159 L3.86941935,39.27595 Z M7.25516129,12.031852 C7.25516129,7.127148 10.4517854,3.8318 14.9935163,3.8318 C19.535731,3.8318 22.7328387,7.127148 22.7328387,12.031852 L22.7328387,15.3272 L7.25516129,15.3272 L7.25516129,12.031852 Z M28.0532903,15.3272 L26.6022581,15.3272 L26.6022581,12.031852 C26.6022581,4.94781175 21.7432347,0 14.9935163,0 C8.24476529,0 3.38574194,4.94781175 3.38574194,12.031852 L3.38574194,15.3272 L1.93470968,15.3272 C0.866266258,15.3272 0,16.1922288 0,17.2502846 L0,41.19185 C0,42.2499058 0.866266258,43.10775 1.93470968,43.10775 L28.0532903,43.10775 C29.1217337,43.10775 29.988,42.2499058 29.988,41.19185 L29.988,17.2502846 C29.988,16.1922288 29.1217337,15.3272 28.0532903,15.3272 L28.0532903,15.3272 Z" id="lock" fill="#241DBA"></path>
                            </g>
                            <g id="Group-25" transform="translate(11.000000, 23.000000)" fill="#241DBA">
                                <circle id="Oval" cx="4" cy="4" r="4"></circle>
                                <rect id="Rectangle" x="2" y="6" width="4" height="6" rx="1"></rect>
                            </g>
                        </g>
                        <rect id="Rectangle" stroke="#7E8FA4" stroke-width="2" x="20" y="24" width="26" height="22" rx="3"></rect>
                        <polyline id="Path-8" stroke="#7E8FA4" stroke-width="2" stroke-linejoin="round" points="20 33.4890046 29.4002952 33.4890046 33 29 44.9903996 29"></polyline>
                        <polyline id="Path-8-Copy" stroke="#7E8FA4" stroke-width="2" stroke-linejoin="round" points="20 39.4890046 33.0238025 39.4890046 36.6235073 35 44.9903996 35"></polyline>
                    </g>
                    <path d="M121.759511,36.6317178 C110.271223,43.3538031 101.392368,54.0517959 97.0109696,66.8376729 M158.626972,140.339579 C176.23492,137.61693 191.133725,126.691701 199.296402,111.590876" id="Shape" stroke="#7E8FA4" stroke-width="2" stroke-linecap="round"></path>
                </g>
            </g>
        </g>
    </g>
</svg>