<?xml version="1.0" encoding="UTF-8"?>
<svg width="493px" height="443px" viewBox="0 0 493 443" version="1.1" xmlns="http://www.w3.org/2000/svg" xmlns:xlink="http://www.w3.org/1999/xlink">
    <!-- Generator: Sketch 63.1 (92452) - https://sketch.com -->
    <title>Tiquetera_parques</title>
    <desc>Created with Sketch.</desc>
    <defs>
        <rect id="path-1" x="0" y="0" width="53.55" height="77.775"></rect>
        <filter x="-18.4%" y="-30.5%" width="136.8%" height="161.7%" filterUnits="objectBoundingBox" id="filter-3">
            <feMorphology radius="4" operator="erode" in="SourceAlpha" result="shadowSpreadOuter1"></feMorphology>
            <feOffset dx="-6" dy="8" in="shadowSpreadOuter1" result="shadowOffsetOuter1"></feOffset>
            <feGaussianBlur stdDeviation="7.5" in="shadowOffsetOuter1" result="shadowBlurOuter1"></feGaussianBlur>
            <feColorMatrix values="0 0 0 0 0   0 0 0 0 0   0 0 0 0 0  0 0 0 0.203343531 0" type="matrix" in="shadowBlurOuter1" result="shadowMatrixOuter1"></feColorMatrix>
            <feMerge>
                <feMergeNode in="shadowMatrixOuter1"></feMergeNode>
                <feMergeNode in="SourceGraphic"></feMergeNode>
            </feMerge>
        </filter>
        <polygon id="path-4" points="0.200135593 1.96450856e-12 86.6001356 1.96450856e-12 86.6001356 60.48 0.200135593 60.48"></polygon>
    </defs>
    <g id="Soluciones-Goguest" stroke="none" stroke-width="1" fill="none" fill-rule="evenodd">
        <g id="Solucion---Goguest-parques" transform="translate(-224.000000, -4840.000000)">
            <g id="Tiquetera_parques" transform="translate(147.000000, 4847.000000)">
                <g id="Group-31" transform="translate(183.000000, 0.000000)">
                    <g id="Group-5">
                        <g id="Group-40" transform="translate(0.000000, 73.950000)">
                            <rect id="Rectangle" fill="#C5CFDE" x="0" y="0" width="267.75" height="117.3"></rect>
                            <g id="Fill-537-Copy" transform="translate(229.750000, 57.125000) rotate(-90.000000) translate(-229.750000, -57.125000) translate(216.750000, 44.125000)" fill="#EEEFF7">
                                <path d="M22.95,17.85 L20.4,17.85 L20.4,15.3 L22.95,15.3 L22.95,17.85 Z M22.95,22.95 L20.4,22.95 L20.4,20.4 L22.95,20.4 L22.95,22.95 Z M16.575,7.65 L14.025,7.65 L14.025,5.1 L16.575,5.1 L16.575,7.65 Z M16.575,12.75 L14.025,12.75 L14.025,10.2 L16.575,10.2 L16.575,12.75 Z M16.575,17.85 L14.025,17.85 L14.025,15.3 L16.575,15.3 L16.575,17.85 Z M11.475,7.65 L8.925,7.65 L8.925,5.1 L11.475,5.1 L11.475,7.65 Z M11.475,12.75 L8.925,12.75 L8.925,10.2 L11.475,10.2 L11.475,12.75 Z M11.475,17.85 L8.925,17.85 L8.925,15.3 L11.475,15.3 L11.475,17.85 Z M5.1,17.85 L2.55,17.85 L2.55,15.3 L5.1,15.3 L5.1,17.85 Z M5.1,22.95 L2.55,22.95 L2.55,20.4 L5.1,20.4 L5.1,22.95 Z M24.225,12.75 L19.125,12.75 L19.125,3.825 C19.125,3.122475 18.555075,2.55 17.85,2.55 L16.575,2.55 L16.575,1.275 C16.575,0.572475 16.005075,0 15.3,0 L10.2,0 C9.4962,0 8.925,0.572475 8.925,1.275 L8.925,2.55 L7.65,2.55 C6.9462,2.55 6.375,3.122475 6.375,3.825 L6.375,12.75 L1.275,12.75 C0.5712,12.75 0,13.322475 0,14.025 L0,24.225 C0,24.930075 0.5712,25.5 1.275,25.5 L10.2,25.5 L10.2,20.4 L15.3,20.4 L15.3,25.5 L24.225,25.5 C24.930075,25.5 25.5,24.930075 25.5,24.225 L25.5,14.025 C25.5,13.322475 24.930075,12.75 24.225,12.75 L24.225,12.75 Z" id="Fill-537"></path>
                            </g>
                            <g id="Group-39" transform="translate(20.400000, 20.400000)">
                                <mask id="mask-2" fill="white">
                                    <use xlink:href="#path-1"></use>
                                </mask>
                                <g id="Mask"></g>
                                <g mask="url(#mask-2)" stroke="#7E8FA4" stroke-linecap="square">
                                    <g transform="translate(-1.275000, 3.825000)">
                                        <line x1="0.6375" y1="5.1" x2="54.1875" y2="5.1" id="Line-11-Copy" stroke-width="2.55"></line>
                                        <line x1="0.6375" y1="13.3875" x2="54.1875" y2="13.3875" id="Line-11-Copy-3" stroke-width="1.5"></line>
                                        <line x1="0.6375" y1="17.85" x2="54.1875" y2="17.85" id="Line-11-Copy-4" stroke-width="2.55"></line>
                                        <line x1="0.6375" y1="26.775" x2="52.9125" y2="26.775" id="Line-11-Copy-5" stroke-width="3.825"></line>
                                        <line x1="0.6375" y1="0.6375" x2="54.1875" y2="0.6375" id="Line-11" stroke-width="1.5"></line>
                                        <line x1="0.6375" y1="21.675" x2="54.1875" y2="21.675" id="Line-11-Copy-6" stroke-width="1.5"></line>
                                        <line x1="0.6375" y1="8.925" x2="54.1875" y2="8.925" id="Line-11-Copy-2" stroke-width="2.55"></line>
                                        <line x1="0.6375" y1="31.875" x2="54.1875" y2="31.875" id="Line-11-Copy-7" stroke-width="1.5"></line>
                                        <line x1="0.6375" y1="39.525" x2="54.1875" y2="39.525" id="Line-11-Copy-8" stroke-width="2.55"></line>
                                        <line x1="0.6375" y1="47.8125" x2="54.1875" y2="47.8125" id="Line-11-Copy-9" stroke-width="1.5"></line>
                                        <line x1="0.6375" y1="52.275" x2="54.1875" y2="52.275" id="Line-11-Copy-10" stroke-width="2.55"></line>
                                        <line x1="0.6375" y1="61.2" x2="52.9125" y2="61.2" id="Line-11-Copy-11" stroke-width="3.825"></line>
                                        <line x1="0.6375" y1="35.0625" x2="54.1875" y2="35.0625" id="Line-11-Copy-12" stroke-width="1.5"></line>
                                        <line x1="0.6375" y1="56.1" x2="54.1875" y2="56.1" id="Line-11-Copy-13" stroke-width="1.5"></line>
                                        <line x1="0.6375" y1="43.35" x2="54.1875" y2="43.35" id="Line-11-Copy-14" stroke-width="2.55"></line>
                                        <line x1="0.6375" y1="66.3" x2="54.1875" y2="66.3" id="Line-11-Copy-15" stroke-width="1.5"></line>
                                    </g>
                                </g>
                            </g>
                            <line x1="91.1625" y1="8.925" x2="91.1625" y2="113.475" id="Line-12" stroke="#7E8FA4" stroke-width="1.5" stroke-linecap="square" stroke-dasharray="2.550000071525574,6.375"></line>
                            <line x1="253.0875" y1="37.6125" x2="253.0875" y2="77.1375" id="Line-13-Copy" stroke="#7E8FA4" stroke-width="2.55" stroke-linecap="round"></line>
                            <line x1="204" y1="8.925" x2="204" y2="113.475" id="Line-12-Copy" stroke="#7E8FA4" stroke-width="1.5" stroke-linecap="square" stroke-dasharray="2.550000071525574,6.375"></line>
                            <line x1="107.7375" y1="97.5375" x2="186.7875" y2="97.5375" id="Line-13" stroke="#7E8FA4" stroke-width="2.55" stroke-linecap="round"></line>
                        </g>
                        <g id="Group-16" filter="url(#filter-3)" transform="translate(158.100000, 0.000000)">
                            <g id="Group-15">
                                <path d="M199.6,0 C210.866609,-2.06964248e-15 220,9.1333911 220,20.4 L220,42.5 C208.954305,42.5 200,51.454305 200,62.5 C200,73.545695 208.954305,82.5 220,82.5 L220,82.5 L220,107.1 C220,118.366609 210.866609,127.5 199.6,127.5 L20.4,127.5 C9.1333911,127.5 -5.72566571e-15,118.366609 0,107.1 L0,82.5 C11.045695,82.5 20,73.545695 20,62.5 C20,51.454305 11.045695,42.5 0,42.5 L0,42.5 L0,20.4 C-1.37976165e-15,9.1333911 9.1333911,2.06964248e-15 20.4,0 L199.6,0 Z" id="Combined-Shape" fill="#C5CFDE"></path>
                                <line x1="76.5" y1="7.225" x2="76.5" y2="130.475" id="Line-4" stroke="#FFFFFF" stroke-width="5.1" stroke-linecap="square" stroke-dasharray="5.100000143051147,12.75"></line>
                            </g>
                        </g>
                    </g>
                    <polyline id="Path" stroke="#241DBA" stroke-width="4.86" points="282 63.7647106 290.102542 72 312 48"></polyline>
                </g>
                <g id="Group-26-Copy" transform="translate(0.000000, 109.000000)">
                    <g id="Group-89-Copy" transform="translate(134.000000, 166.000000) rotate(-360.000000) translate(-134.000000, -166.000000) ">
                        <g id="Group-60" transform="translate(134.030175, 165.826893) rotate(21.000000) translate(-134.030175, -165.826893) translate(45.530175, 22.826893)">
                            <path d="M133.86442,158.605289 L136.063188,157.803384 C144.988919,154.550013 151.781612,147.159489 154.280175,137.982139 L164.741757,99.5557496 C165.462388,96.9076191 165.346158,94.1013552 164.409096,91.5222575 L148.760411,48.4674592 C145.04022,38.2329443 133.740173,32.9559481 123.519871,36.6813116 L123.073384,36.8442611 L113.641849,10.8951502 C110.684775,2.75891148 101.701329,-1.43603559 93.5763894,1.52515073 L93.5763894,1.52515073 C85.4514495,4.48633705 81.2623279,13.482275 84.219402,21.6185137 L82.9023858,17.9958968 C79.9453117,9.85965807 70.9618664,5.66471101 62.8369265,8.62589733 L62.8369265,8.62589733 C54.7119866,11.5870837 50.522865,20.5830216 53.4807407,28.7192603 L57.1672639,38.8622666 C54.2101898,30.7260279 45.2267445,26.5310809 37.1018046,29.4922672 L37.1018046,29.4922672 C28.9768646,32.4534535 24.7877431,41.4493915 27.7448172,49.5856302 L30.9046942,58.2797502 C27.9476201,50.1435116 18.9641748,45.9485645 10.8392349,48.9097508 L10.8392349,48.9097508 C2.71429496,51.8709371 -1.47482659,60.8668751 1.48224754,69.0031138 L3.24013953,73.8394238 L41.5923248,179.353661 C43.8760614,185.636449 50.8130415,188.875372 57.0871047,186.589262 C59.4534052,185.726352 62.0698026,186.948875 62.9315144,189.318466 L97.9610994,285.695488 L170.453904,259.273583 L133.86442,158.605289 Z" id="Path" fill="#FFB9B9" fill-rule="nonzero"></path>
                            <g id="Group-38-Copy-7" transform="translate(117.131123, 217.380013) rotate(-381.000000) translate(-117.131123, -217.380013) translate(65.131123, 186.380013)">
                                <g id="Group-44-Copy" transform="translate(52.340000, 30.620000) rotate(-180.000000) translate(-52.340000, -30.620000) translate(0.840000, 0.120000)">
                                    <g id="Group-3" transform="translate(10.359864, -0.000000)">
                                        <mask id="mask-5" fill="white">
                                            <use xlink:href="#path-4"></use>
                                        </mask>
                                        <g id="Clip-2"></g>
                                        <path d="M83.0214374,1.96450856e-12 C84.9979013,1.96450856e-12 86.6001356,2.38832101 86.6001356,5.33447576 L86.6001356,55.1455242 C86.6001356,58.091679 84.9979013,60.48 83.0214374,60.48 L3.77883382,60.48 C1.80236991,60.48 0.200135593,58.091679 0.200135593,55.1455242 L0.200135593,5.33447576 C0.200135593,2.38832101 1.80236991,1.96450856e-12 3.77883382,1.96450856e-12 L83.0214374,1.96450856e-12 Z M78.4202539,14.4792914 L76.3752835,14.4792914 C75.8364338,14.4792914 75.3947202,15.1011388 75.3553545,15.8898792 L75.3527983,16.0034273 L75.3527983,45.2386407 C75.3527983,46.0418603 75.7699723,46.700287 76.2991084,46.7582042 L76.3752835,46.7627766 L78.4202539,46.7627766 C78.9591036,46.7627766 79.4008173,46.1409291 79.4401829,45.3521888 L79.4427391,45.2386407 L79.4427391,16.0034273 C79.4427391,15.2002077 79.0255652,14.5417809 78.4964291,14.4831017 L78.4202539,14.4792914 Z M10.4249877,14.4792914 L8.38001725,14.4792914 C7.84116755,14.4792914 7.39945394,15.1011388 7.36008826,15.8898792 L7.35753204,16.0034273 L7.35753204,45.2386407 C7.35753204,46.0418603 7.77470601,46.700287 8.3038421,46.7582042 L8.38001725,46.7627766 L10.4249877,46.7627766 C10.9638374,46.7627766 11.405551,46.1409291 11.4449167,45.3521888 L11.4474729,45.2386407 L11.4474729,16.0034273 C11.4474729,15.2002077 11.0302989,14.5417809 10.5011628,14.4831017 L10.4249877,14.4792914 Z" id="Fill-1" fill="#E0E4EC" mask="url(#mask-5)"></path>
                                    </g>
                                    <polygon id="Rectangle" fill="#7E8FA4" points="0.457506815 18.5358368 19.2 16.3761231 19.2 43.9177846 0.457506815 42.6395298"></polygon>
                                    <polygon id="Rectangle-Copy-54" fill="#7E8FA4" points="87.6976271 16.3761231 102.795922 17.8306265 102.795922 41.9865346 87.6976271 43.9177846"></polygon>
                                </g>
                                <g id="Group-Copy" transform="translate(50.940000, 30.300000) rotate(-360.000000) translate(-50.940000, -30.300000) translate(41.440000, 20.800000)" fill="#241DBA">
                                    <path d="M12.438999,3.07839478 C12.8537988,3.2737917 13.2518502,3.51217595 13.6214296,3.78573164 C13.8988932,3.99117755 14.1635165,4.21951281 14.4086,4.4640381 C14.5660341,4.62091392 14.7167689,4.78616389 14.8580129,4.95643835 C15.0963972,5.24395097 15.4397375,5.39245263 15.7858692,5.39245263 C16.0571918,5.39245263 16.3296309,5.30145349 16.5546165,5.114989 C17.0665565,4.69014026 17.1374576,3.93032537 16.7131672,3.41838543 C16.5239113,3.19005017 16.3212568,2.96785595 16.1107864,2.75794383 C15.7825195,2.43023527 15.4274554,2.1248578 15.0550847,1.849069 C14.5587765,1.48172278 14.0245055,1.1618301 13.4673451,0.898881674 C12.8655226,0.61471872 12.1475785,0.872642658 11.8634155,1.47446518 C11.5798109,2.0762877 11.8371765,2.79423183 12.438999,3.07839478" id="Fill-1"></path>
                                    <path d="M9.44188938,11.721024 C8.18520802,11.721024 7.16300298,10.698819 7.16300298,9.4421376 C7.16300298,8.18545625 8.18520802,7.1632512 9.44188938,7.1632512 C10.6985707,7.1632512 11.7207758,8.18545625 11.7207758,9.4421376 C11.7207758,10.698819 10.6985707,11.721024 9.44188938,11.721024 M17.6731243,8.23570117 L16.3874126,8.23570117 L16.3879709,8.237376 L13.9728649,8.237376 C13.4397104,6.2342784 11.6107952,4.75316972 9.44188938,4.75316972 C6.85650895,4.75316972 4.7529215,6.85675717 4.7529215,9.4421376 C4.7529215,12.027518 6.85650895,14.1305472 9.44188938,14.1305472 C11.6107952,14.1305472 13.4397104,12.6505551 13.9728649,10.6468992 L16.3689894,10.6468992 C15.7772159,14.0585295 12.7206497,16.6355358 9.10580667,16.4663778 C5.45132593,16.2955451 2.50920655,13.2892239 2.41206636,9.63195175 C2.30766858,5.67935114 5.48314772,2.42794634 9.40895104,2.41008148 C10.0643681,2.40673182 10.6271113,1.89702498 10.6460927,1.24160788 C10.6661907,0.559393477 10.1196376,1.17351052e-13 9.44188938,1.17351052e-13 C4.06512433,1.17351052e-13 -0.276037023,4.51701858 0.0137086997,9.95575237 C0.268282977,14.7424187 4.14104999,18.6151857 8.92771633,18.8703183 C14.3664501,19.160064 18.884027,14.8189026 18.884027,9.4421376 L18.884027,9.42985551 C18.8829104,8.76773908 18.3352408,8.23570117 17.6731243,8.23570117" id="Fill-3"></path>
                                </g>
                            </g>
                        </g>
                    </g>
                </g>
                <g id="Group-12" transform="translate(272.000000, 227.000000)">
                    <g id="Group-8-Copy-2">
                        <g id="Group-8-Copy">
                            <rect id="Rectangle" fill="#C5CFDE" x="0" y="0" width="124.74" height="208.8504" rx="8.5536"></rect>
                            <rect id="Rectangle" fill="#FFFFFF" x="12.1176" y="27.7992" width="100.5048" height="149.688"></rect>
                            <rect id="Rectangle" stroke="#7E8FA4" stroke-width="2.8512" x="1.4256" y="1.4256" width="121.8888" height="205.9992" rx="8.5536"></rect>
                            <polyline id="Path-3" stroke="#FFFFFF" stroke-width="1.0692" stroke-linejoin="round" points="40.8218975 187.630326 48.0989494 187.630326 45.4457889 190.969573 48.0989494 194.328081 40.8218975 194.328081"></polyline>
                            <path d="M39.0937592,187.630326 L36.8117069,189.987634 C36.2765982,190.540389 36.2765982,191.418017 36.8117069,191.970773 L39.0937592,194.328081 L39.0937592,194.328081" id="Path-6" stroke="#FFFFFF" stroke-width="1.0692"></path>
                            <polyline id="Path-7" stroke="#FFFFFF" stroke-width="1.0692" points="78.0917279 190.834851 78.0917279 190.040783 84.5581935 186.38159 90.5098116 190.040783 90.5098116 190.834851"></polyline>
                            <polyline id="Path-10" stroke="#FFFFFF" stroke-width="1.0692" points="78.0917279 192.467551 78.0917279 194.333286 90.5098116 194.333286 90.5098116 192.467551"></polyline>
                        </g>
                    </g>
                    <g id="Group-6" transform="translate(44.880000, 104.544000)">
                        <rect id="Rectangle" fill="#E0E4EC" x="0" y="1.584" width="34.32" height="38.544" rx="5.346"></rect>
                        <polyline id="Path" stroke="#241DBA" stroke-width="4.2768" points="14.256 13.8729453 21.5288413 21.12 41.184 0"></polyline>
                    </g>
                    <circle id="Oval" fill="#16BE5A" cx="62.568" cy="76.296" r="15.576"></circle>
                </g>
                <path d="M223.369652,369.987232 C221.653309,371.192597 221.358152,373.408936 222.710494,374.938522 C224.063627,376.468108 226.551494,376.732025 228.267046,375.525951 C228.619968,375.278351 236.98724,369.529633 244.125613,375.454296 C244.887641,376.08713 245.855409,376.4 246.821593,376.4 C247.881152,376.4 248.937546,376.02257 249.716983,375.276932 C251.207012,373.852345 251.117595,371.621108 249.518365,370.294426 C239.881838,362.295315 228.199785,366.596034 223.369652,369.987232 M271.454164,350.587171 C252.720781,335.923435 234.570591,336.703126 222.640859,339.938243 C209.88342,343.399677 201.592906,350.26295 201.246313,350.553826 C199.654205,351.887603 199.577449,354.11884 201.073809,355.537751 C202.570169,356.955953 205.074653,357.02477 206.666761,355.690994 C206.737978,355.63069 213.938073,349.670554 224.945142,346.683746 C239.498846,342.737045 253.387852,345.830981 266.232334,355.884675 C266.984075,356.472814 267.914651,356.761562 268.842062,356.761562 C269.940395,356.761562 271.03398,356.355753 271.815791,355.562582 C273.258342,354.099685 273.096124,351.871995 271.454164,350.587171 M260.23819,360.210225 C261.845333,361.529103 261.948994,363.758922 260.470043,365.192022 C259.689815,365.947592 258.625508,366.329988 257.557244,366.329988 C256.599764,366.329988 255.639118,366.022085 254.878673,365.398473 C237.30851,350.988013 218.43744,364.671991 217.642178,365.260839 C215.966982,366.504515 213.472785,366.307995 212.072965,364.817429 C210.673144,363.327573 210.886005,361.111943 212.55487,359.860464 C221.091481,353.456918 242.043687,345.289666 260.23819,360.210225" id="wifi" fill="#241DBA" transform="translate(236.400000, 357.200000) rotate(-90.000000) translate(-236.400000, -357.200000) "></path>
            </g>
        </g>
    </g>
</svg>