<?xml version="1.0" encoding="UTF-8"?>
<svg width="318px" height="222px" viewBox="0 0 318 222" version="1.1" xmlns="http://www.w3.org/2000/svg" xmlns:xlink="http://www.w3.org/1999/xlink">
    <!-- Generator: Sketch 63.1 (92452) - https://sketch.com -->
    <title>POS_parque_gestion_control</title>
    <desc>Created with Sketch.</desc>
    <defs>
        <polyline id="path-1" points="80.1753575 0.13118875 80.3547588 63.3743162 0.25501875 109.62 0.07587125 46.3768725"></polyline>
        <polyline id="path-3" points="80.1753575 0.13118875 80.3547588 63.3743162 0.25501875 109.62 0.07587125 46.3768725"></polyline>
        <polyline id="path-5" points="80.1753575 0.13118875 80.3547588 63.3743162 0.25501875 109.62 0.07587125 46.3768725"></polyline>
        <polyline id="path-7" points="80.1753575 0.13118875 80.3547588 63.3743162 0.25501875 109.62 0.07587125 46.3768725"></polyline>
        <polyline id="path-9" points="80.1753575 0.13118875 80.3547588 63.3743162 0.25501875 109.62 0.07587125 46.3768725"></polyline>
        <polyline id="path-11" points="80.1753575 0.13118875 80.3547588 63.3743162 0.25501875 109.62 0.07587125 46.3768725"></polyline>
        <polyline id="path-13" points="80.1753575 0.13118875 80.3547588 63.3743162 0.25501875 109.62 0.07587125 46.3768725"></polyline>
        <polyline id="path-15" points="80.1753575 0.13118875 80.3547588 63.3743162 0.25501875 109.62 0.07587125 46.3768725"></polyline>
        <polyline id="path-17" points="80.1753575 0.13118875 80.3547588 63.3743162 0.25501875 109.62 0.07587125 46.3768725"></polyline>
        <polyline id="path-19" points="80.1753575 0.13118875 80.3547588 63.3743162 0.25501875 109.62 0.07587125 46.3768725"></polyline>
        <polyline id="path-21" points="80.1753575 0.13118875 80.3547588 63.3743162 0.25501875 109.62 0.07587125 46.3768725"></polyline>
        <polyline id="path-23" points="80.1753575 0.13118875 80.3547588 63.3743162 0.25501875 109.62 0.07587125 46.3768725"></polyline>
        <polyline id="path-25" points="70.4930202 0.197316 70.643826 53.3899512 0.3741957 93.96 0.2233899 40.7675997"></polyline>
        <polygon id="path-27" points="70.4930202 0.197316 70.643826 53.3899512 0.3741957 93.96 0.2233899 40.7675997"></polygon>
        <polygon id="path-29" points="70.4930202 0.197316 70.643826 53.3899512 0.3741957 93.96 0.2233899 40.7675997"></polygon>
        <polygon id="path-31" points="70.4930202 0.197316 70.643826 53.3899512 0.3741957 93.96 0.2233899 40.7675997"></polygon>
        <polygon id="path-33" points="70.4930202 0.197316 70.643826 53.3899512 0.3741957 93.96 0.2233899 40.7675997"></polygon>
        <polygon id="path-35" points="70.4930202 0.197316 70.643826 53.3899512 0.3741957 93.96 0.2233899 40.7675997"></polygon>
        <polygon id="path-37" points="70.4930202 0.197316 70.643826 53.3899512 0.3741957 93.96 0.2233899 40.7675997"></polygon>
        <polygon id="path-39" points="70.4930202 0.197316 70.643826 53.3899512 0.3741957 93.96 0.2233899 40.7675997"></polygon>
        <polygon id="path-41" points="70.4930202 0.197316 70.643826 53.3899512 0.3741957 93.96 0.2233899 40.7675997"></polygon>
        <polygon id="path-43" points="70.4930202 0.197316 70.643826 53.3899512 0.3741957 93.96 0.2233899 40.7675997"></polygon>
        <polygon id="path-45" points="70.4930202 0.197316 70.643826 53.3899512 0.3741957 93.96 0.2233899 40.7675997"></polygon>
        <polygon id="path-47" points="70.4930202 0.197316 70.643826 53.3899512 0.3741957 93.96 0.2233899 40.7675997"></polygon>
        <polygon id="path-49" points="70.4930202 0.197316 70.643826 53.3899512 0.3741957 93.96 0.2233899 40.7675997"></polygon>
        <polygon id="path-51" points="70.4930202 0.197316 70.643826 53.3899512 0.3741957 93.96 0.2233899 40.7675997"></polygon>
        <polygon id="path-53" points="70.4930202 0.197316 70.643826 53.3899512 0.3741957 93.96 0.2233899 40.7675997"></polygon>
        <linearGradient x1="21.910379%" y1="1.71159233%" x2="66.2565414%" y2="45.2158171%" id="linearGradient-55">
            <stop stop-color="#FFFFFF" offset="0.0870988176%"></stop>
            <stop stop-color="#FFFFFF" stop-opacity="0" offset="100%"></stop>
        </linearGradient>
        <linearGradient x1="110.145577%" y1="44.6528678%" x2="-19.1280273%" y2="55.4911332%" id="linearGradient-56">
            <stop stop-color="#5D278F" stop-opacity="0" offset="0%"></stop>
            <stop stop-color="#292376" offset="100%"></stop>
        </linearGradient>
        <linearGradient x1="86.8843387%" y1="55.9267417%" x2="43.3591588%" y2="47.4624255%" id="linearGradient-57">
            <stop stop-color="#DBF9EA" offset="0%"></stop>
            <stop stop-color="#C0DDE2" offset="100%"></stop>
        </linearGradient>
        <linearGradient x1="55%" y1="50.5%" x2="50%" y2="48.5%" id="linearGradient-58">
            <stop stop-color="#DBF9EA" offset="0%"></stop>
            <stop stop-color="#C0DDE2" offset="100%"></stop>
        </linearGradient>
        <linearGradient x1="3.30101155e-14%" y1="50.0747225%" x2="100%" y2="50.0747225%" id="linearGradient-59">
            <stop stop-color="#DBF9EA" offset="0%"></stop>
            <stop stop-color="#C0DDE2" offset="100%"></stop>
        </linearGradient>
        <linearGradient x1="119.502027%" y1="144.587753%" x2="53.4420384%" y2="54.2391668%" id="linearGradient-60">
            <stop stop-color="#DBF9EA" offset="0%"></stop>
            <stop stop-color="#C0DDE2" offset="100%"></stop>
        </linearGradient>
        <linearGradient x1="26.2561367%" y1="23.1731643%" x2="80.8965755%" y2="93.0473762%" id="linearGradient-61">
            <stop stop-color="#000000" offset="0%"></stop>
            <stop stop-color="#170017" offset="100%"></stop>
        </linearGradient>
        <linearGradient x1="14.57835%" y1="100%" x2="83.3517383%" y2="0%" id="linearGradient-62">
            <stop stop-color="#00D7D7" offset="0%"></stop>
            <stop stop-color="#241DBA" offset="100%"></stop>
        </linearGradient>
        <linearGradient x1="26.8448558%" y1="32.6286374%" x2="55.6253669%" y2="54.1704635%" id="linearGradient-63">
            <stop stop-color="#FFFFFF" stop-opacity="0.25" offset="0%"></stop>
            <stop stop-color="#DBF9EA" stop-opacity="0" offset="100%"></stop>
        </linearGradient>
        <polyline id="path-64" points="27.5180275 0.52751 0 16.414435 0.0899725 48.0675 27.608 32.1793425"></polyline>
        <polyline id="path-66" points="27.5180275 0.52751 0 16.414435 0.0899725 48.0675 27.608 32.1793425"></polyline>
        <radialGradient cx="50%" cy="50%" fx="50%" fy="50%" r="46.8496592%" id="radialGradient-68">
            <stop stop-color="#FFFFFF" offset="0%"></stop>
            <stop stop-color="#FFFFFF" stop-opacity="0" offset="100%"></stop>
        </radialGradient>
    </defs>
    <g id="Soluciones-Goguest" stroke="none" stroke-width="1" fill="none" fill-rule="evenodd">
        <g id="Solucion---Goguest-parques" transform="translate(-560.000000, -8185.000000)">
            <g id="POS_parque_gestion_control" transform="translate(560.000000, 8183.000000)">
                <g id="Group-277" transform="translate(39.150000, 2.900000)">
                    <path d="M80.1781585,22.8957519 L80.1172585,1.37445313 C80.113706,0.10494188 79.1385447,-0.37261562 77.9494722,0.31403188 L26.6858822,29.9109244 C25.0984222,30.8274694 23.809626,30.1936019 23.8048047,28.4993131 C23.7999835,26.8035019 22.5099185,26.1724256 20.9237272,27.0879556 L2.15307849,37.9253644 C0.965528486,38.6107431 -0.0035427638,40.2108906 -1.00968123e-12,41.4786256 L0.166215986,100.105026 C0.170022236,101.374537 1.14492974,101.852094 2.33247974,101.166716 L78.1113647,57.4156481 C79.3004372,56.7290006 80.2695085,55.1291069 80.2659657,53.8595956 L80.1781585,22.8957519 Z" id="Fill-1" fill="#6D6D6D" opacity="0.5"></path>
                    <path d="M83.1968954,25.9144888 L83.1359954,4.39319 C83.1324429,3.12367875 82.1572816,2.64612125 80.9682091,3.33276875 L29.7046191,32.9296613 C28.1171591,33.8462063 26.8283629,33.2123388 26.8235416,31.51805 C26.8187204,29.8222388 25.5286554,29.1911625 23.9424641,30.1066925 L5.17181536,40.9441013 C3.98426536,41.62948 3.01519411,43.2296275 3.01873687,44.4973625 L3.18495286,103.123763 C3.18875911,104.393274 4.16366661,104.870831 5.35121661,104.185453 L81.1301016,60.434385 C82.3191741,59.7477375 83.2882454,58.1478438 83.2847026,56.8783325 L83.1968954,25.9144888 Z" id="Fill-3" fill="#999999" opacity="0.6"></path>
                    <path d="M85.5734671,28.2910605 L85.5125671,6.76976175 C85.5090146,5.5002505 84.5338534,5.022693 83.3447809,5.7093405 L32.0811909,35.306233 C30.4937309,36.222778 29.2049346,35.5889105 29.2001134,33.8946218 C29.1952921,32.1988105 27.9052271,31.5677343 26.3190359,32.4832643 L7.54838711,43.320673 C6.36083711,44.0060518 5.39176586,45.6061993 5.39530862,46.8739343 L5.56152461,105.500334 C5.56533086,106.769846 6.54023836,107.247403 7.72778836,106.562024 L83.5066734,62.8109568 C84.6957459,62.1243093 85.6648171,60.5244155 85.6612743,59.2549043 L85.5734671,28.2910605 Z" id="Fill-5" fill="#CCCCCC" opacity="0.7"></path>
                    <path d="M90.3266106,33.044204 L90.2657106,11.5229053 C90.2621581,10.253394 89.2869969,9.7758365 88.0979244,10.462484 L36.8343344,40.0593765 C35.2468744,40.9759215 33.9580781,40.342054 33.9532569,38.6477653 C33.9484356,36.951954 32.6583706,36.3208778 31.0721794,37.2364078 L12.3015306,48.0738165 C11.1139806,48.7591953 10.1449094,50.3593428 10.1484521,51.6270778 L10.3146681,110.253478 C10.3184744,111.522989 11.2933819,112.000547 12.4809319,111.315168 L88.2598169,67.5641003 C89.4488894,66.8774528 90.4179606,65.277559 90.4144178,64.0080478 L90.3266106,33.044204 Z" id="Fill-7" fill="#F2F2F2"></path>
                    <path d="M87.9500389,30.6676323 L87.8891389,9.1463335 C87.8855864,7.87682225 86.9104251,7.39926475 85.7213526,8.08591225 L34.4577626,37.6828048 C32.8703026,38.5993498 31.5815064,37.9654823 31.5766851,36.2711935 C31.5718639,34.5753823 30.2817989,33.944306 28.6956076,34.859836 L9.92495886,45.6972448 C8.73740886,46.3826235 7.76833761,47.982771 7.77188037,49.250506 L7.93809636,107.876906 C7.94190261,109.146417 8.91681011,109.623975 10.1043601,108.938596 L85.8832451,65.1875285 C87.0723176,64.500881 88.0413889,62.9009873 88.0378461,61.631476 L87.9500389,30.6676323 Z" id="Fill-9" fill="#F2F2F2" opacity="0.8"></path>
                    <path d="M90.3266106,33.044204 L90.2657106,11.5229053 C90.2621581,10.253394 89.2869969,9.7758365 88.0979244,10.462484 L36.8343344,40.0593765 C35.2468744,40.9759215 33.9580781,40.342054 33.9532569,38.6477653 C33.9484356,36.951954 32.6583706,36.3208778 31.0721794,37.2364078 L12.3015306,48.0738165 C11.1139806,48.7591953 10.1449094,50.3593428 10.1484521,51.6270778 L10.3146681,110.253478 C10.3184744,111.522989 11.2933819,112.000547 12.4809319,111.315168 L88.2598169,67.5641003 C89.4488894,66.8774528 90.4179606,65.277559 90.4144178,64.0080478 L90.3266106,33.044204 Z" id="Fill-11" fill="#F2F2F2"></path>
                    <g id="Group-276" transform="translate(12.966501, 5.799864)">
                        <g id="Group-49">
                            <g id="Group-15">
                                <mask id="mask-2" fill="white">
                                    <use xlink:href="#path-1"></use>
                                </mask>
                                <g id="Clip-14"></g>
                                <path d="M21.0059579,34.2927646 L2.23530913,45.1299196 C1.04775913,45.8155521 0.078687875,47.4156996 0.0822306388,48.6852109 L0.248446625,107.311611 C0.252252875,108.581122 1.22716038,109.05868 2.41471038,108.373301 L78.1935954,64.6222334 C79.3826679,63.9355859 80.3517391,62.3356921 80.3481964,61.0659271 L80.1994891,8.57926212 C80.1959366,7.30975087 79.2207754,6.83396962 78.0317029,7.52061712 L26.7683666,37.1175096 C25.1803991,38.0340546 23.8918566,37.4001871 23.8870354,35.7041221 C23.8822141,34.0100871 22.5921491,33.3769809 21.0059579,34.2927646 M15.7644979,45.1766096 C14.7746191,45.7483084 13.9684554,45.2887671 13.9651465,44.1494296 C13.9618579,43.0118684 14.7629466,41.6246171 15.7528254,41.0531721 C16.7442266,40.4807121 17.5503904,40.9399996 17.5536993,42.0775609 C17.5569879,43.2168984 16.7558991,44.6044034 15.7644979,45.1766096 M10.9008716,47.9846071 C9.91099288,48.5563059 9.10482913,48.0967646 9.10152022,46.9574271 C9.09823163,45.8198659 9.89932038,44.4326146 10.8891991,43.8611696 C11.8806004,43.2887096 12.6870179,43.7479971 12.690073,44.8855584 C12.6933616,46.0248959 11.8925266,47.4121471 10.9008716,47.9846071 M6.03724538,50.7926046 C5.04584413,51.3650646 4.24120288,50.9047621 4.23789545,49.7654246 C4.23485913,48.6278634 5.03417163,47.2416271 6.02557288,46.6691671 C7.01722788,46.0967071 7.82161538,46.5570096 7.8249243,47.6945709 C7.82821288,48.8339084 7.02890038,50.2201446 6.03724538,50.7926046 M12.5900854,64.0076509 C11.8026991,64.4623709 11.1624879,64.0954484 11.1599412,63.1908296 C11.1571591,62.2859571 11.7935641,61.1839209 12.5809504,60.7294546 L66.5076466,29.5945834 C67.2950329,29.1401171 67.9354979,29.5050096 67.9380429,30.4098821 C67.9405729,31.3145009 67.3044216,32.4185671 66.5170354,32.8730334 L12.5900854,64.0076509 M47.7101004,50.3452434 C46.9227141,50.7997096 46.2807266,50.4358321 46.2781816,49.5309596 C46.2756516,48.6263409 46.9135791,47.5232896 47.7009654,47.0688234 L66.5264241,36.1996959 C67.3138104,35.7452296 67.9542754,36.1101221 67.9568204,37.0147409 C67.9593504,37.9196134 67.3231991,39.0216496 66.5358129,39.4763696 L47.7101004,50.3452434 M12.6088629,70.6109871 C11.8214766,71.0654534 11.1810116,70.7005609 11.1784666,69.7956884 C11.1759366,68.8910696 11.8123416,67.7890334 12.5997279,67.3345671 L43.2745504,49.6240859 C44.0619366,49.1696196 44.7024016,49.5345121 44.7049467,50.4393846 C44.7074766,51.3440034 44.0713254,52.4460396 43.2839391,52.9007596 L12.6088629,70.6109871 M36.4446154,63.3514534 C35.6572291,63.8061734 35.0149879,63.4420421 35.0124428,62.5353934 C35.0099129,61.6307746 35.6478404,60.5277234 36.4352266,60.0732571 L65.8514491,43.0897696 C66.6403579,42.6342884 67.2808229,42.9991809 67.2833679,43.9037996 C67.2858979,44.8104484 66.6497466,45.9124846 65.8608379,46.3679659 L36.4446154,63.3514534 M12.6273866,77.1024196 C11.8400004,77.5568859 11.1995354,77.1919934 11.1969903,76.2853446 C11.1944604,75.3807259 11.8306116,74.2786896 12.6179979,73.8239696 L32.3346266,62.4407446 C33.1220129,61.9860246 33.7624779,62.3509171 33.7650229,63.2557896 C33.7675529,64.1624384 33.1314016,65.2644746 32.3440154,65.7189409 L12.6273866,77.1024196 M12.6443879,83.1173096 C11.8570016,83.5720296 11.2165366,83.2051071 11.2139916,82.3002346 C11.2114616,81.3956159 11.8476129,80.2935796 12.6349991,79.8388596 L66.5619491,48.7042421 C67.3493354,48.2497759 67.9898004,48.6146684 67.9923454,49.5192871 C67.9948754,50.4241596 67.3584704,51.5279721 66.5710841,51.9826921 L12.6443879,83.1173096 M47.7644029,69.5069209 C46.9770166,69.9616409 46.3350291,69.5957334 46.3324841,68.6908609 C46.3299541,67.7862421 46.9678816,66.6831909 47.7552679,66.2284709 L66.5807266,55.3595971 C67.3681129,54.9051309 68.0085779,55.2700234 68.0111229,56.1746421 C68.0136529,57.0795146 67.3775016,58.1833271 66.5901154,58.6380471 L47.7644029,69.5069209 M12.6631654,89.7726646 C11.8757791,90.2271309 11.2355679,89.8604621 11.2327691,88.9555896 C11.2302391,88.0509709 11.8666441,86.9489346 12.6540304,86.4942146 L43.3291066,68.7839871 C44.1162391,68.3295209 44.7567041,68.6944134 44.7592492,69.5990321 C44.7617791,70.5039046 44.1256279,71.6077171 43.3382416,72.0624371 L12.6631654,89.7726646" id="Fill-13" fill="#FFFFFF" mask="url(#mask-2)"></path>
                            </g>
                            <g id="Group-18">
                                <mask id="mask-4" fill="white">
                                    <use xlink:href="#path-3"></use>
                                </mask>
                                <g id="Clip-17"></g>
                                <path d="M6.02559825,46.6691671 C5.034197,47.2416271 4.2348845,48.6278634 4.23792083,49.7654246 C4.24122825,50.9047621 5.0458695,51.3650646 6.03727075,50.7926046 C7.02892575,50.2201446 7.82823825,48.8339084 7.82494967,47.6945709 C7.82164075,46.5570096 7.01725325,46.0967071 6.02559825,46.6691671" id="Fill-16" fill="#241DBA" mask="url(#mask-4)"></path>
                            </g>
                            <g id="Group-21">
                                <mask id="mask-6" fill="white">
                                    <use xlink:href="#path-5"></use>
                                </mask>
                                <g id="Clip-20"></g>
                                <path d="M10.8891737,43.8611696 C9.899295,44.4326146 9.09846,45.8198659 9.10149635,46.9574271 C9.10480375,48.0967646 9.9109675,48.5563059 10.9008463,47.9846071 C11.8925012,47.4121471 12.6933362,46.0248959 12.6900477,44.8855584 C12.6869925,43.7479971 11.8808287,43.2887096 10.8891737,43.8611696" id="Fill-19" fill="#241DBA" mask="url(#mask-6)"></path>
                            </g>
                            <g id="Group-24">
                                <mask id="mask-8" fill="white">
                                    <use xlink:href="#path-7"></use>
                                </mask>
                                <g id="Clip-23"></g>
                                <path d="M15.7527493,41.0531721 C14.7628705,41.6246171 13.9620355,43.0118684 13.9650718,44.1494296 C13.9683793,45.2887671 14.774543,45.7483084 15.7644218,45.1766096 C16.755823,44.6041496 17.5569118,43.2168984 17.5536232,42.0775609 C17.550568,40.9399996 16.7441505,40.4807121 15.7527493,41.0531721" id="Fill-22" fill="#241DBA" mask="url(#mask-8)"></path>
                            </g>
                            <g id="Group-27">
                                <mask id="mask-10" fill="white">
                                    <use xlink:href="#path-9"></use>
                                </mask>
                                <g id="Clip-26"></g>
                                <path d="M66.5076974,29.5946849 L12.5807474,60.7293024 C11.7936149,61.1840224 11.1572099,62.2860586 11.1597398,63.1906774 C11.1622849,64.0955499 11.8027499,64.4622186 12.5901361,64.0077524 L66.5170861,32.8731349 C67.3044724,32.4184149 67.9406236,31.3146024 67.9380937,30.4097299 C67.9355486,29.5051111 67.2950836,29.1402186 66.5076974,29.5946849" id="Fill-25" fill="#241DBA" mask="url(#mask-10)"></path>
                            </g>
                            <g id="Group-30">
                                <mask id="mask-12" fill="white">
                                    <use xlink:href="#path-11"></use>
                                </mask>
                                <g id="Clip-29"></g>
                                <path d="M66.561873,48.7042929 L12.634923,79.8389104 C11.8477905,80.2936304 11.2113855,81.3956666 11.2139154,82.3002854 C11.2164605,83.2051579 11.8569255,83.5718266 12.6443118,83.1173604 L66.5712617,51.9827429 C67.358648,51.5280229 67.9947992,50.4242104 67.9922693,49.5193379 C67.9897242,48.6147191 67.3492593,48.2495729 66.561873,48.7042929" id="Fill-28" fill="#241DBA" mask="url(#mask-12)"></path>
                            </g>
                            <g id="Group-33">
                                <mask id="mask-14" fill="white">
                                    <use xlink:href="#path-13"></use>
                                </mask>
                                <g id="Clip-32"></g>
                                <path d="M43.2746519,49.6241874 L12.5995756,67.3344149 C11.8121894,67.7891349 11.1760381,68.8909174 11.1785681,69.7957899 C11.1811131,70.7004086 11.8215781,71.0655549 12.6089644,70.6108349 L43.2840406,52.9006074 C44.0714269,52.4461411 44.7075781,51.3441049 44.7050482,50.4392324 C44.7025031,49.5346136 44.0620381,49.1697211 43.2746519,49.6241874" id="Fill-31" fill="#241DBA" mask="url(#mask-14)"></path>
                            </g>
                            <g id="Group-36">
                                <mask id="mask-16" fill="white">
                                    <use xlink:href="#path-15"></use>
                                </mask>
                                <g id="Clip-35"></g>
                                <path d="M66.5264495,36.199772 L47.7009907,47.0686458 C46.9136045,47.5233658 46.275677,48.6261633 46.278207,49.5310358 C46.280752,50.4356545 46.9227395,50.7997858 47.7101257,50.3453195 L66.5358382,39.476192 C67.3232245,39.0217258 67.9593757,37.9196895 67.9568458,37.014817 C67.9543008,36.1099445 67.3138358,35.745052 66.5264495,36.199772" id="Fill-34" fill="#241DBA" mask="url(#mask-16)"></path>
                            </g>
                            <g id="Group-39">
                                <mask id="mask-18" fill="white">
                                    <use xlink:href="#path-17"></use>
                                </mask>
                                <g id="Clip-38"></g>
                                <path d="M43.3289797,68.7840379 L12.6539035,86.4942654 C11.8665172,86.9489854 11.230366,88.0510216 11.2328959,88.9556404 C11.235441,89.8602591 11.875906,90.2271816 12.6632922,89.7727154 L43.3383685,72.0624879 C44.1257547,71.6077679 44.761906,70.5039554 44.7593761,69.5990829 C44.756831,68.6944641 44.116366,68.3293179 43.3289797,68.7840379" id="Fill-37" fill="#241DBA" mask="url(#mask-18)"></path>
                            </g>
                            <g id="Group-42">
                                <mask id="mask-20" fill="white">
                                    <use xlink:href="#path-19"></use>
                                </mask>
                                <g id="Clip-41"></g>
                                <path d="M66.580752,55.3596225 L47.7552932,66.2284962 C46.967907,66.6832162 46.3299795,67.7862675 46.3325095,68.6908862 C46.3350545,69.595505 46.977042,69.9614125 47.7644282,69.5069462 L66.5901407,58.6380725 C67.377527,58.1833525 68.0136782,57.07954 68.0111483,56.1746675 C68.0086033,55.2700487 67.3681383,54.9051562 66.580752,55.3596225" id="Fill-40" fill="#241DBA" mask="url(#mask-20)"></path>
                            </g>
                            <g id="Group-45">
                                <mask id="mask-22" fill="white">
                                    <use xlink:href="#path-21"></use>
                                </mask>
                                <g id="Clip-44"></g>
                                <path d="M32.334652,62.4406685 L12.6180232,73.8241472 C11.830637,74.2786135 11.1944857,75.3806497 11.1970157,76.2855222 C11.1995607,77.1919172 11.8400257,77.5570635 12.6271582,77.1023435 L32.3440407,65.7188647 C33.131427,65.2643985 33.7675782,64.1623622 33.7650483,63.2557135 C33.7625032,62.3510947 33.1220382,61.9862022 32.334652,62.4406685" id="Fill-43" fill="#241DBA" mask="url(#mask-22)"></path>
                            </g>
                            <g id="Group-48">
                                <mask id="mask-24" fill="white">
                                    <use xlink:href="#path-23"></use>
                                </mask>
                                <g id="Clip-47"></g>
                                <path d="M65.8514238,43.0897442 L36.4352013,60.0732317 C35.647815,60.527698 35.0098875,61.6307492 35.0124175,62.5356217 C35.0149625,63.4420167 35.6572038,63.806148 36.44459,63.351428 L65.8608125,46.3679405 C66.6497212,45.9124592 67.2858725,44.810423 67.2833426,43.9037743 C67.2807975,42.9991555 66.6405863,42.634263 65.8514238,43.0897442" id="Fill-46" fill="#241DBA" mask="url(#mask-24)"></path>
                            </g>
                        </g>
                        <g id="Group-46" transform="translate(5.800000, 11.600000)">
                            <g id="Group-3" transform="translate(0.000000, 0.037584)">
                                <mask id="mask-26" fill="white">
                                    <use xlink:href="#path-25"></use>
                                </mask>
                                <g id="Clip-2"></g>
                                <path d="M68.1594296,1.5447024 L2.55561804,39.4211529 C1.26719154,40.1648463 0.22681944,41.9686434 0.231034798,43.4489832 L0.36658494,91.2783816 C0.37081314,92.7587214 1.41799734,93.3574815 2.70642384,92.6135532 L68.3102354,54.7371027 C69.6000713,53.9924697 70.6404434,52.1886726 70.6362281,50.7083328 L70.5006779,2.8789344 C70.4964497,1.3985946 69.4492655,0.8000694 68.1594296,1.5447024 M54.7367738,23.1207372 L54.7135187,14.9022909 L66.2421758,8.2461645 L66.2654309,16.4648457 L54.7367738,23.1207372 M42.1928789,30.3629391 L42.1693889,22.1444928 L53.698046,15.4883664 L53.7213011,23.7070476 L42.1928789,30.3629391 M29.6487491,37.6053759 L29.625494,29.3866947 L41.1541511,22.7308032 L41.1774062,30.9492495 L29.6487491,37.6053759 M5.39062614,79.3207971 L5.28891444,43.4374731 L28.4256248,30.0794148 L28.5273365,65.9627388 L5.39062614,79.3207971 M54.7628477,32.3508978 L54.7395926,24.1324515 L66.2682497,17.4763251 L66.2915048,25.6950063 L54.7628477,32.3508978 M42.2189528,39.5933346 L42.1956977,31.3746534 L53.7241199,24.718527 L53.7476099,32.9372082 L42.2189528,39.5933346 M29.674823,46.8355365 L29.6515679,38.6168553 L41.180225,31.9609638 L41.2034801,40.1794101 L29.674823,46.8355365 M54.7891565,41.5794141 L54.7656665,33.3609678 L66.2943236,26.7048414 L66.3178136,34.9232877 L54.7891565,41.5794141 M42.2450267,48.821616 L42.2217716,40.6031697 L53.7504287,33.9470433 L53.7736838,42.1657245 L42.2450267,48.821616 M29.7011318,56.0640528 L29.6778767,47.8453716 L41.2065338,41.1892452 L41.2297889,49.4079264 L29.7011318,56.0640528 M54.8152304,50.8095747 L54.7919753,42.5911284 L66.3206324,35.935002 L66.3438875,44.1534483 L54.8152304,50.8095747 M42.2713355,58.0517766 L42.2480804,49.8333303 L53.7765026,43.1772039 L53.7997577,51.3958851 L42.2713355,58.0517766 M29.7272057,65.2942134 L29.7039506,57.0755322 L41.2326077,50.4194058 L41.2558628,58.638087 L29.7272057,65.2942134 M5.40824364,85.5350766 L5.39438454,80.601237 L28.5310949,67.2431787 L28.544954,72.1770183 L5.40824364,85.5350766" id="Fill-1" fill="#FFFFFF" mask="url(#mask-26)"></path>
                            </g>
                            <g id="Group-6" transform="translate(0.000000, 0.037584)">
                                <mask id="mask-28" fill="white">
                                    <use xlink:href="#path-27"></use>
                                </mask>
                                <g id="Clip-5"></g>
                                <polygon id="Fill-4" fill="#241DBA" mask="url(#mask-28)" points="41.1541042 22.7306857 29.6254471 29.3868122 29.6487022 37.6052585 41.1773593 30.9493669"></polygon>
                            </g>
                            <g id="Group-9" transform="translate(0.000000, 0.037584)">
                                <mask id="mask-30" fill="white">
                                    <use xlink:href="#path-29"></use>
                                </mask>
                                <g id="Clip-8"></g>
                                <polygon id="Fill-7" fill="#241DBA" mask="url(#mask-30)" points="28.4256953 30.0794383 5.28898491 43.4374966 5.39069661 79.3208206 28.527407 65.9627623"></polygon>
                            </g>
                            <g id="Group-12" transform="translate(0.000000, 0.037584)">
                                <mask id="mask-32" fill="white">
                                    <use xlink:href="#path-31"></use>
                                </mask>
                                <g id="Clip-11"></g>
                                <polygon id="Fill-10" fill="#241DBA" mask="url(#mask-32)" points="28.531048 67.2431552 5.39433756 80.6012135 5.40819666 85.5350531 28.545142 72.1769948"></polygon>
                            </g>
                            <g id="Group-15" transform="translate(0.000000, 0.037584)">
                                <mask id="mask-34" fill="white">
                                    <use xlink:href="#path-33"></use>
                                </mask>
                                <g id="Clip-14"></g>
                                <polygon id="Fill-13" fill="#241DBA" mask="url(#mask-34)" points="53.698046 15.4884604 42.1693889 22.1445868 42.1928789 30.3630331 53.7213011 23.7071416"></polygon>
                            </g>
                            <g id="Group-18" transform="translate(0.000000, 0.037584)">
                                <mask id="mask-36" fill="white">
                                    <use xlink:href="#path-35"></use>
                                </mask>
                                <g id="Clip-17"></g>
                                <polygon id="Fill-16" fill="#241DBA" mask="url(#mask-36)" points="66.2420584 8.24614101 54.7134013 14.9022674 54.7366564 23.1207137 66.2653135 16.4648222"></polygon>
                            </g>
                            <g id="Group-21" transform="translate(0.000000, 0.037584)">
                                <mask id="mask-38" fill="white">
                                    <use xlink:href="#path-37"></use>
                                </mask>
                                <g id="Clip-20"></g>
                                <polygon id="Fill-19" fill="#241DBA" mask="url(#mask-38)" points="41.180272 31.9608698 29.6516149 38.6169962 29.67487 46.8354425 41.2035271 40.179551"></polygon>
                            </g>
                            <g id="Group-24" transform="translate(0.000000, 0.037584)">
                                <mask id="mask-40" fill="white">
                                    <use xlink:href="#path-39"></use>
                                </mask>
                                <g id="Clip-23"></g>
                                <polygon id="Fill-22" fill="#241DBA" mask="url(#mask-40)" points="53.7242139 24.718621 42.1955568 31.3747474 42.2190468 39.5931937 53.747469 32.9373022"></polygon>
                            </g>
                            <g id="Group-27" transform="translate(0.000000, 0.037584)">
                                <mask id="mask-42" fill="white">
                                    <use xlink:href="#path-41"></use>
                                </mask>
                                <g id="Clip-26"></g>
                                <polygon id="Fill-25" fill="#241DBA" mask="url(#mask-42)" points="66.2682262 17.4763251 54.7395692 24.1324515 54.7628243 32.3508978 66.2914813 25.6950063"></polygon>
                            </g>
                            <g id="Group-30" transform="translate(0.000000, 0.037584)">
                                <mask id="mask-44" fill="white">
                                    <use xlink:href="#path-43"></use>
                                </mask>
                                <g id="Clip-29"></g>
                                <polygon id="Fill-28" fill="#241DBA" mask="url(#mask-44)" points="41.2064399 41.1893392 29.6777828 47.8454656 29.7010379 56.0639119 41.229695 49.4080204"></polygon>
                            </g>
                            <g id="Group-33" transform="translate(0.000000, 0.037584)">
                                <mask id="mask-46" fill="white">
                                    <use xlink:href="#path-45"></use>
                                </mask>
                                <g id="Clip-32"></g>
                                <polygon id="Fill-31" fill="#241DBA" mask="url(#mask-46)" points="53.7503818 33.9470903 42.2217247 40.6032167 42.2452147 48.821663 53.7736369 42.1657715"></polygon>
                            </g>
                            <g id="Group-36" transform="translate(0.000000, 0.037584)">
                                <mask id="mask-48" fill="white">
                                    <use xlink:href="#path-47"></use>
                                </mask>
                                <g id="Clip-35"></g>
                                <polygon id="Fill-34" fill="#241DBA" mask="url(#mask-48)" points="66.2943941 26.7047944 54.765737 33.3609208 54.7889921 41.5793671 66.3176492 34.9234756"></polygon>
                            </g>
                            <g id="Group-39" transform="translate(0.000000, 0.037584)">
                                <mask id="mask-50" fill="white">
                                    <use xlink:href="#path-49"></use>
                                </mask>
                                <g id="Clip-38"></g>
                                <polygon id="Fill-37" fill="#241DBA" mask="url(#mask-50)" points="41.2325842 50.4195232 29.7039271 57.0756496 29.7271822 65.2940959 41.2558393 58.6382044"></polygon>
                            </g>
                            <g id="Group-42" transform="translate(0.000000, 0.037584)">
                                <mask id="mask-52" fill="white">
                                    <use xlink:href="#path-51"></use>
                                </mask>
                                <g id="Clip-41"></g>
                                <polygon id="Fill-40" fill="#241DBA" mask="url(#mask-52)" points="53.7765261 43.1772744 42.247869 49.8334008 42.271359 58.0518471 53.7997812 51.3959556"></polygon>
                            </g>
                            <g id="Group-45" transform="translate(0.000000, 0.037584)">
                                <mask id="mask-54" fill="white">
                                    <use xlink:href="#path-53"></use>
                                </mask>
                                <g id="Clip-44"></g>
                                <polygon id="Fill-43" fill="#241DBA" mask="url(#mask-54)" points="66.320562 35.9349785 54.7919049 42.5911049 54.81516 50.8095512 66.3438171 44.1536597"></polygon>
                            </g>
                        </g>
                    </g>
                </g>
                <polygon id="Path-32" fill="url(#linearGradient-55)" points="132.086398 16.8097373 206.648804 71.3002032 212.876651 153.503615 141.6099 194.838729 52.2822306 117.741586 52.2822306 56.5400836 75.4551954 43.8958538 76.5021738 48.065099"></polygon>
                <g id="Group-254" transform="translate(108.750000, 59.450000)">
                    <g id="iMac_2" fill-rule="nonzero">
                        <path d="M72.732,128.1945 L99.8064,141.0096 C100.662407,141.4129 101.224575,142.257186 101.266548,143.20251 C101.308522,144.147833 100.823394,145.038621 100.0065,145.5162 L71.6271,162.1245 C68.1154653,164.17999 63.7179222,163.950881 60.4389,161.5416 L39.3936,146.16 C38.9204051,145.813862 38.6533381,145.252698 38.6831402,144.667175 C38.7129422,144.081652 39.035606,143.550505 39.5415,143.2542 L64.6236,128.5773 C67.0975879,127.11934 70.1316603,126.9761 72.732,128.1945 Z" id="Path" fill="url(#linearGradient-56)"></path>
                        <path d="M66.2418,91.7502 C65.8976835,91.9603697 65.6412047,92.287921 65.5197,92.6724 C65.4831345,92.7476863 65.4539966,92.8263585 65.4327,92.9073 L64.4931,96.3873 L38.8281,111.2991 L37.0272,110.2638 C36.3790204,109.79599 35.531511,109.706605 34.8,110.0289 L38.4018,107.9235 L66.2418,91.7502 Z" id="Path" fill="url(#linearGradient-57)"></path>
                        <path d="M34.8,110.0376 L34.8,110.0376 C34.7556632,110.05737 34.7145931,110.083773 34.6782,110.1159 L34.8,110.0376 Z" id="Path" fill="url(#linearGradient-58)"></path>
                        <path d="M66.2418,91.7502 C65.8976835,91.9603697 65.6412047,92.287921 65.5197,92.6724 C65.4831345,92.7476863 65.4539966,92.8263585 65.4327,92.9073 L64.4931,96.3873 L38.8281,111.2991 L37.0272,110.2638 C36.3790204,109.79599 35.531511,109.706605 34.8,110.0289 L38.4018,107.9235 L66.2418,91.7502 Z" id="Path" fill="url(#linearGradient-57)"></path>
                        <path d="M64.3278,88.4442 C65.4066,87.8178 66.9378,87.9222 68.5125,88.8531 L70.3134,89.8884 L38.8455,108.1584 L37.0446,107.1144 C35.4351,106.1835 33.9387,106.0791 32.8599,106.7055 L64.3278,88.4442 Z" id="Path" fill="url(#linearGradient-59)"></path>
                        <polygon id="Path" fill="#E6E6E6" points="70.3047 89.8884 70.296 93.0117 64.5018 96.3873 38.8281 111.2991 38.8455 108.1758 65.5197 92.6724"></polygon>
                        <path d="M94.3081448,141.0618 L94.3081448,144.159 C94.3177734,145.076282 93.8322645,145.927585 93.0378,146.3862 L64.6584,162.9858 C61.1484746,165.043822 56.7509957,164.818135 53.4702,162.4116 L30.2847,145.4205 C28.2419571,144.132171 26.623281,142.27145 25.6302,140.07 C24.5588222,138.099173 24.2022569,135.818384 24.621,133.6146 L31.32,108.8805 C31.5185179,107.970027 32.0855029,107.182548 32.886,106.7055 L33.1122,106.5924 L33.3471,106.5054 C33.4885909,106.457331 33.6342048,106.422384 33.7821,106.401 C33.856925,106.387831 33.933475,106.387831 34.0083,106.401 C34.1299354,106.392045 34.2520646,106.392045 34.3737,106.401 C35.2992977,106.431551 36.2001046,106.707798 36.9837,107.2014 L38.3496,107.9844 L38.7846,108.2367 L38.7846,111.36 L36.9837,110.3247 C36.3355204,109.85689 35.488011,109.767505 34.7565,110.0898 C34.7121632,110.10957 34.6710931,110.135973 34.6347,110.1681 C34.5842615,110.197162 34.5375223,110.232216 34.4955,110.2725 C34.4623026,110.300316 34.4330353,110.33251 34.4085,110.3682 C34.358581,110.408136 34.3146353,110.455011 34.278,110.5074 C34.2492333,110.534855 34.2256557,110.567274 34.2084,110.6031 C34.1547685,110.672183 34.1108598,110.748291 34.0779,110.8293 L34.0779,110.8815 C34.0265045,111.003304 33.9829163,111.128257 33.9474,111.2556 L27.2397,136.0245 C27.0083285,137.210957 27.1959006,138.440938 27.7704,139.5045 C28.3111319,140.685864 29.1849752,141.683678 30.2847,142.3755 L32.6511,144.1155 L53.4702,159.297 C56.7525891,161.699056 61.1473481,161.924603 64.6584,159.8712 L93.0378,143.2629 C93.828119,142.812917 94.3138381,141.971226 94.3081448,141.0618 Z" id="Path" fill="#EEEFF7"></path>
                        <path d="M27.2484,135.9636 L33.93,111.1947 C34.0367662,110.719763 34.3278022,110.30668 34.7391,110.0463 L66.2157,91.7763 C65.7976602,92.0313029 65.502166,92.4462522 65.3979,92.9247 L58.6815,117.6936 C58.4527759,118.881061 58.6434317,120.111099 59.2209,121.1736 C59.7090047,122.333959 60.5331512,123.321723 61.5873,124.0098 L92.8116,138.7998 C93.6670266,139.205853 94.228135,140.051272 94.2700569,140.997251 C94.3119789,141.94323 93.8278545,142.83497 93.0117,143.3151 L64.6671,159.8712 C61.1560481,161.924603 56.7612891,161.699056 53.4789,159.297 L30.2934,142.3059 C29.1942169,141.615916 28.3227228,140.617329 27.7878,139.4349 C27.2123538,138.374868 27.0217542,137.148268 27.2484,135.9636 Z" id="Path" fill="#FFFFFF"></path>
                        <path d="M6.1509,61.0653 L110.49,0.87 C112.23,-0.1131 113.7612,-0.2088 114.84,0.4437 L117.5979,2.0445 C116.4756,1.392 114.9183,1.479 113.2044,2.4708 L8.9088,62.64 C5.26186459,65.0068565 2.97364873,68.9812965 2.7579,73.3236 L3.0015,158.4879 C3.0015,160.4367 3.6975,161.8026 4.8024,162.4464 L2.0532,160.8456 C0.9396,160.2018 0.261,158.8359 0.2523,156.8958 L0,71.7228 C0.228153336,67.3911208 2.514368,63.4298578 6.1509,61.0653 Z" id="Path" fill="url(#linearGradient-60)"></path>
                        <path d="M2.958,145.6554 L3.0015,158.4966 C3.0015,162.4029 5.7942,163.9863 9.1959,161.9766 L113.5002,101.79 C117.132226,99.425221 119.41744,95.4689241 119.6511,91.1412 L119.6076,78.3 L2.958,145.6554" id="Path" fill="#EEEFF7"></path>
                        <path d="M8.9001,62.64 C5.25953742,65.0128925 2.97336856,68.983777 2.7492,73.3236 L2.958,145.6554 L119.6076,78.3 L119.3988,5.9682 C119.3988,2.0532 116.6148,0.4698 113.2131,2.436 L8.9001,62.64" id="Path" fill="url(#linearGradient-61)"></path>
                        <polygon id="Path" fill="url(#linearGradient-62)" points="113.6742 9.6744 8.4912 70.4004 8.6739 134.8587 113.8569 74.1414"></polygon>
                        <path d="M34.8,110.0376 L34.8,110.0376 C34.7556632,110.05737 34.7145931,110.083773 34.6782,110.1159 L34.8,110.0376 Z" id="Path" fill="url(#linearGradient-58)"></path>
                        <path d="M113.2131,2.4447 L8.9001,62.64 C5.25953742,65.0128925 2.97336856,68.983777 2.7492,73.3236 L2.958,145.6554 L113.2131,2.4447 Z" id="Path" fill="url(#linearGradient-63)"></path>
                    </g>
                    <g id="Group-7" transform="translate(49.300000, 47.850000)">
                        <g id="Group-3" transform="translate(0.000000, 0.705113)">
                            <mask id="mask-65" fill="white">
                                <use xlink:href="#path-64"></use>
                            </mask>
                            <g id="Clip-2"></g>
                            <path d="M18.874505,6.83458225 C18.2175825,7.21419225 17.587775,8.00792225 17.287045,8.91504225 C16.8815525,10.1549372 17.255,11.1446347 18.13747,11.1150547 C18.74386,11.0904047 19.3194375,11.1569597 19.8642025,11.3048597 C20.2659975,11.4157847 20.6530025,11.5821722 21.0153575,11.7806047 C21.2446025,11.9112497 21.4664525,12.0640798 21.6710475,12.2267697 C22.0186125,12.5053147 22.5239375,12.4683397 23.0267975,12.1774697 C23.419965,11.9506897 23.82176,11.5649172 24.1508375,11.0571273 C24.8965,9.92076225 24.9951,8.58596475 24.371455,8.08680225 C24.0941425,7.86495225 23.794645,7.66775225 23.48652,7.49150475 C23.01324,7.21295975 22.4918925,6.99727225 21.94836,6.84937225 C21.2224175,6.65340475 20.4410125,6.56959475 19.6214,6.59917475 C19.37983,6.60533725 19.125935,6.69037975 18.874505,6.83458225" id="Fill-1" fill="#FFFFFF" mask="url(#mask-65)"></path>
                        </g>
                        <g id="Group-6" transform="translate(0.000000, 0.705113)">
                            <mask id="mask-67" fill="white">
                                <use xlink:href="#path-66"></use>
                            </mask>
                            <g id="Clip-5"></g>
                            <path d="M13.7471818,8.47799775 C5.90971425,13.0025052 -0.40315075,24.2379752 0.04671175,33.1070452 C0.43987925,40.9137002 6.10814675,44.1440827 13.0890267,40.5390202 C13.3416892,40.4083752 13.5931193,40.2715677 13.8420843,40.1273652 C21.4342843,35.7445952 27.5881568,25.0797727 27.5635805,16.3598352 L27.5635805,16.3327202 C27.5598093,15.2296327 26.7623818,14.7933277 25.7948693,15.3528827 L23.9214693,16.4337852 L20.3965193,18.4686427 C19.6077193,15.5636402 16.9331943,14.6269402 13.7693668,16.4535052 C10.0003818,18.6288677 6.94131675,23.9187577 6.95364175,28.2583902 C6.96596675,32.5893952 10.0447518,34.3444752 13.8137368,32.1678802 C16.9775643,30.3413152 19.6385318,26.3159702 20.4076118,22.5112427 L23.9017493,20.4936402 C23.0870668,26.5070077 18.8891718,33.1649727 13.8371543,36.0810677 C13.6707668,36.1772027 13.5056118,36.2684077 13.3379917,36.3559152 C8.00989425,39.1512252 3.69860925,36.5962527 3.53961675,30.5471427 C3.37076425,24.0050327 7.99017425,15.8865552 13.7114393,12.5464802 C14.6715568,11.9930877 15.4874718,10.6607552 15.5158193,9.54904025 C15.5355393,8.38679275 14.7381117,7.90611775 13.7471818,8.47799775 M13.8026443,28.1265127 C11.9699168,29.1852302 10.4773593,28.3261777 10.4711776,26.2272302 C10.4650343,24.1208877 11.9477318,21.5449627 13.7816918,20.4862452 C15.6144193,19.4275277 17.1143718,20.2816502 17.1205533,22.3892252 C17.1266968,24.4869402 15.6366043,27.0677952 13.8026443,28.1265127" id="Fill-4" fill="#FFFFFF" mask="url(#mask-67)"></path>
                        </g>
                    </g>
                </g>
                <text id="POS" font-family="Gilroy-ExtraBold, Gilroy" font-size="11.6" font-weight="600" line-spacing="13.05" letter-spacing="0.644444449" fill="#FFFFFF">
                    <tspan x="0" y="11">POS</tspan>
                </text>
                <text id="GOGUEST-DASHBOARD" font-family="Gilroy-ExtraBold, Gilroy" font-size="11.6" font-weight="600" line-spacing="13.05" letter-spacing="0.644444449" fill="#FFFFFF">
                    <tspan x="243.6" y="45.8">GOGUEST</tspan>
                    <tspan x="243.6" y="58.85">DASHBOARD</tspan>
                </text>
                <path id="Path-31-Copy-11" d="M297.870344,66.45 L298.067179,66.5458695 L314.082685,86.997984 C315.488659,86.0719299 317.460089,86.445829 318.595878,87.8963029 C319.787613,89.4182238 319.608071,91.5490701 318.194858,92.6556814 C316.781646,93.7622927 314.669919,93.4256179 313.478184,91.9036971 C312.342369,90.4531907 312.452161,88.4495643 313.688426,87.306695 L297.748,66.95 L226.2,66.95 L226.2,66.45 L297.870344,66.45 Z" fill="#FFFFFF" fill-rule="nonzero"></path>
                <path id="Path-31-Copy-10" d="M24.6051367,14.25 L24.801971,14.3458695 L40.8177916,34.7977768 C42.2237452,33.8719857 44.1949659,34.2459372 45.3306702,35.6963029 C46.5224055,37.2182238 46.342863,39.3490701 44.9296508,40.4556814 C43.5164386,41.5622927 41.4047115,41.2256179 40.2129762,39.7036971 C39.0771618,38.2531907 39.1869531,36.2495643 40.4232187,35.106695 L24.483,14.75 L9.53015444e-13,14.75 L9.53015444e-13,14.25 L24.6051367,14.25 Z" fill="#FFFFFF" fill-rule="nonzero"></path>
                <g id="Group-256" transform="translate(89.900000, 102.950000)">
                    <circle id="Oval" fill="#FFFFFF" cx="3.9875" cy="3.9875" r="1.0875"></circle>
                    <circle id="Oval" fill="url(#radialGradient-68)" cx="3.9875" cy="3.9875" r="3.9875"></circle>
                </g>
                <g id="Group-256-Copy-5" transform="translate(91.350000, 130.500000)">
                    <circle id="Oval" fill="#FFFFFF" cx="3.9875" cy="3.9875" r="1.0875"></circle>
                    <circle id="Oval" fill="url(#radialGradient-68)" cx="3.9875" cy="3.9875" r="3.9875"></circle>
                </g>
                <g id="Group-256-Copy" transform="translate(116.000000, 100.050000)">
                    <circle id="Oval" fill="#FFFFFF" cx="3.9875" cy="3.9875" r="1.0875"></circle>
                    <circle id="Oval" fill="url(#radialGradient-68)" cx="3.9875" cy="3.9875" r="3.9875"></circle>
                </g>
                <g id="Group-256-Copy-2" transform="translate(150.800000, 84.100000)">
                    <circle id="Oval" fill="#FFFFFF" cx="3.9875" cy="3.9875" r="1.0875"></circle>
                    <circle id="Oval" fill="url(#radialGradient-68)" cx="3.9875" cy="3.9875" r="3.9875"></circle>
                </g>
                <g id="Group-256-Copy-3" transform="translate(169.650000, 59.450000)">
                    <circle id="Oval" fill="#FFFFFF" cx="3.9875" cy="3.9875" r="1.0875"></circle>
                    <circle id="Oval" fill="url(#radialGradient-68)" cx="3.9875" cy="3.9875" r="3.9875"></circle>
                </g>
                <g id="Group-256-Copy-6" transform="translate(142.100000, 47.850000)">
                    <circle id="Oval" fill="#FFFFFF" cx="3.9875" cy="3.9875" r="1.0875"></circle>
                    <circle id="Oval" fill="url(#radialGradient-68)" cx="3.9875" cy="3.9875" r="3.9875"></circle>
                </g>
                <g id="Group-256-Copy-4" transform="translate(127.600000, 78.300000)">
                    <circle id="Oval" fill="#FFFFFF" cx="3.9875" cy="3.9875" r="1.0875"></circle>
                    <circle id="Oval" fill="url(#radialGradient-68)" cx="3.9875" cy="3.9875" r="3.9875"></circle>
                </g>
            </g>
        </g>
    </g>
</svg>