<?xml version="1.0" encoding="UTF-8"?>
<svg width="30px" height="30px" viewBox="0 0 30 30" version="1.1" xmlns="http://www.w3.org/2000/svg" xmlns:xlink="http://www.w3.org/1999/xlink">
    <!-- Generator: Sketch 63.1 (92452) - https://sketch.com -->
    <title>icon_hotel</title>
    <desc>Created with Sketch.</desc>
    <g id="Inicio" stroke="none" stroke-width="1" fill="none" fill-rule="evenodd">
        <g id="inicio" transform="translate(-750.000000, -4657.000000)" fill="#241DBA">
            <path d="M777,4678 L774,4678 L774,4675 L777,4675 L777,4678 Z M777,4684 L774,4684 L774,4681 L777,4681 L777,4684 Z M769.5,4666 L766.5,4666 L766.5,4663 L769.5,4663 L769.5,4666 Z M769.5,4672 L766.5,4672 L766.5,4669 L769.5,4669 L769.5,4672 Z M769.5,4678 L766.5,4678 L766.5,4675 L769.5,4675 L769.5,4678 Z M763.5,4666 L760.5,4666 L760.5,4663 L763.5,4663 L763.5,4666 Z M763.5,4672 L760.5,4672 L760.5,4669 L763.5,4669 L763.5,4672 Z M763.5,4678 L760.5,4678 L760.5,4675 L763.5,4675 L763.5,4678 Z M756,4678 L753,4678 L753,4675 L756,4675 L756,4678 Z M756,4684 L753,4684 L753,4681 L756,4681 L756,4684 Z M778.5,4672 L772.5,4672 L772.5,4661.5 C772.5,4660.6735 771.8295,4660 771,4660 L769.5,4660 L769.5,4658.5 C769.5,4657.6735 768.8295,4657 768,4657 L762,4657 C761.172,4657 760.5,4657.6735 760.5,4658.5 L760.5,4660 L759,4660 C758.172,4660 757.5,4660.6735 757.5,4661.5 L757.5,4672 L751.5,4672 C750.672,4672 750,4672.6735 750,4673.5 L750,4685.5 C750,4686.3295 750.672,4687 751.5,4687 L762,4687 L762,4681 L768,4681 L768,4687 L778.5,4687 C779.3295,4687 780,4686.3295 780,4685.5 L780,4673.5 C780,4672.6735 779.3295,4672 778.5,4672 L778.5,4672 Z" id="icon_hotel"></path>
        </g>
    </g>
</svg>