<?xml version="1.0" encoding="UTF-8"?>
<svg width="26px" height="28px" viewBox="0 0 26 28" version="1.1" xmlns="http://www.w3.org/2000/svg" xmlns:xlink="http://www.w3.org/1999/xlink">
    <!-- Generator: Sketch 63.1 (92452) - https://sketch.com -->
    <title>Icon_eventos_gastronomicos</title>
    <desc>Created with Sketch.</desc>
    <g id="Inicio" stroke="none" stroke-width="1" fill="none" fill-rule="evenodd">
        <g id="inicio" transform="translate(-757.000000, -4905.000000)" fill="#241DBA">
            <path d="M776.036588,4908.6525 C774.788588,4906.28016 772.700941,4905 770,4905 C767.299059,4905 765.211412,4906.28016 763.964941,4908.65095 C763.321059,4908.33091 762.539529,4908.10719 761.588235,4908.10719 C759.229882,4908.10719 757,4910.37233 757,4912.76797 C757,4915.65766 758.953059,4918.09369 761.588235,4918.78659 L761.588235,4933 L764.647059,4933 L764.647059,4925.69672 C764.647059,4925.42058 764.872729,4925.19672 765.147845,4925.19672 L765.675684,4925.19672 C765.952261,4925.19672 766.176471,4925.42185 766.176471,4925.69672 L766.176471,4933 L769.235294,4933 L769.235294,4922.58669 C769.235294,4922.31212 769.460964,4922.08954 769.736081,4922.08954 L770.263919,4922.08954 C770.540496,4922.08954 770.764706,4922.31742 770.764706,4922.58669 L770.764706,4933 L773.823529,4933 L773.823529,4925.69672 C773.823529,4925.42058 774.049199,4925.19672 774.324316,4925.19672 L774.852155,4925.19672 C775.128731,4925.19672 775.352941,4925.42185 775.352941,4925.69672 L775.352941,4933 L778.411765,4933 L778.411765,4918.78659 C781.046941,4918.09369 783,4915.65766 783,4912.76797 C783,4910.37233 780.770118,4908.10719 778.411765,4908.10719 C777.549176,4908.10719 776.766118,4908.2843 776.036588,4908.6525 Z" id="Icon_eventos_gastronomicos"></path>
        </g>
    </g>
</svg>