<?xml version="1.0" encoding="UTF-8"?>
<svg width="30px" height="30px" viewBox="0 0 30 30" version="1.1" xmlns="http://www.w3.org/2000/svg" xmlns:xlink="http://www.w3.org/1999/xlink">
    <!-- Generator: Sketch 63.1 (92452) - https://sketch.com -->
    <title>Icon_recintos_deportivos</title>
    <desc>Created with Sketch.</desc>
    <g id="Inicio" stroke="none" stroke-width="1" fill="none" fill-rule="evenodd">
        <g id="inicio" transform="translate(-757.000000, -4983.000000)" fill="#241DBA">
            <g id="Icon_recintos_deportivos" transform="translate(757.000000, 4983.000000)">
                <path d="M19.9854649,19.0564465 C20.6807701,22.9616545 22.8035518,25.5600984 24.2227038,26.9137028 C22.0654343,28.5920133 19.4443637,29.6991108 16.5854464,30 L16.5854464,19.2287234 C17.7933112,19.2001429 18.9290292,19.1413941 19.9854649,19.0564465 Z" id="Path"></path>
                <path d="M10.0137423,19.0564465 C11.0705744,19.1413941 12.205896,19.2001429 13.4141572,19.2287234 L13.4141572,30 C10.5552399,29.6991108 7.93416932,28.5920133 5.7768998,26.9137028 C7.19605174,25.5600984 9.31883349,22.9612575 10.0137423,19.0564465 Z" id="Path"></path>
                <path d="M0.0856248101,17.1010638 C1.54441787,17.6270245 3.76987011,18.2609559 6.84720993,18.7035567 C6.23951162,21.7799301 4.51869079,23.7670689 3.4888146,24.7149889 C1.7017931,22.5948714 0.487585724,19.9769768 0.0856248101,17.1010638 Z" id="Path"></path>
                <path d="M29.9139788,17.1010638 C29.5120179,19.9769768 28.2982069,22.5944744 26.5111854,24.7145919 L26.2274142,24.4432291 C25.1880077,23.4108797 23.7068522,21.5102448 23.1519973,18.7035567 C26.2293371,18.2609559 28.4551857,17.6270245 29.9139788,17.1010638 Z" id="Path"></path>
                <path d="M13.4141572,-1.24662185e-13 L13.4141572,16.0523182 C12.2744751,16.0237377 11.2097147,15.9657828 10.2194796,15.8848047 C9.95110929,10.0265957 6.15388681,5.54541124 4.68399424,4.02310257 C7.01925237,1.82081613 10.0525905,0.353683709 13.4141572,-1.24662185e-13 Z" id="Path"></path>
                <path d="M16.5854464,2.23630638e-13 C19.947013,0.353683709 22.9803512,1.82081613 25.3156094,4.02310257 L24.9267279,4.43831214 C23.2675226,6.26219938 20.0254503,10.4912274 19.7797275,15.8887742 C18.7910781,15.9685614 17.7259213,16.0249285 16.5854464,16.0527151 L16.5854464,2.23630638e-13 Z" id="Path"></path>
                <path d="M27.3979572,6.44649095 C28.8361368,8.53048587 29.763739,10.9923785 30,13.6511591 L29.6353642,13.811722 C28.5631573,14.2638008 26.4069598,15.0127482 22.9851082,15.5243728 C23.385087,11.2444427 26.1480728,7.80208003 27.3979572,6.44649095 Z" id="Path"></path>
                <path d="M2.60362848,6.44371229 L2.87257202,6.74046387 C4.21115677,8.25140609 6.64382457,11.50434 7.01528826,15.5152429 C3.18080313,14.9349 0.909367196,14.0572404 4.04438388e-14,13.6456018 C0.237450283,10.9876151 1.16505239,8.52691331 2.60362848,6.44371229 Z" id="Path"></path>
            </g>
        </g>
    </g>
</svg>