<?xml version="1.0" encoding="UTF-8"?>
<svg width="34px" height="35px" viewBox="0 0 34 35" version="1.1" xmlns="http://www.w3.org/2000/svg" xmlns:xlink="http://www.w3.org/1999/xlink">
    <!-- Generator: Sketch 63.1 (92452) - https://sketch.com -->
    <title>icon_parques</title>
    <desc>Created with Sketch.</desc>
    <defs>
        <polygon id="path-1" points="0.05586875 0.8085 5.2614625 0.8085 5.2614625 6.013875 0.05586875 6.013875"></polygon>
        <polygon id="path-3" points="0.111125 0.86393125 5.3165 0.86393125 5.3165 6.069525 0.111125 6.069525"></polygon>
    </defs>
    <g id="Inicio" stroke="none" stroke-width="1" fill="none" fill-rule="evenodd">
        <g id="inicio" transform="translate(-750.000000, -4738.000000)">
            <g id="icon_parques" transform="translate(750.000000, 4738.000000)">
                <path d="M16.2837063,16.8216125 L16.2837063,8.4137375 C13.9877063,8.4837375 11.9060813,9.4059875 10.3407063,10.8786125 L16.2837063,16.8216125 Z" id="Fill-1" fill="#241DBA"></path>
                <path d="M16.2837063,26.5890625 L16.2837063,18.1811875 L10.3407063,24.1241875 C11.9060813,25.5959375 13.9877063,26.5181875 16.2837063,26.5890625" id="Fill-3" fill="#241DBA"></path>
                <path d="M9.94266875,11.27665 C8.47004375,12.842025 7.54779375,14.92365 7.47779375,17.21965 L15.8856687,17.21965 L9.94266875,11.27665 Z" id="Fill-5" fill="#241DBA"></path>
                <path d="M16.8467688,8.4133875 L16.8467688,16.8212625 L22.7897688,10.8782625 C21.2243938,9.4065125 19.1427688,8.4842625 16.8467688,8.4133875" id="Fill-7" fill="#241DBA"></path>
                <path d="M7.47744375,17.7827125 C7.54831875,20.0787125 8.47056875,22.1603375 9.94231875,23.7257125 L15.8853187,17.7827125 L7.47744375,17.7827125 Z" id="Fill-9" fill="#241DBA"></path>
                <path d="M16.8467688,26.5890625 C19.1427688,26.5181875 21.2243938,25.5959375 22.7897688,24.1241875 L16.8467688,18.1811875 L16.8467688,26.5890625 Z" id="Fill-11" fill="#241DBA"></path>
                <path d="M17.2448062,17.2197375 L25.6526812,17.2197375 C25.5826812,14.9237375 24.6604312,12.8421125 23.1878062,11.2767375 L17.2448062,17.2197375 Z" id="Fill-13" fill="#241DBA"></path>
                <path d="M23.1878938,23.7258 C24.6605188,22.160425 25.5827688,20.0788 25.6527688,17.7828 L17.2448938,17.7828 L23.1878938,23.7258 Z" id="Fill-15" fill="#241DBA"></path>
                <path d="M30.4454938,17.466575 C30.4454938,9.852325 24.2723688,3.6792 16.6581188,3.6792 C9.04386875,3.6792 2.87074375,9.852325 2.87074375,17.466575 C2.87074375,25.080825 9.04386875,31.25395 16.6581188,31.25395 C24.2723688,31.25395 30.4454938,25.080825 30.4454938,17.466575 Z" id="Stroke-17" stroke="#241DBA"></path>
                <path d="M25.7907563,17.466575 C25.7907563,12.423075 21.7018813,8.3342 16.6583813,8.3342 C11.6148813,8.3342 7.52600625,12.423075 7.52600625,17.466575 C7.52600625,22.510075 11.6148813,26.59895 16.6583813,26.59895 C21.7018813,26.59895 25.7907563,22.510075 25.7907563,17.466575 Z" id="Stroke-19" stroke="#241DBA" stroke-width="0.473"></path>
                <g id="Group-23" transform="translate(13.999781, 0.000000)">
                    <mask id="mask-2" fill="white">
                        <use xlink:href="#path-1"></use>
                    </mask>
                    <g id="Clip-22"></g>
                    <path d="M4.4989,5.2513125 C5.51565,4.2345625 5.51565,2.5869375 4.4989,1.5701875 C3.48215,0.5543125 1.834525,0.5543125 0.817775,1.5701875 C-0.1981,2.5869375 -0.1981,4.2345625 0.817775,5.2513125 C1.834525,6.2680625 3.48215,6.2680625 4.4989,5.2513125" id="Fill-21" fill="#241DBA" mask="url(#mask-2)"></path>
                </g>
                <line x1="16.5677313" y1="8.6321375" x2="16.5677313" y2="5.0131375" id="Stroke-24" stroke="#241DBA"></line>
                <circle id="Oval" fill="#241DBA" cx="16.4997813" cy="17.4330625" r="1.5"></circle>
                <path d="M26.5970688,10.1304875 C28.0346938,10.1304875 29.2001938,8.9649875 29.2001938,7.5273625 C29.2001938,6.0906125 28.0346938,4.9251125 26.5970688,4.9251125 C25.1594438,4.9251125 23.9939438,6.0906125 23.9939438,7.5273625 C23.9939438,8.9649875 25.1594438,10.1304875 26.5970688,10.1304875" id="Fill-26" fill="#241DBA"></path>
                <line x1="22.8411312" y1="11.155725" x2="25.4005062" y2="8.59635" id="Stroke-28" stroke="#241DBA"></line>
                <g id="Group-32" transform="translate(27.999781, 14.000000)">
                    <mask id="mask-4" fill="white">
                        <use xlink:href="#path-3"></use>
                    </mask>
                    <g id="Clip-31"></g>
                    <path d="M0.8736875,5.3069625 C1.8904375,6.3237125 3.5380625,6.3237125 4.5548125,5.3069625 C5.5706875,4.2902125 5.5706875,2.6425875 4.5548125,1.6258375 C3.5380625,0.6099625 1.8904375,0.6099625 0.8736875,1.6258375 C-0.1430625,2.6425875 -0.1430625,4.2902125 0.8736875,5.3069625" id="Fill-30" fill="#241DBA" mask="url(#mask-4)"></path>
                </g>
                <line x1="25.4926438" y1="17.3761" x2="29.1116438" y2="17.3761" id="Stroke-33" stroke="#241DBA"></line>
                <path d="M23.9942938,27.40535 C23.9942938,28.842975 25.1597938,30.008475 26.5974188,30.008475 C28.0341688,30.008475 29.1996688,28.842975 29.1996688,27.40535 C29.1996688,25.967725 28.0341688,24.802225 26.5974188,24.802225 C25.1597938,24.802225 23.9942938,25.967725 23.9942938,27.40535" id="Fill-35" fill="#241DBA"></path>
                <line x1="22.9690562" y1="23.6494125" x2="25.5284312" y2="26.2087875" id="Stroke-37" stroke="#241DBA"></line>
                <path d="M14.8178187,29.68175 C13.8010687,30.6985 13.8010687,32.346125 14.8178187,33.362875 C15.8345687,34.37875 17.4821937,34.37875 18.4989437,33.362875 C19.5148187,32.346125 19.5148187,30.6985 18.4989437,29.68175 C17.4821937,28.665 15.8345687,28.665 14.8178187,29.68175" id="Fill-39" fill="#241DBA"></path>
                <line x1="16.7486813" y1="26.300925" x2="16.7486813" y2="29.919925" id="Stroke-41" stroke="#241DBA"></line>
                <path d="M6.71943125,24.802575 C5.28180625,24.802575 4.11630625,25.968075 4.11630625,27.4057 C4.11630625,28.84245 5.28180625,30.00795 6.71943125,30.00795 C8.15705625,30.00795 9.32255625,28.84245 9.32255625,27.4057 C9.32255625,25.968075 8.15705625,24.802575 6.71943125,24.802575" id="Fill-43" fill="#241DBA"></path>
                <line x1="10.4753688" y1="23.7773375" x2="7.91599375" y2="26.3367125" id="Stroke-45" stroke="#241DBA"></line>
                <path d="M4.44303125,15.6261 C3.42628125,14.60935 1.77865625,14.60935 0.76190625,15.6261 C-0.25396875,16.64285 -0.25396875,18.290475 0.76190625,19.307225 C1.77865625,20.3231 3.42628125,20.3231 4.44303125,19.307225 C5.45978125,18.290475 5.45978125,16.64285 4.44303125,15.6261" id="Fill-47" fill="#241DBA"></path>
                <line x1="7.82385625" y1="17.55705" x2="4.20485625" y2="17.55705" id="Stroke-49" stroke="#241DBA"></line>
                <path d="M9.32220625,7.5277125 C9.32220625,6.0900875 8.15670625,4.9245875 6.71908125,4.9245875 C5.28233125,4.9245875 4.11683125,6.0900875 4.11683125,7.5277125 C4.11683125,8.9653375 5.28233125,10.1308375 6.71908125,10.1308375 C8.15670625,10.1308375 9.32220625,8.9653375 9.32220625,7.5277125" id="Fill-51" fill="#241DBA"></path>
                <line x1="10.3474438" y1="11.28365" x2="7.78806875" y2="8.724275" id="Stroke-53" stroke="#241DBA"></line>
            </g>
        </g>
    </g>
</svg>