<svg xmlns="http://www.w3.org/2000/svg" width="33.444" height="33.444" viewBox="0 0 33.444 33.444">
  <g id="Instagram_White" data-name="Instagram/White" transform="translate(0 0)">
    <rect id="Instagram_White_background" data-name="Instagram/White background" width="33.444" height="33.444" fill="rgba(0,0,0,0)"/>
    <g id="Instagram_White-2" data-name="Instagram/White">
      <path id="Instagram" d="M9.828,33.344a12.348,12.348,0,0,1-4.059-.778,8.182,8.182,0,0,1-2.962-1.928A8.186,8.186,0,0,1,.878,27.676,12.358,12.358,0,0,1,.1,23.617c-.081-1.8-.1-2.391-.1-6.894s.019-5.1.1-6.895A12.358,12.358,0,0,1,.878,5.769,8.184,8.184,0,0,1,2.807,2.807,8.184,8.184,0,0,1,5.769.878,12.358,12.358,0,0,1,9.828.1c1.8-.081,2.391-.1,6.895-.1s5.1.019,6.894.1a12.358,12.358,0,0,1,4.059.778,8.186,8.186,0,0,1,2.962,1.929,8.182,8.182,0,0,1,1.928,2.962,12.348,12.348,0,0,1,.778,4.059c.081,1.782.1,2.375.1,6.895s-.019,5.112-.1,6.894a12.338,12.338,0,0,1-.778,4.059,8.543,8.543,0,0,1-4.891,4.891,12.338,12.338,0,0,1-4.059.778c-1.782.081-2.375.1-6.894.1S11.61,33.425,9.828,33.344ZM9.965,3.11a9.266,9.266,0,0,0-3.105.576A5.182,5.182,0,0,0,4.937,4.937,5.182,5.182,0,0,0,3.686,6.86,9.266,9.266,0,0,0,3.11,9.965c-.08,1.761-.1,2.289-.1,6.757s.017,5,.1,6.757a9.266,9.266,0,0,0,.576,3.105,5.182,5.182,0,0,0,1.251,1.923A5.182,5.182,0,0,0,6.86,29.758a9.266,9.266,0,0,0,3.105.576c1.771.081,2.3.1,6.757.1s4.987-.017,6.757-.1a9.266,9.266,0,0,0,3.105-.576,5.54,5.54,0,0,0,3.174-3.174,9.266,9.266,0,0,0,.576-3.105c.081-1.77.1-2.3.1-6.757s-.017-4.987-.1-6.757a9.266,9.266,0,0,0-.576-3.105,5.182,5.182,0,0,0-1.251-1.923,5.182,5.182,0,0,0-1.923-1.251,9.266,9.266,0,0,0-3.105-.576c-1.761-.08-2.289-.1-6.757-.1S11.726,3.03,9.965,3.11Zm.685,19.684a8.588,8.588,0,1,1,6.072,2.515A8.53,8.53,0,0,1,10.65,22.794Zm.5-6.072a5.574,5.574,0,1,0,5.574-5.574A5.581,5.581,0,0,0,11.148,16.722ZM23.642,7.8A2.007,2.007,0,1,1,25.648,9.8,2.007,2.007,0,0,1,23.642,7.8Z" fill="#000230"/>
    </g>
  </g>
</svg>
