<svg xmlns="http://www.w3.org/2000/svg" width="35" height="35" viewBox="0 0 35 35">
  <path id="Combined-Shape" d="M17.5,35A17.5,17.5,0,0,1,5.125,5.125,17.5,17.5,0,0,1,29.875,29.875,17.389,17.389,0,0,1,17.5,35Zm3.194-17.659c1.315,0,2.01.931,2.01,2.694V26.41H26.67V19.578c0-3.358-1.707-5.363-4.567-5.363a3.963,3.963,0,0,0-3.575,1.967V14.494H14.562c.051,1.1,0,11.808,0,11.916h3.966V19.756a2.632,2.632,0,0,1,.131-.967A2.21,2.21,0,0,1,20.694,17.341ZM8.4,14.494V26.41h3.965V14.494ZM10.41,8.75a2.065,2.065,0,1,0-.051,4.118h.025A2.066,2.066,0,1,0,10.41,8.75Z" transform="translate(0)" fill="#000230"/>
</svg>
