<?xml version="1.0" encoding="UTF-8"?>
<svg width="130px" height="91px" viewBox="0 0 130 91" version="1.1" xmlns="http://www.w3.org/2000/svg" xmlns:xlink="http://www.w3.org/1999/xlink">
    <!-- Generator: Sketch 63.1 (92452) - https://sketch.com -->
    <title>plataforma_hoteles_flexible_versatil</title>
    <desc>Created with Sketch.</desc>
    <g id="Plataforma-Goguest" stroke="none" stroke-width="1" fill="none" fill-rule="evenodd">
        <g transform="translate(-210.000000, -3409.000000)" id="ventajas-plataforma">
            <g transform="translate(0.000000, 3110.000000)">
                <g id="Group-8" transform="translate(124.000000, 301.000000)">
                    <g id="plataforma_hoteles_flexible_versatil" transform="translate(88.000000, 0.000000)">
                        <g id="Fill-537" transform="translate(38.400000, 40.000000)" fill="#000230">
                            <path d="M43.2,33.6 L38.4,33.6 L38.4,28.8 L43.2,28.8 L43.2,33.6 Z M43.2,43.2 L38.4,43.2 L38.4,38.4 L43.2,38.4 L43.2,43.2 Z M31.2,14.4 L26.4,14.4 L26.4,9.6 L31.2,9.6 L31.2,14.4 Z M31.2,24 L26.4,24 L26.4,19.2 L31.2,19.2 L31.2,24 Z M31.2,33.6 L26.4,33.6 L26.4,28.8 L31.2,28.8 L31.2,33.6 Z M21.6,14.4 L16.8,14.4 L16.8,9.6 L21.6,9.6 L21.6,14.4 Z M21.6,24 L16.8,24 L16.8,19.2 L21.6,19.2 L21.6,24 Z M21.6,33.6 L16.8,33.6 L16.8,28.8 L21.6,28.8 L21.6,33.6 Z M9.6,33.6 L4.8,33.6 L4.8,28.8 L9.6,28.8 L9.6,33.6 Z M9.6,43.2 L4.8,43.2 L4.8,38.4 L9.6,38.4 L9.6,43.2 Z M45.6,24 L36,24 L36,7.2 C36,5.8776 34.9272,4.8 33.6,4.8 L31.2,4.8 L31.2,2.4 C31.2,1.0776 30.1272,0 28.8,0 L19.2,0 C17.8752,0 16.8,1.0776 16.8,2.4 L16.8,4.8 L14.4,4.8 C13.0752,4.8 12,5.8776 12,7.2 L12,24 L2.4,24 C1.0752,24 0,25.0776 0,26.4 L0,45.6 C0,46.9272 1.0752,48 2.4,48 L19.2,48 L19.2,38.4 L28.8,38.4 L28.8,48 L45.6,48 C46.9272,48 48,46.9272 48,45.6 L48,26.4 C48,25.0776 46.9272,24 45.6,24 L45.6,24 Z"></path>
                        </g>
                        <circle id="Oval" stroke="#000230" stroke-width="4" cx="14.4" cy="62.4" r="14.4"></circle>
                        <circle id="Oval-Copy-2" stroke="#000230" stroke-width="4" cx="111.2" cy="62.4" r="14.4"></circle>
                        <circle id="Oval-Copy-3" stroke="#000230" stroke-width="4" cx="94.4" cy="18.4" r="6.4"></circle>
                        <circle id="Oval-Copy" stroke="#000230" stroke-width="4" cx="44.8" cy="18.4" r="18.4"></circle>
                        <polyline id="Path-35" stroke="#000230" stroke-width="2.8" stroke-linecap="round" stroke-linejoin="round" points="12 58 8 62.2251934 12 66"></polyline>
                        <polyline id="Path-35-Copy-4" stroke="#000230" stroke-width="2.8" stroke-linecap="round" stroke-linejoin="round" points="109 58 105 62.2251934 109 66"></polyline>
                        <polyline id="Path-35-Copy-2" stroke="#000230" stroke-width="2.8" stroke-linecap="round" stroke-linejoin="round" points="42 14 38 18.2251934 42 22"></polyline>
                        <polyline id="Path-35-Copy" stroke="#000230" stroke-width="2.8" stroke-linecap="round" stroke-linejoin="round" transform="translate(19.000000, 62.000000) scale(-1, 1) translate(-19.000000, -62.000000) " points="21 58 17 62.2251934 21 66"></polyline>
                        <polyline id="Path-35-Copy-5" stroke="#000230" stroke-width="2.8" stroke-linecap="round" stroke-linejoin="round" transform="translate(116.000000, 62.000000) scale(-1, 1) translate(-116.000000, -62.000000) " points="118 58 114 62.2251934 118 66"></polyline>
                        <polyline id="Path-35-Copy-3" stroke="#000230" stroke-width="2.8" stroke-linecap="round" stroke-linejoin="round" transform="translate(49.000000, 18.000000) scale(-1, 1) translate(-49.000000, -18.000000) " points="51 14 47 18.2251934 51 22"></polyline>
                        <line x1="40.3531486" y1="86.2425802" x2="25.0797944" y2="71.9237972" id="Path-36" stroke="#000230" stroke-width="4" stroke-linecap="round"></line>
                        <line x1="22.2037276" y1="51.0485162" x2="34.3831989" y2="34.1630774" id="Path-37" stroke="#000230" stroke-width="4"></line>
                        <line x1="63.2" y1="18.4" x2="88" y2="18.4" id="Path-38" stroke="#000230" stroke-width="4"></line>
                        <line x1="96.8" y1="24.8" x2="106.248372" y2="48" id="Path-39" stroke="#000230" stroke-width="4"></line>
                        <line x1="100.587471" y1="72.7774136" x2="84.5304687" y2="86.2425802" id="Path-40" stroke="#000230" stroke-width="4" stroke-linecap="round"></line>
                    </g>
                </g>
            </g>
        </g>
    </g>
</svg>