<?xml version="1.0" encoding="UTF-8"?>
<svg width="89px" height="62px" viewBox="0 0 89 62" version="1.1" xmlns="http://www.w3.org/2000/svg" xmlns:xlink="http://www.w3.org/1999/xlink">
    <!-- Generator: Sketch 63.1 (92452) - https://sketch.com -->
    <title>icon_desarrollos_hoteles</title>
    <desc>Created with Sketch.</desc>
    <defs>
        <polygon id="path-1" points="8e-05 0.0512 88.993 0.0512 88.993 61.2 8e-05 61.2"></polygon>
    </defs>
    <g id="Plataforma-Goguest" stroke="none" stroke-width="1" fill="none" fill-rule="evenodd">
        <g transform="translate(-671.000000, -3424.000000)" id="ventajas-plataforma">
            <g transform="translate(0.000000, 3110.000000)">
                <g id="Group-4" transform="translate(551.000000, 314.000000)">
                    <g id="icon_desarrollos_hoteles" transform="translate(120.000000, 0.000000)">
                        <g id="Group-10">
                            <g id="Group-3" transform="translate(0.000000, 0.148800)">
                                <mask id="mask-2" fill="white">
                                    <use xlink:href="#path-1"></use>
                                </mask>
                                <g id="Clip-2"></g>
                                <path d="M2.40008,61.2 C1.08008,61.2 8e-05,60.1958 8e-05,58.9682 L8e-05,2.283 C8e-05,1.0554 1.08008,0.0512 2.40008,0.0512 L23.25328,0.0512 C25.01628,0.0512 26.44508,1.3802 26.44488,3.0194 C26.44468,4.6586 27.87368,5.9876 29.63648,5.9876 L86.59308,5.9876 C87.91308,5.9876 88.99308,6.9918 88.99308,8.2194 L88.99308,58.9682 C88.99308,60.1958 87.91308,61.2 86.59308,61.2 L2.40008,61.2 Z" id="Fill-1" fill="#000230" mask="url(#mask-2)"></path>
                            </g>
                            <path d="M8.59196,5.79072 C8.59196,6.89152 7.69956,7.78392 6.59876,7.78392 C5.49796,7.78392 4.60556,6.89152 4.60556,5.79072 C4.60556,4.68992 5.49796,3.79752 6.59876,3.79752 C7.69956,3.79752 8.59196,4.68992 8.59196,5.79072" id="Fill-4" fill="#FFFFFF"></path>
                            <path d="M13.99578,5.79072 C13.99578,6.89152 13.10338,7.78392 12.00258,7.78392 C10.90178,7.78392 10.00938,6.89152 10.00938,5.79072 C10.00938,4.68992 10.90178,3.79752 12.00258,3.79752 C13.10338,3.79752 13.99578,4.68992 13.99578,5.79072" id="Fill-6" fill="#FFFFFF"></path>
                            <path d="M19.39958,5.79072 C19.39958,6.89152 18.50718,7.78392 17.40638,7.78392 C16.30558,7.78392 15.41318,6.89152 15.41318,5.79072 C15.41318,4.68992 16.30558,3.79752 17.40638,3.79752 C18.50718,3.79752 19.39958,4.68992 19.39958,5.79072" id="Fill-8" fill="#FFFFFF"></path>
                        </g>
                        <path d="M32.4915382,51 L32.4915382,49.354717 C32.4915382,49.2238994 32.4639589,49.1081761 32.4088003,49.0075472 C32.3536417,48.9069182 32.2834399,48.8264151 32.1981948,48.7660377 C32.1129497,48.7056604 32.0251974,48.6603774 31.9349379,48.6301887 C31.8446785,48.6 31.7644478,48.5849057 31.694246,48.5849057 L31.5588567,48.5849057 C30.8568384,48.5849057 30.3202959,48.363522 29.949229,47.9207547 C29.5781622,47.4779874 29.3926288,46.8742138 29.3926288,46.109434 C29.3926288,45.5559748 29.4227153,45.0251572 29.4828883,44.5169811 C29.5430613,44.008805 29.6057415,43.5157233 29.6709289,43.0377358 C29.7361163,42.5597484 29.7987965,42.0893082 29.8589695,41.6264151 C29.9191425,41.163522 29.949229,40.6955975 29.949229,40.2226415 C29.949229,39.8503145 29.8965777,39.4930818 29.7912749,39.1509434 C29.6859722,38.808805 29.5305253,38.4968553 29.3249342,38.2150943 C29.1193431,37.9333333 28.8736367,37.6893082 28.587815,37.4830189 C28.3019932,37.2767296 27.9785634,37.118239 27.6175254,37.0075472 C27.9785634,36.9069182 28.3019932,36.7509434 28.587815,36.5396226 C28.8736367,36.3283019 29.1193431,36.0842767 29.3249342,35.8075472 C29.5305253,35.5308176 29.6859722,35.2213836 29.7912749,34.8792453 C29.8965777,34.5371069 29.949229,34.1748428 29.949229,33.7924528 C29.949229,33.3194969 29.9191425,32.8515723 29.8589695,32.3886792 C29.7987965,31.9257862 29.7361163,31.4553459 29.6709289,30.9773585 C29.6057415,30.4993711 29.5430613,30.0062893 29.4828883,29.4981132 C29.4227153,28.9899371 29.3926288,28.4591195 29.3926288,27.9056604 C29.3926288,27.1308176 29.5781622,26.5220126 29.949229,26.0792453 C30.3202959,25.636478 30.8568384,25.4150943 31.5588567,25.4150943 L31.694246,25.4150943 C31.7644478,25.4150943 31.8446785,25.4 31.9349379,25.3698113 C32.0251974,25.3396226 32.1129497,25.2943396 32.1981948,25.2339623 C32.2834399,25.1735849 32.3536417,25.0955975 32.4088003,25 C32.4639589,24.9044025 32.4915382,24.791195 32.4915382,24.6603774 L32.4915382,23 L31.694246,23 C30.7515357,23 29.9316786,23.1232704 29.2346747,23.3698113 C28.5376708,23.6163522 27.9610129,23.9660377 27.504701,24.4188679 C27.0483891,24.8716981 26.709916,25.4125786 26.4892817,26.0415094 C26.2686474,26.6704403 26.1583302,27.3672956 26.1583302,28.1320755 C26.1583302,28.6251572 26.1909239,29.1106918 26.2561113,29.5886792 C26.3212987,30.0666667 26.396515,30.5421384 26.4817601,31.0150943 C26.5670051,31.4880503 26.6422214,31.9584906 26.7074088,32.4264151 C26.7725962,32.8943396 26.8051899,33.3647799 26.8051899,33.8377358 C26.8051899,34.4515723 26.6622791,34.9522013 26.3764573,35.3396226 C26.0906356,35.727044 25.6318165,35.9207547 25,35.9207547 L25,38.0792453 C25.6318165,38.0792453 26.0906356,38.272956 26.3764573,38.6603774 C26.6622791,39.0477987 26.8051899,39.5484277 26.8051899,40.1622642 C26.8051899,40.6352201 26.7725962,41.1081761 26.7074088,41.5811321 C26.6422214,42.0540881 26.5670051,42.527044 26.4817601,43 C26.396515,43.472956 26.3212987,43.9484277 26.2561113,44.4264151 C26.1909239,44.9044025 26.1583302,45.3899371 26.1583302,45.8830189 C26.1583302,46.6477987 26.2686474,47.3446541 26.4892817,47.9735849 C26.709916,48.6025157 27.0483891,49.1408805 27.504701,49.5886792 C27.9610129,50.036478 28.5376708,50.3836478 29.2346747,50.6301887 C29.9316786,50.8767296 30.7515357,51 31.694246,51 L32.4915382,51 Z M36.9744265,46.5622642 C37.2853203,46.5622642 37.5811709,46.5044025 37.8619782,46.3886792 C38.1427855,46.272956 38.3834775,46.1144654 38.5840542,45.9132075 C38.7846308,45.7119497 38.9450921,45.472956 39.0654381,45.1962264 C39.1857841,44.9194969 39.2459571,44.6201258 39.2459571,44.2981132 C39.2459571,43.9861635 39.1857841,43.6893082 39.0654381,43.4075472 C38.9450921,43.1257862 38.7846308,42.8842767 38.5840542,42.6830189 C38.3834775,42.481761 38.1427855,42.3207547 37.8619782,42.2 C37.5811709,42.0792453 37.2853203,42.0188679 36.9744265,42.0188679 C36.6535038,42.0188679 36.3526388,42.0792453 36.0718315,42.2 C35.7910242,42.3207547 35.547825,42.481761 35.3422339,42.6830189 C35.1366428,42.8842767 34.9761815,43.1257862 34.8608499,43.4075472 C34.7455184,43.6893082 34.6878526,43.9861635 34.6878526,44.2981132 C34.6878526,44.6201258 34.7455184,44.9194969 34.8608499,45.1962264 C34.9761815,45.472956 35.1366428,45.7119497 35.3422339,45.9132075 C35.547825,46.1144654 35.7910242,46.272956 36.0718315,46.3886792 C36.3526388,46.5044025 36.6535038,46.5622642 36.9744265,46.5622642 Z M53.0406168,46.5622642 C53.3515106,46.5622642 53.6473612,46.5044025 53.9281685,46.3886792 C54.2089758,46.272956 54.4496678,46.1144654 54.6502445,45.9132075 C54.8508211,45.7119497 55.0112824,45.472956 55.1316284,45.1962264 C55.2519744,44.9194969 55.3121474,44.6201258 55.3121474,44.2981132 C55.3121474,43.9861635 55.2519744,43.6893082 55.1316284,43.4075472 C55.0112824,43.1257862 54.8508211,42.8842767 54.6502445,42.6830189 C54.4496678,42.481761 54.2089758,42.3207547 53.9281685,42.2 C53.6473612,42.0792453 53.3515106,42.0188679 53.0406168,42.0188679 C52.7196941,42.0188679 52.4188291,42.0792453 52.1380218,42.2 C51.8572145,42.3207547 51.6140153,42.481761 51.4084242,42.6830189 C51.2028331,42.8842767 51.0423718,43.1257862 50.9270402,43.4075472 C50.8117087,43.6893082 50.7540429,43.9861635 50.7540429,44.2981132 C50.7540429,44.6201258 50.8117087,44.9194969 50.9270402,45.1962264 C51.0423718,45.472956 51.2028331,45.7119497 51.4084242,45.9132075 C51.6140153,46.1144654 51.8572145,46.272956 52.1380218,46.3886792 C52.4188291,46.5044025 52.7196941,46.5622642 53.0406168,46.5622642 Z M45.0075216,46.5622642 C45.3184154,46.5622642 45.614266,46.5044025 45.8950733,46.3886792 C46.1758807,46.272956 46.4165726,46.1144654 46.6171493,45.9132075 C46.817726,45.7119497 46.9781873,45.472956 47.0985333,45.1962264 C47.2188793,44.9194969 47.2790523,44.6201258 47.2790523,44.2981132 C47.2790523,43.9861635 47.2188793,43.6893082 47.0985333,43.4075472 C46.9781873,43.1257862 46.817726,42.8842767 46.6171493,42.6830189 C46.4165726,42.481761 46.1758807,42.3207547 45.8950733,42.2 C45.614266,42.0792453 45.3184154,42.0188679 45.0075216,42.0188679 C44.686599,42.0188679 44.385734,42.0792453 44.1049267,42.2 C43.8241193,42.3207547 43.5809201,42.481761 43.3753291,42.6830189 C43.169738,42.8842767 43.0092767,43.1257862 42.8939451,43.4075472 C42.7786135,43.6893082 42.7209477,43.9861635 42.7209477,44.2981132 C42.7209477,44.6201258 42.7786135,44.9194969 42.8939451,45.1962264 C43.0092767,45.472956 43.169738,45.7119497 43.3753291,45.9132075 C43.5809201,46.1144654 43.8241193,46.272956 44.1049267,46.3886792 C44.385734,46.5044025 44.686599,46.5622642 45.0075216,46.5622642 Z M58.305754,51 C59.2484643,51 60.0683214,50.8767296 60.7653253,50.6301887 C61.4623292,50.3836478 62.0389871,50.036478 62.495299,49.5886792 C62.9516109,49.1408805 63.290084,48.6025157 63.5107183,47.9735849 C63.7313526,47.3446541 63.8416698,46.6477987 63.8416698,45.8830189 C63.8416698,45.3899371 63.8090761,44.9044025 63.7438887,44.4264151 C63.6787013,43.9484277 63.603485,43.472956 63.5182399,43 C63.4329949,42.527044 63.3577786,42.0540881 63.2925912,41.5811321 C63.2274038,41.1081761 63.1948101,40.6352201 63.1948101,40.1622642 C63.1948101,39.5484277 63.3377209,39.0477987 63.6235427,38.6603774 C63.9093644,38.272956 64.3681835,38.0792453 65,38.0792453 L65,38.0792453 L65,35.9207547 C64.3681835,35.9207547 63.9093644,35.727044 63.6235427,35.3396226 C63.3377209,34.9522013 63.1948101,34.4515723 63.1948101,33.8377358 C63.1948101,33.3647799 63.2274038,32.8943396 63.2925912,32.4264151 C63.3577786,31.9584906 63.4329949,31.4880503 63.5182399,31.0150943 C63.603485,30.5421384 63.6787013,30.0666667 63.7438887,29.5886792 C63.8090761,29.1106918 63.8416698,28.6251572 63.8416698,28.1320755 C63.8416698,27.3672956 63.7313526,26.6704403 63.5107183,26.0415094 C63.290084,25.4125786 62.9516109,24.8716981 62.495299,24.4188679 C62.0389871,23.9660377 61.4623292,23.6163522 60.7653253,23.3698113 C60.0683214,23.1232704 59.2484643,23 58.305754,23 L58.305754,23 L57.5084618,23 L57.5084618,24.6603774 C57.5084618,24.791195 57.5360411,24.9044025 57.5911997,25 C57.6463583,25.0955975 57.7165601,25.1735849 57.8018052,25.2339623 C57.8870503,25.2943396 57.9748026,25.3396226 58.0650621,25.3698113 C58.1553215,25.4 58.2355522,25.4150943 58.305754,25.4150943 L58.305754,25.4150943 L58.4411433,25.4150943 C59.1431616,25.4150943 59.6797041,25.636478 60.050771,26.0792453 C60.4218378,26.5220126 60.6073712,27.1308176 60.6073712,27.9056604 C60.6073712,28.4591195 60.5772847,28.9899371 60.5171117,29.4981132 C60.4569387,30.0062893 60.3942585,30.4993711 60.3290711,30.9773585 C60.2638837,31.4553459 60.2012035,31.9257862 60.1410305,32.3886792 C60.0808575,32.8515723 60.050771,33.3194969 60.050771,33.7924528 C60.050771,34.1748428 60.1034223,34.5371069 60.2087251,34.8792453 C60.3140278,35.2213836 60.4669675,35.5308176 60.6675442,35.8075472 C60.8681208,36.0842767 61.1138273,36.3283019 61.4046634,36.5396226 C61.6954996,36.7509434 62.0214366,36.9069182 62.3824746,37.0075472 C62.0214366,37.118239 61.6954996,37.2767296 61.4046634,37.4830189 C61.1138273,37.6893082 60.8681208,37.9333333 60.6675442,38.2150943 C60.4669675,38.4968553 60.3140278,38.808805 60.2087251,39.1509434 C60.1034223,39.4930818 60.050771,39.8503145 60.050771,40.2226415 C60.050771,40.6955975 60.0808575,41.163522 60.1410305,41.6264151 C60.2012035,42.0893082 60.2638837,42.5597484 60.3290711,43.0377358 C60.3942585,43.5157233 60.4569387,44.008805 60.5171117,44.5169811 C60.5772847,45.0251572 60.6073712,45.5559748 60.6073712,46.109434 C60.6073712,46.8742138 60.4218378,47.4779874 60.050771,47.9207547 C59.6797041,48.363522 59.1431616,48.5849057 58.4411433,48.5849057 L58.4411433,48.5849057 L58.305754,48.5849057 C58.2355522,48.5849057 58.1553215,48.6 58.0650621,48.6301887 C57.9748026,48.6603774 57.8870503,48.7056604 57.8018052,48.7660377 C57.7165601,48.8264151 57.6463583,48.9069182 57.5911997,49.0075472 C57.5360411,49.1081761 57.5084618,49.2238994 57.5084618,49.354717 L57.5084618,49.354717 L57.5084618,51 L58.305754,51 Z" id="{…}" fill="#FFFFFF" fill-rule="nonzero"></path>
                    </g>
                </g>
            </g>
        </g>
    </g>
</svg>