<?xml version="1.0" encoding="UTF-8"?>
<svg width="461px" height="461px" viewBox="0 0 461 461" version="1.1" xmlns="http://www.w3.org/2000/svg" xmlns:xlink="http://www.w3.org/1999/xlink">
    <!-- Generator: Sketch 63.1 (92452) - https://sketch.com -->
    <title>logica_negocio_hoteles_plataforma_easygoband</title>
    <desc>Created with Sketch.</desc>
    <g id="Plataforma-Goguest" stroke="none" stroke-width="1" fill="none" fill-rule="evenodd">
        <g transform="translate(-191.000000, -2537.000000)" id="logica_negocio_hoteles_plataforma_easygoband">
            <g transform="translate(191.000000, 2537.000000)">
                <circle id="Oval" fill-opacity="0.05" fill="#241DBA" cx="230.5" cy="230.5" r="230.5"></circle>
                <g id="Group-2" transform="translate(57.000000, 57.000000)" stroke="#241DBA">
                    <g id="INTERIOR" transform="translate(0.690000, 0.870000)">
                        <circle id="Oval" stroke-width="1.088766" cx="172.872" cy="172.809" r="132.111"></circle>
                        <circle id="Oval" stroke-width="1.020537" cx="172.872" cy="172.809" r="172.431"></circle>
                        <path d="M319.347,263.844 C288.918,312.732 234.675,345.24 172.872,345.24" id="Path" stroke-width="9.734193"></path>
                        <path d="M2.961,202.293 C1.323,192.717 0.441,182.889 0.441,172.872 C0.441,123.165 21.483,78.435 55.062,46.935" id="Path" stroke-width="33.693975"></path>
                        <path d="M264.6,54.558 C299.817,81.963 322.497,124.74 322.497,172.809 C322.497,216.405 303.849,255.654 274.113,282.996" id="Path" stroke-width="35.945532"></path>
                        <path d="M193.914,300.636 C187.047,301.77 180.054,302.337 172.872,302.337 C127.89,302.337 88.263,279.405 65.016,244.566" id="Path" stroke-width="29.083068"></path>
                        <circle id="Oval" stroke-width="1.088766" cx="172.872" cy="172.809" r="105.21"></circle>
                        <path d="M245.637,254.52 C226.359,272.223 200.592,283.059 172.368,283.059 C117.684,283.059 72.45,242.55 65.016,189.882" id="Path" stroke-width="10.698471"></path>
                        <path d="M168.966,63.756 C231.399,63.756 281.988,114.345 281.988,176.778" id="Path" stroke-width="10.384605"></path>
                        <circle id="Oval" stroke-width="1.088766" cx="172.053" cy="175.455" r="81.396"></circle>
                        <path d="M87.948,167.328 C94.311,119.448 138.285,85.869 186.165,92.232" id="Path" stroke-width="10.384605"></path>
                    </g>
                </g>
                <circle id="Oval" fill="#241DBA" cx="230.5" cy="230.5" r="42.5"></circle>
                <g id="Group" transform="translate(213.000000, 213.000000)" fill="#FFFFFF">
                    <path d="M22.4593038,5.5582128 C23.2082478,5.9110128 23.9269518,6.3414288 24.5942478,6.8353488 C25.0952238,7.2062928 25.5730158,7.6185648 26.0155278,8.0600688 C26.2997838,8.3433168 26.5719438,8.6416848 26.8269678,8.9491248 C27.2573838,9.4682448 27.8773038,9.7363728 28.5022638,9.7363728 C28.9921518,9.7363728 29.4840558,9.5720688 29.8902798,9.2353968 C30.8146158,8.4683088 30.9426318,7.0964208 30.1765518,6.1720848 C29.8348398,5.7598128 29.4689358,5.3586288 29.0889198,4.9796208 C28.4962158,4.3879248 27.8551278,3.8365488 27.1827918,3.3385968 C26.2866798,2.6753328 25.3220238,2.0977488 24.3160398,1.6229808 C23.2294158,1.1099088 21.9331278,1.5756048 21.4200558,2.6622288 C20.9079918,3.7488528 21.3726798,5.0451408 22.4593038,5.5582128" id="Fill-1"></path>
                    <path d="M17.0478558,21.16296 C14.7788478,21.16296 12.9331998,19.317312 12.9331998,17.048304 C12.9331998,14.779296 14.7788478,12.933648 17.0478558,12.933648 C19.3168638,12.933648 21.1625118,14.779296 21.1625118,17.048304 C21.1625118,19.317312 19.3168638,21.16296 17.0478558,21.16296 M31.9098078,14.870016 L29.5883838,14.870016 L29.5893918,14.87304 L25.2287838,14.87304 C24.2661438,11.256336 20.9639358,8.582112 17.0478558,8.582112 C12.3798078,8.582112 8.58166382,12.380256 8.58166382,17.048304 C8.58166382,21.716352 12.3798078,25.513488 17.0478558,25.513488 C20.9639358,25.513488 24.2661438,22.84128 25.2287838,19.223568 L29.5551198,19.223568 C28.4866398,25.383456 22.9678398,30.036384 16.4410398,29.73096 C9.84267182,29.422512 4.53051182,23.994432 4.35511982,17.391024 C4.16662382,10.254384 9.90012782,4.383792 16.9883838,4.351536 C18.1717758,4.345488 19.1878398,3.425184 19.2221118,2.241792 C19.2583998,1.010016 18.2715678,2.11883844e-13 17.0478558,2.11883844e-13 C7.33980782,2.11883844e-13 -0.498400181,8.155728 0.0247518189,17.975664 C0.484399819,26.618256 7.47689582,33.610752 16.1194878,34.071408 C25.9394238,34.59456 34.0961598,26.756352 34.0961598,17.048304 L34.0961598,17.026128 C34.0941438,15.83064 33.1052958,14.870016 31.9098078,14.870016" id="Fill-3"></path>
                </g>
            </g>
        </g>
    </g>
</svg>