<?xml version="1.0" encoding="UTF-8"?>
<svg width="438px" height="307px" viewBox="0 0 438 307" version="1.1" xmlns="http://www.w3.org/2000/svg" xmlns:xlink="http://www.w3.org/1999/xlink">
    <!-- Generator: Sketch 63.1 (92452) - https://sketch.com -->
    <title>PMS_integracion_hoteles_easygoband</title>
    <desc>Created with Sketch.</desc>
    <defs>
        <polyline id="path-1" points="110.5867 0.18095 110.83415 87.41285 0.35175 151.2 0.10465 63.9681"></polyline>
        <polyline id="path-3" points="110.5867 0.18095 110.83415 87.41285 0.35175 151.2 0.10465 63.9681"></polyline>
        <polyline id="path-5" points="110.5867 0.18095 110.83415 87.41285 0.35175 151.2 0.10465 63.9681"></polyline>
        <polyline id="path-7" points="110.5867 0.18095 110.83415 87.41285 0.35175 151.2 0.10465 63.9681"></polyline>
        <polyline id="path-9" points="110.5867 0.18095 110.83415 87.41285 0.35175 151.2 0.10465 63.9681"></polyline>
        <polyline id="path-11" points="110.5867 0.18095 110.83415 87.41285 0.35175 151.2 0.10465 63.9681"></polyline>
        <polyline id="path-13" points="110.5867 0.18095 110.83415 87.41285 0.35175 151.2 0.10465 63.9681"></polyline>
        <polyline id="path-15" points="110.5867 0.18095 110.83415 87.41285 0.35175 151.2 0.10465 63.9681"></polyline>
        <polyline id="path-17" points="110.5867 0.18095 110.83415 87.41285 0.35175 151.2 0.10465 63.9681"></polyline>
        <polyline id="path-19" points="110.5867 0.18095 110.83415 87.41285 0.35175 151.2 0.10465 63.9681"></polyline>
        <polyline id="path-21" points="110.5867 0.18095 110.83415 87.41285 0.35175 151.2 0.10465 63.9681"></polyline>
        <polyline id="path-23" points="110.5867 0.18095 110.83415 87.41285 0.35175 151.2 0.10465 63.9681"></polyline>
        <linearGradient x1="21.910379%" y1="1.71159233%" x2="66.2565414%" y2="45.2158171%" id="linearGradient-25">
            <stop stop-color="#FFFFFF" offset="0.0870988176%"></stop>
            <stop stop-color="#FFFFFF" stop-opacity="0" offset="100%"></stop>
        </linearGradient>
        <linearGradient x1="110.145577%" y1="44.6528678%" x2="-19.1280273%" y2="55.4911332%" id="linearGradient-26">
            <stop stop-color="#5D278F" stop-opacity="0" offset="0%"></stop>
            <stop stop-color="#292376" offset="100%"></stop>
        </linearGradient>
        <linearGradient x1="86.8843387%" y1="55.9267417%" x2="43.3591588%" y2="47.4624255%" id="linearGradient-27">
            <stop stop-color="#DBF9EA" offset="0%"></stop>
            <stop stop-color="#C0DDE2" offset="100%"></stop>
        </linearGradient>
        <linearGradient x1="55%" y1="50.5%" x2="50%" y2="48.5%" id="linearGradient-28">
            <stop stop-color="#DBF9EA" offset="0%"></stop>
            <stop stop-color="#C0DDE2" offset="100%"></stop>
        </linearGradient>
        <linearGradient x1="3.30101155e-14%" y1="50.0747225%" x2="100%" y2="50.0747225%" id="linearGradient-29">
            <stop stop-color="#DBF9EA" offset="0%"></stop>
            <stop stop-color="#C0DDE2" offset="100%"></stop>
        </linearGradient>
        <linearGradient x1="119.502027%" y1="144.587753%" x2="53.4420384%" y2="54.2391668%" id="linearGradient-30">
            <stop stop-color="#DBF9EA" offset="0%"></stop>
            <stop stop-color="#C0DDE2" offset="100%"></stop>
        </linearGradient>
        <linearGradient x1="26.2561367%" y1="23.1731643%" x2="80.8965755%" y2="93.0473762%" id="linearGradient-31">
            <stop stop-color="#000000" offset="0%"></stop>
            <stop stop-color="#170017" offset="100%"></stop>
        </linearGradient>
        <linearGradient x1="14.57835%" y1="100%" x2="83.3517383%" y2="0%" id="linearGradient-32">
            <stop stop-color="#00D7D7" offset="0%"></stop>
            <stop stop-color="#241DBA" offset="100%"></stop>
        </linearGradient>
        <linearGradient x1="26.8448558%" y1="32.6286374%" x2="55.6253669%" y2="54.1704635%" id="linearGradient-33">
            <stop stop-color="#FFFFFF" stop-opacity="0.25" offset="0%"></stop>
            <stop stop-color="#DBF9EA" stop-opacity="0" offset="100%"></stop>
        </linearGradient>
        <polyline id="path-34" points="37.9559 0.7276 0 22.6406 0.1241 66.3 38.08 44.3853"></polyline>
        <polyline id="path-36" points="37.9559 0.7276 0 22.6406 0.1241 66.3 38.08 44.3853"></polyline>
        <radialGradient cx="50%" cy="50%" fx="50%" fy="50%" r="46.8496592%" id="radialGradient-38">
            <stop stop-color="#FFFFFF" offset="0%"></stop>
            <stop stop-color="#FFFFFF" stop-opacity="0" offset="100%"></stop>
        </radialGradient>
    </defs>
    <g id="Plataforma-Goguest" stroke="none" stroke-width="1" fill="none" fill-rule="evenodd">
        <g transform="translate(-818.000000, -1882.000000)" id="PMS_integracion_hoteles_easygoband">
            <g transform="translate(818.000000, 1880.000000)">
                <g id="Group-50-Copy" transform="translate(58.000000, 8.000000)">
                    <path d="M110.705735,31.580535 L110.621735,1.895985 C110.616835,0.144935 109.271785,-0.513765 107.631685,0.433335 L36.923285,41.256635 C34.733685,42.520835 32.956035,41.646535 32.949385,39.309585 C32.942735,36.970535 31.163335,36.100085 28.975485,37.362885 L3.084935,52.311035 C1.446935,53.256385 0.110285,55.463485 0.115171571,57.212085 L0.344435,138.076085 C0.349685,139.827135 1.694385,140.485835 3.332385,139.540485 L107.854985,79.194185 C109.495085,78.247085 110.831735,76.040335 110.826848,74.289285 L110.705735,31.580535 Z" id="Fill-1" fill="#6D6D6D" opacity="0.5"></path>
                    <path d="M114.86951,35.74431 L114.78551,6.05976 C114.78061,4.30871 113.43556,3.65001 111.79546,4.59711 L41.08706,45.42041 C38.89746,46.68461 37.11981,45.81031 37.11316,43.47336 C37.10651,41.13431 35.32711,40.26386 33.13926,41.52666 L7.24871,56.47481 C5.61071,57.42016 4.27406,59.62726 4.27894657,61.37586 L4.50821,142.23986 C4.51346,143.99091 5.85816,144.64961 7.49616,143.70426 L112.01876,83.35796 C113.65886,82.41086 114.99551,80.20411 114.990623,78.45306 L114.86951,35.74431 Z" id="Fill-3" fill="#999999" opacity="0.6"></path>
                    <path d="M118.14754,39.02234 L118.06354,9.33779 C118.05864,7.58674 116.71359,6.92804 115.07349,7.87514 L44.36509,48.69844 C42.17549,49.96264 40.39784,49.08834 40.39119,46.75139 C40.38454,44.41234 38.60514,43.54189 36.41729,44.80469 L10.52674,59.75284 C8.88874,60.69819 7.55209,62.90529 7.55697657,64.65389 L7.78624,145.51789 C7.79149,147.26894 9.13619,147.92764 10.77419,146.98229 L115.29679,86.63599 C116.93689,85.68889 118.27354,83.48214 118.268653,81.73109 L118.14754,39.02234 Z" id="Fill-5" fill="#CCCCCC" opacity="0.7"></path>
                    <path d="M124.7036,45.5784 L124.6196,15.89385 C124.6147,14.1428 123.26965,13.4841 121.62955,14.4312 L50.92115,55.2545 C48.73155,56.5187 46.9539,55.6444 46.94725,53.30745 C46.9406,50.9684 45.1612,50.09795 42.97335,51.36075 L17.0828,66.3089 C15.4448,67.25425 14.10815,69.46135 14.1130366,71.20995 L14.3423,152.07395 C14.34755,153.825 15.69225,154.4837 17.33025,153.53835 L121.85285,93.19205 C123.49295,92.24495 124.8296,90.0382 124.824713,88.28715 L124.7036,45.5784 Z" id="Fill-7" fill="#F2F2F2"></path>
                    <path d="M121.42557,42.30037 L121.34157,12.61582 C121.33667,10.86477 119.99162,10.20607 118.35152,11.15317 L47.64312,51.97647 C45.45352,53.24067 43.67587,52.36637 43.66922,50.02942 C43.66257,47.69037 41.88317,46.81992 39.69532,48.08272 L13.80477,63.03087 C12.16677,63.97622 10.83012,66.18332 10.8350066,67.93192 L11.06427,148.79592 C11.06952,150.54697 12.41422,151.20567 14.05222,150.26032 L118.57482,89.91402 C120.21492,88.96692 121.55157,86.76017 121.546683,85.00912 L121.42557,42.30037 Z" id="Fill-9" fill="#F2F2F2" opacity="0.8"></path>
                    <path d="M124.7036,45.5784 L124.6196,15.89385 C124.6147,14.1428 123.26965,13.4841 121.62955,14.4312 L50.92115,55.2545 C48.73155,56.5187 46.9539,55.6444 46.94725,53.30745 C46.9406,50.9684 45.1612,50.09795 42.97335,51.36075 L17.0828,66.3089 C15.4448,67.25425 14.10815,69.46135 14.1130366,71.20995 L14.3423,152.07395 C14.34755,153.825 15.69225,154.4837 17.33025,153.53835 L121.85285,93.19205 C123.49295,92.24495 124.8296,90.0382 124.824713,88.28715 L124.7036,45.5784 Z" id="Fill-11" fill="#F2F2F2"></path>
                    <g id="Group-49" transform="translate(14.000000, 4.489800)">
                        <g id="Group-15">
                            <mask id="mask-2" fill="white">
                                <use xlink:href="#path-1"></use>
                            </mask>
                            <g id="Clip-14"></g>
                            <path d="M28.973735,47.300365 L3.083185,62.248165 C1.445185,63.193865 0.108535,65.400965 0.113421571,67.152015 L0.342685,148.016015 C0.347935,149.767065 1.692635,150.425765 3.330635,149.480415 L107.853235,89.134115 C109.493335,88.187015 110.829985,85.980265 110.825098,84.228865 L110.619985,11.833465 C110.615085,10.082415 109.270035,9.426165 107.629935,10.373265 L36.921885,51.196565 C34.731585,52.460765 32.954285,51.586465 32.947635,49.247065 C32.940985,46.910465 31.161585,46.037215 28.973735,47.300365 M21.744135,62.312565 C20.378785,63.101115 19.266835,62.467265 19.262271,60.895765 C19.257735,59.326715 20.362685,57.413265 21.728035,56.625065 C23.095485,55.835465 24.207435,56.468965 24.211999,58.038015 C24.216535,59.609515 23.111585,61.523315 21.744135,62.312565 M15.035685,66.185665 C13.670335,66.974215 12.558385,66.340365 12.553821,64.768865 C12.549285,63.199815 13.654235,61.286365 15.019585,60.498165 C16.387035,59.708565 17.499335,60.342065 17.503549,61.911115 C17.508085,63.482615 16.403485,65.396065 15.035685,66.185665 M8.327235,70.058765 C6.959785,70.848365 5.849935,70.213465 5.84537304,68.641965 C5.841185,67.072915 6.943685,65.160865 8.311135,64.371265 C9.678935,63.581665 10.788435,64.216565 10.792999,65.785615 C10.797535,67.357115 9.695035,69.269165 8.327235,70.058765 M17.365635,88.286415 C16.279585,88.913615 15.396535,88.407515 15.3930224,87.159765 C15.389185,85.911665 16.266985,84.391615 17.353035,83.764765 L91.734685,40.820115 C92.820735,40.193265 93.704135,40.696565 93.7076454,41.944665 C93.711135,43.192415 92.833685,44.715265 91.747635,45.342115 L17.365635,88.286415 M65.807035,69.441715 C64.720985,70.068565 63.835485,69.566665 63.8319746,68.318565 C63.828485,67.070815 64.708385,65.549365 65.794435,64.922515 L91.760585,49.930615 C92.846635,49.303765 93.730035,49.807065 93.7335454,51.054815 C93.737035,52.302915 92.859585,53.822965 91.773535,54.450165 L65.807035,69.441715 M17.391535,97.394465 C16.305485,98.021315 15.422085,97.518015 15.4185746,96.269915 C15.415085,95.022165 16.292885,93.502115 17.378935,92.875265 L59.689035,68.447015 C60.775085,67.820165 61.658485,68.323465 61.6619954,69.571565 C61.665485,70.819315 60.788035,72.339365 59.701985,72.966565 L17.391535,97.394465 M50.268435,87.381315 C49.182385,88.008515 48.296535,87.506265 48.2930246,86.255715 C48.289535,85.007965 49.169435,83.486515 50.255485,82.859665 L90.829585,59.434165 C91.917735,58.805915 92.801135,59.309215 92.8046454,60.556965 C92.808135,61.807515 91.930685,63.327565 90.842535,63.955815 L50.268435,87.381315 M17.417085,106.348165 C16.331035,106.975015 15.447635,106.471715 15.4441246,105.221165 C15.440635,103.973415 16.318085,102.453365 17.404135,101.826165 L44.599485,86.125165 C45.685535,85.497965 46.568935,86.001265 46.5724454,87.249365 C46.575935,88.499915 45.698485,90.019965 44.612435,90.646815 L17.417085,106.348165 M17.440535,114.644565 C16.354485,115.271765 15.471085,114.765665 15.4675746,113.517565 C15.464085,112.269815 16.341535,110.749765 17.427585,110.122565 L91.809585,67.178265 C92.895635,66.551415 93.779035,67.054715 93.7825454,68.302465 C93.786035,69.550565 92.908235,71.073065 91.822185,71.700265 L17.440535,114.644565 M65.881935,95.871615 C64.795885,96.498815 63.910385,95.994115 63.9068746,94.746015 C63.903385,93.498265 64.783285,91.976815 65.869335,91.349615 L91.835485,76.358065 C92.921535,75.731215 93.804935,76.234515 93.8084454,77.482265 C93.811935,78.730365 92.934485,80.252865 91.848435,80.880065 L65.881935,95.871615 M17.466435,123.824365 C16.380385,124.451215 15.497335,123.945465 15.4934746,122.697365 C15.489985,121.449615 16.367785,119.929565 17.453835,119.302365 L59.764285,94.874465 C60.849985,94.247615 61.733385,94.750915 61.7368954,95.998665 C61.740385,97.246765 60.862935,98.769265 59.776885,99.396465 L17.466435,123.824365" id="Fill-13" fill="#FFFFFF" mask="url(#mask-2)"></path>
                        </g>
                        <g id="Group-18">
                            <mask id="mask-4" fill="white">
                                <use xlink:href="#path-3"></use>
                            </mask>
                            <g id="Clip-17"></g>
                            <path d="M8.31117,64.371265 C6.94372,65.160865 5.84122,67.072915 5.84540804,68.641965 C5.84997,70.213465 6.95982,70.848365 8.32727,70.058765 C9.69507,69.269165 10.79757,67.357115 10.793034,65.785615 C10.78847,64.216565 9.67897,63.581665 8.31117,64.371265" id="Fill-16" fill="#241DBA" mask="url(#mask-4)"></path>
                        </g>
                        <g id="Group-21">
                            <mask id="mask-6" fill="white">
                                <use xlink:href="#path-5"></use>
                            </mask>
                            <g id="Clip-20"></g>
                            <path d="M15.01955,60.498165 C13.6542,61.286365 12.5496,63.199815 12.5537881,64.768865 C12.55835,66.340365 13.6703,66.974215 15.03565,66.185665 C16.40345,65.396065 17.50805,63.482615 17.503514,61.911115 C17.4993,60.342065 16.38735,59.708565 15.01955,60.498165" id="Fill-19" fill="#241DBA" mask="url(#mask-6)"></path>
                        </g>
                        <g id="Group-24">
                            <mask id="mask-8" fill="white">
                                <use xlink:href="#path-7"></use>
                            </mask>
                            <g id="Clip-23"></g>
                            <path d="M21.72793,56.625065 C20.36258,57.413265 19.25798,59.326715 19.2621681,60.895765 C19.26673,62.467265 20.37868,63.101115 21.74403,62.312565 C23.11148,61.522965 24.21643,59.609515 24.211894,58.038015 C24.20768,56.468965 23.09538,55.835465 21.72793,56.625065" id="Fill-22" fill="#241DBA" mask="url(#mask-8)"></path>
                        </g>
                        <g id="Group-27">
                            <mask id="mask-10" fill="white">
                                <use xlink:href="#path-9"></use>
                            </mask>
                            <g id="Clip-26"></g>
                            <path d="M91.734755,40.820255 L17.352755,83.764555 C16.267055,84.391755 15.389255,85.911805 15.3927446,87.159555 C15.396255,88.407655 16.279655,88.913405 17.365705,88.286555 L91.747705,45.342255 C92.833755,44.715055 93.711205,43.192555 93.7077154,41.944455 C93.704205,40.696705 92.820805,40.193405 91.734755,40.820255" id="Fill-25" fill="#241DBA" mask="url(#mask-10)"></path>
                        </g>
                        <g id="Group-30">
                            <mask id="mask-12" fill="white">
                                <use xlink:href="#path-11"></use>
                            </mask>
                            <g id="Clip-29"></g>
                            <path d="M91.80948,67.178335 L17.42748,110.122635 C16.34178,110.749835 15.46398,112.269885 15.4674696,113.517635 C15.47098,114.765735 16.35438,115.271485 17.44043,114.644635 L91.82243,71.700335 C92.90848,71.073135 93.78593,69.550635 93.7824404,68.302535 C93.77893,67.054785 92.89553,66.551135 91.80948,67.178335" id="Fill-28" fill="#241DBA" mask="url(#mask-12)"></path>
                        </g>
                        <g id="Group-33">
                            <mask id="mask-14" fill="white">
                                <use xlink:href="#path-13"></use>
                            </mask>
                            <g id="Clip-32"></g>
                            <path d="M59.689175,68.447155 L17.378725,92.875055 C16.292675,93.502255 15.415225,95.021955 15.4187146,96.270055 C15.422225,97.517805 16.305625,98.021455 17.391675,97.394255 L59.702125,72.966355 C60.788175,72.339505 61.665625,70.819455 61.6621354,69.571355 C61.658625,68.323605 60.775225,67.820305 59.689175,68.447155" id="Fill-31" fill="#241DBA" mask="url(#mask-14)"></path>
                        </g>
                        <g id="Group-36">
                            <mask id="mask-16" fill="white">
                                <use xlink:href="#path-15"></use>
                            </mask>
                            <g id="Clip-35"></g>
                            <path d="M91.76062,49.93072 L65.79447,64.92227 C64.70842,65.54947 63.82852,67.07057 63.8320096,68.31867 C63.83552,69.56642 64.72102,70.06867 65.80707,69.44182 L91.77357,54.44992 C92.85962,53.82307 93.73707,52.30302 93.7335804,51.05492 C93.73007,49.80682 92.84667,49.30352 91.76062,49.93072" id="Fill-34" fill="#241DBA" mask="url(#mask-16)"></path>
                        </g>
                        <g id="Group-39">
                            <mask id="mask-18" fill="white">
                                <use xlink:href="#path-17"></use>
                            </mask>
                            <g id="Clip-38"></g>
                            <path d="M59.76411,94.874535 L17.45366,119.302435 C16.36761,119.929635 15.49016,121.449685 15.4936496,122.697435 C15.49716,123.945185 16.38056,124.451285 17.46661,123.824435 L59.77706,99.396535 C60.86311,98.769335 61.74056,97.246835 61.7370704,95.998735 C61.73356,94.750985 60.85016,94.247335 59.76411,94.874535" id="Fill-37" fill="#241DBA" mask="url(#mask-18)"></path>
                        </g>
                        <g id="Group-42">
                            <mask id="mask-20" fill="white">
                                <use xlink:href="#path-19"></use>
                            </mask>
                            <g id="Clip-41"></g>
                            <path d="M91.83552,76.3581 L65.86937,91.34965 C64.78332,91.97685 63.90342,93.4983 63.9069096,94.74605 C63.91042,95.9938 64.79592,96.4985 65.88197,95.87165 L91.84847,80.8801 C92.93452,80.2529 93.81197,78.7304 93.8084804,77.4823 C93.80497,76.23455 92.92157,75.73125 91.83552,76.3581" id="Fill-40" fill="#241DBA" mask="url(#mask-20)"></path>
                        </g>
                        <g id="Group-45">
                            <mask id="mask-22" fill="white">
                                <use xlink:href="#path-21"></use>
                            </mask>
                            <g id="Clip-44"></g>
                            <path d="M44.59952,86.12506 L17.40417,101.82641 C16.31812,102.45326 15.44067,103.97331 15.4441596,105.22141 C15.44767,106.47161 16.33107,106.97526 17.41677,106.34806 L44.61247,90.64671 C45.69852,90.01986 46.57597,88.49981 46.5724804,87.24926 C46.56897,86.00151 45.68557,85.49821 44.59952,86.12506" id="Fill-43" fill="#241DBA" mask="url(#mask-22)"></path>
                        </g>
                        <g id="Group-48">
                            <mask id="mask-24" fill="white">
                                <use xlink:href="#path-23"></use>
                            </mask>
                            <g id="Clip-47"></g>
                            <path d="M90.82955,59.43413 L50.25545,82.85963 C49.1694,83.48648 48.2895,85.00793 48.2929896,86.25603 C48.2965,87.50623 49.18235,88.00848 50.2684,87.38128 L90.8425,63.95578 C91.93065,63.32753 92.8081,61.80748 92.8046104,60.55693 C92.8011,59.30918 91.91805,58.80588 90.82955,59.43413" id="Fill-46" fill="#241DBA" mask="url(#mask-24)"></path>
                        </g>
                    </g>
                </g>
                <polygon id="Path-32" fill="url(#linearGradient-25)" points="182.188135 23.1858445 285.032832 98.3451078 293.622967 211.729123 195.324 268.743075 72.1134216 162.402187 72.1134216 77.9863223 104.076132 60.5460053 105.52024 66.2966883"></polygon>
                <g id="Group-254" transform="translate(150.000000, 82.000000)">
                    <g id="iMac_2" fill-rule="nonzero">
                        <path d="M100.32,176.82 L137.664,194.496 C138.844699,195.052275 139.620103,196.216809 139.677998,197.520703 C139.735893,198.824597 139.066751,200.05327 137.94,200.712 L98.796,223.62 C93.9523659,226.455159 87.8867893,226.139146 83.364,222.816 L54.336,201.6 C53.6833174,201.122568 53.3149491,200.348549 53.3560554,199.540931 C53.3971617,198.733313 53.8422151,198.000696 54.54,197.592 L89.136,177.348 C92.5483972,175.33702 96.7333245,175.139449 100.32,176.82 Z" id="Path" fill="url(#linearGradient-26)"></path>
                        <path d="M91.368,126.552 C90.8933566,126.841889 90.5395927,127.293684 90.372,127.824 C90.3215648,127.927843 90.2813746,128.036357 90.252,128.148 L88.956,132.948 L53.556,153.516 L51.072,152.088 C50.1779591,151.442745 49.0089807,151.319455 48,151.764 L52.968,148.86 L91.368,126.552 Z" id="Path" fill="url(#linearGradient-27)"></path>
                        <path d="M48,151.776 L48,151.776 C47.9388458,151.80327 47.8821973,151.839686 47.832,151.884 L48,151.776 Z" id="Path" fill="url(#linearGradient-28)"></path>
                        <path d="M91.368,126.552 C90.8933566,126.841889 90.5395927,127.293684 90.372,127.824 C90.3215648,127.927843 90.2813746,128.036357 90.252,128.148 L88.956,132.948 L53.556,153.516 L51.072,152.088 C50.1779591,151.442745 49.0089807,151.319455 48,151.764 L52.968,148.86 L91.368,126.552 Z" id="Path" fill="url(#linearGradient-27)"></path>
                        <path d="M88.728,121.992 C90.216,121.128 92.328,121.272 94.5,122.556 L96.984,123.984 L53.58,149.184 L51.096,147.744 C48.876,146.46 46.812,146.316 45.324,147.18 L88.728,121.992 Z" id="Path" fill="url(#linearGradient-29)"></path>
                        <polygon id="Path" fill="#E6E6E6" points="96.972 123.984 96.96 128.292 88.968 132.948 53.556 153.516 53.58 149.208 90.372 127.824"></polygon>
                        <path d="M130.0802,194.568 L130.0802,198.84 C130.093481,200.105216 129.423813,201.279428 128.328,201.912 L89.184,224.808 C84.3427236,227.646651 78.2772355,227.335358 73.752,224.016 L41.772,200.58 C38.9544236,198.802994 36.7217669,196.236482 35.352,193.2 C33.8742375,190.481618 33.3824233,187.335702 33.96,184.296 L43.2,150.18 C43.4738178,148.924175 44.255866,147.837997 45.36,147.18 L45.672,147.024 L45.996,146.904 C46.1911599,146.837699 46.3920066,146.789495 46.596,146.76 C46.6992069,146.741836 46.8047931,146.741836 46.908,146.76 C47.0757729,146.747648 47.2442271,146.747648 47.412,146.76 C48.6886865,146.802139 49.9311787,147.18317 51.012,147.864 L52.896,148.944 L53.496,149.292 L53.496,153.6 L51.012,152.172 C50.1179591,151.526745 48.9489807,151.403455 47.94,151.848 C47.8788458,151.87527 47.8221973,151.911686 47.772,151.956 C47.7024297,151.996086 47.6379618,152.044436 47.58,152.1 C47.5342105,152.138366 47.4938418,152.182772 47.46,152.232 C47.3911462,152.287084 47.3305315,152.351739 47.28,152.424 C47.2403218,152.461868 47.207801,152.506585 47.184,152.556 C47.1100255,152.651287 47.0494618,152.756264 47.004,152.868 L47.004,152.94 C46.9331097,153.108006 46.872988,153.280354 46.824,153.456 L37.572,187.62 C37.2528668,189.256492 37.5115871,190.953018 38.304,192.42 C39.0498371,194.049468 40.2551382,195.425763 41.772,196.38 L45.036,198.78 L73.752,219.72 C78.2794333,223.033181 84.3411698,223.344281 89.184,220.512 L128.328,197.604 C129.418095,196.983334 130.088053,195.82238 130.0802,194.568 Z" id="Path" fill="#EEEFF7"></path>
                        <path d="M37.584,187.536 L46.8,153.372 C46.9472637,152.716915 47.3486926,152.147145 47.916,151.788 L91.332,126.588 C90.7553934,126.939728 90.3478152,127.512072 90.204,128.172 L80.94,162.336 C80.6245185,163.973878 80.887492,165.670481 81.684,167.136 C82.3572478,168.736495 83.4940016,170.098928 84.948,171.048 L128.016,191.448 C129.195899,192.008072 129.969841,193.174168 130.027665,194.478967 C130.085488,195.783765 129.41773,197.013751 128.292,197.676 L89.196,220.512 C84.3531698,223.344281 78.2914333,223.033181 73.764,219.72 L41.784,196.284 C40.2678854,195.332298 39.0658246,193.954937 38.328,192.324 C37.5342811,190.861887 37.2713851,189.170024 37.584,187.536 Z" id="Path" fill="#FFFFFF"></path>
                        <path d="M8.484,84.228 L152.4,1.2 C154.8,-0.156 156.912,-0.288 158.4,0.612 L162.204,2.82 C160.656,1.92 158.508,2.04 156.144,3.408 L12.288,86.4 C7.25774426,89.6646296 4.10158445,95.1466158 3.804,101.136 L4.14,218.604 C4.14,221.292 5.1,223.176 6.624,224.064 L2.832,221.856 C1.296,220.968 0.36,219.084 0.348,216.408 L0,98.928 C0.314694257,92.9532701 3.46809379,87.489459 8.484,84.228 Z" id="Path" fill="url(#linearGradient-30)"></path>
                        <path d="M4.08,200.904 L4.14,218.616 C4.14,224.004 7.992,226.188 12.684,223.416 L156.552,140.4 C161.561691,137.138236 164.71371,131.681275 165.036,125.712 L164.976,108 L4.08,200.904" id="Path" fill="#EEEFF7"></path>
                        <path d="M12.276,86.4 C7.25453437,89.6729552 4.10119801,95.1500373 3.792,101.136 L4.08,200.904 L164.976,108 L164.688,8.232 C164.688,2.832 160.848,0.648 156.156,3.36 L12.276,86.4" id="Path" fill="url(#linearGradient-31)"></path>
                        <polygon id="Path" fill="url(#linearGradient-32)" points="156.792 13.344 11.712 97.104 11.964 186.012 157.044 102.264"></polygon>
                        <path d="M48,151.776 L48,151.776 C47.9388458,151.80327 47.8821973,151.839686 47.832,151.884 L48,151.776 Z" id="Path" fill="url(#linearGradient-28)"></path>
                        <path d="M156.156,3.372 L12.276,86.4 C7.25453437,89.6729552 4.10119801,95.1500373 3.792,101.136 L4.08,200.904 L156.156,3.372 Z" id="Path" fill="url(#linearGradient-33)"></path>
                    </g>
                    <g id="Group-7" transform="translate(68.000000, 66.000000)">
                        <g id="Group-3" transform="translate(0.000000, 0.972570)">
                            <mask id="mask-35" fill="white">
                                <use xlink:href="#path-34"></use>
                            </mask>
                            <g id="Clip-2"></g>
                            <path d="M26.0338,9.42701 C25.1277,9.95061 24.259,11.04541 23.8442,12.29661 C23.2849,14.00681 23.8,15.37191 25.0172,15.33111 C25.8536,15.29711 26.6475,15.38891 27.3989,15.59291 C27.9531,15.74591 28.4869,15.97541 28.9867,16.24911 C29.3029,16.42931 29.6089,16.64011 29.8911,16.86451 C30.3705,17.24871 31.0675,17.19771 31.7611,16.79651 C32.3034,16.48371 32.8576,15.95161 33.3115,15.25121 C34.34,13.68381 34.476,11.84271 33.6158,11.15421 C33.2333,10.84821 32.8202,10.57621 32.3952,10.33311 C31.7424,9.94891 31.0233,9.65141 30.2736,9.44741 C29.2723,9.17711 28.1945,9.06151 27.064,9.10231 C26.7308,9.11081 26.3806,9.22811 26.0338,9.42701" id="Fill-1" fill="#FFFFFF" mask="url(#mask-35)"></path>
                        </g>
                        <g id="Group-6" transform="translate(0.000000, 0.972570)">
                            <mask id="mask-37" fill="white">
                                <use xlink:href="#path-36"></use>
                            </mask>
                            <g id="Clip-5"></g>
                            <path d="M18.96163,11.69379 C8.15133,17.93449 -0.55607,33.43169 0.06443,45.66489 C0.60673,56.43269 8.42503,60.88839 18.05383,55.91589 C18.40233,55.73569 18.74913,55.54699 19.09253,55.34809 C29.56453,49.30289 38.05263,34.59279 38.0187318,22.56529 L38.0187318,22.52789 C38.01353,21.00639 36.91363,20.40459 35.57913,21.17639 L32.99513,22.66729 L28.13313,25.47399 C27.04513,21.46709 23.35613,20.17509 18.99223,22.69449 C13.79363,25.69499 9.57423,32.99139 9.59123,38.97709 C9.60823,44.95089 13.85483,47.37169 19.05343,44.36949 C23.41733,41.85009 27.08763,36.29789 28.14843,31.04999 L32.96793,28.26709 C31.84423,36.56139 26.05403,45.74479 19.08573,49.76699 C18.85623,49.89959 18.62843,50.02539 18.39723,50.14609 C11.04813,54.00169 5.10153,50.47759 4.88223,42.13399 C4.64933,33.11039 11.02093,21.91249 18.91233,17.30549 C20.23663,16.54219 21.36203,14.70449 21.40113,13.17109 C21.42833,11.56799 20.32843,10.90499 18.96163,11.69379 M19.03813,38.79519 C16.51023,40.25549 14.45153,39.07059 14.4430036,36.17549 C14.43453,33.27019 16.47963,29.71719 19.00923,28.25689 C21.53713,26.79659 23.60603,27.97469 23.6145563,30.88169 C23.62303,33.77509 21.56773,37.33489 19.03813,38.79519" id="Fill-4" fill="#FFFFFF" mask="url(#mask-37)"></path>
                        </g>
                    </g>
                </g>
                <text id="PMS-Copy-2" font-family="Gilroy-ExtraBold, Gilroy" font-size="16" font-weight="600" line-spacing="18" letter-spacing="0.888888896" fill="#FFFFFF">
                    <tspan x="0" y="15">PMS</tspan>
                </text>
                <text id="GOGUEST-DASHBOARD" font-family="Gilroy-ExtraBold, Gilroy" font-size="16" font-weight="600" line-spacing="18" letter-spacing="0.888888896" fill="#FFFFFF">
                    <tspan x="336" y="63">GOGUEST</tspan>
                    <tspan x="336" y="81">DASHBOARD</tspan>
                </text>
                <path id="Path-31-Copy-11" d="M410.855647,91.75 L411.052482,91.8458695 L433.9588,121.097984 C435.364774,120.17193 437.336204,120.545829 438.471993,121.996303 C439.663728,123.518224 439.484186,125.64907 438.070974,126.755681 C436.657761,127.862293 434.546034,127.525618 433.354299,126.003697 C432.218485,124.553191 432.328276,122.549564 433.564542,121.406695 L410.733,92.25 L312,92.25 L312,91.75 L410.855647,91.75 Z" fill="#FFFFFF" fill-rule="nonzero"></path>
                <path id="Path-31-Copy-10" d="M33.9381195,19.75 L34.1349539,19.8458695 L57.041272,49.097984 C58.4472462,48.1719299 60.4186762,48.545829 61.5544652,49.9963029 C62.7462005,51.5182238 62.566658,53.6490701 61.1534458,54.7556814 C59.7402336,55.8622927 57.6285065,55.5256179 56.4367712,54.0036971 C55.30086,52.553067 55.4107668,50.5492228 56.6473298,49.4064028 L33.816,20.25 L1.31450406e-12,20.25 L1.31450406e-12,19.75 L33.9381195,19.75 Z" fill="#FFFFFF" fill-rule="nonzero"></path>
                <g id="Group-256" transform="translate(124.000000, 142.000000)">
                    <circle id="Oval" fill="#FFFFFF" cx="5.5" cy="5.5" r="1.5"></circle>
                    <circle id="Oval" fill="url(#radialGradient-38)" cx="5.5" cy="5.5" r="5.5"></circle>
                </g>
                <g id="Group-256-Copy-5" transform="translate(126.000000, 180.000000)">
                    <circle id="Oval" fill="#FFFFFF" cx="5.5" cy="5.5" r="1.5"></circle>
                    <circle id="Oval" fill="url(#radialGradient-38)" cx="5.5" cy="5.5" r="5.5"></circle>
                </g>
                <g id="Group-256-Copy" transform="translate(160.000000, 138.000000)">
                    <circle id="Oval" fill="#FFFFFF" cx="5.5" cy="5.5" r="1.5"></circle>
                    <circle id="Oval" fill="url(#radialGradient-38)" cx="5.5" cy="5.5" r="5.5"></circle>
                </g>
                <g id="Group-256-Copy-2" transform="translate(208.000000, 116.000000)">
                    <circle id="Oval" fill="#FFFFFF" cx="5.5" cy="5.5" r="1.5"></circle>
                    <circle id="Oval" fill="url(#radialGradient-38)" cx="5.5" cy="5.5" r="5.5"></circle>
                </g>
                <g id="Group-256-Copy-3" transform="translate(234.000000, 82.000000)">
                    <circle id="Oval" fill="#FFFFFF" cx="5.5" cy="5.5" r="1.5"></circle>
                    <circle id="Oval" fill="url(#radialGradient-38)" cx="5.5" cy="5.5" r="5.5"></circle>
                </g>
                <g id="Group-256-Copy-6" transform="translate(196.000000, 66.000000)">
                    <circle id="Oval" fill="#FFFFFF" cx="5.5" cy="5.5" r="1.5"></circle>
                    <circle id="Oval" fill="url(#radialGradient-38)" cx="5.5" cy="5.5" r="5.5"></circle>
                </g>
                <g id="Group-256-Copy-4" transform="translate(176.000000, 108.000000)">
                    <circle id="Oval" fill="#FFFFFF" cx="5.5" cy="5.5" r="1.5"></circle>
                    <circle id="Oval" fill="url(#radialGradient-38)" cx="5.5" cy="5.5" r="5.5"></circle>
                </g>
            </g>
        </g>
    </g>
</svg>