<?xml version="1.0" encoding="UTF-8"?>
<svg width="193px" height="181px" viewBox="0 0 193 181" version="1.1" xmlns="http://www.w3.org/2000/svg" xmlns:xlink="http://www.w3.org/1999/xlink">
    <!-- Generator: Sketch 63.1 (92452) - https://sketch.com -->
    <title>I_control_accesos</title>
    <desc>Created with Sketch.</desc>
    <g id="Planes---HACER-LO-ULTIMO" stroke="none" stroke-width="1" fill="none" fill-rule="evenodd">
        <g id="Planes" transform="translate(-222.000000, -446.000000)">
            <g id="I_control_accesos" transform="translate(222.000000, 446.000000)">
                <g id="Group-187">
                    <rect id="Rectangle" fill="#7E8FA4" fill-rule="nonzero" x="0" y="4.578525" width="91.5705" height="171.8037"></rect>
                    <polygon id="Path" fill="#C5CFDE" fill-rule="nonzero" points="58.4307 180.742725 0 176.296088 0 4.44663723 58.4307 0"></polygon>
                    <g id="Group-30" transform="translate(47.529450, 73.957500)" fill-rule="nonzero">
                        <circle id="Oval" fill="#7E8FA4" cx="3.4884" cy="11.3373" r="1.090125"></circle>
                        <polygon id="Path" fill="#7E8FA4" points="3.4884 11.555325 4.25162512 12.8636112 5.014575 14.171625 3.4884 14.171625 1.962225 14.171625 2.72517488 12.8636112"></polygon>
                        <ellipse id="Oval" fill="#000000" opacity="0.1" cx="3.5974125" cy="3.8154375" rx="3.5974125" ry="3.3793875"></ellipse>
                        <ellipse id="Oval" fill="#7E8FA4" cx="3.5974125" cy="3.3793875" rx="3.5974125" ry="3.3793875"></ellipse>
                    </g>
                    <polygon id="Path" fill="#7E8FA4" fill-rule="nonzero" points="62.35515 180.742725 56.904525 180.726246 57.1202577 0 62.35515 0"></polygon>
                    <g id="Group" transform="translate(56.686500, 0.000000)" fill="#FFFFFF" fill-rule="nonzero" opacity="0.146786644">
                        <polygon id="Path" points="5.5779516 180.78633 0.1360476 180.78633 0.4081428 -3.0983216e-13 5.5779516 -3.0983216e-13"></polygon>
                    </g>
                    <line x1="15.8068125" y1="2.398275" x2="15.8068125" y2="178.7805" id="Path" stroke="#000000" stroke-width="0.534375" opacity="0.1"></line>
                    <line x1="31.2865875" y1="1.526175" x2="31.2865875" y2="179.6526" id="Path" stroke="#000000" stroke-width="0.534375" opacity="0.1"></line>
                    <line x1="46.9843875" y1="0.8721" x2="46.9843875" y2="180.08865" id="Path" stroke="#000000" stroke-width="0.534375" opacity="0.1"></line>
                </g>
                <g id="Group-112-Copy" transform="translate(131.375000, 100.186200) scale(-1, 1) translate(-131.375000, -100.186200) translate(70.375000, 19.186200)" fill-rule="nonzero">
                    <path d="M74.1361309,73.1452045 C74.1361309,73.1452045 82.9893412,77.735758 79.710376,81.9984149 C76.4314109,86.2610718 70.8571679,77.0799649 70.8571679,76.4241697 C70.8571679,75.7683745 74.1361309,73.1452045 74.1361309,73.1452045 Z" id="Path" fill="#EFB7B9"></path>
                    <path d="M64.2992244,61.3409277 C64.2992244,61.3409277 70.2013639,68.5546533 71.8408465,69.5383428 C73.4803291,70.5220324 74.7919152,71.5057219 74.7919152,71.8336184 C74.7919152,72.161515 76.1035034,73.8009976 76.1035034,73.8009976 L70.8571679,78.391551 C70.8571679,78.391551 64.9550284,70.5220324 64.2992353,70.5220324 C63.6434423,70.5220324 64.2992244,61.3409277 64.2992244,61.3409277 Z" id="Path" fill="#000230"></path>
                    <polygon id="Path" fill="#EFB7B9" points="34.7885051 145.610398 30.8538079 152.168372 36.7559627 154.791431 42.3302078 153.151883 39.0511118 144.954579"></polygon>
                    <path d="M45.9370128,74.1288941 L42.6580477,105.279074 C42.6580477,105.279074 35.4443243,120.034422 35.4443243,131.838712 C35.4443243,143.643002 32.8211499,146.921956 32.8211499,146.921956 L41.0185694,148.233538 L49.8717798,119.378635 L64.6271275,92.4911122 L60.364464,65.603589 L53.1507384,62.9804168 L45.9370128,74.1288941 Z" id="Path" fill="#A5A7BF"></path>
                    <path d="M34.1327338,151.840395 C34.1327338,151.840395 31.6735099,148.39748 31.6735099,149.381169 C31.6735099,150.364859 26.9190082,161.349396 30.8537686,161.349396 C34.788529,161.349396 45.2812198,160.693603 47.2485946,161.349396 C49.2159693,162.005189 55.7739084,160.693603 55.1181154,156.758843 C54.4623223,152.824082 46.5928146,153.151981 46.5928146,153.151981 C46.5928146,153.151981 41.8498355,146.540899 40.6144579,148.862758 L39.3790803,151.184611 L34.1327338,151.840395 Z" id="Path" fill="#000230"></path>
                    <polygon id="Path" fill="#EFB7B9" points="69.5456145 145.610398 65.6109173 152.168372 71.5128541 154.791431 77.0870993 153.151883 73.8082213 144.954579"></polygon>
                    <path d="M68.8897757,151.840395 C68.8897757,151.840395 66.4305518,148.725376 66.4305518,149.709066 C66.4305518,150.692755 61.6760501,161.349396 65.6108105,161.349396 C69.5455709,161.349396 80.0382617,160.693603 82.0056364,161.349396 C83.9730112,162.005189 90.5309503,160.693603 89.8751572,156.758843 C89.2193642,152.824082 81.3498434,153.151981 81.3498434,153.151981 C81.3498434,153.151981 76.6068774,146.540899 75.3714998,148.862758 L74.1361309,151.184602 L68.8897757,151.840395 Z" id="Path" fill="#000230"></path>
                    <path d="M40.6906598,73.8009976 C40.6906598,73.8009976 41.6743516,82.6542079 46.9206959,90.8516231 C52.1670402,99.0490382 59.7086644,113.476489 59.7086644,113.476489 C59.7086644,113.476489 59.0528714,127.903941 62.6597353,136.101356 C66.2665992,144.298771 66.92239,148.561428 66.92239,148.561428 L75.7755982,146.266152 C75.7755982,146.266152 70.8571504,118.722836 72.8245295,112.4928 C74.7919087,106.262764 65.2829074,73.8009932 65.2829074,73.8009932 L56.4296993,66.2593711 L44.9533167,64.947785 L40.6906598,73.8009976 Z" id="Path" fill="#A5A7BF"></path>
                    <circle id="Oval" fill="#EFB7B9" cx="59.5885894" cy="12.3394906" r="7.54162211"></circle>
                    <path d="M53.4265619,12.7188716 L49.4796836,21.1625219 L60.560741,28.83797 C60.560741,28.83797 59.2563999,19.6969078 61.7136572,17.3820448 C64.1709145,15.0671818 53.4265619,12.7188716 53.4265619,12.7188716 Z" id="Path" fill="#EFB7B9"></path>
                    <path d="M62.0039488,29.5349545 C62.0039488,29.5349545 56.7576132,18.7143737 52.4949454,18.7143737 C48.2322776,18.7143737 37.0838047,26.255998 37.4117012,27.8954806 C37.7395977,29.5349632 37.7395977,29.8628597 37.7395977,30.8465493 C37.7395977,31.8302388 35.4443221,31.8302388 37.4117012,32.4860319 C39.3790803,33.1418249 39.7069768,33.7976201 39.7069768,33.7976201 L38.0674942,75.7683876 C38.0674942,75.7683876 45.2812198,78.3915597 47.904392,77.4078702 C50.5275641,76.4241806 53.1507384,69.8662481 53.1507384,69.8662481 C53.1507384,69.8662481 52.4949454,78.7194562 55.1181197,78.3915597 C57.741294,78.0636632 67.5781896,77.4078702 67.9060861,76.0962841 C68.2339826,74.784698 65.938707,45.9297935 65.938707,45.9297935 L62.0039488,29.5349545 Z" id="Path" fill="#000230"></path>
                    <path d="M38.0674942,78.0636545 C38.0674942,78.0636545 34.1327338,92.4911057 39.7069768,91.1795196 C45.2812198,89.8679335 43.6417372,78.391551 43.6417372,78.391551 L38.0674942,78.0636545 Z" id="Path" fill="#EFB7B9"></path>
                    <path d="M44.9533233,26.9117823 L35.4443243,51.1761312 C35.4443243,51.1761312 34.132736,53.7993056 35.4443243,55.7666847 C36.7559125,57.7340638 34.7885312,69.5383428 36.1001173,72.1615106 C37.4117034,74.7846784 37.4117034,79.3752362 37.4117034,79.3752362 L44.9533255,80.0310292 L46.5928081,51.1761269 L55.1181219,32.8139175 C55.1181219,32.8139175 54.4623245,25.2722976 44.9533233,26.9117823 Z" id="Path" fill="#000230"></path>
                    <path d="M47.4125472,26.092041 C47.4125472,26.092041 41.5104098,27.7315236 39.5430286,33.6336631 L47.4125472,26.092041 Z" id="Path" fill="#000000" opacity="0.1"></path>
                    <path d="M54.6462984,15.7801737 C55.3800375,15.7363942 56.0964873,15.9843628 56.8251377,16.0811005 C59.4320496,16.4272043 62.1440299,14.535506 62.7196355,11.9694869 C62.7657724,11.6277761 62.867618,11.2959405 63.0211204,10.9871818 C63.4223344,10.3321235 64.3360815,10.2072366 65.0893339,10.3578636 C65.8425863,10.5084905 66.5565964,10.8610304 67.3237043,10.90128 C68.5081316,10.9634171 69.6452345,10.2342434 70.2764648,9.23010745 C70.9076952,8.22597151 71.0864277,6.99038459 71.0012017,5.80739184 L70.4333949,6.40333047 C70.2026709,5.91521354 70.1135924,5.37213393 70.1762954,4.8358877 C69.5644251,4.67293553 68.9118431,4.8399193 68.4534422,5.27673425 C67.9527696,5.33001738 68.3306418,4.34807203 67.9586759,4.00872702 C67.8029211,3.86662922 67.5641248,3.89343758 67.353299,3.89547175 C66.2881793,3.90574073 65.4265488,3.09106197 64.5872158,2.43524059 C63.1329505,1.30145986 61.4323317,0.525740952 59.6228149,0.170782795 C58.42008,-0.063812105 57.141141,-0.101502087 56.000517,0.346362688 C55.0637857,0.714170863 54.2797286,1.38407012 53.5543245,2.08159532 C51.7685733,3.79871661 50.1872663,5.81627418 49.444357,8.17963902 C48.8404005,10.1154305 48.8232921,12.1867323 49.3951902,14.1322361 C49.6945385,15.1425879 50.596726,18.6027711 51.9174713,18.6833553 C53.5770274,18.7846083 52.5806336,15.9034254 54.6462984,15.7801737 Z" id="Path" fill="#000230"></path>
                    <polygon id="Path" fill="#000000" opacity="0.1" points="55.1821275 39.900323 47.459464 51.2267218 44.9896768 77.5360165"></polygon>
                    <rect id="Rectangle" fill="#3F3D56" x="0.0940320023" y="161.145628" width="121.245351" height="1"></rect>
                </g>
                <path d="M103.735288,84.2846277 C103.180954,84.6737817 103.085626,85.3893302 103.522397,85.8831594 C103.959424,86.3769887 104.76294,86.4621948 105.317018,86.0728119 C105.431003,85.9928738 108.133413,84.1368912 110.438921,86.0496779 C110.685037,86.2539895 110.9976,86.355 111.309653,86.355 C111.651863,86.355 111.99305,86.233146 112.244788,85.9924157 C112.726029,85.5324857 112.697149,84.8121271 112.180639,84.3838059 C109.068293,81.8012804 105.295295,83.1897744 103.735288,84.2846277 M119.26533,78.0212877 C113.214936,73.2870777 107.352899,73.5388023 103.499907,74.5832649 C99.3795869,75.7007941 96.7019669,77.9166124 96.5900267,78.0105224 C96.0758174,78.4411342 96.0510269,79.1614927 96.5343122,79.6195904 C97.0175974,80.077459 97.8264804,80.0996767 98.3406897,79.6690649 C98.3636912,79.6495958 100.689134,77.7253566 104.24413,76.7610611 C108.944596,75.4868625 113.430383,76.4857444 117.578815,79.7315953 C117.821608,79.9214767 118.12216,80.0146996 118.421689,80.0146996 C118.776422,80.0146996 119.129622,79.8836837 119.382126,79.6276071 C119.848032,79.1553084 119.79564,78.4360951 119.26533,78.0212877 M115.642863,81.1281059 C116.161928,81.5539077 116.195408,82.2738081 115.717746,82.7364867 C115.465752,82.9804237 115.122009,83.103881 114.776988,83.103881 C114.467747,83.103881 114.157483,83.0044739 113.911879,82.8031399 C108.237175,78.1507003 102.142312,82.568594 101.885463,82.7587045 C101.344419,83.1602271 100.538858,83.0967805 100.086753,82.615549 C99.634647,82.1345464 99.7033956,81.419227 100.242395,81.0151849 C102.999498,78.9477902 109.766513,76.3109802 115.642863,81.1281059" id="wifi" fill="#241DBA" transform="translate(107.943750, 80.156250) rotate(-90.000000) translate(-107.943750, -80.156250) "></path>
            </g>
        </g>
    </g>
</svg>