<?xml version="1.0" encoding="UTF-8"?>
<svg width="193px" height="156px" viewBox="0 0 193 156" version="1.1" xmlns="http://www.w3.org/2000/svg" xmlns:xlink="http://www.w3.org/1999/xlink">
    <!-- Generator: Sketch 63.1 (92452) - https://sketch.com -->
    <title>I_Pagos_contactless</title>
    <desc>Created with Sketch.</desc>
    <defs>
        <polygon id="path-1" points="0.100067797 9.82254278e-13 43.3000678 9.82254278e-13 43.3000678 30.24 0.100067797 30.24"></polygon>
        <circle id="path-3" cx="12.2544783" cy="12.2544783" r="12.2544783"></circle>
        <linearGradient x1="48.9831318%" y1="-1.69870728%" x2="52.0211715%" y2="51.8765724%" id="linearGradient-5">
            <stop stop-color="#5DBBF7" offset="0%"></stop>
            <stop stop-color="#4499CE" offset="100%"></stop>
        </linearGradient>
        <linearGradient x1="72.3427929%" y1="97.9969945%" x2="50%" y2="24.6051174%" id="linearGradient-6">
            <stop stop-color="#F4F5F7" offset="0%"></stop>
            <stop stop-color="#E0E4EC" offset="100%"></stop>
        </linearGradient>
        <linearGradient x1="66.385126%" y1="100%" x2="50%" y2="23.5453408%" id="linearGradient-7">
            <stop stop-color="#FFFFFF" offset="0%"></stop>
            <stop stop-color="#E0E4EC" offset="100%"></stop>
        </linearGradient>
        <circle id="path-8" cx="12.3722358" cy="12.3093873" r="12.2544783"></circle>
    </defs>
    <g id="Planes---HACER-LO-ULTIMO" stroke="none" stroke-width="1" fill="none" fill-rule="evenodd">
        <g id="Planes" transform="translate(-1028.000000, -461.000000)">
            <g id="I_Pagos_contactless" transform="translate(1028.000000, 446.000000)">
                <g id="Group-26" transform="translate(80.500000, 0.000000)">
                    <g id="Group-89-Copy" transform="translate(67.500000, 83.000000) rotate(-360.000000) translate(-67.500000, -83.000000) ">
                        <g id="Group-60" transform="translate(67.248483, 83.003038) rotate(21.000000) translate(-67.248483, -83.003038) translate(22.748483, 11.503038)">
                            <path d="M66.9322101,79.3026443 L68.031594,78.9016921 C72.4944593,77.2750063 75.890806,73.5797444 77.1400877,68.9910695 L82.3708785,49.7778748 C82.7311942,48.4538095 82.6730788,47.0506776 82.204548,45.7611287 L74.3802053,24.2337296 C72.5201102,19.1164721 66.8700867,16.4779741 61.7599355,18.3406558 L61.5366921,18.4221305 L56.8209244,5.44757509 C55.3423873,1.37945574 50.8506646,-0.718017793 46.7881947,0.762575367 L46.7881947,0.762575367 C42.7257247,2.24316853 40.631164,6.7411375 42.109701,10.8092568 L41.4511929,8.99794838 C39.9726559,4.92982904 35.4809332,2.8323555 31.4184632,4.31294866 L31.4184632,4.31294866 C27.3559933,5.79354183 25.2614325,10.2915108 26.7403704,14.3596301 L28.5836319,19.4311333 C27.1050949,15.363014 22.6133722,13.2655404 18.5509023,14.7461336 L18.5509023,14.7461336 C14.4884323,16.2267268 12.3938716,20.7246957 13.8724086,24.7928151 L15.4523471,29.1398751 C13.97381,25.0717558 9.48208739,22.9742822 5.41961744,24.4548754 L5.41961744,24.4548754 C1.35714748,25.9354686 -0.737413293,30.4334375 0.74112377,34.5015569 L1.62006977,36.9197119 L20.7961624,89.6768303 C21.9380307,92.8182243 25.4065207,94.4376858 28.5435523,93.294631 C29.7267026,92.8631759 31.0349013,93.4744373 31.4657572,94.659233 L48.9805497,142.847744 L85.2269519,129.636791 L66.9322101,79.3026443 Z" id="Path" fill="#FFB9B9" fill-rule="nonzero"></path>
                            <g id="Group-38-Copy-7" transform="translate(57.919587, 108.402400) rotate(-381.000000) translate(-57.919587, -108.402400) translate(31.419587, 92.402400)">
                                <g id="Group-44-Copy" transform="translate(26.920000, 16.060000) rotate(-180.000000) translate(-26.920000, -16.060000) translate(0.920000, 0.560000)">
                                    <g id="Group-3" transform="translate(5.179932, -0.000000)">
                                        <mask id="mask-2" fill="white">
                                            <use xlink:href="#path-1"></use>
                                        </mask>
                                        <g id="Clip-2"></g>
                                        <path d="M41.5107187,9.82254278e-13 C42.4989506,9.82254278e-13 43.3000678,1.1941605 43.3000678,2.66723788 L43.3000678,27.5727621 C43.3000678,29.0458395 42.4989506,30.24 41.5107187,30.24 L1.88941691,30.24 C0.901184956,30.24 0.100067797,29.0458395 0.100067797,27.5727621 L0.100067797,2.66723788 C0.100067797,1.1941605 0.901184956,9.82254278e-13 1.88941691,9.82254278e-13 L41.5107187,9.82254278e-13 Z M39.210127,7.23964568 L38.1876418,7.23964568 C37.9182169,7.23964568 37.6973601,7.55056941 37.6776773,7.94493958 L37.6763992,8.00171364 L37.6763992,22.6193203 C37.6763992,23.0209302 37.8849861,23.3501435 38.1495542,23.3791021 L38.1876418,23.3813883 L39.210127,23.3813883 C39.4795518,23.3813883 39.7004086,23.0704646 39.7200915,22.6760944 L39.7213696,22.6193203 L39.7213696,8.00171364 C39.7213696,7.60010383 39.5127826,7.27089047 39.2482145,7.24155085 L39.210127,7.23964568 Z M5.21249383,7.23964568 L4.19000863,7.23964568 C3.92058377,7.23964568 3.69972697,7.55056941 3.68004413,7.94493958 L3.67876602,8.00171364 L3.67876602,22.6193203 C3.67876602,23.0209302 3.887353,23.3501435 4.15192105,23.3791021 L4.19000863,23.3813883 L5.21249383,23.3813883 C5.48191868,23.3813883 5.70277549,23.0704646 5.72245833,22.6760944 L5.72373644,22.6193203 L5.72373644,8.00171364 C5.72373644,7.60010383 5.51514945,7.27089047 5.25058141,7.24155085 L5.21249383,7.23964568 Z" id="Fill-1" fill="#E0E4EC" mask="url(#mask-2)"></path>
                                    </g>
                                    <polygon id="Rectangle" fill="#7E8FA4" points="0.228753408 9.26791839 9.6 8.18806154 9.6 21.9588923 0.228753408 21.3197649"></polygon>
                                    <polygon id="Rectangle-Copy-54" fill="#7E8FA4" points="43.8488136 8.18806154 51.397961 8.91531327 51.397961 20.9932673 43.8488136 21.9588923"></polygon>
                                </g>
                                <g id="Group-Copy" transform="translate(26.720000, 16.400000) rotate(-360.000000) translate(-26.720000, -16.400000) translate(21.720000, 11.400000)" fill="#241DBA">
                                    <path d="M6.21949952,1.53919739 C6.4268994,1.63689585 6.62592512,1.75608798 6.81071478,1.89286582 C6.9494466,1.99558878 7.08175823,2.10975641 7.20430001,2.23201905 C7.28301706,2.31045696 7.35838444,2.39308194 7.42900647,2.47821918 C7.5481986,2.62197548 7.71986875,2.69622631 7.8929346,2.69622631 C8.02859589,2.69622631 8.16481546,2.65072674 8.27730826,2.5574945 C8.53327823,2.34507013 8.56872881,1.96516268 8.35658358,1.70919271 C8.26195564,1.59502508 8.16062838,1.48392798 8.05539318,1.37897191 C7.89125977,1.21511764 7.7137277,1.0624289 7.52754235,0.924534498 C7.27938826,0.740861391 7.01225275,0.580915052 6.73367257,0.449440837 C6.4327613,0.30735936 6.07378924,0.436321329 5.93170777,0.737232591 C5.78990543,1.03814385 5.91858826,1.39711591 6.21949952,1.53919739" id="Fill-1"></path>
                                    <path d="M4.72094469,5.860512 C4.09260401,5.860512 3.58150149,5.34940948 3.58150149,4.7210688 C3.58150149,4.09272812 4.09260401,3.5816256 4.72094469,3.5816256 C5.34928537,3.5816256 5.86038789,4.09272812 5.86038789,4.7210688 C5.86038789,5.34940948 5.34928537,5.860512 4.72094469,5.860512 M8.83656217,4.11785058 L8.19370629,4.11785058 L8.19398543,4.118688 L6.98643244,4.118688 C6.71985521,3.1171392 5.80539761,2.37658486 4.72094469,2.37658486 C3.42825447,2.37658486 2.37646075,3.42837858 2.37646075,4.7210688 C2.37646075,6.01375902 3.42825447,7.0652736 4.72094469,7.0652736 C5.80539761,7.0652736 6.71985521,6.32527754 6.98643244,5.3234496 L8.18449472,5.3234496 C7.88860795,7.02926474 6.36032487,8.31776788 4.55290333,8.23318892 C2.72566297,8.14777255 1.25460327,6.64461194 1.20603318,4.81597588 C1.15383429,2.83967557 2.74157386,1.21397317 4.70447552,1.20504074 C5.03218407,1.20336591 5.31355564,0.948512492 5.32304635,0.620803938 C5.33309533,0.279696738 5.05981878,5.8675526e-14 4.72094469,5.8675526e-14 C2.03256217,5.8675526e-14 -0.138018512,2.25850929 0.00685434985,4.97787618 C0.134141488,7.37120935 2.070525,9.30759286 4.46385817,9.43515914 C7.18322506,9.580032 9.44201349,7.40945132 9.44201349,4.7210688 L9.44201349,4.71492775 C9.44145521,4.38386954 9.16762038,4.11785058 8.83656217,4.11785058" id="Fill-3"></path>
                                </g>
                            </g>
                        </g>
                    </g>
                    <path d="M11.2848259,128.393616 C10.4266544,128.996298 10.2790758,130.104468 10.9552469,130.869261 C11.6318137,131.634054 12.875747,131.766013 13.7335229,131.162975 C13.9099842,131.039175 18.09362,128.164816 21.6628066,131.127148 C22.0438205,131.443565 22.5277043,131.6 23.0107967,131.6 C23.5405762,131.6 24.0687731,131.411285 24.4584914,131.038466 C25.2035062,130.326173 25.1587974,129.210554 24.3591825,128.547213 C19.5409191,124.547657 13.6998924,126.698017 11.2848259,128.393616 M35.3270819,118.693585 C25.9603905,111.361717 16.8852955,111.751563 10.9204294,113.369122 C4.54171024,115.099838 0.39645276,118.531475 0.223156704,118.676913 C-0.572897323,119.343801 -0.611275673,120.45942 0.136904329,121.168876 C0.885084332,121.877976 2.13732638,121.912385 2.9333804,121.245497 C2.96898918,121.215345 6.56903669,118.235277 12.0725712,116.741873 C19.349423,114.768523 26.2939261,116.31549 32.7161671,121.342337 C33.0920376,121.636407 33.5573256,121.780781 34.021031,121.780781 C34.5701975,121.780781 35.1169901,121.577877 35.5078954,121.181291 C36.229171,120.449842 36.1480621,119.335997 35.3270819,118.693585 M29.7190949,123.505113 C30.5226664,124.164552 30.5744969,125.279461 29.8350213,125.996011 C29.4449073,126.373796 28.9127539,126.564994 28.3786222,126.564994 C27.899882,126.564994 27.4195591,126.411042 27.0393365,126.099237 C18.2542552,118.894007 8.81872019,125.735995 8.42108883,126.03042 C7.58349123,126.652257 6.33639267,126.553998 5.63648235,125.808715 C4.93657202,125.063786 5.04300271,123.955972 5.87743508,123.330232 C10.1457407,120.128459 20.6218433,116.044833 29.7190949,123.505113" id="wifi" fill="#241DBA" transform="translate(17.800000, 122.000000) rotate(-90.000000) translate(-17.800000, -122.000000) "></path>
                </g>
                <g id="Group-29" transform="translate(0.000000, 22.000000)">
                    <path d="M3.744,0 L68.328,0 C70.3957541,-8.23929476e-16 72.072,1.6762459 72.072,3.744 L72.072,144.656 C72.072,146.723754 70.3957541,148.4 68.328,148.4 L3.744,148.4 C1.6762459,148.4 5.66525565e-14,146.723754 5.68434189e-14,144.656 L5.68434189e-14,3.744 C5.70342812e-14,1.6762459 1.6762459,-6.42489432e-17 3.744,0 Z" id="Rectangle" fill="#C5CFDE"></path>
                    <rect id="Rectangle-Copy-2" fill="#E0E4EC" x="6.552" y="80.384" width="58.968" height="61.152"></rect>
                    <g id="Group-28" transform="translate(10.296000, 86.664000)" fill="#C5CFDE">
                        <rect id="Rectangle" x="7.2475359e-14" y="7.2475359e-14" width="14.04" height="14.04" rx="2.808"></rect>
                        <rect id="Rectangle-Copy-11" x="7.2475359e-14" y="35.568" width="14.04" height="14.04" rx="2.808"></rect>
                        <rect id="Rectangle-Copy-7" x="7.2475359e-14" y="17.784" width="14.04" height="14.04" rx="2.808"></rect>
                        <rect id="Rectangle-Copy-3" x="18.72" y="7.2475359e-14" width="14.04" height="14.04" rx="2.808"></rect>
                        <rect id="Rectangle-Copy-17" x="18.72" y="35.568" width="14.04" height="14.04" rx="2.808"></rect>
                        <rect id="Rectangle-Copy-8" x="18.72" y="17.784" width="14.04" height="14.04" rx="2.808"></rect>
                        <rect id="Rectangle-Copy-4" x="37.44" y="7.2475359e-14" width="14.04" height="14.04" rx="2.808"></rect>
                        <rect id="Rectangle-Copy-19" x="37.44" y="35.568" width="14.04" height="14.04" rx="2.808"></rect>
                        <rect id="Rectangle-Copy-10" x="37.44" y="17.784" width="14.04" height="14.04" rx="2.808"></rect>
                    </g>
                    <g id="Group-27" transform="translate(6.400000, 8.688000)">
                        <rect id="Rectangle" fill="#FFFFFF" x="0" y="0" width="59.2" height="64.4" rx="0.8"></rect>
                        <g id="Group-Copy-9" transform="translate(17.600000, 14.000000)">
                            <g id="Group-Copy-6">
                                <mask id="mask-4" fill="white">
                                    <use xlink:href="#path-3"></use>
                                </mask>
                                <use id="Mask" stroke="#E0E4EC" stroke-width="0.5" fill="#FFFFFF" xlink:href="#path-3"></use>
                                <g id="Group-Copy-2" mask="url(#mask-4)">
                                    <g transform="translate(-0.117757, -0.054909)">
                                        <path d="M6.59537457,45.1145812 C6.59537457,45.1145812 5.42875848,35.2119293 5.1790517,32.6513958 C5.07075293,31.5410695 5.36535295,28.2532561 5.36535295,28.2532561 C5.83142919,27.3634716 5.74521592,28.9351944 6.6773684,29.3059077 L9.55156224,30.3436873 L8.77476851,45.1145812 C8.77476851,45.1145812 8.58694674,47.5454738 9.55156224,48.5984882 C11.4056037,50.6224668 7.23087433,54.9753374 6.6773684,50.9705093 C6.5144831,49.7920255 6.36231744,47.2946438 6.59537457,46.9240031 C6.82839368,46.627505 6.59537457,45.1145812 6.59537457,45.1145812 Z" id="Fill-1" stroke="none" fill="#F6B690" fill-rule="evenodd"></path>
                                        <path d="M20.3139877,42.7412941 C20.3139877,42.7412941 19.1473716,32.8386422 18.8976648,30.2781087 C18.789366,29.1677825 19.083966,25.879969 19.083966,25.879969 C19.5500423,24.9901845 19.463829,26.5619074 20.3959815,26.9326207 L23.2701753,27.9704003 L22.4933816,42.7412941 C22.4933816,42.7412941 22.3055598,45.1721868 23.2701753,46.2252012 C25.1242168,48.2491797 20.9494874,52.6020504 20.3959815,48.5972222 C20.2330962,47.4187384 20.0809305,44.9213568 20.3139877,44.550716 C20.5470068,44.2542179 20.3139877,42.7412941 20.3139877,42.7412941 Z" id="Fill-1-Copy" stroke="none" fill="#F6B690" fill-rule="evenodd"></path>
                                        <path d="M22.2665226,75.3017057 L18.8219717,75.3017057 L12.9122063,51.6115782 L12.9459903,75.3017057 L9.26506049,75.3017057 C9.26506049,75.3017057 4.29593262,47.7581599 7.63916782,40.8890433 L20.0377234,40.8890433 C20.071471,40.9225651 20.5442654,45.9487409 22.2665226,75.3017057 Z" id="Fill-2" stroke="none" fill="url(#linearGradient-5)" fill-rule="evenodd"></path>
                                        <polygon id="Fill-3" stroke="none" fill="url(#linearGradient-6)" fill-rule="evenodd" points="15.404383 15.227877 16.0710199 20.8644338 10.3180531 20.8644338 10.7467724 16.5290453"></polygon>
                                        <path d="M10.4583536,18.6413483 C10.4583536,18.6413483 11.218401,19.9322754 13.4428606,19.6777902 C15.6673202,19.423305 15.8021977,18.4994571 15.7977239,18.343152 C20.6638007,18.5669777 23.5576267,22.2499486 24.4792021,29.3920646 L20.0711602,29.3920646 C20.5163617,35.6226472 20.5163617,39.9988517 20.0711602,42.5206782 L7.06492001,42.5206782 L8.06313767,31.2304603 L5.21909603,29.3920646 C4.84808671,28.4280411 5.81852231,18.3074245 10.4583536,18.6413483 Z" id="Fill-4" stroke="none" fill="#C5CFDE" fill-rule="evenodd"></path>
                                        <path d="M15.6629068,15.0058187 C15.463199,15.6757308 14.3613642,16.4899204 13.7089974,16.7705005 C12.3227672,17.3660987 10.5297714,17.7960314 9.21976721,16.1691021 C8.01983538,14.688988 7.64756143,12.6589516 7.52917093,11.3470405 C7.43838814,10.5585888 7.80119659,9.8183505 8.40763419,9.31446644 C9.7836459,8.23637207 12.3368938,6.40861422 12.9179466,6.64569348 C13.4409157,6.85884731 15.0302239,8.46330115 16.0394832,9.4899196 C16.5787659,10.0855178 16.7684704,10.8801321 16.6033977,11.6323331 L15.6629068,15.0058187 Z" id="Fill-8" stroke="none" fill="url(#linearGradient-7)" fill-rule="evenodd"></path>
                                        <path d="M13.6104809,7.9375629 C13.6104809,7.9375629 14.27579,10.6416484 14.439605,10.5711955 C14.6034559,10.5011057 15.2159971,9.6425967 15.7914385,10.2737679 C16.4561353,11.002629 15.6144045,12.5547726 15.6144045,12.5547726 C15.6144045,12.5547726 15.37232,15.06711 15.8699602,14.7562454 C16.3676003,14.4453809 19.5908792,9.54163836 16.5536751,5.03301332 C16.5536751,5.03301332 14.1207637,2.26029063 11.7108686,3.29674781 C10.3882106,3.86581873 6.99285371,4.55840948 5.76343565,5.62081373 C4.53401759,6.68321798 4.12380156,7.5395401 4.82033927,9.19155261 C5.51684096,10.843202 7.46691602,11.2982408 8.30162307,11.1544296 C10.7346425,10.7349804 13.128293,8.97329376 13.6104809,7.9375629 Z" id="Fill-9" stroke="none" fill="#7E8FA4" fill-rule="evenodd"></path>
                                        <mask id="mask-9" fill="white">
                                            <use xlink:href="#path-8"></use>
                                        </mask>
                                        <use id="Mask" stroke="#E0E4EC" stroke-width="0.93312" fill="none" xlink:href="#path-8"></use>
                                    </g>
                                </g>
                            </g>
                        </g>
                        <line x1="12.4" y1="45.2" x2="48" y2="45.2" id="Line-4" stroke="#C5CFDE" stroke-width="2" stroke-linecap="round"></line>
                        <line x1="12.4" y1="51.6" x2="48" y2="51.6" id="Line-4-Copy" stroke="#C5CFDE" stroke-width="2" stroke-linecap="round"></line>
                    </g>
                </g>
            </g>
        </g>
    </g>
</svg>