<?xml version="1.0" encoding="UTF-8"?>
<svg width="212px" height="164px" viewBox="0 0 212 164" version="1.1" xmlns="http://www.w3.org/2000/svg" xmlns:xlink="http://www.w3.org/1999/xlink">
    <!-- Generator: Sketch 63.1 (92452) - https://sketch.com -->
    <title>Webapp_personalizable</title>
    <desc>Created with Sketch.</desc>
    <defs>
        <polygon id="path-1" points="6.10615385 0 50.5938462 0 56.7 20.7 0 20.7"></polygon>
        <rect id="path-3" x="9.9" y="9.9" width="176.4" height="105.3"></rect>
        <circle id="path-5" cx="27.5725763" cy="27.5725763" r="27.5725763"></circle>
        <linearGradient x1="48.9831318%" y1="-1.69870728%" x2="52.0211715%" y2="51.8765724%" id="linearGradient-7">
            <stop stop-color="#5DBBF7" offset="0%"></stop>
            <stop stop-color="#4499CE" offset="100%"></stop>
        </linearGradient>
        <linearGradient x1="72.3427929%" y1="97.9969945%" x2="50%" y2="24.6051174%" id="linearGradient-8">
            <stop stop-color="#F4F5F7" offset="0%"></stop>
            <stop stop-color="#E0E4EC" offset="100%"></stop>
        </linearGradient>
        <linearGradient x1="66.385126%" y1="100%" x2="50%" y2="23.5453408%" id="linearGradient-9">
            <stop stop-color="#FFFFFF" offset="0%"></stop>
            <stop stop-color="#E0E4EC" offset="100%"></stop>
        </linearGradient>
        <circle id="path-10" cx="27.8375305" cy="27.6961213" r="27.5725763"></circle>
        <circle id="path-12" cx="13.7862881" cy="13.7862881" r="13.7862881"></circle>
        <linearGradient x1="48.9831318%" y1="-1.69870728%" x2="52.0211715%" y2="51.8765724%" id="linearGradient-14">
            <stop stop-color="#5DBBF7" offset="0%"></stop>
            <stop stop-color="#4499CE" offset="100%"></stop>
        </linearGradient>
        <linearGradient x1="72.3427929%" y1="97.9969945%" x2="50%" y2="24.6051174%" id="linearGradient-15">
            <stop stop-color="#F4F5F7" offset="0%"></stop>
            <stop stop-color="#E0E4EC" offset="100%"></stop>
        </linearGradient>
        <linearGradient x1="66.385126%" y1="100%" x2="50%" y2="23.5453408%" id="linearGradient-16">
            <stop stop-color="#FFFFFF" offset="0%"></stop>
            <stop stop-color="#E0E4EC" offset="100%"></stop>
        </linearGradient>
        <circle id="path-17" cx="13.9187652" cy="13.8480607" r="13.7862881"></circle>
    </defs>
    <g id="Planes---HACER-LO-ULTIMO" stroke="none" stroke-width="1" fill="none" fill-rule="evenodd">
        <g id="Planes" transform="translate(-612.000000, -452.000000)">
            <g id="Webapp_personalizable" transform="translate(612.000000, 452.000000)">
                <g id="Group-14">
                    <rect id="Substrate" stroke="#A3ADBD" stroke-width="0.9" fill="#A3ADBD" x="66.15" y="159.75" width="63.9" height="3.6" rx="1.8"></rect>
                    <g id="Leg-Mask" transform="translate(69.750000, 138.600000)">
                        <mask id="mask-2" fill="white">
                            <use xlink:href="#path-1"></use>
                        </mask>
                        <use id="Mask" fill="#C5CFDE" xlink:href="#path-1"></use>
                        <polygon id="Path-2" fill="#7E8FA4" opacity="0.380208333" mask="url(#mask-2)" points="5.85 0 50.85 0 51.75 2.7 4.05 6.75"></polygon>
                    </g>
                    <rect id="Mac-Form" stroke="#C5CFDE" stroke-width="0.9" fill="#C5CFDE" x="0.45" y="0.45" width="195.3" height="137.7" rx="8.1"></rect>
                    <rect id="Screen-Form" stroke="#C5CFDE" stroke-width="0.9" fill="#FFFFFF" x="9.45" y="9.45" width="177.3" height="106.2"></rect>
                    <mask id="mask-4" fill="white">
                        <use xlink:href="#path-3"></use>
                    </mask>
                    <use id="Mask" fill="#FFFFFF" xlink:href="#path-3"></use>
                    <circle id="Apple-Logo" stroke="#C5CFDE" stroke-width="0.9" fill="#F5F6FA" mask="url(#mask-4)" cx="98.1" cy="126.9" r="4.05"></circle>
                </g>
                <circle id="Camera" fill="#7E8FA4" cx="98.1" cy="5.4" r="1"></circle>
                <g id="Group-68" transform="translate(42.150000, 33.100000)">
                    <g id="Group-66-Copy" transform="translate(87.000000, 10.000000)" fill-rule="nonzero">
                        <path d="M17.4997953,91.379836 C17.4997953,91.379836 11.9915114,104.226633 40.9476901,107.654659 L40.9476901,120.646 L74.4225944,120.646 L74.4225944,86.2446331 L17.0745944,84.682 L17.4997953,91.379836 Z" id="Path" fill="#FFB9B9"></path>
                        <circle id="Oval" fill="#FFB9B9" cx="56.4405944" cy="88.084" r="24.786"></circle>
                        <rect id="Rectangle" fill="#FFB9B9" transform="translate(71.280000, 69.616000) rotate(-13.010000) translate(-71.280000, -69.616000) " x="65.448" y="46.774" width="11.664" height="45.684" rx="5.75424"></rect>
                        <g id="Group-63" transform="translate(43.005377, 58.803128) rotate(-21.000000) translate(-43.005377, -58.803128) translate(17.005377, 6.803128)">
                            <path d="M51.516,24.4842507 L50.9483306,24.4842507 L50.9483306,8.97584639 C50.9483338,4.01862699 46.9186459,-8.8402885e-13 41.9477703,-8.8402885e-13 L9.00058872,-8.8402885e-13 C6.61348922,-8.8402885e-13 4.32415678,0.945655077 2.6362188,2.62894845 C0.948280827,4.31224183 2.21007213e-13,6.59528074 2.21007213e-13,8.97582232 L2.21007213e-13,94.0561536 C2.21007213e-13,96.4366948 0.948268591,98.7197359 2.63620165,100.403034 C4.32413471,102.086331 6.61346403,103.032 9.00056317,103.032 L41.9477277,103.032 C46.9186018,103.032 50.9483015,99.0134027 50.9483164,94.0561848 L50.9483164,35.5233972 L51.516,35.5233972 L51.516,24.4842507 Z" id="Path-Copy-4" fill="#C5CFDE"></path>
                            <path d="M37.4105254,2.70955326 C37.8130765,3.68962999 37.6979273,4.80439077 37.1033944,5.68289551 C36.5088615,6.56140025 35.512961,7.08836941 34.4470871,7.08844969 L15.5286485,7.08844969 C14.4627722,7.0883725 13.4668686,6.56140301 12.8723351,5.68289585 C12.2778016,4.80438869 12.1626551,3.68962467 12.5652116,2.70955326 L8.53910797,2.70955326 C4.81837302,2.70955326 1.80211309,5.70482286 1.80211309,9.39968243 L1.80211309,94.19141 C1.80211309,95.9657452 2.51189892,97.6674087 3.77532894,98.9220539 C5.03875896,100.176699 6.75233843,100.881553 8.53909943,100.881553 L41.7211182,100.881553 C43.5078792,100.881553 45.2214596,100.176704 46.4848912,98.9220599 C47.7483228,97.6674162 48.4581131,95.9657536 48.4581131,94.1914184 L48.4581131,9.39968243 C48.4581131,7.62534873 47.7483205,5.92368816 46.4848888,4.66904663 C45.2214572,3.41440509 43.5078777,2.70955326 41.7211182,2.70955326 L37.4105254,2.70955326 Z" id="Path-Copy-8" fill="#FFFFFF"></path>
                        </g>
                        <g id="Group-65" transform="translate(10.044000, 48.718000)" fill="#FFB9B9">
                            <path d="M28.2847433,20.6715082 L28.2847433,20.6715082 C26.5925469,23.3261945 23.0618425,24.1242164 20.3815708,22.4578103 L3.64396032,11.4859114 C0.973816023,9.80351143 0.171147318,6.29324697 1.84725674,3.62849185 L1.84725674,3.62849185 C3.53945313,0.973805509 7.07015749,0.175783603 9.7504292,1.84218971 L26.4880397,12.8140886 C29.158184,14.4964886 29.9608527,18.006753 28.2847433,20.6715082 L28.2847433,20.6715082 Z" id="Path" transform="translate(15.066000, 12.150000) rotate(-4.000000) translate(-15.066000, -12.150000) "></path>
                            <path d="M23.6313773,40.144309 L23.6313773,40.144309 C21.9008725,42.7662168 18.290239,43.5543852 15.5492906,41.9085549 L3.93104334,34.6842723 C1.20045155,33.0226457 0.379611797,29.555724 2.09366546,26.9238718 L2.09366546,26.9238718 C3.82652308,24.2981779 7.4441871,23.5119907 10.1856519,25.1653293 L21.8038991,32.389612 C24.5273866,34.054122 25.3432416,37.5161104 23.6313773,40.144309 Z" id="Path"></path>
                            <path d="M26.550421,30.4238814 L26.550421,30.4238814 C24.8276774,33.0462165 21.2332374,33.8345133 18.5045819,32.1884148 L3.91878846,23.0234892 C1.20044322,21.3615918 0.383284888,17.8941051 2.08965112,15.261824 L2.08965112,15.261824 C3.81255463,12.6371718 7.40995591,11.8486119 10.1394323,13.4972906 L24.7252257,22.6622162 C27.4421814,24.3253628 28.2575168,27.7925869 26.550421,30.4238814 L26.550421,30.4238814 Z" id="Path"></path>
                        </g>
                    </g>
                    <g id="Group-Copy-9" transform="translate(0.600000, 0.200000)">
                        <g id="Group-Copy-6">
                            <mask id="mask-6" fill="white">
                                <use xlink:href="#path-5"></use>
                            </mask>
                            <use id="Mask" stroke="#E0E4EC" stroke-width="1.08839117" fill="#FFFFFF" xlink:href="#path-5"></use>
                            <g id="Group-Copy-2" mask="url(#mask-6)">
                                <g transform="translate(-0.264954, -0.123545)">
                                    <path d="M14.8395928,101.507808 C14.8395928,101.507808 12.2147066,79.2268408 11.6528663,73.4656405 C11.4091941,70.9674065 12.0720441,63.5698261 12.0720441,63.5698261 C13.1207157,61.567811 12.9267358,65.1041874 15.0240789,65.9382924 L21.491015,68.2732965 L19.7432291,101.507808 C19.7432291,101.507808 19.3206302,106.977316 21.491015,109.346598 C25.6626084,113.90055 16.2694672,123.694509 15.0240789,114.683646 C14.657587,112.032057 14.3152142,106.412949 14.8395928,105.579007 C15.3638858,104.911886 14.8395928,101.507808 14.8395928,101.507808 Z" id="Fill-1" stroke="none" fill="#F6B690" fill-rule="evenodd"></path>
                                    <path d="M45.7064722,96.1679118 C45.7064722,96.1679118 43.081586,73.8869449 42.5197458,68.1257446 C42.2760736,65.6275106 42.9389236,58.2299302 42.9389236,58.2299302 C43.9875951,56.2279152 43.7936153,59.7642916 45.8909584,60.5983965 L52.3578945,62.9334006 L50.6101086,96.1679118 C50.6101086,96.1679118 50.1875096,101.63742 52.3578945,104.006703 C56.5294878,108.560654 47.1363467,118.354613 45.8909584,109.34375 C45.5244664,106.692161 45.1820937,101.073053 45.7064722,100.239111 C46.2307652,99.5719903 45.7064722,96.1679118 45.7064722,96.1679118 Z" id="Fill-1-Copy" stroke="none" fill="#F6B690" fill-rule="evenodd"></path>
                                    <path d="M50.0996759,169.428838 L42.3494364,169.428838 L29.0524642,116.126051 L29.1284782,169.428838 L20.8463861,169.428838 C20.8463861,169.428838 9.6658484,107.45586 17.1881276,92.0003475 L45.0848777,92.0003475 C45.1608098,92.0757716 46.2245971,103.384667 50.0996759,169.428838 Z" id="Fill-2" stroke="none" fill="url(#linearGradient-7)" fill-rule="evenodd"></path>
                                    <polygon id="Fill-3" stroke="none" fill="url(#linearGradient-8)" fill-rule="evenodd" points="34.6598618 34.2627232 36.1597948 46.944976 23.2156196 46.944976 24.180238 37.190352"></polygon>
                                    <path d="M23.5312956,41.9430337 C23.5312956,41.9430337 25.2414022,44.8476197 30.2464363,44.275028 C35.2514704,43.7024363 35.5549448,41.6237784 35.5448788,41.2720919 C46.4935515,41.7756998 53.0046602,50.0623843 55.0782048,66.1321453 L45.1601105,66.1321453 C46.1618138,80.1509562 46.1618138,89.9974164 45.1601105,95.6715259 L15.89607,95.6715259 L18.1420598,70.2685357 L11.7429661,66.1321453 C10.9081951,63.9630924 13.0916752,41.1917051 23.5312956,41.9430337 Z" id="Fill-4" stroke="none" fill="#C5CFDE" fill-rule="evenodd"></path>
                                    <path d="M35.2415402,33.7630922 C34.7921977,35.2703943 32.3130694,37.1023209 30.8452441,37.733626 C27.7262262,39.073722 23.6919856,40.0410706 20.7444762,36.3804798 C18.0446296,33.0502231 17.2070132,28.482641 16.9406346,25.5308411 C16.7363733,23.7568248 17.5526923,22.0912886 18.9171769,20.9575495 C22.0132033,18.5318372 27.758011,14.419382 29.0653798,14.9528103 C30.2420602,15.4324064 33.8180038,19.0424276 36.0888372,21.3523191 C37.3022233,22.6924151 37.7290584,24.4802972 37.3576449,26.1727495 L35.2415402,33.7630922 Z" id="Fill-8" stroke="none" fill="url(#linearGradient-9)" fill-rule="evenodd"></path>
                                    <path d="M30.623582,17.8595165 C30.623582,17.8595165 32.1205276,23.943709 32.4891112,23.7851899 C32.8577759,23.6274879 34.2359934,21.6958426 35.5307366,23.1159777 C37.0263045,24.7559152 35.1324102,28.2482384 35.1324102,28.2482384 C35.1324102,28.2482384 34.5877201,33.9009974 35.7074104,33.2015522 C36.8271007,32.5021071 44.0794781,21.4686863 37.2457689,11.32428 C37.2457689,11.32428 31.7717184,5.08565392 26.3494544,7.41768257 C23.3734738,8.69809214 15.7339209,10.2564213 12.9677302,12.6468309 C10.2015396,15.0372404 9.27855352,16.9639652 10.8457634,20.6809934 C12.4128922,24.3972044 16.800561,25.4210418 18.6786519,25.0974667 C24.1529455,24.153706 29.5386592,20.189911 30.623582,17.8595165 Z" id="Fill-9" stroke="none" fill="#7E8FA4" fill-rule="evenodd"></path>
                                    <mask id="mask-11" fill="white">
                                        <use xlink:href="#path-10"></use>
                                    </mask>
                                    <use id="Mask" stroke="#E0E4EC" stroke-width="2.09952" fill="none" xlink:href="#path-10"></use>
                                </g>
                            </g>
                        </g>
                    </g>
                </g>
                <g id="Group-Copy-9" transform="translate(164.000000, 79.000000) rotate(-21.000000) translate(-164.000000, -79.000000) translate(150.000000, 65.000000)">
                    <g id="Group-Copy-6">
                        <mask id="mask-13" fill="white">
                            <use xlink:href="#path-12"></use>
                        </mask>
                        <use id="Mask" stroke="#E0E4EC" stroke-width="0.544195584" fill="#FFFFFF" xlink:href="#path-12"></use>
                        <g id="Group-Copy-2" mask="url(#mask-13)">
                            <g transform="translate(-0.132477, -0.061773)">
                                <path d="M7.41979639,50.7539038 C7.41979639,50.7539038 6.10735329,39.6134204 5.82643317,36.7328203 C5.70459705,35.4837032 6.03602207,31.7849131 6.03602207,31.7849131 C6.56035784,30.7839055 6.46336791,32.5520937 7.51203946,32.9691462 L10.7455075,34.1366482 L9.87161457,50.7539038 C9.87161457,50.7539038 9.66031508,53.488658 10.7455075,54.6732992 C12.8313042,56.9502751 8.13473362,61.8472546 7.51203946,57.3418229 C7.32879349,56.0160286 7.15760712,53.2064743 7.41979639,52.7895035 C7.68194289,52.4559431 7.41979639,50.7539038 7.41979639,50.7539038 Z" id="Fill-1" stroke="none" fill="#F6B690" fill-rule="evenodd"></path>
                                <path d="M22.8532361,48.0839559 C22.8532361,48.0839559 21.540793,36.9434725 21.2598729,34.0628723 C21.1380368,32.8137553 21.4694618,29.1149651 21.4694618,29.1149651 C21.9937976,28.1139576 21.8968076,29.8821458 22.9454792,30.2991982 L26.1789472,31.4667003 L25.3050543,48.0839559 C25.3050543,48.0839559 25.0937548,50.8187101 26.1789472,52.0033513 C28.2647439,54.2803272 23.5681733,59.1773067 22.9454792,54.671875 C22.7622332,53.3460807 22.5910468,50.5365264 22.8532361,50.1195555 C23.1153826,49.7859952 22.8532361,48.0839559 22.8532361,48.0839559 Z" id="Fill-1-Copy" stroke="none" fill="#F6B690" fill-rule="evenodd"></path>
                                <path d="M25.0498379,84.7144189 L21.1747182,84.7144189 L14.5262321,58.0630254 L14.5642391,84.7144189 L10.4231931,84.7144189 C10.4231931,84.7144189 4.8329242,53.7279299 8.5940638,46.0001738 L22.5424388,46.0001738 C22.5804049,46.0378858 23.1122986,51.6923335 25.0498379,84.7144189 Z" id="Fill-2" stroke="none" fill="url(#linearGradient-14)" fill-rule="evenodd"></path>
                                <polygon id="Fill-3" stroke="none" fill="url(#linearGradient-15)" fill-rule="evenodd" points="17.3299309 17.1313616 18.0798974 23.472488 11.6078098 23.472488 12.090119 18.595176"></polygon>
                                <path d="M11.7656478,20.9715168 C11.7656478,20.9715168 12.6207011,22.4238099 15.1232182,22.137514 C17.6257352,21.8512182 17.7774724,20.8118892 17.7724394,20.636046 C23.2467758,20.8878499 26.5023301,25.0311921 27.5391024,33.0660726 L22.5800552,33.0660726 C23.0809069,40.0754781 23.0809069,44.9987082 22.5800552,47.835763 L7.94803501,47.835763 L9.07102988,35.1342678 L5.87148303,33.0660726 C5.45409755,31.9815462 6.5458376,20.5958526 11.7656478,20.9715168 Z" id="Fill-4" stroke="none" fill="#C5CFDE" fill-rule="evenodd"></path>
                                <path d="M17.6207701,16.8815461 C17.3960988,17.6351971 16.1565347,18.5511605 15.422622,18.866813 C13.8631131,19.536861 11.8459928,20.0205353 10.3722381,18.1902399 C9.0223148,16.5251115 8.60350661,14.2413205 8.47031729,12.7654205 C8.36818666,11.8784124 8.77634616,11.0456443 9.45858846,10.4787748 C11.0066016,9.26591858 13.8790055,7.20969099 14.5326899,7.47640516 C15.1210301,7.71620322 16.9090019,9.52121379 18.0444186,10.6761595 C18.6511117,11.3462075 18.8645292,12.2401486 18.6788225,13.0863747 L17.6207701,16.8815461 Z" id="Fill-8" stroke="none" fill="url(#linearGradient-16)" fill-rule="evenodd"></path>
                                <path d="M15.311791,8.92975827 C15.311791,8.92975827 16.0602638,11.9718545 16.2445556,11.8925949 C16.4288879,11.8137439 17.1179967,10.8479213 17.7653683,11.5579889 C18.5131522,12.3779576 17.5662051,14.1241192 17.5662051,14.1241192 C17.5662051,14.1241192 17.2938601,16.9504987 17.8537052,16.6007761 C18.4135504,16.2510535 22.0397391,10.7343432 18.6228845,5.66213999 C18.6228845,5.66213999 15.8858592,2.54282696 13.1747272,3.70884129 C11.6867369,4.34904607 7.86696043,5.12821067 6.48386511,6.32341545 C5.10076979,7.51862022 4.63927676,8.48198262 5.42288168,10.3404967 C6.20644608,12.1986022 8.40028052,12.7105209 9.33932595,12.5487333 C12.0764728,12.076853 14.7693296,10.0949555 15.311791,8.92975827 Z" id="Fill-9" stroke="none" fill="#7E8FA4" fill-rule="evenodd"></path>
                                <mask id="mask-18" fill="white">
                                    <use xlink:href="#path-17"></use>
                                </mask>
                                <use id="Mask" stroke="#E0E4EC" stroke-width="1.04976" fill="none" xlink:href="#path-17"></use>
                            </g>
                        </g>
                    </g>
                </g>
            </g>
        </g>
    </g>
</svg>