<?xml version="1.0" encoding="UTF-8"?>
<svg width="89px" height="80px" viewBox="0 0 89 80" version="1.1" xmlns="http://www.w3.org/2000/svg" xmlns:xlink="http://www.w3.org/1999/xlink">
    <!-- Generator: Sketch 63.1 (92452) - https://sketch.com -->
    <title>icon-checkin</title>
    <desc>Created with Sketch.</desc>
    <defs>
        <circle id="path-1" cx="23.63904" cy="23.63904" r="23.63904"></circle>
        <linearGradient x1="72.3427929%" y1="97.9969945%" x2="50%" y2="24.6051174%" id="linearGradient-3">
            <stop stop-color="#F4F5F7" offset="0%"></stop>
            <stop stop-color="#E0E4EC" offset="100%"></stop>
        </linearGradient>
        <linearGradient x1="66.385126%" y1="100%" x2="50%" y2="23.5453408%" id="linearGradient-4">
            <stop stop-color="#FFFFFF" offset="0%"></stop>
            <stop stop-color="#E0E4EC" offset="100%"></stop>
        </linearGradient>
        <circle id="path-5" cx="24.56064" cy="23.74496" r="23.63904"></circle>
    </defs>
    <g id="Page-1" stroke="none" stroke-width="1" fill="none" fill-rule="evenodd">
        <g id="Solucion---Goguest-hotelesyresorts" transform="translate(-140.000000, -1072.000000)">
            <g id="icon-checkin" transform="translate(141.000000, 1072.000000)">
                <g id="Group-5-Copy" transform="translate(26.000000, 0.000000)" fill-rule="nonzero">
                    <path d="M40,19.0109874 L39.5592287,19.0109874 L39.5592287,6.96936593 C39.5592311,3.12029427 36.4303485,0 32.5706734,0 L6.98857732,0 C5.13509528,0 3.35752526,0.73426126 2.04691265,2.04126753 C0.736300044,3.3482738 0,5.12095717 0,6.96934725 L0,73.0306341 C0,74.8790239 0.736290543,76.6517089 2.04689933,77.9587185 C3.35750813,79.2657282 5.13507572,80 6.98855748,80 L32.5706403,80 C36.4303143,80 39.5592061,76.8797288 39.5592177,73.0306583 L39.5592177,27.5824188 L40,27.5824188 L40,19.0109874 Z" id="Path-Copy-4" fill="#7E8FA4"></path>
                    <path d="M29.4756268,2 C29.7862372,2.75872786 29.6973875,3.62172158 29.238643,4.30181733 C28.7798984,4.98191308 28.0114567,5.38986704 27.1890231,5.38992919 L12.5914625,5.38992919 C11.7690271,5.38986944 11.000583,4.98191522 10.541838,4.30181759 C10.083093,3.62171996 9.99424535,2.75872374 10.30486,2 L7.19829852,2 C4.32736106,2 2,4.31879242 2,7.17917346 L2,72.8208156 C2,74.1944198 2.54767425,75.5117652 3.52254309,76.4830507 C4.49741193,77.4543361 5.81961832,78 7.19829193,78 L32.8017015,78 C34.1803751,78 35.5025822,77.4543395 36.4774523,76.4830553 C37.4523223,75.511771 38,74.1944264 38,72.8208222 L38,7.17917346 C38,5.80557038 37.4523205,4.48822732 36.4774504,3.51694471 C35.5025804,2.54566209 34.1803739,2 32.8017015,2 L29.4756268,2 Z" id="Path-Copy-8" fill="#FFFFFF"></path>
                    <rect id="Rectangle-Copy-23" fill="#C5CFDE" x="7" y="12" width="25" height="3"></rect>
                    <rect id="Rectangle-Copy-24" fill="#241DBA" x="24" y="69" width="8" height="3"></rect>
                </g>
                <g id="Group-Copy-9" transform="translate(0.000000, 22.000000)">
                    <g id="Group-Copy-6">
                        <mask id="mask-2" fill="white">
                            <use xlink:href="#path-1"></use>
                        </mask>
                        <use id="Mask" stroke="#E0E4EC" stroke-width="0.93312" fill="#FFFFFF" xlink:href="#path-1"></use>
                        <g id="Group-Copy-2" mask="url(#mask-2)">
                            <g transform="translate(-0.921600, -0.105920)">
                                <path d="M13.4170034,87.0265841 C13.4170034,87.0265841 11.1665866,67.9242463 10.6848991,62.9849456 C10.4759895,60.8431125 11.0442765,54.5008797 11.0442765,54.5008797 C11.9433434,52.7844745 11.7770369,55.8163473 13.5751705,56.5314578 L19.1195259,58.5333475 L17.6210812,87.0265841 C17.6210812,87.0265841 17.2587707,91.715806 19.1195259,93.7470838 C22.6959948,97.6513634 14.6428903,106.048105 13.5751705,98.3227416 C13.2609628,96.0494318 12.9674333,91.2319518 13.4170034,90.5169812 C13.8665002,89.9450327 13.4170034,87.0265841 13.4170034,87.0265841 Z" id="Fill-1" stroke="none" fill="#F6B690" fill-rule="evenodd"></path>
                                <path d="M39.8803774,82.448484 C39.8803774,82.448484 37.6299606,63.3461462 37.1482731,58.4068455 C36.9393635,56.2650125 37.5076505,49.9227797 37.5076505,49.9227797 C38.4067174,48.2063744 38.2404109,51.2382472 40.0385445,51.9533578 L45.5828999,53.9552474 L44.0844552,82.448484 C44.0844552,82.448484 43.7221447,87.1377059 45.5828999,89.1689837 C49.1593688,93.0732634 41.1062643,101.470005 40.0385445,93.7446416 C39.7243368,91.4713318 39.4308073,86.6538518 39.8803774,85.9388812 C40.3298742,85.3669327 39.8803774,82.448484 39.8803774,82.448484 Z" id="Fill-1-Copy" stroke="none" fill="#F6B690" fill-rule="evenodd"></path>
                                <polygon id="Fill-3" stroke="none" fill="url(#linearGradient-3)" fill-rule="evenodd" points="30.4096895 29.3747627 31.6956403 40.2477503 20.5980964 40.2477503 21.4251011 31.8847325"></polygon>
                                <path d="M20.8687377,35.959391 C20.8687377,35.959391 22.3348784,38.4496054 26.6258885,37.9587003 C30.9168985,37.4677952 31.1770789,35.6856811 31.1684489,35.3841666 C40.555171,35.8159292 46.1373973,42.9204255 47.9151276,56.6976554 L39.4119603,56.6976554 C40.2707594,68.7165262 40.2707594,77.1582788 39.4119603,82.0229132 L14.3227624,82.0229132 L16.2483366,60.2439435 L10.7621451,56.6976554 C10.0464636,54.8380422 11.9184458,35.3152479 20.8687377,35.959391 Z" id="Fill-4" stroke="none" fill="#C5CFDE" fill-rule="evenodd"></path>
                                <path d="M30.9083849,28.9464096 C30.5231462,30.2386782 28.3976932,31.8092601 27.1392696,32.3505024 C24.4652145,33.4994187 21.0065034,34.3287642 18.4794892,31.1903977 C16.1648059,28.3352393 15.4466849,24.4192738 15.2183081,21.8885812 C15.043187,20.3676482 15.743049,18.9397193 16.9128746,17.9677208 C19.5672182,15.8880634 24.4924648,12.3622959 25.6133229,12.8196248 C26.6221367,13.2308011 29.6879319,16.3258124 31.6348056,18.3061721 C32.6750886,19.4550884 33.0410308,20.9879091 32.7226037,22.4389142 L30.9083849,28.9464096 Z" id="Fill-8" stroke="none" fill="url(#linearGradient-4)" fill-rule="evenodd"></path>
                                <path d="M26.9492301,15.3116568 C26.9492301,15.3116568 28.2326197,20.5278712 28.5486207,20.3919666 C28.8646913,20.2567626 30.0462906,18.6006881 31.1563243,19.8182251 C32.4385326,21.2242071 30.8148236,24.2183114 30.8148236,24.2183114 C30.8148236,24.2183114 30.3478396,29.0646411 31.3077936,28.4649796 C32.2677475,27.8653181 38.4854922,18.4059382 32.626688,9.70874483 C32.626688,9.70874483 27.933572,4.36012853 23.2848546,6.35946723 C20.7334309,7.45721205 14.1837456,8.79322817 11.812183,10.8426191 C9.44062035,12.89201 8.64930857,14.5438659 9.99293841,17.7306185 C11.3364988,20.9166705 15.0982176,21.794446 16.7083778,21.5170325 C21.4017023,20.7079098 26.0190836,17.3095944 26.9492301,15.3116568 Z" id="Fill-9" stroke="none" fill="#7E8FA4" fill-rule="evenodd"></path>
                                <mask id="mask-6" fill="white">
                                    <use xlink:href="#path-5"></use>
                                </mask>
                                <use id="Mask" stroke="#E0E4EC" stroke-width="1.8" fill="none" xlink:href="#path-5"></use>
                            </g>
                        </g>
                    </g>
                </g>
                <rect id="Rectangle" fill="#E0E4EC" x="55" y="5" width="26" height="29.25" rx="4.05"></rect>
                <polyline id="Path" stroke="#241DBA" stroke-width="3.24" points="66 14.5098071 71.468103 20 86.2458808 4"></polyline>
            </g>
        </g>
    </g>
</svg>