<?xml version="1.0" encoding="UTF-8"?>
<svg width="76px" height="98px" viewBox="0 0 76 98" version="1.1" xmlns="http://www.w3.org/2000/svg" xmlns:xlink="http://www.w3.org/1999/xlink">
    <!-- Generator: Sketch 63.1 (92452) - https://sketch.com -->
    <title>icon-pedidos room service</title>
    <desc>Created with Sketch.</desc>
    <g id="Page-1" stroke="none" stroke-width="1" fill="none" fill-rule="evenodd">
        <g id="Solucion---Goguest-hotelesyresorts" transform="translate(-152.000000, -1293.000000)">
            <g id="icon-pedidos-room-service" transform="translate(152.000000, 1293.000000)">
                <path d="M30.2182542,1.1432351 L36.5542517,1.1432351 C37.051308,1.1432351 37.4542517,1.54617882 37.4542517,2.0432351 L37.4542517,11.7536072 L37.4542517,11.7536072 C37.4542517,16.6357685 40.3950528,23.4539419 44.3097297,32.7274872 C48.2244066,42.0010326 47.2185743,46.5990249 47.2185743,56.1907821 L47.2185743,91.4538889 C47.2185743,94.4362266 44.800912,96.8538889 41.8185743,96.8538889 L24.9539316,96.8538889 C21.971594,96.8538889 19.5539316,94.4362266 19.5539316,91.4538889 L19.5539316,56.1907821 L19.5539316,56.1907821 C19.5539316,46.7118691 18.5716267,42.1099118 22.3266446,33.0528632 L24.2855918,28.3989168 C27.2112301,21.3952741 29.2564791,16.0053771 29.3168795,11.9375968 L29.3182542,11.7536072 L29.3182542,2.0432351 C29.3182542,1.54617882 29.7211979,1.1432351 30.2182542,1.1432351 Z M36.3456903,0.45 L36.3456903,1.1432351 L36.3456903,1.1432351 L33.386253,1.1432351 L30.4268156,1.1432351 L30.4268156,0.45 C30.4268156,0.201471863 30.6282875,-1.26886042e-14 30.8768156,-1.27897692e-14 L35.8956903,-1.27897692e-14 C36.1442184,-1.24494596e-14 36.3456903,0.201471863 36.3456903,0.45 Z" id="Shape" fill="#E0E4EC"></path>
                <path d="M5.27053388,74.0149537 L7.21660694,92.739343 C7.45490643,95.0321719 9.38731846,96.7741524 11.6924976,96.7741524 L21.6262239,96.7741524 C23.938283,96.7741524 25.874116,95.0220661 26.1039374,92.7214576 L27.9737124,74.0042224 C28.1219363,72.5204387 27.0392511,71.1974351 25.5554674,71.0492112 C25.4662838,71.0403021 25.3767118,71.0358393 25.2870843,71.0358393 L7.9560683,71.0358393 C6.46489948,71.0358393 5.2560683,72.2446705 5.2560683,73.7358393 C5.2560683,73.8290648 5.26089663,73.9222277 5.27053388,74.0149537 Z" id="Path-11" fill="#C5CFDE"></path>
                <path d="M2.89964287,67.6996429 C6.76583335,63.8334524 13.0341666,63.8334524 16.9003571,67.6996429 L16.9003571,67.6996429 L13.464,71.135 L8.05588974,71.1356607 C6.56472091,71.1356607 5.35588974,72.3444919 5.35588974,73.8356607 C5.35588974,73.9288862 5.36071806,74.0220491 5.37035531,74.1147751 L5.852,78.747 L2.89964287,81.7003571 C-0.89625325,77.904461 -0.965269543,71.7929786 2.69259399,67.9128794 Z" id="Combined-Shape" fill="#241DBA"></path>
                <path d="M34.8568078,73.8 L74.0895839,73.8 C74.6860514,73.8 75.1695839,74.2835325 75.1695839,74.88 C75.1695839,74.9988186 75.1499767,75.1168229 75.1115524,75.229257 L69.6009131,91.3540563 C68.4060314,94.850425 65.1200722,97.2 61.4251654,97.2 L48.0426128,97.2 C44.4379722,97.2 41.2121148,94.9621348 39.9497547,91.5857639 L33.8452006,75.2582205 C33.6363152,74.6995252 33.9198921,74.0772781 34.4785874,73.8683927 C34.5995575,73.8231643 34.7276592,73.8 34.8568078,73.8 Z" id="Rectangle" fill="#7E8FA4"></path>
                <path d="M48.6,61.1760214 C49.5992761,60.0079929 51.1143062,60.0079929 52.1135823,61.1760214 L52.1851361,61.2596588 C53.1437119,62.3801137 54.597035,62.3801137 55.5556107,61.2596588 L55.6211307,61.1830742 C56.5424382,60.1061813 57.9392579,60.1061813 58.8605654,61.1830742 C59.7818728,62.2599672 61.1786925,62.2599672 62.1,61.1830742" id="Path" stroke="#E5E7F4" stroke-width="1.62" stroke-linecap="round" transform="translate(55.350000, 61.200000) rotate(-90.000000) translate(-55.350000, -61.200000) "></path>
                <path d="M54.9,53.0760214 C55.9518116,51.9079929 57.5464922,51.9079929 58.5983039,53.0760214 L58.6736196,53.1596588 C59.6825911,54.2801137 61.2123206,54.2801137 62.2212921,53.1596588 L62.2902567,53.0830742 C63.2600006,52.0061813 64.7302561,52.0061813 65.7,53.0830742" id="Path" stroke="#E5E7F4" stroke-width="1.62" stroke-linecap="round" transform="translate(60.300000, 53.100000) rotate(-90.000000) translate(-60.300000, -53.100000) "></path>
                <path d="M55.8,68.3356223 L55.8763582,68.4229166 C56.8992962,69.5923611 58.4502007,69.5923611 59.4731387,68.4229166 L59.543058,68.3429835 C60.5262254,67.2190055 62.0168326,67.2190055 63,68.3429835" id="Path" stroke="#DDDEEE" stroke-width="1.62" stroke-linecap="round" transform="translate(59.400000, 68.400000) rotate(-90.000000) translate(-59.400000, -68.400000) "></path>
            </g>
        </g>
    </g>
</svg>