<?xml version="1.0" encoding="UTF-8"?>
<svg width="106px" height="82px" viewBox="0 0 106 82" version="1.1" xmlns="http://www.w3.org/2000/svg" xmlns:xlink="http://www.w3.org/1999/xlink">
    <!-- Generator: Sketch 63.1 (92452) - https://sketch.com -->
    <title>icon-pagos tokenizacion</title>
    <desc>Created with Sketch.</desc>
    <g id="Page-1" stroke="none" stroke-width="1" fill="none" fill-rule="evenodd">
        <g id="Solucion---Goguest-hotelesyresorts" transform="translate(-512.000000, -1307.000000)">
            <g id="icon-pagos-tokenizacion" transform="translate(514.000000, 1309.000000)">
                <g id="Group-5-Copy" transform="translate(31.000000, 0.000000)" fill-rule="nonzero">
                    <path d="M40,19.0109874 L39.5592287,19.0109874 L39.5592287,6.96936593 C39.5592311,3.12029427 36.4303485,0 32.5706734,0 L6.98857732,0 C5.13509528,0 3.35752526,0.73426126 2.04691265,2.04126753 C0.736300044,3.3482738 0,5.12095717 0,6.96934725 L0,73.0306341 C0,74.8790239 0.736290543,76.6517089 2.04689933,77.9587185 C3.35750813,79.2657282 5.13507572,80 6.98855748,80 L32.5706403,80 C36.4303143,80 39.5592061,76.8797288 39.5592177,73.0306583 L39.5592177,27.5824188 L40,27.5824188 L40,19.0109874 Z" id="Path-Copy-4" fill="#7E8FA4"></path>
                    <path d="M29.4756268,2 C29.7862372,2.75872786 29.6973875,3.62172158 29.238643,4.30181733 C28.7798984,4.98191308 28.0114567,5.38986704 27.1890231,5.38992919 L12.5914625,5.38992919 C11.7690271,5.38986944 11.000583,4.98191522 10.541838,4.30181759 C10.083093,3.62171996 9.99424535,2.75872374 10.30486,2 L7.19829852,2 C4.32736106,2 2,4.31879242 2,7.17917346 L2,72.8208156 C2,74.1944198 2.54767425,75.5117652 3.52254309,76.4830507 C4.49741193,77.4543361 5.81961832,78 7.19829193,78 L32.8017015,78 C34.1803751,78 35.5025822,77.4543395 36.4774523,76.4830553 C37.4523223,75.511771 38,74.1944264 38,72.8208222 L38,7.17917346 C38,5.80557038 37.4523205,4.48822732 36.4774504,3.51694471 C35.5025804,2.54566209 34.1803739,2 32.8017015,2 L29.4756268,2 Z" id="Path-Copy-8" fill="#FFFFFF"></path>
                    <rect id="Rectangle-Copy-23" fill="#C5CFDE" x="7" y="12" width="25" height="3"></rect>
                    <rect id="Rectangle-Copy-24" fill="#C5CFDE" x="24" y="69" width="8" height="3"></rect>
                </g>
                <g id="Group-273" transform="translate(0.000000, 27.000000)" stroke="#241DBA" stroke-linecap="round" stroke-width="2.4">
                    <path d="M15.9,11.1487869 C13.0216591,11.1487869 8.41436747,11.1487869 6.15,11.1487869 C2.75344879,11.1487869 0,13.9022357 0,17.2987869 C0,20.6953381 2.75344879,23.4487869 6.15,23.4487869 L13.8640625,23.4487869" id="Path"></path>
                    <path d="M22.05,11.1487869 C18.6534488,11.1487869 15.9,13.9022357 15.9,17.2987869" id="Path" transform="translate(18.975000, 14.223787) scale(-1, 1) translate(-18.975000, -14.223787) "></path>
                    <path d="M38.7,11.1487869 C35.8216591,11.1487869 31.2143675,11.1487869 28.95,11.1487869 C25.5534488,11.1487869 22.8,13.9022357 22.8,17.2987869 C22.8,20.6953381 25.5534488,23.4487869 28.95,23.4487869 L36.6640625,23.4487869" id="Path" transform="translate(30.750000, 17.298787) scale(-1, -1) translate(-30.750000, -17.298787) "></path>
                    <path d="M22.8,17.2987869 C19.4034488,17.2987869 16.65,20.0522357 16.65,23.4487869" id="Path" transform="translate(19.725000, 20.373787) scale(1, -1) translate(-19.725000, -20.373787) "></path>
                    <line x1="24.5955059" y1="2.66476322" x2="27.2209919" y2="5.32952644" id="Path-41-Copy" transform="translate(25.908249, 3.997145) scale(-1, 1) translate(-25.908249, -3.997145) "></line>
                    <line x1="11.7" y1="2.66476322" x2="14.325486" y2="5.32952644" id="Path-41-Copy-2"></line>
                    <line x1="19.725" y1="-7.99360578e-15" x2="19.725" y2="5.32952644" id="Path-43"></line>
                    <line x1="24.5955059" y1="29.2192604" x2="27.2209919" y2="31.8840237" id="Path-41-Copy" transform="translate(25.908249, 30.551642) scale(-1, -1) translate(-25.908249, -30.551642) "></line>
                    <line x1="11.7" y1="29.2192604" x2="14.325486" y2="31.8840237" id="Path-41-Copy-2" transform="translate(13.012743, 30.551642) scale(1, -1) translate(-13.012743, -30.551642) "></line>
                    <line x1="19.725" y1="29.2192604" x2="19.725" y2="34.5487869" id="Path-43" transform="translate(19.725000, 31.884024) scale(1, -1) translate(-19.725000, -31.884024) "></line>
                </g>
                <g id="Group-102-Copy-3" transform="translate(51.000000, 26.000000)">
                    <rect id="Rectangle-Copy-78" fill="#C5CFDE" x="-6.85851376e-14" y="6.85851376e-14" width="52.866" height="36.234" rx="3.564"></rect>
                    <rect id="Rectangle-Copy-79" fill="#EEEFF7" x="11.88" y="6.237" width="8.1675" height="7.425" rx="0.7425"></rect>
                    <rect id="Rectangle-Copy-80" fill="#7E8FA4" x="5.94" y="18.2655" width="8.1675" height="3.7125" rx="0.7425"></rect>
                    <rect id="Rectangle-Copy-81" fill="#7E8FA4" x="16.335" y="18.2655" width="8.1675" height="3.7125" rx="0.7425"></rect>
                    <rect id="Rectangle-Copy-82" fill="#7E8FA4" x="26.73" y="18.2655" width="8.1675" height="3.7125" rx="0.7425"></rect>
                    <rect id="Rectangle-Copy-83" fill="#7E8FA4" x="37.125" y="18.2655" width="8.1675" height="3.7125" rx="0.7425"></rect>
                    <path d="M6.09601188,10.9630156 C5.92095903,11.0795499 5.89085543,11.2938248 6.02878319,11.4417047 C6.16679167,11.5895846 6.42053356,11.6151001 6.59550571,11.4984972 C6.6315009,11.4745593 7.48489365,10.918775 8.21294888,11.4915696 C8.29066944,11.5527518 8.38937374,11.583 8.48791664,11.583 C8.59598292,11.583 8.70372638,11.5465102 8.78322249,11.4744221 C8.93519322,11.3366935 8.92607336,11.1209782 8.7629651,10.992715 C7.78011879,10.2193635 6.58864564,10.6351557 6.09601188,10.9630156 M11.0002358,9.08742373 C9.08958516,7.66973832 7.23841536,7.74511866 6.021681,8.05788877 C4.72052743,8.39253907 3.87496323,9.05607813 3.8396137,9.0842 C3.6772318,9.21314908 3.66940325,9.42886443 3.82201963,9.56604431 C3.97463602,9.70315559 4.23007276,9.70980882 4.39245466,9.58085973 C4.39971826,9.57502959 5.13406861,8.99880553 6.25669894,8.71004189 C7.74105675,8.32847607 9.15762091,8.62759679 10.4676522,9.59958479 C10.5443236,9.65644585 10.6392347,9.68436195 10.733823,9.68436195 C10.8458439,9.68436195 10.9573805,9.64512851 11.0371188,9.56844496 C11.1842471,9.42701251 11.1677022,9.2116401 11.0002358,9.08742373 M9.8562989,10.0177776 C10.0202142,10.1452863 10.0307868,10.3608645 9.87994596,10.4994162 C9.80036915,10.5724645 9.69181862,10.6094344 9.58286457,10.6094344 C9.48520945,10.6094344 9.3872315,10.5796664 9.30967235,10.5193758 C7.51766057,9.12617704 5.59296696,10.4491397 5.51185672,10.5060694 C5.34100061,10.6263076 5.08661307,10.6073081 4.9438429,10.4632007 C4.80107273,10.3191618 4.82278283,10.1049554 4.99299328,9.9839628 C5.86365727,9.36487002 8.00060952,8.57526267 9.8562989,10.0177776" id="wifi-copy-4" fill="#241DBA" transform="translate(7.425000, 9.726750) rotate(-90.000000) translate(-7.425000, -9.726750) "></path>
                    <line x1="7.722" y1="25.9875" x2="32.29875" y2="26.06175" id="Line-7-Copy-6" stroke="#7E8FA4" stroke-width="1.188" stroke-linecap="round" stroke-linejoin="round"></line>
                    <line x1="7.722" y1="28.3635" x2="20.79" y2="28.3635" id="Line-7-Copy-7" stroke="#7E8FA4" stroke-width="1.188" stroke-linecap="round" stroke-linejoin="round"></line>
                </g>
                <polyline id="Path" stroke="#241DBA" stroke-width="3.24" points="80 10.5098071 85.4016944 16 100 0"></polyline>
            </g>
        </g>
    </g>
</svg>