<?xml version="1.0" encoding="UTF-8"?>
<svg width="89px" height="87px" viewBox="0 0 89 87" version="1.1" xmlns="http://www.w3.org/2000/svg" xmlns:xlink="http://www.w3.org/1999/xlink">
    <!-- Generator: Sketch 63.1 (92452) - https://sketch.com -->
    <title>icon-cuenta cliente</title>
    <desc>Created with Sketch.</desc>
    <defs>
        <circle id="path-1" cx="17.72928" cy="17.72928" r="17.72928"></circle>
        <linearGradient x1="48.9831318%" y1="-1.69870728%" x2="52.0211715%" y2="51.8765724%" id="linearGradient-3">
            <stop stop-color="#5DBBF7" offset="0%"></stop>
            <stop stop-color="#4499CE" offset="100%"></stop>
        </linearGradient>
        <linearGradient x1="72.3427929%" y1="97.9969945%" x2="50%" y2="24.6051174%" id="linearGradient-4">
            <stop stop-color="#F4F5F7" offset="0%"></stop>
            <stop stop-color="#E0E4EC" offset="100%"></stop>
        </linearGradient>
        <linearGradient x1="66.385126%" y1="100%" x2="50%" y2="23.5453408%" id="linearGradient-5">
            <stop stop-color="#FFFFFF" offset="0%"></stop>
            <stop stop-color="#E0E4EC" offset="100%"></stop>
        </linearGradient>
        <circle id="path-6" cx="18.42048" cy="17.80872" r="17.72928"></circle>
    </defs>
    <g id="Page-1" stroke="none" stroke-width="1" fill="none" fill-rule="evenodd">
        <g id="Solucion---Goguest-hotelesyresorts" transform="translate(-521.000000, -1071.000000)">
            <g id="icon-cuenta-cliente" transform="translate(521.000000, 1072.000000)">
                <path d="M6.12,13.5 L71.64,13.5 C75.0199827,13.5 77.76,16.2400173 77.76,19.62 L77.76,25.5345552 L77.76,25.5345552 L1.0658141e-13,25.5345552 L1.0658141e-13,19.62 C1.06167482e-13,16.2400173 2.74001733,13.5 6.12,13.5 Z" id="Rectangle" fill="#7E8FA4"></path>
                <path d="M6.12,25.5345552 L71.64,25.5345552 C75.0199827,25.5345552 77.76,28.2745725 77.76,31.6545552 L77.76,85.5345552 L77.76,85.5345552 L1.0658141e-13,85.5345552 L1.0658141e-13,31.6545552 C1.0705566e-13,28.2745725 2.74001733,25.5345552 6.12,25.5345552 Z" id="Rectangle-Copy-20" fill="#E0E4EC" transform="translate(38.880000, 55.534555) scale(1, -1) translate(-38.880000, -55.534555) "></path>
                <g id="Group-Copy-9" transform="translate(52.500000, 0.000000)">
                    <g id="Group-Copy-6">
                        <mask id="mask-2" fill="white">
                            <use xlink:href="#path-1"></use>
                        </mask>
                        <use id="Mask" stroke="#E0E4EC" stroke-width="0.69984" fill="#FFFFFF" xlink:href="#path-1"></use>
                        <g id="Group-Copy-2" mask="url(#mask-2)">
                            <g transform="translate(-0.691200, -0.079440)">
                                <path d="M10.0627526,65.269938 C10.0627526,65.269938 8.37493993,50.9431847 8.01367434,47.2387092 C7.85699209,45.6323344 8.2832074,40.8756598 8.2832074,40.8756598 C8.95750752,39.5883559 8.83277767,41.8622604 10.1813779,42.3985933 L14.3396444,43.9000106 L13.2158109,65.269938 C13.2158109,65.269938 12.944078,68.7868545 14.3396444,70.3103128 C17.0219961,73.2385225 10.9821677,79.5360784 10.1813779,73.7420562 C9.94572208,72.0370739 9.725575,68.4239639 10.0627526,67.8877359 C10.3998751,67.4587746 10.0627526,65.269938 10.0627526,65.269938 Z" id="Fill-1" stroke="none" fill="#F6B690" fill-rule="evenodd"></path>
                                <path d="M29.9102831,61.836363 C29.9102831,61.836363 28.2224704,47.5096097 27.8612048,43.8051341 C27.7045226,42.1987594 28.1307379,37.4420848 28.1307379,37.4420848 C28.805038,36.1547808 28.6803082,38.4286854 30.0289084,38.9650183 L34.187175,40.4664356 L33.0633414,61.836363 C33.0633414,61.836363 32.7916085,65.3532795 34.187175,66.8767378 C36.8695266,69.8049475 30.8296982,76.1025034 30.0289084,70.3084812 C29.7932526,68.6034988 29.5731055,64.9903888 29.9102831,64.4541609 C30.2474056,64.0251995 29.9102831,61.836363 29.9102831,61.836363 Z" id="Fill-1-Copy" stroke="none" fill="#F6B690" fill-rule="evenodd"></path>
                                <path d="M32.7351311,108.94344 L27.7516952,108.94344 L19.2016874,74.6695286 L19.2505647,108.94344 L13.9251454,108.94344 C13.9251454,108.94344 6.73601363,69.09456 11.5728701,59.1566021 L29.5105952,59.1566021 C29.5594199,59.2051 30.2434395,66.4767664 32.7351311,108.94344 Z" id="Fill-2" stroke="none" fill="url(#linearGradient-3)" fill-rule="evenodd"></path>
                                <polygon id="Fill-3" stroke="none" fill="url(#linearGradient-4)" fill-rule="evenodd" points="22.8072671 22.031072 23.7717302 30.1858127 15.4485723 30.1858127 16.0688259 23.9135494"></polygon>
                                <path d="M15.6515533,26.9695433 C15.6515533,26.9695433 16.7511588,28.837204 19.9694164,28.4690252 C23.1876739,28.1008464 23.3828092,26.7642608 23.3763367,26.538125 C30.4163783,26.8619469 34.603048,32.1903191 35.9363457,42.5232416 L29.5589702,42.5232416 C30.2030696,51.5373947 30.2030696,57.8687091 29.5589702,61.5171849 L10.7420718,61.5171849 L12.1862524,45.1829576 L8.07160884,42.5232416 C7.53484768,41.1285316 8.93883436,26.4864359 15.6515533,26.9695433 Z" id="Fill-4" stroke="none" fill="#C5CFDE" fill-rule="evenodd"></path>
                                <path d="M23.1812887,21.7098072 C22.8923596,22.6790086 21.2982699,23.856945 20.3544522,24.2628768 C18.3489109,25.124564 15.7548776,25.7465732 13.8596169,23.3927982 C12.1236044,21.2514295 11.5850136,18.3144554 11.4137311,16.4164359 C11.2823903,15.2757361 11.8072867,14.2047895 12.6846559,13.4757906 C14.6754136,11.9160476 18.3693486,9.27172196 19.2099922,9.61471857 C19.9666025,9.92310085 22.2659489,12.2443593 23.7261042,13.729629 C24.5063164,14.5913163 24.7807731,15.7409318 24.5419528,16.8291856 L23.1812887,21.7098072 Z" id="Fill-8" stroke="none" fill="url(#linearGradient-5)" fill-rule="evenodd"></path>
                                <path d="M20.2119226,11.4837426 C20.2119226,11.4837426 21.1744647,15.3959034 21.4114655,15.293975 C21.6485184,15.1925719 22.534718,13.9505161 23.3672432,14.8636688 C24.3288995,15.9181554 23.1111177,18.1637335 23.1111177,18.1637335 C23.1111177,18.1637335 22.7608797,21.7984809 23.4808452,21.3487347 C24.2008106,20.8989886 28.8641192,13.8044536 24.470016,7.28155862 C24.470016,7.28155862 20.950179,3.2700964 17.4636409,4.76960042 C15.5500732,5.59290904 10.6378092,6.59492113 8.85913723,8.13196431 C7.08046527,9.66900749 6.48698143,10.9078995 7.49470381,13.2979639 C8.50237408,15.6875028 11.3236632,16.3458345 12.5312834,16.1377744 C16.0512767,15.5309323 19.5143127,12.9821958 20.2119226,11.4837426 Z" id="Fill-9" stroke="none" fill="#7E8FA4" fill-rule="evenodd"></path>
                                <mask id="mask-7" fill="white">
                                    <use xlink:href="#path-6"></use>
                                </mask>
                                <use id="Mask" stroke="#E0E4EC" stroke-width="1.35" fill="none" xlink:href="#path-6"></use>
                            </g>
                        </g>
                    </g>
                </g>
                <circle id="Oval" fill="#FFFFFF" cx="8.64" cy="20.34" r="1.8"></circle>
                <circle id="Oval-Copy-31" fill="#FFFFFF" cx="14.04" cy="20.34" r="1.8"></circle>
                <circle id="Oval-Copy-32" fill="#FFFFFF" cx="19.44" cy="20.34" r="1.8"></circle>
                <line x1="12.8461134" y1="44.0625" x2="30.4711134" y2="44.4375" id="Line-12" stroke="#241DBA" stroke-width="3.75" stroke-linecap="round"></line>
                <line x1="12.8461134" y1="53.0625" x2="59.625" y2="52.875" id="Line-12-Copy-4" stroke="#7E8FA4" stroke-width="3.75" stroke-linecap="round"></line>
                <line x1="12.8461134" y1="61.96875" x2="59.625" y2="61.78125" id="Line-12-Copy-6" stroke="#7E8FA4" stroke-width="3.75" stroke-linecap="round"></line>
            </g>
        </g>
    </g>
</svg>