<?xml version="1.0" encoding="UTF-8"?>
<svg width="103px" height="89px" viewBox="0 0 103 89" version="1.1" xmlns="http://www.w3.org/2000/svg" xmlns:xlink="http://www.w3.org/1999/xlink">
    <!-- Generator: Sketch 63.1 (92452) - https://sketch.com -->
    <title>icon-reserva servicios</title>
    <desc>Created with Sketch.</desc>
    <g id="Page-1" stroke="none" stroke-width="1" fill="none" fill-rule="evenodd">
        <g id="Solucion---Goguest-hotelesyresorts" transform="translate(-333.000000, -1072.000000)">
            <g id="icon-reserva-servicios" transform="translate(333.000000, 1072.000000)">
                <rect id="Rectangle" fill="#E0E4EC" x="0" y="0" width="79.2" height="88.2" rx="9"></rect>
                <rect id="Rectangle" fill="#C5CFDE" x="9.9" y="38.7" width="25.92" height="12.15" rx="1.62"></rect>
                <line x1="13.14" y1="42.75" x2="26.1" y2="42.75" id="Line-2" stroke="#EEEFF7" stroke-width="0.81" stroke-linecap="round"></line>
                <line x1="13.14" y1="44.37" x2="26.1" y2="44.37" id="Line-2-Copy" stroke="#EEEFF7" stroke-width="0.81" stroke-linecap="round"></line>
                <line x1="13.14" y1="45.99" x2="26.1" y2="45.99" id="Line-2-Copy-2" stroke="#EEEFF7" stroke-width="0.81" stroke-linecap="round"></line>
                <line x1="13.14" y1="47.61" x2="26.1" y2="47.61" id="Line-2-Copy-3" stroke="#EEEFF7" stroke-width="0.81" stroke-linecap="round"></line>
                <path d="M30.96,48.42 C30.96,48.42 33.39,45.8611688 33.39,44.37 C33.39,42.8788312 32.3020519,41.94 30.96,41.94 C29.6179481,41.94 28.53,42.8788312 28.53,44.37 C28.53,45.8611688 30.96,48.42 30.96,48.42 L30.96,48.42 L30.96,48.42 Z M30.96,45.18 C31.4073506,45.18 31.77,44.8173506 31.77,44.37 C31.77,43.9226494 31.4073506,43.56 30.96,43.56 C30.5126494,43.56 30.15,43.9226494 30.15,44.37 C30.15,44.8173506 30.5126494,45.18 30.96,45.18 L30.96,45.18 L30.96,45.18 Z" id="shape" fill="#241DBA"></path>
                <rect id="Rectangle" fill="#C5CFDE" x="9.9" y="54" width="25.92" height="12.15" rx="1.62"></rect>
                <line x1="13.14" y1="58.05" x2="26.1" y2="58.05" id="Line-2" stroke="#EEEFF7" stroke-width="0.81" stroke-linecap="round"></line>
                <line x1="13.14" y1="59.67" x2="26.1" y2="59.67" id="Line-2-Copy" stroke="#EEEFF7" stroke-width="0.81" stroke-linecap="round"></line>
                <line x1="13.14" y1="61.29" x2="26.1" y2="61.29" id="Line-2-Copy-2" stroke="#EEEFF7" stroke-width="0.81" stroke-linecap="round"></line>
                <line x1="13.14" y1="62.91" x2="26.1" y2="62.91" id="Line-2-Copy-3" stroke="#EEEFF7" stroke-width="0.81" stroke-linecap="round"></line>
                <path d="M30.96,63.72 C30.96,63.72 33.39,61.1611688 33.39,59.67 C33.39,58.1788312 32.3020519,57.24 30.96,57.24 C29.6179481,57.24 28.53,58.1788312 28.53,59.67 C28.53,61.1611688 30.96,63.72 30.96,63.72 L30.96,63.72 L30.96,63.72 Z M30.96,60.48 C31.4073506,60.48 31.77,60.1173506 31.77,59.67 C31.77,59.2226494 31.4073506,58.86 30.96,58.86 C30.5126494,58.86 30.15,59.2226494 30.15,59.67 C30.15,60.1173506 30.5126494,60.48 30.96,60.48 L30.96,60.48 L30.96,60.48 Z" id="shape" fill="#241DBA"></path>
                <rect id="Rectangle" fill="#C5CFDE" x="43.2" y="54" width="25.92" height="12.15" rx="1.62"></rect>
                <line x1="46.44" y1="58.05" x2="59.4" y2="58.05" id="Line-2" stroke="#EEEFF7" stroke-width="0.81" stroke-linecap="round"></line>
                <line x1="46.44" y1="59.67" x2="59.4" y2="59.67" id="Line-2-Copy" stroke="#EEEFF7" stroke-width="0.81" stroke-linecap="round"></line>
                <line x1="46.44" y1="61.29" x2="59.4" y2="61.29" id="Line-2-Copy-2" stroke="#EEEFF7" stroke-width="0.81" stroke-linecap="round"></line>
                <line x1="46.44" y1="62.91" x2="59.4" y2="62.91" id="Line-2-Copy-3" stroke="#EEEFF7" stroke-width="0.81" stroke-linecap="round"></line>
                <rect id="Rectangle" fill="#C5CFDE" x="9.9" y="69.3" width="25.92" height="12.15" rx="1.62"></rect>
                <line x1="13.14" y1="73.35" x2="26.1" y2="73.35" id="Line-2" stroke="#EEEFF7" stroke-width="0.81" stroke-linecap="round"></line>
                <line x1="13.14" y1="74.97" x2="26.1" y2="74.97" id="Line-2-Copy" stroke="#EEEFF7" stroke-width="0.81" stroke-linecap="round"></line>
                <line x1="13.14" y1="76.59" x2="26.1" y2="76.59" id="Line-2-Copy-2" stroke="#EEEFF7" stroke-width="0.81" stroke-linecap="round"></line>
                <line x1="13.14" y1="78.21" x2="26.1" y2="78.21" id="Line-2-Copy-3" stroke="#EEEFF7" stroke-width="0.81" stroke-linecap="round"></line>
                <path d="M30.96,79.02 C30.96,79.02 33.39,76.4611688 33.39,74.97 C33.39,73.4788312 32.3020519,72.54 30.96,72.54 C29.6179481,72.54 28.53,73.4788312 28.53,74.97 C28.53,76.4611688 30.96,79.02 30.96,79.02 L30.96,79.02 L30.96,79.02 Z M30.96,75.78 C31.4073506,75.78 31.77,75.4173506 31.77,74.97 C31.77,74.5226494 31.4073506,74.16 30.96,74.16 C30.5126494,74.16 30.15,74.5226494 30.15,74.97 C30.15,75.4173506 30.5126494,75.78 30.96,75.78 L30.96,75.78 L30.96,75.78 Z" id="shape" fill="#241DBA"></path>
                <rect id="Rectangle" fill="#C5CFDE" x="43.2" y="69.3" width="25.92" height="12.15" rx="1.62"></rect>
                <line x1="46.44" y1="73.35" x2="59.4" y2="73.35" id="Line-2" stroke="#EEEFF7" stroke-width="0.81" stroke-linecap="round"></line>
                <line x1="46.44" y1="74.97" x2="59.4" y2="74.97" id="Line-2-Copy" stroke="#EEEFF7" stroke-width="0.81" stroke-linecap="round"></line>
                <line x1="46.44" y1="76.59" x2="59.4" y2="76.59" id="Line-2-Copy-2" stroke="#EEEFF7" stroke-width="0.81" stroke-linecap="round"></line>
                <line x1="46.44" y1="78.21" x2="59.4" y2="78.21" id="Line-2-Copy-3" stroke="#EEEFF7" stroke-width="0.81" stroke-linecap="round"></line>
                <path d="M38.4356739,11.5156627 L41.2143261,11.5156627 C41.7005462,11.5156627 42.0947609,11.1078325 42.0947609,10.6048193 C42.0947609,10.101806 41.7005462,9.6939759 41.2143261,9.6939759 L38.4356739,9.6939759 C37.9494538,9.6939759 37.5552391,10.101806 37.5552391,10.6048193 C37.5552391,11.1078325 37.9494538,11.5156627 38.4356739,11.5156627 L38.4356739,11.5156627 Z M31.4608696,25.1783133 L48.1891304,25.1783133 L48.1891304,16.9807229 L31.4608696,16.9807229 L31.4608696,25.1783133 Z M49.95,10.6890723 L49.95,26.0891566 C49.95,26.5921699 49.5557853,27 49.0695652,27 L30.5804348,27 C30.0942147,27 29.7,26.5921699 29.7,26.0891566 L29.7,10.6890723 C29.7,10.186059 30.0942147,9.6939759 30.5804348,9.6939759 L32.638231,9.6939759 C33.1244511,9.6939759 33.5186658,10.101806 33.5186658,10.6048193 C33.5186658,11.1078325 33.1244511,11.5156627 32.638231,11.5156627 L31.4608696,11.5156627 L31.4608696,15.386747 L48.1891304,15.386747 L48.1891304,11.5156627 L47.0115489,11.5156627 C46.5253288,11.5156627 46.1311141,11.1078325 46.1311141,10.6048193 C46.1311141,10.101806 46.5253288,9.6939759 47.0115489,9.6939759 L49.0695652,9.6939759 C49.5557853,9.6939759 49.95,10.186059 49.95,10.6890723 L49.95,10.6890723 Z M44.0070652,13.2931735 C44.6147853,13.2931735 45.1076087,12.7833289 45.1076087,12.1546193 L45.1076087,9.23855422 C45.1076087,8.60984458 44.6147853,8.1 44.0070652,8.1 C43.399125,8.1 42.9065217,8.60984458 42.9065217,9.23855422 L42.9065217,12.1546193 C42.9065217,12.7833289 43.399125,13.2931735 44.0070652,13.2931735 L44.0070652,13.2931735 Z M34.5423913,12.1546193 L34.5423913,9.23855422 C34.5423913,8.60984458 35.0349946,8.1 35.6429348,8.1 C36.2506549,8.1 36.7434783,8.60984458 36.7434783,9.23855422 L36.7434783,12.1546193 C36.7434783,12.7833289 36.2506549,13.2931735 35.6429348,13.2931735 C35.0349946,13.2931735 34.5423913,12.7833289 34.5423913,12.1546193 L34.5423913,12.1546193 Z" id="calendar-copy" fill="#7E8FA4"></path>
                <g id="Group-11" transform="translate(12.735000, 57.240000)"></g>
                <g id="Group-11" transform="translate(61.035000, 57.240000)" fill="#241DBA">
                    <path d="M3.225,6.48 C3.225,6.48 5.655,3.92116882 5.655,2.43 C5.655,0.938831176 4.56705194,0 3.225,0 C1.88294806,0 0.795,0.938831176 0.795,2.43 C0.795,3.92116882 3.225,6.48 3.225,6.48 L3.225,6.48 L3.225,6.48 Z M3.225,3.24 C3.67235065,3.24 4.035,2.87735065 4.035,2.43 C4.035,1.98264935 3.67235065,1.62 3.225,1.62 C2.77764935,1.62 2.415,1.98264935 2.415,2.43 C2.415,2.87735065 2.77764935,3.24 3.225,3.24 L3.225,3.24 L3.225,3.24 Z" id="shape"></path>
                </g>
                <g id="Group-11" transform="translate(12.735000, 72.540000)"></g>
                <g id="Group-11" transform="translate(61.035000, 72.540000)" fill="#241DBA">
                    <path d="M3.225,6.48 C3.225,6.48 5.655,3.92116882 5.655,2.43 C5.655,0.938831176 4.56705194,0 3.225,0 C1.88294806,0 0.795,0.938831176 0.795,2.43 C0.795,3.92116882 3.225,6.48 3.225,6.48 L3.225,6.48 L3.225,6.48 Z M3.225,3.24 C3.67235065,3.24 4.035,2.87735065 4.035,2.43 C4.035,1.98264935 3.67235065,1.62 3.225,1.62 C2.77764935,1.62 2.415,1.98264935 2.415,2.43 C2.415,2.87735065 2.77764935,3.24 3.225,3.24 L3.225,3.24 L3.225,3.24 Z" id="shape"></path>
                </g>
                <g id="Group-15" transform="translate(56.700000, 27.000000)">
                    <rect id="Rectangle" fill="#241DBA" x="0" y="2.7" width="43.2" height="20.25" rx="2.7"></rect>
                    <g id="Group-8-Copy-3" transform="translate(2.700000, 0.000000)">
                        <rect id="Rectangle" fill="#C5CFDE" x="0" y="0" width="43.2" height="20.25" rx="2.7"></rect>
                        <g id="Group-11" transform="translate(4.725000, 5.400000)">
                            <line x1="0.675" y1="1.35" x2="22.275" y2="1.35" id="Line-2" stroke="#FFFFFF" stroke-width="1.35" stroke-linecap="round"></line>
                            <line x1="0.675" y1="4.05" x2="22.275" y2="4.05" id="Line-2-Copy" stroke="#FFFFFF" stroke-width="1.35" stroke-linecap="round"></line>
                            <line x1="0.675" y1="6.75" x2="22.275" y2="6.75" id="Line-2-Copy-2" stroke="#FFFFFF" stroke-width="1.35" stroke-linecap="round"></line>
                            <line x1="0.675" y1="9.45" x2="22.275" y2="9.45" id="Line-2-Copy-3" stroke="#FFFFFF" stroke-width="1.35" stroke-linecap="round"></line>
                            <path d="M30.375,10.8 C30.375,10.8 34.425,6.53528137 34.425,4.05 C34.425,1.56471863 32.6117532,0 30.375,0 C28.1382468,0 26.325,1.56471863 26.325,4.05 C26.325,6.53528137 30.375,10.8 30.375,10.8 L30.375,10.8 L30.375,10.8 Z M30.375,5.4 C31.1205844,5.4 31.725,4.79558441 31.725,4.05 C31.725,3.30441559 31.1205844,2.7 30.375,2.7 C29.6294156,2.7 29.025,3.30441559 29.025,4.05 C29.025,4.79558441 29.6294156,5.4 30.375,5.4 L30.375,5.4 L30.375,5.4 Z" id="shape" fill="#241DBA"></path>
                        </g>
                    </g>
                </g>
            </g>
        </g>
    </g>
</svg>