<svg xmlns="http://www.w3.org/2000/svg" xmlns:xlink="http://www.w3.org/1999/xlink" width="241.703" height="49.279" viewBox="0 0 241.703 49.279">
  <defs>
    <linearGradient id="linear-gradient" x1="-0.002" y1="0.325" x2="7.816" y2="0.325" gradientUnits="objectBoundingBox">
      <stop offset="0.006" stop-color="#fb6a49"/>
      <stop offset="0.477" stop-color="#fc3579"/>
      <stop offset="0.792" stop-color="#7d3ca0"/>
      <stop offset="1" stop-color="#2e40b8"/>
    </linearGradient>
    <linearGradient id="linear-gradient-2" x1="-2.036" y1="0.304" x2="11.188" y2="0.304" xlink:href="#linear-gradient"/>
    <linearGradient id="linear-gradient-3" x1="-2.905" y1="0.322" x2="8.595" y2="0.322" xlink:href="#linear-gradient"/>
    <linearGradient id="linear-gradient-4" x1="-4.769" y1="0.509" x2="8.454" y2="0.509" xlink:href="#linear-gradient"/>
    <linearGradient id="linear-gradient-5" x1="-5.548" y1="0.319" x2="5.473" y2="0.319" xlink:href="#linear-gradient"/>
    <linearGradient id="linear-gradient-6" x1="-6.509" y1="0.322" x2="4.141" y2="0.322" xlink:href="#linear-gradient"/>
    <linearGradient id="linear-gradient-7" x1="-10.998" y1="0.322" x2="4.115" y2="0.322" xlink:href="#linear-gradient"/>
    <linearGradient id="linear-gradient-8" x1="-56.123" y1="4.497" x2="12.873" y2="4.497" xlink:href="#linear-gradient"/>
    <linearGradient id="linear-gradient-9" x1="-92.524" y1="0.311" x2="20.827" y2="0.311" xlink:href="#linear-gradient"/>
    <linearGradient id="linear-gradient-10" x1="-9.314" y1="0.319" x2="1.668" y2="0.319" xlink:href="#linear-gradient"/>
    <linearGradient id="linear-gradient-11" x1="-24.802" y1="0.321" x2="1.001" y2="0.321" xlink:href="#linear-gradient"/>
    <linearGradient id="linear-gradient-12" x1="-2.731" y1="2.781" x2="0.702" y2="0.356" gradientUnits="objectBoundingBox">
      <stop offset="0.006" stop-color="#fb6a49"/>
      <stop offset="0.436" stop-color="#fc3579"/>
      <stop offset="0.786" stop-color="#7326a2"/>
      <stop offset="1" stop-color="#241dba"/>
    </linearGradient>
    <linearGradient id="linear-gradient-13" x1="-0.057" y1="0.846" x2="0.895" y2="0.255" xlink:href="#linear-gradient-12"/>
  </defs>
  <g id="Logo_easygoband-color-39" data-name="Logo easygoband-color-39" transform="translate(-0.061 -0.071)">
    <g id="Group" transform="translate(167.009 39.753)">
      <path id="Path" d="M7.127,0A2.445,2.445,0,0,0,4.893,1.364,2.136,2.136,0,0,0,2.8,0,2.332,2.332,0,0,0,.659,1.294V.141H0v6.68H.659V3.081c0-1.717.964-2.47,2.07-2.47,1.035,0,1.717.682,1.717,1.952V6.8H5.1V3.058c0-1.717.87-2.47,2-2.47A1.741,1.741,0,0,1,8.891,2.54V6.774H9.55V2.54A2.317,2.317,0,0,0,7.127,0Z" transform="translate(0.071 2.611)" fill="url(#linear-gradient)"/>
      <path id="Path-2" data-name="Path" d="M4.987,3.528c0,1.811-1.035,2.658-2.329,2.658A1.854,1.854,0,0,1,.682,4.163V0H0V4.163A2.471,2.471,0,0,0,2.587,6.845a2.527,2.527,0,0,0,2.4-1.411V6.7h.659V.024H4.987v3.5Z" transform="translate(11.549 2.752)" fill="url(#linear-gradient-2)"/>
      <path id="Path-3" data-name="Path" d="M3.528,6.351A2.778,2.778,0,0,1,.706,3.5,2.792,2.792,0,0,1,3.528.659,2.569,2.569,0,0,1,5.9,2.046l.541-.329A3.132,3.132,0,0,0,3.528,0,3.427,3.427,0,0,0,0,3.481,3.427,3.427,0,0,0,3.528,6.963,3.263,3.263,0,0,0,6.492,5.269L5.928,4.94A2.6,2.6,0,0,1,3.528,6.351Z" transform="translate(18.912 2.587)" fill="url(#linear-gradient-3)"/>
      <path id="Path-4" data-name="Path" d="M3.058,2.54a2.527,2.527,0,0,0-2.4,1.411V0H0V9.362H.659V5.834c0-1.811,1.035-2.658,2.329-2.658A1.854,1.854,0,0,1,4.963,5.2V9.362h.682V5.2A2.44,2.44,0,0,0,3.058,2.54Z" transform="translate(26.98 0.071)" fill="url(#linear-gradient-4)"/>
      <path id="Shape" d="M3.5,6.962A3.528,3.528,0,0,1,.985,5.98,3.482,3.482,0,0,1,0,3.481,3.356,3.356,0,0,1,3.458,0,3.147,3.147,0,0,1,5.884,1.064,3.662,3.662,0,0,1,6.774,3.5a1.457,1.457,0,0,1-.012.165,1.458,1.458,0,0,0-.012.165H.706A2.69,2.69,0,0,0,3.528,6.328,2.548,2.548,0,0,0,5.834,5.1l.588.353A3.329,3.329,0,0,1,3.5,6.962ZM3.481.635A2.69,2.69,0,0,0,.706,3.175H6.092A2.591,2.591,0,0,0,3.481.635Z" transform="translate(37.636 2.611)" fill="url(#linear-gradient-5)"/>
      <path id="Shape-2" data-name="Shape" d="M3.458,6.962A3.453,3.453,0,0,1,0,3.481,3.433,3.433,0,0,1,3.458,0a3.2,3.2,0,0,1,2.87,1.67V.141H7.01v6.68H6.328v-1.5A3.223,3.223,0,0,1,3.458,6.962ZM3.5.659A2.8,2.8,0,0,0,.682,3.5,2.8,2.8,0,0,0,3.5,6.351,2.8,2.8,0,0,0,6.328,3.5,2.8,2.8,0,0,0,3.5.659Z" transform="translate(45.681 2.587)" fill="url(#linear-gradient-6)"/>
      <path id="Path-5" data-name="Path" d="M.894,1.905c0-.8.729-1.247,1.6-1.247A1.778,1.778,0,0,1,4.211,1.67l.565-.329A2.359,2.359,0,0,0,2.493,0,2.052,2.052,0,0,0,.212,1.905c0,2.4,4.046,1.364,4.046,3.176,0,.847-.8,1.247-1.717,1.247A1.921,1.921,0,0,1,.565,5.151L0,5.481A2.531,2.531,0,0,0,2.54,6.963c1.435,0,2.4-.8,2.4-1.905C4.94,2.658.894,3.717.894,1.905Z" transform="translate(54.384 2.587)" fill="url(#linear-gradient-7)"/>
      <path id="Path-6" data-name="Path" d="M.541,0A.543.543,0,0,0,0,.517a.547.547,0,0,0,.541.541A.532.532,0,0,0,1.082.517.543.543,0,0,0,.541,0Z" transform="translate(60.782 0.071)" fill="url(#linear-gradient-8)"/>
      <rect id="Rectangle" width="0.659" height="6.68" transform="translate(60.994 2.752)" fill="url(#linear-gradient-9)"/>
      <path id="Shape-3" data-name="Shape" d="M3.528,6.962A3.565,3.565,0,0,1,.988,5.98,3.472,3.472,0,0,1,0,3.481,3.356,3.356,0,0,1,3.458,0,3.14,3.14,0,0,1,5.869,1.064,3.8,3.8,0,0,1,6.8,3.5a1.457,1.457,0,0,1-.012.165,1.458,1.458,0,0,0-.012.165H.729A2.691,2.691,0,0,0,3.552,6.328,2.548,2.548,0,0,0,5.857,5.1l.588.353A3.329,3.329,0,0,1,3.528,6.962ZM3.458.635A2.69,2.69,0,0,0,.682,3.175H6.069A2.591,2.591,0,0,0,3.458.635Z" transform="translate(63.369 2.611)" fill="url(#linear-gradient-10)"/>
      <path id="Path-7" data-name="Path" d="M.659,1.411V.094H0v6.68H.659V3.058A2.163,2.163,0,0,1,2.893.635V0A2.281,2.281,0,0,0,.659,1.411Z" transform="translate(71.814 2.658)" fill="url(#linear-gradient-11)"/>
    </g>
    <g id="Group-2" data-name="Group">
      <path id="Path-8" data-name="Path" d="M1.7,5.674A19.108,19.108,0,0,1,4.616,7.415a22.133,22.133,0,0,1,1.952,1.67,13.649,13.649,0,0,1,1.106,1.223A2.991,2.991,0,0,0,9.98,11.39a3.1,3.1,0,0,0,1.905-.682,2.983,2.983,0,0,0,.4-4.187Q11.579,5.674,10.8,4.9A26.42,26.42,0,0,0,8.192,2.64,22.851,22.851,0,0,0,4.264.288,2.983,2.983,0,0,0,1.7,5.674Z" transform="translate(29.138 2.041)" fill="url(#linear-gradient-12)"/>
      <path id="Shape-4" data-name="Shape" d="M23.353,46.748h0c-.416,0-.838-.011-1.254-.033A23.379,23.379,0,0,1,13.986,1.978,23.209,23.209,0,0,1,23.368,0a2.984,2.984,0,0,1,2.987,3.082A3.043,3.043,0,0,1,23.3,5.975,17.423,17.423,0,0,0,5.984,23.852a17.448,17.448,0,0,0,16.56,16.913c.279.013.561.02.839.02A17.345,17.345,0,0,0,40.515,26.368H34.587a11.6,11.6,0,1,1,0-5.974h9.15a2.979,2.979,0,0,1,2.988,2.964v.023A23.4,23.4,0,0,1,23.353,46.748Zm.015-29.012a5.645,5.645,0,1,0,5.645,5.645A5.652,5.652,0,0,0,23.368,17.736Z" transform="translate(0.061 0.071)" fill="url(#linear-gradient-13)"/>
    </g>
    <g id="Group-3" data-name="Group" transform="translate(60.453 11.996)">
      <path id="Shape-5" data-name="Shape" d="M7.763,16.889a7.311,7.311,0,0,1-5.481-2.446A8.451,8.451,0,0,1,0,8.445a8.451,8.451,0,0,1,2.282-6A7.218,7.218,0,0,1,7.763,0a6.268,6.268,0,0,1,5.222,2.328V.447H17.1V16.442H12.984V14.56A6.348,6.348,0,0,1,7.763,16.889Zm.8-12.961A4.254,4.254,0,0,0,5.386,5.2,4.486,4.486,0,0,0,4.14,8.445a4.486,4.486,0,0,0,1.247,3.246,4.331,4.331,0,0,0,3.176,1.27,4.329,4.329,0,0,0,3.175-1.27,4.607,4.607,0,0,0,1.27-3.246A4.415,4.415,0,0,0,11.738,5.2,4.327,4.327,0,0,0,8.563,3.929Z" transform="translate(16.136 6.116)" fill="#000230"/>
      <path id="Path-9" data-name="Path" d="M10.209,7.527a24.094,24.094,0,0,0-2.423-.776,13.194,13.194,0,0,1-2.07-.706c-.565-.259-.847-.612-.847-1.035a1.1,1.1,0,0,1,.517-.964A2.342,2.342,0,0,1,6.7,3.693,2.639,2.639,0,0,1,9.268,5.316L12.8,3.387A6.472,6.472,0,0,0,10.279.87,7.223,7.223,0,0,0,6.727,0,6.755,6.755,0,0,0,2.4,1.364,4.49,4.49,0,0,0,.659,5.081a4.047,4.047,0,0,0,.847,2.611,5.127,5.127,0,0,0,2.07,1.529,19.447,19.447,0,0,0,2.423.8,11.071,11.071,0,0,1,2.07.729c.565.259.847.612.847,1.035,0,.917-.729,1.364-2.211,1.364a2.949,2.949,0,0,1-3.128-2.07L0,13.1c1.2,2.54,3.434,3.811,6.727,3.811A7.718,7.718,0,0,0,11.314,15.6a4.4,4.4,0,0,0,1.835-3.787A4.339,4.339,0,0,0,12.3,9.08,4.8,4.8,0,0,0,10.209,7.527Z" transform="translate(35.872 6.092)" fill="#000230"/>
      <path id="Path-10" data-name="Path" d="M8.68,10.75,4.516,0H0L6.563,15.478A4.88,4.88,0,0,1,5.01,17.854a4.118,4.118,0,0,1-2.635.706v3.834A7.638,7.638,0,0,0,7.5,21.006a10.782,10.782,0,0,0,3.317-4.987L16.654,0H12.232Z" transform="translate(49.797 6.563)" fill="#000230"/>
      <path id="Shape-6" data-name="Shape" d="M8.445,16.889a8.194,8.194,0,0,1-6-2.446A8.194,8.194,0,0,1,0,8.445a8.194,8.194,0,0,1,2.446-6A8.194,8.194,0,0,1,8.445,0a8.3,8.3,0,0,1,6.022,2.446,8.13,8.13,0,0,1,2.47,6,8.13,8.13,0,0,1-2.47,6A8.3,8.3,0,0,1,8.445,16.889Zm0-12.867A4.207,4.207,0,0,0,5.363,5.269,4.39,4.39,0,0,0,4.14,8.445,4.314,4.314,0,0,0,5.363,11.62a4.15,4.15,0,0,0,3.082,1.246A4.232,4.232,0,0,0,11.55,11.62,4.4,4.4,0,0,0,12.8,8.445,4.321,4.321,0,0,0,11.55,5.269,4.235,4.235,0,0,0,8.445,4.022Z" transform="translate(86.845 6.116)" fill="#000230"/>
      <path id="Shape-7" data-name="Shape" d="M9.292,22.84a6.235,6.235,0,0,1-5.175-2.328v1.881H0V0H4.117V8.28A6.176,6.176,0,0,1,9.292,5.951,7.359,7.359,0,0,1,14.819,8.4a8.447,8.447,0,0,1,2.281,6,8.448,8.448,0,0,1-2.281,6A7.361,7.361,0,0,1,9.292,22.84ZM8.538,9.879a4.256,4.256,0,0,0-3.175,1.27A4.486,4.486,0,0,0,4.117,14.4a4.486,4.486,0,0,0,1.247,3.246,4.327,4.327,0,0,0,3.175,1.27,4.328,4.328,0,0,0,3.176-1.27,4.471,4.471,0,0,0,1.27-3.246,4.415,4.415,0,0,0-1.27-3.246A4.275,4.275,0,0,0,8.538,9.879Z" transform="translate(106.627 0.165)" fill="#000230"/>
      <path id="Shape-8" data-name="Shape" d="M7.763,16.889a7.311,7.311,0,0,1-5.481-2.446A8.451,8.451,0,0,1,0,8.445a8.451,8.451,0,0,1,2.282-6A7.218,7.218,0,0,1,7.763,0a6.268,6.268,0,0,1,5.222,2.328V.447H17.1V16.442H12.984V14.56A6.348,6.348,0,0,1,7.763,16.889Zm.8-12.961A4.254,4.254,0,0,0,5.386,5.2,4.486,4.486,0,0,0,4.14,8.445a4.486,4.486,0,0,0,1.247,3.246,4.331,4.331,0,0,0,3.176,1.27,4.329,4.329,0,0,0,3.175-1.27,4.607,4.607,0,0,0,1.27-3.246A4.415,4.415,0,0,0,11.738,5.2,4.327,4.327,0,0,0,8.563,3.929Z" transform="translate(125.774 6.116)" fill="#000230"/>
      <path id="Path-11" data-name="Path" d="M8.891,0A5.361,5.361,0,0,0,4.116,2.235V.447H0v16H4.116V7.809a4.121,4.121,0,0,1,.964-2.964,3.384,3.384,0,0,1,2.564-.988A3.164,3.164,0,0,1,9.95,4.7a3.334,3.334,0,0,1,.87,2.446v9.315h4.116V6.657A6.652,6.652,0,0,0,13.22,1.788,5.731,5.731,0,0,0,8.891,0Z" transform="translate(146.615 6.116)" fill="#000230"/>
      <path id="Shape-9" data-name="Shape" d="M7.809,22.84a7.361,7.361,0,0,1-5.528-2.446A8.448,8.448,0,0,1,0,14.4a8.447,8.447,0,0,1,2.282-6A7.359,7.359,0,0,1,7.809,5.951,6.235,6.235,0,0,1,12.984,8.28V0H17.1V22.393H12.984V20.512A6.175,6.175,0,0,1,7.809,22.84ZM8.563,9.879a4.331,4.331,0,0,0-3.176,1.27A4.415,4.415,0,0,0,4.117,14.4a4.415,4.415,0,0,0,1.27,3.246,4.328,4.328,0,0,0,3.176,1.27,4.253,4.253,0,0,0,3.175-1.27A4.486,4.486,0,0,0,12.984,14.4a4.486,4.486,0,0,0-1.247-3.246A4.329,4.329,0,0,0,8.563,9.879Z" transform="translate(164.21 0.165)" fill="#000230"/>
      <path id="Shape-10" data-name="Shape" d="M8.726,23.264a9.983,9.983,0,0,1-4.563-.988,7.021,7.021,0,0,1-2.752-2.47l-.026-.042A5.334,5.334,0,0,1,.612,17.9H5.034a4.447,4.447,0,0,0,3.834,1.694,4.381,4.381,0,0,0,3.082-1.012,3.751,3.751,0,0,0,1.129-2.916V13.949a6.076,6.076,0,0,1-5.128,2.423A7.457,7.457,0,0,1,2.282,14,8.027,8.027,0,0,1,0,8.186,8.111,8.111,0,0,1,2.3,2.4,7.636,7.636,0,0,1,7.974,0,6,6,0,0,1,13.1,2.423V.447h3.975V15.642a6.848,6.848,0,0,1-2.446,5.669A9.22,9.22,0,0,1,8.726,23.264ZM8.609,3.834A4.393,4.393,0,0,0,5.387,5.057a4.143,4.143,0,0,0-1.27,3.128,4.226,4.226,0,0,0,1.27,3.153,4.453,4.453,0,0,0,3.223,1.223,4.392,4.392,0,0,0,3.222-1.223A4.226,4.226,0,0,0,13.1,8.186a4.143,4.143,0,0,0-1.271-3.128A4.446,4.446,0,0,0,8.609,3.834Z" transform="translate(66.874 6.116)" fill="#000230"/>
      <path id="Path-12" data-name="Path" d="M0,22.393H13.855V18.159H4.4v-5.01h7.386V8.986H4.4V4.234h9.456V0H0Z" transform="translate(0.188 0.165)" fill="#000230"/>
    </g>
  </g>
</svg>
