<svg xmlns="http://www.w3.org/2000/svg" width="241.659" height="49.41" viewBox="0 0 241.659 49.41">
  <g id="Layer_1_2_Copy" data-name="Layer_1 2 Copy" transform="translate(-0.057)">
    <g id="Layer_1">
      <g id="Group">
        <g id="Group-2" data-name="Group" transform="translate(166.571 39.303)">
          <path id="Path" d="M7.112,0A2.439,2.439,0,0,0,4.866,1.4,2.234,2.234,0,0,0,2.807,0,2.311,2.311,0,0,0,.655,1.31V.187H0V6.831H.655V3.088C.655,1.4,1.591.655,2.714.655,3.743.655,4.4,1.31,4.4,2.62V6.831h.655V3.088C5.053,1.4,5.9.655,7.018.655A1.728,1.728,0,0,1,8.8,2.62V6.831h.655v-4.3A2.221,2.221,0,0,0,7.112,0Z" transform="translate(0.468 3.088)" fill="#fff"/>
          <path id="Path-2" data-name="Path" d="M4.96,3.556c0,1.778-1.029,2.62-2.339,2.62A1.892,1.892,0,0,1,.655,4.117V0H0V4.117A2.53,2.53,0,0,0,2.62,6.831a2.713,2.713,0,0,0,2.433-1.4v1.31h.655V.094H5.053V3.556Z" transform="translate(11.978 3.182)" fill="#fff"/>
          <path id="Path-3" data-name="Path" d="M3.556,6.176A2.757,2.757,0,0,1,.749,3.369,2.757,2.757,0,0,1,3.556.561,2.539,2.539,0,0,1,5.9,1.965l.561-.281A3.1,3.1,0,0,0,3.556,0,3.42,3.42,0,0,0,0,3.462,3.42,3.42,0,0,0,3.556,6.925,3.347,3.347,0,0,0,6.551,5.24l-.561-.374A2.8,2.8,0,0,1,3.556,6.176Z" transform="translate(19.277 3.182)" fill="#fff"/>
          <path id="Path-4" data-name="Path" d="M3.088,2.527A2.713,2.713,0,0,0,.655,3.93V0H0V9.358H.655V5.8c0-1.778,1.029-2.62,2.339-2.62A1.892,1.892,0,0,1,4.96,5.24V9.358h.655V5.24A2.371,2.371,0,0,0,3.088,2.527Z" transform="translate(27.325 0.561)" fill="#fff"/>
          <path id="Shape" d="M3.556,6.925A3.358,3.358,0,0,1,0,3.462,3.349,3.349,0,0,1,3.462,0,3.193,3.193,0,0,1,5.849,1.065a3.922,3.922,0,0,1,.982,2.4v.281H.749A2.7,2.7,0,0,0,3.556,6.269,2.462,2.462,0,0,0,5.9,5.054l.561.374A3.256,3.256,0,0,1,3.556,6.925ZM3.462.655A2.639,2.639,0,0,0,.655,3.181H6.083A2.649,2.649,0,0,0,3.462.655Z" transform="translate(38.087 3.088)" fill="#fff"/>
          <path id="Shape-2" data-name="Shape" d="M3.462,6.925A3.462,3.462,0,0,1,3.462,0a3.2,3.2,0,0,1,2.9,1.685V.094h.655V6.737H6.363v-1.5A3.2,3.2,0,0,1,3.462,6.925ZM3.556.749A2.746,2.746,0,0,0,.749,3.556,2.746,2.746,0,0,0,3.556,6.363,2.746,2.746,0,0,0,6.363,3.556,2.746,2.746,0,0,0,3.556.749Z" transform="translate(46.041 2.995)" fill="#fff"/>
          <path id="Path-5" data-name="Path" d="M.842,1.778C.842.936,1.591.561,2.433.561A1.637,1.637,0,0,1,4.117,1.591l.561-.281A2.326,2.326,0,0,0,2.433,0,1.99,1.99,0,0,0,.187,1.872c0,2.433,4.024,1.4,4.024,3.182,0,.842-.749,1.217-1.684,1.217A1.912,1.912,0,0,1,.561,5.053L0,5.428a2.51,2.51,0,0,0,2.527,1.5c1.4,0,2.433-.842,2.433-1.872C4.866,2.527.842,3.556.842,1.778Z" transform="translate(54.838 3.182)" fill="#fff"/>
          <path id="Path-6" data-name="Path" d="M.561,0A.6.6,0,0,0,0,.561a.6.6,0,0,0,.561.561A.6.6,0,0,0,1.123.561Q.983,0,.561,0Z" transform="translate(61.201 0.561)" fill="#fff"/>
          <rect id="Rectangle" width="0.655" height="6.644" transform="translate(61.388 3.182)" fill="#fff"/>
          <path id="Shape-3" data-name="Shape" d="M3.556,6.925A3.358,3.358,0,0,1,0,3.462,3.349,3.349,0,0,1,3.462,0,3.272,3.272,0,0,1,5.919,1.065a3.6,3.6,0,0,1,.912,2.4v.281H.749A2.7,2.7,0,0,0,3.556,6.269,2.462,2.462,0,0,0,5.9,5.054l.561.374A3.256,3.256,0,0,1,3.556,6.925Zm0-6.269A2.639,2.639,0,0,0,.749,3.181H6.176A2.648,2.648,0,0,0,3.556.655Z" transform="translate(63.728 3.088)" fill="#fff"/>
          <path id="Path-7" data-name="Path" d="M.655,1.5V.187H0V6.831H.655V3.088A2.212,2.212,0,0,1,2.9.655V0A2.531,2.531,0,0,0,.655,1.5Z" transform="translate(72.243 2.995)" fill="#fff"/>
        </g>
        <g id="Group-3" data-name="Group">
          <path id="Path-8" data-name="Path" d="M1.659,5.552A13.438,13.438,0,0,1,4.56,7.33,15.722,15.722,0,0,1,6.525,9.014c.374.374.749.842,1.123,1.217a2.839,2.839,0,0,0,2.339,1.123,2.861,2.861,0,0,0,1.872-.655,2.971,2.971,0,0,0,.374-4.211,12.051,12.051,0,0,0-1.5-1.591,19.592,19.592,0,0,0-2.62-2.246A20.758,20.758,0,0,0,4.186.311a2.87,2.87,0,0,0-3.93,1.4A2.951,2.951,0,0,0,1.659,5.552Z" transform="translate(29.129 2.122)" fill="#fff"/>
          <path id="Shape-4" data-name="Shape" d="M23.435,46.828c-.441,0-.883-.014-1.313-.038A23.467,23.467,0,0,1,.037,24.611,23.321,23.321,0,0,1,23.338,0a3.042,3.042,0,0,1,2.2.95,2.857,2.857,0,0,1,.794,2.138,3.128,3.128,0,0,1-3.088,2.9,17.406,17.406,0,0,0-12.466,5.38A17.179,17.179,0,0,0,5.932,23.863,17.588,17.588,0,0,0,22.5,40.8c.25.01.5.016.752.016A17.466,17.466,0,0,0,40.463,26.39h-5.9a11.631,11.631,0,1,1,0-5.99h9.171a2.963,2.963,0,0,1,3,2.994,23.5,23.5,0,0,1-14.26,21.591,22.935,22.935,0,0,1-9.037,1.841h0Zm-.1-28.954a5.615,5.615,0,1,0,5.615,5.614A5.621,5.621,0,0,0,23.338,17.874Z" transform="translate(0.057)" fill="#fff"/>
        </g>
        <g id="Group-4" data-name="Group" transform="translate(59.891 12.165)">
          <path id="Shape-5" data-name="Shape" d="M7.767,16.844a7.341,7.341,0,0,1-5.521-2.434A8.544,8.544,0,0,1,0,8.422a8.548,8.548,0,0,1,2.245-5.99A7.551,7.551,0,0,1,7.767,0a6.219,6.219,0,0,1,5.241,2.339V.374h4.118v16H13.008V14.5A6.3,6.3,0,0,1,7.767,16.844ZM8.609,3.837a4.292,4.292,0,0,0-3.181,1.31A4.445,4.445,0,0,0,4.211,8.422,4.445,4.445,0,0,0,5.428,11.7a3.981,3.981,0,0,0,3.181,1.31,4.3,4.3,0,0,0,3.182-1.31A4.912,4.912,0,0,0,13.1,8.422a4.522,4.522,0,0,0-1.31-3.275A4.3,4.3,0,0,0,8.609,3.837Z" transform="translate(16.657 5.989)" fill="#fff"/>
          <path id="Path-9" data-name="Path" d="M10.2,7.486a24.166,24.166,0,0,0-2.433-.749,8.679,8.679,0,0,1-2.059-.749c-.561-.281-.842-.655-.842-1.029a1.029,1.029,0,0,1,.561-.936,1.98,1.98,0,0,1,1.31-.374A2.577,2.577,0,0,1,9.264,5.24L12.82,3.369A6.551,6.551,0,0,0,10.294.842,7.393,7.393,0,0,0,6.738,0a6.614,6.614,0,0,0-4.3,1.4A4.66,4.66,0,0,0,.655,5.147,4.183,4.183,0,0,0,1.5,7.767a4.7,4.7,0,0,0,2.059,1.5c.842.281,1.591.561,2.433.842a8.679,8.679,0,0,1,2.059.749c.561.281.842.655.842,1.029q0,1.4-2.246,1.4A2.9,2.9,0,0,1,3.556,11.23L0,13.288c1.217,2.527,3.462,3.837,6.738,3.837a7.816,7.816,0,0,0,4.585-1.31,4.422,4.422,0,0,0,1.872-3.837,4.27,4.27,0,0,0-.842-2.714A4.258,4.258,0,0,0,10.2,7.486Z" transform="translate(36.402 5.989)" fill="#fff"/>
          <path id="Path-10" data-name="Path" d="M8.7,10.762,4.492,0H0L6.551,15.441A4.512,4.512,0,0,1,4.96,17.78a4.356,4.356,0,0,1-2.62.749v3.837a7.774,7.774,0,0,0,5.147-1.4A10.474,10.474,0,0,0,10.762,16l5.8-16h-4.4Z" transform="translate(50.346 6.363)" fill="#fff"/>
          <path id="Shape-6" data-name="Shape" d="M8.422,16.844A8.31,8.31,0,0,1,0,8.422,8.308,8.308,0,0,1,8.422,0a7.894,7.894,0,0,1,5.989,2.433,8.283,8.283,0,0,1,2.434,5.99,7.892,7.892,0,0,1-2.434,5.989A8.279,8.279,0,0,1,8.422,16.844Zm0-12.821A4.146,4.146,0,0,0,5.334,5.241,4.212,4.212,0,0,0,4.118,8.422,4.212,4.212,0,0,0,5.334,11.6a4.146,4.146,0,0,0,3.088,1.217A4.148,4.148,0,0,0,11.51,11.6a4.212,4.212,0,0,0,1.217-3.182A4.212,4.212,0,0,0,11.51,5.241,4.148,4.148,0,0,0,8.422,4.024Z" transform="translate(87.403 5.989)" fill="#fff"/>
          <path id="Shape-7" data-name="Shape" d="M9.265,22.833a6.04,6.04,0,0,1-5.147-2.339v1.872H0V0H4.117V8.329A6.041,6.041,0,0,1,9.265,5.99a7.085,7.085,0,0,1,5.521,2.433,8.544,8.544,0,0,1,2.246,5.989,8.545,8.545,0,0,1-2.246,5.99A7.337,7.337,0,0,1,9.265,22.833ZM8.516,9.826a4.292,4.292,0,0,0-3.181,1.309,4.445,4.445,0,0,0-1.217,3.275,4.446,4.446,0,0,0,1.217,3.276A3.983,3.983,0,0,0,8.516,19,4.3,4.3,0,0,0,11.7,17.687a4.523,4.523,0,0,0,1.31-3.276,4.521,4.521,0,0,0-1.31-3.275A4.294,4.294,0,0,0,8.516,9.826Z" transform="translate(107.148)" fill="#fff"/>
          <path id="Shape-8" data-name="Shape" d="M7.767,16.844a7.341,7.341,0,0,1-5.521-2.434A8.544,8.544,0,0,1,0,8.422a8.548,8.548,0,0,1,2.245-5.99A7.551,7.551,0,0,1,7.767,0a6.219,6.219,0,0,1,5.241,2.339V.374h4.118v16H13.008V14.5A6.3,6.3,0,0,1,7.767,16.844ZM8.516,3.837a4.292,4.292,0,0,0-3.181,1.31A4.445,4.445,0,0,0,4.117,8.422,4.445,4.445,0,0,0,5.334,11.7a3.981,3.981,0,0,0,3.181,1.31A4.3,4.3,0,0,0,11.7,11.7a4.094,4.094,0,0,0,1.217-3.275A4.445,4.445,0,0,0,11.7,5.147,4.3,4.3,0,0,0,8.516,3.837Z" transform="translate(126.332 5.989)" fill="#fff"/>
          <path id="Path-11" data-name="Path" d="M8.89,0A5.39,5.39,0,0,0,4.117,2.246V.468H0v16H4.117V7.861a4.113,4.113,0,0,1,.936-2.995A3.456,3.456,0,0,1,7.58,3.837a3.421,3.421,0,0,1,2.339.842,3.344,3.344,0,0,1,.842,2.433v9.264h4.117V6.551a6.839,6.839,0,0,0-1.684-4.866A5.781,5.781,0,0,0,8.89,0Z" transform="translate(147.107 5.989)" fill="#fff"/>
          <path id="Shape-9" data-name="Shape" d="M7.767,22.833A7.341,7.341,0,0,1,2.246,20.4,8.548,8.548,0,0,1,0,14.411,8.547,8.547,0,0,1,2.246,8.422,7.341,7.341,0,0,1,7.767,5.99a6.04,6.04,0,0,1,5.147,2.339V0h4.117V22.366H12.914V20.494A6.041,6.041,0,0,1,7.767,22.833ZM8.516,9.826a4.291,4.291,0,0,0-3.182,1.309,4.445,4.445,0,0,0-1.217,3.275,4.446,4.446,0,0,0,1.217,3.276A3.983,3.983,0,0,0,8.516,19,4.3,4.3,0,0,0,11.7,17.687a4.446,4.446,0,0,0,1.217-3.276A4.445,4.445,0,0,0,11.7,11.136,4.294,4.294,0,0,0,8.516,9.826Z" transform="translate(164.793)" fill="#fff"/>
          <path id="Shape-10" data-name="Shape" d="M8.89,23.207A10.03,10.03,0,0,1,4.3,22.179,6.48,6.48,0,0,1,1.5,19.745a4.939,4.939,0,0,1-.842-1.871h4.4A4.507,4.507,0,0,0,8.89,19.558a4.539,4.539,0,0,0,3.088-1.03,3.709,3.709,0,0,0,1.123-2.9V13.944a6.224,6.224,0,0,1-5.147,2.433,7.518,7.518,0,0,1-5.709-2.339A8.194,8.194,0,0,1,0,8.235a8.347,8.347,0,0,1,2.339-5.8A7.752,7.752,0,0,1,8.048,0a6.069,6.069,0,0,1,5.147,2.433V.374h4.024v15.16a7.006,7.006,0,0,1-2.434,5.709A9.007,9.007,0,0,1,8.89,23.207ZM8.8,3.837A4.21,4.21,0,0,0,5.615,5.054,3.983,3.983,0,0,0,4.4,8.141a4.176,4.176,0,0,0,4.4,4.4,4.176,4.176,0,0,0,4.4-4.4,4.148,4.148,0,0,0-1.217-3.088A4.212,4.212,0,0,0,8.8,3.837Z" transform="translate(67.284 5.989)" fill="#fff"/>
          <path id="Path-12" data-name="Path" d="M0,22.365H13.85V18.154H4.4v-4.96h7.393V8.984H4.4V4.211H13.85V0H0Z" transform="translate(0.749)" fill="#fff"/>
        </g>
      </g>
    </g>
  </g>
</svg>
