<?xml version="1.0" encoding="UTF-8"?>
<svg width="1198px" height="592px" viewBox="0 0 1198 592" version="1.1" xmlns="http://www.w3.org/2000/svg" xmlns:xlink="http://www.w3.org/1999/xlink">
    <!-- Generator: Sketch 63.1 (92452) - https://sketch.com -->
    <title>Group 7</title>
    <desc>Created with Sketch.</desc>
    <defs>
        <polygon id="path-1" points="0 0 1198 0 1198 592 0 592"></polygon>
    </defs>
    <g id="Contacto" stroke="none" stroke-width="1" fill="none" fill-rule="evenodd">
        <g id="CONTACTO" transform="translate(-121.000000, -1385.000000)">
            <g id="Group-7" transform="translate(121.000000, 1385.000000)">
                <g id="Group-3">
                    <mask id="mask-2" fill="white">
                        <use xlink:href="#path-1"></use>
                    </mask>
                    <g id="Clip-2"></g>
                    <path d="M1148.54848,533.368577 L1145.83396,532.68953 C1145.05422,532.494961 1144.22878,532.677856 1143.60459,533.184709 L1128.68155,545.290807 C1127.08803,546.583719 1127.58971,549.133549 1129.55268,549.726012 L1137.039,551.98788 C1138.19209,552.336159 1139.43267,551.831252 1140.01505,550.776686 L1144.40087,542.835343 C1144.53017,542.60186 1144.69546,542.38978 1144.88991,542.206884 L1149.67726,537.716227 C1151.15313,536.330894 1150.51242,533.859864 1148.54848,533.368577 L1148.54848,533.368577 Z M1149.59073,507.719488 L1153.73445,518.918893 C1154.00377,519.647555 1153.92793,520.458908 1153.52834,521.125308 L1152.15844,523.404687 C1151.60523,524.324026 1151.68592,525.491442 1152.35872,526.327116 L1155.8034,530.606667 C1157.11204,532.232293 1159.71086,531.689445 1160.26019,529.67468 L1161.81773,523.962127 C1162.01704,523.23152 1162.52941,522.62641 1163.21679,522.310235 L1168.08193,520.074634 C1168.98903,519.657283 1169.57141,518.749618 1169.57141,517.750505 L1169.57141,516.889536 C1169.57141,515.275584 1168.09554,514.065363 1166.51369,514.381538 L1160.92715,515.499339 C1159.76434,515.731849 1158.59472,515.134521 1158.10179,514.055635 L1154.31197,505.766986 C1153.89585,504.857374 1152.98777,504.273667 1151.98732,504.273667 C1150.20713,504.273667 1148.97238,506.049111 1149.59073,507.719488 L1149.59073,507.719488 Z M971.023653,450.218443 L952.726906,457.578024 C950.707546,458.39035 949.528208,460.502399 949.897663,462.648498 L956.385478,500.433843 C956.765627,502.651932 958.687763,504.273667 960.937546,504.273667 L981.438381,504.273667 C982.171456,504.273667 982.894809,504.098554 983.547188,503.763895 L1002.35923,494.103533 C1003.89052,493.317473 1005.73293,493.448808 1007.13783,494.444029 L1018.49661,502.495304 C1020.01623,503.572245 1022.03268,503.631588 1023.61258,502.645122 L1025.595,501.406689 C1027.96826,499.924072 1031.10473,500.877461 1032.25296,503.431182 L1038.51035,517.346774 C1039.25606,519.005476 1040.905,520.071716 1042.72213,520.071716 L1055.52178,520.071716 C1056.15958,520.071716 1056.7896,519.939409 1057.37294,519.684523 L1068.32727,514.888391 C1069.21396,514.500226 1069.95676,513.843555 1070.44969,513.010798 L1082.2489,493.087882 C1082.67085,492.374785 1082.89447,491.560513 1082.89447,490.731648 L1082.89447,468.451525 C1082.89447,467.145966 1082.34223,465.901696 1081.37582,465.025161 L1060.28094,445.91068 C1059.95426,445.614934 1059.67231,445.273465 1059.44189,444.897947 L1049.36162,428.42377 C1047.29948,425.053831 1042.23698,425.658941 1041.02556,429.418992 L1037.96978,438.910079 C1036.96253,442.037779 1033.10659,443.143905 1030.59624,441.026019 L1025.38694,436.632646 C1024.1969,435.629641 1023.59217,434.09449 1023.77689,432.548638 L1024.51094,426.421652 C1024.84053,423.670444 1022.69381,421.249029 1019.92484,421.249029 L1012.07977,421.249029 C1010.92085,421.249029 1009.80471,421.684865 1008.95107,422.469951 L996.926302,433.544832 C995.436817,434.915572 993.22884,435.157811 991.478793,434.140214 L991.478793,434.140214 C989.462349,432.968907 986.889779,433.484516 985.480991,435.342652 L981.469493,440.629098 C981.320739,440.825613 981.156429,441.010454 980.977535,441.180702 L972.486888,449.275755 C972.063959,449.679486 971.56714,449.999552 971.023653,450.218443 L971.023653,450.218443 Z M1029.24287,388.686895 L1021.2578,392.090884 C1020.69389,392.33215 1020.03957,392.187196 1019.62928,391.731904 L1018.88745,390.909849 C1018.64925,390.646208 1018.518,390.302793 1018.518,389.947704 L1018.518,385.564059 C1018.518,384.928791 1018.10091,384.369404 1017.49228,384.187482 L1009.36817,381.757312 C1009.23497,381.717426 1009.09594,381.697969 1008.95691,381.697969 L1006.28808,381.697969 C1005.49473,381.697969 1004.8511,382.34102 1004.8511,383.134862 L1004.8511,383.618367 C1004.8511,384.156351 1005.15153,384.648611 1005.6289,384.895714 L1009.53637,386.91437 C1009.76582,387.033057 1009.95832,387.211088 1010.09541,387.429978 L1011.30683,389.368861 C1011.54503,389.750216 1011.94754,389.998292 1012.39478,390.039152 L1014.33441,390.215237 C1015.0743,390.282363 1015.64014,390.903039 1015.64014,391.646294 L1015.64014,392.134662 C1015.64014,392.370091 1015.58278,392.601628 1015.47194,392.809818 L1014.42872,394.76913 C1013.82301,395.908333 1014.90901,397.208055 1016.13696,396.813079 L1016.89921,396.566949 C1017.13449,396.491067 1017.3863,396.477448 1017.62936,396.528036 L1024.03162,397.849161 C1024.19107,397.882237 1024.34274,397.941581 1024.48177,398.025246 L1032.72352,402.979951 C1033.5373,403.469293 1033.66077,404.59974 1032.97339,405.253493 L1030.83445,407.286741 C1029.89428,408.18176 1030.52624,409.766526 1031.82419,409.766526 L1038.05923,409.766526 C1038.44229,409.766526 1038.80883,409.91829 1039.07814,410.189714 L1043.18589,414.32431 C1043.68466,414.826299 1044.47315,414.889534 1045.0458,414.475102 L1052.29197,409.229515 C1052.74893,408.898747 1053.35659,408.866643 1053.8466,409.14585 L1057.3535,411.151859 C1057.80073,411.407718 1058.07685,411.883439 1058.07685,412.399048 L1058.07685,414.106393 C1058.07685,414.750417 1058.50561,415.315641 1059.12494,415.48978 L1069.61161,418.435558 C1071.01554,418.829561 1072.04515,417.122216 1071.04276,416.062787 L1062.64934,407.198212 C1062.27211,406.800318 1062.15446,406.221475 1062.34697,405.706839 L1063.46603,402.710473 C1063.81701,401.770704 1063.12282,400.769645 1062.12043,400.769645 L1058.80896,400.769645 C1058.16436,400.769645 1057.59753,400.339647 1057.42545,399.717025 L1056.15083,395.125191 C1056.00791,394.612501 1055.5947,394.220444 1055.07552,394.106621 L1030.11498,388.606149 C1029.82331,388.540969 1029.51802,388.570154 1029.24287,388.686895 L1029.24287,388.686895 Z M972.595779,378.981782 L966.884791,391.436159 C966.783677,391.656995 966.746732,391.901179 966.776871,392.141472 L968.136075,402.819432 C968.218716,403.467347 968.769009,403.952797 969.42236,403.952797 L970.549196,403.952797 C971.265743,403.952797 971.846176,403.372008 971.846176,402.655021 L971.846176,396.636994 C971.846176,395.347 973.52136,394.846957 974.227213,395.925844 L976.545053,399.470895 C976.89798,400.009852 977.593137,400.208313 978.177459,399.935916 L981.199208,398.530153 C981.91381,398.196467 982.16854,397.307285 981.737833,396.64575 L977.670917,390.399105 C977.365631,389.931166 977.395771,389.319245 977.743836,388.881465 L979.564858,386.601113 C980.242515,385.750846 979.637776,384.493929 978.551775,384.493929 L975.676835,384.493929 C975.501831,384.493929 975.32877,384.528951 975.167377,384.598023 C974.049291,385.075691 972.948706,383.887845 973.507749,382.807986 L974.218462,381.437246 C974.472219,380.946931 975.008901,380.670643 975.554332,380.750416 L983.847613,381.949936 C984.308459,382.016089 984.769305,381.830276 985.055146,381.463513 L988.993725,376.408604 C989.540129,375.708155 989.235815,374.677911 988.397737,374.386057 L985.72697,373.456016 C985.08723,373.233234 984.383322,373.541626 984.112065,374.163275 L982.87342,377.005932 C982.677998,377.455387 982.245347,377.755996 981.756306,377.783236 L973.703171,378.226854 C973.22288,378.254093 972.797035,378.544001 972.595779,378.981782 L972.595779,378.981782 Z M978.274684,337.172745 L980.888088,339.778027 C981.123372,340.012483 981.296433,340.300446 981.39463,340.617594 L983.191345,346.440078 C983.453852,347.291318 984.240401,347.871135 985.130009,347.871135 L985.920447,347.871135 C987.040478,347.871135 987.948558,346.962496 987.948558,345.840805 L987.948558,342.211116 C987.948558,341.686752 987.74633,341.182817 987.383681,340.80438 L981.171012,334.329116 C980.240571,333.359188 978.641222,333.545975 977.958703,334.704635 C977.489107,335.502369 977.618416,336.518993 978.274684,337.172745 L978.274684,337.172745 Z M975.197517,354.002984 L975.197517,354.002984 C974.985567,355.931165 976.738531,357.49161 978.62761,357.056748 L979.139013,356.939034 C980.381547,356.652044 981.661026,357.237698 982.257986,358.364253 L984.17915,361.991997 C985.012367,363.565089 987.076451,363.979521 988.452183,362.850047 L993.045085,359.078322 C993.88608,358.387602 994.25359,357.273693 993.990111,356.218155 L992.590073,350.613588 C992.211868,349.100812 990.676687,348.183418 989.166785,348.567693 L977.302435,351.58157 C976.164904,351.871478 975.325854,352.835569 975.197517,354.002984 L975.197517,354.002984 Z M971.215186,320.499135 L968.655256,328.415184 C968.416082,329.15552 968.49289,329.961037 968.867206,330.642029 L970.124323,332.92919 C971.002264,334.526604 973.141211,334.883638 974.488748,333.656879 C975.076958,333.122787 975.411412,332.36494 975.411412,331.570124 L975.411412,328.158353 C975.411412,327.601885 975.576694,327.057091 975.884897,326.594016 L978.325241,322.932223 C979.573608,321.057549 978.230933,318.547606 975.980177,318.547606 L973.895676,318.547606 C972.673559,318.547606 971.591447,319.336584 971.215186,320.499135 L971.215186,320.499135 Z M971.864648,296.803521 L969.57792,298.675277 C968.813732,299.300817 968.567753,300.364138 968.979014,301.262075 L971.264771,306.253749 C971.61867,307.026188 972.390635,307.521367 973.239408,307.521367 C974.439163,307.521367 975.411412,306.547548 975.411412,305.348029 L975.411412,298.485572 C975.411412,296.651757 973.282187,295.641943 971.864648,296.803521 L971.864648,296.803521 Z M934.204597,382.6212 L940.67394,391.584031 C941.202843,392.315612 941.947585,392.863324 942.803164,393.149341 L953.616514,396.755682 C955.598929,397.417217 957.76996,396.558194 958.765542,394.719515 L967.212439,379.115062 C967.881346,377.879547 967.905652,376.394011 967.277579,375.136121 L963.618035,367.813508 C962.78968,366.153833 963.114411,364.150742 964.425002,362.839346 C966.391861,360.870305 966.005878,357.581112 963.636508,356.121843 L961.217554,354.632415 C959.004716,353.269458 956.099637,354.163504 955.03308,356.53433 L949.738214,368.308687 C949.428066,368.997462 948.943887,369.591871 948.332342,370.033543 L942.259677,374.422052 C941.750219,374.789788 941.167842,375.041755 940.551436,375.160442 L936.883142,375.866729 C933.791391,376.461138 932.361214,380.067478 934.204597,382.6212 L934.204597,382.6212 Z M928.613195,401.504144 L928.613195,401.504144 C927.154822,404.714536 928.687086,408.492098 931.969398,409.777227 L942.573713,413.929335 C944.581407,414.715395 946.85258,414.391437 948.561793,413.076149 L950.710462,411.42231 C953.90916,408.960037 953.90916,404.133747 950.710462,401.672446 L947.465096,399.174177 C946.390762,398.347258 945.073365,397.898776 943.71805,397.898776 L934.208486,397.898776 C931.798282,397.898776 929.610722,399.30843 928.613195,401.504144 L928.613195,401.504144 Z M896.685522,379.487662 L903.129586,391.247427 C903.346397,391.641429 903.640016,391.987763 903.994887,392.263078 L916.018686,401.620885 C917.600535,402.851536 919.903792,402.395271 920.898402,400.654849 L924.41697,394.492841 C925.270604,392.99855 924.831148,391.098581 923.407776,390.132545 L901.835523,375.485373 C901.764549,375.437704 901.695519,375.386143 901.627462,375.332636 L901.627462,375.332636 C898.817663,373.082443 894.954919,376.330776 896.685522,379.487662 L896.685522,379.487662 Z M723.820685,431.476561 L715.745188,440.29152 C714.72141,441.409321 714.050558,442.804382 713.816246,444.303538 L711.24076,460.796199 C710.511573,465.463915 714.118616,469.68023 718.838883,469.68023 L721.502844,469.68023 C724.858074,469.68023 727.826349,467.503 728.836516,464.302336 L736.823538,438.993743 C737.272717,437.572415 737.298968,436.051857 736.900346,434.616909 L736.900346,434.616909 C735.284469,428.795397 727.901212,427.021899 723.820685,431.476561 L723.820685,431.476561 Z M745.289879,233.001351 L745.289879,247.516216 C745.289879,250.805409 742.624946,253.471007 739.338746,253.471007 L736.548392,253.471007 C733.261219,253.471007 730.596286,250.805409 730.596286,247.516216 L730.596286,239.310258 C730.596286,238.386054 730.381419,237.473525 729.968213,236.646606 L723.959716,224.621254 C722.410924,221.521766 723.823602,217.758797 727.029105,216.446428 L733.712343,213.710784 C737.078267,212.333234 740.881704,214.271144 741.747005,217.805494 L745.118764,231.584887 C745.232517,232.048935 745.289879,232.523683 745.289879,233.001351 L745.289879,233.001351 Z M693.524445,215.881204 L693.712089,216.822919 C694.079599,218.660626 695.291021,220.219125 696.980789,221.02756 L707.413017,226.020207 C710.870333,227.674045 711.886333,232.118979 709.492657,235.112427 C708.118869,236.830473 705.90992,237.650583 703.748612,237.245879 L680.146303,232.817483 C679.784627,232.749384 679.418089,232.715334 679.049607,232.715334 L667.797773,232.715334 C663.332235,232.715334 660.457296,227.977573 662.517491,224.013225 L667.564434,214.302275 C668.588212,212.331288 670.6241,211.094801 672.844716,211.094801 L687.688036,211.094801 C690.525058,211.094801 692.967346,213.097891 693.524445,215.881204 L693.524445,215.881204 Z M532.494791,269.230142 L526.991863,275.646063 C526.813942,275.853279 526.641854,276.066332 526.477544,276.28425 L508.747617,299.669526 C505.690868,303.701 505.120158,309.096405 507.264938,313.678511 L508.279966,315.846985 C510.038764,319.604116 509.990151,323.958576 508.14774,327.675821 L508.14774,327.675821 C505.539197,332.939892 506.597976,339.284794 510.774756,343.415499 L531.287258,363.697396 C533.835521,366.217068 537.27242,367.62964 540.855157,367.62964 L552.550336,367.62964 L558.132015,367.62964 C560.147487,367.62964 562.13768,367.182131 563.959674,366.318244 L576.27223,360.482139 C577.091836,360.093974 578.06214,360.212661 578.765076,360.787613 L586.473063,367.098466 C586.893075,367.441881 587.418089,367.62964 587.960604,367.62964 L594.281192,367.62964 C595.578172,367.62964 596.629173,368.681287 596.629173,369.979064 L596.629173,386.730502 C596.629173,387.819117 596.882929,388.892166 597.369054,389.865985 L609.17993,413.502255 C609.999536,415.142474 610.144401,417.037578 609.583413,418.782864 L603.528249,437.63565 C602.982817,439.331321 603.104349,441.171946 603.866591,442.782006 L609.783697,455.28308 C610.228014,456.220903 610.458437,457.246283 610.458437,458.28431 L610.458437,471.016921 C610.458437,472.401281 610.867754,473.753537 611.634858,474.905387 L629.121722,501.151803 C630.421619,503.10236 632.609178,504.273667 634.951325,504.273667 L655.27035,504.273667 C657.524022,504.273667 659.639635,503.188943 660.95606,501.35902 L673.096529,484.487922 C673.955024,483.294239 674.416842,481.861237 674.416842,480.391266 L674.416842,474.968622 C674.416842,471.838003 676.490649,469.086794 679.498786,468.227771 L681.435505,467.673248 C684.443642,466.813252 686.517449,464.063016 686.517449,460.932397 L686.517449,453.557251 C686.517449,451.698142 687.255386,449.914915 688.568893,448.600599 L701.751613,435.410751 C703.065121,434.095463 703.803058,432.312236 703.803058,430.453127 L703.803058,412.732734 C703.803058,411.512785 703.485132,410.314239 702.880394,409.254809 L699.580582,403.477076 C697.995816,400.702518 698.487774,397.206109 700.776447,394.976346 L728.321224,368.140384 C729.243888,367.240502 729.901128,366.104217 730.220998,364.855083 L732.981212,354.060382 C734.643757,347.556905 728.792764,341.619625 722.270921,343.191745 C717.346481,344.37959 712.185785,342.556476 709.097924,338.539594 L705.531716,333.901064 L696.024096,328.711902 L681.053411,287.713246 C680.770487,286.937888 681.780653,286.356126 682.308584,286.989449 L701.21007,309.68595 L710.797414,329.285882 C713.695687,335.211488 720.611292,337.973398 726.790905,335.674562 L753.407183,325.770015 C754.303597,325.436329 755.051256,324.791332 755.512102,323.952739 L763.050918,310.236581 C763.813161,308.850275 763.684824,307.144876 762.724242,305.888931 L755.30793,296.183818 C754.044006,294.529979 751.720332,294.126248 749.973201,295.257668 L742.065903,300.377758 C740.088349,301.658023 737.437999,300.953683 736.355887,298.861091 L728.421365,283.511524 C727.04855,280.854681 728.975547,277.687094 731.96424,277.687094 C733.272886,277.687094 734.498892,278.329172 735.243634,279.406113 L740.561834,287.092571 C741.3513,288.233719 742.677447,288.882607 744.061929,288.805753 L755.609327,288.163674 C756.742969,288.100439 757.848415,288.523627 758.651493,289.326225 L763.136476,293.814938 C763.884135,294.563056 764.899162,294.983326 765.956969,294.983326 L786.749478,294.983326 C787.867564,294.983326 788.933149,295.457102 789.682753,296.285967 L804.509545,312.683289 C804.785663,312.989735 805.013169,313.336069 805.182341,313.71256 L821.588064,350.112572 C822.921989,353.07197 827.052102,353.254865 828.6427,350.425829 L839.971342,330.274293 C840.22996,329.814137 840.578025,329.410406 840.996092,329.086448 L870.576757,306.146736 C872.716676,304.48706 875.85315,305.420992 876.738869,307.981523 L881.635113,322.132544 C882.260269,323.940092 884.086152,325.041354 885.975231,324.750473 L890.258958,324.090883 C892.33082,323.771789 894.291846,325.125991 894.73033,327.177724 L897.3204,339.316898 C897.377763,339.588322 897.40693,339.865584 897.40693,340.143818 L897.40693,350.357729 C897.40693,350.911279 897.5236,351.458991 897.74819,351.965844 L904.023082,366.092543 C904.220449,366.537134 904.49754,366.940865 904.840744,367.28428 L907.133306,369.578251 C910.034496,372.481224 914.889906,369.589925 913.724179,365.65379 L911.462729,358.015974 C911.313003,357.51204 911.064107,357.041183 910.731598,356.634533 L904.351702,348.832307 C903.773215,348.125047 903.457234,347.238785 903.457234,346.325282 L903.457234,346.325282 C903.457234,342.390119 908.573206,340.864697 910.725765,344.158754 L915.605481,351.626321 C916.939406,353.668325 919.784205,354.029251 921.58481,352.383195 L933.658193,341.350147 C934.791835,340.315038 935.436436,338.850905 935.436436,337.315754 L935.436436,330.177981 C935.436436,328.204077 934.372796,326.383881 932.653861,325.415899 L926.859259,322.154919 C924.046543,320.571126 923.212354,316.905441 925.062543,314.2593 L925.367829,313.823465 C926.731894,311.874854 929.199461,311.032369 931.469662,311.742547 L938.913197,314.069595 C940.534908,314.57742 942.301484,314.299186 943.689855,313.318557 L969.157908,295.329659 C970.262383,294.550409 971.038237,293.388831 971.335745,292.069652 L976.543109,268.994713 C976.79006,267.897343 976.693807,266.750357 976.266018,265.710385 L971.857843,254.999348 C971.234631,253.484627 971.323106,251.770472 972.09896,250.328714 L974.824173,245.26505 C976.047262,242.991508 978.695667,241.885382 981.171985,242.614044 L988.879,244.882721 C990.594046,245.386655 991.95325,246.699025 992.518126,248.395669 L994.272063,253.660712 C995.488346,257.310831 999.993746,258.594015 1002.94744,256.130769 L1002.94744,256.130769 C1005.27695,254.188968 1005.57834,250.719798 1003.62023,248.404424 L1000.44681,244.651184 C998.816353,242.723003 998.719128,239.928016 1000.21153,237.890876 L1005.53751,230.623715 C1006.56615,229.219898 1008.20147,228.391033 1009.94082,228.391033 L1021.21113,228.391033 C1023.21299,228.391033 1025.05443,227.294635 1026.01015,225.534757 L1040.29248,199.208567 C1040.67944,198.49547 1040.88166,197.696764 1040.88166,196.88541 L1040.88166,183.964067 C1040.88166,181.27512 1038.70383,179.095945 1036.01653,179.095945 C1031.59086,179.095945 1029.46357,173.662599 1032.71186,170.654559 L1048.99022,155.58128 C1049.88955,154.748524 1051.06986,154.286422 1052.29489,154.286422 L1078.2549,154.286422 C1079.24465,154.286422 1080.21107,153.983867 1081.02484,153.420589 L1100.13341,140.17918 C1100.94718,139.614929 1101.9136,139.313347 1102.90335,139.313347 L1109.61867,139.313347 C1114.05601,139.313347 1116.17746,144.770041 1112.90584,147.770298 L1092.9028,166.117204 C1091.71957,167.203873 1091.14692,168.804205 1091.37442,170.394809 L1093.84588,187.706606 C1094.43215,191.813963 1099.55492,193.352033 1102.30444,190.245735 L1120.90356,169.234203 C1121.69108,168.344049 1122.12665,167.196091 1122.12665,166.007273 L1122.12665,157.89179 C1122.12665,155.750556 1123.52571,153.859343 1125.57327,153.235748 L1142.86957,147.961949 L1163.6125,139.313347 L1172.25579,139.313347 L1196.34714,116.457299 C1199.18902,113.761542 1198.22163,109.018917 1194.55237,107.652068 L1149.54989,90.895766 C1148.05749,90.3402709 1146.39398,90.4861978 1145.02116,91.294633 L1133.88502,97.8496704 C1132.98083,98.3818173 1131.93858,98.6328116 1130.89147,98.5715223 L1105.11327,97.0538823 C1103.82407,96.9780003 1102.60584,96.4322336 1101.69095,95.5206767 L1084.78063,78.671954 C1083.78894,77.6835423 1082.44724,77.12902 1081.0472,77.12902 L1040.37123,77.12902 C1039.03342,77.12902 1037.74422,77.6358728 1036.76516,78.5493754 L1026.48752,88.1270458 C1025.21777,89.3109996 1023.44827,89.7964499 1021.75267,89.4257955 L1000.96502,84.8835767 C998.534401,84.3524027 996.801854,82.1994942 996.801854,79.7109537 L996.801854,76.0306766 C996.801854,73.5820228 995.124725,71.4534354 992.745633,70.8814019 L978.798726,67.5328654 C976.635473,67.0133655 974.377911,67.9035198 973.149961,69.7606831 L970.523918,73.7337868 C969.200687,75.7359043 966.698119,76.5968731 964.425002,75.832216 L948.162199,70.3648206 C943.861943,68.9181983 943.254288,63.083067 947.164672,60.781313 L948.968193,59.7199378 C950.732824,58.6809381 951.740074,56.7167617 951.554374,54.6767033 L951.394925,52.9177975 C951.162558,50.3640763 949.136392,48.3434748 946.583267,48.1216659 L892.867501,43.4481129 C891.880669,43.3625024 890.888975,43.555126 890.006174,44.0055538 L850.166341,64.329283 C848.393932,65.2330571 847.27779,67.0551979 847.27779,69.046614 L847.27779,69.3423593 C847.27779,71.4028474 846.082897,73.2765491 844.216179,74.1443279 L826.034157,82.5993339 C824.220914,83.4418187 822.0878,83.1908244 820.520535,81.9484999 L816.876547,79.0630381 C815.36859,77.8693559 813.333673,77.5872305 811.558347,78.3265936 L791.425994,86.7115547 C789.197601,87.6396499 787.879231,89.9579423 788.220491,92.3491982 L788.220491,92.3491982 C788.761061,96.1374612 785.230826,99.231112 781.54892,98.1950308 L766.71824,94.0215208 C763.939553,93.2393524 761.047113,94.8299559 760.216813,97.5967304 L760.146811,97.833132 C759.525544,99.9033487 757.708411,101.388885 755.556825,101.584427 L731.894238,103.737335 C731.041576,103.81419 730.220998,104.097288 729.502506,104.562309 L692.968319,128.173285 C691.702451,128.991449 690.051573,128.886382 688.899458,127.915481 L684.414475,124.135974 C682.337752,122.386796 683.02027,119.030477 685.616174,118.23177 L698.103736,114.390974 C698.444023,114.285906 698.765837,114.129278 699.058484,113.925953 C701.194514,112.43458 700.955341,109.197921 698.621944,108.038288 L651.903453,84.812559 C650.852452,84.2901406 649.607973,84.3417014 648.604613,84.9487574 L606.596666,110.336151 C606.292352,110.520019 606.018178,110.750583 605.783866,111.019089 L577.581849,143.418758 C576.578489,144.572553 576.458902,146.251686 577.289202,147.535843 L583.949106,157.835365 C584.799823,159.14968 586.431256,159.721714 587.91588,159.225562 L599.0841,155.48886 C601.009153,154.845809 603.068375,156.005441 603.51561,157.986156 L605.438718,166.494669 C605.83345,168.238982 607.499885,169.387913 609.268405,169.134973 L616.377487,168.118349 C617.536407,167.952965 618.530046,167.207765 619.014225,166.141525 L626.342063,150.011736 C626.689156,149.248052 626.744574,148.384164 626.497623,147.582539 L624.059224,139.651897 C623.670324,138.38817 624.042695,137.013538 625.014944,136.11852 L641.453724,120.987844 C642.086658,120.405109 642.915014,120.082124 643.775454,120.082124 L646.321773,120.082124 C649.367828,120.082124 650.902036,123.759482 648.7592,125.926011 L637.251665,137.565142 C636.218165,138.609979 635.96538,140.197664 636.622621,141.512952 L638.843236,145.956913 C639.451864,147.174917 640.722593,147.917198 642.081797,147.850072 L655.079789,147.199238 C656.34274,147.136003 657.537633,147.773217 658.18904,148.857941 L658.327099,149.086559 C659.701859,151.373721 658.055842,154.286422 655.388964,154.286422 L649.928816,154.286422 C648.138906,154.286422 646.650393,155.662999 646.510389,157.448172 L646.058294,163.182127 C645.958152,164.457529 645.156047,165.571438 643.979626,166.071481 L618.074061,177.068534 C617.612243,177.264076 617.113479,177.356496 616.611799,177.338985 L594.125632,176.535414 C593.502421,176.513038 592.884071,176.660911 592.338639,176.964439 L577.771438,185.062411 C577.667407,185.120781 577.567266,185.185962 577.47393,185.258925 L561.383215,197.724003 C555.625558,202.18353 554.745673,210.546116 559.449412,216.107877 C559.992899,216.750929 560.151376,217.637191 559.86359,218.429088 L557.433941,225.114487 C557.09657,226.043555 556.214741,226.661312 555.226936,226.661312 L547.432419,226.661312 C540.875574,226.661312 535.711961,232.258096 536.234059,238.798541 L536.868937,246.732102 C536.9438,247.671871 537.572845,248.476415 538.467314,248.774106 L551.721008,253.194719 C552.255744,253.373722 552.837149,253.353293 553.358274,253.138294 L565.789445,248.016259 C566.66933,247.65436 567.242957,246.79631 567.242957,245.843893 L567.242957,241.90873 C567.242957,235.789528 570.836388,230.242359 576.41904,227.743117 L589.103968,222.064614 C594.429946,219.681141 600.498722,223.336124 600.887622,229.160554 L600.887622,229.160554 C600.928456,229.775393 601.209436,230.350345 601.670282,230.759913 L615.153426,242.753161 C615.951642,243.463339 617.128063,243.545058 618.016698,242.952594 L619.886332,241.705406 C620.907193,241.024413 621.231925,239.672157 620.633019,238.602026 L610.224125,220.004126 C609.832309,219.302704 609.824531,218.449518 610.205653,217.741286 L612.998923,212.550179 C613.984783,210.71831 616.688607,210.978059 617.307929,212.963639 L619.840637,221.072311 C619.923278,221.336925 620.052587,221.585001 620.220786,221.804864 L628.521845,232.601511 C628.579208,232.677393 628.633653,232.756194 628.682266,232.838886 L638.619619,249.668151 C639.291443,250.804436 640.767317,251.164389 641.886375,250.464912 L645.415637,248.257524 C646.227465,247.749699 646.650393,246.800201 646.484139,245.85654 L646.484139,245.85654 C646.027182,243.266824 649.517554,241.996287 650.831062,244.273719 L655.43466,252.258841 C656.45941,254.037204 658.46127,255.015887 660.494242,254.733761 L675.167418,252.694676 C681.384948,251.830788 686.476614,257.578364 684.873376,263.650869 L683.187497,270.03955 C682.603176,272.252775 680.601316,273.794736 678.313615,273.794736 L663.645299,273.794736 C663.336124,273.794736 663.027922,273.766524 662.72458,273.710099 L637.835015,269.085188 C634.871601,268.534557 631.870269,269.840117 630.252447,272.385082 L630.252447,272.385082 C628.30795,275.441765 624.436456,276.638366 621.107477,275.2112 L598.530891,265.529435 C597.443917,265.063442 596.873207,263.861977 597.197938,262.723747 L599.169658,255.818485 C599.61592,254.255121 598.377276,252.720943 596.755565,252.828929 L561.193626,255.200728 L559.16746,255.394324 C548.822734,256.379817 539.261641,261.339387 532.494791,269.230142 L532.494791,269.230142 Z M480.828525,117.50019 L496.885212,129.549863 L516.956313,129.549863 L526.724495,114.630294 L498.606092,110.614385 L480.828525,117.50019 Z M334.509965,55.9842086 L358.215332,57.0922804 C359.508423,57.1525968 360.736373,57.682798 361.666815,58.5836535 L387.316678,83.396095 C388.148923,84.2006387 388.695327,85.2542311 388.875193,86.3973254 L396.905967,137.446455 C397.063471,138.447514 397.502927,139.383392 398.172807,140.143185 L405.284806,148.209052 C407.818485,151.081867 412.46389,150.419359 414.093378,146.952135 L423.603914,126.731527 C424.481855,124.864636 426.358295,123.672899 428.420434,123.672899 L437.979583,123.672899 C439.482679,123.672899 440.914802,123.03763 441.923996,121.922749 L452.486505,110.260269 C453.077632,109.608462 453.821402,109.11231 454.651703,108.817538 L479.379875,100.037601 C480.60588,99.6027392 481.629658,98.7330147 482.259675,97.5938119 L498.167608,68.7907555 C498.877349,67.5056257 499.025131,65.9840943 498.575952,64.5851415 L491.121722,41.3642764 C490.366285,39.008043 491.329783,36.4416748 493.450257,35.1682192 L515.241266,22.0746827 C519.370406,19.5929521 518.345656,13.3365784 513.639973,12.3043886 L494.083191,8.01608275 C493.948049,7.98592452 493.811934,7.96160337 493.674847,7.94311929 L437.123032,0.0864136671 C436.571767,0.0105316663 436.010779,0.0202601279 435.462431,0.117544744 L369.583835,11.8043457 C368.77298,11.9483269 368.00782,12.2781218 367.346691,12.7674634 L346.560987,28.1578897 C346.094308,28.504223 345.573183,28.7707828 345.019973,28.9488137 L325.761672,35.1283325 C322.339357,36.225703 320.965569,40.3311138 323.035487,43.2700821 L330.407076,53.7320697 C331.354046,55.0765431 332.867837,55.9073537 334.509965,55.9842086 L334.509965,55.9842086 Z M233.025679,38.4661677 L233.175406,38.8660075 C233.726671,40.3369509 235.132542,41.3107699 236.701752,41.3107699 L236.99926,41.3107699 C240.097816,41.3107699 241.871198,37.7764198 240.019064,35.289825 L239.721556,34.8899852 C239.010842,33.9356231 237.890812,33.373318 236.701752,33.373318 L236.552025,33.373318 C233.922093,33.373318 232.102043,36.0019484 233.025679,38.4661677 L233.025679,38.4661677 Z M209.424344,40.2805258 L209.424344,40.2805258 C209.986303,40.9469254 210.762158,41.3973532 211.618709,41.5559271 L221.99163,43.4704884 C225.148521,44.0532232 227.540253,40.6706371 225.939931,37.8863514 L225.285608,36.7481214 C224.667258,35.6711807 223.557922,34.9687857 222.32025,34.8695554 L212.602624,34.0932242 C209.265867,33.8266643 207.265952,37.7209675 209.424344,40.2805258 L209.424344,40.2805258 Z M255.454483,66.7769639 L295.405153,66.7769639 C296.154756,66.7769639 296.763384,66.1679622 296.763384,65.4178978 L296.763384,58.4095141 C296.763384,57.7139291 296.23837,57.1302214 295.547101,57.0572579 L284.47805,55.8917882 C284.29624,55.8723313 284.113457,55.8898425 283.939424,55.943349 L267.365502,61.0109047 C266.771458,61.1928269 266.129774,60.9476697 265.807959,60.4155229 L263.813877,57.1234114 C263.402616,56.4443648 263.658317,55.5590748 264.368059,55.203986 L269.957516,52.4070532 C270.194745,52.288366 270.462114,52.2416694 270.725593,52.2737733 L299.209561,55.6806806 C300.018472,55.7779652 300.729186,55.146588 300.729186,54.3323158 L300.729186,48.1975479 C300.729186,47.8142465 300.891552,47.4474835 301.17642,47.1906521 L311.996576,37.3940912 C312.918267,36.5593892 312.329085,35.0271565 311.085579,35.0271565 L311.085579,35.0271565 C309.59026,35.0271565 309.193583,32.9627769 310.581954,32.4072818 L320.488195,28.4419608 C320.536808,28.4225039 320.582503,28.4011013 320.628199,28.3767801 L337.685329,19.1863024 C337.726164,19.1639269 337.768943,19.1434972 337.811722,19.1259859 L356.262084,11.524166 C357.487118,11.0192589 357.338364,9.23700469 356.046245,8.94320515 L316.87143,0.0338799742 C316.688648,-0.00795241085 316.499059,-0.0108709493 316.314332,0.0241515126 L257.248282,11.3422438 C256.127279,11.5572428 255.754908,12.9756525 256.626043,13.7140427 L262.72107,18.8740188 C262.934965,19.055941 263.200388,19.1658726 263.479424,19.1911666 L285.278211,21.1154564 C285.441548,21.130049 285.605858,21.1144835 285.764335,21.0707054 L290.260985,19.8098968 C291.822416,19.3730889 292.698412,21.5464272 291.271151,22.3149757 L285.128484,25.6245983 C284.954452,25.7189644 284.761947,25.7734438 284.56458,25.7851179 L273.895123,26.4126037 C273.718174,26.423305 273.540253,26.3989839 273.373026,26.3406131 L254.648489,19.8809146 C254.521125,19.8361636 254.401538,19.7739015 254.292646,19.695101 L247.805803,14.9748514 C247.420793,14.6946717 246.917168,14.6363009 246.478684,14.8221145 L231.804535,21.0337373 C230.930484,21.4034188 230.696172,22.5328932 231.349523,23.2216683 L242.344683,34.8034019 C242.485659,34.9503017 242.656774,35.0650975 242.847335,35.1370881 L258.539428,41.1035536 C258.887493,41.2358607 259.273476,41.2202952 259.608902,41.0588027 L270.653647,35.7538726 C271.932153,35.1400067 273.177604,36.6508368 272.331748,37.7890668 L267.200219,44.7011388 C267.07966,44.8645769 266.923128,44.9978568 266.743262,45.0931958 L255.021833,51.2659047 C254.664045,51.4546368 254.240145,51.4731209 253.866801,51.3174655 L240.472132,45.7333285 C239.577663,45.3597556 238.591803,46.0173996 238.591803,46.9873273 L238.591803,51.1530545 C238.591803,51.7815131 239.022509,52.3282527 239.634053,52.4741796 L250.071143,54.9714757 C250.535878,55.083353 250.908249,55.4306591 251.051169,55.886924 L254.158476,65.8235747 C254.336397,66.390744 254.860439,66.7769639 255.454483,66.7769639 L255.454483,66.7769639 Z M218.756958,53.9412316 L226.8169,62.5431374 C227.379832,63.1443563 228.123602,63.5441961 228.935429,63.6813674 L240.401158,65.6260869 C243.335404,66.1241841 245.660051,63.1803517 244.498213,60.4388712 L243.531798,58.1594926 C242.941643,56.7673497 241.576606,55.8626028 240.06476,55.8626028 L236.833005,55.8626028 C235.469913,55.8626028 234.212795,55.1261583 233.546805,53.9353946 L231.077293,49.5215915 C230.411303,48.3318006 229.154185,47.5943833 227.791093,47.5943833 L221.505505,47.5943833 C218.207638,47.5943833 216.502314,51.5344102 218.756958,53.9412316 L218.756958,53.9412316 Z M180.893707,44.8149618 L181.670534,45.7391656 C182.620421,46.8696129 184.14199,47.3404704 185.56439,46.944522 L193.530023,44.7244871 C195.158539,44.2711408 196.285375,42.7865775 196.285375,41.0938252 L196.285375,39.9760249 C196.285375,37.4865116 193.916005,35.681882 191.517468,36.3434174 L182.775008,38.7570487 C180.12952,39.4866833 179.128103,42.7136141 180.893707,44.8149618 L180.893707,44.8149618 Z M155.039671,55.892761 L179.482002,66.3742056 C180.092574,66.6359012 180.770231,66.7020548 181.419694,66.5619649 L198.818083,62.8320727 C202.170396,62.1131394 202.216092,57.3442475 198.879335,56.5601335 L183.589753,52.9703312 C183.350579,52.9148789 183.119184,52.8312142 182.899456,52.7222554 L168.506287,45.5961572 C167.675987,45.1846433 166.709572,45.1525394 165.85302,45.5066554 L155.076616,49.9681279 C152.449601,51.0567428 152.426267,54.7720423 155.039671,55.892761 L155.039671,55.892761 Z M181.909707,75.0753417 L150.46913,67.9317323 C147.484327,67.2536585 144.423688,68.7031993 143.054762,71.4417613 L141.128737,75.2952049 C139.750089,78.0551695 140.449136,81.4017603 142.818506,83.376638 L144.115485,84.458443 C145.744974,85.8165362 147.923783,86.3156063 149.981061,85.8009707 L154.803415,84.5946414 C156.399847,84.1948017 158.088643,84.4029907 159.541182,85.1783491 L166.400396,88.8391692 C166.931244,89.1222675 167.420285,89.4763835 167.855853,89.8908159 L178.358083,99.8984844 C180.047851,101.509518 182.458055,102.114628 184.707838,101.493952 L198.344598,97.7290375 C199.589076,97.3856228 200.906473,97.4128625 202.136368,97.8058923 L213.895715,101.57178 C215.726459,102.157433 217.721513,101.922004 219.365586,100.924837 L219.365586,100.924837 C223.365417,98.4995317 223.675564,92.8074087 219.961574,89.9608609 L213.99294,85.3865382 C212.799991,84.4720628 211.95219,83.1801231 211.587597,81.7208539 L210.353813,76.7817139 C209.50504,73.3855079 206.169255,71.228708 202.72555,71.8513295 L184.562001,75.1346853 C183.683088,75.2932592 182.780842,75.2738023 181.909707,75.0753417 L181.909707,75.0753417 Z M233.306659,86.1755164 L237.169403,81.6663745 C238.049288,80.6390489 238.310823,79.2196664 237.856783,77.9462107 L236.435355,73.9624057 C235.782977,72.1363734 233.854035,71.1032108 231.974679,71.5740684 L223.231247,73.7610265 C220.391308,74.4712042 219.411282,78.0104186 221.481199,80.0816081 L227.783315,86.3875969 C229.335024,87.9402594 231.878426,87.8420019 233.306659,86.1755164 L233.306659,86.1755164 Z M250.671992,70.7452034 L246.324096,70.7452034 C244.244457,70.7452034 242.557605,72.4321187 242.557605,74.5140095 L242.557605,76.23692 C242.557605,78.317838 244.244457,80.0057261 246.324096,80.0057261 L249.134867,80.0057261 C250.207257,80.0057261 251.229091,79.5475155 251.943694,78.7468631 L253.481791,77.0239526 C255.648933,74.5957285 253.926109,70.7452034 250.671992,70.7452034 L250.671992,70.7452034 Z M266.10644,75.2368342 L265.38017,77.3138607 C264.112358,80.9367398 266.135607,84.8826039 269.815568,85.9653817 L295.543212,93.5370434 C296.349206,93.773445 297.103671,94.1606378 297.766744,94.6772191 L306.269059,101.293546 C307.789656,102.4775 308.727876,104.258781 308.844546,106.183071 L309.765265,121.374064 C309.90138,123.627175 311.161414,125.660424 313.117578,126.785034 L334.408851,139.023439 C337.926447,141.045013 342.417264,139.503052 343.953416,135.746893 L346.52307,129.461334 C346.83905,128.687921 347.29698,127.979689 347.873523,127.374579 L353.080887,121.903292 C356.4332,118.380616 355.041912,112.570779 350.45776,110.951963 L342.219897,108.04218 C339.539408,107.0956 337.747553,104.561336 337.747553,101.716734 C337.747553,99.3313151 336.480713,97.1249 334.421491,95.923435 L314.9386,84.5508633 C314.284277,84.1695077 313.698983,83.6791932 313.20897,83.1013226 L304.720267,73.1092196 C303.446621,71.6090908 301.578931,70.7452034 299.612072,70.7452034 L272.433834,70.7452034 C269.585145,70.7452034 267.047576,72.5469145 266.10644,75.2368342 L266.10644,75.2368342 Z M178.955043,108.48677 L197.025257,109.088962 C197.399572,109.101609 197.763193,108.970275 198.043201,108.721226 C201.387736,105.746263 206.182867,105.053596 210.232282,106.960375 L214.499481,108.970275 C214.693931,109.061722 214.905881,109.108419 215.120748,109.108419 L241.132289,109.108419 C241.611607,109.108419 242.059814,108.873963 242.332043,108.47996 L247.037727,101.678793 C247.487878,101.027959 247.338152,100.137805 246.701329,99.6698656 L238.692917,93.7929019 C238.229154,93.4533786 238.008454,92.8725894 238.129013,92.3102844 L239.66711,85.128734 C239.811003,84.4555244 240.405047,83.9739656 241.093399,83.9739656 L249.33515,83.9739656 C250.011835,83.9739656 250.600046,84.4399589 250.755606,85.0995486 L253.07928,94.9836656 C253.116225,95.139321 253.177477,95.2881665 253.262063,95.4233921 L258.576374,103.930932 C259.130556,104.818167 260.410035,104.851244 261.00894,103.994167 L262.50912,101.850014 C263.2315,100.817824 264.832794,101.123298 265.124468,102.349084 L266.985352,110.168821 C267.266332,111.351802 268.784985,111.692298 269.544311,110.742801 L275.0696,103.831701 C275.403081,103.41435 275.482806,102.8501 275.277661,102.35784 L273.537336,98.1794653 C273.056073,97.023724 274.158603,95.8368517 275.346691,96.2328001 L287.433686,100.265247 C288.565383,100.641739 288.790945,102.144786 287.820641,102.838426 L286.577135,103.726634 C285.977257,104.155659 285.790586,104.96604 286.144484,105.613956 L288.948449,110.758366 C289.268319,111.34402 289.148732,112.072681 288.659691,112.527 L280.981844,119.660881 C280.534609,120.07726 280.393633,120.728094 280.627945,121.292344 L283.119819,127.275348 C283.369687,127.876567 283.191765,128.571179 282.684251,128.977829 L277.764673,132.914938 C277.268826,133.312832 276.572696,133.34299 276.043793,132.989847 L271.747426,130.123842 C271.279775,129.812531 271.032823,129.258982 271.112548,128.702514 L271.548115,125.649722 C271.758121,124.177806 269.892376,123.370344 268.964851,124.530949 L267.174941,126.769468 C267.069938,126.900803 266.943546,127.01268 266.800625,127.101209 L259.674043,131.488745 C258.984718,131.913879 258.772768,132.818626 259.20153,133.506428 L260.184473,135.07952 C260.821296,136.099063 260.02308,137.408514 258.826242,137.309284 L254.412233,136.940575 C254.018472,136.907498 253.627628,137.036887 253.33012,137.296637 L243.838057,145.607661 C243.454018,145.944266 243.27318,146.456956 243.361655,146.959918 L244.814194,155.193115 C244.996977,156.231142 246.184093,156.738967 247.061061,156.154287 C247.996364,155.529719 249.256398,156.15526 249.3264,157.277924 L249.723078,163.626718 C249.778496,164.521737 250.620463,165.155059 251.495487,164.96049 L255.40101,164.092711 C255.648933,164.037259 255.906579,164.047961 256.148669,164.12287 L282.691057,172.34342 C283.214127,172.505885 283.602054,172.945612 283.697334,173.484568 L285.420159,183.252917 C285.487244,183.636218 285.704056,183.977687 286.021981,184.202414 L294.139285,189.93637 C295.169868,190.664059 296.577684,189.846868 296.458098,188.590924 L295.441126,177.898371 L304.408175,170.122412 C304.953606,169.649609 305.072221,168.848956 304.686238,168.238982 L298.046752,157.719596 C297.683131,157.142698 297.766744,156.389716 298.24898,155.907184 L301.866717,152.287223 C302.357703,151.794963 302.43451,151.024469 302.048528,150.444653 L295.853359,141.146189 C295.314733,140.338727 295.698772,139.240383 296.622408,138.945611 L310.728763,134.428686 C311.098218,134.309999 311.499757,134.344049 311.843933,134.522079 L329.450383,143.634729 C330.051233,143.94604 330.359436,144.628978 330.196098,145.285649 L328.64925,151.47587 C328.549109,151.874736 328.623,152.297925 328.850506,152.640366 L331.785725,157.044441 C332.175596,157.631067 332.928117,157.854822 333.574662,157.576588 L341.147507,154.329227 C341.509183,154.174545 341.79308,153.879772 341.934056,153.512037 L343.772578,148.729525 C344.236341,147.522223 345.924164,147.470662 346.461818,148.646833 L355.363727,168.130996 C355.512481,168.457872 355.776932,168.718595 356.105552,168.862576 L366.171242,173.268596 L381.329571,184.284134 C382.123898,184.862004 382.143343,186.040121 381.368461,186.643286 L372.652252,193.426942 C372.509331,193.537846 372.347938,193.621511 372.17585,193.674045 L359.244943,197.612126 C359.112717,197.652013 358.985353,197.711356 358.868683,197.787238 L346.651406,205.759713 C346.069029,206.140096 345.830829,206.87654 346.080696,207.526401 L348.129224,212.853707 C348.382009,213.512324 349.064528,213.898544 349.758713,213.777911 L360.227887,211.95577 C361.130133,211.799142 361.955572,212.493754 361.955572,213.410175 L361.955572,216.912421 C361.955572,217.589522 361.495699,218.179067 360.838459,218.343478 L350.682349,220.884552 C350.438315,220.945841 350.214698,221.067447 350.030943,221.239641 L342.674909,228.141012 C341.889333,228.877456 340.606937,228.551553 340.26665,227.531037 L339.449961,225.078492 C339.320652,224.692272 339.357597,224.270057 339.550102,223.912049 L341.560713,220.175347 C342.193646,218.999176 341.062921,217.65373 339.795109,218.075945 L328.287574,221.914796 C327.854923,222.058777 327.514636,222.393436 327.362966,222.823434 L324.334411,231.408802 C324.19149,231.813506 323.878426,232.136491 323.47786,232.293119 L314.357195,235.842062 C313.901211,236.01912 313.56384,236.411177 313.453976,236.888844 L309.117747,255.871019 C309.024412,256.28156 308.758988,256.632757 308.389533,256.836082 L291.859362,265.905927 C291.299346,266.213346 291.000866,266.846669 291.11948,267.474155 L294.89375,287.436958 C294.959863,287.78621 294.897639,288.147136 294.718745,288.454555 L292.371737,292.47922 C291.766026,293.519192 290.238623,293.434555 289.750554,292.335239 L284.267072,279.990794 C284.059983,279.523827 283.625388,279.196951 283.118846,279.127879 L261.464925,276.173345 C260.220446,276.003097 259.347367,277.368 260.021135,278.42743 C260.781434,279.623058 259.585568,281.099838 258.259421,280.601741 L249.221397,277.211372 C248.723606,277.023613 248.163591,277.119925 247.756219,277.462366 L231.147295,291.401306 C230.676727,291.795309 230.499777,292.440306 230.702977,293.019149 L238.241793,314.573529 C238.412909,315.062871 238.827087,315.425742 239.333629,315.53081 L251.595629,318.087449 C252.144949,318.202245 252.710798,317.995029 253.056918,317.55433 L258.559846,310.545946 C258.776657,310.269658 259.085832,310.079953 259.430008,310.01088 L268.599285,308.176093 C269.567645,307.982496 270.448502,308.777312 270.356138,309.760859 L268.934711,324.936286 C268.857903,325.757368 269.468475,326.483112 270.290026,326.546347 L282.297296,327.470551 C283.171348,327.537677 283.794559,328.348058 283.634138,329.210972 L281.021706,343.31335 L285.680722,350.900578 L302.372286,351.883152 C304.336229,351.998921 306.247669,351.221617 307.573817,349.768185 L311.521146,345.439992 C312.756874,344.08579 314.505949,343.31335 316.338638,343.31335 L325.367911,343.31335 C326.656141,343.31335 327.915203,343.695679 328.986621,344.409748 L331.240293,345.913768 C332.831864,346.975143 334.81039,347.284508 336.650857,346.758199 L346.25959,344.010881 C347.8288,343.562399 349.509817,343.719027 350.969163,344.449635 L387.165007,362.558193 C388.530045,363.241131 389.612157,364.381307 390.223702,365.78026 L395.503984,377.857172 C396.29345,379.661802 397.854881,381.014058 399.753683,381.535503 L446.414812,394.352752 C449.247945,395.130056 451.211887,397.707125 451.211887,400.646093 L451.211887,411.594504 C451.211887,413.674449 450.221166,415.628897 448.545981,416.858575 L437.350538,425.073288 C435.968973,426.086993 435.041448,427.604633 434.768246,429.297386 L430.492296,455.823009 C430.101452,458.25026 428.380572,460.251405 426.04037,461.000497 L405.9051,467.447548 C404.156025,468.007907 402.723903,469.279417 401.960687,470.950767 L387.672521,502.224853 C386.685689,504.384571 384.606049,505.837031 382.239596,506.018953 L378.214486,506.329291 C374.816477,506.590986 372.192378,509.42586 372.192378,512.836659 L372.192378,512.836659 C372.192378,515.062531 371.058736,517.134693 369.185213,518.334212 L347.36212,532.309148 C346.152643,533.084506 345.231923,534.238302 344.743855,535.590558 L332.366157,569.886304 C331.87906,571.237587 331.849893,572.712422 332.28546,574.082189 L335.275125,583.483774 C336.878363,588.525063 332.136706,593.280335 327.094625,591.686813 L322.532834,590.246028 C320.235411,589.519312 318.525225,587.585294 318.084797,585.215441 L310.458478,544.202192 C310.32528,543.486177 310.313613,542.753624 310.421533,542.033718 L318.800372,486.491012 L324.543444,450.094891 C324.946928,447.538251 323.803563,444.985503 321.627671,443.58655 L311.512396,437.079182 C310.686957,436.548008 309.990827,435.836858 309.478452,435.00021 L290.816139,404.532614 C290.260013,403.623975 289.934309,402.592759 289.867224,401.529438 L289.123454,389.614018 C288.984422,387.394956 289.984866,385.258586 291.776721,383.943298 L302.2527,376.255867 C303.928856,375.02619 304.918606,373.071742 304.918606,370.992769 L304.918606,364.799631 C304.918606,361.195236 301.997971,358.272806 298.395789,358.272806 L292.576881,358.272806 C291.563798,358.272806 290.565299,358.036404 289.659163,357.583058 L276.086572,350.793565 L268.611924,339.039637 L255.798659,339.039637 L245.325597,330.656622 C245.189482,330.547663 245.035867,330.463998 244.870585,330.408546 L210.393675,318.909504 C210.063111,318.7986 209.782131,318.574845 209.600321,318.277154 L190.303129,286.610039 C189.383382,285.102127 187.073319,286.190742 187.649863,287.860146 L189.861729,294.268284 C190.40716,295.847213 188.321687,296.974742 187.300826,295.652644 L167.168473,269.588149 L142.607528,236.464683 L147.947117,202.273032 L116.980026,184.109021 L98.8271711,158.464796 L67.7891053,148.11274 C67.1415877,147.896768 66.4415687,147.89385 65.7911343,148.103012 L34.1687471,158.310114 C33.8508218,158.413236 33.519285,158.464796 33.1848315,158.464796 L22.895524,158.464796 C22.2742572,158.464796 21.6656295,158.283847 21.1445042,157.944324 L1.45452466,145.094972 C-0.473444406,143.837081 -0.487055887,141.0168 1.4273017,139.739453 L15.1078124,130.613184 C17.178702,129.232715 16.9550848,126.119607 14.7082182,125.049476 L10.191151,122.896568 C7.10717829,121.42757 8.15331783,116.793904 11.5688273,116.793904 L11.5688273,116.793904 C14.9512804,116.793904 16.0275596,112.232228 13.0019218,110.718479 L4.47627345,106.452549 C1.89787004,105.162555 2.19926712,101.388885 4.94878629,100.524025 L24.1993095,94.4709757 C31.1382481,92.2879089 38.4962258,91.7839746 45.6685041,92.9980866 L91.1726575,100.703028 C99.6389987,102.137003 108.340624,100.989045 116.145836,97.4099439 L116.145836,97.4099439 C124.98066,93.3580397 134.930652,92.4357815 144.358547,94.7939606 L175.863293,102.674987 C176.420391,102.814104 176.844291,103.267451 176.945405,103.832674 L177.567644,107.286278 C177.689175,107.963379 178.267663,108.463422 178.955043,108.48677 L178.955043,108.48677 Z" id="Fill-1" fill="#C5CFDE" mask="url(#mask-2)"></path>
                </g>
                <g id="Group-6" transform="translate(288.000000, 299.000000)" fill="#A5A7BF">
                    <path d="M0,3.99554607 C13.8451438,-1.33184869 24.5048337,-1.33184869 31.9790698,3.99554607 C43.1904239,11.9866382 37.8157665,10.8019571 48.1688453,13.775625 C58.5219241,16.7492929 65.5784615,21.5826475 63.6956332,24.6408146 C61.812805,27.6989817 56.3907409,24.6408146 49.2224084,24.6408146 C44.44352,24.6408146 43.0074006,23.1214719 44.9140502,20.0827866 C44.3465837,22.0046741 42.048887,20.5832097 38.0209601,15.8183933 C31.9790698,8.67116881 27.9576087,4.09976175 23.7967978,6.38546528 C19.635987,8.67116881 11.706649,6.36856544 13.0793235,5.18205575 C14.451998,3.99554607 16.2711454,1.12257306 10.9134696,2.55905956 C7.34168572,3.51671723 3.70386252,3.99554607 0,3.99554607 Z" id="Path-11"></path>
                    <path d="M72.6499555,24.5232933 C76.4948677,25.7692296 79.5492786,26.3921977 81.8131882,26.3921977 C85.2090527,26.3921977 88.6728345,22.6543888 93.68331,24.5232933 C98.6937855,26.3921977 95.2335046,28.1546322 96.9636451,29.3939437 C98.6937855,30.6332552 107,30.3841152 107,33.5512447 C107,36.7183741 105.967237,36.4997556 104.320418,36.4997556 C102.673599,36.4997556 96.9636451,33.5753779 96.9636451,35.0375667 C96.9636451,36.4997556 96.5237297,39.2026756 93.68331,37.8512156 C90.8428902,36.4997556 89.8249778,35.1482956 89.8249778,36.4997556 C89.8249778,37.8512156 86.5722997,38.5595964 86.5722997,40.4185637 C86.5722997,42.2775309 84.9114769,39.2026756 82.7843354,37.8512156 C80.6571939,36.4997556 69.475149,37.8766713 69.475149,39.1476175 C69.475149,40.4185637 67.6401802,36.5238888 64.8954815,35.0375667 C62.1507828,33.5512447 66.3003425,35.0375667 69.475149,35.0375667 C72.6499555,35.0375667 78.2401786,36.5238888 78.2401786,35.0375667 C78.2401786,33.5512447 77.4734835,31.5361213 76.375604,31.5361213 C75.2777245,31.5361213 79.1350064,29.0283965 76.375604,27.7102971 C74.5360023,26.8315642 73.2941195,25.7692296 72.6499555,24.5232933 Z" id="Path-12"></path>
                    <path d="M115.787099,35.0404493 C116.681471,34.426134 118.632828,34.426134 121.64117,35.0404493 C126.153683,35.9619223 128,32.2929195 128,35.0404493 C128,37.787979 126.754318,40.8238833 123.438139,39.7947037 C120.12196,38.7655241 117.361297,39.0195371 115.787099,38.8925306 C114.737634,38.8078596 114.737634,37.5238325 115.787099,35.0404493 Z" id="Path-13"></path>
                </g>
                <circle id="Oval" fill="#241DBA" cx="565" cy="241" r="7"></circle>
                <circle id="Oval-Copy" fill="#241DBA" cx="352" cy="487" r="7"></circle>
                <circle id="Oval-Copy-2" fill="#241DBA" cx="219" cy="303" r="7"></circle>
                <circle id="Oval-Copy-3" fill="#241DBA" cx="309" cy="411" r="7"></circle>
                <circle id="Oval-Copy-7" fill="#241DBA" cx="314" cy="388" r="7"></circle>
                <circle id="Oval-Copy-4" fill="#241DBA" cx="911" cy="331" r="7"></circle>
                <circle id="Oval-Copy-5" fill="#241DBA" cx="377" cy="327" r="7"></circle>
            </g>
        </g>
    </g>
</svg>