<?xml version="1.0" encoding="UTF-8"?>
<svg width="531px" height="624px" viewBox="0 0 531 624" version="1.1" xmlns="http://www.w3.org/2000/svg" xmlns:xlink="http://www.w3.org/1999/xlink">
    <!-- Generator: Sketch 63.1 (92452) - https://sketch.com -->
    <title>soluciones_contactless_inicio</title>
    <desc>Created with Sketch.</desc>
    <defs>
        <polygon id="path-1" points="0.250169492 2.45563569e-12 108.250169 2.45563569e-12 108.250169 75.6 0.250169492 75.6"></polygon>
        <circle id="path-3" cx="22.457088" cy="22.457088" r="22.457088"></circle>
        <linearGradient x1="48.9831318%" y1="-1.69870728%" x2="52.0211715%" y2="51.8765724%" id="linearGradient-5">
            <stop stop-color="#5DBBF7" offset="0%"></stop>
            <stop stop-color="#4499CE" offset="100%"></stop>
        </linearGradient>
        <linearGradient x1="72.3427929%" y1="97.9969945%" x2="50%" y2="24.6051174%" id="linearGradient-6">
            <stop stop-color="#F4F5F7" offset="0%"></stop>
            <stop stop-color="#E0E4EC" offset="100%"></stop>
        </linearGradient>
        <linearGradient x1="66.385126%" y1="100%" x2="50%" y2="23.5453408%" id="linearGradient-7">
            <stop stop-color="#FFFFFF" offset="0%"></stop>
            <stop stop-color="#E0E4EC" offset="100%"></stop>
        </linearGradient>
        <circle id="path-8" cx="23.332608" cy="22.557712" r="22.457088"></circle>
        <path d="M7.75,0.25 L6.25,0.25 L6.25,7.75 L7.75,7.75 L7.75,0.25 Z M11.3725,1.8775 L10.3075,2.9425 C11.4925,3.895 12.25,5.3575 12.25,7 C12.25,9.9025 9.9025,12.25 7,12.25 C4.0975,12.25 1.75,9.9025 1.75,7 C1.75,5.3575 2.5075,3.895 3.685,2.935 L2.6275,1.8775 C1.1725,3.115 0.25,4.945 0.25,7 C0.25,10.7275 3.2725,13.75 7,13.75 C10.7275,13.75 13.75,10.7275 13.75,7 C13.75,4.945 12.8275,3.115 11.3725,1.8775 Z" id="path-10"></path>
        <linearGradient x1="-271.725459%" y1="187.823204%" x2="70.1050945%" y2="41.5290437%" id="linearGradient-12">
            <stop stop-color="#00D7D7" offset="0%"></stop>
            <stop stop-color="#241DBA" offset="100%"></stop>
        </linearGradient>
        <linearGradient x1="-2.29451771%" y1="84.6034708%" x2="87.0766013%" y2="25.4755748%" id="linearGradient-13">
            <stop stop-color="#00D7D7" offset="0%"></stop>
            <stop stop-color="#241DBA" offset="100%"></stop>
        </linearGradient>
    </defs>
    <g id="Inicio" stroke="none" stroke-width="1" fill="none" fill-rule="evenodd">
        <g id="inicio" transform="translate(-696.000000, -1822.000000)">
            <g id="soluciones_contactless_inicio" transform="translate(599.831429, 1822.000000)">
                <g id="Group-60" transform="translate(167.500000, 451.472215) rotate(-339.000000) translate(-167.500000, -451.472215) translate(57.000000, 272.472215)">
                    <path d="M167.330525,198.256611 L170.078985,197.25423 C181.236148,193.187516 189.727015,183.949361 192.850219,172.477674 L205.927196,124.444687 C206.827986,121.134524 206.682697,117.626694 205.51137,114.402822 L185.950513,60.584324 C181.300276,47.7911804 167.175217,41.1949352 154.399839,45.8516394 L153.84173,46.0553264 L142.052311,13.6189377 C138.355968,3.44863934 127.126662,-1.79504448 116.970487,1.90643842 L116.970487,1.90643842 C106.814312,5.60792132 101.57791,16.8528438 105.274253,27.0231421 L103.627982,22.494871 C99.9316396,12.3245726 88.702333,7.08088876 78.5461581,10.7823717 L78.5461581,10.7823717 C68.3899832,14.4838546 63.1535813,25.728777 66.8509259,35.8990754 L71.4590799,48.5778333 C67.7627372,38.4075349 56.5334306,33.1638511 46.3772557,36.865334 L46.3772557,36.865334 C36.2210808,40.5668169 30.9846789,51.8117393 34.6810215,61.9820377 L38.6308678,72.8496878 C34.9345251,62.6793894 23.7052185,57.4357056 13.5490436,61.1371885 L13.5490436,61.1371885 C3.3928687,64.8386714 -1.84353323,76.0835939 1.85280942,86.2538922 L4.05017441,92.2992797 L51.990406,224.192076 C54.8450767,232.045561 63.5163018,236.094215 71.3588808,233.236577 C74.3167565,232.15794 77.5872533,233.686093 78.664393,236.648082 L122.451374,357.11936 L213.06738,324.091979 L167.330525,198.256611 Z" id="Path" fill="#FFB9B9" fill-rule="nonzero"></path>
                    <g id="Group-38-Copy-7" transform="translate(146.324311, 271.491621) rotate(-381.000000) translate(-146.324311, -271.491621) translate(81.324311, 232.991621)">
                        <g id="Group-44-Copy" transform="translate(65.300000, 38.400000) rotate(-180.000000) translate(-65.300000, -38.400000) translate(0.800000, 0.400000)">
                            <g id="Group-3" transform="translate(12.949831, -0.000000)">
                                <mask id="mask-2" fill="white">
                                    <use xlink:href="#path-1"></use>
                                </mask>
                                <g id="Clip-2"></g>
                                <path d="M103.776797,2.45563569e-12 C106.247377,2.45563569e-12 108.250169,2.98540126 108.250169,6.6680947 L108.250169,68.9319053 C108.250169,72.6145987 106.247377,75.6 103.776797,75.6 L4.72354227,75.6 C2.25296239,75.6 0.250169492,72.6145987 0.250169492,68.9319053 L0.250169492,6.6680947 C0.250169492,2.98540126 2.25296239,2.45563569e-12 4.72354227,2.45563569e-12 L103.776797,2.45563569e-12 Z M98.0253174,18.0991142 L95.4691044,18.0991142 C94.7955423,18.0991142 94.2434003,18.8764235 94.1941932,19.862349 L94.1909979,20.0042841 L94.1909979,56.5483008 C94.1909979,57.5523254 94.7124653,58.3753588 95.3738855,58.4477553 L95.4691044,58.4534708 L98.0253174,58.4534708 C98.6988796,58.4534708 99.2510216,57.6761614 99.3002287,56.690236 L99.3034239,56.5483008 L99.3034239,20.0042841 C99.3034239,19.0002596 98.7819565,18.1772262 98.1205364,18.1038771 L98.0253174,18.0991142 Z M13.0312346,18.0991142 L10.4750216,18.0991142 C9.80145943,18.0991142 9.24931742,18.8764235 9.20011032,19.862349 L9.19691505,20.0042841 L9.19691505,56.5483008 C9.19691505,57.5523254 9.71838251,58.3753588 10.3798026,58.4477553 L10.4750216,58.4534708 L13.0312346,58.4534708 C13.7047967,58.4534708 14.2569387,57.6761614 14.3061458,56.690236 L14.3093411,56.5483008 L14.3093411,20.0042841 C14.3093411,19.0002596 13.7878736,18.1772262 13.1264535,18.1038771 L13.0312346,18.0991142 Z" id="Fill-1" fill="#E0E4EC" mask="url(#mask-2)"></path>
                            </g>
                            <polygon id="Rectangle" fill="#7E8FA4" points="0.571883519 23.169796 24 20.4701538 24 54.8972308 0.571883519 53.2994122"></polygon>
                            <polygon id="Rectangle-Copy-54" fill="#7E8FA4" points="109.622034 20.4701538 128.494902 22.2882832 128.494902 52.4831682 109.622034 54.8972308"></polygon>
                        </g>
                        <g id="Group-Copy" transform="translate(63.800000, 38.000000) rotate(-360.000000) translate(-63.800000, -38.000000) translate(51.800000, 26.000000)" fill="#241DBA">
                            <path d="M15.5487488,3.84799348 C16.0672485,4.09223963 16.5648128,4.39021994 17.026787,4.73216455 C17.3736165,4.98897194 17.7043956,5.27439102 18.01075,5.58004763 C18.2075426,5.7761424 18.3959611,5.98270486 18.5725162,6.19554794 C18.8704965,6.55493871 19.2996719,6.74056578 19.7323365,6.74056578 C20.0714897,6.74056578 20.4120386,6.62681686 20.6932706,6.39373625 C21.3331956,5.86267532 21.421822,4.91290671 20.891459,4.27298178 C20.6548891,3.98756271 20.401571,3.70981994 20.138483,3.44742978 C19.7281494,3.03779409 19.2843193,2.65607225 18.8188559,2.31133625 C18.1984706,1.85215348 17.5306319,1.45228763 16.8341814,1.12360209 C16.0819033,0.7683984 15.1844731,1.09080332 14.8292694,1.84308148 C14.4747636,2.59535963 14.7964706,3.49278978 15.5487488,3.84799348" id="Fill-1"></path>
                            <path d="M11.8023617,14.65128 C10.23151,14.65128 8.95375372,13.3735237 8.95375372,11.802672 C8.95375372,10.2318203 10.23151,8.954064 11.8023617,8.954064 C13.3732134,8.954064 14.6509697,10.2318203 14.6509697,11.802672 C14.6509697,13.3735237 13.3732134,14.65128 11.8023617,14.65128 M22.0914054,10.2946265 L20.4842657,10.2946265 L20.4849636,10.29672 L17.4660811,10.29672 C16.799638,7.792848 14.513494,5.94146215 11.8023617,5.94146215 C8.57063618,5.94146215 5.94115187,8.57094646 5.94115187,11.802672 C5.94115187,15.0343975 8.57063618,17.663184 11.8023617,17.663184 C14.513494,17.663184 16.799638,15.8131938 17.4660811,13.308624 L20.4612368,13.308624 C19.7215199,17.5731618 15.9008122,20.7944197 11.3822583,20.5829723 C6.81415741,20.3694314 3.13650818,16.6115298 3.01508295,12.0399397 C2.88458572,7.09918892 6.85393464,3.03493292 11.7611888,3.01260185 C12.5804602,3.00841477 13.2838891,2.37128123 13.3076159,1.55200985 C13.3327383,0.699241846 12.649547,1.46688815e-13 11.8023617,1.46688815e-13 C5.08140541,1.46688815e-13 -0.345046279,5.64627323 0.0171358746,12.4446905 C0.335353721,18.4280234 5.17631249,23.2689822 11.1596454,23.5878978 C17.9580626,23.95008 23.6050337,18.5236283 23.6050337,11.802672 L23.6050337,11.7873194 C23.603638,10.9596738 22.919051,10.2946265 22.0914054,10.2946265" id="Fill-3"></path>
                        </g>
                    </g>
                </g>
                <path d="M295.380635,563.98404 C293.235206,565.490746 292.86626,568.261169 294.556688,570.173152 C296.248105,572.085135 299.357938,572.415031 301.502378,570.907439 C301.943531,570.597939 312.402621,563.412041 321.325587,570.81787 C322.278122,571.608913 323.487831,572 324.695562,572 C326.020011,572 327.340503,571.528212 328.314799,570.596165 C330.177336,568.815432 330.065564,566.026385 328.066527,564.368032 C316.020868,554.369144 301.418302,559.745043 295.380635,563.98404 M355.486275,539.733963 C332.069547,521.404293 309.381809,522.378908 294.469644,526.422804 C278.522846,530.749596 268.159702,539.328687 267.726462,539.692283 C265.736327,541.359503 265.640381,544.14855 267.510831,545.922189 C269.381281,547.694941 272.511886,547.780962 274.502022,546.113742 C274.591043,546.038362 283.591162,538.588193 297.349999,534.854683 C315.542128,529.921307 332.903386,533.788726 348.958988,546.355844 C349.898664,547.091017 351.061885,547.451952 352.221148,547.451952 C353.594064,547.451952 354.961046,546.944692 355.938309,545.953228 C357.741498,544.124606 357.538726,541.339993 355.486275,539.733963 M341.466308,551.762782 C343.475236,553.411379 343.604813,556.198652 341.756124,557.990027 C340.780839,558.93449 339.450455,559.412486 338.115126,559.412486 C336.918276,559.412486 335.717468,559.027606 334.766912,558.248092 C312.804209,540.235016 289.215371,557.339989 288.221293,558.076049 C286.127299,559.630643 283.009552,559.384994 281.259776,557.521787 C279.510001,555.659466 279.776077,552.889929 281.862158,551.32558 C292.532922,543.321148 318.723179,533.112083 341.466308,551.762782" id="wifi" fill="#241DBA" transform="translate(311.668571, 548.000000) scale(-1, 1) rotate(-90.000000) translate(-311.668571, -548.000000) "></path>
                <path d="M627.028468,131.947001 L623.965105,131.947001 L623.965105,48.3713363 C623.965105,35.5424401 618.847852,23.2389838 609.739085,14.1675953 C600.630319,5.09620668 588.276185,0 575.39446,0 L397.599113,0 C384.717388,0 372.363254,5.09620668 363.254487,14.1675953 C354.145721,23.2389838 349.028468,35.5424401 349.028468,48.3713363 L349.028468,506.873785 C349.028468,519.702681 354.145721,532.006138 363.254487,541.077526 C372.363254,550.148915 384.717388,555.245122 397.599113,555.245122 L575.39444,555.245122 C588.276166,555.245122 600.6303,550.148915 609.739066,541.077526 C618.847832,532.006138 623.965086,519.702681 623.965086,506.873785 L623.965086,191.437548 L627.028468,191.437548 L627.028468,131.947001 Z" id="Path" fill="#C5CFDE" fill-rule="nonzero" transform="translate(488.028468, 277.622561) scale(-1, 1) translate(-488.028468, -277.622561) "></path>
                <path d="M613.336306,49.1248147 L613.336306,506.949022 C613.32021,517.791365 608.453981,528.057824 600.071384,534.934505 C599.155767,535.68496 598.201088,536.386448 597.211351,537.03603 C591.289124,540.983499 584.328697,543.084809 577.211453,543.074017 L399.293424,543.074017 C396.409283,543.074017 393.535131,542.734881 390.733784,542.048765 C374.552389,538.102689 363.168571,523.604623 363.168571,506.949022 L363.168571,49.1248147 C363.168571,29.1743868 379.342957,13 399.293385,13 L420.88219,13 L554.105505,13 L577.211453,13 C597.161896,13 613.336306,29.1743716 613.336306,49.1248147 Z" id="Path" fill="#FFFFFF" fill-rule="nonzero" transform="translate(488.252438, 278.037009) scale(-1, 1) translate(-488.252438, -278.037009) "></path>
                <g id="Group-Copy-9" transform="translate(404.168571, 424.000000)">
                    <g id="Group-Copy-6">
                        <mask id="mask-4" fill="white">
                            <use xlink:href="#path-3"></use>
                        </mask>
                        <use id="Mask" stroke="#E0E4EC" stroke-width="0.886464" fill="#FFFFFF" xlink:href="#path-3"></use>
                        <g id="Group-Copy-2" mask="url(#mask-4)">
                            <g transform="translate(-0.875520, -0.100624)">
                                <path d="M12.7461532,82.6752549 C12.7461532,82.6752549 10.6082572,64.5280339 10.1506542,59.8356983 C9.95218998,57.8009569 10.4920627,51.7758357 10.4920627,51.7758357 C11.3461762,50.1452508 11.188185,53.0255299 12.896412,53.7048849 L18.1635496,55.6066801 L16.7400272,82.6752549 C16.7400272,82.6752549 16.3958322,87.1300157 18.1635496,89.0597296 C21.5611951,92.7687952 13.9107458,100.745699 12.896412,93.4066046 C12.5979146,91.2469602 12.3190617,86.6703542 12.7461532,85.9911322 C13.1731751,85.4477811 12.7461532,82.6752549 12.7461532,82.6752549 Z" id="Fill-1" stroke="none" fill="#F6B690" fill-rule="evenodd"></path>
                                <path d="M37.8863586,78.3260598 C37.8863586,78.3260598 35.7484626,60.1788389 35.2908595,55.4865033 C35.0923953,53.4517619 35.632268,47.4266407 35.632268,47.4266407 C36.4863815,45.7960557 36.3283904,48.6763349 38.0366173,49.3556899 L43.3037549,51.2574851 L41.8802325,78.3260598 C41.8802325,78.3260598 41.5360375,82.7808206 43.3037549,84.7105345 C46.7014004,88.4196002 39.0509511,96.3965043 38.0366173,89.0574095 C37.73812,86.8977652 37.459267,82.3211592 37.8863586,81.6419371 C38.3133805,81.0985861 37.8863586,78.3260598 37.8863586,78.3260598 Z" id="Fill-1-Copy" stroke="none" fill="#F6B690" fill-rule="evenodd"></path>
                                <path d="M41.4644994,137.995024 L35.1521473,137.995024 L24.3221373,94.5814029 L24.3840486,137.995024 L17.6385175,137.995024 C17.6385175,137.995024 8.53228394,87.519776 14.6589688,74.9316959 L37.3800873,74.9316959 C37.4419319,74.9931267 38.3083567,84.2039041 41.4644994,137.995024 Z" id="Fill-2" stroke="none" fill="url(#linearGradient-5)" fill-rule="evenodd"></path>
                                <polygon id="Fill-3" stroke="none" fill="url(#linearGradient-6)" fill-rule="evenodd" points="28.889205 27.9060246 30.1108583 38.2353628 19.5681915 38.2353628 20.3538461 30.2904959"></polygon>
                                <path d="M19.8253008,34.1614215 C19.8253008,34.1614215 21.2181345,36.5271251 25.2945941,36.0607653 C29.3710536,35.5944054 29.6182249,33.901397 29.6100264,33.6149583 C38.5274125,34.0251328 43.8305274,40.7744042 45.5193712,53.8627727 L37.4413623,53.8627727 C38.2572215,65.2806999 38.2572215,73.3003649 37.4413623,77.9217675 L13.6066242,77.9217675 L15.4359197,57.2317463 L10.2240379,53.8627727 C9.54414039,52.0961401 11.3225235,33.5494855 19.8253008,34.1614215 Z" id="Fill-4" stroke="none" fill="#C5CFDE" fill-rule="evenodd"></path>
                                <path d="M29.3629657,27.4990891 C28.9969889,28.7267443 26.9778086,30.2187971 25.7823061,30.7329773 C23.2419538,31.8244478 19.9561783,32.612326 17.5555148,29.6308778 C15.3565656,26.9184773 14.6743506,23.1983101 14.4573927,20.7941521 C14.2910277,19.3492658 14.9558965,17.9927334 16.0672309,17.0693347 C18.5888573,15.0936602 23.2678416,11.7441811 24.3326568,12.1786435 C25.2910299,12.5692611 28.2035353,15.5095218 30.0530653,17.3908635 C31.0413342,18.4823339 31.3889793,19.9385137 31.0864735,21.3169685 L29.3629657,27.4990891 Z" id="Fill-8" stroke="none" fill="url(#linearGradient-7)" fill-rule="evenodd"></path>
                                <path d="M25.6017686,14.546074 C25.6017686,14.546074 26.8209887,19.5014777 27.1211897,19.3723683 C27.4214567,19.2439245 28.5439761,17.6706537 29.5985081,18.8273138 C30.816606,20.1629968 29.2740824,23.0073958 29.2740824,23.0073958 C29.2740824,23.0073958 28.8304476,27.6114091 29.7424039,27.0417307 C30.6543602,26.4720522 36.5612176,17.4856413 30.9953536,9.22330759 C30.9953536,9.22330759 26.5368934,4.14212211 22.1206119,6.04149386 C19.6967594,7.08435145 13.4745583,8.35356676 11.2215738,10.3004881 C8.96858934,12.2474095 8.21684314,13.8166726 9.49329149,16.8440875 C10.7696738,19.8708369 14.3433067,20.7047237 15.8729589,20.4411809 C20.3316172,19.6725143 24.7181295,16.4441147 25.6017686,14.546074 Z" id="Fill-9" stroke="none" fill="#7E8FA4" fill-rule="evenodd"></path>
                                <mask id="mask-9" fill="white">
                                    <use xlink:href="#path-8"></use>
                                </mask>
                                <use id="Mask" stroke="#E0E4EC" stroke-width="1.71" fill="none" xlink:href="#path-8"></use>
                            </g>
                        </g>
                    </g>
                </g>
                <g id="Group-66" transform="translate(539.168571, 354.000000) rotate(-270.000000) translate(-539.168571, -354.000000) translate(520.168571, 335.000000)">
                    <path d="M7.6,28.8 C8.2627417,28.8 8.8,29.3372583 8.8,30 L8.8,36 C8.8,36.6627417 8.2627417,37.2 7.6,37.2 L1.6,37.2 C0.9372583,37.2 0.4,36.6627417 0.4,36 L0.4,30 C0.4,29.3372583 0.9372583,28.8 1.6,28.8 L7.6,28.8 Z M22,28.8 C22.6627417,28.8 23.2,29.3372583 23.2,30 L23.2,36 C23.2,36.6627417 22.6627417,37.2 22,37.2 L16,37.2 C15.3372583,37.2 14.8,36.6627417 14.8,36 L14.8,30 C14.8,29.3372583 15.3372583,28.8 16,28.8 L22,28.8 Z M36.4,28.8 C37.0627417,28.8 37.6,29.3372583 37.6,30 L37.6,36 C37.6,36.6627417 37.0627417,37.2 36.4,37.2 L30.4,37.2 C29.7372583,37.2 29.2,36.6627417 29.2,36 L29.2,30 C29.2,29.3372583 29.7372583,28.8 30.4,28.8 L36.4,28.8 Z M7.6,14.4 C8.2627417,14.4 8.8,14.9372583 8.8,15.6 L8.8,21.6 C8.8,22.2627417 8.2627417,22.8 7.6,22.8 L1.6,22.8 C0.9372583,22.8 0.4,22.2627417 0.4,21.6 L0.4,15.6 C0.4,14.9372583 0.9372583,14.4 1.6,14.4 L7.6,14.4 Z M22,14.4 C22.6627417,14.4 23.2,14.9372583 23.2,15.6 L23.2,21.6 C23.2,22.2627417 22.6627417,22.8 22,22.8 L16,22.8 C15.3372583,22.8 14.8,22.2627417 14.8,21.6 L14.8,15.6 C14.8,14.9372583 15.3372583,14.4 16,14.4 L22,14.4 Z M36.4,14.4 C37.0627417,14.4 37.6,14.9372583 37.6,15.6 L37.6,21.6 C37.6,22.2627417 37.0627417,22.8 36.4,22.8 L30.4,22.8 C29.7372583,22.8 29.2,22.2627417 29.2,21.6 L29.2,15.6 C29.2,14.9372583 29.7372583,14.4 30.4,14.4 L36.4,14.4 Z M7.6,0 C8.2627417,0 8.8,0.5372583 8.8,1.2 L8.8,7.2 C8.8,7.8627417 8.2627417,8.4 7.6,8.4 L1.6,8.4 C0.9372583,8.4 0.4,7.8627417 0.4,7.2 L0.4,1.2 C0.4,0.5372583 0.9372583,0 1.6,0 L7.6,0 Z M22,0 C22.6627417,0 23.2,0.5372583 23.2,1.2 L23.2,7.2 C23.2,7.8627417 22.6627417,8.4 22,8.4 L16,8.4 C15.3372583,8.4 14.8,7.8627417 14.8,7.2 L14.8,1.2 C14.8,0.5372583 15.3372583,0 16,0 L22,0 Z M36.4,0 C37.0627417,0 37.6,0.5372583 37.6,1.2 L37.6,7.2 C37.6,7.8627417 37.0627417,8.4 36.4,8.4 L30.4,8.4 C29.7372583,8.4 29.2,7.8627417 29.2,7.2 L29.2,1.2 C29.2,0.5372583 29.7372583,0 30.4,0 L36.4,0 Z" id="Shape" fill="#C5CFDE"></path>
                    <path d="M22,0 C22.6627417,0 23.2,0.5372583 23.2,1.2 L23.2,7.2 C23.2,7.8627417 22.6627417,8.4 22,8.4 L16,8.4 C15.3372583,8.4 14.8,7.8627417 14.8,7.2 L14.8,1.2 C14.8,0.5372583 15.3372583,0 16,0 L22,0 Z" id="Path" fill="#241DBA"></path>
                </g>
                <g id="Group-2-Copy-4" transform="translate(530.168571, 100.000000)" fill-rule="nonzero">
                    <rect id="Rectangle" fill="#7E8FA4" x="8.50846923" y="1.32986529" width="1.06300269" height="16.4832133"></rect>
                    <rect id="Rectangle" fill="#7E8FA4" x="17.8130785" y="1.32986529" width="1.06300269" height="16.4832133"></rect>
                    <rect id="Rectangle" fill="#7E8FA4" x="7.24531959" y="0.531501345" width="12.7627038" height="1.32986529"></rect>
                    <rect id="Rectangle" fill="#E0E4EC" x="0.531501345" y="16.1763213" width="26.1881165" height="30.7914963" rx="4.0375"></rect>
                    <circle id="Oval" fill="#241DBA" cx="5.31056574" cy="46.9255644" r="1.98812637"></circle>
                    <circle id="Oval" fill="#F0E4E4" cx="5.31056574" cy="46.9255644" r="1"></circle>
                    <circle id="Oval" fill="#241DBA" cx="22.207416" cy="46.7943569" r="1.98812637"></circle>
                    <circle id="Oval" fill="#F0E4E4" cx="22.207416" cy="46.7943569" r="1"></circle>
                    <circle id="Oval" fill="#C5CFDE" cx="13.5610678" cy="31.5053538" r="4.51887336"></circle>
                </g>
                <g id="Group-31-Copy" transform="translate(406.168571, 327.000000)">
                    <path d="M15.9099108,0.60191328 L19.2458135,0.60191328 C19.5075137,0.60191328 19.7196635,0.814063151 19.7196635,1.07576328 L19.7196635,6.18827422 L19.7196635,6.18827422 C19.7196635,8.75873214 21.2679953,12.3485004 23.3290727,17.231022 C25.3901501,22.1135437 24.8605794,24.5343866 24.8605794,29.5844468 L24.8605794,48.1504725 C24.8605794,49.7206733 23.5876801,50.9935725 22.0174794,50.9935725 L13.138245,50.9935725 C11.5680442,50.9935725 10.295145,49.7206733 10.295145,48.1504725 L10.295145,29.5844468 L10.295145,29.5844468 C10.295145,24.5937991 9.77796148,22.1708686 11.7549784,17.4023325 L12.7863641,14.9520297 C14.3267126,11.2646118 15.4035362,8.42683103 15.4353371,6.28514472 L15.4360608,6.18827422 L15.4360608,1.07576328 C15.4360608,0.814063151 15.6482107,0.60191328 15.9099108,0.60191328 Z M19.1360059,0.236925 L19.1360059,0.60191328 L19.1360059,0.60191328 L17.5778622,0.60191328 L16.0197184,0.60191328 L16.0197184,0.236925 C16.0197184,0.106074936 16.1257934,-6.70977674e-15 16.2566434,-6.73381351e-15 L18.8990809,-6.73381351e-15 C19.029931,-6.75785027e-15 19.1360059,0.106074936 19.1360059,0.236925 Z" id="Shape" fill="#E0E4EC"></path>
                    <path d="M2.77493609,38.9688731 L3.79954355,48.8272641 C3.92500824,50.0344385 4.94242317,50.9515912 6.15610001,50.9515912 L11.3862069,50.9515912 C12.603506,50.9515912 13.6227221,50.0291178 13.743723,48.8178474 L14.7281596,38.9632231 C14.8061995,38.182011 14.2361657,37.4854496 13.4549536,37.4074097 C13.4079984,37.4027191 13.3608388,37.4003694 13.3136499,37.4003694 L4.18886996,37.4003694 C3.40376958,37.4003694 2.76731996,38.036819 2.76731996,38.8219194 C2.76731996,38.8710026 2.76986208,38.9200529 2.77493609,38.9688731 Z" id="Path-11" fill="#C5CFDE"></path>
                    <path d="M1.52666197,35.643862 C3.56221126,33.6083127 6.86248874,33.6083127 8.89803803,35.643862 L8.89803803,35.643862 L7.089,37.4522 L4.24142595,37.4529254 C3.45632556,37.4529254 2.81987595,38.089375 2.81987595,38.8744754 C2.81987595,38.9235586 2.82241806,38.9726088 2.82749207,39.0214291 L3.081,41.4602 L1.52666197,43.015238 C-0.449018226,41.0395578 -0.507126467,37.8724512 1.35233725,35.8266871 Z" id="Combined-Shape" fill="#241DBA"></path>
                    <path d="M18.3521093,38.8557 L39.0081659,38.8557 C39.3222061,38.8557 39.5767859,39.1102798 39.5767859,39.42432 C39.5767859,39.486878 39.5664627,39.5490072 39.5462323,39.6082038 L36.6448807,48.0979106 C36.0157755,49.9387488 34.285718,51.1758 32.3403496,51.1758 L25.2944357,51.1758 C23.3965924,51.1758 21.6981784,49.997564 21.0335458,48.2199047 L17.8194981,39.6234531 C17.7095199,39.3293 17.8588232,39.0016869 18.1529762,38.8917088 C18.216667,38.867896 18.2841125,38.8557 18.3521093,38.8557 Z" id="Rectangle" fill="#7E8FA4"></path>
                    <path d="M25.5879,32.2091753 C26.1140189,31.5942082 26.9116822,31.5942082 27.4378011,32.2091753 L27.4754742,32.2532104 C27.9801643,32.8431299 28.7453389,32.8431299 29.250029,32.2532104 L29.2845253,32.2128886 C29.7695937,31.6459044 30.5050193,31.6459044 30.9900877,32.2128886 C31.4751561,32.7798727 32.2105816,32.7798727 32.69565,32.2128886" id="Path" stroke="#E5E7F4" stroke-width="0.85293" stroke-linecap="round" transform="translate(29.141775, 32.221800) rotate(-90.000000) translate(-29.141775, -32.221800) "></path>
                    <path d="M28.90485,27.9445253 C29.4586288,27.3295582 30.2982282,27.3295582 30.852007,27.9445253 L30.8916607,27.9885604 C31.4228842,28.5784799 32.2282868,28.5784799 32.7595103,27.9885604 L32.7958201,27.9482386 C33.3063903,27.3812544 34.0804798,27.3812544 34.59105,27.9482386" id="Path" stroke="#E5E7F4" stroke-width="0.85293" stroke-linecap="round" transform="translate(31.747950, 27.957150) rotate(-90.000000) translate(-31.747950, -27.957150) "></path>
                    <path d="M29.3787,35.9787051 L29.4189026,36.0246656 C29.9574795,36.6403781 30.7740307,36.6403781 31.3126075,36.0246656 L31.34942,35.9825808 C31.8670577,35.3908064 32.6518624,35.3908064 33.1695,35.9825808" id="Path" stroke="#DDDEEE" stroke-width="0.85293" stroke-linecap="round" transform="translate(31.274100, 36.012600) rotate(-90.000000) translate(-31.274100, -36.012600) "></path>
                </g>
                <g id="icon/action/power_settings_new_24px" transform="translate(566.168571, 42.000000)">
                    <mask id="mask-11" fill="white">
                        <use xlink:href="#path-10"></use>
                    </mask>
                    <g fill-rule="nonzero"></g>
                    <g id="↳-Color" mask="url(#mask-11)" fill="#7E8FA4">
                        <g transform="translate(-2.000000, -2.000000)" id="Rectangle">
                            <rect x="0" y="0" width="18" height="18"></rect>
                        </g>
                    </g>
                </g>
                <g id="Logotipo-Goguest-01" transform="translate(396.168571, 37.000000)" fill-rule="nonzero">
                    <g id="Group">
                        <path d="M13.4471565,3.66191209 C13.9369571,3.86231962 14.3890807,4.09612841 14.8035273,4.36333846 C15.104943,4.563746 15.4063588,4.79755479 15.7077745,5.06476484 C15.8961593,5.23177111 16.0468672,5.39877739 16.235252,5.56578367 C16.4989908,5.86639498 16.9134374,6 17.2902071,6 C17.5916228,6 17.8930385,5.89979623 18.1567773,5.73278995 C18.7596087,5.29857363 18.8349627,4.53034474 18.3451621,4.0293259 C18.1191003,3.79551711 17.8930385,3.56170832 17.6669767,3.36130078 C17.2902071,3.02728823 16.8757604,2.72667692 16.4613138,2.42606562 C15.8961593,2.0586518 15.2933279,1.72463925 14.6528194,1.4574292 C13.974634,1.1568179 13.1457408,1.42402794 12.8066481,2.02525055 C12.4675554,2.65987441 12.7689711,3.39470204 13.4471565,3.66191209 Z" id="Path" fill="url(#linearGradient-12)"></path>
                        <path d="M20,10.3073381 C20,9.58401609 19.4039663,9.00535852 18.7027503,9.00535852 L17.3353789,9.00535852 C17.3353789,9.00535852 17.3353789,9.00535852 17.3353789,9.00535852 L14.8110011,9.00535852 C14.2500282,6.79922651 12.321684,5.20791818 10.007671,5.20791818 C7.27292835,5.20791818 5.02903692,7.52254848 5.02903692,10.3435042 C5.02903692,13.1644598 7.27292835,15.4790901 10.007671,15.4790901 C12.321684,15.4790901 14.2500282,13.8516157 14.8110011,11.6816498 L17.3704397,11.6816498 C16.7393453,15.4067579 13.5137514,18.2277136 9.65706298,18.0468831 C5.7653138,17.8660526 2.64490229,14.5749377 2.53971988,10.5605008 C2.43453747,6.22056894 5.8003746,2.67629129 9.97261021,2.64012519 C10.6738263,2.64012519 11.2698599,2.06146761 11.2698599,1.37431174 C11.3049207,0.614823674 10.7088871,0 10.007671,0 C4.29276005,0 -0.300205201,4.95475549 0.01534203,10.8859956 C0.295828458,16.1300799 4.39794246,20.3615134 9.48175896,20.6508422 C15.2317307,20.9763371 20,16.2385782 20,10.3073381 C20,10.3435042 20,10.3435042 20,10.3073381 Z M10.007671,12.838965 C8.67536048,12.838965 7.58847558,11.7178159 7.58847558,10.3435042 C7.58847558,8.96919242 8.67536048,7.84804337 10.007671,7.84804337 C11.3399815,7.84804337 12.4268665,8.96919242 12.4268665,10.3435042 C12.4268665,11.7178159 11.3399815,12.838965 10.007671,12.838965 Z" id="Shape" fill="url(#linearGradient-13)"></path>
                    </g>
                </g>
                <g id="Group-6-Copy-2" transform="translate(406.168571, 221.000000)">
                    <rect id="Rectangle" fill="#E0E4EC" x="0" y="0" width="42.1344" height="46.9224" rx="4.788"></rect>
                    <rect id="Rectangle" fill="#C5CFDE" x="5.2668" y="20.5884" width="13.78944" height="6.4638" rx="0.86184"></rect>
                    <line x1="6.99048" y1="22.743" x2="13.8852" y2="22.743" id="Line-2" stroke="#EEEFF7" stroke-width="0.5" stroke-linecap="round"></line>
                    <line x1="6.99048" y1="23.60484" x2="13.8852" y2="23.60484" id="Line-2-Copy" stroke="#EEEFF7" stroke-width="0.5" stroke-linecap="round"></line>
                    <line x1="6.99048" y1="24.46668" x2="13.8852" y2="24.46668" id="Line-2-Copy-2" stroke="#EEEFF7" stroke-width="0.5" stroke-linecap="round"></line>
                    <line x1="6.99048" y1="25.32852" x2="13.8852" y2="25.32852" id="Line-2-Copy-3" stroke="#EEEFF7" stroke-width="0.5" stroke-linecap="round"></line>
                    <path d="M16.47072,25.75944 C16.47072,25.75944 17.76348,24.3981418 17.76348,23.60484 C17.76348,22.8115382 17.1846916,22.31208 16.47072,22.31208 C15.7567484,22.31208 15.17796,22.8115382 15.17796,23.60484 C15.17796,24.3981418 16.47072,25.75944 16.47072,25.75944 L16.47072,25.75944 L16.47072,25.75944 Z M16.47072,24.03576 C16.7087105,24.03576 16.90164,23.8428305 16.90164,23.60484 C16.90164,23.3668495 16.7087105,23.17392 16.47072,23.17392 C16.2327295,23.17392 16.0398,23.3668495 16.0398,23.60484 C16.0398,23.8428305 16.2327295,24.03576 16.47072,24.03576 L16.47072,24.03576 L16.47072,24.03576 Z" id="shape" fill="#241DBA"></path>
                    <rect id="Rectangle" fill="#C5CFDE" x="5.2668" y="28.728" width="13.78944" height="6.4638" rx="0.86184"></rect>
                    <line x1="6.99048" y1="30.8826" x2="13.8852" y2="30.8826" id="Line-2" stroke="#EEEFF7" stroke-width="0.5" stroke-linecap="round"></line>
                    <line x1="6.99048" y1="31.74444" x2="13.8852" y2="31.74444" id="Line-2-Copy" stroke="#EEEFF7" stroke-width="0.5" stroke-linecap="round"></line>
                    <line x1="6.99048" y1="32.60628" x2="13.8852" y2="32.60628" id="Line-2-Copy-2" stroke="#EEEFF7" stroke-width="0.5" stroke-linecap="round"></line>
                    <line x1="6.99048" y1="33.46812" x2="13.8852" y2="33.46812" id="Line-2-Copy-3" stroke="#EEEFF7" stroke-width="0.5" stroke-linecap="round"></line>
                    <path d="M16.47072,33.89904 C16.47072,33.89904 17.76348,32.5377418 17.76348,31.74444 C17.76348,30.9511382 17.1846916,30.45168 16.47072,30.45168 C15.7567484,30.45168 15.17796,30.9511382 15.17796,31.74444 C15.17796,32.5377418 16.47072,33.89904 16.47072,33.89904 L16.47072,33.89904 L16.47072,33.89904 Z M16.47072,32.17536 C16.7087105,32.17536 16.90164,31.9824305 16.90164,31.74444 C16.90164,31.5064495 16.7087105,31.31352 16.47072,31.31352 C16.2327295,31.31352 16.0398,31.5064495 16.0398,31.74444 C16.0398,31.9824305 16.2327295,32.17536 16.47072,32.17536 L16.47072,32.17536 L16.47072,32.17536 Z" id="shape" fill="#241DBA"></path>
                    <rect id="Rectangle" fill="#C5CFDE" x="22.9824" y="28.728" width="13.78944" height="6.4638" rx="0.86184"></rect>
                    <line x1="24.70608" y1="30.8826" x2="31.6008" y2="30.8826" id="Line-2" stroke="#EEEFF7" stroke-width="0.5" stroke-linecap="round"></line>
                    <line x1="24.70608" y1="31.74444" x2="31.6008" y2="31.74444" id="Line-2-Copy" stroke="#EEEFF7" stroke-width="0.5" stroke-linecap="round"></line>
                    <line x1="24.70608" y1="32.60628" x2="31.6008" y2="32.60628" id="Line-2-Copy-2" stroke="#EEEFF7" stroke-width="0.5" stroke-linecap="round"></line>
                    <line x1="24.70608" y1="33.46812" x2="31.6008" y2="33.46812" id="Line-2-Copy-3" stroke="#EEEFF7" stroke-width="0.5" stroke-linecap="round"></line>
                    <rect id="Rectangle" fill="#C5CFDE" x="5.2668" y="36.8676" width="13.78944" height="6.4638" rx="0.86184"></rect>
                    <line x1="6.99048" y1="39.0222" x2="13.8852" y2="39.0222" id="Line-2" stroke="#EEEFF7" stroke-width="0.5" stroke-linecap="round"></line>
                    <line x1="6.99048" y1="39.88404" x2="13.8852" y2="39.88404" id="Line-2-Copy" stroke="#EEEFF7" stroke-width="0.5" stroke-linecap="round"></line>
                    <line x1="6.99048" y1="40.74588" x2="13.8852" y2="40.74588" id="Line-2-Copy-2" stroke="#EEEFF7" stroke-width="0.5" stroke-linecap="round"></line>
                    <line x1="6.99048" y1="41.60772" x2="13.8852" y2="41.60772" id="Line-2-Copy-3" stroke="#EEEFF7" stroke-width="0.5" stroke-linecap="round"></line>
                    <path d="M16.47072,42.03864 C16.47072,42.03864 17.76348,40.6773418 17.76348,39.88404 C17.76348,39.0907382 17.1846916,38.59128 16.47072,38.59128 C15.7567484,38.59128 15.17796,39.0907382 15.17796,39.88404 C15.17796,40.6773418 16.47072,42.03864 16.47072,42.03864 L16.47072,42.03864 L16.47072,42.03864 Z M16.47072,40.31496 C16.7087105,40.31496 16.90164,40.1220305 16.90164,39.88404 C16.90164,39.6460495 16.7087105,39.45312 16.47072,39.45312 C16.2327295,39.45312 16.0398,39.6460495 16.0398,39.88404 C16.0398,40.1220305 16.2327295,40.31496 16.47072,40.31496 L16.47072,40.31496 L16.47072,40.31496 Z" id="shape" fill="#241DBA"></path>
                    <rect id="Rectangle" fill="#C5CFDE" x="22.9824" y="36.8676" width="13.78944" height="6.4638" rx="0.86184"></rect>
                    <line x1="24.70608" y1="39.0222" x2="31.6008" y2="39.0222" id="Line-2" stroke="#EEEFF7" stroke-width="0.5" stroke-linecap="round"></line>
                    <line x1="24.70608" y1="39.88404" x2="31.6008" y2="39.88404" id="Line-2-Copy" stroke="#EEEFF7" stroke-width="0.5" stroke-linecap="round"></line>
                    <line x1="24.70608" y1="40.74588" x2="31.6008" y2="40.74588" id="Line-2-Copy-2" stroke="#EEEFF7" stroke-width="0.5" stroke-linecap="round"></line>
                    <line x1="24.70608" y1="41.60772" x2="31.6008" y2="41.60772" id="Line-2-Copy-3" stroke="#EEEFF7" stroke-width="0.5" stroke-linecap="round"></line>
                    <path d="M20.4477785,6.12633253 L21.9260215,6.12633253 C22.1846906,6.12633253 22.3944128,5.90936691 22.3944128,5.64176386 C22.3944128,5.3741608 22.1846906,5.15719518 21.9260215,5.15719518 L20.4477785,5.15719518 C20.1891094,5.15719518 19.9793872,5.3741608 19.9793872,5.64176386 C19.9793872,5.90936691 20.1891094,6.12633253 20.4477785,6.12633253 L20.4477785,6.12633253 Z M16.7371826,13.3948627 L25.6366174,13.3948627 L25.6366174,9.03374458 L16.7371826,9.03374458 L16.7371826,13.3948627 Z M26.5734,5.68658646 L26.5734,13.8794313 C26.5734,14.1470344 26.3636778,14.364 26.1050087,14.364 L16.2687913,14.364 C16.0101222,14.364 15.8004,14.1470344 15.8004,13.8794313 L15.8004,5.68658646 C15.8004,5.41898341 16.0101222,5.15719518 16.2687913,5.15719518 L17.3635389,5.15719518 C17.622208,5.15719518 17.8319302,5.3741608 17.8319302,5.64176386 C17.8319302,5.90936691 17.622208,6.12633253 17.3635389,6.12633253 L16.7371826,6.12633253 L16.7371826,8.1857494 L25.6366174,8.1857494 L25.6366174,6.12633253 L25.010144,6.12633253 C24.7514749,6.12633253 24.5417527,5.90936691 24.5417527,5.64176386 C24.5417527,5.3741608 24.7514749,5.15719518 25.010144,5.15719518 L26.1050087,5.15719518 C26.3636778,5.15719518 26.5734,5.41898341 26.5734,5.68658646 L26.5734,5.68658646 Z M23.4117587,7.0719683 C23.7350658,7.0719683 23.9972478,6.80073098 23.9972478,6.46625746 L23.9972478,4.91491084 C23.9972478,4.58043732 23.7350658,4.3092 23.4117587,4.3092 C23.0883345,4.3092 22.8262696,4.58043732 22.8262696,4.91491084 L22.8262696,6.46625746 C22.8262696,6.80073098 23.0883345,7.0719683 23.4117587,7.0719683 L23.4117587,7.0719683 Z M18.3765522,6.46625746 L18.3765522,4.91491084 C18.3765522,4.58043732 18.6386171,4.3092 18.9620413,4.3092 C19.2853484,4.3092 19.5475304,4.58043732 19.5475304,4.91491084 L19.5475304,6.46625746 C19.5475304,6.80073098 19.2853484,7.0719683 18.9620413,7.0719683 C18.6386171,7.0719683 18.3765522,6.80073098 18.3765522,6.46625746 L18.3765522,6.46625746 Z" id="calendar-copy" fill="#7E8FA4"></path>
                    <g id="Group-11" transform="translate(6.775020, 30.451680)"></g>
                    <g id="Group-11" transform="translate(32.470620, 30.451680)" fill="#241DBA">
                        <path d="M1.7157,3.44736 C1.7157,3.44736 3.00846,2.08606181 3.00846,1.29276 C3.00846,0.499458185 2.42967163,0 1.7157,0 C1.00172837,0 0.42294,0.499458185 0.42294,1.29276 C0.42294,2.08606181 1.7157,3.44736 1.7157,3.44736 L1.7157,3.44736 L1.7157,3.44736 Z M1.7157,1.72368 C1.95369054,1.72368 2.14662,1.53075054 2.14662,1.29276 C2.14662,1.05476946 1.95369054,0.86184 1.7157,0.86184 C1.47770946,0.86184 1.28478,1.05476946 1.28478,1.29276 C1.28478,1.53075054 1.47770946,1.72368 1.7157,1.72368 L1.7157,1.72368 L1.7157,1.72368 Z" id="shape"></path>
                    </g>
                    <g id="Group-11" transform="translate(6.775020, 38.591280)"></g>
                    <g id="Group-11" transform="translate(32.470620, 38.591280)" fill="#241DBA">
                        <path d="M1.7157,3.44736 C1.7157,3.44736 3.00846,2.08606181 3.00846,1.29276 C3.00846,0.499458185 2.42967163,0 1.7157,0 C1.00172837,0 0.42294,0.499458185 0.42294,1.29276 C0.42294,2.08606181 1.7157,3.44736 1.7157,3.44736 L1.7157,3.44736 L1.7157,3.44736 Z M1.7157,1.72368 C1.95369054,1.72368 2.14662,1.53075054 2.14662,1.29276 C2.14662,1.05476946 1.95369054,0.86184 1.7157,0.86184 C1.47770946,0.86184 1.28478,1.05476946 1.28478,1.29276 C1.28478,1.53075054 1.47770946,1.72368 1.7157,1.72368 L1.7157,1.72368 L1.7157,1.72368 Z" id="shape"></path>
                    </g>
                    <g id="Group-15" transform="translate(30.164400, 14.364000)">
                        <rect id="Rectangle" fill="#241DBA" x="0" y="1.4364" width="22.9824" height="10.773" rx="1.4364"></rect>
                        <g id="Group-8-Copy-3" transform="translate(1.436400, 0.000000)">
                            <rect id="Rectangle" fill="#C5CFDE" x="0" y="0" width="22.9824" height="10.773" rx="1.4364"></rect>
                            <g id="Group-11" transform="translate(2.513700, 2.872800)">
                                <line x1="0.3591" y1="0.7182" x2="11.8503" y2="0.7182" id="Line-2" stroke="#FFFFFF" stroke-width="0.7182" stroke-linecap="round"></line>
                                <line x1="0.3591" y1="2.1546" x2="11.8503" y2="2.1546" id="Line-2-Copy" stroke="#FFFFFF" stroke-width="0.7182" stroke-linecap="round"></line>
                                <line x1="0.3591" y1="3.591" x2="11.8503" y2="3.591" id="Line-2-Copy-2" stroke="#FFFFFF" stroke-width="0.7182" stroke-linecap="round"></line>
                                <line x1="0.3591" y1="5.0274" x2="11.8503" y2="5.0274" id="Line-2-Copy-3" stroke="#FFFFFF" stroke-width="0.7182" stroke-linecap="round"></line>
                                <path d="M16.1595,5.7456 C16.1595,5.7456 18.3141,3.47676969 18.3141,2.1546 C18.3141,0.832430309 17.3494527,0 16.1595,0 C14.9695473,0 14.0049,0.832430309 14.0049,2.1546 C14.0049,3.47676969 16.1595,5.7456 16.1595,5.7456 L16.1595,5.7456 L16.1595,5.7456 Z M16.1595,2.8728 C16.5561509,2.8728 16.8777,2.55125091 16.8777,2.1546 C16.8777,1.75794909 16.5561509,1.4364 16.1595,1.4364 C15.7628491,1.4364 15.4413,1.75794909 15.4413,2.1546 C15.4413,2.55125091 15.7628491,2.8728 16.1595,2.8728 L16.1595,2.8728 L16.1595,2.8728 Z" id="shape" fill="#241DBA"></path>
                            </g>
                        </g>
                    </g>
                </g>
                <g id="Group-64" transform="translate(528.168571, 221.000000)">
                    <g id="Group-63">
                        <g id="Group-58" transform="translate(0.000000, 3.800000)">
                            <rect id="Rectangle" fill="#E0E4EC" x="0" y="1.62003744e-14" width="30.21" height="45.144" rx="1.71"></rect>
                            <line x1="4.24848837" y1="10.26" x2="25.9615116" y2="10.26" id="Line-10" stroke="#7E8FA4" stroke-width="1.425" stroke-linecap="round"></line>
                            <line x1="4.24848837" y1="16.416" x2="25.9615116" y2="16.416" id="Line-10-Copy" stroke="#7E8FA4" stroke-width="1.425" stroke-linecap="round"></line>
                            <line x1="4.24848837" y1="22.572" x2="25.9615116" y2="22.572" id="Line-10-Copy-2" stroke="#7E8FA4" stroke-width="1.425" stroke-linecap="round"></line>
                            <line x1="4.24848837" y1="28.728" x2="15.6484884" y2="28.728" id="Line-10-Copy-3" stroke="#7E8FA4" stroke-width="1.425" stroke-linecap="round"></line>
                            <line x1="4.24848837" y1="35.15" x2="15.6484884" y2="35.15" id="Line-10-Copy-4" stroke="#7E8FA4" stroke-width="1.425" stroke-linecap="round"></line>
                        </g>
                        <rect id="Rectangle" fill="#E0E4EC" x="8.55" y="0" width="13.3" height="5.7" rx="0.95"></rect>
                        <circle id="Oval" fill="#FFFFFF" cx="15.2" cy="4.75" r="1.9"></circle>
                    </g>
                    <g id="Group-15" transform="translate(14.000000, 10.000000)">
                        <rect id="Rectangle" fill="#241DBA" x="0" y="1.4364" width="22.9824" height="10.773" rx="1.4364"></rect>
                        <g id="Group-8-Copy-3" transform="translate(1.436400, 0.000000)">
                            <rect id="Rectangle" fill="#C5CFDE" x="0" y="0" width="22.9824" height="10.773" rx="1.4364"></rect>
                            <g id="Group-11" transform="translate(2.513700, 2.872800)">
                                <line x1="0.3591" y1="0.7182" x2="11.8503" y2="0.7182" id="Line-2" stroke="#FFFFFF" stroke-width="0.7182" stroke-linecap="round"></line>
                                <line x1="0.3591" y1="2.1546" x2="11.8503" y2="2.1546" id="Line-2-Copy" stroke="#FFFFFF" stroke-width="0.7182" stroke-linecap="round"></line>
                                <line x1="0.3591" y1="3.591" x2="11.8503" y2="3.591" id="Line-2-Copy-2" stroke="#FFFFFF" stroke-width="0.7182" stroke-linecap="round"></line>
                                <line x1="0.3591" y1="5.0274" x2="11.8503" y2="5.0274" id="Line-2-Copy-3" stroke="#FFFFFF" stroke-width="0.7182" stroke-linecap="round"></line>
                                <path d="M16.1595,5.7456 C16.1595,5.7456 18.3141,3.47676969 18.3141,2.1546 C18.3141,0.832430309 17.3494527,0 16.1595,0 C14.9695473,0 14.0049,0.832430309 14.0049,2.1546 C14.0049,3.47676969 16.1595,5.7456 16.1595,5.7456 L16.1595,5.7456 L16.1595,5.7456 Z M16.1595,2.8728 C16.5561509,2.8728 16.8777,2.55125091 16.8777,2.1546 C16.8777,1.75794909 16.5561509,1.4364 16.1595,1.4364 C15.7628491,1.4364 15.4413,1.75794909 15.4413,2.1546 C15.4413,2.55125091 15.7628491,2.8728 16.1595,2.8728 L16.1595,2.8728 L16.1595,2.8728 Z" id="shape" fill="#241DBA"></path>
                            </g>
                        </g>
                    </g>
                </g>
                <text id="Reserva-servicios" font-family="Lato-Bold, Lato" font-size="9.792" font-weight="bold" line-spacing="11.628" fill="#7E8FA4">
                    <tspan x="407.302789" y="287.546882">Reserva </tspan>
                    <tspan x="405.777685" y="299.174882">servicios</tspan>
                </text>
                <g id="Group-57" transform="translate(396.168571, 107.000000)">
                    <text id="Información-de-la-re" font-family="Lato-Bold, Lato" font-size="9.792" font-weight="bold" line-spacing="11.628" fill="#7E8FA4">
                        <tspan x="2.3988" y="70">Información </tspan>
                        <tspan x="1.397568" y="81.628">de la reserva</tspan>
                    </text>
                    <g id="Fill-537-Copy" transform="translate(9.000000, 0.000000)" fill="#E0E4EC">
                        <path d="M40.014,31.122 L35.568,31.122 L35.568,26.676 L40.014,26.676 L40.014,31.122 Z M40.014,40.014 L35.568,40.014 L35.568,35.568 L40.014,35.568 L40.014,40.014 Z M28.899,13.338 L24.453,13.338 L24.453,8.892 L28.899,8.892 L28.899,13.338 Z M28.899,22.23 L24.453,22.23 L24.453,17.784 L28.899,17.784 L28.899,22.23 Z M28.899,31.122 L24.453,31.122 L24.453,26.676 L28.899,26.676 L28.899,31.122 Z M20.007,13.338 L15.561,13.338 L15.561,8.892 L20.007,8.892 L20.007,13.338 Z M20.007,22.23 L15.561,22.23 L15.561,17.784 L20.007,17.784 L20.007,22.23 Z M20.007,31.122 L15.561,31.122 L15.561,26.676 L20.007,26.676 L20.007,31.122 Z M8.892,31.122 L4.446,31.122 L4.446,26.676 L8.892,26.676 L8.892,31.122 Z M8.892,40.014 L4.446,40.014 L4.446,35.568 L8.892,35.568 L8.892,40.014 Z M42.237,22.23 L33.345,22.23 L33.345,6.669 C33.345,5.444127 32.351319,4.446 31.122,4.446 L28.899,4.446 L28.899,2.223 C28.899,0.998127 27.905319,0 26.676,0 L17.784,0 C16.556904,0 15.561,0.998127 15.561,2.223 L15.561,4.446 L13.338,4.446 C12.110904,4.446 11.115,5.444127 11.115,6.669 L11.115,22.23 L2.223,22.23 C0.995904,22.23 0,23.228127 0,24.453 L0,42.237 C0,43.466319 0.995904,44.46 2.223,44.46 L17.784,44.46 L17.784,35.568 L26.676,35.568 L26.676,44.46 L42.237,44.46 C43.466319,44.46 44.46,43.466319 44.46,42.237 L44.46,24.453 C44.46,23.228127 43.466319,22.23 42.237,22.23 L42.237,22.23 Z" id="Fill-537"></path>
                    </g>
                    <g id="Group-55" transform="translate(45.000000, 2.000000)">
                        <g id="Group-6-Copy" fill="#241DBA">
                            <rect id="Rectangle" x="0" y="0" width="15.912" height="17.901" rx="2.4786"></rect>
                        </g>
                        <text id="i" font-family="Gilroy-Bold" font-size="15" font-weight="bold" letter-spacing="0.120000002" fill="#F4F3FB">
                            <tspan x="6.56934573" y="13.6491185">i</tspan>
                        </text>
                    </g>
                </g>
                <text id="Online-Check-in" font-family="Lato-Bold, Lato" font-size="9.792" font-weight="bold" line-spacing="11.628" fill="#7E8FA4">
                    <tspan x="528.800331" y="177">Online</tspan>
                    <tspan x="523.965531" y="188.628">Check-in</tspan>
                </text>
                <text id="Mis-reservas" font-family="Lato-Bold, Lato" font-size="9.792" font-weight="bold" line-spacing="11.628" fill="#7E8FA4">
                    <tspan x="515.649371" y="291">Mis reservas</tspan>
                </text>
                <text id="Pedidos" font-family="Lato-Bold, Lato" font-size="9.792" font-weight="bold" line-spacing="11.628" fill="#7E8FA4">
                    <tspan x="407.793883" y="399">Pedidos</tspan>
                </text>
                <text id="Cuentas" font-family="Lato-Bold, Lato" font-size="9.792" font-weight="bold" line-spacing="11.628" fill="#7E8FA4">
                    <tspan x="407.238187" y="486">Cuentas</tspan>
                </text>
                <text id="Configuración" font-family="Lato-Bold, Lato" font-size="9.792" font-weight="bold" line-spacing="11.628" fill="#7E8FA4">
                    <tspan x="508.400875" y="399">Configuración</tspan>
                </text>
                <circle id="Oval-Copy-29" fill="#FFFFFF" fill-rule="nonzero" cx="462.956725" cy="196.760882" r="1"></circle>
                <line x1="363.668571" y1="74.5" x2="613.668571" y2="75" id="Line-7" stroke="#7E8FA4" stroke-linecap="square"></line>
                <g id="Group-12-Copy" transform="translate(427.168571, 239.000000)" stroke="#7E8FA4" stroke-linecap="round" stroke-linejoin="round" stroke-width="0.9">
                    <polygon id="Path-5" points="5.4 0.192798461 7.24640999 1.99092299 5.4 3.9881859 6.82670698 1.99409295"></polygon>
                    <path d="M-7.03437308e-15,1.39568357e-13 C0.972,1.5637218 3.05962474,2.22841944 6.26287423,1.99409295" id="Path-4"></path>
                </g>
                <g id="Group-6-Copy" transform="translate(544.168571, 107.000000)" fill="#241DBA">
                    <rect id="Rectangle" x="0" y="0" width="15.912" height="17.901" rx="2.4786"></rect>
                </g>
                <polyline id="Path" stroke="#FFFFFF" stroke-width="1.62" points="548.168571 116.254904 550.869418 119 558.168571 111"></polyline>
            </g>
        </g>
    </g>
</svg>